%TF.GenerationSoftware,KiCad,Pcbnew,(6.0.1)*%
%TF.CreationDate,2022-04-19T11:58:33-07:00*%
%TF.ProjectId,Motherboard,4d6f7468-6572-4626-9f61-72642e6b6963,rev?*%
%TF.SameCoordinates,Original*%
%TF.FileFunction,Profile,NP*%
%FSLAX46Y46*%
G04 Gerber Fmt 4.6, Leading zero omitted, Abs format (unit mm)*
G04 Created by KiCad (PCBNEW (6.0.1)) date 2022-04-19 11:58:33*
%MOMM*%
%LPD*%
G01*
G04 APERTURE LIST*
%TA.AperFunction,Profile*%
%ADD10C,0.150000*%
%TD*%
%TA.AperFunction,Profile*%
%ADD11C,0.100000*%
%TD*%
G04 APERTURE END LIST*
D10*
X191200000Y-157300000D02*
G75*
G03*
X191200000Y-157300000I-10000000J0D01*
G01*
X265900000Y-178400000D02*
G75*
G03*
X265900000Y-178400000I-10000000J0D01*
G01*
D11*
X297890000Y-84800000D02*
X297890000Y-208600000D01*
X125500000Y-169200000D02*
X125500000Y-197400000D01*
X126500000Y-81300000D02*
X126500000Y-93100000D01*
X134500000Y-51000000D02*
X145800000Y-51000000D01*
X145800000Y-57000000D02*
X152600000Y-57000000D01*
X126500000Y-93100000D02*
X124500000Y-93100000D01*
X124500000Y-116600000D02*
X125500000Y-116600000D01*
X247900000Y-57000000D02*
X247900000Y-61000000D01*
X255900000Y-61000000D02*
X255900000Y-57000000D01*
X160600000Y-57000000D02*
X247900000Y-57000000D01*
X124500000Y-145400000D02*
X124500000Y-169200000D01*
X152600000Y-57000000D02*
X152600000Y-61000000D01*
X125500000Y-137700000D02*
X125500000Y-145400000D01*
X125500000Y-145400000D02*
X124500000Y-145400000D01*
X292950000Y-76500000D02*
X292950000Y-84800000D01*
X292950000Y-84800000D02*
X297890000Y-84800000D01*
X124500000Y-66300000D02*
X126000000Y-66300000D01*
X125500000Y-197400000D02*
X126900000Y-197400000D01*
X126900000Y-208700000D02*
X297890000Y-208600000D01*
X152600000Y-61000000D02*
X160600000Y-61000000D01*
X124500000Y-137700000D02*
X125500000Y-137700000D01*
X126900000Y-197400000D02*
X126900000Y-208700000D01*
X134500000Y-57000000D02*
X134500000Y-51000000D01*
X125500000Y-120100000D02*
X124500000Y-120100000D01*
X126000000Y-57000000D02*
X134500000Y-57000000D01*
X289500000Y-76500000D02*
X292950000Y-76500000D01*
X124500000Y-120100000D02*
X124500000Y-137700000D01*
X124600000Y-81300000D02*
X126500000Y-81300000D01*
X124500000Y-93100000D02*
X124500000Y-116600000D01*
X124500000Y-66300000D02*
X124500000Y-81300000D01*
X125500000Y-116600000D02*
X125500000Y-120100000D01*
X160600000Y-61000000D02*
X160600000Y-57000000D01*
X124500000Y-169200000D02*
X125500000Y-169200000D01*
X289500000Y-57000000D02*
X289500000Y-76500000D01*
X247900000Y-61000000D02*
X255900000Y-61000000D01*
X124500000Y-81300000D02*
X124600000Y-81300000D01*
X145800000Y-51000000D02*
X145800000Y-57000000D01*
X255900000Y-57000000D02*
X289500000Y-57000000D01*
X126000000Y-66300000D02*
X126000000Y-57000000D01*
X128566666Y-208700000D02*
G75*
G03*
X128566666Y-208700000I-1666666J0D01*
G01*
X124400000Y-208700000D02*
X129400000Y-208700000D01*
X126900000Y-206200000D02*
X126900000Y-211200000D01*
M02*
