%FSLAX45Y45*%
G04 Gerber Fmt 4.5, Leading zero omitted, Abs format (unit mm)*
G04 Created by KiCad (PCBNEW (6.0.1)) date 2022-04-19 11:59:11*
%MOMM*%
%LPD*%
G01*
G04 APERTURE LIST*
%TA.AperFunction,Profile*%
%ADD10C,0.150000*%
%TD*%
%TA.AperFunction,Profile*%
%ADD11C,0.100000*%
%TD*%
%ADD12C,0.200000*%
%ADD13C,0.100000*%
%ADD14C,0.250000*%
G04 APERTURE END LIST*
D10*
X19120000Y-15730000D02*
G75*
G03*
X19120000Y-15730000I-1000000J0D01*
G01*
X26590000Y-17840000D02*
G75*
G03*
X26590000Y-17840000I-1000000J0D01*
G01*
D11*
X29789000Y-8480000D02*
X29789000Y-20860000D01*
X12550000Y-16920000D02*
X12550000Y-19740000D01*
X12650000Y-8130000D02*
X12650000Y-9310000D01*
X13450000Y-5100000D02*
X14580000Y-5100000D01*
X14580000Y-5700000D02*
X15260000Y-5700000D01*
X12650000Y-9310000D02*
X12450000Y-9310000D01*
X12450000Y-11660000D02*
X12550000Y-11660000D01*
X24790000Y-5700000D02*
X24790000Y-6100000D01*
X25590000Y-6100000D02*
X25590000Y-5700000D01*
X16060000Y-5700000D02*
X24790000Y-5700000D01*
X12450000Y-14540000D02*
X12450000Y-16920000D01*
X15260000Y-5700000D02*
X15260000Y-6100000D01*
X12550000Y-13770000D02*
X12550000Y-14540000D01*
X12550000Y-14540000D02*
X12450000Y-14540000D01*
X29295000Y-7650000D02*
X29295000Y-8480000D01*
X29295000Y-8480000D02*
X29789000Y-8480000D01*
X12450000Y-6630000D02*
X12600000Y-6630000D01*
X12550000Y-19740000D02*
X12690000Y-19740000D01*
X12690000Y-20870000D02*
X29789000Y-20860000D01*
X15260000Y-6100000D02*
X16060000Y-6100000D01*
X12450000Y-13770000D02*
X12550000Y-13770000D01*
X12690000Y-19740000D02*
X12690000Y-20870000D01*
X13450000Y-5700000D02*
X13450000Y-5100000D01*
X12550000Y-12010000D02*
X12450000Y-12010000D01*
X12600000Y-5700000D02*
X13450000Y-5700000D01*
X28950000Y-7650000D02*
X29295000Y-7650000D01*
X12450000Y-12010000D02*
X12450000Y-13770000D01*
X12460000Y-8130000D02*
X12650000Y-8130000D01*
X12450000Y-9310000D02*
X12450000Y-11660000D01*
X12450000Y-6630000D02*
X12450000Y-8130000D01*
X12550000Y-11660000D02*
X12550000Y-12010000D01*
X16060000Y-6100000D02*
X16060000Y-5700000D01*
X12450000Y-16920000D02*
X12550000Y-16920000D01*
X28950000Y-5700000D02*
X28950000Y-7650000D01*
X24790000Y-6100000D02*
X25590000Y-6100000D01*
X12450000Y-8130000D02*
X12460000Y-8130000D01*
X14580000Y-5100000D02*
X14580000Y-5700000D01*
X25590000Y-5700000D02*
X28950000Y-5700000D01*
X12600000Y-6630000D02*
X12600000Y-5700000D01*
D12*
D13*
X13355000Y-9625000D02*
X13455000Y-9725000D01*
X13455000Y-9625000D02*
X13355000Y-9725000D01*
D12*
X13365000Y-9525000D02*
X13365000Y-9825000D01*
X13445000Y-9525000D02*
X13445000Y-9825000D01*
X13365000Y-9825000D02*
G75*
G03*
X13445000Y-9825000I40000J0D01*
G01*
X13445000Y-9525000D02*
G75*
G03*
X13365000Y-9525000I-40000J0D01*
G01*
D13*
X13445000Y-19470000D02*
X13545000Y-19570000D01*
X13545000Y-19470000D02*
X13445000Y-19570000D01*
D12*
X13455000Y-19370000D02*
X13455000Y-19670000D01*
X13535000Y-19370000D02*
X13535000Y-19670000D01*
X13455000Y-19670000D02*
G75*
G03*
X13535000Y-19670000I40000J0D01*
G01*
X13535000Y-19370000D02*
G75*
G03*
X13455000Y-19370000I-40000J0D01*
G01*
D13*
X28475000Y-19510000D02*
X28575000Y-19610000D01*
X28575000Y-19510000D02*
X28475000Y-19610000D01*
D12*
X28485000Y-19410000D02*
X28485000Y-19710000D01*
X28565000Y-19410000D02*
X28565000Y-19710000D01*
X28485000Y-19710000D02*
G75*
G03*
X28565000Y-19710000I40000J0D01*
G01*
X28565000Y-19410000D02*
G75*
G03*
X28485000Y-19410000I-40000J0D01*
G01*
D13*
X28485000Y-9600000D02*
X28585000Y-9700000D01*
X28585000Y-9600000D02*
X28485000Y-9700000D01*
D12*
X28495000Y-9500000D02*
X28495000Y-9800000D01*
X28575000Y-9500000D02*
X28575000Y-9800000D01*
X28495000Y-9800000D02*
G75*
G03*
X28575000Y-9800000I40000J0D01*
G01*
X28575000Y-9500000D02*
G75*
G03*
X28495000Y-9500000I-40000J0D01*
G01*
X15433200Y-7312900D02*
G75*
G03*
X15433200Y-7312900I-100000J0D01*
G01*
X15433200Y-9772900D02*
G75*
G03*
X15433200Y-9772900I-100000J0D01*
G01*
X17973200Y-7302900D02*
G75*
G03*
X17973200Y-7302900I-100000J0D01*
G01*
X17973200Y-9772900D02*
G75*
G03*
X17973200Y-9772900I-100000J0D01*
G01*
D14*
X15135000Y-16170500D02*
X15135000Y-16420500D01*
X15010000Y-16295500D02*
X15260000Y-16295500D01*
X15265000Y-11610500D02*
X15265000Y-11860500D01*
X15140000Y-11735500D02*
X15390000Y-11735500D01*
X20755000Y-11610500D02*
X20755000Y-11860500D01*
X20630000Y-11735500D02*
X20880000Y-11735500D01*
X20755000Y-19060500D02*
X20755000Y-19310500D01*
X20630000Y-19185500D02*
X20880000Y-19185500D01*
D12*
X12702619Y-21185476D02*
X12702619Y-20985476D01*
X12750238Y-20985476D01*
X12778809Y-20995000D01*
X12797857Y-21014048D01*
X12807381Y-21033095D01*
X12816905Y-21071190D01*
X12816905Y-21099762D01*
X12807381Y-21137857D01*
X12797857Y-21156905D01*
X12778809Y-21175952D01*
X12750238Y-21185476D01*
X12702619Y-21185476D01*
X12902619Y-21185476D02*
X12902619Y-21052143D01*
X12902619Y-21090238D02*
X12912143Y-21071190D01*
X12921667Y-21061667D01*
X12940714Y-21052143D01*
X12959762Y-21052143D01*
X13026428Y-21185476D02*
X13026428Y-21052143D01*
X13026428Y-20985476D02*
X13016905Y-20995000D01*
X13026428Y-21004524D01*
X13035952Y-20995000D01*
X13026428Y-20985476D01*
X13026428Y-21004524D01*
X13150238Y-21185476D02*
X13131190Y-21175952D01*
X13121667Y-21156905D01*
X13121667Y-20985476D01*
X13255000Y-21185476D02*
X13235952Y-21175952D01*
X13226428Y-21156905D01*
X13226428Y-20985476D01*
X13483571Y-21185476D02*
X13483571Y-20985476D01*
X13550238Y-21128333D01*
X13616905Y-20985476D01*
X13616905Y-21185476D01*
X13797857Y-21185476D02*
X13797857Y-21080714D01*
X13788333Y-21061667D01*
X13769286Y-21052143D01*
X13731190Y-21052143D01*
X13712143Y-21061667D01*
X13797857Y-21175952D02*
X13778809Y-21185476D01*
X13731190Y-21185476D01*
X13712143Y-21175952D01*
X13702619Y-21156905D01*
X13702619Y-21137857D01*
X13712143Y-21118810D01*
X13731190Y-21109286D01*
X13778809Y-21109286D01*
X13797857Y-21099762D01*
X13893095Y-21052143D02*
X13893095Y-21252143D01*
X13893095Y-21061667D02*
X13912143Y-21052143D01*
X13950238Y-21052143D01*
X13969286Y-21061667D01*
X13978809Y-21071190D01*
X13988333Y-21090238D01*
X13988333Y-21147381D01*
X13978809Y-21166429D01*
X13969286Y-21175952D01*
X13950238Y-21185476D01*
X13912143Y-21185476D01*
X13893095Y-21175952D01*
X14074048Y-21166429D02*
X14083571Y-21175952D01*
X14074048Y-21185476D01*
X14064524Y-21175952D01*
X14074048Y-21166429D01*
X14074048Y-21185476D01*
X14074048Y-21061667D02*
X14083571Y-21071190D01*
X14074048Y-21080714D01*
X14064524Y-21071190D01*
X14074048Y-21061667D01*
X14074048Y-21080714D01*
D13*
X12345000Y-21465000D02*
X12445000Y-21565000D01*
X12445000Y-21465000D02*
X12345000Y-21565000D01*
D12*
X12807381Y-21605476D02*
X12693095Y-21605476D01*
X12750238Y-21605476D02*
X12750238Y-21405476D01*
X12731190Y-21434048D01*
X12712143Y-21453095D01*
X12693095Y-21462619D01*
X12893095Y-21586429D02*
X12902619Y-21595952D01*
X12893095Y-21605476D01*
X12883571Y-21595952D01*
X12893095Y-21586429D01*
X12893095Y-21605476D01*
X13026428Y-21405476D02*
X13045476Y-21405476D01*
X13064524Y-21415000D01*
X13074048Y-21424524D01*
X13083571Y-21443571D01*
X13093095Y-21481667D01*
X13093095Y-21529286D01*
X13083571Y-21567381D01*
X13074048Y-21586429D01*
X13064524Y-21595952D01*
X13045476Y-21605476D01*
X13026428Y-21605476D01*
X13007381Y-21595952D01*
X12997857Y-21586429D01*
X12988333Y-21567381D01*
X12978809Y-21529286D01*
X12978809Y-21481667D01*
X12988333Y-21443571D01*
X12997857Y-21424524D01*
X13007381Y-21415000D01*
X13026428Y-21405476D01*
X13216905Y-21405476D02*
X13235952Y-21405476D01*
X13255000Y-21415000D01*
X13264524Y-21424524D01*
X13274048Y-21443571D01*
X13283571Y-21481667D01*
X13283571Y-21529286D01*
X13274048Y-21567381D01*
X13264524Y-21586429D01*
X13255000Y-21595952D01*
X13235952Y-21605476D01*
X13216905Y-21605476D01*
X13197857Y-21595952D01*
X13188333Y-21586429D01*
X13178809Y-21567381D01*
X13169286Y-21529286D01*
X13169286Y-21481667D01*
X13178809Y-21443571D01*
X13188333Y-21424524D01*
X13197857Y-21415000D01*
X13216905Y-21405476D01*
X13407381Y-21405476D02*
X13426428Y-21405476D01*
X13445476Y-21415000D01*
X13455000Y-21424524D01*
X13464524Y-21443571D01*
X13474048Y-21481667D01*
X13474048Y-21529286D01*
X13464524Y-21567381D01*
X13455000Y-21586429D01*
X13445476Y-21595952D01*
X13426428Y-21605476D01*
X13407381Y-21605476D01*
X13388333Y-21595952D01*
X13378809Y-21586429D01*
X13369286Y-21567381D01*
X13359762Y-21529286D01*
X13359762Y-21481667D01*
X13369286Y-21443571D01*
X13378809Y-21424524D01*
X13388333Y-21415000D01*
X13407381Y-21405476D01*
X13559762Y-21605476D02*
X13559762Y-21472143D01*
X13559762Y-21491190D02*
X13569286Y-21481667D01*
X13588333Y-21472143D01*
X13616905Y-21472143D01*
X13635952Y-21481667D01*
X13645476Y-21500714D01*
X13645476Y-21605476D01*
X13645476Y-21500714D02*
X13655000Y-21481667D01*
X13674048Y-21472143D01*
X13702619Y-21472143D01*
X13721667Y-21481667D01*
X13731190Y-21500714D01*
X13731190Y-21605476D01*
X13826428Y-21605476D02*
X13826428Y-21472143D01*
X13826428Y-21491190D02*
X13835952Y-21481667D01*
X13855000Y-21472143D01*
X13883571Y-21472143D01*
X13902619Y-21481667D01*
X13912143Y-21500714D01*
X13912143Y-21605476D01*
X13912143Y-21500714D02*
X13921667Y-21481667D01*
X13940714Y-21472143D01*
X13969286Y-21472143D01*
X13988333Y-21481667D01*
X13997857Y-21500714D01*
X13997857Y-21605476D01*
X14388333Y-21395952D02*
X14216905Y-21653095D01*
X14645476Y-21405476D02*
X14664524Y-21405476D01*
X14683571Y-21415000D01*
X14693095Y-21424524D01*
X14702619Y-21443571D01*
X14712143Y-21481667D01*
X14712143Y-21529286D01*
X14702619Y-21567381D01*
X14693095Y-21586429D01*
X14683571Y-21595952D01*
X14664524Y-21605476D01*
X14645476Y-21605476D01*
X14626428Y-21595952D01*
X14616905Y-21586429D01*
X14607381Y-21567381D01*
X14597857Y-21529286D01*
X14597857Y-21481667D01*
X14607381Y-21443571D01*
X14616905Y-21424524D01*
X14626428Y-21415000D01*
X14645476Y-21405476D01*
X14797857Y-21586429D02*
X14807381Y-21595952D01*
X14797857Y-21605476D01*
X14788333Y-21595952D01*
X14797857Y-21586429D01*
X14797857Y-21605476D01*
X14931190Y-21405476D02*
X14950238Y-21405476D01*
X14969286Y-21415000D01*
X14978809Y-21424524D01*
X14988333Y-21443571D01*
X14997857Y-21481667D01*
X14997857Y-21529286D01*
X14988333Y-21567381D01*
X14978809Y-21586429D01*
X14969286Y-21595952D01*
X14950238Y-21605476D01*
X14931190Y-21605476D01*
X14912143Y-21595952D01*
X14902619Y-21586429D01*
X14893095Y-21567381D01*
X14883571Y-21529286D01*
X14883571Y-21481667D01*
X14893095Y-21443571D01*
X14902619Y-21424524D01*
X14912143Y-21415000D01*
X14931190Y-21405476D01*
X15064524Y-21405476D02*
X15188333Y-21405476D01*
X15121667Y-21481667D01*
X15150238Y-21481667D01*
X15169286Y-21491190D01*
X15178809Y-21500714D01*
X15188333Y-21519762D01*
X15188333Y-21567381D01*
X15178809Y-21586429D01*
X15169286Y-21595952D01*
X15150238Y-21605476D01*
X15093095Y-21605476D01*
X15074048Y-21595952D01*
X15064524Y-21586429D01*
X15283571Y-21605476D02*
X15321667Y-21605476D01*
X15340714Y-21595952D01*
X15350238Y-21586429D01*
X15369286Y-21557857D01*
X15378809Y-21519762D01*
X15378809Y-21443571D01*
X15369286Y-21424524D01*
X15359762Y-21415000D01*
X15340714Y-21405476D01*
X15302619Y-21405476D01*
X15283571Y-21415000D01*
X15274048Y-21424524D01*
X15264524Y-21443571D01*
X15264524Y-21491190D01*
X15274048Y-21510238D01*
X15283571Y-21519762D01*
X15302619Y-21529286D01*
X15340714Y-21529286D01*
X15359762Y-21519762D01*
X15369286Y-21510238D01*
X15378809Y-21491190D01*
X15550238Y-21472143D02*
X15550238Y-21605476D01*
X15502619Y-21395952D02*
X15455000Y-21538810D01*
X15578809Y-21538810D01*
X15645476Y-21405476D02*
X15645476Y-21443571D01*
X15721667Y-21405476D02*
X15721667Y-21443571D01*
X16016905Y-21681667D02*
X16007381Y-21672143D01*
X15988333Y-21643571D01*
X15978809Y-21624524D01*
X15969286Y-21595952D01*
X15959762Y-21548333D01*
X15959762Y-21510238D01*
X15969286Y-21462619D01*
X15978809Y-21434048D01*
X15988333Y-21415000D01*
X16007381Y-21386429D01*
X16016905Y-21376905D01*
X16131190Y-21405476D02*
X16150238Y-21405476D01*
X16169286Y-21415000D01*
X16178809Y-21424524D01*
X16188333Y-21443571D01*
X16197857Y-21481667D01*
X16197857Y-21529286D01*
X16188333Y-21567381D01*
X16178809Y-21586429D01*
X16169286Y-21595952D01*
X16150238Y-21605476D01*
X16131190Y-21605476D01*
X16112143Y-21595952D01*
X16102619Y-21586429D01*
X16093095Y-21567381D01*
X16083571Y-21529286D01*
X16083571Y-21481667D01*
X16093095Y-21443571D01*
X16102619Y-21424524D01*
X16112143Y-21415000D01*
X16131190Y-21405476D01*
X16435952Y-21605476D02*
X16435952Y-21405476D01*
X16521667Y-21605476D02*
X16521667Y-21500714D01*
X16512143Y-21481667D01*
X16493095Y-21472143D01*
X16464524Y-21472143D01*
X16445476Y-21481667D01*
X16435952Y-21491190D01*
X16645476Y-21605476D02*
X16626428Y-21595952D01*
X16616905Y-21586429D01*
X16607381Y-21567381D01*
X16607381Y-21510238D01*
X16616905Y-21491190D01*
X16626428Y-21481667D01*
X16645476Y-21472143D01*
X16674048Y-21472143D01*
X16693095Y-21481667D01*
X16702619Y-21491190D01*
X16712143Y-21510238D01*
X16712143Y-21567381D01*
X16702619Y-21586429D01*
X16693095Y-21595952D01*
X16674048Y-21605476D01*
X16645476Y-21605476D01*
X16826429Y-21605476D02*
X16807381Y-21595952D01*
X16797857Y-21576905D01*
X16797857Y-21405476D01*
X16978810Y-21595952D02*
X16959762Y-21605476D01*
X16921667Y-21605476D01*
X16902619Y-21595952D01*
X16893095Y-21576905D01*
X16893095Y-21500714D01*
X16902619Y-21481667D01*
X16921667Y-21472143D01*
X16959762Y-21472143D01*
X16978810Y-21481667D01*
X16988333Y-21500714D01*
X16988333Y-21519762D01*
X16893095Y-21538810D01*
X17064524Y-21595952D02*
X17083571Y-21605476D01*
X17121667Y-21605476D01*
X17140714Y-21595952D01*
X17150238Y-21576905D01*
X17150238Y-21567381D01*
X17140714Y-21548333D01*
X17121667Y-21538810D01*
X17093095Y-21538810D01*
X17074048Y-21529286D01*
X17064524Y-21510238D01*
X17064524Y-21500714D01*
X17074048Y-21481667D01*
X17093095Y-21472143D01*
X17121667Y-21472143D01*
X17140714Y-21481667D01*
X17388333Y-21529286D02*
X17540714Y-21529286D01*
X17464524Y-21605476D02*
X17464524Y-21453095D01*
X17874048Y-21472143D02*
X17874048Y-21605476D01*
X17826429Y-21395952D02*
X17778810Y-21538810D01*
X17902619Y-21538810D01*
X18121667Y-21595952D02*
X18140714Y-21605476D01*
X18178810Y-21605476D01*
X18197857Y-21595952D01*
X18207381Y-21576905D01*
X18207381Y-21567381D01*
X18197857Y-21548333D01*
X18178810Y-21538810D01*
X18150238Y-21538810D01*
X18131190Y-21529286D01*
X18121667Y-21510238D01*
X18121667Y-21500714D01*
X18131190Y-21481667D01*
X18150238Y-21472143D01*
X18178810Y-21472143D01*
X18197857Y-21481667D01*
X18321667Y-21605476D02*
X18302619Y-21595952D01*
X18293095Y-21576905D01*
X18293095Y-21405476D01*
X18426429Y-21605476D02*
X18407381Y-21595952D01*
X18397857Y-21586429D01*
X18388333Y-21567381D01*
X18388333Y-21510238D01*
X18397857Y-21491190D01*
X18407381Y-21481667D01*
X18426429Y-21472143D01*
X18455000Y-21472143D01*
X18474048Y-21481667D01*
X18483571Y-21491190D01*
X18493095Y-21510238D01*
X18493095Y-21567381D01*
X18483571Y-21586429D01*
X18474048Y-21595952D01*
X18455000Y-21605476D01*
X18426429Y-21605476D01*
X18550238Y-21472143D02*
X18626429Y-21472143D01*
X18578810Y-21405476D02*
X18578810Y-21576905D01*
X18588333Y-21595952D01*
X18607381Y-21605476D01*
X18626429Y-21605476D01*
X18683571Y-21595952D02*
X18702619Y-21605476D01*
X18740714Y-21605476D01*
X18759762Y-21595952D01*
X18769286Y-21576905D01*
X18769286Y-21567381D01*
X18759762Y-21548333D01*
X18740714Y-21538810D01*
X18712143Y-21538810D01*
X18693095Y-21529286D01*
X18683571Y-21510238D01*
X18683571Y-21500714D01*
X18693095Y-21481667D01*
X18712143Y-21472143D01*
X18740714Y-21472143D01*
X18759762Y-21481667D01*
X18835952Y-21681667D02*
X18845476Y-21672143D01*
X18864524Y-21643571D01*
X18874048Y-21624524D01*
X18883571Y-21595952D01*
X18893095Y-21548333D01*
X18893095Y-21510238D01*
X18883571Y-21462619D01*
X18874048Y-21434048D01*
X18864524Y-21415000D01*
X18845476Y-21386429D01*
X18835952Y-21376905D01*
X19197857Y-21681667D02*
X19188333Y-21672143D01*
X19169286Y-21643571D01*
X19159762Y-21624524D01*
X19150238Y-21595952D01*
X19140714Y-21548333D01*
X19140714Y-21510238D01*
X19150238Y-21462619D01*
X19159762Y-21434048D01*
X19169286Y-21415000D01*
X19188333Y-21386429D01*
X19197857Y-21376905D01*
X19274048Y-21472143D02*
X19274048Y-21605476D01*
X19274048Y-21491190D02*
X19283571Y-21481667D01*
X19302619Y-21472143D01*
X19331190Y-21472143D01*
X19350238Y-21481667D01*
X19359762Y-21500714D01*
X19359762Y-21605476D01*
X19483571Y-21605476D02*
X19464524Y-21595952D01*
X19455000Y-21586429D01*
X19445476Y-21567381D01*
X19445476Y-21510238D01*
X19455000Y-21491190D01*
X19464524Y-21481667D01*
X19483571Y-21472143D01*
X19512143Y-21472143D01*
X19531190Y-21481667D01*
X19540714Y-21491190D01*
X19550238Y-21510238D01*
X19550238Y-21567381D01*
X19540714Y-21586429D01*
X19531190Y-21595952D01*
X19512143Y-21605476D01*
X19483571Y-21605476D01*
X19607381Y-21472143D02*
X19683571Y-21472143D01*
X19635952Y-21405476D02*
X19635952Y-21576905D01*
X19645476Y-21595952D01*
X19664524Y-21605476D01*
X19683571Y-21605476D01*
X19902619Y-21472143D02*
X19902619Y-21672143D01*
X19902619Y-21481667D02*
X19921667Y-21472143D01*
X19959762Y-21472143D01*
X19978810Y-21481667D01*
X19988333Y-21491190D01*
X19997857Y-21510238D01*
X19997857Y-21567381D01*
X19988333Y-21586429D01*
X19978810Y-21595952D01*
X19959762Y-21605476D01*
X19921667Y-21605476D01*
X19902619Y-21595952D01*
X20112143Y-21605476D02*
X20093095Y-21595952D01*
X20083571Y-21576905D01*
X20083571Y-21405476D01*
X20274048Y-21605476D02*
X20274048Y-21500714D01*
X20264524Y-21481667D01*
X20245476Y-21472143D01*
X20207381Y-21472143D01*
X20188333Y-21481667D01*
X20274048Y-21595952D02*
X20255000Y-21605476D01*
X20207381Y-21605476D01*
X20188333Y-21595952D01*
X20178810Y-21576905D01*
X20178810Y-21557857D01*
X20188333Y-21538810D01*
X20207381Y-21529286D01*
X20255000Y-21529286D01*
X20274048Y-21519762D01*
X20340714Y-21472143D02*
X20416905Y-21472143D01*
X20369286Y-21405476D02*
X20369286Y-21576905D01*
X20378810Y-21595952D01*
X20397857Y-21605476D01*
X20416905Y-21605476D01*
X20559762Y-21595952D02*
X20540714Y-21605476D01*
X20502619Y-21605476D01*
X20483571Y-21595952D01*
X20474048Y-21576905D01*
X20474048Y-21500714D01*
X20483571Y-21481667D01*
X20502619Y-21472143D01*
X20540714Y-21472143D01*
X20559762Y-21481667D01*
X20569286Y-21500714D01*
X20569286Y-21519762D01*
X20474048Y-21538810D01*
X20740714Y-21605476D02*
X20740714Y-21405476D01*
X20740714Y-21595952D02*
X20721667Y-21605476D01*
X20683571Y-21605476D01*
X20664524Y-21595952D01*
X20655000Y-21586429D01*
X20645476Y-21567381D01*
X20645476Y-21510238D01*
X20655000Y-21491190D01*
X20664524Y-21481667D01*
X20683571Y-21472143D01*
X20721667Y-21472143D01*
X20740714Y-21481667D01*
X20816905Y-21681667D02*
X20826429Y-21672143D01*
X20845476Y-21643571D01*
X20855000Y-21624524D01*
X20864524Y-21595952D01*
X20874048Y-21548333D01*
X20874048Y-21510238D01*
X20864524Y-21462619D01*
X20855000Y-21434048D01*
X20845476Y-21415000D01*
X20826429Y-21386429D01*
X20816905Y-21376905D01*
X12445000Y-21779000D02*
G75*
G03*
X12445000Y-21779000I-100000J0D01*
G01*
X12693095Y-21688524D02*
X12702619Y-21679000D01*
X12721667Y-21669476D01*
X12769286Y-21669476D01*
X12788333Y-21679000D01*
X12797857Y-21688524D01*
X12807381Y-21707571D01*
X12807381Y-21726619D01*
X12797857Y-21755190D01*
X12683571Y-21869476D01*
X12807381Y-21869476D01*
X12893095Y-21850429D02*
X12902619Y-21859952D01*
X12893095Y-21869476D01*
X12883571Y-21859952D01*
X12893095Y-21850429D01*
X12893095Y-21869476D01*
X13026428Y-21669476D02*
X13045476Y-21669476D01*
X13064524Y-21679000D01*
X13074048Y-21688524D01*
X13083571Y-21707571D01*
X13093095Y-21745667D01*
X13093095Y-21793286D01*
X13083571Y-21831381D01*
X13074048Y-21850429D01*
X13064524Y-21859952D01*
X13045476Y-21869476D01*
X13026428Y-21869476D01*
X13007381Y-21859952D01*
X12997857Y-21850429D01*
X12988333Y-21831381D01*
X12978809Y-21793286D01*
X12978809Y-21745667D01*
X12988333Y-21707571D01*
X12997857Y-21688524D01*
X13007381Y-21679000D01*
X13026428Y-21669476D01*
X13216905Y-21669476D02*
X13235952Y-21669476D01*
X13255000Y-21679000D01*
X13264524Y-21688524D01*
X13274048Y-21707571D01*
X13283571Y-21745667D01*
X13283571Y-21793286D01*
X13274048Y-21831381D01*
X13264524Y-21850429D01*
X13255000Y-21859952D01*
X13235952Y-21869476D01*
X13216905Y-21869476D01*
X13197857Y-21859952D01*
X13188333Y-21850429D01*
X13178809Y-21831381D01*
X13169286Y-21793286D01*
X13169286Y-21745667D01*
X13178809Y-21707571D01*
X13188333Y-21688524D01*
X13197857Y-21679000D01*
X13216905Y-21669476D01*
X13407381Y-21669476D02*
X13426428Y-21669476D01*
X13445476Y-21679000D01*
X13455000Y-21688524D01*
X13464524Y-21707571D01*
X13474048Y-21745667D01*
X13474048Y-21793286D01*
X13464524Y-21831381D01*
X13455000Y-21850429D01*
X13445476Y-21859952D01*
X13426428Y-21869476D01*
X13407381Y-21869476D01*
X13388333Y-21859952D01*
X13378809Y-21850429D01*
X13369286Y-21831381D01*
X13359762Y-21793286D01*
X13359762Y-21745667D01*
X13369286Y-21707571D01*
X13378809Y-21688524D01*
X13388333Y-21679000D01*
X13407381Y-21669476D01*
X13559762Y-21869476D02*
X13559762Y-21736143D01*
X13559762Y-21755190D02*
X13569286Y-21745667D01*
X13588333Y-21736143D01*
X13616905Y-21736143D01*
X13635952Y-21745667D01*
X13645476Y-21764714D01*
X13645476Y-21869476D01*
X13645476Y-21764714D02*
X13655000Y-21745667D01*
X13674048Y-21736143D01*
X13702619Y-21736143D01*
X13721667Y-21745667D01*
X13731190Y-21764714D01*
X13731190Y-21869476D01*
X13826428Y-21869476D02*
X13826428Y-21736143D01*
X13826428Y-21755190D02*
X13835952Y-21745667D01*
X13855000Y-21736143D01*
X13883571Y-21736143D01*
X13902619Y-21745667D01*
X13912143Y-21764714D01*
X13912143Y-21869476D01*
X13912143Y-21764714D02*
X13921667Y-21745667D01*
X13940714Y-21736143D01*
X13969286Y-21736143D01*
X13988333Y-21745667D01*
X13997857Y-21764714D01*
X13997857Y-21869476D01*
X14388333Y-21659952D02*
X14216905Y-21917095D01*
X14645476Y-21669476D02*
X14664524Y-21669476D01*
X14683571Y-21679000D01*
X14693095Y-21688524D01*
X14702619Y-21707571D01*
X14712143Y-21745667D01*
X14712143Y-21793286D01*
X14702619Y-21831381D01*
X14693095Y-21850429D01*
X14683571Y-21859952D01*
X14664524Y-21869476D01*
X14645476Y-21869476D01*
X14626428Y-21859952D01*
X14616905Y-21850429D01*
X14607381Y-21831381D01*
X14597857Y-21793286D01*
X14597857Y-21745667D01*
X14607381Y-21707571D01*
X14616905Y-21688524D01*
X14626428Y-21679000D01*
X14645476Y-21669476D01*
X14797857Y-21850429D02*
X14807381Y-21859952D01*
X14797857Y-21869476D01*
X14788333Y-21859952D01*
X14797857Y-21850429D01*
X14797857Y-21869476D01*
X14931190Y-21669476D02*
X14950238Y-21669476D01*
X14969286Y-21679000D01*
X14978809Y-21688524D01*
X14988333Y-21707571D01*
X14997857Y-21745667D01*
X14997857Y-21793286D01*
X14988333Y-21831381D01*
X14978809Y-21850429D01*
X14969286Y-21859952D01*
X14950238Y-21869476D01*
X14931190Y-21869476D01*
X14912143Y-21859952D01*
X14902619Y-21850429D01*
X14893095Y-21831381D01*
X14883571Y-21793286D01*
X14883571Y-21745667D01*
X14893095Y-21707571D01*
X14902619Y-21688524D01*
X14912143Y-21679000D01*
X14931190Y-21669476D01*
X15064524Y-21669476D02*
X15197857Y-21669476D01*
X15112143Y-21869476D01*
X15302619Y-21755190D02*
X15283571Y-21745667D01*
X15274048Y-21736143D01*
X15264524Y-21717095D01*
X15264524Y-21707571D01*
X15274048Y-21688524D01*
X15283571Y-21679000D01*
X15302619Y-21669476D01*
X15340714Y-21669476D01*
X15359762Y-21679000D01*
X15369286Y-21688524D01*
X15378809Y-21707571D01*
X15378809Y-21717095D01*
X15369286Y-21736143D01*
X15359762Y-21745667D01*
X15340714Y-21755190D01*
X15302619Y-21755190D01*
X15283571Y-21764714D01*
X15274048Y-21774238D01*
X15264524Y-21793286D01*
X15264524Y-21831381D01*
X15274048Y-21850429D01*
X15283571Y-21859952D01*
X15302619Y-21869476D01*
X15340714Y-21869476D01*
X15359762Y-21859952D01*
X15369286Y-21850429D01*
X15378809Y-21831381D01*
X15378809Y-21793286D01*
X15369286Y-21774238D01*
X15359762Y-21764714D01*
X15340714Y-21755190D01*
X15445476Y-21669476D02*
X15578809Y-21669476D01*
X15493095Y-21869476D01*
X15645476Y-21669476D02*
X15645476Y-21707571D01*
X15721667Y-21669476D02*
X15721667Y-21707571D01*
X16016905Y-21945667D02*
X16007381Y-21936143D01*
X15988333Y-21907571D01*
X15978809Y-21888524D01*
X15969286Y-21859952D01*
X15959762Y-21812333D01*
X15959762Y-21774238D01*
X15969286Y-21726619D01*
X15978809Y-21698048D01*
X15988333Y-21679000D01*
X16007381Y-21650429D01*
X16016905Y-21640905D01*
X16178809Y-21736143D02*
X16178809Y-21869476D01*
X16131190Y-21659952D02*
X16083571Y-21802810D01*
X16207381Y-21802810D01*
X16435952Y-21869476D02*
X16435952Y-21669476D01*
X16521667Y-21869476D02*
X16521667Y-21764714D01*
X16512143Y-21745667D01*
X16493095Y-21736143D01*
X16464524Y-21736143D01*
X16445476Y-21745667D01*
X16435952Y-21755190D01*
X16645476Y-21869476D02*
X16626428Y-21859952D01*
X16616905Y-21850429D01*
X16607381Y-21831381D01*
X16607381Y-21774238D01*
X16616905Y-21755190D01*
X16626428Y-21745667D01*
X16645476Y-21736143D01*
X16674048Y-21736143D01*
X16693095Y-21745667D01*
X16702619Y-21755190D01*
X16712143Y-21774238D01*
X16712143Y-21831381D01*
X16702619Y-21850429D01*
X16693095Y-21859952D01*
X16674048Y-21869476D01*
X16645476Y-21869476D01*
X16826429Y-21869476D02*
X16807381Y-21859952D01*
X16797857Y-21840905D01*
X16797857Y-21669476D01*
X16978810Y-21859952D02*
X16959762Y-21869476D01*
X16921667Y-21869476D01*
X16902619Y-21859952D01*
X16893095Y-21840905D01*
X16893095Y-21764714D01*
X16902619Y-21745667D01*
X16921667Y-21736143D01*
X16959762Y-21736143D01*
X16978810Y-21745667D01*
X16988333Y-21764714D01*
X16988333Y-21783762D01*
X16893095Y-21802810D01*
X17064524Y-21859952D02*
X17083571Y-21869476D01*
X17121667Y-21869476D01*
X17140714Y-21859952D01*
X17150238Y-21840905D01*
X17150238Y-21831381D01*
X17140714Y-21812333D01*
X17121667Y-21802810D01*
X17093095Y-21802810D01*
X17074048Y-21793286D01*
X17064524Y-21774238D01*
X17064524Y-21764714D01*
X17074048Y-21745667D01*
X17093095Y-21736143D01*
X17121667Y-21736143D01*
X17140714Y-21745667D01*
X17216905Y-21945667D02*
X17226429Y-21936143D01*
X17245476Y-21907571D01*
X17255000Y-21888524D01*
X17264524Y-21859952D01*
X17274048Y-21812333D01*
X17274048Y-21774238D01*
X17264524Y-21726619D01*
X17255000Y-21698048D01*
X17245476Y-21679000D01*
X17226429Y-21650429D01*
X17216905Y-21640905D01*
X17578810Y-21945667D02*
X17569286Y-21936143D01*
X17550238Y-21907571D01*
X17540714Y-21888524D01*
X17531190Y-21859952D01*
X17521667Y-21812333D01*
X17521667Y-21774238D01*
X17531190Y-21726619D01*
X17540714Y-21698048D01*
X17550238Y-21679000D01*
X17569286Y-21650429D01*
X17578810Y-21640905D01*
X17655000Y-21736143D02*
X17655000Y-21869476D01*
X17655000Y-21755190D02*
X17664524Y-21745667D01*
X17683571Y-21736143D01*
X17712143Y-21736143D01*
X17731190Y-21745667D01*
X17740714Y-21764714D01*
X17740714Y-21869476D01*
X17864524Y-21869476D02*
X17845476Y-21859952D01*
X17835952Y-21850429D01*
X17826429Y-21831381D01*
X17826429Y-21774238D01*
X17835952Y-21755190D01*
X17845476Y-21745667D01*
X17864524Y-21736143D01*
X17893095Y-21736143D01*
X17912143Y-21745667D01*
X17921667Y-21755190D01*
X17931190Y-21774238D01*
X17931190Y-21831381D01*
X17921667Y-21850429D01*
X17912143Y-21859952D01*
X17893095Y-21869476D01*
X17864524Y-21869476D01*
X17988333Y-21736143D02*
X18064524Y-21736143D01*
X18016905Y-21669476D02*
X18016905Y-21840905D01*
X18026429Y-21859952D01*
X18045476Y-21869476D01*
X18064524Y-21869476D01*
X18283571Y-21736143D02*
X18283571Y-21936143D01*
X18283571Y-21745667D02*
X18302619Y-21736143D01*
X18340714Y-21736143D01*
X18359762Y-21745667D01*
X18369286Y-21755190D01*
X18378810Y-21774238D01*
X18378810Y-21831381D01*
X18369286Y-21850429D01*
X18359762Y-21859952D01*
X18340714Y-21869476D01*
X18302619Y-21869476D01*
X18283571Y-21859952D01*
X18493095Y-21869476D02*
X18474048Y-21859952D01*
X18464524Y-21840905D01*
X18464524Y-21669476D01*
X18655000Y-21869476D02*
X18655000Y-21764714D01*
X18645476Y-21745667D01*
X18626429Y-21736143D01*
X18588333Y-21736143D01*
X18569286Y-21745667D01*
X18655000Y-21859952D02*
X18635952Y-21869476D01*
X18588333Y-21869476D01*
X18569286Y-21859952D01*
X18559762Y-21840905D01*
X18559762Y-21821857D01*
X18569286Y-21802810D01*
X18588333Y-21793286D01*
X18635952Y-21793286D01*
X18655000Y-21783762D01*
X18721667Y-21736143D02*
X18797857Y-21736143D01*
X18750238Y-21669476D02*
X18750238Y-21840905D01*
X18759762Y-21859952D01*
X18778810Y-21869476D01*
X18797857Y-21869476D01*
X18940714Y-21859952D02*
X18921667Y-21869476D01*
X18883571Y-21869476D01*
X18864524Y-21859952D01*
X18855000Y-21840905D01*
X18855000Y-21764714D01*
X18864524Y-21745667D01*
X18883571Y-21736143D01*
X18921667Y-21736143D01*
X18940714Y-21745667D01*
X18950238Y-21764714D01*
X18950238Y-21783762D01*
X18855000Y-21802810D01*
X19121667Y-21869476D02*
X19121667Y-21669476D01*
X19121667Y-21859952D02*
X19102619Y-21869476D01*
X19064524Y-21869476D01*
X19045476Y-21859952D01*
X19035952Y-21850429D01*
X19026429Y-21831381D01*
X19026429Y-21774238D01*
X19035952Y-21755190D01*
X19045476Y-21745667D01*
X19064524Y-21736143D01*
X19102619Y-21736143D01*
X19121667Y-21745667D01*
X19197857Y-21945667D02*
X19207381Y-21936143D01*
X19226429Y-21907571D01*
X19235952Y-21888524D01*
X19245476Y-21859952D01*
X19255000Y-21812333D01*
X19255000Y-21774238D01*
X19245476Y-21726619D01*
X19235952Y-21698048D01*
X19226429Y-21679000D01*
X19207381Y-21650429D01*
X19197857Y-21640905D01*
X12345000Y-21999000D02*
X12345000Y-22199000D01*
X12245000Y-22099000D02*
X12445000Y-22099000D01*
X12693095Y-22008524D02*
X12702619Y-21999000D01*
X12721667Y-21989476D01*
X12769286Y-21989476D01*
X12788333Y-21999000D01*
X12797857Y-22008524D01*
X12807381Y-22027571D01*
X12807381Y-22046619D01*
X12797857Y-22075190D01*
X12683571Y-22189476D01*
X12807381Y-22189476D01*
X12893095Y-22170429D02*
X12902619Y-22179952D01*
X12893095Y-22189476D01*
X12883571Y-22179952D01*
X12893095Y-22170429D01*
X12893095Y-22189476D01*
X13083571Y-21989476D02*
X12988333Y-21989476D01*
X12978809Y-22084714D01*
X12988333Y-22075190D01*
X13007381Y-22065667D01*
X13055000Y-22065667D01*
X13074048Y-22075190D01*
X13083571Y-22084714D01*
X13093095Y-22103762D01*
X13093095Y-22151381D01*
X13083571Y-22170429D01*
X13074048Y-22179952D01*
X13055000Y-22189476D01*
X13007381Y-22189476D01*
X12988333Y-22179952D01*
X12978809Y-22170429D01*
X13216905Y-21989476D02*
X13235952Y-21989476D01*
X13255000Y-21999000D01*
X13264524Y-22008524D01*
X13274048Y-22027571D01*
X13283571Y-22065667D01*
X13283571Y-22113286D01*
X13274048Y-22151381D01*
X13264524Y-22170429D01*
X13255000Y-22179952D01*
X13235952Y-22189476D01*
X13216905Y-22189476D01*
X13197857Y-22179952D01*
X13188333Y-22170429D01*
X13178809Y-22151381D01*
X13169286Y-22113286D01*
X13169286Y-22065667D01*
X13178809Y-22027571D01*
X13188333Y-22008524D01*
X13197857Y-21999000D01*
X13216905Y-21989476D01*
X13407381Y-21989476D02*
X13426428Y-21989476D01*
X13445476Y-21999000D01*
X13455000Y-22008524D01*
X13464524Y-22027571D01*
X13474048Y-22065667D01*
X13474048Y-22113286D01*
X13464524Y-22151381D01*
X13455000Y-22170429D01*
X13445476Y-22179952D01*
X13426428Y-22189476D01*
X13407381Y-22189476D01*
X13388333Y-22179952D01*
X13378809Y-22170429D01*
X13369286Y-22151381D01*
X13359762Y-22113286D01*
X13359762Y-22065667D01*
X13369286Y-22027571D01*
X13378809Y-22008524D01*
X13388333Y-21999000D01*
X13407381Y-21989476D01*
X13559762Y-22189476D02*
X13559762Y-22056143D01*
X13559762Y-22075190D02*
X13569286Y-22065667D01*
X13588333Y-22056143D01*
X13616905Y-22056143D01*
X13635952Y-22065667D01*
X13645476Y-22084714D01*
X13645476Y-22189476D01*
X13645476Y-22084714D02*
X13655000Y-22065667D01*
X13674048Y-22056143D01*
X13702619Y-22056143D01*
X13721667Y-22065667D01*
X13731190Y-22084714D01*
X13731190Y-22189476D01*
X13826428Y-22189476D02*
X13826428Y-22056143D01*
X13826428Y-22075190D02*
X13835952Y-22065667D01*
X13855000Y-22056143D01*
X13883571Y-22056143D01*
X13902619Y-22065667D01*
X13912143Y-22084714D01*
X13912143Y-22189476D01*
X13912143Y-22084714D02*
X13921667Y-22065667D01*
X13940714Y-22056143D01*
X13969286Y-22056143D01*
X13988333Y-22065667D01*
X13997857Y-22084714D01*
X13997857Y-22189476D01*
X14388333Y-21979952D02*
X14216905Y-22237095D01*
X14645476Y-21989476D02*
X14664524Y-21989476D01*
X14683571Y-21999000D01*
X14693095Y-22008524D01*
X14702619Y-22027571D01*
X14712143Y-22065667D01*
X14712143Y-22113286D01*
X14702619Y-22151381D01*
X14693095Y-22170429D01*
X14683571Y-22179952D01*
X14664524Y-22189476D01*
X14645476Y-22189476D01*
X14626428Y-22179952D01*
X14616905Y-22170429D01*
X14607381Y-22151381D01*
X14597857Y-22113286D01*
X14597857Y-22065667D01*
X14607381Y-22027571D01*
X14616905Y-22008524D01*
X14626428Y-21999000D01*
X14645476Y-21989476D01*
X14797857Y-22170429D02*
X14807381Y-22179952D01*
X14797857Y-22189476D01*
X14788333Y-22179952D01*
X14797857Y-22170429D01*
X14797857Y-22189476D01*
X14931190Y-21989476D02*
X14950238Y-21989476D01*
X14969286Y-21999000D01*
X14978809Y-22008524D01*
X14988333Y-22027571D01*
X14997857Y-22065667D01*
X14997857Y-22113286D01*
X14988333Y-22151381D01*
X14978809Y-22170429D01*
X14969286Y-22179952D01*
X14950238Y-22189476D01*
X14931190Y-22189476D01*
X14912143Y-22179952D01*
X14902619Y-22170429D01*
X14893095Y-22151381D01*
X14883571Y-22113286D01*
X14883571Y-22065667D01*
X14893095Y-22027571D01*
X14902619Y-22008524D01*
X14912143Y-21999000D01*
X14931190Y-21989476D01*
X15093095Y-22189476D02*
X15131190Y-22189476D01*
X15150238Y-22179952D01*
X15159762Y-22170429D01*
X15178809Y-22141857D01*
X15188333Y-22103762D01*
X15188333Y-22027571D01*
X15178809Y-22008524D01*
X15169286Y-21999000D01*
X15150238Y-21989476D01*
X15112143Y-21989476D01*
X15093095Y-21999000D01*
X15083571Y-22008524D01*
X15074048Y-22027571D01*
X15074048Y-22075190D01*
X15083571Y-22094238D01*
X15093095Y-22103762D01*
X15112143Y-22113286D01*
X15150238Y-22113286D01*
X15169286Y-22103762D01*
X15178809Y-22094238D01*
X15188333Y-22075190D01*
X15302619Y-22075190D02*
X15283571Y-22065667D01*
X15274048Y-22056143D01*
X15264524Y-22037095D01*
X15264524Y-22027571D01*
X15274048Y-22008524D01*
X15283571Y-21999000D01*
X15302619Y-21989476D01*
X15340714Y-21989476D01*
X15359762Y-21999000D01*
X15369286Y-22008524D01*
X15378809Y-22027571D01*
X15378809Y-22037095D01*
X15369286Y-22056143D01*
X15359762Y-22065667D01*
X15340714Y-22075190D01*
X15302619Y-22075190D01*
X15283571Y-22084714D01*
X15274048Y-22094238D01*
X15264524Y-22113286D01*
X15264524Y-22151381D01*
X15274048Y-22170429D01*
X15283571Y-22179952D01*
X15302619Y-22189476D01*
X15340714Y-22189476D01*
X15359762Y-22179952D01*
X15369286Y-22170429D01*
X15378809Y-22151381D01*
X15378809Y-22113286D01*
X15369286Y-22094238D01*
X15359762Y-22084714D01*
X15340714Y-22075190D01*
X15550238Y-22056143D02*
X15550238Y-22189476D01*
X15502619Y-21979952D02*
X15455000Y-22122810D01*
X15578809Y-22122810D01*
X15645476Y-21989476D02*
X15645476Y-22027571D01*
X15721667Y-21989476D02*
X15721667Y-22027571D01*
X16016905Y-22265667D02*
X16007381Y-22256143D01*
X15988333Y-22227571D01*
X15978809Y-22208524D01*
X15969286Y-22179952D01*
X15959762Y-22132333D01*
X15959762Y-22094238D01*
X15969286Y-22046619D01*
X15978809Y-22018048D01*
X15988333Y-21999000D01*
X16007381Y-21970429D01*
X16016905Y-21960905D01*
X16178809Y-22056143D02*
X16178809Y-22189476D01*
X16131190Y-21979952D02*
X16083571Y-22122810D01*
X16207381Y-22122810D01*
X16435952Y-22189476D02*
X16435952Y-21989476D01*
X16521667Y-22189476D02*
X16521667Y-22084714D01*
X16512143Y-22065667D01*
X16493095Y-22056143D01*
X16464524Y-22056143D01*
X16445476Y-22065667D01*
X16435952Y-22075190D01*
X16645476Y-22189476D02*
X16626428Y-22179952D01*
X16616905Y-22170429D01*
X16607381Y-22151381D01*
X16607381Y-22094238D01*
X16616905Y-22075190D01*
X16626428Y-22065667D01*
X16645476Y-22056143D01*
X16674048Y-22056143D01*
X16693095Y-22065667D01*
X16702619Y-22075190D01*
X16712143Y-22094238D01*
X16712143Y-22151381D01*
X16702619Y-22170429D01*
X16693095Y-22179952D01*
X16674048Y-22189476D01*
X16645476Y-22189476D01*
X16826429Y-22189476D02*
X16807381Y-22179952D01*
X16797857Y-22160905D01*
X16797857Y-21989476D01*
X16978810Y-22179952D02*
X16959762Y-22189476D01*
X16921667Y-22189476D01*
X16902619Y-22179952D01*
X16893095Y-22160905D01*
X16893095Y-22084714D01*
X16902619Y-22065667D01*
X16921667Y-22056143D01*
X16959762Y-22056143D01*
X16978810Y-22065667D01*
X16988333Y-22084714D01*
X16988333Y-22103762D01*
X16893095Y-22122810D01*
X17064524Y-22179952D02*
X17083571Y-22189476D01*
X17121667Y-22189476D01*
X17140714Y-22179952D01*
X17150238Y-22160905D01*
X17150238Y-22151381D01*
X17140714Y-22132333D01*
X17121667Y-22122810D01*
X17093095Y-22122810D01*
X17074048Y-22113286D01*
X17064524Y-22094238D01*
X17064524Y-22084714D01*
X17074048Y-22065667D01*
X17093095Y-22056143D01*
X17121667Y-22056143D01*
X17140714Y-22065667D01*
X17216905Y-22265667D02*
X17226429Y-22256143D01*
X17245476Y-22227571D01*
X17255000Y-22208524D01*
X17264524Y-22179952D01*
X17274048Y-22132333D01*
X17274048Y-22094238D01*
X17264524Y-22046619D01*
X17255000Y-22018048D01*
X17245476Y-21999000D01*
X17226429Y-21970429D01*
X17216905Y-21960905D01*
X17578810Y-22265667D02*
X17569286Y-22256143D01*
X17550238Y-22227571D01*
X17540714Y-22208524D01*
X17531190Y-22179952D01*
X17521667Y-22132333D01*
X17521667Y-22094238D01*
X17531190Y-22046619D01*
X17540714Y-22018048D01*
X17550238Y-21999000D01*
X17569286Y-21970429D01*
X17578810Y-21960905D01*
X17655000Y-22056143D02*
X17655000Y-22189476D01*
X17655000Y-22075190D02*
X17664524Y-22065667D01*
X17683571Y-22056143D01*
X17712143Y-22056143D01*
X17731190Y-22065667D01*
X17740714Y-22084714D01*
X17740714Y-22189476D01*
X17864524Y-22189476D02*
X17845476Y-22179952D01*
X17835952Y-22170429D01*
X17826429Y-22151381D01*
X17826429Y-22094238D01*
X17835952Y-22075190D01*
X17845476Y-22065667D01*
X17864524Y-22056143D01*
X17893095Y-22056143D01*
X17912143Y-22065667D01*
X17921667Y-22075190D01*
X17931190Y-22094238D01*
X17931190Y-22151381D01*
X17921667Y-22170429D01*
X17912143Y-22179952D01*
X17893095Y-22189476D01*
X17864524Y-22189476D01*
X17988333Y-22056143D02*
X18064524Y-22056143D01*
X18016905Y-21989476D02*
X18016905Y-22160905D01*
X18026429Y-22179952D01*
X18045476Y-22189476D01*
X18064524Y-22189476D01*
X18283571Y-22056143D02*
X18283571Y-22256143D01*
X18283571Y-22065667D02*
X18302619Y-22056143D01*
X18340714Y-22056143D01*
X18359762Y-22065667D01*
X18369286Y-22075190D01*
X18378810Y-22094238D01*
X18378810Y-22151381D01*
X18369286Y-22170429D01*
X18359762Y-22179952D01*
X18340714Y-22189476D01*
X18302619Y-22189476D01*
X18283571Y-22179952D01*
X18493095Y-22189476D02*
X18474048Y-22179952D01*
X18464524Y-22160905D01*
X18464524Y-21989476D01*
X18655000Y-22189476D02*
X18655000Y-22084714D01*
X18645476Y-22065667D01*
X18626429Y-22056143D01*
X18588333Y-22056143D01*
X18569286Y-22065667D01*
X18655000Y-22179952D02*
X18635952Y-22189476D01*
X18588333Y-22189476D01*
X18569286Y-22179952D01*
X18559762Y-22160905D01*
X18559762Y-22141857D01*
X18569286Y-22122810D01*
X18588333Y-22113286D01*
X18635952Y-22113286D01*
X18655000Y-22103762D01*
X18721667Y-22056143D02*
X18797857Y-22056143D01*
X18750238Y-21989476D02*
X18750238Y-22160905D01*
X18759762Y-22179952D01*
X18778810Y-22189476D01*
X18797857Y-22189476D01*
X18940714Y-22179952D02*
X18921667Y-22189476D01*
X18883571Y-22189476D01*
X18864524Y-22179952D01*
X18855000Y-22160905D01*
X18855000Y-22084714D01*
X18864524Y-22065667D01*
X18883571Y-22056143D01*
X18921667Y-22056143D01*
X18940714Y-22065667D01*
X18950238Y-22084714D01*
X18950238Y-22103762D01*
X18855000Y-22122810D01*
X19121667Y-22189476D02*
X19121667Y-21989476D01*
X19121667Y-22179952D02*
X19102619Y-22189476D01*
X19064524Y-22189476D01*
X19045476Y-22179952D01*
X19035952Y-22170429D01*
X19026429Y-22151381D01*
X19026429Y-22094238D01*
X19035952Y-22075190D01*
X19045476Y-22065667D01*
X19064524Y-22056143D01*
X19102619Y-22056143D01*
X19121667Y-22065667D01*
X19197857Y-22265667D02*
X19207381Y-22256143D01*
X19226429Y-22227571D01*
X19235952Y-22208524D01*
X19245476Y-22179952D01*
X19255000Y-22132333D01*
X19255000Y-22094238D01*
X19245476Y-22046619D01*
X19235952Y-22018048D01*
X19226429Y-21999000D01*
X19207381Y-21970429D01*
X19197857Y-21960905D01*
M02*
