G04 #@! TF.GenerationSoftware,KiCad,Pcbnew,(6.0.1)*
G04 #@! TF.CreationDate,2022-04-24T16:28:33-07:00*
G04 #@! TF.ProjectId,StereoPS,53746572-656f-4505-932e-6b696361645f,rev?*
G04 #@! TF.SameCoordinates,Original*
G04 #@! TF.FileFunction,Soldermask,Top*
G04 #@! TF.FilePolarity,Negative*
%FSLAX46Y46*%
G04 Gerber Fmt 4.6, Leading zero omitted, Abs format (unit mm)*
G04 Created by KiCad (PCBNEW (6.0.1)) date 2022-04-24 16:28:33*
%MOMM*%
%LPD*%
G01*
G04 APERTURE LIST*
G04 Aperture macros list*
%AMRoundRect*
0 Rectangle with rounded corners*
0 $1 Rounding radius*
0 $2 $3 $4 $5 $6 $7 $8 $9 X,Y pos of 4 corners*
0 Add a 4 corners polygon primitive as box body*
4,1,4,$2,$3,$4,$5,$6,$7,$8,$9,$2,$3,0*
0 Add four circle primitives for the rounded corners*
1,1,$1+$1,$2,$3*
1,1,$1+$1,$4,$5*
1,1,$1+$1,$6,$7*
1,1,$1+$1,$8,$9*
0 Add four rect primitives between the rounded corners*
20,1,$1+$1,$2,$3,$4,$5,0*
20,1,$1+$1,$4,$5,$6,$7,0*
20,1,$1+$1,$6,$7,$8,$9,0*
20,1,$1+$1,$8,$9,$2,$3,0*%
G04 Aperture macros list end*
%ADD10RoundRect,0.250000X-0.650000X0.412500X-0.650000X-0.412500X0.650000X-0.412500X0.650000X0.412500X0*%
%ADD11R,1.200000X0.900000*%
%ADD12R,1.600000X1.600000*%
%ADD13C,1.600000*%
%ADD14RoundRect,0.160000X-0.160000X0.197500X-0.160000X-0.197500X0.160000X-0.197500X0.160000X0.197500X0*%
%ADD15R,2.700000X4.500000*%
%ADD16C,2.500000*%
%ADD17C,2.400000*%
%ADD18O,2.400000X2.400000*%
%ADD19R,1.639799X0.431000*%
%ADD20O,3.500000X3.500000*%
%ADD21R,2.000000X1.905000*%
%ADD22O,2.000000X1.905000*%
%ADD23R,1.700000X1.700000*%
%ADD24O,1.700000X1.700000*%
%ADD25RoundRect,0.237500X0.237500X-0.300000X0.237500X0.300000X-0.237500X0.300000X-0.237500X-0.300000X0*%
%ADD26C,1.498600*%
%ADD27R,2.000000X2.000000*%
%ADD28C,2.000000*%
%ADD29RoundRect,0.250000X-0.475000X0.337500X-0.475000X-0.337500X0.475000X-0.337500X0.475000X0.337500X0*%
%ADD30R,5.400000X2.900000*%
%ADD31RoundRect,0.237500X-0.237500X0.300000X-0.237500X-0.300000X0.237500X-0.300000X0.237500X0.300000X0*%
G04 APERTURE END LIST*
D10*
X144600000Y-81017500D03*
X144600000Y-84142500D03*
D11*
X151010000Y-84200000D03*
X151010000Y-80900000D03*
D12*
X118492651Y-112268000D03*
D13*
X114992651Y-112268000D03*
D14*
X137700000Y-91105000D03*
X137700000Y-92300000D03*
D15*
X133680000Y-103740000D03*
X133680000Y-95940000D03*
D16*
X201422000Y-78486000D03*
D17*
X138080000Y-108300000D03*
D18*
X153320000Y-108300000D03*
D19*
X143460550Y-87116180D03*
X143460550Y-87766420D03*
X143460550Y-88416660D03*
X143460550Y-89066900D03*
X143460550Y-89717140D03*
X143460550Y-90367380D03*
X143460550Y-91017620D03*
X143460550Y-91667860D03*
X143460550Y-92318100D03*
X143460550Y-92968340D03*
X143460550Y-93618580D03*
X143460550Y-94268820D03*
X150724950Y-94268820D03*
X150724950Y-93618580D03*
X150724950Y-92968340D03*
X150724950Y-92318100D03*
X150724950Y-91667860D03*
X150724950Y-91017620D03*
X150724950Y-90367380D03*
X150724950Y-89717140D03*
X150724950Y-89066900D03*
X150724950Y-88416660D03*
X150724950Y-87766420D03*
X150724950Y-87116180D03*
D20*
X186754000Y-106680000D03*
D21*
X170094000Y-104140000D03*
D22*
X170094000Y-106680000D03*
X170094000Y-109220000D03*
D17*
X150920000Y-114100000D03*
D18*
X135680000Y-114100000D03*
D20*
X110790000Y-99980000D03*
D21*
X127450000Y-102520000D03*
D22*
X127450000Y-99980000D03*
X127450000Y-97440000D03*
D20*
X193220000Y-90890000D03*
D21*
X176560000Y-88350000D03*
D22*
X176560000Y-90890000D03*
X176560000Y-93430000D03*
D16*
X111760000Y-120396000D03*
D23*
X174110000Y-120825000D03*
D24*
X171570000Y-120825000D03*
X169030000Y-120825000D03*
D25*
X140970000Y-87730500D03*
X140970000Y-86005500D03*
D26*
X143355500Y-99445500D03*
X145155500Y-101345500D03*
X146955500Y-99445500D03*
D27*
X128270000Y-114635677D03*
D28*
X128270000Y-109635677D03*
D29*
X139954000Y-91672500D03*
X139954000Y-93747500D03*
D16*
X201168000Y-121158000D03*
D30*
X167600000Y-82950000D03*
X167600000Y-92850000D03*
D25*
X153924000Y-88492500D03*
X153924000Y-86767500D03*
D14*
X138780000Y-88002500D03*
X138780000Y-89197500D03*
D23*
X130710000Y-121020000D03*
D24*
X128170000Y-121020000D03*
D15*
X157500000Y-104500000D03*
X157500000Y-96700000D03*
D10*
X159258000Y-88353500D03*
X159258000Y-91478500D03*
D29*
X147620000Y-80972500D03*
X147620000Y-83047500D03*
D31*
X153924000Y-92863500D03*
X153924000Y-94588500D03*
D20*
X110670000Y-88130000D03*
D21*
X127330000Y-90670000D03*
D22*
X127330000Y-88130000D03*
X127330000Y-85590000D03*
D16*
X110998000Y-78232000D03*
D11*
X155702000Y-84200000D03*
X155702000Y-80900000D03*
M02*
