G04 #@! TF.GenerationSoftware,KiCad,Pcbnew,(6.0.1)*
G04 #@! TF.CreationDate,2022-04-24T16:28:33-07:00*
G04 #@! TF.ProjectId,StereoPS,53746572-656f-4505-932e-6b696361645f,rev?*
G04 #@! TF.SameCoordinates,Original*
G04 #@! TF.FileFunction,Legend,Top*
G04 #@! TF.FilePolarity,Positive*
%FSLAX46Y46*%
G04 Gerber Fmt 4.6, Leading zero omitted, Abs format (unit mm)*
G04 Created by KiCad (PCBNEW (6.0.1)) date 2022-04-24 16:28:33*
%MOMM*%
%LPD*%
G01*
G04 APERTURE LIST*
G04 Aperture macros list*
%AMRoundRect*
0 Rectangle with rounded corners*
0 $1 Rounding radius*
0 $2 $3 $4 $5 $6 $7 $8 $9 X,Y pos of 4 corners*
0 Add a 4 corners polygon primitive as box body*
4,1,4,$2,$3,$4,$5,$6,$7,$8,$9,$2,$3,0*
0 Add four circle primitives for the rounded corners*
1,1,$1+$1,$2,$3*
1,1,$1+$1,$4,$5*
1,1,$1+$1,$6,$7*
1,1,$1+$1,$8,$9*
0 Add four rect primitives between the rounded corners*
20,1,$1+$1,$2,$3,$4,$5,0*
20,1,$1+$1,$4,$5,$6,$7,0*
20,1,$1+$1,$6,$7,$8,$9,0*
20,1,$1+$1,$8,$9,$2,$3,0*%
G04 Aperture macros list end*
%ADD10C,0.150000*%
%ADD11C,0.120000*%
%ADD12C,0.100000*%
%ADD13RoundRect,0.250000X-0.650000X0.412500X-0.650000X-0.412500X0.650000X-0.412500X0.650000X0.412500X0*%
%ADD14R,1.200000X0.900000*%
%ADD15R,1.600000X1.600000*%
%ADD16C,1.600000*%
%ADD17RoundRect,0.160000X-0.160000X0.197500X-0.160000X-0.197500X0.160000X-0.197500X0.160000X0.197500X0*%
%ADD18R,2.700000X4.500000*%
%ADD19C,2.500000*%
%ADD20C,2.400000*%
%ADD21O,2.400000X2.400000*%
%ADD22R,1.639799X0.431000*%
%ADD23O,3.500000X3.500000*%
%ADD24R,2.000000X1.905000*%
%ADD25O,2.000000X1.905000*%
%ADD26R,1.700000X1.700000*%
%ADD27O,1.700000X1.700000*%
%ADD28RoundRect,0.237500X0.237500X-0.300000X0.237500X0.300000X-0.237500X0.300000X-0.237500X-0.300000X0*%
%ADD29C,1.498600*%
%ADD30R,2.000000X2.000000*%
%ADD31C,2.000000*%
%ADD32RoundRect,0.250000X-0.475000X0.337500X-0.475000X-0.337500X0.475000X-0.337500X0.475000X0.337500X0*%
%ADD33R,5.400000X2.900000*%
%ADD34RoundRect,0.237500X-0.237500X0.300000X-0.237500X-0.300000X0.237500X-0.300000X0.237500X0.300000X0*%
G04 APERTURE END LIST*
D10*
X144333333Y-79457142D02*
X144285714Y-79504761D01*
X144142857Y-79552380D01*
X144047619Y-79552380D01*
X143904761Y-79504761D01*
X143809523Y-79409523D01*
X143761904Y-79314285D01*
X143714285Y-79123809D01*
X143714285Y-78980952D01*
X143761904Y-78790476D01*
X143809523Y-78695238D01*
X143904761Y-78600000D01*
X144047619Y-78552380D01*
X144142857Y-78552380D01*
X144285714Y-78600000D01*
X144333333Y-78647619D01*
X144666666Y-78552380D02*
X145285714Y-78552380D01*
X144952380Y-78933333D01*
X145095238Y-78933333D01*
X145190476Y-78980952D01*
X145238095Y-79028571D01*
X145285714Y-79123809D01*
X145285714Y-79361904D01*
X145238095Y-79457142D01*
X145190476Y-79504761D01*
X145095238Y-79552380D01*
X144809523Y-79552380D01*
X144714285Y-79504761D01*
X144666666Y-79457142D01*
X149833333Y-79552380D02*
X149833333Y-78552380D01*
X150071428Y-78552380D01*
X150214285Y-78600000D01*
X150309523Y-78695238D01*
X150357142Y-78790476D01*
X150404761Y-78980952D01*
X150404761Y-79123809D01*
X150357142Y-79314285D01*
X150309523Y-79409523D01*
X150214285Y-79504761D01*
X150071428Y-79552380D01*
X149833333Y-79552380D01*
X150785714Y-79266666D02*
X151261904Y-79266666D01*
X150690476Y-79552380D02*
X151023809Y-78552380D01*
X151357142Y-79552380D01*
X152214285Y-79552380D02*
X151642857Y-79552380D01*
X151928571Y-79552380D02*
X151928571Y-78552380D01*
X151833333Y-78695238D01*
X151738095Y-78790476D01*
X151642857Y-78838095D01*
X131632380Y-100578095D02*
X130632380Y-100578095D01*
X130632380Y-100340000D01*
X130680000Y-100197142D01*
X130775238Y-100101904D01*
X130870476Y-100054285D01*
X131060952Y-100006666D01*
X131203809Y-100006666D01*
X131394285Y-100054285D01*
X131489523Y-100101904D01*
X131584761Y-100197142D01*
X131632380Y-100340000D01*
X131632380Y-100578095D01*
X131632380Y-99054285D02*
X131632380Y-99625714D01*
X131632380Y-99340000D02*
X130632380Y-99340000D01*
X130775238Y-99435238D01*
X130870476Y-99530476D01*
X130918095Y-99625714D01*
X145533333Y-108732380D02*
X145200000Y-108256190D01*
X144961904Y-108732380D02*
X144961904Y-107732380D01*
X145342857Y-107732380D01*
X145438095Y-107780000D01*
X145485714Y-107827619D01*
X145533333Y-107922857D01*
X145533333Y-108065714D01*
X145485714Y-108160952D01*
X145438095Y-108208571D01*
X145342857Y-108256190D01*
X144961904Y-108256190D01*
X145914285Y-107827619D02*
X145961904Y-107780000D01*
X146057142Y-107732380D01*
X146295238Y-107732380D01*
X146390476Y-107780000D01*
X146438095Y-107827619D01*
X146485714Y-107922857D01*
X146485714Y-108018095D01*
X146438095Y-108160952D01*
X145866666Y-108732380D01*
X146485714Y-108732380D01*
X146330845Y-91644880D02*
X146330845Y-92454404D01*
X146378464Y-92549642D01*
X146426083Y-92597261D01*
X146521321Y-92644880D01*
X146711797Y-92644880D01*
X146807035Y-92597261D01*
X146854654Y-92549642D01*
X146902273Y-92454404D01*
X146902273Y-91644880D01*
X147902273Y-92644880D02*
X147330845Y-92644880D01*
X147616559Y-92644880D02*
X147616559Y-91644880D01*
X147521321Y-91787738D01*
X147426083Y-91882976D01*
X147330845Y-91930595D01*
X147092750Y-86844880D02*
X147092750Y-87082976D01*
X146854654Y-86987738D02*
X147092750Y-87082976D01*
X147330845Y-86987738D01*
X146949892Y-87273452D02*
X147092750Y-87082976D01*
X147235607Y-87273452D01*
X179504761Y-107227619D02*
X179409523Y-107180000D01*
X179314285Y-107084761D01*
X179171428Y-106941904D01*
X179076190Y-106894285D01*
X178980952Y-106894285D01*
X179028571Y-107132380D02*
X178933333Y-107084761D01*
X178838095Y-106989523D01*
X178790476Y-106799047D01*
X178790476Y-106465714D01*
X178838095Y-106275238D01*
X178933333Y-106180000D01*
X179028571Y-106132380D01*
X179219047Y-106132380D01*
X179314285Y-106180000D01*
X179409523Y-106275238D01*
X179457142Y-106465714D01*
X179457142Y-106799047D01*
X179409523Y-106989523D01*
X179314285Y-107084761D01*
X179219047Y-107132380D01*
X179028571Y-107132380D01*
X179838095Y-106227619D02*
X179885714Y-106180000D01*
X179980952Y-106132380D01*
X180219047Y-106132380D01*
X180314285Y-106180000D01*
X180361904Y-106227619D01*
X180409523Y-106322857D01*
X180409523Y-106418095D01*
X180361904Y-106560952D01*
X179790476Y-107132380D01*
X180409523Y-107132380D01*
X143133333Y-114490380D02*
X142800000Y-114014190D01*
X142561904Y-114490380D02*
X142561904Y-113490380D01*
X142942857Y-113490380D01*
X143038095Y-113538000D01*
X143085714Y-113585619D01*
X143133333Y-113680857D01*
X143133333Y-113823714D01*
X143085714Y-113918952D01*
X143038095Y-113966571D01*
X142942857Y-114014190D01*
X142561904Y-114014190D01*
X143990476Y-113823714D02*
X143990476Y-114490380D01*
X143752380Y-113442761D02*
X143514285Y-114157047D01*
X144133333Y-114157047D01*
X107417619Y-100075238D02*
X107370000Y-100170476D01*
X107274761Y-100265714D01*
X107131904Y-100408571D01*
X107084285Y-100503809D01*
X107084285Y-100599047D01*
X107322380Y-100551428D02*
X107274761Y-100646666D01*
X107179523Y-100741904D01*
X106989047Y-100789523D01*
X106655714Y-100789523D01*
X106465238Y-100741904D01*
X106370000Y-100646666D01*
X106322380Y-100551428D01*
X106322380Y-100360952D01*
X106370000Y-100265714D01*
X106465238Y-100170476D01*
X106655714Y-100122857D01*
X106989047Y-100122857D01*
X107179523Y-100170476D01*
X107274761Y-100265714D01*
X107322380Y-100360952D01*
X107322380Y-100551428D01*
X107322380Y-99170476D02*
X107322380Y-99741904D01*
X107322380Y-99456190D02*
X106322380Y-99456190D01*
X106465238Y-99551428D01*
X106560476Y-99646666D01*
X106608095Y-99741904D01*
X185594761Y-91337619D02*
X185499523Y-91290000D01*
X185404285Y-91194761D01*
X185261428Y-91051904D01*
X185166190Y-91004285D01*
X185070952Y-91004285D01*
X185118571Y-91242380D02*
X185023333Y-91194761D01*
X184928095Y-91099523D01*
X184880476Y-90909047D01*
X184880476Y-90575714D01*
X184928095Y-90385238D01*
X185023333Y-90290000D01*
X185118571Y-90242380D01*
X185309047Y-90242380D01*
X185404285Y-90290000D01*
X185499523Y-90385238D01*
X185547142Y-90575714D01*
X185547142Y-90909047D01*
X185499523Y-91099523D01*
X185404285Y-91194761D01*
X185309047Y-91242380D01*
X185118571Y-91242380D01*
X185880476Y-90242380D02*
X186499523Y-90242380D01*
X186166190Y-90623333D01*
X186309047Y-90623333D01*
X186404285Y-90670952D01*
X186451904Y-90718571D01*
X186499523Y-90813809D01*
X186499523Y-91051904D01*
X186451904Y-91147142D01*
X186404285Y-91194761D01*
X186309047Y-91242380D01*
X186023333Y-91242380D01*
X185928095Y-91194761D01*
X185880476Y-91147142D01*
X140533333Y-84657142D02*
X140485714Y-84704761D01*
X140342857Y-84752380D01*
X140247619Y-84752380D01*
X140104761Y-84704761D01*
X140009523Y-84609523D01*
X139961904Y-84514285D01*
X139914285Y-84323809D01*
X139914285Y-84180952D01*
X139961904Y-83990476D01*
X140009523Y-83895238D01*
X140104761Y-83800000D01*
X140247619Y-83752380D01*
X140342857Y-83752380D01*
X140485714Y-83800000D01*
X140533333Y-83847619D01*
X141438095Y-83752380D02*
X140961904Y-83752380D01*
X140914285Y-84228571D01*
X140961904Y-84180952D01*
X141057142Y-84133333D01*
X141295238Y-84133333D01*
X141390476Y-84180952D01*
X141438095Y-84228571D01*
X141485714Y-84323809D01*
X141485714Y-84561904D01*
X141438095Y-84657142D01*
X141390476Y-84704761D01*
X141295238Y-84752380D01*
X141057142Y-84752380D01*
X140961904Y-84704761D01*
X140914285Y-84657142D01*
X144360261Y-105397880D02*
X144026928Y-104921690D01*
X143788833Y-105397880D02*
X143788833Y-104397880D01*
X144169785Y-104397880D01*
X144265023Y-104445500D01*
X144312642Y-104493119D01*
X144360261Y-104588357D01*
X144360261Y-104731214D01*
X144312642Y-104826452D01*
X144265023Y-104874071D01*
X144169785Y-104921690D01*
X143788833Y-104921690D01*
X144645976Y-104397880D02*
X144979309Y-105397880D01*
X145312642Y-104397880D01*
X146169785Y-105397880D02*
X145598357Y-105397880D01*
X145884071Y-105397880D02*
X145884071Y-104397880D01*
X145788833Y-104540738D01*
X145693595Y-104635976D01*
X145598357Y-104683595D01*
X125333333Y-114257142D02*
X125285714Y-114304761D01*
X125142857Y-114352380D01*
X125047619Y-114352380D01*
X124904761Y-114304761D01*
X124809523Y-114209523D01*
X124761904Y-114114285D01*
X124714285Y-113923809D01*
X124714285Y-113780952D01*
X124761904Y-113590476D01*
X124809523Y-113495238D01*
X124904761Y-113400000D01*
X125047619Y-113352380D01*
X125142857Y-113352380D01*
X125285714Y-113400000D01*
X125333333Y-113447619D01*
X125809523Y-114352380D02*
X126000000Y-114352380D01*
X126095238Y-114304761D01*
X126142857Y-114257142D01*
X126238095Y-114114285D01*
X126285714Y-113923809D01*
X126285714Y-113542857D01*
X126238095Y-113447619D01*
X126190476Y-113400000D01*
X126095238Y-113352380D01*
X125904761Y-113352380D01*
X125809523Y-113400000D01*
X125761904Y-113447619D01*
X125714285Y-113542857D01*
X125714285Y-113780952D01*
X125761904Y-113876190D01*
X125809523Y-113923809D01*
X125904761Y-113971428D01*
X126095238Y-113971428D01*
X126190476Y-113923809D01*
X126238095Y-113876190D01*
X126285714Y-113780952D01*
X171183333Y-88352380D02*
X170707142Y-88352380D01*
X170707142Y-87352380D01*
X172040476Y-88352380D02*
X171469047Y-88352380D01*
X171754761Y-88352380D02*
X171754761Y-87352380D01*
X171659523Y-87495238D01*
X171564285Y-87590476D01*
X171469047Y-87638095D01*
X155723333Y-86697142D02*
X155675714Y-86744761D01*
X155532857Y-86792380D01*
X155437619Y-86792380D01*
X155294761Y-86744761D01*
X155199523Y-86649523D01*
X155151904Y-86554285D01*
X155104285Y-86363809D01*
X155104285Y-86220952D01*
X155151904Y-86030476D01*
X155199523Y-85935238D01*
X155294761Y-85840000D01*
X155437619Y-85792380D01*
X155532857Y-85792380D01*
X155675714Y-85840000D01*
X155723333Y-85887619D01*
X156056666Y-85792380D02*
X156723333Y-85792380D01*
X156294761Y-86792380D01*
X136533333Y-88452380D02*
X136200000Y-87976190D01*
X135961904Y-88452380D02*
X135961904Y-87452380D01*
X136342857Y-87452380D01*
X136438095Y-87500000D01*
X136485714Y-87547619D01*
X136533333Y-87642857D01*
X136533333Y-87785714D01*
X136485714Y-87880952D01*
X136438095Y-87928571D01*
X136342857Y-87976190D01*
X135961904Y-87976190D01*
X137485714Y-88452380D02*
X136914285Y-88452380D01*
X137200000Y-88452380D02*
X137200000Y-87452380D01*
X137104761Y-87595238D01*
X137009523Y-87690476D01*
X136914285Y-87738095D01*
X155452380Y-101338095D02*
X154452380Y-101338095D01*
X154452380Y-101100000D01*
X154500000Y-100957142D01*
X154595238Y-100861904D01*
X154690476Y-100814285D01*
X154880952Y-100766666D01*
X155023809Y-100766666D01*
X155214285Y-100814285D01*
X155309523Y-100861904D01*
X155404761Y-100957142D01*
X155452380Y-101100000D01*
X155452380Y-101338095D01*
X154547619Y-100385714D02*
X154500000Y-100338095D01*
X154452380Y-100242857D01*
X154452380Y-100004761D01*
X154500000Y-99909523D01*
X154547619Y-99861904D01*
X154642857Y-99814285D01*
X154738095Y-99814285D01*
X154880952Y-99861904D01*
X155452380Y-100433333D01*
X155452380Y-99814285D01*
X147433333Y-79457142D02*
X147385714Y-79504761D01*
X147242857Y-79552380D01*
X147147619Y-79552380D01*
X147004761Y-79504761D01*
X146909523Y-79409523D01*
X146861904Y-79314285D01*
X146814285Y-79123809D01*
X146814285Y-78980952D01*
X146861904Y-78790476D01*
X146909523Y-78695238D01*
X147004761Y-78600000D01*
X147147619Y-78552380D01*
X147242857Y-78552380D01*
X147385714Y-78600000D01*
X147433333Y-78647619D01*
X147814285Y-78647619D02*
X147861904Y-78600000D01*
X147957142Y-78552380D01*
X148195238Y-78552380D01*
X148290476Y-78600000D01*
X148338095Y-78647619D01*
X148385714Y-78742857D01*
X148385714Y-78838095D01*
X148338095Y-78980952D01*
X147766666Y-79552380D01*
X148385714Y-79552380D01*
X155933333Y-93457142D02*
X155885714Y-93504761D01*
X155742857Y-93552380D01*
X155647619Y-93552380D01*
X155504761Y-93504761D01*
X155409523Y-93409523D01*
X155361904Y-93314285D01*
X155314285Y-93123809D01*
X155314285Y-92980952D01*
X155361904Y-92790476D01*
X155409523Y-92695238D01*
X155504761Y-92600000D01*
X155647619Y-92552380D01*
X155742857Y-92552380D01*
X155885714Y-92600000D01*
X155933333Y-92647619D01*
X156790476Y-92552380D02*
X156600000Y-92552380D01*
X156504761Y-92600000D01*
X156457142Y-92647619D01*
X156361904Y-92790476D01*
X156314285Y-92980952D01*
X156314285Y-93361904D01*
X156361904Y-93457142D01*
X156409523Y-93504761D01*
X156504761Y-93552380D01*
X156695238Y-93552380D01*
X156790476Y-93504761D01*
X156838095Y-93457142D01*
X156885714Y-93361904D01*
X156885714Y-93123809D01*
X156838095Y-93028571D01*
X156790476Y-92980952D01*
X156695238Y-92933333D01*
X156504761Y-92933333D01*
X156409523Y-92980952D01*
X156361904Y-93028571D01*
X156314285Y-93123809D01*
X107297619Y-88225238D02*
X107250000Y-88320476D01*
X107154761Y-88415714D01*
X107011904Y-88558571D01*
X106964285Y-88653809D01*
X106964285Y-88749047D01*
X107202380Y-88701428D02*
X107154761Y-88796666D01*
X107059523Y-88891904D01*
X106869047Y-88939523D01*
X106535714Y-88939523D01*
X106345238Y-88891904D01*
X106250000Y-88796666D01*
X106202380Y-88701428D01*
X106202380Y-88510952D01*
X106250000Y-88415714D01*
X106345238Y-88320476D01*
X106535714Y-88272857D01*
X106869047Y-88272857D01*
X107059523Y-88320476D01*
X107154761Y-88415714D01*
X107202380Y-88510952D01*
X107202380Y-88701428D01*
X106535714Y-87415714D02*
X107202380Y-87415714D01*
X106154761Y-87653809D02*
X106869047Y-87891904D01*
X106869047Y-87272857D01*
X154461904Y-79652380D02*
X154461904Y-78652380D01*
X154700000Y-78652380D01*
X154842857Y-78700000D01*
X154938095Y-78795238D01*
X154985714Y-78890476D01*
X155033333Y-79080952D01*
X155033333Y-79223809D01*
X154985714Y-79414285D01*
X154938095Y-79509523D01*
X154842857Y-79604761D01*
X154700000Y-79652380D01*
X154461904Y-79652380D01*
X155795238Y-79128571D02*
X155938095Y-79176190D01*
X155985714Y-79223809D01*
X156033333Y-79319047D01*
X156033333Y-79461904D01*
X155985714Y-79557142D01*
X155938095Y-79604761D01*
X155842857Y-79652380D01*
X155461904Y-79652380D01*
X155461904Y-78652380D01*
X155795238Y-78652380D01*
X155890476Y-78700000D01*
X155938095Y-78747619D01*
X155985714Y-78842857D01*
X155985714Y-78938095D01*
X155938095Y-79033333D01*
X155890476Y-79080952D01*
X155795238Y-79128571D01*
X155461904Y-79128571D01*
X156985714Y-79652380D02*
X156414285Y-79652380D01*
X156700000Y-79652380D02*
X156700000Y-78652380D01*
X156604761Y-78795238D01*
X156509523Y-78890476D01*
X156414285Y-78938095D01*
D11*
X143690000Y-81868748D02*
X143690000Y-83291252D01*
X145510000Y-81868748D02*
X145510000Y-83291252D01*
X150010000Y-84800000D02*
X150010000Y-80900000D01*
X150010000Y-84800000D02*
X152010000Y-84800000D01*
X152010000Y-84800000D02*
X152010000Y-80900000D01*
X115221651Y-111228000D02*
X115221651Y-108478000D01*
X114461651Y-115660000D02*
X114461651Y-113308000D01*
X116382651Y-116333000D02*
X116382651Y-108203000D01*
X115381651Y-116118000D02*
X115381651Y-113308000D01*
X113981651Y-115287000D02*
X113981651Y-113308000D01*
X116262651Y-116320000D02*
X116262651Y-108216000D01*
X115621651Y-111228000D02*
X115621651Y-108343000D01*
X114261651Y-111228000D02*
X114261651Y-109018000D01*
X114101651Y-111228000D02*
X114101651Y-109144000D01*
X116702651Y-116348000D02*
X116702651Y-108188000D01*
X114301651Y-115548000D02*
X114301651Y-113308000D01*
X113141651Y-114232000D02*
X113141651Y-110304000D01*
X114381651Y-111228000D02*
X114381651Y-108930000D01*
X112701651Y-113036000D02*
X112701651Y-111500000D01*
X114981651Y-115954000D02*
X114981651Y-113308000D01*
X114821651Y-111228000D02*
X114821651Y-108662000D01*
X114781651Y-111228000D02*
X114781651Y-108684000D01*
X115421651Y-111228000D02*
X115421651Y-108405000D01*
X114141651Y-115424000D02*
X114141651Y-113308000D01*
X112941651Y-113820000D02*
X112941651Y-110716000D01*
X113261651Y-114434000D02*
X113261651Y-110102000D01*
X116302651Y-116325000D02*
X116302651Y-108211000D01*
X115981651Y-116278000D02*
X115981651Y-113308000D01*
X115581651Y-116182000D02*
X115581651Y-113308000D01*
X116502651Y-116342000D02*
X116502651Y-108194000D01*
X114701651Y-115808000D02*
X114701651Y-113308000D01*
X116462651Y-116339000D02*
X116462651Y-108197000D01*
X116062651Y-116292000D02*
X116062651Y-108244000D01*
X112661651Y-112801000D02*
X112661651Y-111735000D01*
X114421651Y-111228000D02*
X114421651Y-108903000D01*
X115661651Y-111228000D02*
X115661651Y-108332000D01*
X113021651Y-113999000D02*
X113021651Y-110537000D01*
X115461651Y-111228000D02*
X115461651Y-108391000D01*
X114741651Y-111228000D02*
X114741651Y-108706000D01*
X114501651Y-115686000D02*
X114501651Y-113308000D01*
X115901651Y-111228000D02*
X115901651Y-108274000D01*
X115421651Y-116131000D02*
X115421651Y-113308000D01*
X114101651Y-115392000D02*
X114101651Y-113308000D01*
X114701651Y-111228000D02*
X114701651Y-108728000D01*
X115861651Y-116253000D02*
X115861651Y-113308000D01*
X114341651Y-111228000D02*
X114341651Y-108959000D01*
X116142651Y-116305000D02*
X116142651Y-108231000D01*
X114821651Y-115874000D02*
X114821651Y-113308000D01*
X115341651Y-116103000D02*
X115341651Y-113308000D01*
X113581651Y-114872000D02*
X113581651Y-109664000D01*
X114861651Y-115895000D02*
X114861651Y-113308000D01*
X115941651Y-111228000D02*
X115941651Y-108266000D01*
X115821651Y-111228000D02*
X115821651Y-108292000D01*
X114901651Y-115915000D02*
X114901651Y-113308000D01*
X114941651Y-115934000D02*
X114941651Y-113308000D01*
X115741651Y-116225000D02*
X115741651Y-113308000D01*
X115701651Y-111228000D02*
X115701651Y-108321000D01*
X113701651Y-115009000D02*
X113701651Y-109527000D01*
X114661651Y-111228000D02*
X114661651Y-108751000D01*
X115581651Y-111228000D02*
X115581651Y-108354000D01*
X115381651Y-111228000D02*
X115381651Y-108418000D01*
X116222651Y-116316000D02*
X116222651Y-108220000D01*
X113101651Y-114158000D02*
X113101651Y-110378000D01*
X115021651Y-111228000D02*
X115021651Y-108564000D01*
X121152349Y-114583000D02*
X120352349Y-114583000D01*
X115341651Y-111228000D02*
X115341651Y-108433000D01*
X114621651Y-115761000D02*
X114621651Y-113308000D01*
X115821651Y-116244000D02*
X115821651Y-113308000D01*
X116342651Y-116329000D02*
X116342651Y-108207000D01*
X112981651Y-113913000D02*
X112981651Y-110623000D01*
X114421651Y-115633000D02*
X114421651Y-113308000D01*
X113301651Y-114496000D02*
X113301651Y-110040000D01*
X113621651Y-114919000D02*
X113621651Y-109617000D01*
X114461651Y-111228000D02*
X114461651Y-108876000D01*
X115301651Y-111228000D02*
X115301651Y-108447000D01*
X114061651Y-111228000D02*
X114061651Y-109178000D01*
X113901651Y-115213000D02*
X113901651Y-109323000D01*
X113181651Y-114302000D02*
X113181651Y-110234000D01*
X114581651Y-115737000D02*
X114581651Y-113308000D01*
X115501651Y-116157000D02*
X115501651Y-113308000D01*
X113661651Y-114965000D02*
X113661651Y-109571000D01*
X115181651Y-116042000D02*
X115181651Y-113308000D01*
X114781651Y-115852000D02*
X114781651Y-113308000D01*
X114661651Y-115785000D02*
X114661651Y-113308000D01*
X113821651Y-115135000D02*
X113821651Y-109401000D01*
X115861651Y-111228000D02*
X115861651Y-108283000D01*
X115021651Y-115972000D02*
X115021651Y-113308000D01*
X115261651Y-111228000D02*
X115261651Y-108463000D01*
X114981651Y-111228000D02*
X114981651Y-108582000D01*
X112781651Y-113366000D02*
X112781651Y-111170000D01*
X115661651Y-116204000D02*
X115661651Y-113308000D01*
X113941651Y-115251000D02*
X113941651Y-109285000D01*
X115101651Y-111228000D02*
X115101651Y-108528000D01*
X114061651Y-115358000D02*
X114061651Y-113308000D01*
X114581651Y-111228000D02*
X114581651Y-108799000D01*
X115621651Y-116193000D02*
X115621651Y-113308000D01*
X114141651Y-111228000D02*
X114141651Y-109112000D01*
X113781651Y-115094000D02*
X113781651Y-109442000D01*
X114501651Y-111228000D02*
X114501651Y-108850000D01*
X115181651Y-111228000D02*
X115181651Y-108494000D01*
X115741651Y-111228000D02*
X115741651Y-108311000D01*
X115141651Y-111228000D02*
X115141651Y-108511000D01*
X113061651Y-114081000D02*
X113061651Y-110455000D01*
X113541651Y-114824000D02*
X113541651Y-109712000D01*
X113461651Y-114722000D02*
X113461651Y-109814000D01*
X115061651Y-115990000D02*
X115061651Y-113308000D01*
X113501651Y-114773000D02*
X113501651Y-109763000D01*
X120752349Y-114983000D02*
X120752349Y-114183000D01*
X113861651Y-115175000D02*
X113861651Y-109361000D01*
X114541651Y-115712000D02*
X114541651Y-113308000D01*
X114301651Y-111228000D02*
X114301651Y-108988000D01*
X114021651Y-111228000D02*
X114021651Y-109213000D01*
X115781651Y-111228000D02*
X115781651Y-108301000D01*
X114541651Y-111228000D02*
X114541651Y-108824000D01*
X116622651Y-116347000D02*
X116622651Y-108189000D01*
X115781651Y-116235000D02*
X115781651Y-113308000D01*
X115461651Y-116145000D02*
X115461651Y-113308000D01*
X116742651Y-116348000D02*
X116742651Y-108188000D01*
X113381651Y-114613000D02*
X113381651Y-109923000D01*
X116182651Y-116310000D02*
X116182651Y-108226000D01*
X115221651Y-116058000D02*
X115221651Y-113308000D01*
X114381651Y-115606000D02*
X114381651Y-113308000D01*
X115941651Y-116270000D02*
X115941651Y-113308000D01*
X113741651Y-115052000D02*
X113741651Y-109484000D01*
X114181651Y-111228000D02*
X114181651Y-109079000D01*
X114181651Y-115457000D02*
X114181651Y-113308000D01*
X113981651Y-111228000D02*
X113981651Y-109249000D01*
X114621651Y-111228000D02*
X114621651Y-108775000D01*
X114901651Y-111228000D02*
X114901651Y-108621000D01*
X113421651Y-114668000D02*
X113421651Y-109868000D01*
X112821651Y-113497000D02*
X112821651Y-111039000D01*
X115981651Y-111228000D02*
X115981651Y-108258000D01*
X114221651Y-111228000D02*
X114221651Y-109048000D01*
X115141651Y-116025000D02*
X115141651Y-113308000D01*
X116021651Y-111228000D02*
X116021651Y-108251000D01*
X112901651Y-113721000D02*
X112901651Y-110815000D01*
X115541651Y-111228000D02*
X115541651Y-108366000D01*
X115701651Y-116215000D02*
X115701651Y-113308000D01*
X115261651Y-116073000D02*
X115261651Y-113308000D01*
X114021651Y-115323000D02*
X114021651Y-113308000D01*
X114861651Y-111228000D02*
X114861651Y-108641000D01*
X114341651Y-115577000D02*
X114341651Y-113308000D01*
X115901651Y-116262000D02*
X115901651Y-113308000D01*
X115061651Y-111228000D02*
X115061651Y-108546000D01*
X116542651Y-116344000D02*
X116542651Y-108192000D01*
X116021651Y-116285000D02*
X116021651Y-113308000D01*
X114221651Y-115488000D02*
X114221651Y-113308000D01*
X114261651Y-115518000D02*
X114261651Y-113308000D01*
X114741651Y-115830000D02*
X114741651Y-113308000D01*
X116422651Y-116336000D02*
X116422651Y-108200000D01*
X112741651Y-113216000D02*
X112741651Y-111320000D01*
X113221651Y-114370000D02*
X113221651Y-110166000D01*
X114941651Y-111228000D02*
X114941651Y-108602000D01*
X116102651Y-116298000D02*
X116102651Y-108238000D01*
X116582651Y-116345000D02*
X116582651Y-108191000D01*
X115101651Y-116008000D02*
X115101651Y-113308000D01*
X113341651Y-114555000D02*
X113341651Y-109981000D01*
X112861651Y-113614000D02*
X112861651Y-110922000D01*
X116662651Y-116348000D02*
X116662651Y-108188000D01*
X115301651Y-116089000D02*
X115301651Y-113308000D01*
X115541651Y-116170000D02*
X115541651Y-113308000D01*
X115501651Y-111228000D02*
X115501651Y-108379000D01*
X120862651Y-112268000D02*
G75*
G03*
X120862651Y-112268000I-4120000J0D01*
G01*
X138080000Y-91534879D02*
X138080000Y-91870121D01*
X137320000Y-91534879D02*
X137320000Y-91870121D01*
X135180000Y-106140000D02*
X135180000Y-95940000D01*
X132180000Y-95940000D02*
X132180000Y-106140000D01*
X132180000Y-106140000D02*
X135180000Y-106140000D01*
X151770000Y-105930000D02*
X139630000Y-105930000D01*
X139630000Y-110670000D02*
X151770000Y-110670000D01*
X139520000Y-108300000D02*
X139630000Y-108300000D01*
X139630000Y-105930000D02*
X139630000Y-110670000D01*
X151880000Y-108300000D02*
X151770000Y-108300000D01*
X151770000Y-110670000D02*
X151770000Y-105930000D01*
X150026450Y-95074000D02*
X150026450Y-94817060D01*
X144159050Y-86311000D02*
X144159050Y-86567940D01*
X144159050Y-95074000D02*
X150026450Y-95074000D01*
X150026450Y-86567940D02*
X150026450Y-86311000D01*
X150026450Y-86311000D02*
X144159050Y-86311000D01*
X144159050Y-94817060D02*
X144159050Y-95074000D01*
D12*
X142132651Y-92777840D02*
X142132651Y-93158840D01*
X142132651Y-93158840D02*
X142386651Y-93158840D01*
X142386651Y-93158840D02*
X142386651Y-92777840D01*
X142386651Y-92777840D02*
X142132651Y-92777840D01*
G36*
X142386651Y-93158840D02*
G01*
X142132651Y-93158840D01*
X142132651Y-92777840D01*
X142386651Y-92777840D01*
X142386651Y-93158840D01*
G37*
X142386651Y-93158840D02*
X142132651Y-93158840D01*
X142132651Y-92777840D01*
X142386651Y-92777840D01*
X142386651Y-93158840D01*
X152052849Y-89526640D02*
X152052849Y-89907640D01*
X152052849Y-89907640D02*
X151798849Y-89907640D01*
X151798849Y-89907640D02*
X151798849Y-89526640D01*
X151798849Y-89526640D02*
X152052849Y-89526640D01*
G36*
X152052849Y-89907640D02*
G01*
X151798849Y-89907640D01*
X151798849Y-89526640D01*
X152052849Y-89526640D01*
X152052849Y-89907640D01*
G37*
X152052849Y-89907640D02*
X151798849Y-89907640D01*
X151798849Y-89526640D01*
X152052849Y-89526640D01*
X152052849Y-89907640D01*
D11*
X173784000Y-106680000D02*
X171244000Y-106680000D01*
X173784000Y-109220000D02*
X171244000Y-109220000D01*
X173784000Y-104140000D02*
X171244000Y-104140000D01*
X189674000Y-111800000D02*
X173784000Y-111800000D01*
X189674000Y-101560000D02*
X173784000Y-101560000D01*
X173784000Y-101560000D02*
X173784000Y-111800000D01*
X189674000Y-101560000D02*
X189674000Y-111800000D01*
X137230000Y-111730000D02*
X137230000Y-116470000D01*
X149370000Y-116470000D02*
X149370000Y-111730000D01*
X137120000Y-114100000D02*
X137230000Y-114100000D01*
X149480000Y-114100000D02*
X149370000Y-114100000D01*
X149370000Y-111730000D02*
X137230000Y-111730000D01*
X137230000Y-116470000D02*
X149370000Y-116470000D01*
X123760000Y-97440000D02*
X126300000Y-97440000D01*
X107870000Y-94860000D02*
X123760000Y-94860000D01*
X123760000Y-105100000D02*
X123760000Y-94860000D01*
X107870000Y-105100000D02*
X123760000Y-105100000D01*
X123760000Y-99980000D02*
X126300000Y-99980000D01*
X123760000Y-102520000D02*
X126300000Y-102520000D01*
X107870000Y-105100000D02*
X107870000Y-94860000D01*
X180250000Y-88350000D02*
X177710000Y-88350000D01*
X180250000Y-85770000D02*
X180250000Y-96010000D01*
X196140000Y-85770000D02*
X196140000Y-96010000D01*
X196140000Y-85770000D02*
X180250000Y-85770000D01*
X180250000Y-93430000D02*
X177710000Y-93430000D01*
X196140000Y-96010000D02*
X180250000Y-96010000D01*
X180250000Y-90890000D02*
X177710000Y-90890000D01*
X174490000Y-121935000D02*
X174490000Y-122265000D01*
X174110000Y-119555000D02*
X175380000Y-119555000D01*
X175380000Y-119555000D02*
X175380000Y-120825000D01*
X169410000Y-121867929D02*
X169410000Y-122265000D01*
X167700000Y-124925000D02*
X175440000Y-124925000D01*
X171190000Y-121867929D02*
X171190000Y-122265000D01*
X168650000Y-121867929D02*
X168650000Y-122265000D01*
X171950000Y-121867929D02*
X171950000Y-122265000D01*
X175440000Y-124925000D02*
X175440000Y-122265000D01*
X175440000Y-122265000D02*
X167700000Y-122265000D01*
X172840000Y-122265000D02*
X172840000Y-124925000D01*
X167700000Y-122265000D02*
X167700000Y-124925000D01*
X173730000Y-121935000D02*
X173730000Y-122265000D01*
X170300000Y-122265000D02*
X170300000Y-124925000D01*
X140460000Y-87014267D02*
X140460000Y-86721733D01*
X141480000Y-87014267D02*
X141480000Y-86721733D01*
X141528500Y-96520140D02*
X148894500Y-96520140D01*
X148894500Y-103972500D02*
X148894500Y-96520140D01*
X141528500Y-103972500D02*
X148894500Y-103972500D01*
X141528500Y-103972500D02*
X141528500Y-96520140D01*
X124446000Y-108774677D02*
X127029000Y-108774677D01*
X124591000Y-108614677D02*
X127029000Y-108614677D01*
X123197000Y-111855677D02*
X133343000Y-111855677D01*
X124220000Y-109054677D02*
X127029000Y-109054677D01*
X123923000Y-109494677D02*
X127029000Y-109494677D01*
X127040000Y-107174677D02*
X129500000Y-107174677D01*
X123808000Y-109694677D02*
X127029000Y-109694677D01*
X124049000Y-109294677D02*
X127029000Y-109294677D01*
X123235000Y-111455677D02*
X133305000Y-111455677D01*
X123385000Y-110734677D02*
X127029000Y-110734677D01*
X123273000Y-111214677D02*
X133267000Y-111214677D01*
X125440000Y-107894677D02*
X131100000Y-107894677D01*
X129511000Y-108814677D02*
X132128000Y-108814677D01*
X125270000Y-108014677D02*
X131270000Y-108014677D01*
X123396000Y-110694677D02*
X127029000Y-110694677D01*
X123649000Y-110014677D02*
X127029000Y-110014677D01*
X127671000Y-107054677D02*
X128869000Y-107054677D01*
X126760000Y-107254677D02*
X129780000Y-107254677D01*
X125561000Y-107814677D02*
X130979000Y-107814677D01*
X125500000Y-107854677D02*
X131040000Y-107854677D01*
X129511000Y-110294677D02*
X133008000Y-110294677D01*
X123947000Y-109454677D02*
X127029000Y-109454677D01*
X129511000Y-109814677D02*
X132795000Y-109814677D01*
X125325000Y-107974677D02*
X131215000Y-107974677D01*
X124630000Y-108574677D02*
X127029000Y-108574677D01*
X129511000Y-109374677D02*
X132543000Y-109374677D01*
X129511000Y-109934677D02*
X132854000Y-109934677D01*
X126892000Y-107214677D02*
X129648000Y-107214677D01*
X123190000Y-112135677D02*
X133350000Y-112135677D01*
X129511000Y-109694677D02*
X132732000Y-109694677D01*
X129511000Y-110854677D02*
X133188000Y-110854677D01*
X124378000Y-108854677D02*
X127029000Y-108854677D01*
X124669000Y-108534677D02*
X127029000Y-108534677D01*
X123212000Y-111655677D02*
X133328000Y-111655677D01*
X125395000Y-117615323D02*
X125395000Y-116615323D01*
X129511000Y-108614677D02*
X131949000Y-108614677D01*
X123202000Y-111775677D02*
X133338000Y-111775677D01*
X129511000Y-109054677D02*
X132320000Y-109054677D01*
X123193000Y-111935677D02*
X133347000Y-111935677D01*
X123190000Y-112055677D02*
X133350000Y-112055677D01*
X125691000Y-107734677D02*
X130849000Y-107734677D01*
X125164000Y-108094677D02*
X131376000Y-108094677D01*
X123296000Y-111094677D02*
X133244000Y-111094677D01*
X124160000Y-109134677D02*
X127029000Y-109134677D01*
X123280000Y-111174677D02*
X133260000Y-111174677D01*
X126145000Y-107494677D02*
X130395000Y-107494677D01*
X129511000Y-110254677D02*
X132993000Y-110254677D01*
X124969000Y-108254677D02*
X131571000Y-108254677D01*
X124517000Y-108694677D02*
X127029000Y-108694677D01*
X129511000Y-109734677D02*
X132753000Y-109734677D01*
X129511000Y-109654677D02*
X132710000Y-109654677D01*
X129511000Y-109214677D02*
X132436000Y-109214677D01*
X129511000Y-109534677D02*
X132641000Y-109534677D01*
X129511000Y-108534677D02*
X131871000Y-108534677D01*
X124412000Y-108814677D02*
X127029000Y-108814677D01*
X123408000Y-110654677D02*
X127029000Y-110654677D01*
X123516000Y-110334677D02*
X127029000Y-110334677D01*
X123230000Y-111495677D02*
X133310000Y-111495677D01*
X124132000Y-109174677D02*
X127029000Y-109174677D01*
X123631000Y-110054677D02*
X127029000Y-110054677D01*
X124076000Y-109254677D02*
X127029000Y-109254677D01*
X129511000Y-109134677D02*
X132380000Y-109134677D01*
X123972000Y-109414677D02*
X127029000Y-109414677D01*
X124895000Y-117115323D02*
X125895000Y-117115323D01*
X124554000Y-108654677D02*
X127029000Y-108654677D01*
X123208000Y-111695677D02*
X133332000Y-111695677D01*
X129511000Y-110214677D02*
X132977000Y-110214677D01*
X123766000Y-109774677D02*
X127029000Y-109774677D01*
X129511000Y-109294677D02*
X132491000Y-109294677D01*
X123547000Y-110254677D02*
X127029000Y-110254677D01*
X123225000Y-111535677D02*
X133315000Y-111535677D01*
X129511000Y-108694677D02*
X132023000Y-108694677D01*
X129511000Y-110654677D02*
X133132000Y-110654677D01*
X129511000Y-108574677D02*
X131910000Y-108574677D01*
X129511000Y-110094677D02*
X132927000Y-110094677D01*
X129511000Y-110534677D02*
X133094000Y-110534677D01*
X123725000Y-109854677D02*
X127029000Y-109854677D01*
X124104000Y-109214677D02*
X127029000Y-109214677D01*
X129511000Y-108414677D02*
X131748000Y-108414677D01*
X129511000Y-108974677D02*
X132259000Y-108974677D01*
X123745000Y-109814677D02*
X127029000Y-109814677D01*
X129511000Y-109494677D02*
X132617000Y-109494677D01*
X127208000Y-107134677D02*
X129332000Y-107134677D01*
X125760000Y-107694677D02*
X130780000Y-107694677D01*
X124481000Y-108734677D02*
X127029000Y-108734677D01*
X123596000Y-110134677D02*
X127029000Y-110134677D01*
X124190000Y-109094677D02*
X127029000Y-109094677D01*
X129511000Y-110374677D02*
X133038000Y-110374677D01*
X129511000Y-110574677D02*
X133107000Y-110574677D01*
X123787000Y-109734677D02*
X127029000Y-109734677D01*
X123305000Y-111054677D02*
X133235000Y-111054677D01*
X125216000Y-108054677D02*
X131324000Y-108054677D01*
X129511000Y-109774677D02*
X132774000Y-109774677D01*
X129511000Y-109014677D02*
X132290000Y-109014677D01*
X129511000Y-108654677D02*
X131986000Y-108654677D01*
X126640000Y-107294677D02*
X129900000Y-107294677D01*
X123373000Y-110774677D02*
X127029000Y-110774677D01*
X129511000Y-110814677D02*
X133177000Y-110814677D01*
X123195000Y-111895677D02*
X133345000Y-111895677D01*
X123288000Y-111134677D02*
X133252000Y-111134677D01*
X123314000Y-111014677D02*
X133226000Y-111014677D01*
X123563000Y-110214677D02*
X127029000Y-110214677D01*
X126326000Y-107414677D02*
X130214000Y-107414677D01*
X123190000Y-112095677D02*
X133350000Y-112095677D01*
X129511000Y-109334677D02*
X132517000Y-109334677D01*
X125114000Y-108134677D02*
X131426000Y-108134677D01*
X124878000Y-108334677D02*
X131662000Y-108334677D01*
X123433000Y-110574677D02*
X127029000Y-110574677D01*
X129511000Y-109974677D02*
X132873000Y-109974677D01*
X129511000Y-110494677D02*
X133081000Y-110494677D01*
X123252000Y-111334677D02*
X133288000Y-111334677D01*
X125064000Y-108174677D02*
X131476000Y-108174677D01*
X123332000Y-110934677D02*
X133208000Y-110934677D01*
X123420000Y-110614677D02*
X127029000Y-110614677D01*
X123266000Y-111254677D02*
X133274000Y-111254677D01*
X123830000Y-109654677D02*
X127029000Y-109654677D01*
X123459000Y-110494677D02*
X127029000Y-110494677D01*
X123246000Y-111374677D02*
X133294000Y-111374677D01*
X129511000Y-110614677D02*
X133120000Y-110614677D01*
X123667000Y-109974677D02*
X127029000Y-109974677D01*
X129511000Y-110734677D02*
X133155000Y-110734677D01*
X123473000Y-110454677D02*
X127029000Y-110454677D01*
X129511000Y-110014677D02*
X132891000Y-110014677D01*
X123502000Y-110374677D02*
X127029000Y-110374677D01*
X123205000Y-111735677D02*
X133335000Y-111735677D01*
X129511000Y-108774677D02*
X132094000Y-108774677D01*
X129511000Y-109454677D02*
X132593000Y-109454677D01*
X129511000Y-110694677D02*
X133144000Y-110694677D01*
X123352000Y-110854677D02*
X127029000Y-110854677D01*
X129511000Y-110414677D02*
X133053000Y-110414677D01*
X129511000Y-108854677D02*
X132162000Y-108854677D01*
X129511000Y-110054677D02*
X132909000Y-110054677D01*
X124250000Y-109014677D02*
X127029000Y-109014677D01*
X126061000Y-107534677D02*
X130479000Y-107534677D01*
X123191000Y-112015677D02*
X133349000Y-112015677D01*
X125981000Y-107574677D02*
X130559000Y-107574677D01*
X125831000Y-107654677D02*
X130709000Y-107654677D01*
X123240000Y-111414677D02*
X133300000Y-111414677D01*
X123342000Y-110894677D02*
X133198000Y-110894677D01*
X123853000Y-109614677D02*
X127029000Y-109614677D01*
X129511000Y-110334677D02*
X133024000Y-110334677D01*
X123686000Y-109934677D02*
X127029000Y-109934677D01*
X123487000Y-110414677D02*
X127029000Y-110414677D01*
X123220000Y-111575677D02*
X133320000Y-111575677D01*
X123363000Y-110814677D02*
X127029000Y-110814677D01*
X124281000Y-108974677D02*
X127029000Y-108974677D01*
X123200000Y-111815677D02*
X133340000Y-111815677D01*
X123997000Y-109374677D02*
X127029000Y-109374677D01*
X129511000Y-109414677D02*
X132568000Y-109414677D01*
X123532000Y-110294677D02*
X127029000Y-110294677D01*
X125625000Y-107774677D02*
X130915000Y-107774677D01*
X126233000Y-107454677D02*
X130307000Y-107454677D01*
X129511000Y-108494677D02*
X131831000Y-108494677D01*
X129511000Y-109574677D02*
X132665000Y-109574677D01*
X123613000Y-110094677D02*
X127029000Y-110094677D01*
X129511000Y-110134677D02*
X132944000Y-110134677D01*
X123192000Y-111975677D02*
X133348000Y-111975677D01*
X129511000Y-110774677D02*
X133167000Y-110774677D01*
X126424000Y-107374677D02*
X130116000Y-107374677D01*
X129511000Y-108934677D02*
X132227000Y-108934677D01*
X126528000Y-107334677D02*
X130012000Y-107334677D01*
X124023000Y-109334677D02*
X127029000Y-109334677D01*
X124834000Y-108374677D02*
X131706000Y-108374677D01*
X124709000Y-108494677D02*
X127029000Y-108494677D01*
X125016000Y-108214677D02*
X131524000Y-108214677D01*
X123216000Y-111615677D02*
X133324000Y-111615677D01*
X123446000Y-110534677D02*
X127029000Y-110534677D01*
X124313000Y-108934677D02*
X127029000Y-108934677D01*
X124750000Y-108454677D02*
X127029000Y-108454677D01*
X129511000Y-108454677D02*
X131790000Y-108454677D01*
X123259000Y-111294677D02*
X133281000Y-111294677D01*
X123875000Y-109574677D02*
X127029000Y-109574677D01*
X129511000Y-109614677D02*
X132687000Y-109614677D01*
X129511000Y-110454677D02*
X133067000Y-110454677D01*
X129511000Y-110174677D02*
X132960000Y-110174677D01*
X125905000Y-107614677D02*
X130635000Y-107614677D01*
X123323000Y-110974677D02*
X133217000Y-110974677D01*
X129511000Y-109094677D02*
X132350000Y-109094677D01*
X123580000Y-110174677D02*
X127029000Y-110174677D01*
X125381000Y-107934677D02*
X131159000Y-107934677D01*
X123899000Y-109534677D02*
X127029000Y-109534677D01*
X129511000Y-109254677D02*
X132464000Y-109254677D01*
X129511000Y-108894677D02*
X132195000Y-108894677D01*
X123706000Y-109894677D02*
X127029000Y-109894677D01*
X124345000Y-108894677D02*
X127029000Y-108894677D01*
X124792000Y-108414677D02*
X127029000Y-108414677D01*
X129511000Y-109854677D02*
X132815000Y-109854677D01*
X129511000Y-109174677D02*
X132408000Y-109174677D01*
X127408000Y-107094677D02*
X129132000Y-107094677D01*
X129511000Y-109894677D02*
X132834000Y-109894677D01*
X129511000Y-108734677D02*
X132059000Y-108734677D01*
X124923000Y-108294677D02*
X131617000Y-108294677D01*
X133390000Y-112135677D02*
G75*
G03*
X133390000Y-112135677I-5120000J0D01*
G01*
X140689000Y-92448748D02*
X140689000Y-92971252D01*
X139219000Y-92448748D02*
X139219000Y-92971252D01*
X161300000Y-81600000D02*
X164300000Y-81600000D01*
X164300000Y-94200000D02*
X161300000Y-94200000D01*
X173900000Y-94200000D02*
X170900000Y-94200000D01*
X161300000Y-94200000D02*
X161300000Y-81600000D01*
X170900000Y-81600000D02*
X173900000Y-81600000D01*
X173900000Y-81600000D02*
X173900000Y-94200000D01*
X153414000Y-87776267D02*
X153414000Y-87483733D01*
X154434000Y-87776267D02*
X154434000Y-87483733D01*
X138400000Y-88432379D02*
X138400000Y-88767621D01*
X139160000Y-88432379D02*
X139160000Y-88767621D01*
X128550000Y-122062929D02*
X128550000Y-122460000D01*
X129440000Y-122460000D02*
X129440000Y-125120000D01*
X132040000Y-122460000D02*
X126840000Y-122460000D01*
X131980000Y-119750000D02*
X131980000Y-121020000D01*
X126840000Y-122460000D02*
X126840000Y-125120000D01*
X131090000Y-122130000D02*
X131090000Y-122460000D01*
X130330000Y-122130000D02*
X130330000Y-122460000D01*
X126840000Y-125120000D02*
X132040000Y-125120000D01*
X132040000Y-125120000D02*
X132040000Y-122460000D01*
X127790000Y-122062929D02*
X127790000Y-122460000D01*
X130710000Y-119750000D02*
X131980000Y-119750000D01*
X156000000Y-106900000D02*
X159000000Y-106900000D01*
X156000000Y-96700000D02*
X156000000Y-106900000D01*
X159000000Y-106900000D02*
X159000000Y-96700000D01*
X160168000Y-89204748D02*
X160168000Y-90627252D01*
X158348000Y-89204748D02*
X158348000Y-90627252D01*
X148355000Y-81748748D02*
X148355000Y-82271252D01*
X146885000Y-81748748D02*
X146885000Y-82271252D01*
X153414000Y-93579733D02*
X153414000Y-93872267D01*
X154434000Y-93579733D02*
X154434000Y-93872267D01*
X123640000Y-88130000D02*
X126180000Y-88130000D01*
X107750000Y-93250000D02*
X107750000Y-83010000D01*
X107750000Y-83010000D02*
X123640000Y-83010000D01*
X107750000Y-93250000D02*
X123640000Y-93250000D01*
X123640000Y-85590000D02*
X126180000Y-85590000D01*
X123640000Y-90670000D02*
X126180000Y-90670000D01*
X123640000Y-93250000D02*
X123640000Y-83010000D01*
X156702000Y-84800000D02*
X156702000Y-80900000D01*
X154702000Y-84800000D02*
X154702000Y-80900000D01*
X154702000Y-84800000D02*
X156702000Y-84800000D01*
%LPC*%
D13*
X144600000Y-81017500D03*
X144600000Y-84142500D03*
D14*
X151010000Y-84200000D03*
X151010000Y-80900000D03*
D15*
X118492651Y-112268000D03*
D16*
X114992651Y-112268000D03*
D17*
X137700000Y-91105000D03*
X137700000Y-92300000D03*
D18*
X133680000Y-103740000D03*
X133680000Y-95940000D03*
D19*
X201422000Y-78486000D03*
D20*
X138080000Y-108300000D03*
D21*
X153320000Y-108300000D03*
D22*
X143460550Y-87116180D03*
X143460550Y-87766420D03*
X143460550Y-88416660D03*
X143460550Y-89066900D03*
X143460550Y-89717140D03*
X143460550Y-90367380D03*
X143460550Y-91017620D03*
X143460550Y-91667860D03*
X143460550Y-92318100D03*
X143460550Y-92968340D03*
X143460550Y-93618580D03*
X143460550Y-94268820D03*
X150724950Y-94268820D03*
X150724950Y-93618580D03*
X150724950Y-92968340D03*
X150724950Y-92318100D03*
X150724950Y-91667860D03*
X150724950Y-91017620D03*
X150724950Y-90367380D03*
X150724950Y-89717140D03*
X150724950Y-89066900D03*
X150724950Y-88416660D03*
X150724950Y-87766420D03*
X150724950Y-87116180D03*
D23*
X186754000Y-106680000D03*
D24*
X170094000Y-104140000D03*
D25*
X170094000Y-106680000D03*
X170094000Y-109220000D03*
D20*
X150920000Y-114100000D03*
D21*
X135680000Y-114100000D03*
D23*
X110790000Y-99980000D03*
D24*
X127450000Y-102520000D03*
D25*
X127450000Y-99980000D03*
X127450000Y-97440000D03*
D23*
X193220000Y-90890000D03*
D24*
X176560000Y-88350000D03*
D25*
X176560000Y-90890000D03*
X176560000Y-93430000D03*
D19*
X111760000Y-120396000D03*
D26*
X174110000Y-120825000D03*
D27*
X171570000Y-120825000D03*
X169030000Y-120825000D03*
D28*
X140970000Y-87730500D03*
X140970000Y-86005500D03*
D29*
X143355500Y-99445500D03*
X145155500Y-101345500D03*
X146955500Y-99445500D03*
D30*
X128270000Y-114635677D03*
D31*
X128270000Y-109635677D03*
D32*
X139954000Y-91672500D03*
X139954000Y-93747500D03*
D19*
X201168000Y-121158000D03*
D33*
X167600000Y-82950000D03*
X167600000Y-92850000D03*
D28*
X153924000Y-88492500D03*
X153924000Y-86767500D03*
D17*
X138780000Y-88002500D03*
X138780000Y-89197500D03*
D26*
X130710000Y-121020000D03*
D27*
X128170000Y-121020000D03*
D18*
X157500000Y-104500000D03*
X157500000Y-96700000D03*
D13*
X159258000Y-88353500D03*
X159258000Y-91478500D03*
D32*
X147620000Y-80972500D03*
X147620000Y-83047500D03*
D34*
X153924000Y-92863500D03*
X153924000Y-94588500D03*
D23*
X110670000Y-88130000D03*
D24*
X127330000Y-90670000D03*
D25*
X127330000Y-88130000D03*
X127330000Y-85590000D03*
D19*
X110998000Y-78232000D03*
D14*
X155702000Y-84200000D03*
X155702000Y-80900000D03*
M02*
