G04 #@! TF.GenerationSoftware,KiCad,Pcbnew,(6.0.1)*
G04 #@! TF.CreationDate,2022-04-24T16:28:33-07:00*
G04 #@! TF.ProjectId,StereoPS,53746572-656f-4505-932e-6b696361645f,rev?*
G04 #@! TF.SameCoordinates,Original*
G04 #@! TF.FileFunction,Legend,Bot*
G04 #@! TF.FilePolarity,Positive*
%FSLAX46Y46*%
G04 Gerber Fmt 4.6, Leading zero omitted, Abs format (unit mm)*
G04 Created by KiCad (PCBNEW (6.0.1)) date 2022-04-24 16:28:33*
%MOMM*%
%LPD*%
G01*
G04 APERTURE LIST*
%ADD10R,1.600000X1.600000*%
%ADD11C,1.600000*%
%ADD12R,2.700000X4.500000*%
%ADD13C,2.500000*%
%ADD14C,2.400000*%
%ADD15O,2.400000X2.400000*%
%ADD16O,3.500000X3.500000*%
%ADD17R,2.000000X1.905000*%
%ADD18O,2.000000X1.905000*%
%ADD19R,1.700000X1.700000*%
%ADD20O,1.700000X1.700000*%
%ADD21C,1.498600*%
%ADD22R,2.000000X2.000000*%
%ADD23C,2.000000*%
G04 APERTURE END LIST*
%LPC*%
D10*
X118492651Y-112268000D03*
D11*
X114992651Y-112268000D03*
D12*
X133680000Y-103740000D03*
X133680000Y-95940000D03*
D13*
X201422000Y-78486000D03*
D14*
X138080000Y-108300000D03*
D15*
X153320000Y-108300000D03*
D16*
X186754000Y-106680000D03*
D17*
X170094000Y-104140000D03*
D18*
X170094000Y-106680000D03*
X170094000Y-109220000D03*
D14*
X150920000Y-114100000D03*
D15*
X135680000Y-114100000D03*
D16*
X110790000Y-99980000D03*
D17*
X127450000Y-102520000D03*
D18*
X127450000Y-99980000D03*
X127450000Y-97440000D03*
D16*
X193220000Y-90890000D03*
D17*
X176560000Y-88350000D03*
D18*
X176560000Y-90890000D03*
X176560000Y-93430000D03*
D13*
X111760000Y-120396000D03*
D19*
X174110000Y-120825000D03*
D20*
X171570000Y-120825000D03*
X169030000Y-120825000D03*
D21*
X143355500Y-99445500D03*
X145155500Y-101345500D03*
X146955500Y-99445500D03*
D22*
X128270000Y-114635677D03*
D23*
X128270000Y-109635677D03*
D13*
X201168000Y-121158000D03*
D19*
X130710000Y-121020000D03*
D20*
X128170000Y-121020000D03*
D12*
X157500000Y-104500000D03*
X157500000Y-96700000D03*
D16*
X110670000Y-88130000D03*
D17*
X127330000Y-90670000D03*
D18*
X127330000Y-88130000D03*
X127330000Y-85590000D03*
D13*
X110998000Y-78232000D03*
M02*
