G04 #@! TF.GenerationSoftware,KiCad,Pcbnew,(6.0.1)*
G04 #@! TF.CreationDate,2022-04-24T16:28:33-07:00*
G04 #@! TF.ProjectId,StereoPS,53746572-656f-4505-932e-6b696361645f,rev?*
G04 #@! TF.SameCoordinates,Original*
G04 #@! TF.FileFunction,Paste,Top*
G04 #@! TF.FilePolarity,Positive*
%FSLAX46Y46*%
G04 Gerber Fmt 4.6, Leading zero omitted, Abs format (unit mm)*
G04 Created by KiCad (PCBNEW (6.0.1)) date 2022-04-24 16:28:33*
%MOMM*%
%LPD*%
G01*
G04 APERTURE LIST*
G04 Aperture macros list*
%AMRoundRect*
0 Rectangle with rounded corners*
0 $1 Rounding radius*
0 $2 $3 $4 $5 $6 $7 $8 $9 X,Y pos of 4 corners*
0 Add a 4 corners polygon primitive as box body*
4,1,4,$2,$3,$4,$5,$6,$7,$8,$9,$2,$3,0*
0 Add four circle primitives for the rounded corners*
1,1,$1+$1,$2,$3*
1,1,$1+$1,$4,$5*
1,1,$1+$1,$6,$7*
1,1,$1+$1,$8,$9*
0 Add four rect primitives between the rounded corners*
20,1,$1+$1,$2,$3,$4,$5,0*
20,1,$1+$1,$4,$5,$6,$7,0*
20,1,$1+$1,$6,$7,$8,$9,0*
20,1,$1+$1,$8,$9,$2,$3,0*%
G04 Aperture macros list end*
%ADD10RoundRect,0.250000X-0.650000X0.412500X-0.650000X-0.412500X0.650000X-0.412500X0.650000X0.412500X0*%
%ADD11R,1.200000X0.900000*%
%ADD12RoundRect,0.160000X-0.160000X0.197500X-0.160000X-0.197500X0.160000X-0.197500X0.160000X0.197500X0*%
%ADD13R,1.639799X0.431000*%
%ADD14RoundRect,0.237500X0.237500X-0.300000X0.237500X0.300000X-0.237500X0.300000X-0.237500X-0.300000X0*%
%ADD15RoundRect,0.250000X-0.475000X0.337500X-0.475000X-0.337500X0.475000X-0.337500X0.475000X0.337500X0*%
%ADD16R,5.400000X2.900000*%
%ADD17RoundRect,0.237500X-0.237500X0.300000X-0.237500X-0.300000X0.237500X-0.300000X0.237500X0.300000X0*%
G04 APERTURE END LIST*
D10*
X144600000Y-81017500D03*
X144600000Y-84142500D03*
D11*
X151010000Y-84200000D03*
X151010000Y-80900000D03*
D12*
X137700000Y-91105000D03*
X137700000Y-92300000D03*
D13*
X143460550Y-87116180D03*
X143460550Y-87766420D03*
X143460550Y-88416660D03*
X143460550Y-89066900D03*
X143460550Y-89717140D03*
X143460550Y-90367380D03*
X143460550Y-91017620D03*
X143460550Y-91667860D03*
X143460550Y-92318100D03*
X143460550Y-92968340D03*
X143460550Y-93618580D03*
X143460550Y-94268820D03*
X150724950Y-94268820D03*
X150724950Y-93618580D03*
X150724950Y-92968340D03*
X150724950Y-92318100D03*
X150724950Y-91667860D03*
X150724950Y-91017620D03*
X150724950Y-90367380D03*
X150724950Y-89717140D03*
X150724950Y-89066900D03*
X150724950Y-88416660D03*
X150724950Y-87766420D03*
X150724950Y-87116180D03*
D14*
X140970000Y-87730500D03*
X140970000Y-86005500D03*
D15*
X139954000Y-91672500D03*
X139954000Y-93747500D03*
D16*
X167600000Y-82950000D03*
X167600000Y-92850000D03*
D14*
X153924000Y-88492500D03*
X153924000Y-86767500D03*
D12*
X138780000Y-88002500D03*
X138780000Y-89197500D03*
D10*
X159258000Y-88353500D03*
X159258000Y-91478500D03*
D15*
X147620000Y-80972500D03*
X147620000Y-83047500D03*
D17*
X153924000Y-92863500D03*
X153924000Y-94588500D03*
D11*
X155702000Y-84200000D03*
X155702000Y-80900000D03*
M02*
