G04 #@! TF.GenerationSoftware,KiCad,Pcbnew,(6.0.1)*
G04 #@! TF.CreationDate,2022-04-24T16:28:33-07:00*
G04 #@! TF.ProjectId,StereoPS,53746572-656f-4505-932e-6b696361645f,rev?*
G04 #@! TF.SameCoordinates,Original*
G04 #@! TF.FileFunction,Copper,L2,Bot*
G04 #@! TF.FilePolarity,Positive*
%FSLAX46Y46*%
G04 Gerber Fmt 4.6, Leading zero omitted, Abs format (unit mm)*
G04 Created by KiCad (PCBNEW (6.0.1)) date 2022-04-24 16:28:33*
%MOMM*%
%LPD*%
G01*
G04 APERTURE LIST*
G04 #@! TA.AperFunction,ComponentPad*
%ADD10R,1.600000X1.600000*%
G04 #@! TD*
G04 #@! TA.AperFunction,ComponentPad*
%ADD11C,1.600000*%
G04 #@! TD*
G04 #@! TA.AperFunction,ComponentPad*
%ADD12R,2.700000X4.500000*%
G04 #@! TD*
G04 #@! TA.AperFunction,ComponentPad*
%ADD13C,2.400000*%
G04 #@! TD*
G04 #@! TA.AperFunction,ComponentPad*
%ADD14O,2.400000X2.400000*%
G04 #@! TD*
G04 #@! TA.AperFunction,ComponentPad*
%ADD15R,2.000000X1.905000*%
G04 #@! TD*
G04 #@! TA.AperFunction,ComponentPad*
%ADD16O,2.000000X1.905000*%
G04 #@! TD*
G04 #@! TA.AperFunction,ComponentPad*
%ADD17R,1.700000X1.700000*%
G04 #@! TD*
G04 #@! TA.AperFunction,ComponentPad*
%ADD18O,1.700000X1.700000*%
G04 #@! TD*
G04 #@! TA.AperFunction,ComponentPad*
%ADD19C,1.498600*%
G04 #@! TD*
G04 #@! TA.AperFunction,ComponentPad*
%ADD20R,2.000000X2.000000*%
G04 #@! TD*
G04 #@! TA.AperFunction,ComponentPad*
%ADD21C,2.000000*%
G04 #@! TD*
G04 #@! TA.AperFunction,ViaPad*
%ADD22C,0.800000*%
G04 #@! TD*
G04 #@! TA.AperFunction,Conductor*
%ADD23C,0.250000*%
G04 #@! TD*
G04 #@! TA.AperFunction,Conductor*
%ADD24C,1.000000*%
G04 #@! TD*
G04 #@! TA.AperFunction,Conductor*
%ADD25C,0.500000*%
G04 #@! TD*
G04 APERTURE END LIST*
D10*
X118492651Y-112268000D03*
D11*
X114992651Y-112268000D03*
D12*
X133680000Y-103740000D03*
X133680000Y-95940000D03*
D13*
X138080000Y-108300000D03*
D14*
X153320000Y-108300000D03*
D15*
X170094000Y-104140000D03*
D16*
X170094000Y-106680000D03*
X170094000Y-109220000D03*
D13*
X150920000Y-114100000D03*
D14*
X135680000Y-114100000D03*
D15*
X127450000Y-102520000D03*
D16*
X127450000Y-99980000D03*
X127450000Y-97440000D03*
D15*
X176560000Y-88350000D03*
D16*
X176560000Y-90890000D03*
X176560000Y-93430000D03*
D17*
X174110000Y-120825000D03*
D18*
X171570000Y-120825000D03*
X169030000Y-120825000D03*
D19*
X143355500Y-99445500D03*
X145155500Y-101345500D03*
X146955500Y-99445500D03*
D20*
X128270000Y-114635677D03*
D21*
X128270000Y-109635677D03*
D17*
X130710000Y-121020000D03*
D18*
X128170000Y-121020000D03*
D12*
X157500000Y-104500000D03*
X157500000Y-96700000D03*
D15*
X127330000Y-90670000D03*
D16*
X127330000Y-88130000D03*
X127330000Y-85590000D03*
D22*
X136100000Y-92300000D03*
X145800000Y-92600000D03*
X148800000Y-95600000D03*
X145800000Y-90800000D03*
X156200000Y-87300000D03*
X148300000Y-90800000D03*
X146700000Y-95600000D03*
X148300000Y-87800000D03*
X153416000Y-84328000D03*
X153924000Y-96012000D03*
X155702000Y-90932000D03*
X157600000Y-80900000D03*
D23*
X136100000Y-92300000D02*
X136400000Y-92600000D01*
X136400000Y-92600000D02*
X145800000Y-92600000D01*
X138900000Y-96600000D02*
X133680000Y-101820000D01*
X133680000Y-101820000D02*
X133680000Y-104840000D01*
X148800000Y-95600000D02*
X147800000Y-96600000D01*
X147800000Y-96600000D02*
X138900000Y-96600000D01*
X171500000Y-101200000D02*
X165400000Y-101200000D01*
X154400000Y-92500000D02*
X157500000Y-95600000D01*
X156200000Y-87300000D02*
X154400000Y-89100000D01*
X159800000Y-95600000D02*
X165400000Y-101200000D01*
D24*
X145670000Y-90670000D02*
X145800000Y-90800000D01*
D23*
X171480000Y-109220000D02*
X172400000Y-108300000D01*
X157500000Y-95600000D02*
X159800000Y-95600000D01*
X170094000Y-109220000D02*
X171480000Y-109220000D01*
X172400000Y-108300000D02*
X172400000Y-102100000D01*
D24*
X127330000Y-90670000D02*
X145670000Y-90670000D01*
D23*
X172400000Y-102100000D02*
X171500000Y-101200000D01*
X154400000Y-89100000D02*
X154400000Y-92500000D01*
D24*
X145630000Y-88130000D02*
X127330000Y-88130000D01*
X148300000Y-90800000D02*
X145630000Y-88130000D01*
D25*
X138269022Y-95600000D02*
X133889022Y-99980000D01*
X146700000Y-95600000D02*
X138269022Y-95600000D01*
X133889022Y-99980000D02*
X127450000Y-99980000D01*
D24*
X165280000Y-106680000D02*
X159300000Y-100700000D01*
X155200000Y-100700000D02*
X152000000Y-97500000D01*
X159300000Y-100700000D02*
X155200000Y-100700000D01*
X170094000Y-106680000D02*
X165280000Y-106680000D01*
X152000000Y-91500000D02*
X148300000Y-87800000D01*
X152000000Y-97500000D02*
X152000000Y-91500000D01*
D23*
X153416000Y-95504000D02*
X153924000Y-96012000D01*
X153416000Y-84328000D02*
X153416000Y-95504000D01*
X157600000Y-89034000D02*
X155702000Y-90932000D01*
X157600000Y-80900000D02*
X157600000Y-89034000D01*
G04 #@! TA.AperFunction,Conductor*
G36*
X203912121Y-74696002D02*
G01*
X203958614Y-74749658D01*
X203970000Y-74802000D01*
X203970000Y-124842000D01*
X203949998Y-124910121D01*
X203896342Y-124956614D01*
X203844000Y-124968000D01*
X106634000Y-124968000D01*
X106565879Y-124947998D01*
X106519386Y-124894342D01*
X106508000Y-124842000D01*
X106508000Y-120503655D01*
X109999858Y-120503655D01*
X110035104Y-120762638D01*
X110036412Y-120767124D01*
X110036412Y-120767126D01*
X110053281Y-120825000D01*
X110108243Y-121013567D01*
X110217668Y-121250928D01*
X110230362Y-121270289D01*
X110358410Y-121465596D01*
X110358414Y-121465601D01*
X110360976Y-121469509D01*
X110535018Y-121664506D01*
X110735970Y-121831637D01*
X110739973Y-121834066D01*
X110955422Y-121964804D01*
X110955426Y-121964806D01*
X110959419Y-121967229D01*
X111200455Y-122068303D01*
X111453783Y-122132641D01*
X111458434Y-122133109D01*
X111458438Y-122133110D01*
X111651308Y-122152531D01*
X111670867Y-122154500D01*
X111826354Y-122154500D01*
X111828679Y-122154327D01*
X111828685Y-122154327D01*
X112016000Y-122140407D01*
X112016004Y-122140406D01*
X112020652Y-122140061D01*
X112025200Y-122139032D01*
X112025206Y-122139031D01*
X112211601Y-122096853D01*
X112275577Y-122082377D01*
X112311769Y-122068303D01*
X112514824Y-121989340D01*
X112514827Y-121989339D01*
X112519177Y-121987647D01*
X112554886Y-121967238D01*
X112634856Y-121921531D01*
X112746098Y-121857951D01*
X112951357Y-121696138D01*
X113130443Y-121505763D01*
X113254587Y-121326811D01*
X113276759Y-121294851D01*
X113276761Y-121294848D01*
X113279424Y-121291009D01*
X113310696Y-121227596D01*
X113392960Y-121060781D01*
X113392961Y-121060778D01*
X113395025Y-121056593D01*
X113410085Y-121009547D01*
X113417400Y-120986695D01*
X126807251Y-120986695D01*
X126807548Y-120991848D01*
X126807548Y-120991851D01*
X126819812Y-121204547D01*
X126820110Y-121209715D01*
X126821247Y-121214761D01*
X126821248Y-121214767D01*
X126842039Y-121307020D01*
X126869222Y-121427639D01*
X126953266Y-121634616D01*
X126955965Y-121639020D01*
X127039641Y-121775567D01*
X127069987Y-121825088D01*
X127216250Y-121993938D01*
X127324017Y-122083408D01*
X127382770Y-122132185D01*
X127388126Y-122136632D01*
X127581000Y-122249338D01*
X127789692Y-122329030D01*
X127794760Y-122330061D01*
X127794763Y-122330062D01*
X127902017Y-122351883D01*
X128008597Y-122373567D01*
X128013772Y-122373757D01*
X128013774Y-122373757D01*
X128226673Y-122381564D01*
X128226677Y-122381564D01*
X128231837Y-122381753D01*
X128236957Y-122381097D01*
X128236959Y-122381097D01*
X128448288Y-122354025D01*
X128448289Y-122354025D01*
X128453416Y-122353368D01*
X128458366Y-122351883D01*
X128662429Y-122290661D01*
X128662434Y-122290659D01*
X128667384Y-122289174D01*
X128867994Y-122190896D01*
X129049860Y-122061173D01*
X129158091Y-121953319D01*
X129220462Y-121919404D01*
X129291268Y-121924592D01*
X129348030Y-121967238D01*
X129365012Y-121998341D01*
X129400084Y-122091895D01*
X129409385Y-122116705D01*
X129496739Y-122233261D01*
X129613295Y-122320615D01*
X129749684Y-122371745D01*
X129811866Y-122378500D01*
X131608134Y-122378500D01*
X131670316Y-122371745D01*
X131806705Y-122320615D01*
X131923261Y-122233261D01*
X132010615Y-122116705D01*
X132061745Y-121980316D01*
X132068500Y-121918134D01*
X132068500Y-120791695D01*
X167667251Y-120791695D01*
X167680110Y-121014715D01*
X167681247Y-121019761D01*
X167681248Y-121019767D01*
X167695606Y-121083475D01*
X167729222Y-121232639D01*
X167761723Y-121312680D01*
X167808403Y-121427639D01*
X167813266Y-121439616D01*
X167851443Y-121501916D01*
X167927291Y-121625688D01*
X167929987Y-121630088D01*
X168076250Y-121798938D01*
X168248126Y-121941632D01*
X168441000Y-122054338D01*
X168445825Y-122056180D01*
X168445826Y-122056181D01*
X168509993Y-122080684D01*
X168649692Y-122134030D01*
X168654760Y-122135061D01*
X168654763Y-122135062D01*
X168762017Y-122156883D01*
X168868597Y-122178567D01*
X168873772Y-122178757D01*
X168873774Y-122178757D01*
X169086673Y-122186564D01*
X169086677Y-122186564D01*
X169091837Y-122186753D01*
X169096957Y-122186097D01*
X169096959Y-122186097D01*
X169308288Y-122159025D01*
X169308289Y-122159025D01*
X169313416Y-122158368D01*
X169326309Y-122154500D01*
X169522429Y-122095661D01*
X169522434Y-122095659D01*
X169527384Y-122094174D01*
X169727994Y-121995896D01*
X169909860Y-121866173D01*
X169942080Y-121834066D01*
X170050036Y-121726486D01*
X170068096Y-121708489D01*
X170127594Y-121625689D01*
X170198453Y-121527077D01*
X170199776Y-121528028D01*
X170246645Y-121484857D01*
X170316580Y-121472625D01*
X170382026Y-121500144D01*
X170409875Y-121531994D01*
X170469987Y-121630088D01*
X170616250Y-121798938D01*
X170788126Y-121941632D01*
X170981000Y-122054338D01*
X170985825Y-122056180D01*
X170985826Y-122056181D01*
X171049993Y-122080684D01*
X171189692Y-122134030D01*
X171194760Y-122135061D01*
X171194763Y-122135062D01*
X171302017Y-122156883D01*
X171408597Y-122178567D01*
X171413772Y-122178757D01*
X171413774Y-122178757D01*
X171626673Y-122186564D01*
X171626677Y-122186564D01*
X171631837Y-122186753D01*
X171636957Y-122186097D01*
X171636959Y-122186097D01*
X171848288Y-122159025D01*
X171848289Y-122159025D01*
X171853416Y-122158368D01*
X171866309Y-122154500D01*
X172062429Y-122095661D01*
X172062434Y-122095659D01*
X172067384Y-122094174D01*
X172267994Y-121995896D01*
X172449860Y-121866173D01*
X172482080Y-121834066D01*
X172558479Y-121757933D01*
X172620851Y-121724017D01*
X172691658Y-121729205D01*
X172748419Y-121771851D01*
X172765401Y-121802954D01*
X172806676Y-121913054D01*
X172815214Y-121928649D01*
X172891715Y-122030724D01*
X172904276Y-122043285D01*
X173006351Y-122119786D01*
X173021946Y-122128324D01*
X173142394Y-122173478D01*
X173157649Y-122177105D01*
X173208514Y-122182631D01*
X173215328Y-122183000D01*
X173837885Y-122183000D01*
X173853124Y-122178525D01*
X173854329Y-122177135D01*
X173856000Y-122169452D01*
X173856000Y-122164884D01*
X174364000Y-122164884D01*
X174368475Y-122180123D01*
X174369865Y-122181328D01*
X174377548Y-122182999D01*
X175004669Y-122182999D01*
X175011490Y-122182629D01*
X175062352Y-122177105D01*
X175077604Y-122173479D01*
X175198054Y-122128324D01*
X175213649Y-122119786D01*
X175315724Y-122043285D01*
X175328285Y-122030724D01*
X175404786Y-121928649D01*
X175413324Y-121913054D01*
X175458478Y-121792606D01*
X175462105Y-121777351D01*
X175467631Y-121726486D01*
X175468000Y-121719672D01*
X175468000Y-121265655D01*
X199407858Y-121265655D01*
X199443104Y-121524638D01*
X199444412Y-121529124D01*
X199444412Y-121529126D01*
X199464098Y-121596664D01*
X199516243Y-121775567D01*
X199518203Y-121779820D01*
X199518204Y-121779821D01*
X199540712Y-121828645D01*
X199625668Y-122012928D01*
X199628231Y-122016837D01*
X199766410Y-122227596D01*
X199766414Y-122227601D01*
X199768976Y-122231509D01*
X199943018Y-122426506D01*
X200143970Y-122593637D01*
X200147973Y-122596066D01*
X200363422Y-122726804D01*
X200363426Y-122726806D01*
X200367419Y-122729229D01*
X200608455Y-122830303D01*
X200861783Y-122894641D01*
X200866434Y-122895109D01*
X200866438Y-122895110D01*
X201059308Y-122914531D01*
X201078867Y-122916500D01*
X201234354Y-122916500D01*
X201236679Y-122916327D01*
X201236685Y-122916327D01*
X201424000Y-122902407D01*
X201424004Y-122902406D01*
X201428652Y-122902061D01*
X201433200Y-122901032D01*
X201433206Y-122901031D01*
X201619601Y-122858853D01*
X201683577Y-122844377D01*
X201719769Y-122830303D01*
X201922824Y-122751340D01*
X201922827Y-122751339D01*
X201927177Y-122749647D01*
X202154098Y-122619951D01*
X202359357Y-122458138D01*
X202538443Y-122267763D01*
X202660448Y-122091895D01*
X202684759Y-122056851D01*
X202684761Y-122056848D01*
X202687424Y-122053009D01*
X202689492Y-122048816D01*
X202800960Y-121822781D01*
X202800961Y-121822778D01*
X202803025Y-121818593D01*
X202811344Y-121792606D01*
X202881280Y-121574123D01*
X202882707Y-121569665D01*
X202924721Y-121311693D01*
X202927690Y-121084865D01*
X202928081Y-121055022D01*
X202928081Y-121055019D01*
X202928142Y-121050345D01*
X202892896Y-120791362D01*
X202878473Y-120741877D01*
X202828666Y-120571000D01*
X202819757Y-120540433D01*
X202710332Y-120303072D01*
X202615482Y-120158401D01*
X202569590Y-120088404D01*
X202569586Y-120088399D01*
X202567024Y-120084491D01*
X202392982Y-119889494D01*
X202192030Y-119722363D01*
X202001448Y-119606715D01*
X201972578Y-119589196D01*
X201972574Y-119589194D01*
X201968581Y-119586771D01*
X201727545Y-119485697D01*
X201474217Y-119421359D01*
X201469566Y-119420891D01*
X201469562Y-119420890D01*
X201260271Y-119399816D01*
X201257133Y-119399500D01*
X201101646Y-119399500D01*
X201099321Y-119399673D01*
X201099315Y-119399673D01*
X200912000Y-119413593D01*
X200911996Y-119413594D01*
X200907348Y-119413939D01*
X200902800Y-119414968D01*
X200902794Y-119414969D01*
X200716399Y-119457147D01*
X200652423Y-119471623D01*
X200648071Y-119473315D01*
X200648069Y-119473316D01*
X200413176Y-119564660D01*
X200413173Y-119564661D01*
X200408823Y-119566353D01*
X200404769Y-119568670D01*
X200404767Y-119568671D01*
X200382080Y-119581638D01*
X200181902Y-119696049D01*
X199976643Y-119857862D01*
X199797557Y-120048237D01*
X199707681Y-120177792D01*
X199666127Y-120237692D01*
X199648576Y-120262991D01*
X199646510Y-120267181D01*
X199646508Y-120267184D01*
X199588062Y-120385702D01*
X199532975Y-120497407D01*
X199531553Y-120501850D01*
X199531552Y-120501852D01*
X199509418Y-120571000D01*
X199453293Y-120746335D01*
X199411279Y-121004307D01*
X199411158Y-121013567D01*
X199408000Y-121254837D01*
X199407858Y-121265655D01*
X175468000Y-121265655D01*
X175468000Y-121097115D01*
X175463525Y-121081876D01*
X175462135Y-121080671D01*
X175454452Y-121079000D01*
X174382115Y-121079000D01*
X174366876Y-121083475D01*
X174365671Y-121084865D01*
X174364000Y-121092548D01*
X174364000Y-122164884D01*
X173856000Y-122164884D01*
X173856000Y-120552885D01*
X174364000Y-120552885D01*
X174368475Y-120568124D01*
X174369865Y-120569329D01*
X174377548Y-120571000D01*
X175449884Y-120571000D01*
X175465123Y-120566525D01*
X175466328Y-120565135D01*
X175467999Y-120557452D01*
X175467999Y-119930331D01*
X175467629Y-119923510D01*
X175462105Y-119872648D01*
X175458479Y-119857396D01*
X175413324Y-119736946D01*
X175404786Y-119721351D01*
X175328285Y-119619276D01*
X175315724Y-119606715D01*
X175213649Y-119530214D01*
X175198054Y-119521676D01*
X175077606Y-119476522D01*
X175062351Y-119472895D01*
X175011486Y-119467369D01*
X175004672Y-119467000D01*
X174382115Y-119467000D01*
X174366876Y-119471475D01*
X174365671Y-119472865D01*
X174364000Y-119480548D01*
X174364000Y-120552885D01*
X173856000Y-120552885D01*
X173856000Y-119485116D01*
X173851525Y-119469877D01*
X173850135Y-119468672D01*
X173842452Y-119467001D01*
X173215331Y-119467001D01*
X173208510Y-119467371D01*
X173157648Y-119472895D01*
X173142396Y-119476521D01*
X173021946Y-119521676D01*
X173006351Y-119530214D01*
X172904276Y-119606715D01*
X172891715Y-119619276D01*
X172815214Y-119721351D01*
X172806676Y-119736946D01*
X172765297Y-119847322D01*
X172722655Y-119904087D01*
X172656093Y-119928786D01*
X172586744Y-119913578D01*
X172554121Y-119887891D01*
X172503151Y-119831876D01*
X172503145Y-119831870D01*
X172499670Y-119828051D01*
X172495619Y-119824852D01*
X172495615Y-119824848D01*
X172328414Y-119692800D01*
X172328410Y-119692798D01*
X172324359Y-119689598D01*
X172128789Y-119581638D01*
X172123920Y-119579914D01*
X172123916Y-119579912D01*
X171923087Y-119508795D01*
X171923083Y-119508794D01*
X171918212Y-119507069D01*
X171913119Y-119506162D01*
X171913116Y-119506161D01*
X171703373Y-119468800D01*
X171703367Y-119468799D01*
X171698284Y-119467894D01*
X171624452Y-119466992D01*
X171480081Y-119465228D01*
X171480079Y-119465228D01*
X171474911Y-119465165D01*
X171254091Y-119498955D01*
X171041756Y-119568357D01*
X171011443Y-119584137D01*
X170851493Y-119667402D01*
X170843607Y-119671507D01*
X170839474Y-119674610D01*
X170839471Y-119674612D01*
X170670661Y-119801358D01*
X170664965Y-119805635D01*
X170625128Y-119847322D01*
X170544492Y-119931703D01*
X170510629Y-119967138D01*
X170403201Y-120124621D01*
X170348293Y-120169621D01*
X170277768Y-120177792D01*
X170214021Y-120146538D01*
X170193324Y-120122054D01*
X170112822Y-119997617D01*
X170112820Y-119997614D01*
X170110014Y-119993277D01*
X169959670Y-119828051D01*
X169955619Y-119824852D01*
X169955615Y-119824848D01*
X169788414Y-119692800D01*
X169788410Y-119692798D01*
X169784359Y-119689598D01*
X169588789Y-119581638D01*
X169583920Y-119579914D01*
X169583916Y-119579912D01*
X169383087Y-119508795D01*
X169383083Y-119508794D01*
X169378212Y-119507069D01*
X169373119Y-119506162D01*
X169373116Y-119506161D01*
X169163373Y-119468800D01*
X169163367Y-119468799D01*
X169158284Y-119467894D01*
X169084452Y-119466992D01*
X168940081Y-119465228D01*
X168940079Y-119465228D01*
X168934911Y-119465165D01*
X168714091Y-119498955D01*
X168501756Y-119568357D01*
X168471443Y-119584137D01*
X168311493Y-119667402D01*
X168303607Y-119671507D01*
X168299474Y-119674610D01*
X168299471Y-119674612D01*
X168130661Y-119801358D01*
X168124965Y-119805635D01*
X168085128Y-119847322D01*
X168004492Y-119931703D01*
X167970629Y-119967138D01*
X167844743Y-120151680D01*
X167804818Y-120237692D01*
X167754938Y-120345150D01*
X167750688Y-120354305D01*
X167690989Y-120569570D01*
X167667251Y-120791695D01*
X132068500Y-120791695D01*
X132068500Y-120121866D01*
X132061745Y-120059684D01*
X132010615Y-119923295D01*
X131923261Y-119806739D01*
X131806705Y-119719385D01*
X131670316Y-119668255D01*
X131608134Y-119661500D01*
X129811866Y-119661500D01*
X129749684Y-119668255D01*
X129613295Y-119719385D01*
X129496739Y-119806739D01*
X129409385Y-119923295D01*
X129406233Y-119931703D01*
X129364919Y-120041907D01*
X129322277Y-120098671D01*
X129255716Y-120123371D01*
X129186367Y-120108163D01*
X129153743Y-120082476D01*
X129103151Y-120026875D01*
X129103142Y-120026866D01*
X129099670Y-120023051D01*
X129095619Y-120019852D01*
X129095615Y-120019848D01*
X128928414Y-119887800D01*
X128928410Y-119887798D01*
X128924359Y-119884598D01*
X128728789Y-119776638D01*
X128723920Y-119774914D01*
X128723916Y-119774912D01*
X128523087Y-119703795D01*
X128523083Y-119703794D01*
X128518212Y-119702069D01*
X128513119Y-119701162D01*
X128513116Y-119701161D01*
X128303373Y-119663800D01*
X128303367Y-119663799D01*
X128298284Y-119662894D01*
X128224452Y-119661992D01*
X128080081Y-119660228D01*
X128080079Y-119660228D01*
X128074911Y-119660165D01*
X127854091Y-119693955D01*
X127641756Y-119763357D01*
X127612795Y-119778433D01*
X127453679Y-119861264D01*
X127443607Y-119866507D01*
X127439474Y-119869610D01*
X127439471Y-119869612D01*
X127269100Y-119997530D01*
X127264965Y-120000635D01*
X127237513Y-120029362D01*
X127171280Y-120098671D01*
X127110629Y-120162138D01*
X127107715Y-120166410D01*
X127107714Y-120166411D01*
X127055941Y-120242307D01*
X126984743Y-120346680D01*
X126890688Y-120549305D01*
X126830989Y-120764570D01*
X126807251Y-120986695D01*
X113417400Y-120986695D01*
X113473280Y-120812123D01*
X113474707Y-120807665D01*
X113516721Y-120549693D01*
X113519340Y-120349610D01*
X113520081Y-120293022D01*
X113520081Y-120293019D01*
X113520142Y-120288345D01*
X113484896Y-120029362D01*
X113470473Y-119979877D01*
X113448382Y-119904087D01*
X113411757Y-119778433D01*
X113302332Y-119541072D01*
X113254948Y-119468800D01*
X113161590Y-119326404D01*
X113161586Y-119326399D01*
X113159024Y-119322491D01*
X112984982Y-119127494D01*
X112784030Y-118960363D01*
X112736844Y-118931730D01*
X112564578Y-118827196D01*
X112564574Y-118827194D01*
X112560581Y-118824771D01*
X112319545Y-118723697D01*
X112066217Y-118659359D01*
X112061566Y-118658891D01*
X112061562Y-118658890D01*
X111852271Y-118637816D01*
X111849133Y-118637500D01*
X111693646Y-118637500D01*
X111691321Y-118637673D01*
X111691315Y-118637673D01*
X111504000Y-118651593D01*
X111503996Y-118651594D01*
X111499348Y-118651939D01*
X111494800Y-118652968D01*
X111494794Y-118652969D01*
X111308399Y-118695147D01*
X111244423Y-118709623D01*
X111240071Y-118711315D01*
X111240069Y-118711316D01*
X111005176Y-118802660D01*
X111005173Y-118802661D01*
X111000823Y-118804353D01*
X110773902Y-118934049D01*
X110568643Y-119095862D01*
X110389557Y-119286237D01*
X110300252Y-119414969D01*
X110257552Y-119476521D01*
X110240576Y-119500991D01*
X110238510Y-119505181D01*
X110238508Y-119505184D01*
X110131408Y-119722363D01*
X110124975Y-119735407D01*
X110123553Y-119739850D01*
X110123552Y-119739852D01*
X110051994Y-119963401D01*
X110045293Y-119984335D01*
X110003279Y-120242307D01*
X110002737Y-120283711D01*
X109999995Y-120493219D01*
X109999858Y-120503655D01*
X106508000Y-120503655D01*
X106508000Y-115683811D01*
X126761500Y-115683811D01*
X126768255Y-115745993D01*
X126819385Y-115882382D01*
X126906739Y-115998938D01*
X127023295Y-116086292D01*
X127159684Y-116137422D01*
X127221866Y-116144177D01*
X129318134Y-116144177D01*
X129380316Y-116137422D01*
X129516705Y-116086292D01*
X129633261Y-115998938D01*
X129720615Y-115882382D01*
X129771745Y-115745993D01*
X129778500Y-115683811D01*
X129778500Y-114055151D01*
X133967296Y-114055151D01*
X133967520Y-114059817D01*
X133967520Y-114059822D01*
X133970066Y-114112812D01*
X133979480Y-114308798D01*
X134029021Y-114557857D01*
X134030600Y-114562255D01*
X134030602Y-114562262D01*
X134075022Y-114685980D01*
X134114831Y-114796858D01*
X134117048Y-114800984D01*
X134232666Y-115016160D01*
X134235025Y-115020551D01*
X134237820Y-115024294D01*
X134237822Y-115024297D01*
X134384171Y-115220282D01*
X134384176Y-115220288D01*
X134386963Y-115224020D01*
X134390272Y-115227300D01*
X134390277Y-115227306D01*
X134488859Y-115325031D01*
X134567307Y-115402797D01*
X134571069Y-115405555D01*
X134571072Y-115405558D01*
X134646912Y-115461166D01*
X134772094Y-115552953D01*
X134776229Y-115555129D01*
X134776233Y-115555131D01*
X134893447Y-115616800D01*
X134996827Y-115671191D01*
X135042693Y-115687208D01*
X135230764Y-115752885D01*
X135236568Y-115754912D01*
X135486050Y-115802278D01*
X135606532Y-115807011D01*
X135735125Y-115812064D01*
X135735130Y-115812064D01*
X135739793Y-115812247D01*
X135830821Y-115802278D01*
X135987569Y-115785112D01*
X135987575Y-115785111D01*
X135992222Y-115784602D01*
X136101680Y-115755784D01*
X136233273Y-115721138D01*
X136237793Y-115719948D01*
X136357433Y-115668547D01*
X136466807Y-115621557D01*
X136466810Y-115621555D01*
X136471110Y-115619708D01*
X136475090Y-115617245D01*
X136475094Y-115617243D01*
X136683064Y-115488547D01*
X136683066Y-115488545D01*
X136687047Y-115486082D01*
X136702076Y-115473359D01*
X149911386Y-115473359D01*
X149920099Y-115484879D01*
X150008586Y-115549760D01*
X150016505Y-115554708D01*
X150232877Y-115668547D01*
X150241451Y-115672275D01*
X150472282Y-115752885D01*
X150481291Y-115755299D01*
X150721518Y-115800908D01*
X150730775Y-115801962D01*
X150975107Y-115811563D01*
X150984420Y-115811237D01*
X151227478Y-115784618D01*
X151236655Y-115782917D01*
X151473107Y-115720665D01*
X151481926Y-115717628D01*
X151706584Y-115621107D01*
X151714856Y-115616800D01*
X151922777Y-115488135D01*
X151924620Y-115486796D01*
X151932038Y-115475541D01*
X151925974Y-115465184D01*
X150932812Y-114472022D01*
X150918868Y-114464408D01*
X150917035Y-114464539D01*
X150910420Y-114468790D01*
X149918044Y-115461166D01*
X149911386Y-115473359D01*
X136702076Y-115473359D01*
X136785428Y-115402797D01*
X136877289Y-115325031D01*
X136877291Y-115325029D01*
X136880862Y-115322006D01*
X137048295Y-115131084D01*
X137062686Y-115108712D01*
X137183141Y-114921442D01*
X137185669Y-114917512D01*
X137289967Y-114685980D01*
X137291288Y-114681298D01*
X137324859Y-114562262D01*
X137358896Y-114441575D01*
X137390943Y-114189667D01*
X137391027Y-114186483D01*
X137392264Y-114139233D01*
X137393291Y-114100000D01*
X137390306Y-114059835D01*
X149208022Y-114059835D01*
X149219754Y-114304064D01*
X149220891Y-114313324D01*
X149268593Y-114553143D01*
X149271082Y-114562118D01*
X149353708Y-114792250D01*
X149357505Y-114800778D01*
X149473234Y-115016160D01*
X149478245Y-115024027D01*
X149535173Y-115100263D01*
X149546431Y-115108712D01*
X149558850Y-115101940D01*
X150547978Y-114112812D01*
X150554356Y-114101132D01*
X151284408Y-114101132D01*
X151284539Y-114102965D01*
X151288790Y-114109580D01*
X152283732Y-115104522D01*
X152296112Y-115111282D01*
X152304453Y-115105038D01*
X152422700Y-114921202D01*
X152427147Y-114913011D01*
X152527572Y-114690076D01*
X152530767Y-114681298D01*
X152597135Y-114445973D01*
X152598993Y-114436844D01*
X152630044Y-114192770D01*
X152630525Y-114186483D01*
X152632706Y-114103160D01*
X152632555Y-114096851D01*
X152614321Y-113851486D01*
X152612944Y-113842280D01*
X152558979Y-113603786D01*
X152556255Y-113594875D01*
X152467633Y-113366983D01*
X152463619Y-113358567D01*
X152342284Y-113146276D01*
X152337074Y-113138553D01*
X152305787Y-113098865D01*
X152293863Y-113090395D01*
X152282328Y-113096882D01*
X151292022Y-114087188D01*
X151284408Y-114101132D01*
X150554356Y-114101132D01*
X150555592Y-114098868D01*
X150555461Y-114097035D01*
X150551210Y-114090420D01*
X149556828Y-113096038D01*
X149543520Y-113088771D01*
X149533481Y-113095893D01*
X149528581Y-113101784D01*
X149523168Y-113109373D01*
X149396322Y-113318409D01*
X149392084Y-113326726D01*
X149297529Y-113552214D01*
X149294573Y-113561049D01*
X149234384Y-113798042D01*
X149232763Y-113807232D01*
X149208267Y-114050510D01*
X149208022Y-114059835D01*
X137390306Y-114059835D01*
X137389612Y-114050497D01*
X137374818Y-113851411D01*
X137374817Y-113851407D01*
X137374472Y-113846759D01*
X137363449Y-113798042D01*
X137319459Y-113603639D01*
X137318428Y-113599082D01*
X137312620Y-113584146D01*
X137228084Y-113366762D01*
X137228083Y-113366760D01*
X137226391Y-113362409D01*
X137222163Y-113355012D01*
X137102702Y-113145997D01*
X137102700Y-113145995D01*
X137100383Y-113141940D01*
X136943171Y-112942517D01*
X136758209Y-112768523D01*
X136709443Y-112734693D01*
X136695351Y-112724917D01*
X149909330Y-112724917D01*
X149913903Y-112734693D01*
X150907188Y-113727978D01*
X150921132Y-113735592D01*
X150922965Y-113735461D01*
X150929580Y-113731210D01*
X151922488Y-112738302D01*
X151928872Y-112726612D01*
X151919460Y-112714502D01*
X151793144Y-112626873D01*
X151785116Y-112622145D01*
X151565810Y-112513995D01*
X151557177Y-112510507D01*
X151324288Y-112435958D01*
X151315238Y-112433785D01*
X151073891Y-112394480D01*
X151064602Y-112393668D01*
X150820114Y-112390467D01*
X150810803Y-112391037D01*
X150568522Y-112424010D01*
X150559403Y-112425948D01*
X150324668Y-112494367D01*
X150315915Y-112497639D01*
X150093869Y-112600004D01*
X150085714Y-112604524D01*
X149918468Y-112714175D01*
X149909330Y-112724917D01*
X136695351Y-112724917D01*
X136553393Y-112626437D01*
X136553390Y-112626435D01*
X136549561Y-112623779D01*
X136545384Y-112621719D01*
X136545377Y-112621715D01*
X136325996Y-112513528D01*
X136325992Y-112513527D01*
X136321810Y-112511464D01*
X136079960Y-112434047D01*
X136075355Y-112433297D01*
X135833935Y-112393980D01*
X135833934Y-112393980D01*
X135829323Y-112393229D01*
X135702364Y-112391567D01*
X135580083Y-112389966D01*
X135580080Y-112389966D01*
X135575406Y-112389905D01*
X135323787Y-112424149D01*
X135319301Y-112425457D01*
X135319299Y-112425457D01*
X135292401Y-112433297D01*
X135079993Y-112495208D01*
X135075740Y-112497168D01*
X135075739Y-112497169D01*
X135066752Y-112501312D01*
X134849380Y-112601522D01*
X134845471Y-112604085D01*
X134640928Y-112738189D01*
X134640923Y-112738193D01*
X134637015Y-112740755D01*
X134447562Y-112909848D01*
X134285183Y-113105087D01*
X134153447Y-113322182D01*
X134151638Y-113326496D01*
X134151637Y-113326498D01*
X134064953Y-113533217D01*
X134055246Y-113556365D01*
X134054095Y-113560897D01*
X134054094Y-113560900D01*
X134023017Y-113683267D01*
X133992738Y-113802490D01*
X133967296Y-114055151D01*
X129778500Y-114055151D01*
X129778500Y-113587543D01*
X129771745Y-113525361D01*
X129720615Y-113388972D01*
X129633261Y-113272416D01*
X129516705Y-113185062D01*
X129380316Y-113133932D01*
X129318134Y-113127177D01*
X127221866Y-113127177D01*
X127159684Y-113133932D01*
X127023295Y-113185062D01*
X126906739Y-113272416D01*
X126819385Y-113388972D01*
X126768255Y-113525361D01*
X126761500Y-113587543D01*
X126761500Y-115683811D01*
X106508000Y-115683811D01*
X106508000Y-113354062D01*
X114271144Y-113354062D01*
X114280440Y-113366077D01*
X114331645Y-113401931D01*
X114341140Y-113407414D01*
X114538598Y-113499490D01*
X114548890Y-113503236D01*
X114759339Y-113559625D01*
X114770132Y-113561528D01*
X114987176Y-113580517D01*
X114998126Y-113580517D01*
X115215170Y-113561528D01*
X115225963Y-113559625D01*
X115436412Y-113503236D01*
X115446704Y-113499490D01*
X115644162Y-113407414D01*
X115653657Y-113401931D01*
X115705699Y-113365491D01*
X115714075Y-113355012D01*
X115707007Y-113341566D01*
X115481575Y-113116134D01*
X117184151Y-113116134D01*
X117190906Y-113178316D01*
X117242036Y-113314705D01*
X117329390Y-113431261D01*
X117445946Y-113518615D01*
X117582335Y-113569745D01*
X117644517Y-113576500D01*
X119340785Y-113576500D01*
X119402967Y-113569745D01*
X119539356Y-113518615D01*
X119655912Y-113431261D01*
X119743266Y-113314705D01*
X119794396Y-113178316D01*
X119801151Y-113116134D01*
X119801151Y-111419866D01*
X119794396Y-111357684D01*
X119743266Y-111221295D01*
X119655912Y-111104739D01*
X119539356Y-111017385D01*
X119402967Y-110966255D01*
X119340785Y-110959500D01*
X117644517Y-110959500D01*
X117582335Y-110966255D01*
X117445946Y-111017385D01*
X117329390Y-111104739D01*
X117242036Y-111221295D01*
X117190906Y-111357684D01*
X117184151Y-111419866D01*
X117184151Y-113116134D01*
X115481575Y-113116134D01*
X115005463Y-112640022D01*
X114991519Y-112632408D01*
X114989686Y-112632539D01*
X114983071Y-112636790D01*
X114277574Y-113342287D01*
X114271144Y-113354062D01*
X106508000Y-113354062D01*
X106508000Y-112273475D01*
X113680134Y-112273475D01*
X113699123Y-112490519D01*
X113701026Y-112501312D01*
X113757415Y-112711761D01*
X113761161Y-112722053D01*
X113853237Y-112919511D01*
X113858720Y-112929006D01*
X113895160Y-112981048D01*
X113905639Y-112989424D01*
X113919085Y-112982356D01*
X114620629Y-112280812D01*
X114627007Y-112269132D01*
X115357059Y-112269132D01*
X115357190Y-112270965D01*
X115361441Y-112277580D01*
X116066938Y-112983077D01*
X116078713Y-112989507D01*
X116090728Y-112980211D01*
X116126582Y-112929006D01*
X116132065Y-112919511D01*
X116224141Y-112722053D01*
X116227887Y-112711761D01*
X116284276Y-112501312D01*
X116286179Y-112490519D01*
X116305168Y-112273475D01*
X116305168Y-112262525D01*
X116286179Y-112045481D01*
X116284276Y-112034688D01*
X116227887Y-111824239D01*
X116224141Y-111813947D01*
X116132065Y-111616489D01*
X116126582Y-111606994D01*
X116090142Y-111554952D01*
X116079663Y-111546576D01*
X116066217Y-111553644D01*
X115364673Y-112255188D01*
X115357059Y-112269132D01*
X114627007Y-112269132D01*
X114628243Y-112266868D01*
X114628112Y-112265035D01*
X114623861Y-112258420D01*
X113918364Y-111552923D01*
X113906589Y-111546493D01*
X113894574Y-111555789D01*
X113858720Y-111606994D01*
X113853237Y-111616489D01*
X113761161Y-111813947D01*
X113757415Y-111824239D01*
X113701026Y-112034688D01*
X113699123Y-112045481D01*
X113680134Y-112262525D01*
X113680134Y-112273475D01*
X106508000Y-112273475D01*
X106508000Y-111180988D01*
X114271227Y-111180988D01*
X114278295Y-111194434D01*
X114979839Y-111895978D01*
X114993783Y-111903592D01*
X114995616Y-111903461D01*
X115002231Y-111899210D01*
X115707728Y-111193713D01*
X115714158Y-111181938D01*
X115704862Y-111169923D01*
X115653657Y-111134069D01*
X115644162Y-111128586D01*
X115446704Y-111036510D01*
X115436412Y-111032764D01*
X115225963Y-110976375D01*
X115215170Y-110974472D01*
X114998126Y-110955483D01*
X114987176Y-110955483D01*
X114770132Y-110974472D01*
X114759339Y-110976375D01*
X114548890Y-111032764D01*
X114538598Y-111036510D01*
X114341140Y-111128586D01*
X114331645Y-111134069D01*
X114279603Y-111170509D01*
X114271227Y-111180988D01*
X106508000Y-111180988D01*
X106508000Y-110868347D01*
X127402160Y-110868347D01*
X127407887Y-110875997D01*
X127579042Y-110980882D01*
X127587837Y-110985364D01*
X127797988Y-111072411D01*
X127807373Y-111075460D01*
X128028554Y-111128562D01*
X128038301Y-111130105D01*
X128265070Y-111147952D01*
X128274930Y-111147952D01*
X128501699Y-111130105D01*
X128511446Y-111128562D01*
X128732627Y-111075460D01*
X128742012Y-111072411D01*
X128952163Y-110985364D01*
X128960958Y-110980882D01*
X129128445Y-110878245D01*
X129137907Y-110867787D01*
X129134124Y-110859011D01*
X128282812Y-110007699D01*
X128268868Y-110000085D01*
X128267035Y-110000216D01*
X128260420Y-110004467D01*
X127408920Y-110855967D01*
X127402160Y-110868347D01*
X106508000Y-110868347D01*
X106508000Y-109640607D01*
X126757725Y-109640607D01*
X126775572Y-109867376D01*
X126777115Y-109877123D01*
X126830217Y-110098304D01*
X126833266Y-110107689D01*
X126920313Y-110317840D01*
X126924795Y-110326635D01*
X127027432Y-110494122D01*
X127037890Y-110503584D01*
X127046666Y-110499801D01*
X127897978Y-109648489D01*
X127904356Y-109636809D01*
X128634408Y-109636809D01*
X128634539Y-109638642D01*
X128638790Y-109645257D01*
X129490290Y-110496757D01*
X129502670Y-110503517D01*
X129510320Y-110497790D01*
X129615205Y-110326635D01*
X129619687Y-110317840D01*
X129706734Y-110107689D01*
X129709783Y-110098304D01*
X129762885Y-109877123D01*
X129764428Y-109867376D01*
X129782275Y-109640607D01*
X129782275Y-109630747D01*
X129764428Y-109403978D01*
X129762885Y-109394231D01*
X129709783Y-109173050D01*
X129706734Y-109163665D01*
X129619687Y-108953514D01*
X129615205Y-108944719D01*
X129512568Y-108777232D01*
X129502110Y-108767770D01*
X129493334Y-108771553D01*
X128642022Y-109622865D01*
X128634408Y-109636809D01*
X127904356Y-109636809D01*
X127905592Y-109634545D01*
X127905461Y-109632712D01*
X127901210Y-109626097D01*
X127049710Y-108774597D01*
X127037330Y-108767837D01*
X127029680Y-108773564D01*
X126924795Y-108944719D01*
X126920313Y-108953514D01*
X126833266Y-109163665D01*
X126830217Y-109173050D01*
X126777115Y-109394231D01*
X126775572Y-109403978D01*
X126757725Y-109630747D01*
X126757725Y-109640607D01*
X106508000Y-109640607D01*
X106508000Y-108403567D01*
X127402093Y-108403567D01*
X127405876Y-108412343D01*
X128257188Y-109263655D01*
X128271132Y-109271269D01*
X128272965Y-109271138D01*
X128279580Y-109266887D01*
X129131080Y-108415387D01*
X129137840Y-108403007D01*
X129132113Y-108395357D01*
X128960958Y-108290472D01*
X128952163Y-108285990D01*
X128877711Y-108255151D01*
X136367296Y-108255151D01*
X136367520Y-108259817D01*
X136367520Y-108259822D01*
X136371845Y-108349852D01*
X136379480Y-108508798D01*
X136394533Y-108584473D01*
X136425368Y-108739491D01*
X136429021Y-108757857D01*
X136430600Y-108762255D01*
X136430602Y-108762262D01*
X136475022Y-108885980D01*
X136514831Y-108996858D01*
X136635025Y-109220551D01*
X136637820Y-109224294D01*
X136637822Y-109224297D01*
X136784171Y-109420282D01*
X136784176Y-109420288D01*
X136786963Y-109424020D01*
X136790272Y-109427300D01*
X136790277Y-109427306D01*
X136963990Y-109599509D01*
X136967307Y-109602797D01*
X136971069Y-109605555D01*
X136971072Y-109605558D01*
X137096302Y-109697380D01*
X137172094Y-109752953D01*
X137176229Y-109755129D01*
X137176233Y-109755131D01*
X137272954Y-109806018D01*
X137396827Y-109871191D01*
X137636568Y-109954912D01*
X137886050Y-110002278D01*
X138006532Y-110007011D01*
X138135125Y-110012064D01*
X138135130Y-110012064D01*
X138139793Y-110012247D01*
X138238774Y-110001407D01*
X138387569Y-109985112D01*
X138387575Y-109985111D01*
X138392222Y-109984602D01*
X138501680Y-109955784D01*
X138633273Y-109921138D01*
X138637793Y-109919948D01*
X138792452Y-109853502D01*
X138866807Y-109821557D01*
X138866810Y-109821555D01*
X138871110Y-109819708D01*
X138875090Y-109817245D01*
X138875094Y-109817243D01*
X139083064Y-109688547D01*
X139083066Y-109688545D01*
X139087047Y-109686082D01*
X139138391Y-109642616D01*
X139277289Y-109525031D01*
X139277291Y-109525029D01*
X139280862Y-109522006D01*
X139448295Y-109331084D01*
X139457295Y-109317093D01*
X139583141Y-109121442D01*
X139585669Y-109117512D01*
X139689967Y-108885980D01*
X139758896Y-108641575D01*
X139780007Y-108475633D01*
X139790545Y-108392798D01*
X139790545Y-108392792D01*
X139790943Y-108389667D01*
X139791196Y-108380030D01*
X139793208Y-108303160D01*
X139793291Y-108300000D01*
X139792038Y-108283136D01*
X139789958Y-108255151D01*
X151607296Y-108255151D01*
X151607520Y-108259817D01*
X151607520Y-108259822D01*
X151611845Y-108349852D01*
X151619480Y-108508798D01*
X151634533Y-108584473D01*
X151665368Y-108739491D01*
X151669021Y-108757857D01*
X151670600Y-108762255D01*
X151670602Y-108762262D01*
X151715022Y-108885980D01*
X151754831Y-108996858D01*
X151875025Y-109220551D01*
X151877820Y-109224294D01*
X151877822Y-109224297D01*
X152024171Y-109420282D01*
X152024176Y-109420288D01*
X152026963Y-109424020D01*
X152030272Y-109427300D01*
X152030277Y-109427306D01*
X152203990Y-109599509D01*
X152207307Y-109602797D01*
X152211069Y-109605555D01*
X152211072Y-109605558D01*
X152336302Y-109697380D01*
X152412094Y-109752953D01*
X152416229Y-109755129D01*
X152416233Y-109755131D01*
X152512954Y-109806018D01*
X152636827Y-109871191D01*
X152876568Y-109954912D01*
X153126050Y-110002278D01*
X153246532Y-110007011D01*
X153375125Y-110012064D01*
X153375130Y-110012064D01*
X153379793Y-110012247D01*
X153478774Y-110001407D01*
X153627569Y-109985112D01*
X153627575Y-109985111D01*
X153632222Y-109984602D01*
X153741680Y-109955784D01*
X153873273Y-109921138D01*
X153877793Y-109919948D01*
X154032452Y-109853502D01*
X154106807Y-109821557D01*
X154106810Y-109821555D01*
X154111110Y-109819708D01*
X154115090Y-109817245D01*
X154115094Y-109817243D01*
X154323064Y-109688547D01*
X154323066Y-109688545D01*
X154327047Y-109686082D01*
X154378391Y-109642616D01*
X154517289Y-109525031D01*
X154517291Y-109525029D01*
X154520862Y-109522006D01*
X154688295Y-109331084D01*
X154697295Y-109317093D01*
X154823141Y-109121442D01*
X154825669Y-109117512D01*
X154929967Y-108885980D01*
X154998896Y-108641575D01*
X155020007Y-108475633D01*
X155030545Y-108392798D01*
X155030545Y-108392792D01*
X155030943Y-108389667D01*
X155031196Y-108380030D01*
X155033208Y-108303160D01*
X155033291Y-108300000D01*
X155032038Y-108283136D01*
X155014818Y-108051411D01*
X155014817Y-108051407D01*
X155014472Y-108046759D01*
X155012399Y-108037595D01*
X154972562Y-107861543D01*
X154958428Y-107799082D01*
X154928999Y-107723406D01*
X154868084Y-107566762D01*
X154868083Y-107566760D01*
X154866391Y-107562409D01*
X154859209Y-107549843D01*
X154742702Y-107345997D01*
X154742700Y-107345995D01*
X154740383Y-107341940D01*
X154583171Y-107142517D01*
X154489590Y-107054485D01*
X154401610Y-106971722D01*
X154401608Y-106971720D01*
X154398209Y-106968523D01*
X154230905Y-106852460D01*
X154193393Y-106826437D01*
X154193390Y-106826435D01*
X154189561Y-106823779D01*
X154185384Y-106821719D01*
X154185377Y-106821715D01*
X153965996Y-106713528D01*
X153965992Y-106713527D01*
X153961810Y-106711464D01*
X153719960Y-106634047D01*
X153715355Y-106633297D01*
X153473935Y-106593980D01*
X153473934Y-106593980D01*
X153469323Y-106593229D01*
X153342364Y-106591567D01*
X153220083Y-106589966D01*
X153220080Y-106589966D01*
X153215406Y-106589905D01*
X152963787Y-106624149D01*
X152719993Y-106695208D01*
X152489380Y-106801522D01*
X152485471Y-106804085D01*
X152280928Y-106938189D01*
X152280923Y-106938193D01*
X152277015Y-106940755D01*
X152233644Y-106979465D01*
X152091783Y-107106081D01*
X152087562Y-107109848D01*
X151925183Y-107305087D01*
X151793447Y-107522182D01*
X151791638Y-107526496D01*
X151791637Y-107526498D01*
X151709067Y-107723406D01*
X151695246Y-107756365D01*
X151694095Y-107760897D01*
X151694094Y-107760900D01*
X151680169Y-107815730D01*
X151632738Y-108002490D01*
X151607296Y-108255151D01*
X139789958Y-108255151D01*
X139774818Y-108051411D01*
X139774817Y-108051407D01*
X139774472Y-108046759D01*
X139772399Y-108037595D01*
X139732562Y-107861543D01*
X139718428Y-107799082D01*
X139688999Y-107723406D01*
X139628084Y-107566762D01*
X139628083Y-107566760D01*
X139626391Y-107562409D01*
X139619209Y-107549843D01*
X139502702Y-107345997D01*
X139502700Y-107345995D01*
X139500383Y-107341940D01*
X139343171Y-107142517D01*
X139249590Y-107054485D01*
X139161610Y-106971722D01*
X139161608Y-106971720D01*
X139158209Y-106968523D01*
X138990905Y-106852460D01*
X138953393Y-106826437D01*
X138953390Y-106826435D01*
X138949561Y-106823779D01*
X138945384Y-106821719D01*
X138945377Y-106821715D01*
X138725996Y-106713528D01*
X138725992Y-106713527D01*
X138721810Y-106711464D01*
X138479960Y-106634047D01*
X138475355Y-106633297D01*
X138233935Y-106593980D01*
X138233934Y-106593980D01*
X138229323Y-106593229D01*
X138102364Y-106591567D01*
X137980083Y-106589966D01*
X137980080Y-106589966D01*
X137975406Y-106589905D01*
X137723787Y-106624149D01*
X137479993Y-106695208D01*
X137249380Y-106801522D01*
X137245471Y-106804085D01*
X137040928Y-106938189D01*
X137040923Y-106938193D01*
X137037015Y-106940755D01*
X136993644Y-106979465D01*
X136851783Y-107106081D01*
X136847562Y-107109848D01*
X136685183Y-107305087D01*
X136553447Y-107522182D01*
X136551638Y-107526496D01*
X136551637Y-107526498D01*
X136469067Y-107723406D01*
X136455246Y-107756365D01*
X136454095Y-107760897D01*
X136454094Y-107760900D01*
X136440169Y-107815730D01*
X136392738Y-108002490D01*
X136367296Y-108255151D01*
X128877711Y-108255151D01*
X128742012Y-108198943D01*
X128732627Y-108195894D01*
X128511446Y-108142792D01*
X128501699Y-108141249D01*
X128274930Y-108123402D01*
X128265070Y-108123402D01*
X128038301Y-108141249D01*
X128028554Y-108142792D01*
X127807373Y-108195894D01*
X127797988Y-108198943D01*
X127587837Y-108285990D01*
X127579042Y-108290472D01*
X127411555Y-108393109D01*
X127402093Y-108403567D01*
X106508000Y-108403567D01*
X106508000Y-99980000D01*
X108526654Y-99980000D01*
X108526924Y-99984119D01*
X108541552Y-100207296D01*
X108546017Y-100275426D01*
X108546819Y-100279459D01*
X108546820Y-100279465D01*
X108599937Y-100546498D01*
X108603776Y-100565797D01*
X108605103Y-100569706D01*
X108605104Y-100569710D01*
X108683787Y-100801502D01*
X108698941Y-100846145D01*
X108733528Y-100916281D01*
X108811990Y-101075385D01*
X108829885Y-101111673D01*
X108844749Y-101133919D01*
X108982465Y-101340025D01*
X108994367Y-101357838D01*
X108997081Y-101360932D01*
X108997085Y-101360938D01*
X109158520Y-101545018D01*
X109189573Y-101580427D01*
X109192662Y-101583136D01*
X109409062Y-101772915D01*
X109409068Y-101772919D01*
X109412162Y-101775633D01*
X109415588Y-101777922D01*
X109415593Y-101777926D01*
X109553998Y-101870405D01*
X109658327Y-101940115D01*
X109662026Y-101941939D01*
X109662031Y-101941942D01*
X109779985Y-102000110D01*
X109923855Y-102071059D01*
X109927760Y-102072384D01*
X109927761Y-102072385D01*
X110200290Y-102164896D01*
X110200294Y-102164897D01*
X110204203Y-102166224D01*
X110208247Y-102167028D01*
X110208253Y-102167030D01*
X110490535Y-102223180D01*
X110490541Y-102223181D01*
X110494574Y-102223983D01*
X110498679Y-102224252D01*
X110498686Y-102224253D01*
X110785881Y-102243076D01*
X110790000Y-102243346D01*
X110794119Y-102243076D01*
X111081314Y-102224253D01*
X111081321Y-102224252D01*
X111085426Y-102223983D01*
X111089459Y-102223181D01*
X111089465Y-102223180D01*
X111371747Y-102167030D01*
X111371753Y-102167028D01*
X111375797Y-102166224D01*
X111379706Y-102164897D01*
X111379710Y-102164896D01*
X111652239Y-102072385D01*
X111652240Y-102072384D01*
X111656145Y-102071059D01*
X111800015Y-102000110D01*
X111917969Y-101941942D01*
X111917974Y-101941939D01*
X111921673Y-101940115D01*
X112026002Y-101870405D01*
X112164407Y-101777926D01*
X112164412Y-101777922D01*
X112167838Y-101775633D01*
X112170932Y-101772919D01*
X112170938Y-101772915D01*
X112387338Y-101583136D01*
X112390427Y-101580427D01*
X112421480Y-101545018D01*
X112582915Y-101360938D01*
X112582919Y-101360932D01*
X112585633Y-101357838D01*
X112597536Y-101340025D01*
X112735251Y-101133919D01*
X112750115Y-101111673D01*
X112768011Y-101075385D01*
X112846472Y-100916281D01*
X112881059Y-100846145D01*
X112896213Y-100801502D01*
X112974896Y-100569710D01*
X112974897Y-100569706D01*
X112976224Y-100565797D01*
X112980063Y-100546498D01*
X113033180Y-100279465D01*
X113033181Y-100279459D01*
X113033983Y-100275426D01*
X113038449Y-100207296D01*
X113046644Y-100082263D01*
X125940064Y-100082263D01*
X125976404Y-100319744D01*
X126005517Y-100408815D01*
X126049434Y-100543183D01*
X126049437Y-100543189D01*
X126051042Y-100548101D01*
X126053429Y-100552687D01*
X126053431Y-100552691D01*
X126143999Y-100726669D01*
X126161975Y-100761200D01*
X126278415Y-100916283D01*
X126303320Y-100982765D01*
X126288328Y-101052161D01*
X126238198Y-101102435D01*
X126221885Y-101109915D01*
X126211707Y-101113731D01*
X126211704Y-101113733D01*
X126203295Y-101116885D01*
X126086739Y-101204239D01*
X125999385Y-101320795D01*
X125948255Y-101457184D01*
X125941500Y-101519366D01*
X125941500Y-103520634D01*
X125948255Y-103582816D01*
X125999385Y-103719205D01*
X126086739Y-103835761D01*
X126203295Y-103923115D01*
X126339684Y-103974245D01*
X126401866Y-103981000D01*
X128498134Y-103981000D01*
X128560316Y-103974245D01*
X128696705Y-103923115D01*
X128813261Y-103835761D01*
X128900615Y-103719205D01*
X128951745Y-103582816D01*
X128958500Y-103520634D01*
X128958500Y-101519366D01*
X128951745Y-101457184D01*
X128900615Y-101320795D01*
X128813261Y-101204239D01*
X128696705Y-101116885D01*
X128676811Y-101109427D01*
X128620047Y-101066787D01*
X128595346Y-101000226D01*
X128610553Y-100930877D01*
X128622158Y-100913353D01*
X128715362Y-100795336D01*
X128715364Y-100795333D01*
X128718568Y-100791276D01*
X128719254Y-100791818D01*
X128770089Y-100749105D01*
X128820684Y-100738500D01*
X132199734Y-100738500D01*
X132267855Y-100758502D01*
X132314348Y-100812158D01*
X132324452Y-100882432D01*
X132294958Y-100947012D01*
X132228880Y-100987083D01*
X132227540Y-100987402D01*
X132219684Y-100988255D01*
X132083295Y-101039385D01*
X131966739Y-101126739D01*
X131879385Y-101243295D01*
X131828255Y-101379684D01*
X131821500Y-101441866D01*
X131821500Y-106038134D01*
X131828255Y-106100316D01*
X131879385Y-106236705D01*
X131966739Y-106353261D01*
X132083295Y-106440615D01*
X132219684Y-106491745D01*
X132281866Y-106498500D01*
X135078134Y-106498500D01*
X135140316Y-106491745D01*
X135276705Y-106440615D01*
X135393261Y-106353261D01*
X135480615Y-106236705D01*
X135531745Y-106100316D01*
X135538500Y-106038134D01*
X135538500Y-102395159D01*
X144470396Y-102395159D01*
X144479692Y-102407174D01*
X144519940Y-102435356D01*
X144529435Y-102440839D01*
X144718853Y-102529166D01*
X144729145Y-102532912D01*
X144931023Y-102587005D01*
X144941818Y-102588908D01*
X145150025Y-102607124D01*
X145160975Y-102607124D01*
X145369182Y-102588908D01*
X145379977Y-102587005D01*
X145581855Y-102532912D01*
X145592147Y-102529166D01*
X145781565Y-102440839D01*
X145791060Y-102435356D01*
X145832146Y-102406587D01*
X145840521Y-102396110D01*
X145833453Y-102382663D01*
X145168312Y-101717522D01*
X145154368Y-101709908D01*
X145152535Y-101710039D01*
X145145920Y-101714290D01*
X144476826Y-102383384D01*
X144470396Y-102395159D01*
X135538500Y-102395159D01*
X135538500Y-101441866D01*
X135531745Y-101379684D01*
X135480615Y-101243295D01*
X135405613Y-101143220D01*
X135380765Y-101076714D01*
X135395818Y-101007331D01*
X135417344Y-100978560D01*
X136950404Y-99445500D01*
X142092895Y-99445500D01*
X142112077Y-99664749D01*
X142113501Y-99670063D01*
X142113501Y-99670064D01*
X142164658Y-99860984D01*
X142169039Y-99877336D01*
X142171361Y-99882316D01*
X142171362Y-99882318D01*
X142238265Y-100025790D01*
X142262052Y-100076802D01*
X142388288Y-100257087D01*
X142543913Y-100412712D01*
X142548421Y-100415869D01*
X142548424Y-100415871D01*
X142719067Y-100535356D01*
X142724197Y-100538948D01*
X142729179Y-100541271D01*
X142729184Y-100541274D01*
X142904713Y-100623124D01*
X142923664Y-100631961D01*
X142928972Y-100633383D01*
X142928974Y-100633384D01*
X143130936Y-100687499D01*
X143130937Y-100687499D01*
X143136251Y-100688923D01*
X143355500Y-100708105D01*
X143574749Y-100688923D01*
X143580063Y-100687499D01*
X143580064Y-100687499D01*
X143782026Y-100633384D01*
X143782028Y-100633383D01*
X143787336Y-100631961D01*
X143842356Y-100606305D01*
X143874345Y-100591388D01*
X143944537Y-100580727D01*
X144009349Y-100609707D01*
X144048206Y-100669127D01*
X144048769Y-100740121D01*
X144041790Y-100758833D01*
X143971834Y-100908853D01*
X143968088Y-100919145D01*
X143913995Y-101121023D01*
X143912092Y-101131818D01*
X143893876Y-101340025D01*
X143893876Y-101350975D01*
X143912092Y-101559182D01*
X143913995Y-101569977D01*
X143968088Y-101771855D01*
X143971834Y-101782147D01*
X144060161Y-101971564D01*
X144065644Y-101981060D01*
X144094413Y-102022146D01*
X144104890Y-102030521D01*
X144118338Y-102023452D01*
X145066405Y-101075385D01*
X145128717Y-101041359D01*
X145199532Y-101046424D01*
X145244595Y-101075385D01*
X146193384Y-102024174D01*
X146205159Y-102030604D01*
X146217174Y-102021308D01*
X146245356Y-101981060D01*
X146250839Y-101971564D01*
X146339166Y-101782147D01*
X146342912Y-101771855D01*
X146397005Y-101569977D01*
X146398908Y-101559182D01*
X146417124Y-101350975D01*
X146417124Y-101340025D01*
X146398908Y-101131818D01*
X146397005Y-101121023D01*
X146342912Y-100919145D01*
X146339166Y-100908853D01*
X146268881Y-100758128D01*
X146258220Y-100687937D01*
X146287200Y-100623124D01*
X146346619Y-100584267D01*
X146417614Y-100583704D01*
X146436326Y-100590683D01*
X146518853Y-100629166D01*
X146529145Y-100632912D01*
X146731023Y-100687005D01*
X146741818Y-100688908D01*
X146950025Y-100707124D01*
X146960975Y-100707124D01*
X147169182Y-100688908D01*
X147179977Y-100687005D01*
X147381855Y-100632912D01*
X147392147Y-100629166D01*
X147581565Y-100540839D01*
X147591060Y-100535356D01*
X147632146Y-100506587D01*
X147640521Y-100496110D01*
X147633453Y-100482663D01*
X146597422Y-99446632D01*
X147319908Y-99446632D01*
X147320039Y-99448465D01*
X147324290Y-99455080D01*
X147993384Y-100124174D01*
X148005159Y-100130604D01*
X148017174Y-100121308D01*
X148045356Y-100081060D01*
X148050839Y-100071564D01*
X148139166Y-99882147D01*
X148142912Y-99871855D01*
X148197005Y-99669977D01*
X148198908Y-99659182D01*
X148217124Y-99450975D01*
X148217124Y-99440025D01*
X148198908Y-99231818D01*
X148197005Y-99221023D01*
X148142912Y-99019145D01*
X148139166Y-99008853D01*
X148050839Y-98819436D01*
X148045356Y-98809940D01*
X148016587Y-98768854D01*
X148006110Y-98760479D01*
X147992662Y-98767548D01*
X147327522Y-99432688D01*
X147319908Y-99446632D01*
X146597422Y-99446632D01*
X145917616Y-98766826D01*
X145905841Y-98760396D01*
X145893826Y-98769692D01*
X145865644Y-98809940D01*
X145860161Y-98819436D01*
X145771834Y-99008853D01*
X145768088Y-99019145D01*
X145713995Y-99221023D01*
X145712092Y-99231818D01*
X145693876Y-99440025D01*
X145693876Y-99450975D01*
X145712092Y-99659182D01*
X145713995Y-99669977D01*
X145768088Y-99871855D01*
X145771834Y-99882147D01*
X145842119Y-100032872D01*
X145852780Y-100103063D01*
X145823800Y-100167876D01*
X145764381Y-100206733D01*
X145693386Y-100207296D01*
X145674674Y-100200317D01*
X145592147Y-100161834D01*
X145581855Y-100158088D01*
X145379977Y-100103995D01*
X145369182Y-100102092D01*
X145160975Y-100083876D01*
X145150025Y-100083876D01*
X144941818Y-100102092D01*
X144931023Y-100103995D01*
X144729145Y-100158088D01*
X144718848Y-100161836D01*
X144637032Y-100199988D01*
X144566840Y-100210650D01*
X144502027Y-100181671D01*
X144463171Y-100122251D01*
X144462607Y-100051257D01*
X144469586Y-100032544D01*
X144539638Y-99882318D01*
X144539639Y-99882316D01*
X144541961Y-99877336D01*
X144546343Y-99860984D01*
X144597499Y-99670064D01*
X144597499Y-99670063D01*
X144598923Y-99664749D01*
X144618105Y-99445500D01*
X144598923Y-99226251D01*
X144588753Y-99188297D01*
X144543384Y-99018974D01*
X144543383Y-99018972D01*
X144541961Y-99013664D01*
X144526350Y-98980186D01*
X144451271Y-98819179D01*
X144451269Y-98819176D01*
X144448948Y-98814198D01*
X144322712Y-98633913D01*
X144167087Y-98478288D01*
X144162579Y-98475131D01*
X144162576Y-98475129D01*
X144047983Y-98394890D01*
X146270479Y-98394890D01*
X146277548Y-98408338D01*
X146942688Y-99073478D01*
X146956632Y-99081092D01*
X146958465Y-99080961D01*
X146965080Y-99076710D01*
X147634174Y-98407616D01*
X147640604Y-98395841D01*
X147631308Y-98383826D01*
X147591060Y-98355644D01*
X147581565Y-98350161D01*
X147392147Y-98261834D01*
X147381855Y-98258088D01*
X147179977Y-98203995D01*
X147169182Y-98202092D01*
X146960975Y-98183876D01*
X146950025Y-98183876D01*
X146741818Y-98202092D01*
X146731023Y-98203995D01*
X146529145Y-98258088D01*
X146518853Y-98261834D01*
X146329436Y-98350161D01*
X146319940Y-98355644D01*
X146278854Y-98384413D01*
X146270479Y-98394890D01*
X144047983Y-98394890D01*
X143991312Y-98355209D01*
X143991309Y-98355207D01*
X143986803Y-98352052D01*
X143981821Y-98349729D01*
X143981816Y-98349726D01*
X143792318Y-98261362D01*
X143792317Y-98261361D01*
X143787336Y-98259039D01*
X143782028Y-98257617D01*
X143782026Y-98257616D01*
X143580064Y-98203501D01*
X143580063Y-98203501D01*
X143574749Y-98202077D01*
X143355500Y-98182895D01*
X143136251Y-98202077D01*
X143130937Y-98203501D01*
X143130936Y-98203501D01*
X142928974Y-98257616D01*
X142928972Y-98257617D01*
X142923664Y-98259039D01*
X142918684Y-98261361D01*
X142918682Y-98261362D01*
X142729179Y-98349729D01*
X142729176Y-98349731D01*
X142724198Y-98352052D01*
X142543913Y-98478288D01*
X142388288Y-98633913D01*
X142262052Y-98814198D01*
X142259731Y-98819176D01*
X142259729Y-98819179D01*
X142184650Y-98980186D01*
X142169039Y-99013664D01*
X142167617Y-99018972D01*
X142167616Y-99018974D01*
X142122247Y-99188297D01*
X142112077Y-99226251D01*
X142092895Y-99445500D01*
X136950404Y-99445500D01*
X139125500Y-97270405D01*
X139187812Y-97236379D01*
X139214595Y-97233500D01*
X147721233Y-97233500D01*
X147732416Y-97234027D01*
X147739909Y-97235702D01*
X147747835Y-97235453D01*
X147747836Y-97235453D01*
X147807986Y-97233562D01*
X147811945Y-97233500D01*
X147839856Y-97233500D01*
X147843791Y-97233003D01*
X147843856Y-97232995D01*
X147855693Y-97232062D01*
X147887951Y-97231048D01*
X147891970Y-97230922D01*
X147899889Y-97230673D01*
X147919343Y-97225021D01*
X147938700Y-97221013D01*
X147950930Y-97219468D01*
X147950931Y-97219468D01*
X147958797Y-97218474D01*
X147966168Y-97215555D01*
X147966170Y-97215555D01*
X147999912Y-97202196D01*
X148011142Y-97198351D01*
X148045983Y-97188229D01*
X148045984Y-97188229D01*
X148053593Y-97186018D01*
X148060412Y-97181985D01*
X148060417Y-97181983D01*
X148071028Y-97175707D01*
X148088776Y-97167012D01*
X148107617Y-97159552D01*
X148143387Y-97133564D01*
X148153307Y-97127048D01*
X148184535Y-97108580D01*
X148184538Y-97108578D01*
X148191362Y-97104542D01*
X148205683Y-97090221D01*
X148220717Y-97077380D01*
X148228525Y-97071707D01*
X148237107Y-97065472D01*
X148265298Y-97031395D01*
X148273288Y-97022616D01*
X148750499Y-96545405D01*
X148812811Y-96511379D01*
X148839594Y-96508500D01*
X148895487Y-96508500D01*
X148901939Y-96507128D01*
X148901944Y-96507128D01*
X148988887Y-96488647D01*
X149082288Y-96468794D01*
X149095059Y-96463108D01*
X149250722Y-96393803D01*
X149250724Y-96393802D01*
X149256752Y-96391118D01*
X149411253Y-96278866D01*
X149452101Y-96233500D01*
X149534621Y-96141852D01*
X149534622Y-96141851D01*
X149539040Y-96136944D01*
X149618445Y-95999411D01*
X149631223Y-95977279D01*
X149631224Y-95977278D01*
X149634527Y-95971556D01*
X149693542Y-95789928D01*
X149701921Y-95710212D01*
X149712814Y-95606565D01*
X149713504Y-95600000D01*
X149693542Y-95410072D01*
X149634527Y-95228444D01*
X149539040Y-95063056D01*
X149524798Y-95047238D01*
X149415675Y-94926045D01*
X149415674Y-94926044D01*
X149411253Y-94921134D01*
X149301647Y-94841500D01*
X149262094Y-94812763D01*
X149262093Y-94812762D01*
X149256752Y-94808882D01*
X149250724Y-94806198D01*
X149250722Y-94806197D01*
X149088319Y-94733891D01*
X149088318Y-94733891D01*
X149082288Y-94731206D01*
X148988887Y-94711353D01*
X148901944Y-94692872D01*
X148901939Y-94692872D01*
X148895487Y-94691500D01*
X148704513Y-94691500D01*
X148698061Y-94692872D01*
X148698056Y-94692872D01*
X148611112Y-94711353D01*
X148517712Y-94731206D01*
X148511682Y-94733891D01*
X148511681Y-94733891D01*
X148349278Y-94806197D01*
X148349276Y-94806198D01*
X148343248Y-94808882D01*
X148337907Y-94812762D01*
X148337906Y-94812763D01*
X148298353Y-94841500D01*
X148188747Y-94921134D01*
X148184326Y-94926044D01*
X148184325Y-94926045D01*
X148075203Y-95047238D01*
X148060960Y-95063056D01*
X147965473Y-95228444D01*
X147906458Y-95410072D01*
X147905768Y-95416633D01*
X147905768Y-95416635D01*
X147889093Y-95575292D01*
X147862080Y-95640949D01*
X147852878Y-95651217D01*
X147827909Y-95676186D01*
X147765597Y-95710212D01*
X147694782Y-95705147D01*
X147637946Y-95662600D01*
X147614556Y-95599889D01*
X147613504Y-95600000D01*
X147594232Y-95416635D01*
X147594232Y-95416633D01*
X147593542Y-95410072D01*
X147534527Y-95228444D01*
X147439040Y-95063056D01*
X147424798Y-95047238D01*
X147315675Y-94926045D01*
X147315674Y-94926044D01*
X147311253Y-94921134D01*
X147201647Y-94841500D01*
X147162094Y-94812763D01*
X147162093Y-94812762D01*
X147156752Y-94808882D01*
X147150724Y-94806198D01*
X147150722Y-94806197D01*
X146988319Y-94733891D01*
X146988318Y-94733891D01*
X146982288Y-94731206D01*
X146888887Y-94711353D01*
X146801944Y-94692872D01*
X146801939Y-94692872D01*
X146795487Y-94691500D01*
X146604513Y-94691500D01*
X146598061Y-94692872D01*
X146598056Y-94692872D01*
X146511112Y-94711353D01*
X146417712Y-94731206D01*
X146411682Y-94733891D01*
X146411681Y-94733891D01*
X146249278Y-94806197D01*
X146249276Y-94806198D01*
X146243248Y-94808882D01*
X146237909Y-94812761D01*
X146237902Y-94812765D01*
X146231472Y-94817437D01*
X146157413Y-94841500D01*
X138336085Y-94841500D01*
X138317136Y-94840067D01*
X138316929Y-94840036D01*
X138295673Y-94836802D01*
X138288381Y-94837395D01*
X138288378Y-94837395D01*
X138243013Y-94841085D01*
X138232799Y-94841500D01*
X138224729Y-94841500D01*
X138221109Y-94841922D01*
X138221091Y-94841923D01*
X138196483Y-94844792D01*
X138192122Y-94845224D01*
X138167003Y-94847267D01*
X138126683Y-94850546D01*
X138126680Y-94850547D01*
X138119385Y-94851140D01*
X138112421Y-94853396D01*
X138106462Y-94854587D01*
X138100607Y-94855971D01*
X138093341Y-94856818D01*
X138024695Y-94881735D01*
X138020567Y-94883152D01*
X137958086Y-94903393D01*
X137958084Y-94903394D01*
X137951123Y-94905649D01*
X137944868Y-94909445D01*
X137939394Y-94911951D01*
X137933964Y-94914670D01*
X137927085Y-94917167D01*
X137866038Y-94957191D01*
X137862349Y-94959518D01*
X137857393Y-94962526D01*
X137804715Y-94994491D01*
X137804710Y-94994495D01*
X137799914Y-94997405D01*
X137791538Y-95004803D01*
X137791515Y-95004777D01*
X137788525Y-95007426D01*
X137785286Y-95010134D01*
X137779170Y-95014144D01*
X137774143Y-95019451D01*
X137774139Y-95019454D01*
X137725894Y-95070383D01*
X137723516Y-95072825D01*
X135753595Y-97042746D01*
X135691283Y-97076772D01*
X135620468Y-97071707D01*
X135563632Y-97029160D01*
X135538821Y-96962640D01*
X135538500Y-96953651D01*
X135538500Y-93641866D01*
X135531745Y-93579684D01*
X135480615Y-93443295D01*
X135393261Y-93326739D01*
X135276705Y-93239385D01*
X135140316Y-93188255D01*
X135078134Y-93181500D01*
X132281866Y-93181500D01*
X132219684Y-93188255D01*
X132083295Y-93239385D01*
X131966739Y-93326739D01*
X131879385Y-93443295D01*
X131828255Y-93579684D01*
X131821500Y-93641866D01*
X131821500Y-98238134D01*
X131828255Y-98300316D01*
X131879385Y-98436705D01*
X131966739Y-98553261D01*
X132083295Y-98640615D01*
X132219684Y-98691745D01*
X132281866Y-98698500D01*
X133793651Y-98698500D01*
X133861772Y-98718502D01*
X133908265Y-98772158D01*
X133918369Y-98842432D01*
X133888875Y-98907012D01*
X133882746Y-98913595D01*
X133611746Y-99184595D01*
X133549434Y-99218621D01*
X133522651Y-99221500D01*
X128818027Y-99221500D01*
X128749906Y-99201498D01*
X128717267Y-99171153D01*
X128596882Y-99010815D01*
X128596880Y-99010812D01*
X128593777Y-99006680D01*
X128420088Y-98840699D01*
X128383097Y-98815465D01*
X128338096Y-98760556D01*
X128329925Y-98690032D01*
X128361179Y-98626284D01*
X128385660Y-98605589D01*
X128387635Y-98604311D01*
X128391977Y-98601502D01*
X128569670Y-98439814D01*
X128640817Y-98349726D01*
X128715367Y-98255330D01*
X128715370Y-98255325D01*
X128718568Y-98251276D01*
X128722979Y-98243287D01*
X128832177Y-98045474D01*
X128832179Y-98045470D01*
X128834674Y-98040950D01*
X128841322Y-98022179D01*
X128913144Y-97819360D01*
X128913145Y-97819356D01*
X128914870Y-97814485D01*
X128915778Y-97809389D01*
X128956095Y-97583052D01*
X128956096Y-97583046D01*
X128957001Y-97577963D01*
X128959936Y-97337737D01*
X128923596Y-97100256D01*
X128878617Y-96962640D01*
X128850566Y-96876817D01*
X128850563Y-96876811D01*
X128848958Y-96871899D01*
X128814551Y-96805803D01*
X128740416Y-96663393D01*
X128738025Y-96658800D01*
X128655543Y-96548944D01*
X128596882Y-96470815D01*
X128596880Y-96470812D01*
X128593777Y-96466680D01*
X128420088Y-96300699D01*
X128221622Y-96165314D01*
X128216939Y-96163140D01*
X128216935Y-96163138D01*
X128008405Y-96066342D01*
X128008401Y-96066341D01*
X128003710Y-96064163D01*
X127772202Y-95999960D01*
X127767065Y-95999411D01*
X127579407Y-95979356D01*
X127579399Y-95979356D01*
X127576072Y-95979000D01*
X127341598Y-95979000D01*
X127339025Y-95979212D01*
X127339014Y-95979212D01*
X127238054Y-95987513D01*
X127163063Y-95993678D01*
X126930056Y-96052206D01*
X126801229Y-96108221D01*
X126714474Y-96145943D01*
X126714471Y-96145945D01*
X126709737Y-96148003D01*
X126636527Y-96195365D01*
X126520533Y-96270405D01*
X126508023Y-96278498D01*
X126330330Y-96440186D01*
X126306141Y-96470815D01*
X126184633Y-96624670D01*
X126184630Y-96624675D01*
X126181432Y-96628724D01*
X126178939Y-96633240D01*
X126178937Y-96633243D01*
X126144984Y-96694749D01*
X126065326Y-96839050D01*
X126063602Y-96843919D01*
X126063600Y-96843923D01*
X125993193Y-97042746D01*
X125985130Y-97065515D01*
X125984223Y-97070608D01*
X125984222Y-97070611D01*
X125948634Y-97270405D01*
X125942999Y-97302037D01*
X125942936Y-97307201D01*
X125941253Y-97444981D01*
X125940064Y-97542263D01*
X125976404Y-97779744D01*
X126011189Y-97886169D01*
X126049434Y-98003183D01*
X126049437Y-98003189D01*
X126051042Y-98008101D01*
X126053429Y-98012687D01*
X126053431Y-98012691D01*
X126142284Y-98183374D01*
X126161975Y-98221200D01*
X126187601Y-98255330D01*
X126262919Y-98355644D01*
X126306223Y-98413320D01*
X126309961Y-98416892D01*
X126458294Y-98558642D01*
X126479912Y-98579301D01*
X126516903Y-98604535D01*
X126561904Y-98659444D01*
X126570075Y-98729968D01*
X126538821Y-98793716D01*
X126514340Y-98814411D01*
X126512707Y-98815468D01*
X126508023Y-98818498D01*
X126330330Y-98980186D01*
X126306141Y-99010815D01*
X126184633Y-99164670D01*
X126184630Y-99164675D01*
X126181432Y-99168724D01*
X126178939Y-99173240D01*
X126178937Y-99173243D01*
X126153887Y-99218621D01*
X126065326Y-99379050D01*
X126063602Y-99383919D01*
X126063600Y-99383923D01*
X126039583Y-99451745D01*
X125985130Y-99605515D01*
X125984223Y-99610608D01*
X125984222Y-99610611D01*
X125955557Y-99771538D01*
X125942999Y-99842037D01*
X125942733Y-99863846D01*
X125940192Y-100071821D01*
X125940064Y-100082263D01*
X113046644Y-100082263D01*
X113053076Y-99984119D01*
X113053346Y-99980000D01*
X113046944Y-99882318D01*
X113034253Y-99688686D01*
X113034252Y-99688679D01*
X113033983Y-99684574D01*
X113031080Y-99669977D01*
X112977030Y-99398253D01*
X112977028Y-99398247D01*
X112976224Y-99394203D01*
X112972735Y-99383923D01*
X112882385Y-99117761D01*
X112882384Y-99117760D01*
X112881059Y-99113855D01*
X112750115Y-98848327D01*
X112691417Y-98760479D01*
X112587926Y-98605593D01*
X112587922Y-98605588D01*
X112585633Y-98602162D01*
X112582919Y-98599068D01*
X112582915Y-98599062D01*
X112393136Y-98382662D01*
X112390427Y-98379573D01*
X112362643Y-98355207D01*
X112170938Y-98187085D01*
X112170932Y-98187081D01*
X112167838Y-98184367D01*
X112164412Y-98182078D01*
X112164407Y-98182074D01*
X111925106Y-98022179D01*
X111921673Y-98019885D01*
X111917974Y-98018061D01*
X111917969Y-98018058D01*
X111661561Y-97891612D01*
X111656145Y-97888941D01*
X111601566Y-97870414D01*
X111379710Y-97795104D01*
X111379706Y-97795103D01*
X111375797Y-97793776D01*
X111371753Y-97792972D01*
X111371747Y-97792970D01*
X111089465Y-97736820D01*
X111089459Y-97736819D01*
X111085426Y-97736017D01*
X111081321Y-97735748D01*
X111081314Y-97735747D01*
X110794119Y-97716924D01*
X110790000Y-97716654D01*
X110785881Y-97716924D01*
X110498686Y-97735747D01*
X110498679Y-97735748D01*
X110494574Y-97736017D01*
X110490541Y-97736819D01*
X110490535Y-97736820D01*
X110208253Y-97792970D01*
X110208247Y-97792972D01*
X110204203Y-97793776D01*
X110200294Y-97795103D01*
X110200290Y-97795104D01*
X109978434Y-97870414D01*
X109923855Y-97888941D01*
X109918439Y-97891612D01*
X109662031Y-98018058D01*
X109662026Y-98018061D01*
X109658327Y-98019885D01*
X109654894Y-98022179D01*
X109415593Y-98182074D01*
X109415588Y-98182078D01*
X109412162Y-98184367D01*
X109409068Y-98187081D01*
X109409062Y-98187085D01*
X109217357Y-98355207D01*
X109189573Y-98379573D01*
X109186864Y-98382662D01*
X108997085Y-98599062D01*
X108997081Y-98599068D01*
X108994367Y-98602162D01*
X108992078Y-98605588D01*
X108992074Y-98605593D01*
X108888583Y-98760479D01*
X108829885Y-98848327D01*
X108698941Y-99113855D01*
X108697616Y-99117760D01*
X108697615Y-99117761D01*
X108607266Y-99383923D01*
X108603776Y-99394203D01*
X108602972Y-99398247D01*
X108602970Y-99398253D01*
X108548921Y-99669977D01*
X108546017Y-99684574D01*
X108545748Y-99688679D01*
X108545747Y-99688686D01*
X108533056Y-99882318D01*
X108526654Y-99980000D01*
X106508000Y-99980000D01*
X106508000Y-88130000D01*
X108406654Y-88130000D01*
X108406924Y-88134119D01*
X108421200Y-88351926D01*
X108426017Y-88425426D01*
X108426819Y-88429459D01*
X108426820Y-88429465D01*
X108481649Y-88705104D01*
X108483776Y-88715797D01*
X108485103Y-88719706D01*
X108485104Y-88719710D01*
X108577615Y-88992239D01*
X108578941Y-88996145D01*
X108640852Y-89121687D01*
X108699115Y-89239833D01*
X108709885Y-89261673D01*
X108712179Y-89265106D01*
X108855234Y-89479203D01*
X108874367Y-89507838D01*
X108877081Y-89510932D01*
X108877085Y-89510938D01*
X109016024Y-89669366D01*
X109069573Y-89730427D01*
X109072662Y-89733136D01*
X109289062Y-89922915D01*
X109289068Y-89922919D01*
X109292162Y-89925633D01*
X109295588Y-89927922D01*
X109295593Y-89927926D01*
X109474455Y-90047437D01*
X109538327Y-90090115D01*
X109542026Y-90091939D01*
X109542031Y-90091942D01*
X109641272Y-90140882D01*
X109803855Y-90221059D01*
X109807760Y-90222384D01*
X109807761Y-90222385D01*
X110080290Y-90314896D01*
X110080294Y-90314897D01*
X110084203Y-90316224D01*
X110088247Y-90317028D01*
X110088253Y-90317030D01*
X110370535Y-90373180D01*
X110370541Y-90373181D01*
X110374574Y-90373983D01*
X110378679Y-90374252D01*
X110378686Y-90374253D01*
X110665881Y-90393076D01*
X110670000Y-90393346D01*
X110674119Y-90393076D01*
X110961314Y-90374253D01*
X110961321Y-90374252D01*
X110965426Y-90373983D01*
X110969459Y-90373181D01*
X110969465Y-90373180D01*
X111251747Y-90317030D01*
X111251753Y-90317028D01*
X111255797Y-90316224D01*
X111259706Y-90314897D01*
X111259710Y-90314896D01*
X111532239Y-90222385D01*
X111532240Y-90222384D01*
X111536145Y-90221059D01*
X111698728Y-90140882D01*
X111797969Y-90091942D01*
X111797974Y-90091939D01*
X111801673Y-90090115D01*
X111865545Y-90047437D01*
X112044407Y-89927926D01*
X112044412Y-89927922D01*
X112047838Y-89925633D01*
X112050932Y-89922919D01*
X112050938Y-89922915D01*
X112267338Y-89733136D01*
X112270427Y-89730427D01*
X112323976Y-89669366D01*
X112462915Y-89510938D01*
X112462919Y-89510932D01*
X112465633Y-89507838D01*
X112484767Y-89479203D01*
X112627821Y-89265106D01*
X112630115Y-89261673D01*
X112640886Y-89239833D01*
X112699148Y-89121687D01*
X112761059Y-88996145D01*
X112762385Y-88992239D01*
X112854896Y-88719710D01*
X112854897Y-88719706D01*
X112856224Y-88715797D01*
X112858351Y-88705104D01*
X112913180Y-88429465D01*
X112913181Y-88429459D01*
X112913983Y-88425426D01*
X112918801Y-88351926D01*
X112926644Y-88232263D01*
X125820064Y-88232263D01*
X125856404Y-88469744D01*
X125893094Y-88581997D01*
X125929434Y-88693183D01*
X125929437Y-88693189D01*
X125931042Y-88698101D01*
X125933429Y-88702687D01*
X125933431Y-88702691D01*
X125940254Y-88715797D01*
X126041975Y-88911200D01*
X126158415Y-89066283D01*
X126183320Y-89132765D01*
X126168328Y-89202161D01*
X126118198Y-89252435D01*
X126101885Y-89259915D01*
X126091707Y-89263731D01*
X126091704Y-89263733D01*
X126083295Y-89266885D01*
X125966739Y-89354239D01*
X125879385Y-89470795D01*
X125828255Y-89607184D01*
X125821500Y-89669366D01*
X125821500Y-91670634D01*
X125828255Y-91732816D01*
X125879385Y-91869205D01*
X125966739Y-91985761D01*
X126083295Y-92073115D01*
X126219684Y-92124245D01*
X126281866Y-92131000D01*
X128378134Y-92131000D01*
X128440316Y-92124245D01*
X128576705Y-92073115D01*
X128693261Y-91985761D01*
X128780615Y-91869205D01*
X128821453Y-91760270D01*
X128864095Y-91703506D01*
X128930656Y-91678806D01*
X128939435Y-91678500D01*
X135191540Y-91678500D01*
X135259661Y-91698502D01*
X135306154Y-91752158D01*
X135316258Y-91822432D01*
X135300659Y-91867500D01*
X135292964Y-91880829D01*
X135265473Y-91928444D01*
X135206458Y-92110072D01*
X135205768Y-92116633D01*
X135205768Y-92116635D01*
X135189442Y-92271974D01*
X135186496Y-92300000D01*
X135187186Y-92306565D01*
X135202964Y-92456680D01*
X135206458Y-92489928D01*
X135265473Y-92671556D01*
X135360960Y-92836944D01*
X135365378Y-92841851D01*
X135365379Y-92841852D01*
X135387858Y-92866817D01*
X135488747Y-92978866D01*
X135580328Y-93045404D01*
X135635297Y-93085341D01*
X135643248Y-93091118D01*
X135649276Y-93093802D01*
X135649278Y-93093803D01*
X135783015Y-93153346D01*
X135817712Y-93168794D01*
X135905255Y-93187402D01*
X135998056Y-93207128D01*
X135998061Y-93207128D01*
X136004513Y-93208500D01*
X136191370Y-93208500D01*
X136220676Y-93212671D01*
X136221855Y-93213181D01*
X136229683Y-93214421D01*
X136229690Y-93214423D01*
X136265524Y-93220099D01*
X136277144Y-93222505D01*
X136312289Y-93231528D01*
X136319970Y-93233500D01*
X136340224Y-93233500D01*
X136359934Y-93235051D01*
X136379943Y-93238220D01*
X136387835Y-93237474D01*
X136423961Y-93234059D01*
X136435819Y-93233500D01*
X145091800Y-93233500D01*
X145159921Y-93253502D01*
X145179147Y-93269843D01*
X145179420Y-93269540D01*
X145184332Y-93273963D01*
X145188747Y-93278866D01*
X145343248Y-93391118D01*
X145349276Y-93393802D01*
X145349278Y-93393803D01*
X145511681Y-93466109D01*
X145517712Y-93468794D01*
X145611113Y-93488647D01*
X145698056Y-93507128D01*
X145698061Y-93507128D01*
X145704513Y-93508500D01*
X145895487Y-93508500D01*
X145901939Y-93507128D01*
X145901944Y-93507128D01*
X145988887Y-93488647D01*
X146082288Y-93468794D01*
X146088319Y-93466109D01*
X146250722Y-93393803D01*
X146250724Y-93393802D01*
X146256752Y-93391118D01*
X146411253Y-93278866D01*
X146447851Y-93238220D01*
X146534621Y-93141852D01*
X146534622Y-93141851D01*
X146539040Y-93136944D01*
X146628275Y-92982385D01*
X146631223Y-92977279D01*
X146631224Y-92977278D01*
X146634527Y-92971556D01*
X146693542Y-92789928D01*
X146713504Y-92600000D01*
X146693542Y-92410072D01*
X146634527Y-92228444D01*
X146539040Y-92063056D01*
X146474289Y-91991142D01*
X146415675Y-91926045D01*
X146415674Y-91926044D01*
X146411253Y-91921134D01*
X146337434Y-91867501D01*
X146333133Y-91864376D01*
X146289779Y-91808153D01*
X146283704Y-91737417D01*
X146316836Y-91674625D01*
X146348430Y-91650983D01*
X146357847Y-91646018D01*
X146511548Y-91521553D01*
X146533276Y-91495474D01*
X146634206Y-91374335D01*
X146634209Y-91374330D01*
X146638147Y-91369604D01*
X146671038Y-91309279D01*
X146729875Y-91201364D01*
X146732822Y-91195959D01*
X146791965Y-91007232D01*
X146792631Y-91001102D01*
X146793751Y-90995742D01*
X146827263Y-90933152D01*
X146889293Y-90898616D01*
X146960148Y-90903098D01*
X147006183Y-90932417D01*
X147622075Y-91548309D01*
X147736261Y-91642103D01*
X147820975Y-91687526D01*
X147880119Y-91719238D01*
X147910563Y-91735562D01*
X148000491Y-91763056D01*
X148093800Y-91791584D01*
X148093802Y-91791584D01*
X148099698Y-91793387D01*
X148150093Y-91798506D01*
X148290334Y-91812752D01*
X148290339Y-91812752D01*
X148296462Y-91813374D01*
X148429541Y-91800794D01*
X148487229Y-91795341D01*
X148487231Y-91795341D01*
X148493362Y-91794761D01*
X148636001Y-91752239D01*
X148676993Y-91740019D01*
X148676995Y-91740018D01*
X148682896Y-91738259D01*
X148857846Y-91646018D01*
X149011547Y-91521553D01*
X149033275Y-91495474D01*
X149134205Y-91374335D01*
X149134208Y-91374330D01*
X149138146Y-91369604D01*
X149171037Y-91309279D01*
X149229874Y-91201364D01*
X149232821Y-91195959D01*
X149291965Y-91007232D01*
X149293214Y-90995742D01*
X149312659Y-90816736D01*
X149312659Y-90816732D01*
X149313324Y-90810611D01*
X149296087Y-90613587D01*
X149290564Y-90594574D01*
X149272776Y-90533351D01*
X149272979Y-90462355D01*
X149311533Y-90402739D01*
X149376197Y-90373430D01*
X149446442Y-90383734D01*
X149482868Y-90409103D01*
X150954595Y-91880829D01*
X150988620Y-91943141D01*
X150991500Y-91969924D01*
X150991500Y-97438157D01*
X150990763Y-97451764D01*
X150986676Y-97489388D01*
X150987213Y-97495523D01*
X150991050Y-97539388D01*
X150991379Y-97544214D01*
X150991500Y-97546686D01*
X150991500Y-97549769D01*
X150991801Y-97552837D01*
X150995690Y-97592506D01*
X150995812Y-97593819D01*
X151003913Y-97686413D01*
X151005400Y-97691532D01*
X151005920Y-97696833D01*
X151032791Y-97785834D01*
X151033126Y-97786967D01*
X151042538Y-97819360D01*
X151059091Y-97876336D01*
X151061544Y-97881068D01*
X151063084Y-97886169D01*
X151065978Y-97891612D01*
X151106731Y-97968260D01*
X151107343Y-97969426D01*
X151146764Y-98045474D01*
X151150108Y-98051926D01*
X151153431Y-98056089D01*
X151155934Y-98060796D01*
X151214755Y-98132918D01*
X151215446Y-98133774D01*
X151246738Y-98172973D01*
X151249242Y-98175477D01*
X151249884Y-98176195D01*
X151253585Y-98180528D01*
X151280935Y-98214062D01*
X151285682Y-98217989D01*
X151285684Y-98217991D01*
X151316262Y-98243287D01*
X151325042Y-98251277D01*
X154443145Y-101369379D01*
X154452247Y-101379522D01*
X154475968Y-101409025D01*
X154514456Y-101441320D01*
X154518075Y-101444478D01*
X154519890Y-101446124D01*
X154522075Y-101448309D01*
X154524455Y-101450264D01*
X154524465Y-101450273D01*
X154555236Y-101475549D01*
X154556251Y-101476391D01*
X154627474Y-101536154D01*
X154632148Y-101538723D01*
X154636261Y-101542102D01*
X154712790Y-101583136D01*
X154718047Y-101585955D01*
X154719207Y-101586584D01*
X154792218Y-101626722D01*
X154800787Y-101631433D01*
X154805869Y-101633045D01*
X154810563Y-101635562D01*
X154899531Y-101662762D01*
X154900559Y-101663082D01*
X154989306Y-101691235D01*
X154994602Y-101691829D01*
X154999698Y-101693387D01*
X155092257Y-101702790D01*
X155093393Y-101702911D01*
X155127008Y-101706681D01*
X155139730Y-101708108D01*
X155139734Y-101708108D01*
X155143227Y-101708500D01*
X155146754Y-101708500D01*
X155147739Y-101708555D01*
X155153419Y-101709002D01*
X155182825Y-101711989D01*
X155190337Y-101712752D01*
X155190339Y-101712752D01*
X155196462Y-101713374D01*
X155242108Y-101709059D01*
X155253967Y-101708500D01*
X155668431Y-101708500D01*
X155736552Y-101728502D01*
X155783045Y-101782158D01*
X155793149Y-101852432D01*
X155769257Y-101910065D01*
X155699385Y-102003295D01*
X155648255Y-102139684D01*
X155641500Y-102201866D01*
X155641500Y-106798134D01*
X155648255Y-106860316D01*
X155699385Y-106996705D01*
X155786739Y-107113261D01*
X155903295Y-107200615D01*
X156039684Y-107251745D01*
X156101866Y-107258500D01*
X158898134Y-107258500D01*
X158960316Y-107251745D01*
X159096705Y-107200615D01*
X159213261Y-107113261D01*
X159300615Y-106996705D01*
X159351745Y-106860316D01*
X159358500Y-106798134D01*
X159358500Y-102488925D01*
X159378502Y-102420804D01*
X159432158Y-102374311D01*
X159502432Y-102364207D01*
X159567012Y-102393701D01*
X159573595Y-102399830D01*
X164523145Y-107349379D01*
X164532247Y-107359522D01*
X164555968Y-107389025D01*
X164560696Y-107392992D01*
X164594421Y-107421291D01*
X164598069Y-107424472D01*
X164599881Y-107426115D01*
X164602075Y-107428309D01*
X164635349Y-107455642D01*
X164636147Y-107456304D01*
X164707474Y-107516154D01*
X164712144Y-107518722D01*
X164716261Y-107522103D01*
X164753815Y-107542239D01*
X164798086Y-107565977D01*
X164799245Y-107566606D01*
X164875381Y-107608462D01*
X164875389Y-107608465D01*
X164880787Y-107611433D01*
X164885869Y-107613045D01*
X164890563Y-107615562D01*
X164979531Y-107642762D01*
X164980559Y-107643082D01*
X165069306Y-107671235D01*
X165074602Y-107671829D01*
X165079698Y-107673387D01*
X165172257Y-107682790D01*
X165173393Y-107682911D01*
X165207008Y-107686681D01*
X165219730Y-107688108D01*
X165219734Y-107688108D01*
X165223227Y-107688500D01*
X165226754Y-107688500D01*
X165227739Y-107688555D01*
X165233419Y-107689002D01*
X165262825Y-107691989D01*
X165270337Y-107692752D01*
X165270339Y-107692752D01*
X165276462Y-107693374D01*
X165322108Y-107689059D01*
X165333967Y-107688500D01*
X168936513Y-107688500D01*
X169004634Y-107708502D01*
X169023564Y-107723406D01*
X169123912Y-107819301D01*
X169160903Y-107844535D01*
X169205904Y-107899444D01*
X169214075Y-107969968D01*
X169182821Y-108033716D01*
X169158340Y-108054411D01*
X169156707Y-108055468D01*
X169152023Y-108058498D01*
X168974330Y-108220186D01*
X168939579Y-108264189D01*
X168828633Y-108404670D01*
X168828630Y-108404675D01*
X168825432Y-108408724D01*
X168822939Y-108413240D01*
X168822937Y-108413243D01*
X168755691Y-108535060D01*
X168709326Y-108619050D01*
X168707602Y-108623919D01*
X168707600Y-108623923D01*
X168630856Y-108840640D01*
X168629130Y-108845515D01*
X168628223Y-108850608D01*
X168628222Y-108850611D01*
X168601437Y-109000984D01*
X168586999Y-109082037D01*
X168586936Y-109087201D01*
X168584741Y-109266887D01*
X168584064Y-109322263D01*
X168620404Y-109559744D01*
X168644853Y-109634545D01*
X168693434Y-109783183D01*
X168693437Y-109783189D01*
X168695042Y-109788101D01*
X168697429Y-109792687D01*
X168697431Y-109792691D01*
X168764297Y-109921138D01*
X168805975Y-110001200D01*
X168950223Y-110193320D01*
X169123912Y-110359301D01*
X169322378Y-110494686D01*
X169327061Y-110496860D01*
X169327065Y-110496862D01*
X169535595Y-110593658D01*
X169535599Y-110593659D01*
X169540290Y-110595837D01*
X169771798Y-110660040D01*
X169776935Y-110660589D01*
X169964593Y-110680644D01*
X169964601Y-110680644D01*
X169967928Y-110681000D01*
X170202402Y-110681000D01*
X170204975Y-110680788D01*
X170204986Y-110680788D01*
X170305946Y-110672487D01*
X170380937Y-110666322D01*
X170613944Y-110607794D01*
X170742771Y-110551779D01*
X170829526Y-110514057D01*
X170829529Y-110514055D01*
X170834263Y-110511997D01*
X171035977Y-110381502D01*
X171213670Y-110219814D01*
X171309633Y-110098304D01*
X171359367Y-110035330D01*
X171359370Y-110035325D01*
X171362568Y-110031276D01*
X171365061Y-110026761D01*
X171365069Y-110026748D01*
X171425314Y-109917615D01*
X171475747Y-109867644D01*
X171519970Y-109854488D01*
X171519845Y-109853502D01*
X171523856Y-109852995D01*
X171535693Y-109852062D01*
X171567951Y-109851048D01*
X171571970Y-109850922D01*
X171579889Y-109850673D01*
X171599343Y-109845021D01*
X171618700Y-109841013D01*
X171630930Y-109839468D01*
X171630931Y-109839468D01*
X171638797Y-109838474D01*
X171646168Y-109835555D01*
X171646170Y-109835555D01*
X171679912Y-109822196D01*
X171691142Y-109818351D01*
X171725983Y-109808229D01*
X171725984Y-109808229D01*
X171733593Y-109806018D01*
X171740412Y-109801985D01*
X171740417Y-109801983D01*
X171751028Y-109795707D01*
X171768776Y-109787012D01*
X171787617Y-109779552D01*
X171823387Y-109753564D01*
X171833307Y-109747048D01*
X171864535Y-109728580D01*
X171864538Y-109728578D01*
X171871362Y-109724542D01*
X171885683Y-109710221D01*
X171900717Y-109697380D01*
X171910694Y-109690131D01*
X171917107Y-109685472D01*
X171945298Y-109651395D01*
X171953288Y-109642616D01*
X172792247Y-108803657D01*
X172800537Y-108796113D01*
X172807018Y-108792000D01*
X172853659Y-108742332D01*
X172856413Y-108739491D01*
X172876134Y-108719770D01*
X172878612Y-108716575D01*
X172886318Y-108707553D01*
X172911158Y-108681101D01*
X172916586Y-108675321D01*
X172926346Y-108657568D01*
X172937199Y-108641045D01*
X172944753Y-108631306D01*
X172949613Y-108625041D01*
X172967176Y-108584457D01*
X172972383Y-108573827D01*
X172993695Y-108535060D01*
X172995666Y-108527383D01*
X172995668Y-108527378D01*
X172998732Y-108515442D01*
X173005138Y-108496730D01*
X173010034Y-108485417D01*
X173013181Y-108478145D01*
X173020097Y-108434481D01*
X173022504Y-108422860D01*
X173031528Y-108387711D01*
X173031528Y-108387710D01*
X173033500Y-108380030D01*
X173033500Y-108359769D01*
X173035051Y-108340058D01*
X173036979Y-108327885D01*
X173038219Y-108320057D01*
X173034059Y-108276046D01*
X173033500Y-108264189D01*
X173033500Y-106680000D01*
X184490654Y-106680000D01*
X184490924Y-106684119D01*
X184509565Y-106968523D01*
X184510017Y-106975426D01*
X184510819Y-106979459D01*
X184510820Y-106979465D01*
X184566970Y-107261747D01*
X184567776Y-107265797D01*
X184569103Y-107269706D01*
X184569104Y-107269710D01*
X184653480Y-107518275D01*
X184662941Y-107546145D01*
X184696005Y-107613192D01*
X184787676Y-107799082D01*
X184793885Y-107811673D01*
X184813816Y-107841502D01*
X184955486Y-108053526D01*
X184958367Y-108057838D01*
X184961081Y-108060932D01*
X184961085Y-108060938D01*
X185127325Y-108250497D01*
X185153573Y-108280427D01*
X185156662Y-108283136D01*
X185373062Y-108472915D01*
X185373068Y-108472919D01*
X185376162Y-108475633D01*
X185379588Y-108477922D01*
X185379593Y-108477926D01*
X185523099Y-108573813D01*
X185622327Y-108640115D01*
X185626026Y-108641939D01*
X185626031Y-108641942D01*
X185705438Y-108681101D01*
X185887855Y-108771059D01*
X185891760Y-108772384D01*
X185891761Y-108772385D01*
X186164290Y-108864896D01*
X186164294Y-108864897D01*
X186168203Y-108866224D01*
X186172247Y-108867028D01*
X186172253Y-108867030D01*
X186454535Y-108923180D01*
X186454541Y-108923181D01*
X186458574Y-108923983D01*
X186462679Y-108924252D01*
X186462686Y-108924253D01*
X186749881Y-108943076D01*
X186754000Y-108943346D01*
X186758119Y-108943076D01*
X187045314Y-108924253D01*
X187045321Y-108924252D01*
X187049426Y-108923983D01*
X187053459Y-108923181D01*
X187053465Y-108923180D01*
X187335747Y-108867030D01*
X187335753Y-108867028D01*
X187339797Y-108866224D01*
X187343706Y-108864897D01*
X187343710Y-108864896D01*
X187616239Y-108772385D01*
X187616240Y-108772384D01*
X187620145Y-108771059D01*
X187802562Y-108681101D01*
X187881969Y-108641942D01*
X187881974Y-108641939D01*
X187885673Y-108640115D01*
X187984901Y-108573813D01*
X188128407Y-108477926D01*
X188128412Y-108477922D01*
X188131838Y-108475633D01*
X188134932Y-108472919D01*
X188134938Y-108472915D01*
X188351338Y-108283136D01*
X188354427Y-108280427D01*
X188380675Y-108250497D01*
X188546915Y-108060938D01*
X188546919Y-108060932D01*
X188549633Y-108057838D01*
X188552515Y-108053526D01*
X188694184Y-107841502D01*
X188714115Y-107811673D01*
X188720325Y-107799082D01*
X188811995Y-107613192D01*
X188845059Y-107546145D01*
X188854520Y-107518275D01*
X188938896Y-107269710D01*
X188938897Y-107269706D01*
X188940224Y-107265797D01*
X188941030Y-107261747D01*
X188997180Y-106979465D01*
X188997181Y-106979459D01*
X188997983Y-106975426D01*
X188998436Y-106968523D01*
X189017076Y-106684119D01*
X189017346Y-106680000D01*
X189011441Y-106589905D01*
X188998253Y-106388686D01*
X188998252Y-106388679D01*
X188997983Y-106384574D01*
X188991755Y-106353261D01*
X188941030Y-106098253D01*
X188941028Y-106098247D01*
X188940224Y-106094203D01*
X188922345Y-106041531D01*
X188846385Y-105817761D01*
X188846384Y-105817760D01*
X188845059Y-105813855D01*
X188743463Y-105607839D01*
X188715942Y-105552031D01*
X188715939Y-105552026D01*
X188714115Y-105548327D01*
X188652695Y-105456405D01*
X188551926Y-105305593D01*
X188551922Y-105305588D01*
X188549633Y-105302162D01*
X188546919Y-105299068D01*
X188546915Y-105299062D01*
X188357136Y-105082662D01*
X188354427Y-105079573D01*
X188351338Y-105076864D01*
X188134938Y-104887085D01*
X188134932Y-104887081D01*
X188131838Y-104884367D01*
X188128412Y-104882078D01*
X188128407Y-104882074D01*
X187889106Y-104722179D01*
X187885673Y-104719885D01*
X187881974Y-104718061D01*
X187881969Y-104718058D01*
X187745687Y-104650852D01*
X187620145Y-104588941D01*
X187616239Y-104587615D01*
X187343710Y-104495104D01*
X187343706Y-104495103D01*
X187339797Y-104493776D01*
X187335753Y-104492972D01*
X187335747Y-104492970D01*
X187053465Y-104436820D01*
X187053459Y-104436819D01*
X187049426Y-104436017D01*
X187045321Y-104435748D01*
X187045314Y-104435747D01*
X186758119Y-104416924D01*
X186754000Y-104416654D01*
X186749881Y-104416924D01*
X186462686Y-104435747D01*
X186462679Y-104435748D01*
X186458574Y-104436017D01*
X186454541Y-104436819D01*
X186454535Y-104436820D01*
X186172253Y-104492970D01*
X186172247Y-104492972D01*
X186168203Y-104493776D01*
X186164294Y-104495103D01*
X186164290Y-104495104D01*
X185891761Y-104587615D01*
X185887855Y-104588941D01*
X185762313Y-104650852D01*
X185626031Y-104718058D01*
X185626026Y-104718061D01*
X185622327Y-104719885D01*
X185618894Y-104722179D01*
X185379593Y-104882074D01*
X185379588Y-104882078D01*
X185376162Y-104884367D01*
X185373068Y-104887081D01*
X185373062Y-104887085D01*
X185156662Y-105076864D01*
X185153573Y-105079573D01*
X185150864Y-105082662D01*
X184961085Y-105299062D01*
X184961081Y-105299068D01*
X184958367Y-105302162D01*
X184956078Y-105305588D01*
X184956074Y-105305593D01*
X184855305Y-105456405D01*
X184793885Y-105548327D01*
X184792061Y-105552026D01*
X184792058Y-105552031D01*
X184764537Y-105607839D01*
X184662941Y-105813855D01*
X184661616Y-105817760D01*
X184661615Y-105817761D01*
X184585656Y-106041531D01*
X184567776Y-106094203D01*
X184566972Y-106098247D01*
X184566970Y-106098253D01*
X184516246Y-106353261D01*
X184510017Y-106384574D01*
X184509748Y-106388679D01*
X184509747Y-106388686D01*
X184496559Y-106589905D01*
X184490654Y-106680000D01*
X173033500Y-106680000D01*
X173033500Y-102178767D01*
X173034027Y-102167584D01*
X173035702Y-102160091D01*
X173035308Y-102147540D01*
X173033562Y-102092014D01*
X173033500Y-102088055D01*
X173033500Y-102060144D01*
X173032995Y-102056144D01*
X173032062Y-102044301D01*
X173031430Y-102024174D01*
X173030673Y-102000110D01*
X173025022Y-101980658D01*
X173021014Y-101961306D01*
X173019467Y-101949063D01*
X173018474Y-101941203D01*
X173006146Y-101910065D01*
X173002200Y-101900097D01*
X172998355Y-101888870D01*
X172992990Y-101870405D01*
X172986018Y-101846407D01*
X172981984Y-101839585D01*
X172981981Y-101839579D01*
X172975706Y-101828968D01*
X172967010Y-101811218D01*
X172962472Y-101799756D01*
X172962469Y-101799751D01*
X172959552Y-101792383D01*
X172933573Y-101756625D01*
X172927057Y-101746707D01*
X172911503Y-101720407D01*
X172904542Y-101708637D01*
X172890218Y-101694313D01*
X172877376Y-101679278D01*
X172865472Y-101662893D01*
X172831406Y-101634711D01*
X172822627Y-101626722D01*
X172003652Y-100807747D01*
X171996112Y-100799461D01*
X171992000Y-100792982D01*
X171942348Y-100746356D01*
X171939507Y-100743602D01*
X171919770Y-100723865D01*
X171916573Y-100721385D01*
X171907551Y-100713680D01*
X171900570Y-100707124D01*
X171875321Y-100683414D01*
X171868375Y-100679595D01*
X171868372Y-100679593D01*
X171857566Y-100673652D01*
X171841047Y-100662801D01*
X171840583Y-100662441D01*
X171825041Y-100650386D01*
X171817772Y-100647241D01*
X171817768Y-100647238D01*
X171784463Y-100632826D01*
X171773813Y-100627609D01*
X171735060Y-100606305D01*
X171715437Y-100601267D01*
X171696734Y-100594863D01*
X171685420Y-100589967D01*
X171685419Y-100589967D01*
X171678145Y-100586819D01*
X171670322Y-100585580D01*
X171670312Y-100585577D01*
X171634476Y-100579901D01*
X171622856Y-100577495D01*
X171587711Y-100568472D01*
X171587710Y-100568472D01*
X171580030Y-100566500D01*
X171559776Y-100566500D01*
X171540065Y-100564949D01*
X171527886Y-100563020D01*
X171520057Y-100561780D01*
X171512165Y-100562526D01*
X171476039Y-100565941D01*
X171464181Y-100566500D01*
X165714594Y-100566500D01*
X165646473Y-100546498D01*
X165625499Y-100529595D01*
X162977548Y-97881643D01*
X160303652Y-95207747D01*
X160296112Y-95199461D01*
X160292000Y-95192982D01*
X160242348Y-95146356D01*
X160239507Y-95143602D01*
X160219770Y-95123865D01*
X160216573Y-95121385D01*
X160207551Y-95113680D01*
X160175321Y-95083414D01*
X160168375Y-95079595D01*
X160168372Y-95079593D01*
X160157566Y-95073652D01*
X160141047Y-95062801D01*
X160135048Y-95058148D01*
X160125041Y-95050386D01*
X160117772Y-95047241D01*
X160117768Y-95047238D01*
X160084463Y-95032826D01*
X160073813Y-95027609D01*
X160035060Y-95006305D01*
X160015437Y-95001267D01*
X159996734Y-94994863D01*
X159985420Y-94989967D01*
X159985419Y-94989967D01*
X159978145Y-94986819D01*
X159970322Y-94985580D01*
X159970312Y-94985577D01*
X159934476Y-94979901D01*
X159922856Y-94977495D01*
X159887711Y-94968472D01*
X159887710Y-94968472D01*
X159880030Y-94966500D01*
X159859776Y-94966500D01*
X159840065Y-94964949D01*
X159827886Y-94963020D01*
X159820057Y-94961780D01*
X159812165Y-94962526D01*
X159776039Y-94965941D01*
X159764181Y-94966500D01*
X159484500Y-94966500D01*
X159416379Y-94946498D01*
X159369886Y-94892842D01*
X159358500Y-94840500D01*
X159358500Y-94401866D01*
X159351745Y-94339684D01*
X159300615Y-94203295D01*
X159213261Y-94086739D01*
X159096705Y-93999385D01*
X158960316Y-93948255D01*
X158898134Y-93941500D01*
X156789594Y-93941500D01*
X156721473Y-93921498D01*
X156700499Y-93904595D01*
X156328167Y-93532263D01*
X175050064Y-93532263D01*
X175086404Y-93769744D01*
X175123094Y-93881997D01*
X175159434Y-93993183D01*
X175159437Y-93993189D01*
X175161042Y-93998101D01*
X175271975Y-94211200D01*
X175275085Y-94215342D01*
X175412581Y-94398469D01*
X175416223Y-94403320D01*
X175589912Y-94569301D01*
X175594184Y-94572215D01*
X175766256Y-94689595D01*
X175788378Y-94704686D01*
X175793061Y-94706860D01*
X175793065Y-94706862D01*
X176001595Y-94803658D01*
X176001599Y-94803659D01*
X176006290Y-94805837D01*
X176237798Y-94870040D01*
X176242935Y-94870589D01*
X176430593Y-94890644D01*
X176430601Y-94890644D01*
X176433928Y-94891000D01*
X176668402Y-94891000D01*
X176670975Y-94890788D01*
X176670986Y-94890788D01*
X176771946Y-94882487D01*
X176846937Y-94876322D01*
X177079944Y-94817794D01*
X177279084Y-94731206D01*
X177295526Y-94724057D01*
X177295529Y-94724055D01*
X177300263Y-94721997D01*
X177431470Y-94637115D01*
X177497637Y-94594310D01*
X177497640Y-94594308D01*
X177501977Y-94591502D01*
X177679670Y-94429814D01*
X177756694Y-94332285D01*
X177825367Y-94245330D01*
X177825370Y-94245325D01*
X177828568Y-94241276D01*
X177842885Y-94215342D01*
X177942177Y-94035474D01*
X177942179Y-94035470D01*
X177944674Y-94030950D01*
X177976220Y-93941869D01*
X178023144Y-93809360D01*
X178023145Y-93809356D01*
X178024870Y-93804485D01*
X178030183Y-93774659D01*
X178066095Y-93573052D01*
X178066096Y-93573046D01*
X178067001Y-93567963D01*
X178069669Y-93349594D01*
X178069873Y-93332907D01*
X178069873Y-93332905D01*
X178069936Y-93327737D01*
X178033596Y-93090256D01*
X177992745Y-92965271D01*
X177960566Y-92866817D01*
X177960563Y-92866811D01*
X177958958Y-92861899D01*
X177951630Y-92847821D01*
X177850416Y-92653393D01*
X177848025Y-92648800D01*
X177729115Y-92490427D01*
X177706882Y-92460815D01*
X177706880Y-92460812D01*
X177703777Y-92456680D01*
X177530088Y-92290699D01*
X177493097Y-92265465D01*
X177448096Y-92210556D01*
X177439925Y-92140032D01*
X177471179Y-92076284D01*
X177495660Y-92055589D01*
X177497635Y-92054311D01*
X177501977Y-92051502D01*
X177679670Y-91889814D01*
X177757247Y-91791584D01*
X177825367Y-91705330D01*
X177825370Y-91705325D01*
X177828568Y-91701276D01*
X177833775Y-91691845D01*
X177942177Y-91495474D01*
X177942179Y-91495470D01*
X177944674Y-91490950D01*
X177948655Y-91479710D01*
X178023144Y-91269360D01*
X178023145Y-91269356D01*
X178024870Y-91264485D01*
X178030183Y-91234659D01*
X178066095Y-91033052D01*
X178066096Y-91033046D01*
X178067001Y-91027963D01*
X178068686Y-90890000D01*
X190956654Y-90890000D01*
X190956924Y-90894119D01*
X190972267Y-91128206D01*
X190976017Y-91185426D01*
X190976819Y-91189459D01*
X190976820Y-91189465D01*
X191032970Y-91471747D01*
X191033776Y-91475797D01*
X191035103Y-91479706D01*
X191035104Y-91479710D01*
X191126326Y-91748442D01*
X191128941Y-91756145D01*
X191151636Y-91802166D01*
X191244829Y-91991142D01*
X191259885Y-92021673D01*
X191279816Y-92051502D01*
X191398045Y-92228444D01*
X191424367Y-92267838D01*
X191427081Y-92270932D01*
X191427085Y-92270938D01*
X191593604Y-92460815D01*
X191619573Y-92490427D01*
X191622662Y-92493136D01*
X191839062Y-92682915D01*
X191839068Y-92682919D01*
X191842162Y-92685633D01*
X191845588Y-92687922D01*
X191845593Y-92687926D01*
X191988428Y-92783365D01*
X192088327Y-92850115D01*
X192092026Y-92851939D01*
X192092031Y-92851942D01*
X192122195Y-92866817D01*
X192353855Y-92981059D01*
X192357760Y-92982384D01*
X192357761Y-92982385D01*
X192630290Y-93074896D01*
X192630294Y-93074897D01*
X192634203Y-93076224D01*
X192638247Y-93077028D01*
X192638253Y-93077030D01*
X192920535Y-93133180D01*
X192920541Y-93133181D01*
X192924574Y-93133983D01*
X192928679Y-93134252D01*
X192928686Y-93134253D01*
X193215881Y-93153076D01*
X193220000Y-93153346D01*
X193224119Y-93153076D01*
X193511314Y-93134253D01*
X193511321Y-93134252D01*
X193515426Y-93133983D01*
X193519459Y-93133181D01*
X193519465Y-93133180D01*
X193801747Y-93077030D01*
X193801753Y-93077028D01*
X193805797Y-93076224D01*
X193809706Y-93074897D01*
X193809710Y-93074896D01*
X194082239Y-92982385D01*
X194082240Y-92982384D01*
X194086145Y-92981059D01*
X194317805Y-92866817D01*
X194347969Y-92851942D01*
X194347974Y-92851939D01*
X194351673Y-92850115D01*
X194451572Y-92783365D01*
X194594407Y-92687926D01*
X194594412Y-92687922D01*
X194597838Y-92685633D01*
X194600932Y-92682919D01*
X194600938Y-92682915D01*
X194817338Y-92493136D01*
X194820427Y-92490427D01*
X194846396Y-92460815D01*
X195012915Y-92270938D01*
X195012919Y-92270932D01*
X195015633Y-92267838D01*
X195041956Y-92228444D01*
X195160184Y-92051502D01*
X195180115Y-92021673D01*
X195195172Y-91991142D01*
X195288364Y-91802166D01*
X195311059Y-91756145D01*
X195313674Y-91748442D01*
X195404896Y-91479710D01*
X195404897Y-91479706D01*
X195406224Y-91475797D01*
X195407030Y-91471747D01*
X195463180Y-91189465D01*
X195463181Y-91189459D01*
X195463983Y-91185426D01*
X195467734Y-91128206D01*
X195483076Y-90894119D01*
X195483346Y-90890000D01*
X195476982Y-90792907D01*
X195464253Y-90598686D01*
X195464252Y-90598679D01*
X195463983Y-90594574D01*
X195455530Y-90552075D01*
X195407030Y-90308253D01*
X195407028Y-90308247D01*
X195406224Y-90304203D01*
X195402735Y-90293923D01*
X195312385Y-90027761D01*
X195312384Y-90027760D01*
X195311059Y-90023855D01*
X195209463Y-89817839D01*
X195181942Y-89762031D01*
X195181939Y-89762026D01*
X195180115Y-89758327D01*
X195120673Y-89669366D01*
X195017926Y-89515593D01*
X195017922Y-89515588D01*
X195015633Y-89512162D01*
X195012919Y-89509068D01*
X195012915Y-89509062D01*
X194823136Y-89292662D01*
X194820427Y-89289573D01*
X194800698Y-89272271D01*
X194600938Y-89097085D01*
X194600932Y-89097081D01*
X194597838Y-89094367D01*
X194594412Y-89092078D01*
X194594407Y-89092074D01*
X194355106Y-88932179D01*
X194351673Y-88929885D01*
X194347974Y-88928061D01*
X194347969Y-88928058D01*
X194211687Y-88860852D01*
X194086145Y-88798941D01*
X194082239Y-88797615D01*
X193809710Y-88705104D01*
X193809706Y-88705103D01*
X193805797Y-88703776D01*
X193801753Y-88702972D01*
X193801747Y-88702970D01*
X193519465Y-88646820D01*
X193519459Y-88646819D01*
X193515426Y-88646017D01*
X193511321Y-88645748D01*
X193511314Y-88645747D01*
X193224119Y-88626924D01*
X193220000Y-88626654D01*
X193215881Y-88626924D01*
X192928686Y-88645747D01*
X192928679Y-88645748D01*
X192924574Y-88646017D01*
X192920541Y-88646819D01*
X192920535Y-88646820D01*
X192638253Y-88702970D01*
X192638247Y-88702972D01*
X192634203Y-88703776D01*
X192630294Y-88705103D01*
X192630290Y-88705104D01*
X192357761Y-88797615D01*
X192353855Y-88798941D01*
X192228313Y-88860852D01*
X192092031Y-88928058D01*
X192092026Y-88928061D01*
X192088327Y-88929885D01*
X192084894Y-88932179D01*
X191845593Y-89092074D01*
X191845588Y-89092078D01*
X191842162Y-89094367D01*
X191839068Y-89097081D01*
X191839062Y-89097085D01*
X191639302Y-89272271D01*
X191619573Y-89289573D01*
X191616864Y-89292662D01*
X191427085Y-89509062D01*
X191427081Y-89509068D01*
X191424367Y-89512162D01*
X191422078Y-89515588D01*
X191422074Y-89515593D01*
X191319327Y-89669366D01*
X191259885Y-89758327D01*
X191258061Y-89762026D01*
X191258058Y-89762031D01*
X191230537Y-89817839D01*
X191128941Y-90023855D01*
X191127616Y-90027760D01*
X191127615Y-90027761D01*
X191037266Y-90293923D01*
X191033776Y-90304203D01*
X191032972Y-90308247D01*
X191032970Y-90308253D01*
X190984471Y-90552075D01*
X190976017Y-90594574D01*
X190975748Y-90598679D01*
X190975747Y-90598686D01*
X190963018Y-90792907D01*
X190956654Y-90890000D01*
X178068686Y-90890000D01*
X178068799Y-90880782D01*
X178069873Y-90792907D01*
X178069873Y-90792905D01*
X178069936Y-90787737D01*
X178033596Y-90550256D01*
X177992219Y-90423663D01*
X177960566Y-90326817D01*
X177960563Y-90326811D01*
X177958958Y-90321899D01*
X177956424Y-90317030D01*
X177850416Y-90113393D01*
X177848025Y-90108800D01*
X177731585Y-89953717D01*
X177706680Y-89887235D01*
X177721672Y-89817839D01*
X177771802Y-89767565D01*
X177788115Y-89760085D01*
X177798293Y-89756269D01*
X177798296Y-89756267D01*
X177806705Y-89753115D01*
X177923261Y-89665761D01*
X178010615Y-89549205D01*
X178061745Y-89412816D01*
X178068500Y-89350634D01*
X178068500Y-87349366D01*
X178061745Y-87287184D01*
X178010615Y-87150795D01*
X177923261Y-87034239D01*
X177806705Y-86946885D01*
X177670316Y-86895755D01*
X177608134Y-86889000D01*
X175511866Y-86889000D01*
X175449684Y-86895755D01*
X175313295Y-86946885D01*
X175196739Y-87034239D01*
X175109385Y-87150795D01*
X175058255Y-87287184D01*
X175051500Y-87349366D01*
X175051500Y-89350634D01*
X175058255Y-89412816D01*
X175109385Y-89549205D01*
X175196739Y-89665761D01*
X175313295Y-89753115D01*
X175333189Y-89760573D01*
X175389953Y-89803213D01*
X175414654Y-89869774D01*
X175399447Y-89939123D01*
X175387842Y-89956647D01*
X175294633Y-90074670D01*
X175294630Y-90074675D01*
X175291432Y-90078724D01*
X175288939Y-90083240D01*
X175288937Y-90083243D01*
X175177823Y-90284526D01*
X175175326Y-90289050D01*
X175173602Y-90293919D01*
X175173600Y-90293923D01*
X175113955Y-90462355D01*
X175095130Y-90515515D01*
X175094223Y-90520608D01*
X175094222Y-90520611D01*
X175068202Y-90666689D01*
X175052999Y-90752037D01*
X175050064Y-90992263D01*
X175086404Y-91229744D01*
X175108475Y-91297271D01*
X175159434Y-91453183D01*
X175159437Y-91453189D01*
X175161042Y-91458101D01*
X175163429Y-91462687D01*
X175163431Y-91462691D01*
X175209020Y-91550266D01*
X175271975Y-91671200D01*
X175275085Y-91675342D01*
X175340943Y-91763056D01*
X175416223Y-91863320D01*
X175589912Y-92029301D01*
X175626903Y-92054535D01*
X175671904Y-92109444D01*
X175680075Y-92179968D01*
X175648821Y-92243716D01*
X175624340Y-92264411D01*
X175622707Y-92265468D01*
X175618023Y-92268498D01*
X175440330Y-92430186D01*
X175416141Y-92460815D01*
X175294633Y-92614670D01*
X175294630Y-92614675D01*
X175291432Y-92618724D01*
X175288939Y-92623240D01*
X175288937Y-92623243D01*
X175177823Y-92824526D01*
X175175326Y-92829050D01*
X175173602Y-92833919D01*
X175173600Y-92833923D01*
X175096856Y-93050640D01*
X175095130Y-93055515D01*
X175094223Y-93060608D01*
X175094222Y-93060611D01*
X175054881Y-93281473D01*
X175052999Y-93292037D01*
X175050064Y-93532263D01*
X156328167Y-93532263D01*
X155070405Y-92274500D01*
X155036379Y-92212188D01*
X155033500Y-92185405D01*
X155033500Y-91816563D01*
X155053502Y-91748442D01*
X155107158Y-91701949D01*
X155177432Y-91691845D01*
X155233560Y-91714626D01*
X155245248Y-91723118D01*
X155251276Y-91725802D01*
X155251278Y-91725803D01*
X155407464Y-91795341D01*
X155419712Y-91800794D01*
X155493899Y-91816563D01*
X155600056Y-91839128D01*
X155600061Y-91839128D01*
X155606513Y-91840500D01*
X155797487Y-91840500D01*
X155803939Y-91839128D01*
X155803944Y-91839128D01*
X155910101Y-91816563D01*
X155984288Y-91800794D01*
X155996536Y-91795341D01*
X156152722Y-91725803D01*
X156152724Y-91725802D01*
X156158752Y-91723118D01*
X156185746Y-91703506D01*
X156260920Y-91648888D01*
X156313253Y-91610866D01*
X156317675Y-91605955D01*
X156436621Y-91473852D01*
X156436622Y-91473851D01*
X156441040Y-91468944D01*
X156536527Y-91303556D01*
X156595542Y-91121928D01*
X156612907Y-90956706D01*
X156639920Y-90891050D01*
X156649122Y-90880782D01*
X157992247Y-89537657D01*
X158000537Y-89530113D01*
X158007018Y-89526000D01*
X158053659Y-89476332D01*
X158056413Y-89473491D01*
X158076134Y-89453770D01*
X158078612Y-89450575D01*
X158086318Y-89441553D01*
X158111158Y-89415101D01*
X158116586Y-89409321D01*
X158126346Y-89391568D01*
X158137199Y-89375045D01*
X158144753Y-89365306D01*
X158149613Y-89359041D01*
X158167176Y-89318457D01*
X158172383Y-89307827D01*
X158193695Y-89269060D01*
X158195666Y-89261383D01*
X158195668Y-89261378D01*
X158198732Y-89249442D01*
X158205138Y-89230730D01*
X158210034Y-89219417D01*
X158213181Y-89212145D01*
X158214763Y-89202161D01*
X158220097Y-89168481D01*
X158222504Y-89156860D01*
X158231528Y-89121711D01*
X158231528Y-89121710D01*
X158233500Y-89114030D01*
X158233500Y-89093769D01*
X158235051Y-89074058D01*
X158236979Y-89061885D01*
X158238219Y-89054057D01*
X158234059Y-89010046D01*
X158233500Y-88998189D01*
X158233500Y-81602524D01*
X158253502Y-81534403D01*
X158265858Y-81518221D01*
X158339040Y-81436944D01*
X158434527Y-81271556D01*
X158493542Y-81089928D01*
X158513504Y-80900000D01*
X158493542Y-80710072D01*
X158434527Y-80528444D01*
X158339040Y-80363056D01*
X158219603Y-80230407D01*
X158215675Y-80226045D01*
X158215674Y-80226044D01*
X158211253Y-80221134D01*
X158056752Y-80108882D01*
X158050724Y-80106198D01*
X158050722Y-80106197D01*
X157888319Y-80033891D01*
X157888318Y-80033891D01*
X157882288Y-80031206D01*
X157788888Y-80011353D01*
X157701944Y-79992872D01*
X157701939Y-79992872D01*
X157695487Y-79991500D01*
X157504513Y-79991500D01*
X157498061Y-79992872D01*
X157498056Y-79992872D01*
X157411112Y-80011353D01*
X157317712Y-80031206D01*
X157311682Y-80033891D01*
X157311681Y-80033891D01*
X157149278Y-80106197D01*
X157149276Y-80106198D01*
X157143248Y-80108882D01*
X156988747Y-80221134D01*
X156984326Y-80226044D01*
X156984325Y-80226045D01*
X156980398Y-80230407D01*
X156860960Y-80363056D01*
X156765473Y-80528444D01*
X156706458Y-80710072D01*
X156686496Y-80900000D01*
X156706458Y-81089928D01*
X156765473Y-81271556D01*
X156860960Y-81436944D01*
X156934137Y-81518215D01*
X156964853Y-81582221D01*
X156966500Y-81602524D01*
X156966500Y-86486639D01*
X156946498Y-86554760D01*
X156892842Y-86601253D01*
X156822568Y-86611357D01*
X156766440Y-86588576D01*
X156656752Y-86508882D01*
X156650724Y-86506198D01*
X156650722Y-86506197D01*
X156488319Y-86433891D01*
X156488318Y-86433891D01*
X156482288Y-86431206D01*
X156360552Y-86405330D01*
X156301944Y-86392872D01*
X156301939Y-86392872D01*
X156295487Y-86391500D01*
X156104513Y-86391500D01*
X156098061Y-86392872D01*
X156098056Y-86392872D01*
X156039448Y-86405330D01*
X155917712Y-86431206D01*
X155911682Y-86433891D01*
X155911681Y-86433891D01*
X155749278Y-86506197D01*
X155749276Y-86506198D01*
X155743248Y-86508882D01*
X155588747Y-86621134D01*
X155460960Y-86763056D01*
X155434178Y-86809444D01*
X155384839Y-86894902D01*
X155365473Y-86928444D01*
X155306458Y-87110072D01*
X155305768Y-87116633D01*
X155305768Y-87116635D01*
X155302933Y-87143609D01*
X155289885Y-87267761D01*
X155289093Y-87275292D01*
X155262080Y-87340949D01*
X155252878Y-87351217D01*
X154264595Y-88339500D01*
X154202283Y-88373526D01*
X154131468Y-88368461D01*
X154074632Y-88325914D01*
X154049821Y-88259394D01*
X154049500Y-88250405D01*
X154049500Y-85030524D01*
X154069502Y-84962403D01*
X154081858Y-84946221D01*
X154155040Y-84864944D01*
X154250527Y-84699556D01*
X154309542Y-84517928D01*
X154316233Y-84454272D01*
X154328814Y-84334565D01*
X154329504Y-84328000D01*
X154326135Y-84295943D01*
X154310232Y-84144635D01*
X154310232Y-84144633D01*
X154309542Y-84138072D01*
X154250527Y-83956444D01*
X154155040Y-83791056D01*
X154027253Y-83649134D01*
X153872752Y-83536882D01*
X153866724Y-83534198D01*
X153866722Y-83534197D01*
X153704319Y-83461891D01*
X153704318Y-83461891D01*
X153698288Y-83459206D01*
X153604888Y-83439353D01*
X153517944Y-83420872D01*
X153517939Y-83420872D01*
X153511487Y-83419500D01*
X153320513Y-83419500D01*
X153314061Y-83420872D01*
X153314056Y-83420872D01*
X153227112Y-83439353D01*
X153133712Y-83459206D01*
X153127682Y-83461891D01*
X153127681Y-83461891D01*
X152965278Y-83534197D01*
X152965276Y-83534198D01*
X152959248Y-83536882D01*
X152804747Y-83649134D01*
X152676960Y-83791056D01*
X152581473Y-83956444D01*
X152522458Y-84138072D01*
X152521768Y-84144633D01*
X152521768Y-84144635D01*
X152505865Y-84295943D01*
X152502496Y-84328000D01*
X152503186Y-84334565D01*
X152515768Y-84454272D01*
X152522458Y-84517928D01*
X152581473Y-84699556D01*
X152676960Y-84864944D01*
X152750137Y-84946215D01*
X152780853Y-85010221D01*
X152782500Y-85030524D01*
X152782500Y-90552075D01*
X152762498Y-90620196D01*
X152708842Y-90666689D01*
X152638568Y-90676793D01*
X152573988Y-90647299D01*
X152567405Y-90641170D01*
X148980107Y-87053873D01*
X148977925Y-87051691D01*
X148863739Y-86957897D01*
X148689437Y-86864438D01*
X148509562Y-86809444D01*
X148506200Y-86808416D01*
X148506198Y-86808416D01*
X148500302Y-86806613D01*
X148442449Y-86800736D01*
X148309666Y-86787248D01*
X148309661Y-86787248D01*
X148303538Y-86786626D01*
X148179475Y-86798354D01*
X148112771Y-86804659D01*
X148112769Y-86804659D01*
X148106638Y-86805239D01*
X148011871Y-86833490D01*
X147923007Y-86859981D01*
X147923005Y-86859982D01*
X147917104Y-86861741D01*
X147742154Y-86953982D01*
X147737368Y-86957858D01*
X147737366Y-86957859D01*
X147623910Y-87049734D01*
X147588453Y-87078447D01*
X147584508Y-87083182D01*
X147485898Y-87201538D01*
X147461854Y-87230396D01*
X147367178Y-87404041D01*
X147360365Y-87425782D01*
X147329421Y-87524526D01*
X147308035Y-87592768D01*
X147307370Y-87598891D01*
X147307369Y-87598895D01*
X147289802Y-87760611D01*
X147286676Y-87789388D01*
X147303913Y-87986413D01*
X147308920Y-88003647D01*
X147327224Y-88066650D01*
X147327021Y-88137646D01*
X147288467Y-88197263D01*
X147223802Y-88226571D01*
X147153558Y-88216267D01*
X147117132Y-88190898D01*
X146386855Y-87460621D01*
X146377753Y-87450478D01*
X146357897Y-87425782D01*
X146354032Y-87420975D01*
X146315578Y-87388708D01*
X146311931Y-87385528D01*
X146310119Y-87383885D01*
X146307925Y-87381691D01*
X146274651Y-87354358D01*
X146273853Y-87353696D01*
X146202526Y-87293846D01*
X146197856Y-87291278D01*
X146193739Y-87287897D01*
X146111914Y-87244023D01*
X146110755Y-87243394D01*
X146034619Y-87201538D01*
X146034611Y-87201535D01*
X146029213Y-87198567D01*
X146024131Y-87196955D01*
X146019437Y-87194438D01*
X145930469Y-87167238D01*
X145929441Y-87166918D01*
X145840694Y-87138765D01*
X145835398Y-87138171D01*
X145830302Y-87136613D01*
X145737743Y-87127210D01*
X145736607Y-87127089D01*
X145702992Y-87123319D01*
X145690270Y-87121892D01*
X145690266Y-87121892D01*
X145686773Y-87121500D01*
X145683246Y-87121500D01*
X145682261Y-87121445D01*
X145676581Y-87120998D01*
X145647175Y-87118011D01*
X145639663Y-87117248D01*
X145639661Y-87117248D01*
X145633538Y-87116626D01*
X145591259Y-87120623D01*
X145587891Y-87120941D01*
X145576033Y-87121500D01*
X128487487Y-87121500D01*
X128419366Y-87101498D01*
X128400436Y-87086594D01*
X128303825Y-86994270D01*
X128303824Y-86994269D01*
X128300088Y-86990699D01*
X128263097Y-86965465D01*
X128218096Y-86910556D01*
X128209925Y-86840032D01*
X128241179Y-86776284D01*
X128265660Y-86755589D01*
X128267635Y-86754311D01*
X128271977Y-86751502D01*
X128449670Y-86589814D01*
X128531153Y-86486639D01*
X128595367Y-86405330D01*
X128595370Y-86405325D01*
X128598568Y-86401276D01*
X128603208Y-86392872D01*
X128712177Y-86195474D01*
X128712179Y-86195470D01*
X128714674Y-86190950D01*
X128721322Y-86172179D01*
X128793144Y-85969360D01*
X128793145Y-85969356D01*
X128794870Y-85964485D01*
X128795778Y-85959389D01*
X128836095Y-85733052D01*
X128836096Y-85733046D01*
X128837001Y-85727963D01*
X128839936Y-85487737D01*
X128803596Y-85250256D01*
X128766906Y-85138003D01*
X128730566Y-85026817D01*
X128730563Y-85026811D01*
X128728958Y-85021899D01*
X128618025Y-84808800D01*
X128473777Y-84616680D01*
X128300088Y-84450699D01*
X128101622Y-84315314D01*
X128096939Y-84313140D01*
X128096935Y-84313138D01*
X127888405Y-84216342D01*
X127888401Y-84216341D01*
X127883710Y-84214163D01*
X127652202Y-84149960D01*
X127647065Y-84149411D01*
X127459407Y-84129356D01*
X127459399Y-84129356D01*
X127456072Y-84129000D01*
X127221598Y-84129000D01*
X127219025Y-84129212D01*
X127219014Y-84129212D01*
X127118054Y-84137513D01*
X127043063Y-84143678D01*
X126810056Y-84202206D01*
X126681229Y-84258221D01*
X126594474Y-84295943D01*
X126594471Y-84295945D01*
X126589737Y-84298003D01*
X126388023Y-84428498D01*
X126210330Y-84590186D01*
X126186141Y-84620815D01*
X126064633Y-84774670D01*
X126064630Y-84774675D01*
X126061432Y-84778724D01*
X126058939Y-84783240D01*
X126058937Y-84783243D01*
X125947823Y-84984526D01*
X125945326Y-84989050D01*
X125865130Y-85215515D01*
X125864223Y-85220608D01*
X125864222Y-85220611D01*
X125858942Y-85250256D01*
X125822999Y-85452037D01*
X125820064Y-85692263D01*
X125856404Y-85929744D01*
X125891661Y-86037615D01*
X125929434Y-86153183D01*
X125929437Y-86153189D01*
X125931042Y-86158101D01*
X125933429Y-86162687D01*
X125933431Y-86162691D01*
X125945605Y-86186077D01*
X126041975Y-86371200D01*
X126045085Y-86375342D01*
X126148264Y-86512763D01*
X126186223Y-86563320D01*
X126359912Y-86729301D01*
X126396903Y-86754535D01*
X126441904Y-86809444D01*
X126450075Y-86879968D01*
X126418821Y-86943716D01*
X126394340Y-86964411D01*
X126392707Y-86965468D01*
X126388023Y-86968498D01*
X126210330Y-87130186D01*
X126181194Y-87167079D01*
X126064633Y-87314670D01*
X126064630Y-87314675D01*
X126061432Y-87318724D01*
X126058939Y-87323240D01*
X126058937Y-87323243D01*
X125947823Y-87524526D01*
X125945326Y-87529050D01*
X125943602Y-87533919D01*
X125943600Y-87533923D01*
X125924845Y-87586886D01*
X125865130Y-87755515D01*
X125864223Y-87760608D01*
X125864222Y-87760611D01*
X125824001Y-87986413D01*
X125822999Y-87992037D01*
X125822936Y-87997201D01*
X125820134Y-88226571D01*
X125820064Y-88232263D01*
X112926644Y-88232263D01*
X112933076Y-88134119D01*
X112933346Y-88130000D01*
X112929194Y-88066650D01*
X112914253Y-87838686D01*
X112914252Y-87838679D01*
X112913983Y-87834574D01*
X112906216Y-87795523D01*
X112857030Y-87548253D01*
X112857028Y-87548247D01*
X112856224Y-87544203D01*
X112852735Y-87533923D01*
X112762385Y-87267761D01*
X112762384Y-87267760D01*
X112761059Y-87263855D01*
X112680993Y-87101498D01*
X112631942Y-87002031D01*
X112631939Y-87002026D01*
X112630115Y-86998327D01*
X112540771Y-86864614D01*
X112467926Y-86755593D01*
X112467922Y-86755588D01*
X112465633Y-86752162D01*
X112462919Y-86749068D01*
X112462915Y-86749062D01*
X112273136Y-86532662D01*
X112270427Y-86529573D01*
X112161323Y-86433891D01*
X112050938Y-86337085D01*
X112050932Y-86337081D01*
X112047838Y-86334367D01*
X112044412Y-86332078D01*
X112044407Y-86332074D01*
X111805106Y-86172179D01*
X111801673Y-86169885D01*
X111797974Y-86168061D01*
X111797969Y-86168058D01*
X111661687Y-86100852D01*
X111536145Y-86038941D01*
X111532239Y-86037615D01*
X111259710Y-85945104D01*
X111259706Y-85945103D01*
X111255797Y-85943776D01*
X111251753Y-85942972D01*
X111251747Y-85942970D01*
X110969465Y-85886820D01*
X110969459Y-85886819D01*
X110965426Y-85886017D01*
X110961321Y-85885748D01*
X110961314Y-85885747D01*
X110674119Y-85866924D01*
X110670000Y-85866654D01*
X110665881Y-85866924D01*
X110378686Y-85885747D01*
X110378679Y-85885748D01*
X110374574Y-85886017D01*
X110370541Y-85886819D01*
X110370535Y-85886820D01*
X110088253Y-85942970D01*
X110088247Y-85942972D01*
X110084203Y-85943776D01*
X110080294Y-85945103D01*
X110080290Y-85945104D01*
X109807761Y-86037615D01*
X109803855Y-86038941D01*
X109678313Y-86100852D01*
X109542031Y-86168058D01*
X109542026Y-86168061D01*
X109538327Y-86169885D01*
X109534894Y-86172179D01*
X109295593Y-86332074D01*
X109295588Y-86332078D01*
X109292162Y-86334367D01*
X109289068Y-86337081D01*
X109289062Y-86337085D01*
X109178677Y-86433891D01*
X109069573Y-86529573D01*
X109066864Y-86532662D01*
X108877085Y-86749062D01*
X108877081Y-86749068D01*
X108874367Y-86752162D01*
X108872078Y-86755588D01*
X108872074Y-86755593D01*
X108799229Y-86864614D01*
X108709885Y-86998327D01*
X108708061Y-87002026D01*
X108708058Y-87002031D01*
X108659007Y-87101498D01*
X108578941Y-87263855D01*
X108577616Y-87267760D01*
X108577615Y-87267761D01*
X108487266Y-87533923D01*
X108483776Y-87544203D01*
X108482972Y-87548247D01*
X108482970Y-87548253D01*
X108433785Y-87795523D01*
X108426017Y-87834574D01*
X108425748Y-87838679D01*
X108425747Y-87838686D01*
X108410806Y-88066650D01*
X108406654Y-88130000D01*
X106508000Y-88130000D01*
X106508000Y-78339655D01*
X109237858Y-78339655D01*
X109273104Y-78598638D01*
X109274412Y-78603124D01*
X109274412Y-78603126D01*
X109294098Y-78670664D01*
X109346243Y-78849567D01*
X109455668Y-79086928D01*
X109458231Y-79090837D01*
X109596410Y-79301596D01*
X109596414Y-79301601D01*
X109598976Y-79305509D01*
X109773018Y-79500506D01*
X109973970Y-79667637D01*
X109977973Y-79670066D01*
X110193422Y-79800804D01*
X110193426Y-79800806D01*
X110197419Y-79803229D01*
X110438455Y-79904303D01*
X110691783Y-79968641D01*
X110696434Y-79969109D01*
X110696438Y-79969110D01*
X110889308Y-79988531D01*
X110908867Y-79990500D01*
X111064354Y-79990500D01*
X111066679Y-79990327D01*
X111066685Y-79990327D01*
X111254000Y-79976407D01*
X111254004Y-79976406D01*
X111258652Y-79976061D01*
X111263200Y-79975032D01*
X111263206Y-79975031D01*
X111488435Y-79924066D01*
X111513577Y-79918377D01*
X111549769Y-79904303D01*
X111752824Y-79825340D01*
X111752827Y-79825339D01*
X111757177Y-79823647D01*
X111984098Y-79693951D01*
X112189357Y-79532138D01*
X112368443Y-79341763D01*
X112517424Y-79127009D01*
X112519492Y-79122816D01*
X112630960Y-78896781D01*
X112630961Y-78896778D01*
X112633025Y-78892593D01*
X112712707Y-78643665D01*
X112720852Y-78593655D01*
X199661858Y-78593655D01*
X199697104Y-78852638D01*
X199698412Y-78857124D01*
X199698412Y-78857126D01*
X199718098Y-78924664D01*
X199770243Y-79103567D01*
X199879668Y-79340928D01*
X199882231Y-79344837D01*
X200020410Y-79555596D01*
X200020414Y-79555601D01*
X200022976Y-79559509D01*
X200197018Y-79754506D01*
X200397970Y-79921637D01*
X200401973Y-79924066D01*
X200617422Y-80054804D01*
X200617426Y-80054806D01*
X200621419Y-80057229D01*
X200862455Y-80158303D01*
X201115783Y-80222641D01*
X201120434Y-80223109D01*
X201120438Y-80223110D01*
X201313308Y-80242531D01*
X201332867Y-80244500D01*
X201488354Y-80244500D01*
X201490679Y-80244327D01*
X201490685Y-80244327D01*
X201678000Y-80230407D01*
X201678004Y-80230406D01*
X201682652Y-80230061D01*
X201687200Y-80229032D01*
X201687206Y-80229031D01*
X201873601Y-80186853D01*
X201937577Y-80172377D01*
X201973769Y-80158303D01*
X202176824Y-80079340D01*
X202176827Y-80079339D01*
X202181177Y-80077647D01*
X202408098Y-79947951D01*
X202613357Y-79786138D01*
X202792443Y-79595763D01*
X202941424Y-79381009D01*
X202943492Y-79376816D01*
X203054960Y-79150781D01*
X203054961Y-79150778D01*
X203057025Y-79146593D01*
X203136707Y-78897665D01*
X203178721Y-78639693D01*
X203180210Y-78525942D01*
X203182081Y-78383022D01*
X203182081Y-78383019D01*
X203182142Y-78378345D01*
X203146896Y-78119362D01*
X203132473Y-78069877D01*
X203075068Y-77872932D01*
X203073757Y-77868433D01*
X202964332Y-77631072D01*
X202922468Y-77567219D01*
X202823590Y-77416404D01*
X202823586Y-77416399D01*
X202821024Y-77412491D01*
X202646982Y-77217494D01*
X202446030Y-77050363D01*
X202398844Y-77021730D01*
X202226578Y-76917196D01*
X202226574Y-76917194D01*
X202222581Y-76914771D01*
X201981545Y-76813697D01*
X201728217Y-76749359D01*
X201723566Y-76748891D01*
X201723562Y-76748890D01*
X201514271Y-76727816D01*
X201511133Y-76727500D01*
X201355646Y-76727500D01*
X201353321Y-76727673D01*
X201353315Y-76727673D01*
X201166000Y-76741593D01*
X201165996Y-76741594D01*
X201161348Y-76741939D01*
X201156800Y-76742968D01*
X201156794Y-76742969D01*
X200970399Y-76785147D01*
X200906423Y-76799623D01*
X200902071Y-76801315D01*
X200902069Y-76801316D01*
X200667176Y-76892660D01*
X200667173Y-76892661D01*
X200662823Y-76894353D01*
X200435902Y-77024049D01*
X200230643Y-77185862D01*
X200051557Y-77376237D01*
X199902576Y-77590991D01*
X199900510Y-77595181D01*
X199900508Y-77595184D01*
X199791675Y-77815877D01*
X199786975Y-77825407D01*
X199707293Y-78074335D01*
X199665279Y-78332307D01*
X199661858Y-78593655D01*
X112720852Y-78593655D01*
X112754721Y-78385693D01*
X112758142Y-78124345D01*
X112722896Y-77865362D01*
X112708473Y-77815877D01*
X112651068Y-77618932D01*
X112649757Y-77614433D01*
X112540332Y-77377072D01*
X112507519Y-77327024D01*
X112399590Y-77162404D01*
X112399586Y-77162399D01*
X112397024Y-77158491D01*
X112222982Y-76963494D01*
X112022030Y-76796363D01*
X111909068Y-76727816D01*
X111802578Y-76663196D01*
X111802574Y-76663194D01*
X111798581Y-76660771D01*
X111557545Y-76559697D01*
X111304217Y-76495359D01*
X111299566Y-76494891D01*
X111299562Y-76494890D01*
X111090271Y-76473816D01*
X111087133Y-76473500D01*
X110931646Y-76473500D01*
X110929321Y-76473673D01*
X110929315Y-76473673D01*
X110742000Y-76487593D01*
X110741996Y-76487594D01*
X110737348Y-76487939D01*
X110732800Y-76488968D01*
X110732794Y-76488969D01*
X110546399Y-76531147D01*
X110482423Y-76545623D01*
X110478071Y-76547315D01*
X110478069Y-76547316D01*
X110243176Y-76638660D01*
X110243173Y-76638661D01*
X110238823Y-76640353D01*
X110011902Y-76770049D01*
X109806643Y-76931862D01*
X109627557Y-77122237D01*
X109478576Y-77336991D01*
X109476510Y-77341181D01*
X109476508Y-77341184D01*
X109441344Y-77412491D01*
X109362975Y-77571407D01*
X109283293Y-77820335D01*
X109241279Y-78078307D01*
X109241218Y-78082980D01*
X109238015Y-78327692D01*
X109237858Y-78339655D01*
X106508000Y-78339655D01*
X106508000Y-74802000D01*
X106528002Y-74733879D01*
X106581658Y-74687386D01*
X106634000Y-74676000D01*
X203844000Y-74676000D01*
X203912121Y-74696002D01*
G37*
G04 #@! TD.AperFunction*
M02*
