G04 #@! TF.GenerationSoftware,KiCad,Pcbnew,(6.0.1)*
G04 #@! TF.CreationDate,2022-04-24T16:27:43-07:00*
G04 #@! TF.ProjectId,AudioAmp,41756469-6f41-46d7-902e-6b696361645f,rev?*
G04 #@! TF.SameCoordinates,Original*
G04 #@! TF.FileFunction,Legend,Top*
G04 #@! TF.FilePolarity,Positive*
%FSLAX46Y46*%
G04 Gerber Fmt 4.6, Leading zero omitted, Abs format (unit mm)*
G04 Created by KiCad (PCBNEW (6.0.1)) date 2022-04-24 16:27:43*
%MOMM*%
%LPD*%
G01*
G04 APERTURE LIST*
G04 Aperture macros list*
%AMRoundRect*
0 Rectangle with rounded corners*
0 $1 Rounding radius*
0 $2 $3 $4 $5 $6 $7 $8 $9 X,Y pos of 4 corners*
0 Add a 4 corners polygon primitive as box body*
4,1,4,$2,$3,$4,$5,$6,$7,$8,$9,$2,$3,0*
0 Add four circle primitives for the rounded corners*
1,1,$1+$1,$2,$3*
1,1,$1+$1,$4,$5*
1,1,$1+$1,$6,$7*
1,1,$1+$1,$8,$9*
0 Add four rect primitives between the rounded corners*
20,1,$1+$1,$2,$3,$4,$5,0*
20,1,$1+$1,$4,$5,$6,$7,0*
20,1,$1+$1,$6,$7,$8,$9,0*
20,1,$1+$1,$8,$9,$2,$3,0*%
G04 Aperture macros list end*
%ADD10C,0.150000*%
%ADD11C,0.120000*%
%ADD12C,0.100000*%
%ADD13C,1.600000*%
%ADD14RoundRect,0.200000X-0.200000X-0.275000X0.200000X-0.275000X0.200000X0.275000X-0.200000X0.275000X0*%
%ADD15RoundRect,0.250000X0.475000X-0.250000X0.475000X0.250000X-0.475000X0.250000X-0.475000X-0.250000X0*%
%ADD16R,2.000000X2.000000*%
%ADD17C,2.000000*%
%ADD18C,1.800000*%
%ADD19R,1.700000X1.700000*%
%ADD20O,1.700000X1.700000*%
%ADD21RoundRect,0.150000X-0.150000X0.587500X-0.150000X-0.587500X0.150000X-0.587500X0.150000X0.587500X0*%
%ADD22RoundRect,0.225000X0.250000X-0.225000X0.250000X0.225000X-0.250000X0.225000X-0.250000X-0.225000X0*%
%ADD23RoundRect,0.250000X-1.075000X0.362500X-1.075000X-0.362500X1.075000X-0.362500X1.075000X0.362500X0*%
%ADD24RoundRect,0.250000X0.325000X0.650000X-0.325000X0.650000X-0.325000X-0.650000X0.325000X-0.650000X0*%
%ADD25RoundRect,0.200000X-0.275000X0.200000X-0.275000X-0.200000X0.275000X-0.200000X0.275000X0.200000X0*%
%ADD26C,0.508000*%
%ADD27R,1.404099X0.456400*%
%ADD28R,0.456400X1.404099*%
%ADD29RoundRect,0.250000X-0.325000X-0.650000X0.325000X-0.650000X0.325000X0.650000X-0.325000X0.650000X0*%
%ADD30RoundRect,0.140000X0.170000X-0.140000X0.170000X0.140000X-0.170000X0.140000X-0.170000X-0.140000X0*%
%ADD31RoundRect,0.250000X0.450000X-0.262500X0.450000X0.262500X-0.450000X0.262500X-0.450000X-0.262500X0*%
%ADD32RoundRect,0.225000X0.225000X0.250000X-0.225000X0.250000X-0.225000X-0.250000X0.225000X-0.250000X0*%
%ADD33C,2.500000*%
%ADD34C,1.498600*%
%ADD35RoundRect,0.200000X0.275000X-0.200000X0.275000X0.200000X-0.275000X0.200000X-0.275000X-0.200000X0*%
%ADD36R,5.588000X5.334000*%
%ADD37R,5.283200X6.350000*%
%ADD38RoundRect,0.225000X-0.225000X-0.250000X0.225000X-0.250000X0.225000X0.250000X-0.225000X0.250000X0*%
G04 APERTURE END LIST*
D10*
X174552142Y-106487142D02*
X174504523Y-106534761D01*
X174361666Y-106582380D01*
X174266428Y-106582380D01*
X174123571Y-106534761D01*
X174028333Y-106439523D01*
X173980714Y-106344285D01*
X173933095Y-106153809D01*
X173933095Y-106010952D01*
X173980714Y-105820476D01*
X174028333Y-105725238D01*
X174123571Y-105630000D01*
X174266428Y-105582380D01*
X174361666Y-105582380D01*
X174504523Y-105630000D01*
X174552142Y-105677619D01*
X175504523Y-106582380D02*
X174933095Y-106582380D01*
X175218809Y-106582380D02*
X175218809Y-105582380D01*
X175123571Y-105725238D01*
X175028333Y-105820476D01*
X174933095Y-105868095D01*
X176361666Y-105915714D02*
X176361666Y-106582380D01*
X176123571Y-105534761D02*
X175885476Y-106249047D01*
X176504523Y-106249047D01*
X121357142Y-104752380D02*
X121023809Y-104276190D01*
X120785714Y-104752380D02*
X120785714Y-103752380D01*
X121166666Y-103752380D01*
X121261904Y-103800000D01*
X121309523Y-103847619D01*
X121357142Y-103942857D01*
X121357142Y-104085714D01*
X121309523Y-104180952D01*
X121261904Y-104228571D01*
X121166666Y-104276190D01*
X120785714Y-104276190D01*
X122309523Y-104752380D02*
X121738095Y-104752380D01*
X122023809Y-104752380D02*
X122023809Y-103752380D01*
X121928571Y-103895238D01*
X121833333Y-103990476D01*
X121738095Y-104038095D01*
X123166666Y-103752380D02*
X122976190Y-103752380D01*
X122880952Y-103800000D01*
X122833333Y-103847619D01*
X122738095Y-103990476D01*
X122690476Y-104180952D01*
X122690476Y-104561904D01*
X122738095Y-104657142D01*
X122785714Y-104704761D01*
X122880952Y-104752380D01*
X123071428Y-104752380D01*
X123166666Y-104704761D01*
X123214285Y-104657142D01*
X123261904Y-104561904D01*
X123261904Y-104323809D01*
X123214285Y-104228571D01*
X123166666Y-104180952D01*
X123071428Y-104133333D01*
X122880952Y-104133333D01*
X122785714Y-104180952D01*
X122738095Y-104228571D01*
X122690476Y-104323809D01*
X120957142Y-114857142D02*
X120909523Y-114904761D01*
X120766666Y-114952380D01*
X120671428Y-114952380D01*
X120528571Y-114904761D01*
X120433333Y-114809523D01*
X120385714Y-114714285D01*
X120338095Y-114523809D01*
X120338095Y-114380952D01*
X120385714Y-114190476D01*
X120433333Y-114095238D01*
X120528571Y-114000000D01*
X120671428Y-113952380D01*
X120766666Y-113952380D01*
X120909523Y-114000000D01*
X120957142Y-114047619D01*
X121861904Y-113952380D02*
X121385714Y-113952380D01*
X121338095Y-114428571D01*
X121385714Y-114380952D01*
X121480952Y-114333333D01*
X121719047Y-114333333D01*
X121814285Y-114380952D01*
X121861904Y-114428571D01*
X121909523Y-114523809D01*
X121909523Y-114761904D01*
X121861904Y-114857142D01*
X121814285Y-114904761D01*
X121719047Y-114952380D01*
X121480952Y-114952380D01*
X121385714Y-114904761D01*
X121338095Y-114857142D01*
X122814285Y-113952380D02*
X122338095Y-113952380D01*
X122290476Y-114428571D01*
X122338095Y-114380952D01*
X122433333Y-114333333D01*
X122671428Y-114333333D01*
X122766666Y-114380952D01*
X122814285Y-114428571D01*
X122861904Y-114523809D01*
X122861904Y-114761904D01*
X122814285Y-114857142D01*
X122766666Y-114904761D01*
X122671428Y-114952380D01*
X122433333Y-114952380D01*
X122338095Y-114904761D01*
X122290476Y-114857142D01*
X167957142Y-121857142D02*
X167909523Y-121904761D01*
X167766666Y-121952380D01*
X167671428Y-121952380D01*
X167528571Y-121904761D01*
X167433333Y-121809523D01*
X167385714Y-121714285D01*
X167338095Y-121523809D01*
X167338095Y-121380952D01*
X167385714Y-121190476D01*
X167433333Y-121095238D01*
X167528571Y-121000000D01*
X167671428Y-120952380D01*
X167766666Y-120952380D01*
X167909523Y-121000000D01*
X167957142Y-121047619D01*
X168338095Y-121047619D02*
X168385714Y-121000000D01*
X168480952Y-120952380D01*
X168719047Y-120952380D01*
X168814285Y-121000000D01*
X168861904Y-121047619D01*
X168909523Y-121142857D01*
X168909523Y-121238095D01*
X168861904Y-121380952D01*
X168290476Y-121952380D01*
X168909523Y-121952380D01*
X169814285Y-120952380D02*
X169338095Y-120952380D01*
X169290476Y-121428571D01*
X169338095Y-121380952D01*
X169433333Y-121333333D01*
X169671428Y-121333333D01*
X169766666Y-121380952D01*
X169814285Y-121428571D01*
X169861904Y-121523809D01*
X169861904Y-121761904D01*
X169814285Y-121857142D01*
X169766666Y-121904761D01*
X169671428Y-121952380D01*
X169433333Y-121952380D01*
X169338095Y-121904761D01*
X169290476Y-121857142D01*
X140933333Y-125657142D02*
X140885714Y-125704761D01*
X140742857Y-125752380D01*
X140647619Y-125752380D01*
X140504761Y-125704761D01*
X140409523Y-125609523D01*
X140361904Y-125514285D01*
X140314285Y-125323809D01*
X140314285Y-125180952D01*
X140361904Y-124990476D01*
X140409523Y-124895238D01*
X140504761Y-124800000D01*
X140647619Y-124752380D01*
X140742857Y-124752380D01*
X140885714Y-124800000D01*
X140933333Y-124847619D01*
X141266666Y-124752380D02*
X141933333Y-124752380D01*
X141504761Y-125752380D01*
X162003333Y-97597380D02*
X161527142Y-97597380D01*
X161527142Y-96597380D01*
X162289047Y-96692619D02*
X162336666Y-96645000D01*
X162431904Y-96597380D01*
X162670000Y-96597380D01*
X162765238Y-96645000D01*
X162812857Y-96692619D01*
X162860476Y-96787857D01*
X162860476Y-96883095D01*
X162812857Y-97025952D01*
X162241428Y-97597380D01*
X162860476Y-97597380D01*
X179366666Y-103782380D02*
X179366666Y-104496666D01*
X179319047Y-104639523D01*
X179223809Y-104734761D01*
X179080952Y-104782380D01*
X178985714Y-104782380D01*
X180319047Y-103782380D02*
X179842857Y-103782380D01*
X179795238Y-104258571D01*
X179842857Y-104210952D01*
X179938095Y-104163333D01*
X180176190Y-104163333D01*
X180271428Y-104210952D01*
X180319047Y-104258571D01*
X180366666Y-104353809D01*
X180366666Y-104591904D01*
X180319047Y-104687142D01*
X180271428Y-104734761D01*
X180176190Y-104782380D01*
X179938095Y-104782380D01*
X179842857Y-104734761D01*
X179795238Y-104687142D01*
X147133333Y-86357142D02*
X147085714Y-86404761D01*
X146942857Y-86452380D01*
X146847619Y-86452380D01*
X146704761Y-86404761D01*
X146609523Y-86309523D01*
X146561904Y-86214285D01*
X146514285Y-86023809D01*
X146514285Y-85880952D01*
X146561904Y-85690476D01*
X146609523Y-85595238D01*
X146704761Y-85500000D01*
X146847619Y-85452380D01*
X146942857Y-85452380D01*
X147085714Y-85500000D01*
X147133333Y-85547619D01*
X147704761Y-85880952D02*
X147609523Y-85833333D01*
X147561904Y-85785714D01*
X147514285Y-85690476D01*
X147514285Y-85642857D01*
X147561904Y-85547619D01*
X147609523Y-85500000D01*
X147704761Y-85452380D01*
X147895238Y-85452380D01*
X147990476Y-85500000D01*
X148038095Y-85547619D01*
X148085714Y-85642857D01*
X148085714Y-85690476D01*
X148038095Y-85785714D01*
X147990476Y-85833333D01*
X147895238Y-85880952D01*
X147704761Y-85880952D01*
X147609523Y-85928571D01*
X147561904Y-85976190D01*
X147514285Y-86071428D01*
X147514285Y-86261904D01*
X147561904Y-86357142D01*
X147609523Y-86404761D01*
X147704761Y-86452380D01*
X147895238Y-86452380D01*
X147990476Y-86404761D01*
X148038095Y-86357142D01*
X148085714Y-86261904D01*
X148085714Y-86071428D01*
X148038095Y-85976190D01*
X147990476Y-85928571D01*
X147895238Y-85880952D01*
X121304761Y-97547619D02*
X121209523Y-97500000D01*
X121114285Y-97404761D01*
X120971428Y-97261904D01*
X120876190Y-97214285D01*
X120780952Y-97214285D01*
X120828571Y-97452380D02*
X120733333Y-97404761D01*
X120638095Y-97309523D01*
X120590476Y-97119047D01*
X120590476Y-96785714D01*
X120638095Y-96595238D01*
X120733333Y-96500000D01*
X120828571Y-96452380D01*
X121019047Y-96452380D01*
X121114285Y-96500000D01*
X121209523Y-96595238D01*
X121257142Y-96785714D01*
X121257142Y-97119047D01*
X121209523Y-97309523D01*
X121114285Y-97404761D01*
X121019047Y-97452380D01*
X120828571Y-97452380D01*
X122209523Y-97452380D02*
X121638095Y-97452380D01*
X121923809Y-97452380D02*
X121923809Y-96452380D01*
X121828571Y-96595238D01*
X121733333Y-96690476D01*
X121638095Y-96738095D01*
X155066666Y-70952380D02*
X155066666Y-71666666D01*
X155019047Y-71809523D01*
X154923809Y-71904761D01*
X154780952Y-71952380D01*
X154685714Y-71952380D01*
X155495238Y-71047619D02*
X155542857Y-71000000D01*
X155638095Y-70952380D01*
X155876190Y-70952380D01*
X155971428Y-71000000D01*
X156019047Y-71047619D01*
X156066666Y-71142857D01*
X156066666Y-71238095D01*
X156019047Y-71380952D01*
X155447619Y-71952380D01*
X156066666Y-71952380D01*
X171537142Y-121747142D02*
X171489523Y-121794761D01*
X171346666Y-121842380D01*
X171251428Y-121842380D01*
X171108571Y-121794761D01*
X171013333Y-121699523D01*
X170965714Y-121604285D01*
X170918095Y-121413809D01*
X170918095Y-121270952D01*
X170965714Y-121080476D01*
X171013333Y-120985238D01*
X171108571Y-120890000D01*
X171251428Y-120842380D01*
X171346666Y-120842380D01*
X171489523Y-120890000D01*
X171537142Y-120937619D01*
X171918095Y-120937619D02*
X171965714Y-120890000D01*
X172060952Y-120842380D01*
X172299047Y-120842380D01*
X172394285Y-120890000D01*
X172441904Y-120937619D01*
X172489523Y-121032857D01*
X172489523Y-121128095D01*
X172441904Y-121270952D01*
X171870476Y-121842380D01*
X172489523Y-121842380D01*
X173346666Y-120842380D02*
X173156190Y-120842380D01*
X173060952Y-120890000D01*
X173013333Y-120937619D01*
X172918095Y-121080476D01*
X172870476Y-121270952D01*
X172870476Y-121651904D01*
X172918095Y-121747142D01*
X172965714Y-121794761D01*
X173060952Y-121842380D01*
X173251428Y-121842380D01*
X173346666Y-121794761D01*
X173394285Y-121747142D01*
X173441904Y-121651904D01*
X173441904Y-121413809D01*
X173394285Y-121318571D01*
X173346666Y-121270952D01*
X173251428Y-121223333D01*
X173060952Y-121223333D01*
X172965714Y-121270952D01*
X172918095Y-121318571D01*
X172870476Y-121413809D01*
X168157142Y-112257142D02*
X168109523Y-112304761D01*
X167966666Y-112352380D01*
X167871428Y-112352380D01*
X167728571Y-112304761D01*
X167633333Y-112209523D01*
X167585714Y-112114285D01*
X167538095Y-111923809D01*
X167538095Y-111780952D01*
X167585714Y-111590476D01*
X167633333Y-111495238D01*
X167728571Y-111400000D01*
X167871428Y-111352380D01*
X167966666Y-111352380D01*
X168109523Y-111400000D01*
X168157142Y-111447619D01*
X168538095Y-111447619D02*
X168585714Y-111400000D01*
X168680952Y-111352380D01*
X168919047Y-111352380D01*
X169014285Y-111400000D01*
X169061904Y-111447619D01*
X169109523Y-111542857D01*
X169109523Y-111638095D01*
X169061904Y-111780952D01*
X168490476Y-112352380D01*
X169109523Y-112352380D01*
X170061904Y-112352380D02*
X169490476Y-112352380D01*
X169776190Y-112352380D02*
X169776190Y-111352380D01*
X169680952Y-111495238D01*
X169585714Y-111590476D01*
X169490476Y-111638095D01*
X153057142Y-108452380D02*
X152723809Y-107976190D01*
X152485714Y-108452380D02*
X152485714Y-107452380D01*
X152866666Y-107452380D01*
X152961904Y-107500000D01*
X153009523Y-107547619D01*
X153057142Y-107642857D01*
X153057142Y-107785714D01*
X153009523Y-107880952D01*
X152961904Y-107928571D01*
X152866666Y-107976190D01*
X152485714Y-107976190D01*
X154009523Y-108452380D02*
X153438095Y-108452380D01*
X153723809Y-108452380D02*
X153723809Y-107452380D01*
X153628571Y-107595238D01*
X153533333Y-107690476D01*
X153438095Y-107738095D01*
X154628571Y-107452380D02*
X154723809Y-107452380D01*
X154819047Y-107500000D01*
X154866666Y-107547619D01*
X154914285Y-107642857D01*
X154961904Y-107833333D01*
X154961904Y-108071428D01*
X154914285Y-108261904D01*
X154866666Y-108357142D01*
X154819047Y-108404761D01*
X154723809Y-108452380D01*
X154628571Y-108452380D01*
X154533333Y-108404761D01*
X154485714Y-108357142D01*
X154438095Y-108261904D01*
X154390476Y-108071428D01*
X154390476Y-107833333D01*
X154438095Y-107642857D01*
X154485714Y-107547619D01*
X154533333Y-107500000D01*
X154628571Y-107452380D01*
X179366666Y-112392380D02*
X179366666Y-113106666D01*
X179319047Y-113249523D01*
X179223809Y-113344761D01*
X179080952Y-113392380D01*
X178985714Y-113392380D01*
X180271428Y-112392380D02*
X180080952Y-112392380D01*
X179985714Y-112440000D01*
X179938095Y-112487619D01*
X179842857Y-112630476D01*
X179795238Y-112820952D01*
X179795238Y-113201904D01*
X179842857Y-113297142D01*
X179890476Y-113344761D01*
X179985714Y-113392380D01*
X180176190Y-113392380D01*
X180271428Y-113344761D01*
X180319047Y-113297142D01*
X180366666Y-113201904D01*
X180366666Y-112963809D01*
X180319047Y-112868571D01*
X180271428Y-112820952D01*
X180176190Y-112773333D01*
X179985714Y-112773333D01*
X179890476Y-112820952D01*
X179842857Y-112868571D01*
X179795238Y-112963809D01*
X137957142Y-92057142D02*
X137909523Y-92104761D01*
X137766666Y-92152380D01*
X137671428Y-92152380D01*
X137528571Y-92104761D01*
X137433333Y-92009523D01*
X137385714Y-91914285D01*
X137338095Y-91723809D01*
X137338095Y-91580952D01*
X137385714Y-91390476D01*
X137433333Y-91295238D01*
X137528571Y-91200000D01*
X137671428Y-91152380D01*
X137766666Y-91152380D01*
X137909523Y-91200000D01*
X137957142Y-91247619D01*
X138909523Y-92152380D02*
X138338095Y-92152380D01*
X138623809Y-92152380D02*
X138623809Y-91152380D01*
X138528571Y-91295238D01*
X138433333Y-91390476D01*
X138338095Y-91438095D01*
X139528571Y-91152380D02*
X139623809Y-91152380D01*
X139719047Y-91200000D01*
X139766666Y-91247619D01*
X139814285Y-91342857D01*
X139861904Y-91533333D01*
X139861904Y-91771428D01*
X139814285Y-91961904D01*
X139766666Y-92057142D01*
X139719047Y-92104761D01*
X139623809Y-92152380D01*
X139528571Y-92152380D01*
X139433333Y-92104761D01*
X139385714Y-92057142D01*
X139338095Y-91961904D01*
X139290476Y-91771428D01*
X139290476Y-91533333D01*
X139338095Y-91342857D01*
X139385714Y-91247619D01*
X139433333Y-91200000D01*
X139528571Y-91152380D01*
X116833333Y-99152380D02*
X116500000Y-98676190D01*
X116261904Y-99152380D02*
X116261904Y-98152380D01*
X116642857Y-98152380D01*
X116738095Y-98200000D01*
X116785714Y-98247619D01*
X116833333Y-98342857D01*
X116833333Y-98485714D01*
X116785714Y-98580952D01*
X116738095Y-98628571D01*
X116642857Y-98676190D01*
X116261904Y-98676190D01*
X117166666Y-98152380D02*
X117785714Y-98152380D01*
X117452380Y-98533333D01*
X117595238Y-98533333D01*
X117690476Y-98580952D01*
X117738095Y-98628571D01*
X117785714Y-98723809D01*
X117785714Y-98961904D01*
X117738095Y-99057142D01*
X117690476Y-99104761D01*
X117595238Y-99152380D01*
X117309523Y-99152380D01*
X117214285Y-99104761D01*
X117166666Y-99057142D01*
X135038095Y-97752380D02*
X135038095Y-98561904D01*
X135085714Y-98657142D01*
X135133333Y-98704761D01*
X135228571Y-98752380D01*
X135419047Y-98752380D01*
X135514285Y-98704761D01*
X135561904Y-98657142D01*
X135609523Y-98561904D01*
X135609523Y-97752380D01*
X136609523Y-98752380D02*
X136038095Y-98752380D01*
X136323809Y-98752380D02*
X136323809Y-97752380D01*
X136228571Y-97895238D01*
X136133333Y-97990476D01*
X136038095Y-98038095D01*
X126674800Y-96463481D02*
X126674800Y-96701577D01*
X126436704Y-96606339D02*
X126674800Y-96701577D01*
X126912895Y-96606339D01*
X126531942Y-96892053D02*
X126674800Y-96701577D01*
X126817657Y-96892053D01*
X128100000Y-96652380D02*
X128100000Y-96890476D01*
X127861904Y-96795238D02*
X128100000Y-96890476D01*
X128338095Y-96795238D01*
X127957142Y-97080952D02*
X128100000Y-96890476D01*
X128242857Y-97080952D01*
X119957142Y-110657142D02*
X119909523Y-110704761D01*
X119766666Y-110752380D01*
X119671428Y-110752380D01*
X119528571Y-110704761D01*
X119433333Y-110609523D01*
X119385714Y-110514285D01*
X119338095Y-110323809D01*
X119338095Y-110180952D01*
X119385714Y-109990476D01*
X119433333Y-109895238D01*
X119528571Y-109800000D01*
X119671428Y-109752380D01*
X119766666Y-109752380D01*
X119909523Y-109800000D01*
X119957142Y-109847619D01*
X120290476Y-109752380D02*
X120909523Y-109752380D01*
X120576190Y-110133333D01*
X120719047Y-110133333D01*
X120814285Y-110180952D01*
X120861904Y-110228571D01*
X120909523Y-110323809D01*
X120909523Y-110561904D01*
X120861904Y-110657142D01*
X120814285Y-110704761D01*
X120719047Y-110752380D01*
X120433333Y-110752380D01*
X120338095Y-110704761D01*
X120290476Y-110657142D01*
X121242857Y-109752380D02*
X121909523Y-109752380D01*
X121480952Y-110752380D01*
X149857142Y-113342857D02*
X149904761Y-113390476D01*
X149952380Y-113533333D01*
X149952380Y-113628571D01*
X149904761Y-113771428D01*
X149809523Y-113866666D01*
X149714285Y-113914285D01*
X149523809Y-113961904D01*
X149380952Y-113961904D01*
X149190476Y-113914285D01*
X149095238Y-113866666D01*
X149000000Y-113771428D01*
X148952380Y-113628571D01*
X148952380Y-113533333D01*
X149000000Y-113390476D01*
X149047619Y-113342857D01*
X149047619Y-112961904D02*
X149000000Y-112914285D01*
X148952380Y-112819047D01*
X148952380Y-112580952D01*
X149000000Y-112485714D01*
X149047619Y-112438095D01*
X149142857Y-112390476D01*
X149238095Y-112390476D01*
X149380952Y-112438095D01*
X149952380Y-113009523D01*
X149952380Y-112390476D01*
X148952380Y-111771428D02*
X148952380Y-111676190D01*
X149000000Y-111580952D01*
X149047619Y-111533333D01*
X149142857Y-111485714D01*
X149333333Y-111438095D01*
X149571428Y-111438095D01*
X149761904Y-111485714D01*
X149857142Y-111533333D01*
X149904761Y-111580952D01*
X149952380Y-111676190D01*
X149952380Y-111771428D01*
X149904761Y-111866666D01*
X149857142Y-111914285D01*
X149761904Y-111961904D01*
X149571428Y-112009523D01*
X149333333Y-112009523D01*
X149142857Y-111961904D01*
X149047619Y-111914285D01*
X149000000Y-111866666D01*
X148952380Y-111771428D01*
X132357142Y-115787142D02*
X132309523Y-115834761D01*
X132166666Y-115882380D01*
X132071428Y-115882380D01*
X131928571Y-115834761D01*
X131833333Y-115739523D01*
X131785714Y-115644285D01*
X131738095Y-115453809D01*
X131738095Y-115310952D01*
X131785714Y-115120476D01*
X131833333Y-115025238D01*
X131928571Y-114930000D01*
X132071428Y-114882380D01*
X132166666Y-114882380D01*
X132309523Y-114930000D01*
X132357142Y-114977619D01*
X133261904Y-114882380D02*
X132785714Y-114882380D01*
X132738095Y-115358571D01*
X132785714Y-115310952D01*
X132880952Y-115263333D01*
X133119047Y-115263333D01*
X133214285Y-115310952D01*
X133261904Y-115358571D01*
X133309523Y-115453809D01*
X133309523Y-115691904D01*
X133261904Y-115787142D01*
X133214285Y-115834761D01*
X133119047Y-115882380D01*
X132880952Y-115882380D01*
X132785714Y-115834761D01*
X132738095Y-115787142D01*
X133880952Y-115310952D02*
X133785714Y-115263333D01*
X133738095Y-115215714D01*
X133690476Y-115120476D01*
X133690476Y-115072857D01*
X133738095Y-114977619D01*
X133785714Y-114930000D01*
X133880952Y-114882380D01*
X134071428Y-114882380D01*
X134166666Y-114930000D01*
X134214285Y-114977619D01*
X134261904Y-115072857D01*
X134261904Y-115120476D01*
X134214285Y-115215714D01*
X134166666Y-115263333D01*
X134071428Y-115310952D01*
X133880952Y-115310952D01*
X133785714Y-115358571D01*
X133738095Y-115406190D01*
X133690476Y-115501428D01*
X133690476Y-115691904D01*
X133738095Y-115787142D01*
X133785714Y-115834761D01*
X133880952Y-115882380D01*
X134071428Y-115882380D01*
X134166666Y-115834761D01*
X134214285Y-115787142D01*
X134261904Y-115691904D01*
X134261904Y-115501428D01*
X134214285Y-115406190D01*
X134166666Y-115358571D01*
X134071428Y-115310952D01*
X124406666Y-127642380D02*
X124406666Y-128356666D01*
X124359047Y-128499523D01*
X124263809Y-128594761D01*
X124120952Y-128642380D01*
X124025714Y-128642380D01*
X124787619Y-127642380D02*
X125406666Y-127642380D01*
X125073333Y-128023333D01*
X125216190Y-128023333D01*
X125311428Y-128070952D01*
X125359047Y-128118571D01*
X125406666Y-128213809D01*
X125406666Y-128451904D01*
X125359047Y-128547142D01*
X125311428Y-128594761D01*
X125216190Y-128642380D01*
X124930476Y-128642380D01*
X124835238Y-128594761D01*
X124787619Y-128547142D01*
X106566666Y-96252380D02*
X106566666Y-96966666D01*
X106519047Y-97109523D01*
X106423809Y-97204761D01*
X106280952Y-97252380D01*
X106185714Y-97252380D01*
X107471428Y-96585714D02*
X107471428Y-97252380D01*
X107233333Y-96204761D02*
X106995238Y-96919047D01*
X107614285Y-96919047D01*
X173457142Y-117057142D02*
X173409523Y-117104761D01*
X173266666Y-117152380D01*
X173171428Y-117152380D01*
X173028571Y-117104761D01*
X172933333Y-117009523D01*
X172885714Y-116914285D01*
X172838095Y-116723809D01*
X172838095Y-116580952D01*
X172885714Y-116390476D01*
X172933333Y-116295238D01*
X173028571Y-116200000D01*
X173171428Y-116152380D01*
X173266666Y-116152380D01*
X173409523Y-116200000D01*
X173457142Y-116247619D01*
X173838095Y-116247619D02*
X173885714Y-116200000D01*
X173980952Y-116152380D01*
X174219047Y-116152380D01*
X174314285Y-116200000D01*
X174361904Y-116247619D01*
X174409523Y-116342857D01*
X174409523Y-116438095D01*
X174361904Y-116580952D01*
X173790476Y-117152380D01*
X174409523Y-117152380D01*
X174742857Y-116152380D02*
X175361904Y-116152380D01*
X175028571Y-116533333D01*
X175171428Y-116533333D01*
X175266666Y-116580952D01*
X175314285Y-116628571D01*
X175361904Y-116723809D01*
X175361904Y-116961904D01*
X175314285Y-117057142D01*
X175266666Y-117104761D01*
X175171428Y-117152380D01*
X174885714Y-117152380D01*
X174790476Y-117104761D01*
X174742857Y-117057142D01*
X175588095Y-123702380D02*
X175588095Y-122702380D01*
X175588095Y-123178571D02*
X176159523Y-123178571D01*
X176159523Y-123702380D02*
X176159523Y-122702380D01*
X176540476Y-122702380D02*
X177159523Y-122702380D01*
X176826190Y-123083333D01*
X176969047Y-123083333D01*
X177064285Y-123130952D01*
X177111904Y-123178571D01*
X177159523Y-123273809D01*
X177159523Y-123511904D01*
X177111904Y-123607142D01*
X177064285Y-123654761D01*
X176969047Y-123702380D01*
X176683333Y-123702380D01*
X176588095Y-123654761D01*
X176540476Y-123607142D01*
X154003333Y-104197380D02*
X153670000Y-103721190D01*
X153431904Y-104197380D02*
X153431904Y-103197380D01*
X153812857Y-103197380D01*
X153908095Y-103245000D01*
X153955714Y-103292619D01*
X154003333Y-103387857D01*
X154003333Y-103530714D01*
X153955714Y-103625952D01*
X153908095Y-103673571D01*
X153812857Y-103721190D01*
X153431904Y-103721190D01*
X154479523Y-104197380D02*
X154670000Y-104197380D01*
X154765238Y-104149761D01*
X154812857Y-104102142D01*
X154908095Y-103959285D01*
X154955714Y-103768809D01*
X154955714Y-103387857D01*
X154908095Y-103292619D01*
X154860476Y-103245000D01*
X154765238Y-103197380D01*
X154574761Y-103197380D01*
X154479523Y-103245000D01*
X154431904Y-103292619D01*
X154384285Y-103387857D01*
X154384285Y-103625952D01*
X154431904Y-103721190D01*
X154479523Y-103768809D01*
X154574761Y-103816428D01*
X154765238Y-103816428D01*
X154860476Y-103768809D01*
X154908095Y-103721190D01*
X154955714Y-103625952D01*
X172052142Y-102187142D02*
X172004523Y-102234761D01*
X171861666Y-102282380D01*
X171766428Y-102282380D01*
X171623571Y-102234761D01*
X171528333Y-102139523D01*
X171480714Y-102044285D01*
X171433095Y-101853809D01*
X171433095Y-101710952D01*
X171480714Y-101520476D01*
X171528333Y-101425238D01*
X171623571Y-101330000D01*
X171766428Y-101282380D01*
X171861666Y-101282380D01*
X172004523Y-101330000D01*
X172052142Y-101377619D01*
X173004523Y-102282380D02*
X172433095Y-102282380D01*
X172718809Y-102282380D02*
X172718809Y-101282380D01*
X172623571Y-101425238D01*
X172528333Y-101520476D01*
X172433095Y-101568095D01*
X173337857Y-101282380D02*
X173956904Y-101282380D01*
X173623571Y-101663333D01*
X173766428Y-101663333D01*
X173861666Y-101710952D01*
X173909285Y-101758571D01*
X173956904Y-101853809D01*
X173956904Y-102091904D01*
X173909285Y-102187142D01*
X173861666Y-102234761D01*
X173766428Y-102282380D01*
X173480714Y-102282380D01*
X173385476Y-102234761D01*
X173337857Y-102187142D01*
X137433333Y-116507142D02*
X137385714Y-116554761D01*
X137242857Y-116602380D01*
X137147619Y-116602380D01*
X137004761Y-116554761D01*
X136909523Y-116459523D01*
X136861904Y-116364285D01*
X136814285Y-116173809D01*
X136814285Y-116030952D01*
X136861904Y-115840476D01*
X136909523Y-115745238D01*
X137004761Y-115650000D01*
X137147619Y-115602380D01*
X137242857Y-115602380D01*
X137385714Y-115650000D01*
X137433333Y-115697619D01*
X137909523Y-116602380D02*
X138100000Y-116602380D01*
X138195238Y-116554761D01*
X138242857Y-116507142D01*
X138338095Y-116364285D01*
X138385714Y-116173809D01*
X138385714Y-115792857D01*
X138338095Y-115697619D01*
X138290476Y-115650000D01*
X138195238Y-115602380D01*
X138004761Y-115602380D01*
X137909523Y-115650000D01*
X137861904Y-115697619D01*
X137814285Y-115792857D01*
X137814285Y-116030952D01*
X137861904Y-116126190D01*
X137909523Y-116173809D01*
X138004761Y-116221428D01*
X138195238Y-116221428D01*
X138290476Y-116173809D01*
X138338095Y-116126190D01*
X138385714Y-116030952D01*
X165557142Y-109557142D02*
X165509523Y-109604761D01*
X165366666Y-109652380D01*
X165271428Y-109652380D01*
X165128571Y-109604761D01*
X165033333Y-109509523D01*
X164985714Y-109414285D01*
X164938095Y-109223809D01*
X164938095Y-109080952D01*
X164985714Y-108890476D01*
X165033333Y-108795238D01*
X165128571Y-108700000D01*
X165271428Y-108652380D01*
X165366666Y-108652380D01*
X165509523Y-108700000D01*
X165557142Y-108747619D01*
X166509523Y-109652380D02*
X165938095Y-109652380D01*
X166223809Y-109652380D02*
X166223809Y-108652380D01*
X166128571Y-108795238D01*
X166033333Y-108890476D01*
X165938095Y-108938095D01*
X166842857Y-108652380D02*
X167509523Y-108652380D01*
X167080952Y-109652380D01*
X134133333Y-73057142D02*
X134085714Y-73104761D01*
X133942857Y-73152380D01*
X133847619Y-73152380D01*
X133704761Y-73104761D01*
X133609523Y-73009523D01*
X133561904Y-72914285D01*
X133514285Y-72723809D01*
X133514285Y-72580952D01*
X133561904Y-72390476D01*
X133609523Y-72295238D01*
X133704761Y-72200000D01*
X133847619Y-72152380D01*
X133942857Y-72152380D01*
X134085714Y-72200000D01*
X134133333Y-72247619D01*
X135085714Y-73152380D02*
X134514285Y-73152380D01*
X134800000Y-73152380D02*
X134800000Y-72152380D01*
X134704761Y-72295238D01*
X134609523Y-72390476D01*
X134514285Y-72438095D01*
X165357142Y-107857142D02*
X165309523Y-107904761D01*
X165166666Y-107952380D01*
X165071428Y-107952380D01*
X164928571Y-107904761D01*
X164833333Y-107809523D01*
X164785714Y-107714285D01*
X164738095Y-107523809D01*
X164738095Y-107380952D01*
X164785714Y-107190476D01*
X164833333Y-107095238D01*
X164928571Y-107000000D01*
X165071428Y-106952380D01*
X165166666Y-106952380D01*
X165309523Y-107000000D01*
X165357142Y-107047619D01*
X166309523Y-107952380D02*
X165738095Y-107952380D01*
X166023809Y-107952380D02*
X166023809Y-106952380D01*
X165928571Y-107095238D01*
X165833333Y-107190476D01*
X165738095Y-107238095D01*
X167166666Y-106952380D02*
X166976190Y-106952380D01*
X166880952Y-107000000D01*
X166833333Y-107047619D01*
X166738095Y-107190476D01*
X166690476Y-107380952D01*
X166690476Y-107761904D01*
X166738095Y-107857142D01*
X166785714Y-107904761D01*
X166880952Y-107952380D01*
X167071428Y-107952380D01*
X167166666Y-107904761D01*
X167214285Y-107857142D01*
X167261904Y-107761904D01*
X167261904Y-107523809D01*
X167214285Y-107428571D01*
X167166666Y-107380952D01*
X167071428Y-107333333D01*
X166880952Y-107333333D01*
X166785714Y-107380952D01*
X166738095Y-107428571D01*
X166690476Y-107523809D01*
X171357142Y-112157142D02*
X171309523Y-112204761D01*
X171166666Y-112252380D01*
X171071428Y-112252380D01*
X170928571Y-112204761D01*
X170833333Y-112109523D01*
X170785714Y-112014285D01*
X170738095Y-111823809D01*
X170738095Y-111680952D01*
X170785714Y-111490476D01*
X170833333Y-111395238D01*
X170928571Y-111300000D01*
X171071428Y-111252380D01*
X171166666Y-111252380D01*
X171309523Y-111300000D01*
X171357142Y-111347619D01*
X171738095Y-111347619D02*
X171785714Y-111300000D01*
X171880952Y-111252380D01*
X172119047Y-111252380D01*
X172214285Y-111300000D01*
X172261904Y-111347619D01*
X172309523Y-111442857D01*
X172309523Y-111538095D01*
X172261904Y-111680952D01*
X171690476Y-112252380D01*
X172309523Y-112252380D01*
X172690476Y-111347619D02*
X172738095Y-111300000D01*
X172833333Y-111252380D01*
X173071428Y-111252380D01*
X173166666Y-111300000D01*
X173214285Y-111347619D01*
X173261904Y-111442857D01*
X173261904Y-111538095D01*
X173214285Y-111680952D01*
X172642857Y-112252380D01*
X173261904Y-112252380D01*
X132333333Y-125657142D02*
X132285714Y-125704761D01*
X132142857Y-125752380D01*
X132047619Y-125752380D01*
X131904761Y-125704761D01*
X131809523Y-125609523D01*
X131761904Y-125514285D01*
X131714285Y-125323809D01*
X131714285Y-125180952D01*
X131761904Y-124990476D01*
X131809523Y-124895238D01*
X131904761Y-124800000D01*
X132047619Y-124752380D01*
X132142857Y-124752380D01*
X132285714Y-124800000D01*
X132333333Y-124847619D01*
X133190476Y-124752380D02*
X133000000Y-124752380D01*
X132904761Y-124800000D01*
X132857142Y-124847619D01*
X132761904Y-124990476D01*
X132714285Y-125180952D01*
X132714285Y-125561904D01*
X132761904Y-125657142D01*
X132809523Y-125704761D01*
X132904761Y-125752380D01*
X133095238Y-125752380D01*
X133190476Y-125704761D01*
X133238095Y-125657142D01*
X133285714Y-125561904D01*
X133285714Y-125323809D01*
X133238095Y-125228571D01*
X133190476Y-125180952D01*
X133095238Y-125133333D01*
X132904761Y-125133333D01*
X132809523Y-125180952D01*
X132761904Y-125228571D01*
X132714285Y-125323809D01*
X107524761Y-115932380D02*
X107191428Y-115456190D01*
X106953333Y-115932380D02*
X106953333Y-114932380D01*
X107334285Y-114932380D01*
X107429523Y-114980000D01*
X107477142Y-115027619D01*
X107524761Y-115122857D01*
X107524761Y-115265714D01*
X107477142Y-115360952D01*
X107429523Y-115408571D01*
X107334285Y-115456190D01*
X106953333Y-115456190D01*
X107810476Y-114932380D02*
X108143809Y-115932380D01*
X108477142Y-114932380D01*
X109334285Y-115932380D02*
X108762857Y-115932380D01*
X109048571Y-115932380D02*
X109048571Y-114932380D01*
X108953333Y-115075238D01*
X108858095Y-115170476D01*
X108762857Y-115218095D01*
X130433333Y-86357142D02*
X130385714Y-86404761D01*
X130242857Y-86452380D01*
X130147619Y-86452380D01*
X130004761Y-86404761D01*
X129909523Y-86309523D01*
X129861904Y-86214285D01*
X129814285Y-86023809D01*
X129814285Y-85880952D01*
X129861904Y-85690476D01*
X129909523Y-85595238D01*
X130004761Y-85500000D01*
X130147619Y-85452380D01*
X130242857Y-85452380D01*
X130385714Y-85500000D01*
X130433333Y-85547619D01*
X131338095Y-85452380D02*
X130861904Y-85452380D01*
X130814285Y-85928571D01*
X130861904Y-85880952D01*
X130957142Y-85833333D01*
X131195238Y-85833333D01*
X131290476Y-85880952D01*
X131338095Y-85928571D01*
X131385714Y-86023809D01*
X131385714Y-86261904D01*
X131338095Y-86357142D01*
X131290476Y-86404761D01*
X131195238Y-86452380D01*
X130957142Y-86452380D01*
X130861904Y-86404761D01*
X130814285Y-86357142D01*
X120857142Y-119577142D02*
X120809523Y-119624761D01*
X120666666Y-119672380D01*
X120571428Y-119672380D01*
X120428571Y-119624761D01*
X120333333Y-119529523D01*
X120285714Y-119434285D01*
X120238095Y-119243809D01*
X120238095Y-119100952D01*
X120285714Y-118910476D01*
X120333333Y-118815238D01*
X120428571Y-118720000D01*
X120571428Y-118672380D01*
X120666666Y-118672380D01*
X120809523Y-118720000D01*
X120857142Y-118767619D01*
X121761904Y-118672380D02*
X121285714Y-118672380D01*
X121238095Y-119148571D01*
X121285714Y-119100952D01*
X121380952Y-119053333D01*
X121619047Y-119053333D01*
X121714285Y-119100952D01*
X121761904Y-119148571D01*
X121809523Y-119243809D01*
X121809523Y-119481904D01*
X121761904Y-119577142D01*
X121714285Y-119624761D01*
X121619047Y-119672380D01*
X121380952Y-119672380D01*
X121285714Y-119624761D01*
X121238095Y-119577142D01*
X122666666Y-118672380D02*
X122476190Y-118672380D01*
X122380952Y-118720000D01*
X122333333Y-118767619D01*
X122238095Y-118910476D01*
X122190476Y-119100952D01*
X122190476Y-119481904D01*
X122238095Y-119577142D01*
X122285714Y-119624761D01*
X122380952Y-119672380D01*
X122571428Y-119672380D01*
X122666666Y-119624761D01*
X122714285Y-119577142D01*
X122761904Y-119481904D01*
X122761904Y-119243809D01*
X122714285Y-119148571D01*
X122666666Y-119100952D01*
X122571428Y-119053333D01*
X122380952Y-119053333D01*
X122285714Y-119100952D01*
X122238095Y-119148571D01*
X122190476Y-119243809D01*
X148957142Y-101957142D02*
X148909523Y-102004761D01*
X148766666Y-102052380D01*
X148671428Y-102052380D01*
X148528571Y-102004761D01*
X148433333Y-101909523D01*
X148385714Y-101814285D01*
X148338095Y-101623809D01*
X148338095Y-101480952D01*
X148385714Y-101290476D01*
X148433333Y-101195238D01*
X148528571Y-101100000D01*
X148671428Y-101052380D01*
X148766666Y-101052380D01*
X148909523Y-101100000D01*
X148957142Y-101147619D01*
X149909523Y-102052380D02*
X149338095Y-102052380D01*
X149623809Y-102052380D02*
X149623809Y-101052380D01*
X149528571Y-101195238D01*
X149433333Y-101290476D01*
X149338095Y-101338095D01*
X150814285Y-101052380D02*
X150338095Y-101052380D01*
X150290476Y-101528571D01*
X150338095Y-101480952D01*
X150433333Y-101433333D01*
X150671428Y-101433333D01*
X150766666Y-101480952D01*
X150814285Y-101528571D01*
X150861904Y-101623809D01*
X150861904Y-101861904D01*
X150814285Y-101957142D01*
X150766666Y-102004761D01*
X150671428Y-102052380D01*
X150433333Y-102052380D01*
X150338095Y-102004761D01*
X150290476Y-101957142D01*
X121357142Y-108257142D02*
X121309523Y-108304761D01*
X121166666Y-108352380D01*
X121071428Y-108352380D01*
X120928571Y-108304761D01*
X120833333Y-108209523D01*
X120785714Y-108114285D01*
X120738095Y-107923809D01*
X120738095Y-107780952D01*
X120785714Y-107590476D01*
X120833333Y-107495238D01*
X120928571Y-107400000D01*
X121071428Y-107352380D01*
X121166666Y-107352380D01*
X121309523Y-107400000D01*
X121357142Y-107447619D01*
X122261904Y-107352380D02*
X121785714Y-107352380D01*
X121738095Y-107828571D01*
X121785714Y-107780952D01*
X121880952Y-107733333D01*
X122119047Y-107733333D01*
X122214285Y-107780952D01*
X122261904Y-107828571D01*
X122309523Y-107923809D01*
X122309523Y-108161904D01*
X122261904Y-108257142D01*
X122214285Y-108304761D01*
X122119047Y-108352380D01*
X121880952Y-108352380D01*
X121785714Y-108304761D01*
X121738095Y-108257142D01*
X122785714Y-108352380D02*
X122976190Y-108352380D01*
X123071428Y-108304761D01*
X123119047Y-108257142D01*
X123214285Y-108114285D01*
X123261904Y-107923809D01*
X123261904Y-107542857D01*
X123214285Y-107447619D01*
X123166666Y-107400000D01*
X123071428Y-107352380D01*
X122880952Y-107352380D01*
X122785714Y-107400000D01*
X122738095Y-107447619D01*
X122690476Y-107542857D01*
X122690476Y-107780952D01*
X122738095Y-107876190D01*
X122785714Y-107923809D01*
X122880952Y-107971428D01*
X123071428Y-107971428D01*
X123166666Y-107923809D01*
X123214285Y-107876190D01*
X123261904Y-107780952D01*
X124557142Y-103287142D02*
X124509523Y-103334761D01*
X124366666Y-103382380D01*
X124271428Y-103382380D01*
X124128571Y-103334761D01*
X124033333Y-103239523D01*
X123985714Y-103144285D01*
X123938095Y-102953809D01*
X123938095Y-102810952D01*
X123985714Y-102620476D01*
X124033333Y-102525238D01*
X124128571Y-102430000D01*
X124271428Y-102382380D01*
X124366666Y-102382380D01*
X124509523Y-102430000D01*
X124557142Y-102477619D01*
X125509523Y-103382380D02*
X124938095Y-103382380D01*
X125223809Y-103382380D02*
X125223809Y-102382380D01*
X125128571Y-102525238D01*
X125033333Y-102620476D01*
X124938095Y-102668095D01*
X125985714Y-103382380D02*
X126176190Y-103382380D01*
X126271428Y-103334761D01*
X126319047Y-103287142D01*
X126414285Y-103144285D01*
X126461904Y-102953809D01*
X126461904Y-102572857D01*
X126414285Y-102477619D01*
X126366666Y-102430000D01*
X126271428Y-102382380D01*
X126080952Y-102382380D01*
X125985714Y-102430000D01*
X125938095Y-102477619D01*
X125890476Y-102572857D01*
X125890476Y-102810952D01*
X125938095Y-102906190D01*
X125985714Y-102953809D01*
X126080952Y-103001428D01*
X126271428Y-103001428D01*
X126366666Y-102953809D01*
X126414285Y-102906190D01*
X126461904Y-102810952D01*
X149557142Y-118742857D02*
X149604761Y-118790476D01*
X149652380Y-118933333D01*
X149652380Y-119028571D01*
X149604761Y-119171428D01*
X149509523Y-119266666D01*
X149414285Y-119314285D01*
X149223809Y-119361904D01*
X149080952Y-119361904D01*
X148890476Y-119314285D01*
X148795238Y-119266666D01*
X148700000Y-119171428D01*
X148652380Y-119028571D01*
X148652380Y-118933333D01*
X148700000Y-118790476D01*
X148747619Y-118742857D01*
X148747619Y-118361904D02*
X148700000Y-118314285D01*
X148652380Y-118219047D01*
X148652380Y-117980952D01*
X148700000Y-117885714D01*
X148747619Y-117838095D01*
X148842857Y-117790476D01*
X148938095Y-117790476D01*
X149080952Y-117838095D01*
X149652380Y-118409523D01*
X149652380Y-117790476D01*
X148985714Y-116933333D02*
X149652380Y-116933333D01*
X148604761Y-117171428D02*
X149319047Y-117409523D01*
X149319047Y-116790476D01*
X136833333Y-73057142D02*
X136785714Y-73104761D01*
X136642857Y-73152380D01*
X136547619Y-73152380D01*
X136404761Y-73104761D01*
X136309523Y-73009523D01*
X136261904Y-72914285D01*
X136214285Y-72723809D01*
X136214285Y-72580952D01*
X136261904Y-72390476D01*
X136309523Y-72295238D01*
X136404761Y-72200000D01*
X136547619Y-72152380D01*
X136642857Y-72152380D01*
X136785714Y-72200000D01*
X136833333Y-72247619D01*
X137214285Y-72247619D02*
X137261904Y-72200000D01*
X137357142Y-72152380D01*
X137595238Y-72152380D01*
X137690476Y-72200000D01*
X137738095Y-72247619D01*
X137785714Y-72342857D01*
X137785714Y-72438095D01*
X137738095Y-72580952D01*
X137166666Y-73152380D01*
X137785714Y-73152380D01*
X168952142Y-102187142D02*
X168904523Y-102234761D01*
X168761666Y-102282380D01*
X168666428Y-102282380D01*
X168523571Y-102234761D01*
X168428333Y-102139523D01*
X168380714Y-102044285D01*
X168333095Y-101853809D01*
X168333095Y-101710952D01*
X168380714Y-101520476D01*
X168428333Y-101425238D01*
X168523571Y-101330000D01*
X168666428Y-101282380D01*
X168761666Y-101282380D01*
X168904523Y-101330000D01*
X168952142Y-101377619D01*
X169904523Y-102282380D02*
X169333095Y-102282380D01*
X169618809Y-102282380D02*
X169618809Y-101282380D01*
X169523571Y-101425238D01*
X169428333Y-101520476D01*
X169333095Y-101568095D01*
X170285476Y-101377619D02*
X170333095Y-101330000D01*
X170428333Y-101282380D01*
X170666428Y-101282380D01*
X170761666Y-101330000D01*
X170809285Y-101377619D01*
X170856904Y-101472857D01*
X170856904Y-101568095D01*
X170809285Y-101710952D01*
X170237857Y-102282380D01*
X170856904Y-102282380D01*
X153803333Y-97597380D02*
X153470000Y-97121190D01*
X153231904Y-97597380D02*
X153231904Y-96597380D01*
X153612857Y-96597380D01*
X153708095Y-96645000D01*
X153755714Y-96692619D01*
X153803333Y-96787857D01*
X153803333Y-96930714D01*
X153755714Y-97025952D01*
X153708095Y-97073571D01*
X153612857Y-97121190D01*
X153231904Y-97121190D01*
X154374761Y-97025952D02*
X154279523Y-96978333D01*
X154231904Y-96930714D01*
X154184285Y-96835476D01*
X154184285Y-96787857D01*
X154231904Y-96692619D01*
X154279523Y-96645000D01*
X154374761Y-96597380D01*
X154565238Y-96597380D01*
X154660476Y-96645000D01*
X154708095Y-96692619D01*
X154755714Y-96787857D01*
X154755714Y-96835476D01*
X154708095Y-96930714D01*
X154660476Y-96978333D01*
X154565238Y-97025952D01*
X154374761Y-97025952D01*
X154279523Y-97073571D01*
X154231904Y-97121190D01*
X154184285Y-97216428D01*
X154184285Y-97406904D01*
X154231904Y-97502142D01*
X154279523Y-97549761D01*
X154374761Y-97597380D01*
X154565238Y-97597380D01*
X154660476Y-97549761D01*
X154708095Y-97502142D01*
X154755714Y-97406904D01*
X154755714Y-97216428D01*
X154708095Y-97121190D01*
X154660476Y-97073571D01*
X154565238Y-97025952D01*
X104122380Y-105866666D02*
X103646190Y-106200000D01*
X104122380Y-106438095D02*
X103122380Y-106438095D01*
X103122380Y-106057142D01*
X103170000Y-105961904D01*
X103217619Y-105914285D01*
X103312857Y-105866666D01*
X103455714Y-105866666D01*
X103550952Y-105914285D01*
X103598571Y-105961904D01*
X103646190Y-106057142D01*
X103646190Y-106438095D01*
X103217619Y-105485714D02*
X103170000Y-105438095D01*
X103122380Y-105342857D01*
X103122380Y-105104761D01*
X103170000Y-105009523D01*
X103217619Y-104961904D01*
X103312857Y-104914285D01*
X103408095Y-104914285D01*
X103550952Y-104961904D01*
X104122380Y-105533333D01*
X104122380Y-104914285D01*
X175638095Y-68752380D02*
X175638095Y-67752380D01*
X175638095Y-68228571D02*
X176209523Y-68228571D01*
X176209523Y-68752380D02*
X176209523Y-67752380D01*
X177209523Y-68752380D02*
X176638095Y-68752380D01*
X176923809Y-68752380D02*
X176923809Y-67752380D01*
X176828571Y-67895238D01*
X176733333Y-67990476D01*
X176638095Y-68038095D01*
X107766666Y-104052380D02*
X107766666Y-104766666D01*
X107719047Y-104909523D01*
X107623809Y-105004761D01*
X107480952Y-105052380D01*
X107385714Y-105052380D01*
X108766666Y-105052380D02*
X108195238Y-105052380D01*
X108480952Y-105052380D02*
X108480952Y-104052380D01*
X108385714Y-104195238D01*
X108290476Y-104290476D01*
X108195238Y-104338095D01*
X113533333Y-80952380D02*
X113057142Y-80952380D01*
X113057142Y-79952380D01*
X114390476Y-80952380D02*
X113819047Y-80952380D01*
X114104761Y-80952380D02*
X114104761Y-79952380D01*
X114009523Y-80095238D01*
X113914285Y-80190476D01*
X113819047Y-80238095D01*
X109852380Y-81700000D02*
X110090476Y-81700000D01*
X109995238Y-81938095D02*
X110090476Y-81700000D01*
X109995238Y-81461904D01*
X110280952Y-81842857D02*
X110090476Y-81700000D01*
X110280952Y-81557142D01*
X152457142Y-123552380D02*
X152123809Y-123076190D01*
X151885714Y-123552380D02*
X151885714Y-122552380D01*
X152266666Y-122552380D01*
X152361904Y-122600000D01*
X152409523Y-122647619D01*
X152457142Y-122742857D01*
X152457142Y-122885714D01*
X152409523Y-122980952D01*
X152361904Y-123028571D01*
X152266666Y-123076190D01*
X151885714Y-123076190D01*
X153409523Y-123552380D02*
X152838095Y-123552380D01*
X153123809Y-123552380D02*
X153123809Y-122552380D01*
X153028571Y-122695238D01*
X152933333Y-122790476D01*
X152838095Y-122838095D01*
X154361904Y-123552380D02*
X153790476Y-123552380D01*
X154076190Y-123552380D02*
X154076190Y-122552380D01*
X153980952Y-122695238D01*
X153885714Y-122790476D01*
X153790476Y-122838095D01*
X101138095Y-123652380D02*
X101138095Y-122652380D01*
X101138095Y-123128571D02*
X101709523Y-123128571D01*
X101709523Y-123652380D02*
X101709523Y-122652380D01*
X102614285Y-122985714D02*
X102614285Y-123652380D01*
X102376190Y-122604761D02*
X102138095Y-123319047D01*
X102757142Y-123319047D01*
X161033333Y-117052380D02*
X160557142Y-117052380D01*
X160557142Y-116052380D01*
X161271428Y-116052380D02*
X161890476Y-116052380D01*
X161557142Y-116433333D01*
X161700000Y-116433333D01*
X161795238Y-116480952D01*
X161842857Y-116528571D01*
X161890476Y-116623809D01*
X161890476Y-116861904D01*
X161842857Y-116957142D01*
X161795238Y-117004761D01*
X161700000Y-117052380D01*
X161414285Y-117052380D01*
X161319047Y-117004761D01*
X161271428Y-116957142D01*
X139933333Y-73057142D02*
X139885714Y-73104761D01*
X139742857Y-73152380D01*
X139647619Y-73152380D01*
X139504761Y-73104761D01*
X139409523Y-73009523D01*
X139361904Y-72914285D01*
X139314285Y-72723809D01*
X139314285Y-72580952D01*
X139361904Y-72390476D01*
X139409523Y-72295238D01*
X139504761Y-72200000D01*
X139647619Y-72152380D01*
X139742857Y-72152380D01*
X139885714Y-72200000D01*
X139933333Y-72247619D01*
X140266666Y-72152380D02*
X140885714Y-72152380D01*
X140552380Y-72533333D01*
X140695238Y-72533333D01*
X140790476Y-72580952D01*
X140838095Y-72628571D01*
X140885714Y-72723809D01*
X140885714Y-72961904D01*
X140838095Y-73057142D01*
X140790476Y-73104761D01*
X140695238Y-73152380D01*
X140409523Y-73152380D01*
X140314285Y-73104761D01*
X140266666Y-73057142D01*
X142633333Y-73157142D02*
X142585714Y-73204761D01*
X142442857Y-73252380D01*
X142347619Y-73252380D01*
X142204761Y-73204761D01*
X142109523Y-73109523D01*
X142061904Y-73014285D01*
X142014285Y-72823809D01*
X142014285Y-72680952D01*
X142061904Y-72490476D01*
X142109523Y-72395238D01*
X142204761Y-72300000D01*
X142347619Y-72252380D01*
X142442857Y-72252380D01*
X142585714Y-72300000D01*
X142633333Y-72347619D01*
X143490476Y-72585714D02*
X143490476Y-73252380D01*
X143252380Y-72204761D02*
X143014285Y-72919047D01*
X143633333Y-72919047D01*
X121357142Y-106357142D02*
X121309523Y-106404761D01*
X121166666Y-106452380D01*
X121071428Y-106452380D01*
X120928571Y-106404761D01*
X120833333Y-106309523D01*
X120785714Y-106214285D01*
X120738095Y-106023809D01*
X120738095Y-105880952D01*
X120785714Y-105690476D01*
X120833333Y-105595238D01*
X120928571Y-105500000D01*
X121071428Y-105452380D01*
X121166666Y-105452380D01*
X121309523Y-105500000D01*
X121357142Y-105547619D01*
X121690476Y-105452380D02*
X122309523Y-105452380D01*
X121976190Y-105833333D01*
X122119047Y-105833333D01*
X122214285Y-105880952D01*
X122261904Y-105928571D01*
X122309523Y-106023809D01*
X122309523Y-106261904D01*
X122261904Y-106357142D01*
X122214285Y-106404761D01*
X122119047Y-106452380D01*
X121833333Y-106452380D01*
X121738095Y-106404761D01*
X121690476Y-106357142D01*
X122642857Y-105452380D02*
X123261904Y-105452380D01*
X122928571Y-105833333D01*
X123071428Y-105833333D01*
X123166666Y-105880952D01*
X123214285Y-105928571D01*
X123261904Y-106023809D01*
X123261904Y-106261904D01*
X123214285Y-106357142D01*
X123166666Y-106404761D01*
X123071428Y-106452380D01*
X122785714Y-106452380D01*
X122690476Y-106404761D01*
X122642857Y-106357142D01*
X148927142Y-100402142D02*
X148879523Y-100449761D01*
X148736666Y-100497380D01*
X148641428Y-100497380D01*
X148498571Y-100449761D01*
X148403333Y-100354523D01*
X148355714Y-100259285D01*
X148308095Y-100068809D01*
X148308095Y-99925952D01*
X148355714Y-99735476D01*
X148403333Y-99640238D01*
X148498571Y-99545000D01*
X148641428Y-99497380D01*
X148736666Y-99497380D01*
X148879523Y-99545000D01*
X148927142Y-99592619D01*
X149879523Y-100497380D02*
X149308095Y-100497380D01*
X149593809Y-100497380D02*
X149593809Y-99497380D01*
X149498571Y-99640238D01*
X149403333Y-99735476D01*
X149308095Y-99783095D01*
X150831904Y-100497380D02*
X150260476Y-100497380D01*
X150546190Y-100497380D02*
X150546190Y-99497380D01*
X150450952Y-99640238D01*
X150355714Y-99735476D01*
X150260476Y-99783095D01*
D11*
X177065000Y-102510000D02*
X173325000Y-102510000D01*
X177065000Y-102510000D02*
X177065000Y-109750000D01*
X177065000Y-109750000D02*
X173325000Y-109750000D01*
X173325000Y-102510000D02*
X173325000Y-109750000D01*
X124762742Y-103777500D02*
X125237258Y-103777500D01*
X124762742Y-104822500D02*
X125237258Y-104822500D01*
X117980000Y-116470000D02*
X125220000Y-116470000D01*
X117980000Y-112730000D02*
X125220000Y-112730000D01*
X117980000Y-112730000D02*
X117980000Y-116470000D01*
X125220000Y-112730000D02*
X125220000Y-116470000D01*
X167965000Y-119161252D02*
X167965000Y-118638748D01*
X169435000Y-119161252D02*
X169435000Y-118638748D01*
X144453323Y-122541000D02*
X144453323Y-125921000D01*
X144413323Y-116661000D02*
X144413323Y-120059000D01*
X145533323Y-122541000D02*
X145533323Y-125257000D01*
X145053323Y-117002000D02*
X145053323Y-120059000D01*
X145813323Y-122541000D02*
X145813323Y-125016000D01*
X142372323Y-116220000D02*
X142372323Y-126380000D01*
X147333323Y-120238000D02*
X147333323Y-122362000D01*
X145493323Y-117311000D02*
X145493323Y-120059000D01*
X145693323Y-122541000D02*
X145693323Y-125124000D01*
X146933323Y-119091000D02*
X146933323Y-123509000D01*
X143853323Y-116450000D02*
X143853323Y-120059000D01*
X145093323Y-122541000D02*
X145093323Y-125573000D01*
X145613323Y-122541000D02*
X145613323Y-125192000D01*
X144493323Y-122541000D02*
X144493323Y-125903000D01*
X144773323Y-116838000D02*
X144773323Y-120059000D01*
X145213323Y-122541000D02*
X145213323Y-125494000D01*
X144733323Y-122541000D02*
X144733323Y-125783000D01*
X145133323Y-122541000D02*
X145133323Y-125547000D01*
X144333323Y-122541000D02*
X144333323Y-125974000D01*
X143973323Y-116489000D02*
X143973323Y-120059000D01*
X145213323Y-117106000D02*
X145213323Y-120059000D01*
X146333323Y-118144000D02*
X146333323Y-124456000D01*
X145093323Y-117027000D02*
X145093323Y-120059000D01*
X146853323Y-118935000D02*
X146853323Y-123665000D01*
X145373323Y-122541000D02*
X145373323Y-125380000D01*
X144853323Y-122541000D02*
X144853323Y-125717000D01*
X144893323Y-116905000D02*
X144893323Y-120059000D01*
X145973323Y-122541000D02*
X145973323Y-124861000D01*
X144893323Y-122541000D02*
X144893323Y-125695000D01*
X144413323Y-122541000D02*
X144413323Y-125939000D01*
X145733323Y-117511000D02*
X145733323Y-120059000D01*
X145773323Y-117547000D02*
X145773323Y-120059000D01*
X144853323Y-116883000D02*
X144853323Y-120059000D01*
X143173323Y-116289000D02*
X143173323Y-126311000D01*
X144773323Y-122541000D02*
X144773323Y-125762000D01*
X144813323Y-122541000D02*
X144813323Y-125740000D01*
X144173323Y-122541000D02*
X144173323Y-126038000D01*
X143653323Y-122541000D02*
X143653323Y-126207000D01*
X145333323Y-117190000D02*
X145333323Y-120059000D01*
X146493323Y-118355000D02*
X146493323Y-124245000D01*
X147413323Y-120701000D02*
X147413323Y-121899000D01*
X144653323Y-122541000D02*
X144653323Y-125825000D01*
X145413323Y-122541000D02*
X145413323Y-125350000D01*
X146053323Y-122541000D02*
X146053323Y-124778000D01*
X145173323Y-122541000D02*
X145173323Y-125521000D01*
X144373323Y-122541000D02*
X144373323Y-125957000D01*
X144053323Y-122541000D02*
X144053323Y-126083000D01*
X143053323Y-116270000D02*
X143053323Y-126330000D01*
X146893323Y-119011000D02*
X146893323Y-123589000D01*
X144013323Y-116503000D02*
X144013323Y-120059000D01*
X144093323Y-116532000D02*
X144093323Y-120059000D01*
X143733323Y-116415000D02*
X143733323Y-120059000D01*
X145373323Y-117220000D02*
X145373323Y-120059000D01*
X144333323Y-116626000D02*
X144333323Y-120059000D01*
X145853323Y-117621000D02*
X145853323Y-120059000D01*
X143773323Y-122541000D02*
X143773323Y-126174000D01*
X144253323Y-122541000D02*
X144253323Y-126007000D01*
X144453323Y-116679000D02*
X144453323Y-120059000D01*
X143733323Y-122541000D02*
X143733323Y-126185000D01*
X143933323Y-116476000D02*
X143933323Y-120059000D01*
X145893323Y-117660000D02*
X145893323Y-120059000D01*
X144813323Y-116860000D02*
X144813323Y-120059000D01*
X146813323Y-118861000D02*
X146813323Y-123739000D01*
X146453323Y-118300000D02*
X146453323Y-124300000D01*
X143813323Y-122541000D02*
X143813323Y-126162000D01*
X147293323Y-120070000D02*
X147293323Y-122530000D01*
X143893323Y-122541000D02*
X143893323Y-126137000D01*
X143493323Y-116353000D02*
X143493323Y-126247000D01*
X145173323Y-117079000D02*
X145173323Y-120059000D01*
X146973323Y-119175000D02*
X146973323Y-123425000D01*
X146693323Y-118655000D02*
X146693323Y-123945000D01*
X146413323Y-118246000D02*
X146413323Y-124354000D01*
X144573323Y-116736000D02*
X144573323Y-120059000D01*
X144493323Y-116697000D02*
X144493323Y-120059000D01*
X144533323Y-116716000D02*
X144533323Y-120059000D01*
X145533323Y-117343000D02*
X145533323Y-120059000D01*
X146533323Y-118411000D02*
X146533323Y-124189000D01*
X144693323Y-122541000D02*
X144693323Y-125804000D01*
X142412323Y-116220000D02*
X142412323Y-126380000D01*
X143613323Y-122541000D02*
X143613323Y-126218000D01*
X143973323Y-122541000D02*
X143973323Y-126111000D01*
X143693323Y-122541000D02*
X143693323Y-126197000D01*
X143893323Y-116463000D02*
X143893323Y-120059000D01*
X145333323Y-122541000D02*
X145333323Y-125410000D01*
X142772323Y-116238000D02*
X142772323Y-126362000D01*
X144973323Y-116953000D02*
X144973323Y-120059000D01*
X146653323Y-118591000D02*
X146653323Y-124009000D01*
X143293323Y-116310000D02*
X143293323Y-126290000D01*
X143093323Y-116276000D02*
X143093323Y-126324000D01*
X145813323Y-117584000D02*
X145813323Y-120059000D01*
X142652323Y-116230000D02*
X142652323Y-126370000D01*
X146133323Y-117908000D02*
X146133323Y-124692000D01*
X143373323Y-116326000D02*
X143373323Y-126274000D01*
X147093323Y-119454000D02*
X147093323Y-123146000D01*
X145573323Y-122541000D02*
X145573323Y-125225000D01*
X145413323Y-117250000D02*
X145413323Y-120059000D01*
X142852323Y-116246000D02*
X142852323Y-126354000D01*
X137352677Y-117925000D02*
X137352677Y-118925000D01*
X145053323Y-122541000D02*
X145053323Y-125598000D01*
X144293323Y-116610000D02*
X144293323Y-120059000D01*
X143453323Y-116344000D02*
X143453323Y-126256000D01*
X146733323Y-118721000D02*
X146733323Y-123879000D01*
X144933323Y-122541000D02*
X144933323Y-125671000D01*
X142452323Y-116221000D02*
X142452323Y-126379000D01*
X142932323Y-116255000D02*
X142932323Y-126345000D01*
X145013323Y-122541000D02*
X145013323Y-125623000D01*
X143253323Y-116303000D02*
X143253323Y-126297000D01*
X136852677Y-118425000D02*
X137852677Y-118425000D01*
X144973323Y-122541000D02*
X144973323Y-125647000D01*
X142572323Y-116225000D02*
X142572323Y-126375000D01*
X142812323Y-116242000D02*
X142812323Y-126358000D01*
X145773323Y-122541000D02*
X145773323Y-125053000D01*
X144693323Y-116796000D02*
X144693323Y-120059000D01*
X144933323Y-116929000D02*
X144933323Y-120059000D01*
X144613323Y-122541000D02*
X144613323Y-125845000D01*
X145613323Y-117408000D02*
X145613323Y-120059000D01*
X144253323Y-116593000D02*
X144253323Y-120059000D01*
X147253323Y-119922000D02*
X147253323Y-122678000D01*
X142972323Y-116260000D02*
X142972323Y-126340000D01*
X147373323Y-120438000D02*
X147373323Y-122162000D01*
X146213323Y-117999000D02*
X146213323Y-124601000D01*
X145293323Y-117162000D02*
X145293323Y-120059000D01*
X143773323Y-116426000D02*
X143773323Y-120059000D01*
X142532323Y-116223000D02*
X142532323Y-126377000D01*
X145253323Y-122541000D02*
X145253323Y-125466000D01*
X144013323Y-122541000D02*
X144013323Y-126097000D01*
X144133323Y-122541000D02*
X144133323Y-126054000D01*
X144613323Y-116755000D02*
X144613323Y-120059000D01*
X145933323Y-117699000D02*
X145933323Y-120059000D01*
X146773323Y-118790000D02*
X146773323Y-123810000D01*
X145693323Y-117476000D02*
X145693323Y-120059000D01*
X145493323Y-122541000D02*
X145493323Y-125289000D01*
X143813323Y-116438000D02*
X143813323Y-120059000D01*
X147013323Y-119263000D02*
X147013323Y-123337000D01*
X146613323Y-118530000D02*
X146613323Y-124070000D01*
X145293323Y-122541000D02*
X145293323Y-125438000D01*
X145933323Y-122541000D02*
X145933323Y-124901000D01*
X146013323Y-117780000D02*
X146013323Y-120059000D01*
X143693323Y-116403000D02*
X143693323Y-120059000D01*
X146253323Y-118046000D02*
X146253323Y-124554000D01*
X146373323Y-118194000D02*
X146373323Y-124406000D01*
X147133323Y-119558000D02*
X147133323Y-123042000D01*
X142492323Y-116222000D02*
X142492323Y-126378000D01*
X143613323Y-116382000D02*
X143613323Y-120059000D01*
X142692323Y-116232000D02*
X142692323Y-126368000D01*
X145133323Y-117053000D02*
X145133323Y-120059000D01*
X145013323Y-116977000D02*
X145013323Y-120059000D01*
X142332323Y-116220000D02*
X142332323Y-126380000D01*
X146053323Y-117822000D02*
X146053323Y-120059000D01*
X143573323Y-116372000D02*
X143573323Y-126228000D01*
X142612323Y-116227000D02*
X142612323Y-126373000D01*
X145453323Y-117280000D02*
X145453323Y-120059000D01*
X143133323Y-116282000D02*
X143133323Y-126318000D01*
X145733323Y-122541000D02*
X145733323Y-125089000D01*
X144213323Y-122541000D02*
X144213323Y-126023000D01*
X147173323Y-119670000D02*
X147173323Y-122930000D01*
X144173323Y-116562000D02*
X144173323Y-120059000D01*
X144373323Y-116643000D02*
X144373323Y-120059000D01*
X145973323Y-117739000D02*
X145973323Y-120059000D01*
X145573323Y-117375000D02*
X145573323Y-120059000D01*
X145893323Y-122541000D02*
X145893323Y-124940000D01*
X146293323Y-118094000D02*
X146293323Y-124506000D01*
X145653323Y-117442000D02*
X145653323Y-120059000D01*
X145653323Y-122541000D02*
X145653323Y-125158000D01*
X144053323Y-116517000D02*
X144053323Y-120059000D01*
X143653323Y-116393000D02*
X143653323Y-120059000D01*
X145453323Y-122541000D02*
X145453323Y-125320000D01*
X142732323Y-116235000D02*
X142732323Y-126365000D01*
X144653323Y-116775000D02*
X144653323Y-120059000D01*
X143012323Y-116265000D02*
X143012323Y-126335000D01*
X147213323Y-119790000D02*
X147213323Y-122810000D01*
X143413323Y-116335000D02*
X143413323Y-126265000D01*
X144133323Y-116546000D02*
X144133323Y-120059000D01*
X144573323Y-122541000D02*
X144573323Y-125864000D01*
X144733323Y-116817000D02*
X144733323Y-120059000D01*
X144533323Y-122541000D02*
X144533323Y-125884000D01*
X143853323Y-122541000D02*
X143853323Y-126150000D01*
X142892323Y-116250000D02*
X142892323Y-126350000D01*
X143333323Y-116318000D02*
X143333323Y-126282000D01*
X147053323Y-119356000D02*
X147053323Y-123244000D01*
X143533323Y-116362000D02*
X143533323Y-126238000D01*
X146013323Y-122541000D02*
X146013323Y-124820000D01*
X143213323Y-116296000D02*
X143213323Y-126304000D01*
X144293323Y-122541000D02*
X144293323Y-125990000D01*
X145253323Y-117134000D02*
X145253323Y-120059000D01*
X144093323Y-122541000D02*
X144093323Y-126068000D01*
X146173323Y-117953000D02*
X146173323Y-124647000D01*
X146093323Y-117864000D02*
X146093323Y-124736000D01*
X143933323Y-122541000D02*
X143933323Y-126124000D01*
X146573323Y-118470000D02*
X146573323Y-124130000D01*
X145853323Y-122541000D02*
X145853323Y-124979000D01*
X144213323Y-116577000D02*
X144213323Y-120059000D01*
X147452323Y-121300000D02*
G75*
G03*
X147452323Y-121300000I-5120000J0D01*
G01*
X168090000Y-95170000D02*
X156250000Y-95170000D01*
X156250000Y-95170000D02*
X156250000Y-105920000D01*
X156250000Y-105920000D02*
X168090000Y-105920000D01*
X168090000Y-105920000D02*
X168090000Y-95170000D01*
X178370000Y-107930000D02*
X178370000Y-110530000D01*
X181030000Y-107930000D02*
X181030000Y-110530000D01*
X178370000Y-107930000D02*
X181030000Y-107930000D01*
X178370000Y-105330000D02*
X179700000Y-105330000D01*
X178370000Y-106660000D02*
X178370000Y-105330000D01*
X178370000Y-110530000D02*
X181030000Y-110530000D01*
X142959000Y-88493323D02*
X139303000Y-88493323D01*
X147720000Y-90813323D02*
X145441000Y-90813323D01*
X146046000Y-91893323D02*
X142354000Y-91893323D01*
X146639000Y-91613323D02*
X141761000Y-91613323D01*
X149062000Y-88613323D02*
X145441000Y-88613323D01*
X148662000Y-89573323D02*
X145441000Y-89573323D01*
X142959000Y-89493323D02*
X139696000Y-89493323D01*
X148907000Y-89053323D02*
X145441000Y-89053323D01*
X142959000Y-89173323D02*
X139543000Y-89173323D01*
X148803000Y-89293323D02*
X145441000Y-89293323D01*
X149265000Y-87532323D02*
X139135000Y-87532323D01*
X142959000Y-90293323D02*
X140211000Y-90293323D01*
X148968000Y-88893323D02*
X145441000Y-88893323D01*
X142959000Y-90173323D02*
X140120000Y-90173323D01*
X149074000Y-88573323D02*
X145441000Y-88573323D01*
X148125000Y-90373323D02*
X145441000Y-90373323D01*
X148280000Y-90173323D02*
X145441000Y-90173323D01*
X148857000Y-89173323D02*
X145441000Y-89173323D01*
X149254000Y-87652323D02*
X139146000Y-87652323D01*
X149197000Y-88053323D02*
X139203000Y-88053323D01*
X148092000Y-90413323D02*
X145441000Y-90413323D01*
X147089000Y-91333323D02*
X141311000Y-91333323D01*
X147356000Y-91133323D02*
X141044000Y-91133323D01*
X149190000Y-88093323D02*
X139210000Y-88093323D01*
X146710000Y-91573323D02*
X141690000Y-91573323D01*
X149128000Y-88373323D02*
X139272000Y-88373323D01*
X147989000Y-90533323D02*
X145441000Y-90533323D01*
X147575000Y-82152677D02*
X146575000Y-82152677D01*
X148595000Y-89693323D02*
X145441000Y-89693323D01*
X149277000Y-87332323D02*
X139123000Y-87332323D01*
X142959000Y-90213323D02*
X140150000Y-90213323D01*
X149107000Y-88453323D02*
X145441000Y-88453323D01*
X145062000Y-92173323D02*
X143338000Y-92173323D01*
X142959000Y-89253323D02*
X139579000Y-89253323D01*
X144799000Y-92213323D02*
X143601000Y-92213323D01*
X148821000Y-89253323D02*
X145441000Y-89253323D01*
X149250000Y-87692323D02*
X139150000Y-87692323D01*
X142959000Y-89693323D02*
X139805000Y-89693323D01*
X149278000Y-87292323D02*
X139122000Y-87292323D01*
X149218000Y-87933323D02*
X139182000Y-87933323D01*
X145942000Y-91933323D02*
X142458000Y-91933323D01*
X148997000Y-88813323D02*
X145441000Y-88813323D01*
X148250000Y-90213323D02*
X145441000Y-90213323D01*
X142959000Y-89453323D02*
X139675000Y-89453323D01*
X142959000Y-88733323D02*
X139376000Y-88733323D01*
X148220000Y-90253323D02*
X145441000Y-90253323D01*
X149224000Y-87893323D02*
X139176000Y-87893323D01*
X148725000Y-89453323D02*
X145441000Y-89453323D01*
X148764000Y-89373323D02*
X145441000Y-89373323D01*
X142959000Y-89413323D02*
X139655000Y-89413323D01*
X148923000Y-89013323D02*
X145441000Y-89013323D01*
X142959000Y-89733323D02*
X139829000Y-89733323D01*
X142959000Y-89853323D02*
X139902000Y-89853323D01*
X149280000Y-87172323D02*
X139120000Y-87172323D01*
X145830000Y-91973323D02*
X142570000Y-91973323D01*
X146489000Y-91693323D02*
X141911000Y-91693323D01*
X149204000Y-88013323D02*
X139196000Y-88013323D01*
X142959000Y-90373323D02*
X140275000Y-90373323D01*
X146325000Y-91773323D02*
X142075000Y-91773323D01*
X147953000Y-90573323D02*
X145441000Y-90573323D01*
X142959000Y-90453323D02*
X140342000Y-90453323D01*
X142959000Y-88893323D02*
X139432000Y-88893323D01*
X142959000Y-89893323D02*
X139927000Y-89893323D01*
X142959000Y-90733323D02*
X140599000Y-90733323D01*
X147200000Y-91253323D02*
X141200000Y-91253323D01*
X147879000Y-90653323D02*
X145441000Y-90653323D01*
X142959000Y-89093323D02*
X139510000Y-89093323D01*
X148547000Y-89773323D02*
X145441000Y-89773323D01*
X147801000Y-90733323D02*
X145441000Y-90733323D01*
X146909000Y-91453323D02*
X141491000Y-91453323D01*
X142959000Y-88853323D02*
X139417000Y-88853323D01*
X149037000Y-88693323D02*
X145441000Y-88693323D01*
X142959000Y-89573323D02*
X139738000Y-89573323D01*
X142959000Y-88453323D02*
X139293000Y-88453323D01*
X142959000Y-88653323D02*
X139350000Y-88653323D01*
X147501000Y-91013323D02*
X140899000Y-91013323D01*
X149273000Y-87412323D02*
X139127000Y-87412323D01*
X142959000Y-89613323D02*
X139760000Y-89613323D01*
X142959000Y-90653323D02*
X140521000Y-90653323D01*
X146409000Y-91733323D02*
X141991000Y-91733323D01*
X148157000Y-90333323D02*
X145441000Y-90333323D01*
X149262000Y-87572323D02*
X139138000Y-87572323D01*
X148338000Y-90093323D02*
X145441000Y-90093323D01*
X149011000Y-88773323D02*
X145441000Y-88773323D01*
X148784000Y-89333323D02*
X145441000Y-89333323D01*
X142959000Y-90613323D02*
X140484000Y-90613323D01*
X142959000Y-90333323D02*
X140243000Y-90333323D01*
X147636000Y-90893323D02*
X140764000Y-90893323D01*
X142959000Y-90773323D02*
X140639000Y-90773323D01*
X149138000Y-88333323D02*
X139262000Y-88333323D01*
X148983000Y-88853323D02*
X145441000Y-88853323D01*
X147454000Y-91053323D02*
X140946000Y-91053323D01*
X142959000Y-89973323D02*
X139979000Y-89973323D01*
X149174000Y-88173323D02*
X139226000Y-88173323D01*
X142959000Y-88413323D02*
X139282000Y-88413323D01*
X142959000Y-90093323D02*
X140062000Y-90093323D01*
X145710000Y-92013323D02*
X142690000Y-92013323D01*
X145430000Y-92093323D02*
X142970000Y-92093323D01*
X142959000Y-89133323D02*
X139526000Y-89133323D01*
X149085000Y-88533323D02*
X145441000Y-88533323D01*
X142959000Y-90853323D02*
X140722000Y-90853323D01*
X145578000Y-92053323D02*
X142822000Y-92053323D01*
X149279000Y-87252323D02*
X139121000Y-87252323D01*
X142959000Y-90253323D02*
X140180000Y-90253323D01*
X148745000Y-89413323D02*
X145441000Y-89413323D01*
X148447000Y-89933323D02*
X145441000Y-89933323D01*
X142959000Y-90133323D02*
X140090000Y-90133323D01*
X142959000Y-90413323D02*
X140308000Y-90413323D01*
X149240000Y-87772323D02*
X139160000Y-87772323D01*
X149268000Y-87492323D02*
X139132000Y-87492323D01*
X148498000Y-89853323D02*
X145441000Y-89853323D01*
X149230000Y-87853323D02*
X139170000Y-87853323D01*
X147840000Y-90693323D02*
X145441000Y-90693323D01*
X142959000Y-89333323D02*
X139616000Y-89333323D01*
X149024000Y-88733323D02*
X145441000Y-88733323D01*
X149245000Y-87732323D02*
X139155000Y-87732323D01*
X148683000Y-89533323D02*
X145441000Y-89533323D01*
X148058000Y-90453323D02*
X145441000Y-90453323D01*
X149280000Y-87212323D02*
X139120000Y-87212323D01*
X142959000Y-89813323D02*
X139877000Y-89813323D01*
X142959000Y-89053323D02*
X139493000Y-89053323D01*
X142959000Y-88933323D02*
X139446000Y-88933323D01*
X142959000Y-89773323D02*
X139853000Y-89773323D01*
X148839000Y-89213323D02*
X145441000Y-89213323D01*
X142959000Y-90493323D02*
X140376000Y-90493323D01*
X145262000Y-92133323D02*
X143138000Y-92133323D01*
X148704000Y-89493323D02*
X145441000Y-89493323D01*
X142959000Y-90533323D02*
X140411000Y-90533323D01*
X146779000Y-91533323D02*
X141621000Y-91533323D01*
X147761000Y-90773323D02*
X145441000Y-90773323D01*
X148890000Y-89093323D02*
X145441000Y-89093323D01*
X147592000Y-90933323D02*
X140808000Y-90933323D01*
X149118000Y-88413323D02*
X145441000Y-88413323D01*
X142959000Y-89533323D02*
X139717000Y-89533323D01*
X142959000Y-88693323D02*
X139363000Y-88693323D01*
X148640000Y-89613323D02*
X145441000Y-89613323D01*
X148189000Y-90293323D02*
X145441000Y-90293323D01*
X148938000Y-88973323D02*
X145441000Y-88973323D01*
X147547000Y-90973323D02*
X140853000Y-90973323D01*
X148366000Y-90053323D02*
X145441000Y-90053323D01*
X142959000Y-88773323D02*
X139389000Y-88773323D01*
X148874000Y-89133323D02*
X145441000Y-89133323D01*
X147678000Y-90853323D02*
X145441000Y-90853323D01*
X147254000Y-91213323D02*
X141146000Y-91213323D01*
X142959000Y-89933323D02*
X139953000Y-89933323D01*
X146970000Y-91413323D02*
X141430000Y-91413323D01*
X146845000Y-91493323D02*
X141555000Y-91493323D01*
X149156000Y-88253323D02*
X139244000Y-88253323D01*
X142959000Y-88573323D02*
X139326000Y-88573323D01*
X142959000Y-90573323D02*
X140447000Y-90573323D01*
X149165000Y-88213323D02*
X139235000Y-88213323D01*
X142959000Y-90013323D02*
X140006000Y-90013323D01*
X142959000Y-88813323D02*
X139403000Y-88813323D01*
X146144000Y-91853323D02*
X142256000Y-91853323D01*
X142959000Y-88533323D02*
X139315000Y-88533323D01*
X149275000Y-87372323D02*
X139125000Y-87372323D01*
X149050000Y-88653323D02*
X145441000Y-88653323D01*
X148523000Y-89813323D02*
X145441000Y-89813323D01*
X149235000Y-87812323D02*
X139165000Y-87812323D01*
X146237000Y-91813323D02*
X142163000Y-91813323D01*
X142959000Y-89013323D02*
X139477000Y-89013323D01*
X142959000Y-89653323D02*
X139783000Y-89653323D01*
X147145000Y-91293323D02*
X141255000Y-91293323D01*
X142959000Y-90053323D02*
X140034000Y-90053323D01*
X149211000Y-87973323D02*
X139189000Y-87973323D01*
X149280000Y-87132323D02*
X139120000Y-87132323D01*
X142959000Y-90693323D02*
X140560000Y-90693323D01*
X148310000Y-90133323D02*
X145441000Y-90133323D01*
X142959000Y-88613323D02*
X139338000Y-88613323D01*
X147406000Y-91093323D02*
X140994000Y-91093323D01*
X149258000Y-87612323D02*
X139142000Y-87612323D01*
X142959000Y-89293323D02*
X139597000Y-89293323D01*
X148394000Y-90013323D02*
X145441000Y-90013323D01*
X149182000Y-88133323D02*
X139218000Y-88133323D01*
X148617000Y-89653323D02*
X145441000Y-89653323D01*
X147306000Y-91173323D02*
X141094000Y-91173323D01*
X148421000Y-89973323D02*
X145441000Y-89973323D01*
X142959000Y-90813323D02*
X140680000Y-90813323D01*
X148954000Y-88933323D02*
X145441000Y-88933323D01*
X147030000Y-91373323D02*
X141370000Y-91373323D01*
X149097000Y-88493323D02*
X145441000Y-88493323D01*
X142959000Y-89213323D02*
X139561000Y-89213323D01*
X148024000Y-90493323D02*
X145441000Y-90493323D01*
X142959000Y-89373323D02*
X139636000Y-89373323D01*
X147916000Y-90613323D02*
X145441000Y-90613323D01*
X149270000Y-87452323D02*
X139130000Y-87452323D01*
X148571000Y-89733323D02*
X145441000Y-89733323D01*
X148473000Y-89893323D02*
X145441000Y-89893323D01*
X142959000Y-88973323D02*
X139462000Y-88973323D01*
X146565000Y-91653323D02*
X141835000Y-91653323D01*
X149147000Y-88293323D02*
X139253000Y-88293323D01*
X147075000Y-81652677D02*
X147075000Y-82652677D01*
X149320000Y-87132323D02*
G75*
G03*
X149320000Y-87132323I-5120000J0D01*
G01*
X122860000Y-99500000D02*
X122860000Y-100150000D01*
X119740000Y-99500000D02*
X119740000Y-98850000D01*
X119740000Y-99500000D02*
X119740000Y-100150000D01*
X122860000Y-99500000D02*
X122860000Y-97825000D01*
X159285000Y-77805000D02*
X159285000Y-72605000D01*
X154145000Y-77805000D02*
X159285000Y-77805000D01*
X152875000Y-77805000D02*
X151545000Y-77805000D01*
X151545000Y-72605000D02*
X159285000Y-72605000D01*
X151545000Y-75205000D02*
X151545000Y-72605000D01*
X151545000Y-77805000D02*
X151545000Y-76475000D01*
X154145000Y-75205000D02*
X151545000Y-75205000D01*
X154145000Y-77805000D02*
X154145000Y-75205000D01*
X170390000Y-118840580D02*
X170390000Y-118559420D01*
X171410000Y-118840580D02*
X171410000Y-118559420D01*
X167965000Y-114761252D02*
X167965000Y-114238748D01*
X169435000Y-114761252D02*
X169435000Y-114238748D01*
X151840000Y-110872936D02*
X151840000Y-113927064D01*
X154560000Y-110872936D02*
X154560000Y-113927064D01*
X178370000Y-119140000D02*
X181030000Y-119140000D01*
X178370000Y-116540000D02*
X178370000Y-119140000D01*
X178370000Y-113940000D02*
X179700000Y-113940000D01*
X178370000Y-115270000D02*
X178370000Y-113940000D01*
X178370000Y-116540000D02*
X181030000Y-116540000D01*
X181030000Y-116540000D02*
X181030000Y-119140000D01*
X137311252Y-94810000D02*
X135888748Y-94810000D01*
X137311252Y-92990000D02*
X135888748Y-92990000D01*
X114677500Y-98462742D02*
X114677500Y-98937258D01*
X115722500Y-98462742D02*
X115722500Y-98937258D01*
X142887100Y-96642000D02*
X142297938Y-96642000D01*
X129176062Y-96642000D02*
X128586900Y-96642000D01*
X128586900Y-110942200D02*
X129176062Y-110942200D01*
X128586900Y-110353038D02*
X128586900Y-110942200D01*
X128586900Y-96642000D02*
X128586900Y-97231162D01*
X142297938Y-110942200D02*
X142887100Y-110942200D01*
X142887100Y-110942200D02*
X142887100Y-110353038D01*
X142887100Y-97231162D02*
X142887100Y-96642000D01*
D12*
X144672199Y-104001599D02*
X144672199Y-104382599D01*
X144672199Y-104382599D02*
X144418199Y-104382599D01*
X144418199Y-104382599D02*
X144418199Y-104001599D01*
X144418199Y-104001599D02*
X144672199Y-104001599D01*
G36*
X144672199Y-104382599D02*
G01*
X144418199Y-104382599D01*
X144418199Y-104001599D01*
X144672199Y-104001599D01*
X144672199Y-104382599D01*
G37*
X144672199Y-104382599D02*
X144418199Y-104382599D01*
X144418199Y-104001599D01*
X144672199Y-104001599D01*
X144672199Y-104382599D01*
X140746500Y-95110901D02*
X140746500Y-94856901D01*
X140746500Y-94856901D02*
X141127500Y-94856901D01*
X141127500Y-94856901D02*
X141127500Y-95110901D01*
X141127500Y-95110901D02*
X140746500Y-95110901D01*
G36*
X141127500Y-95110901D02*
G01*
X140746500Y-95110901D01*
X140746500Y-94856901D01*
X141127500Y-94856901D01*
X141127500Y-95110901D01*
G37*
X141127500Y-95110901D02*
X140746500Y-95110901D01*
X140746500Y-94856901D01*
X141127500Y-94856901D01*
X141127500Y-95110901D01*
X126801801Y-104801600D02*
X126801801Y-105182600D01*
X126801801Y-105182600D02*
X127055801Y-105182600D01*
X127055801Y-105182600D02*
X127055801Y-104801600D01*
X127055801Y-104801600D02*
X126801801Y-104801600D01*
G36*
X127055801Y-105182600D02*
G01*
X126801801Y-105182600D01*
X126801801Y-104801600D01*
X127055801Y-104801600D01*
X127055801Y-105182600D01*
G37*
X127055801Y-105182600D02*
X126801801Y-105182600D01*
X126801801Y-104801600D01*
X127055801Y-104801600D01*
X127055801Y-105182600D01*
X139946499Y-112473299D02*
X139946499Y-112727299D01*
X139946499Y-112727299D02*
X140327499Y-112727299D01*
X140327499Y-112727299D02*
X140327499Y-112473299D01*
X140327499Y-112473299D02*
X139946499Y-112473299D01*
G36*
X140327499Y-112727299D02*
G01*
X139946499Y-112727299D01*
X139946499Y-112473299D01*
X140327499Y-112473299D01*
X140327499Y-112727299D01*
G37*
X140327499Y-112727299D02*
X139946499Y-112727299D01*
X139946499Y-112473299D01*
X140327499Y-112473299D01*
X140327499Y-112727299D01*
X131946500Y-112473299D02*
X131946500Y-112727299D01*
X131946500Y-112727299D02*
X132327500Y-112727299D01*
X132327500Y-112727299D02*
X132327500Y-112473299D01*
X132327500Y-112473299D02*
X131946500Y-112473299D01*
G36*
X132327500Y-112727299D02*
G01*
X131946500Y-112727299D01*
X131946500Y-112473299D01*
X132327500Y-112473299D01*
X132327500Y-112727299D01*
G37*
X132327500Y-112727299D02*
X131946500Y-112727299D01*
X131946500Y-112473299D01*
X132327500Y-112473299D01*
X132327500Y-112727299D01*
X132746501Y-95110901D02*
X132746501Y-94856901D01*
X132746501Y-94856901D02*
X133127501Y-94856901D01*
X133127501Y-94856901D02*
X133127501Y-95110901D01*
X133127501Y-95110901D02*
X132746501Y-95110901D01*
G36*
X133127501Y-95110901D02*
G01*
X132746501Y-95110901D01*
X132746501Y-94856901D01*
X133127501Y-94856901D01*
X133127501Y-95110901D01*
G37*
X133127501Y-95110901D02*
X132746501Y-95110901D01*
X132746501Y-94856901D01*
X133127501Y-94856901D01*
X133127501Y-95110901D01*
D11*
X128008748Y-113480000D02*
X129431252Y-113480000D01*
X128008748Y-115300000D02*
X129431252Y-115300000D01*
X123488748Y-109290000D02*
X124911252Y-109290000D01*
X123488748Y-111110000D02*
X124911252Y-111110000D01*
X151160000Y-114007836D02*
X151160000Y-113792164D01*
X150440000Y-114007836D02*
X150440000Y-113792164D01*
X112135000Y-102727064D02*
X112135000Y-102272936D01*
X110665000Y-102727064D02*
X110665000Y-102272936D01*
X133140580Y-114510000D02*
X132859420Y-114510000D01*
X133140580Y-113490000D02*
X132859420Y-113490000D01*
X118515000Y-126965000D02*
X118515000Y-129625000D01*
X123655000Y-126965000D02*
X115915000Y-126965000D01*
X123655000Y-129625000D02*
X123655000Y-126965000D01*
X120165000Y-126567929D02*
X120165000Y-126965000D01*
X121945000Y-126635000D02*
X121945000Y-126965000D01*
X121055000Y-126965000D02*
X121055000Y-129625000D01*
X117625000Y-126567929D02*
X117625000Y-126965000D01*
X115915000Y-129625000D02*
X123655000Y-129625000D01*
X119405000Y-126567929D02*
X119405000Y-126965000D01*
X122705000Y-126635000D02*
X122705000Y-126965000D01*
X115915000Y-126965000D02*
X115915000Y-129625000D01*
X116865000Y-126567929D02*
X116865000Y-126965000D01*
X123595000Y-124255000D02*
X123595000Y-125525000D01*
X122325000Y-124255000D02*
X123595000Y-124255000D01*
X108905000Y-97795000D02*
X108905000Y-99125000D01*
X103705000Y-97795000D02*
X103705000Y-100455000D01*
X106305000Y-100455000D02*
X103705000Y-100455000D01*
X107575000Y-97795000D02*
X108905000Y-97795000D01*
X106305000Y-97795000D02*
X103705000Y-97795000D01*
X106305000Y-97795000D02*
X106305000Y-100455000D01*
X175870000Y-112980000D02*
X172130000Y-112980000D01*
X175870000Y-120220000D02*
X172130000Y-120220000D01*
X175870000Y-112980000D02*
X175870000Y-120220000D01*
X172130000Y-112980000D02*
X172130000Y-120220000D01*
X155430000Y-102217936D02*
X155430000Y-105272064D01*
X152710000Y-102217936D02*
X152710000Y-105272064D01*
X172405000Y-104870580D02*
X172405000Y-104589420D01*
X171385000Y-104870580D02*
X171385000Y-104589420D01*
X116965000Y-102727064D02*
X116965000Y-102272936D01*
X118435000Y-102727064D02*
X118435000Y-102272936D01*
X138311252Y-113390000D02*
X136888748Y-113390000D01*
X138311252Y-115210000D02*
X136888748Y-115210000D01*
X172405000Y-108270580D02*
X172405000Y-107989420D01*
X171385000Y-108270580D02*
X171385000Y-107989420D01*
X134860000Y-75726252D02*
X134860000Y-75203748D01*
X133390000Y-75726252D02*
X133390000Y-75203748D01*
X170330000Y-108611252D02*
X170330000Y-108088748D01*
X168860000Y-108611252D02*
X168860000Y-108088748D01*
X113765000Y-102727064D02*
X113765000Y-102272936D01*
X115235000Y-102727064D02*
X115235000Y-102272936D01*
X171410000Y-114840580D02*
X171410000Y-114559420D01*
X170390000Y-114840580D02*
X170390000Y-114559420D01*
X129606677Y-120059000D02*
X129606677Y-116532000D01*
X127486677Y-124601000D02*
X127486677Y-117999000D01*
X127526677Y-124647000D02*
X127526677Y-117953000D01*
X130366677Y-126282000D02*
X130366677Y-116318000D01*
X129126677Y-125864000D02*
X129126677Y-122541000D01*
X127966677Y-120059000D02*
X127966677Y-117511000D01*
X126846677Y-123665000D02*
X126846677Y-118935000D01*
X129126677Y-120059000D02*
X129126677Y-116736000D01*
X128086677Y-120059000D02*
X128086677Y-117408000D01*
X128246677Y-125320000D02*
X128246677Y-122541000D01*
X128606677Y-125573000D02*
X128606677Y-122541000D01*
X128126677Y-120059000D02*
X128126677Y-117375000D01*
X129526677Y-126038000D02*
X129526677Y-122541000D01*
X128806677Y-125695000D02*
X128806677Y-122541000D01*
X127926677Y-120059000D02*
X127926677Y-117547000D01*
X136347323Y-124675000D02*
X136347323Y-123675000D01*
X130807677Y-126350000D02*
X130807677Y-116250000D01*
X129326677Y-120059000D02*
X129326677Y-116643000D01*
X129406677Y-120059000D02*
X129406677Y-116610000D01*
X127006677Y-123945000D02*
X127006677Y-118655000D01*
X128406677Y-125438000D02*
X128406677Y-122541000D01*
X128886677Y-125740000D02*
X128886677Y-122541000D01*
X128086677Y-125192000D02*
X128086677Y-122541000D01*
X130967677Y-126365000D02*
X130967677Y-116235000D01*
X130086677Y-126218000D02*
X130086677Y-122541000D01*
X126366677Y-122362000D02*
X126366677Y-120238000D01*
X126806677Y-123589000D02*
X126806677Y-119011000D01*
X130566677Y-126318000D02*
X130566677Y-116282000D01*
X129406677Y-125990000D02*
X129406677Y-122541000D01*
X131007677Y-126368000D02*
X131007677Y-116232000D01*
X128846677Y-125717000D02*
X128846677Y-122541000D01*
X131087677Y-126373000D02*
X131087677Y-116227000D01*
X127846677Y-120059000D02*
X127846677Y-117621000D01*
X129046677Y-125825000D02*
X129046677Y-122541000D01*
X128406677Y-120059000D02*
X128406677Y-117162000D01*
X128486677Y-120059000D02*
X128486677Y-117106000D01*
X129806677Y-120059000D02*
X129806677Y-116463000D01*
X127166677Y-124189000D02*
X127166677Y-118411000D01*
X130606677Y-126324000D02*
X130606677Y-116276000D01*
X126646677Y-123244000D02*
X126646677Y-119356000D01*
X129086677Y-125845000D02*
X129086677Y-122541000D01*
X128326677Y-125380000D02*
X128326677Y-122541000D01*
X127366677Y-124456000D02*
X127366677Y-118144000D01*
X127686677Y-124820000D02*
X127686677Y-122541000D01*
X128246677Y-120059000D02*
X128246677Y-117280000D01*
X129966677Y-120059000D02*
X129966677Y-116415000D01*
X128966677Y-125783000D02*
X128966677Y-122541000D01*
X130006677Y-120059000D02*
X130006677Y-116403000D01*
X128166677Y-120059000D02*
X128166677Y-117343000D01*
X130006677Y-126197000D02*
X130006677Y-122541000D01*
X129566677Y-120059000D02*
X129566677Y-116546000D01*
X129846677Y-126150000D02*
X129846677Y-122541000D01*
X126966677Y-123879000D02*
X126966677Y-118721000D01*
X128646677Y-125598000D02*
X128646677Y-122541000D01*
X129006677Y-120059000D02*
X129006677Y-116796000D01*
X129446677Y-126007000D02*
X129446677Y-122541000D01*
X128646677Y-120059000D02*
X128646677Y-117002000D01*
X127806677Y-124940000D02*
X127806677Y-122541000D01*
X128686677Y-125623000D02*
X128686677Y-122541000D01*
X130286677Y-126265000D02*
X130286677Y-116335000D01*
X129886677Y-120059000D02*
X129886677Y-116438000D01*
X129446677Y-120059000D02*
X129446677Y-116593000D01*
X128846677Y-120059000D02*
X128846677Y-116883000D01*
X129686677Y-126097000D02*
X129686677Y-122541000D01*
X126526677Y-122930000D02*
X126526677Y-119670000D01*
X128806677Y-120059000D02*
X128806677Y-116905000D01*
X129046677Y-120059000D02*
X129046677Y-116775000D01*
X127206677Y-124245000D02*
X127206677Y-118355000D01*
X130526677Y-126311000D02*
X130526677Y-116289000D01*
X129646677Y-120059000D02*
X129646677Y-116517000D01*
X128206677Y-125289000D02*
X128206677Y-122541000D01*
X129766677Y-126124000D02*
X129766677Y-122541000D01*
X127646677Y-120059000D02*
X127646677Y-117822000D01*
X126686677Y-123337000D02*
X126686677Y-119263000D01*
X128446677Y-125466000D02*
X128446677Y-122541000D01*
X128206677Y-120059000D02*
X128206677Y-117311000D01*
X129926677Y-120059000D02*
X129926677Y-116426000D01*
X129766677Y-120059000D02*
X129766677Y-116476000D01*
X126286677Y-121899000D02*
X126286677Y-120701000D01*
X128566677Y-125547000D02*
X128566677Y-122541000D01*
X126486677Y-122810000D02*
X126486677Y-119790000D01*
X126766677Y-123509000D02*
X126766677Y-119091000D01*
X129606677Y-126068000D02*
X129606677Y-122541000D01*
X128926677Y-125762000D02*
X128926677Y-122541000D01*
X127086677Y-124070000D02*
X127086677Y-118530000D01*
X126566677Y-123042000D02*
X126566677Y-119558000D01*
X128926677Y-120059000D02*
X128926677Y-116838000D01*
X131207677Y-126378000D02*
X131207677Y-116222000D01*
X128966677Y-120059000D02*
X128966677Y-116817000D01*
X129566677Y-126054000D02*
X129566677Y-122541000D01*
X131127677Y-126375000D02*
X131127677Y-116225000D01*
X130927677Y-126362000D02*
X130927677Y-116238000D01*
X130046677Y-126207000D02*
X130046677Y-122541000D01*
X126606677Y-123146000D02*
X126606677Y-119454000D01*
X126926677Y-123810000D02*
X126926677Y-118790000D01*
X127926677Y-125053000D02*
X127926677Y-122541000D01*
X130246677Y-126256000D02*
X130246677Y-116344000D01*
X131367677Y-126380000D02*
X131367677Y-116220000D01*
X128686677Y-120059000D02*
X128686677Y-116977000D01*
X130406677Y-126290000D02*
X130406677Y-116310000D01*
X129526677Y-120059000D02*
X129526677Y-116562000D01*
X127846677Y-124979000D02*
X127846677Y-122541000D01*
X129166677Y-125884000D02*
X129166677Y-122541000D01*
X129246677Y-120059000D02*
X129246677Y-116679000D01*
X129246677Y-125921000D02*
X129246677Y-122541000D01*
X128566677Y-120059000D02*
X128566677Y-117053000D01*
X127046677Y-124009000D02*
X127046677Y-118591000D01*
X127326677Y-124406000D02*
X127326677Y-118194000D01*
X128366677Y-125410000D02*
X128366677Y-122541000D01*
X130727677Y-126340000D02*
X130727677Y-116260000D01*
X129886677Y-126162000D02*
X129886677Y-122541000D01*
X127286677Y-124354000D02*
X127286677Y-118246000D01*
X128006677Y-120059000D02*
X128006677Y-117476000D01*
X129326677Y-125957000D02*
X129326677Y-122541000D01*
X129646677Y-126083000D02*
X129646677Y-122541000D01*
X129166677Y-120059000D02*
X129166677Y-116716000D01*
X130687677Y-126335000D02*
X130687677Y-116265000D01*
X130166677Y-126238000D02*
X130166677Y-116362000D01*
X129486677Y-120059000D02*
X129486677Y-116577000D01*
X126726677Y-123425000D02*
X126726677Y-119175000D01*
X127126677Y-124130000D02*
X127126677Y-118470000D01*
X128886677Y-120059000D02*
X128886677Y-116860000D01*
X131327677Y-126380000D02*
X131327677Y-116220000D01*
X128486677Y-125494000D02*
X128486677Y-122541000D01*
X128286677Y-120059000D02*
X128286677Y-117250000D01*
X130206677Y-126247000D02*
X130206677Y-116353000D01*
X128726677Y-125647000D02*
X128726677Y-122541000D01*
X127686677Y-120059000D02*
X127686677Y-117780000D01*
X130847677Y-126354000D02*
X130847677Y-116246000D01*
X129966677Y-126185000D02*
X129966677Y-122541000D01*
X128286677Y-125350000D02*
X128286677Y-122541000D01*
X127886677Y-125016000D02*
X127886677Y-122541000D01*
X130486677Y-126304000D02*
X130486677Y-116296000D01*
X130086677Y-120059000D02*
X130086677Y-116382000D01*
X130126677Y-126228000D02*
X130126677Y-116372000D01*
X128126677Y-125225000D02*
X128126677Y-122541000D01*
X131247677Y-126379000D02*
X131247677Y-116221000D01*
X128766677Y-125671000D02*
X128766677Y-122541000D01*
X127966677Y-125089000D02*
X127966677Y-122541000D01*
X131167677Y-126377000D02*
X131167677Y-116223000D01*
X128526677Y-125521000D02*
X128526677Y-122541000D01*
X129486677Y-126023000D02*
X129486677Y-122541000D01*
X127566677Y-124692000D02*
X127566677Y-117908000D01*
X126446677Y-122678000D02*
X126446677Y-119922000D01*
X130446677Y-126297000D02*
X130446677Y-116303000D01*
X130767677Y-126345000D02*
X130767677Y-116255000D01*
X127446677Y-124554000D02*
X127446677Y-118046000D01*
X126886677Y-123739000D02*
X126886677Y-118861000D01*
X128006677Y-125124000D02*
X128006677Y-122541000D01*
X128606677Y-120059000D02*
X128606677Y-117027000D01*
X129086677Y-120059000D02*
X129086677Y-116755000D01*
X129806677Y-126137000D02*
X129806677Y-122541000D01*
X127766677Y-124901000D02*
X127766677Y-122541000D01*
X136847323Y-124175000D02*
X135847323Y-124175000D01*
X129366677Y-120059000D02*
X129366677Y-116626000D01*
X128446677Y-120059000D02*
X128446677Y-117134000D01*
X127766677Y-120059000D02*
X127766677Y-117699000D01*
X127806677Y-120059000D02*
X127806677Y-117660000D01*
X128166677Y-125257000D02*
X128166677Y-122541000D01*
X127726677Y-120059000D02*
X127726677Y-117739000D01*
X128366677Y-120059000D02*
X128366677Y-117190000D01*
X129286677Y-120059000D02*
X129286677Y-116661000D01*
X127246677Y-124300000D02*
X127246677Y-118300000D01*
X129726677Y-120059000D02*
X129726677Y-116489000D01*
X127406677Y-124506000D02*
X127406677Y-118094000D01*
X129846677Y-120059000D02*
X129846677Y-116450000D01*
X131287677Y-126380000D02*
X131287677Y-116220000D01*
X127886677Y-120059000D02*
X127886677Y-117584000D01*
X126326677Y-122162000D02*
X126326677Y-120438000D01*
X130646677Y-126330000D02*
X130646677Y-116270000D01*
X129206677Y-125903000D02*
X129206677Y-122541000D01*
X130887677Y-126358000D02*
X130887677Y-116242000D01*
X128526677Y-120059000D02*
X128526677Y-117079000D01*
X130326677Y-126274000D02*
X130326677Y-116326000D01*
X131047677Y-126370000D02*
X131047677Y-116230000D01*
X127646677Y-124778000D02*
X127646677Y-122541000D01*
X128046677Y-125158000D02*
X128046677Y-122541000D01*
X129286677Y-125939000D02*
X129286677Y-122541000D01*
X127606677Y-124736000D02*
X127606677Y-117864000D01*
X128046677Y-120059000D02*
X128046677Y-117442000D01*
X129206677Y-120059000D02*
X129206677Y-116697000D01*
X128726677Y-120059000D02*
X128726677Y-116953000D01*
X129726677Y-126111000D02*
X129726677Y-122541000D01*
X129926677Y-126174000D02*
X129926677Y-122541000D01*
X129366677Y-125974000D02*
X129366677Y-122541000D01*
X129006677Y-125804000D02*
X129006677Y-122541000D01*
X129686677Y-120059000D02*
X129686677Y-116503000D01*
X126406677Y-122530000D02*
X126406677Y-120070000D01*
X128326677Y-120059000D02*
X128326677Y-117220000D01*
X130046677Y-120059000D02*
X130046677Y-116393000D01*
X127726677Y-124861000D02*
X127726677Y-122541000D01*
X128766677Y-120059000D02*
X128766677Y-116929000D01*
X136487677Y-121300000D02*
G75*
G03*
X136487677Y-121300000I-5120000J0D01*
G01*
X106137500Y-113938500D02*
X106137500Y-121304500D01*
X106137500Y-113938500D02*
X113589860Y-113938500D01*
X106137500Y-121304500D02*
X113589860Y-121304500D01*
X113589860Y-113938500D02*
X113589860Y-121304500D01*
X138580000Y-87032323D02*
X128420000Y-87032323D01*
X132259000Y-90033323D02*
X129390000Y-90033323D01*
X132259000Y-88313323D02*
X128582000Y-88313323D01*
X138350000Y-88553323D02*
X134741000Y-88553323D01*
X138311000Y-88673323D02*
X134741000Y-88673323D01*
X136847000Y-90873323D02*
X130153000Y-90873323D01*
X138580000Y-87112323D02*
X128420000Y-87112323D01*
X132259000Y-89113323D02*
X128861000Y-89113323D01*
X136445000Y-91193323D02*
X130555000Y-91193323D01*
X137253000Y-90473323D02*
X134741000Y-90473323D01*
X132259000Y-89473323D02*
X129038000Y-89473323D01*
X137694000Y-89913323D02*
X134741000Y-89913323D01*
X132259000Y-90353323D02*
X129642000Y-90353323D01*
X132259000Y-88433323D02*
X128615000Y-88433323D01*
X137823000Y-89713323D02*
X134741000Y-89713323D01*
X136079000Y-91433323D02*
X130921000Y-91433323D01*
X138578000Y-87192323D02*
X128422000Y-87192323D01*
X132259000Y-89673323D02*
X129153000Y-89673323D01*
X132259000Y-90553323D02*
X129821000Y-90553323D01*
X137610000Y-90033323D02*
X134741000Y-90033323D01*
X137917000Y-89553323D02*
X134741000Y-89553323D01*
X132259000Y-89193323D02*
X128897000Y-89193323D01*
X132259000Y-90433323D02*
X129711000Y-90433323D01*
X138121000Y-89153323D02*
X134741000Y-89153323D01*
X137895000Y-89593323D02*
X134741000Y-89593323D01*
X138397000Y-88393323D02*
X134741000Y-88393323D01*
X138157000Y-89073323D02*
X134741000Y-89073323D01*
X132259000Y-90233323D02*
X129543000Y-90233323D01*
X138511000Y-87873323D02*
X128489000Y-87873323D01*
X132259000Y-89433323D02*
X129017000Y-89433323D01*
X138268000Y-88793323D02*
X134741000Y-88793323D01*
X137289000Y-90433323D02*
X134741000Y-90433323D01*
X132259000Y-89353323D02*
X128975000Y-89353323D01*
X138562000Y-87472323D02*
X128438000Y-87472323D01*
X138045000Y-89313323D02*
X134741000Y-89313323D01*
X132259000Y-88633323D02*
X128676000Y-88633323D01*
X138064000Y-89273323D02*
X134741000Y-89273323D01*
X137425000Y-90273323D02*
X134741000Y-90273323D01*
X135242000Y-91833323D02*
X131758000Y-91833323D01*
X138570000Y-87352323D02*
X128430000Y-87352323D01*
X136801000Y-90913323D02*
X130199000Y-90913323D01*
X137721000Y-89873323D02*
X134741000Y-89873323D01*
X134099000Y-92113323D02*
X132901000Y-92113323D01*
X136706000Y-90993323D02*
X130294000Y-90993323D01*
X132259000Y-89753323D02*
X129202000Y-89753323D01*
X137324000Y-90393323D02*
X134741000Y-90393323D01*
X137179000Y-90553323D02*
X134741000Y-90553323D01*
X138580000Y-87072323D02*
X128420000Y-87072323D01*
X132259000Y-90313323D02*
X129608000Y-90313323D01*
X132259000Y-89393323D02*
X128996000Y-89393323D01*
X135346000Y-91793323D02*
X131654000Y-91793323D01*
X138568000Y-87392323D02*
X128432000Y-87392323D01*
X132259000Y-89793323D02*
X129227000Y-89793323D01*
X136010000Y-91473323D02*
X130990000Y-91473323D01*
X137520000Y-90153323D02*
X134741000Y-90153323D01*
X138497000Y-87953323D02*
X128503000Y-87953323D01*
X136892000Y-90833323D02*
X130108000Y-90833323D01*
X138524000Y-87793323D02*
X128476000Y-87793323D01*
X132259000Y-90713323D02*
X129980000Y-90713323D01*
X136209000Y-91353323D02*
X130791000Y-91353323D01*
X135939000Y-91513323D02*
X131061000Y-91513323D01*
X136936000Y-90793323D02*
X130064000Y-90793323D01*
X132259000Y-90153323D02*
X129480000Y-90153323D01*
X137798000Y-89753323D02*
X134741000Y-89753323D01*
X138254000Y-88833323D02*
X134741000Y-88833323D01*
X132259000Y-89593323D02*
X129105000Y-89593323D01*
X137216000Y-90513323D02*
X134741000Y-90513323D01*
X138337000Y-88593323D02*
X134741000Y-88593323D01*
X132259000Y-88473323D02*
X128626000Y-88473323D01*
X132259000Y-88553323D02*
X128650000Y-88553323D01*
X138518000Y-87833323D02*
X128482000Y-87833323D01*
X135444000Y-91753323D02*
X131556000Y-91753323D01*
X132259000Y-90113323D02*
X129450000Y-90113323D01*
X137666000Y-89953323D02*
X134741000Y-89953323D01*
X135130000Y-91873323D02*
X131870000Y-91873323D01*
X138428000Y-88273323D02*
X128572000Y-88273323D01*
X138362000Y-88513323D02*
X134741000Y-88513323D01*
X138504000Y-87913323D02*
X128496000Y-87913323D01*
X136330000Y-91273323D02*
X130670000Y-91273323D01*
X138297000Y-88713323D02*
X134741000Y-88713323D01*
X136606000Y-91073323D02*
X130394000Y-91073323D01*
X138545000Y-87632323D02*
X128455000Y-87632323D01*
X135010000Y-91913323D02*
X131990000Y-91913323D01*
X134730000Y-91993323D02*
X132270000Y-91993323D01*
X137140000Y-90593323D02*
X134741000Y-90593323D01*
X132259000Y-89873323D02*
X129279000Y-89873323D01*
X136875000Y-82052677D02*
X135875000Y-82052677D01*
X137638000Y-89993323D02*
X134741000Y-89993323D01*
X138374000Y-88473323D02*
X134741000Y-88473323D01*
X136754000Y-90953323D02*
X130246000Y-90953323D01*
X132259000Y-88833323D02*
X128746000Y-88833323D01*
X132259000Y-90073323D02*
X129420000Y-90073323D01*
X138238000Y-88873323D02*
X134741000Y-88873323D01*
X132259000Y-88753323D02*
X128717000Y-88753323D01*
X138438000Y-88233323D02*
X128562000Y-88233323D01*
X138004000Y-89393323D02*
X134741000Y-89393323D01*
X137101000Y-90633323D02*
X134741000Y-90633323D01*
X132259000Y-89033323D02*
X128826000Y-89033323D01*
X138490000Y-87993323D02*
X128510000Y-87993323D01*
X132259000Y-90513323D02*
X129784000Y-90513323D01*
X136978000Y-90753323D02*
X134741000Y-90753323D01*
X132259000Y-88793323D02*
X128732000Y-88793323D01*
X132259000Y-89233323D02*
X128916000Y-89233323D01*
X135537000Y-91713323D02*
X131463000Y-91713323D01*
X132259000Y-90633323D02*
X129899000Y-90633323D01*
X132259000Y-88393323D02*
X128603000Y-88393323D01*
X137358000Y-90353323D02*
X134741000Y-90353323D01*
X132259000Y-89313323D02*
X128955000Y-89313323D01*
X138324000Y-88633323D02*
X134741000Y-88633323D01*
X137747000Y-89833323D02*
X134741000Y-89833323D01*
X132259000Y-88993323D02*
X128810000Y-88993323D01*
X132259000Y-88513323D02*
X128638000Y-88513323D01*
X138456000Y-88153323D02*
X128544000Y-88153323D01*
X132259000Y-88673323D02*
X128689000Y-88673323D01*
X137550000Y-90113323D02*
X134741000Y-90113323D01*
X138283000Y-88753323D02*
X134741000Y-88753323D01*
X138554000Y-87552323D02*
X128446000Y-87552323D01*
X137489000Y-90193323D02*
X134741000Y-90193323D01*
X138084000Y-89233323D02*
X134741000Y-89233323D01*
X138418000Y-88313323D02*
X134741000Y-88313323D01*
X132259000Y-90273323D02*
X129575000Y-90273323D01*
X132259000Y-89713323D02*
X129177000Y-89713323D01*
X132259000Y-89273323D02*
X128936000Y-89273323D01*
X138474000Y-88073323D02*
X128526000Y-88073323D01*
X138550000Y-87592323D02*
X128450000Y-87592323D01*
X132259000Y-89953323D02*
X129334000Y-89953323D01*
X137962000Y-89473323D02*
X134741000Y-89473323D01*
X132259000Y-90673323D02*
X129939000Y-90673323D01*
X138207000Y-88953323D02*
X134741000Y-88953323D01*
X137392000Y-90313323D02*
X134741000Y-90313323D01*
X135625000Y-91673323D02*
X131375000Y-91673323D01*
X136270000Y-91313323D02*
X130730000Y-91313323D01*
X132259000Y-89073323D02*
X128843000Y-89073323D01*
X132259000Y-88953323D02*
X128793000Y-88953323D01*
X138103000Y-89193323D02*
X134741000Y-89193323D01*
X138482000Y-88033323D02*
X128518000Y-88033323D01*
X138575000Y-87272323D02*
X128425000Y-87272323D01*
X136389000Y-91233323D02*
X130611000Y-91233323D01*
X137061000Y-90673323D02*
X134741000Y-90673323D01*
X138530000Y-87753323D02*
X128470000Y-87753323D01*
X132259000Y-89913323D02*
X129306000Y-89913323D01*
X138465000Y-88113323D02*
X128535000Y-88113323D01*
X137580000Y-90073323D02*
X134741000Y-90073323D01*
X138577000Y-87232323D02*
X128423000Y-87232323D01*
X137847000Y-89673323D02*
X134741000Y-89673323D01*
X138558000Y-87512323D02*
X128442000Y-87512323D01*
X138540000Y-87672323D02*
X128460000Y-87672323D01*
X138223000Y-88913323D02*
X134741000Y-88913323D01*
X136500000Y-91153323D02*
X130500000Y-91153323D01*
X132259000Y-88873323D02*
X128762000Y-88873323D01*
X138025000Y-89353323D02*
X134741000Y-89353323D01*
X135865000Y-91553323D02*
X131135000Y-91553323D01*
X132259000Y-90193323D02*
X129511000Y-90193323D01*
X135789000Y-91593323D02*
X131211000Y-91593323D01*
X136375000Y-81552677D02*
X136375000Y-82552677D01*
X138385000Y-88433323D02*
X134741000Y-88433323D01*
X132259000Y-90593323D02*
X129860000Y-90593323D01*
X132259000Y-88913323D02*
X128777000Y-88913323D01*
X138573000Y-87312323D02*
X128427000Y-87312323D01*
X136554000Y-91113323D02*
X130446000Y-91113323D01*
X134562000Y-92033323D02*
X132438000Y-92033323D01*
X132259000Y-90753323D02*
X130022000Y-90753323D01*
X137020000Y-90713323D02*
X134741000Y-90713323D01*
X135709000Y-91633323D02*
X131291000Y-91633323D01*
X138565000Y-87432323D02*
X128435000Y-87432323D01*
X132259000Y-90393323D02*
X129676000Y-90393323D01*
X137871000Y-89633323D02*
X134741000Y-89633323D01*
X132259000Y-89833323D02*
X129253000Y-89833323D01*
X137457000Y-90233323D02*
X134741000Y-90233323D01*
X132259000Y-89153323D02*
X128879000Y-89153323D01*
X138535000Y-87712323D02*
X128465000Y-87712323D01*
X138139000Y-89113323D02*
X134741000Y-89113323D01*
X138407000Y-88353323D02*
X134741000Y-88353323D01*
X136145000Y-91393323D02*
X130855000Y-91393323D01*
X137983000Y-89433323D02*
X134741000Y-89433323D01*
X132259000Y-90473323D02*
X129747000Y-90473323D01*
X136656000Y-91033323D02*
X130344000Y-91033323D01*
X137940000Y-89513323D02*
X134741000Y-89513323D01*
X132259000Y-88353323D02*
X128593000Y-88353323D01*
X132259000Y-89553323D02*
X129083000Y-89553323D01*
X132259000Y-89513323D02*
X129060000Y-89513323D01*
X132259000Y-88593323D02*
X128663000Y-88593323D01*
X132259000Y-89633323D02*
X129129000Y-89633323D01*
X137773000Y-89793323D02*
X134741000Y-89793323D01*
X134878000Y-91953323D02*
X132122000Y-91953323D01*
X138579000Y-87152323D02*
X128421000Y-87152323D01*
X132259000Y-88713323D02*
X128703000Y-88713323D01*
X138190000Y-88993323D02*
X134741000Y-88993323D01*
X132259000Y-89993323D02*
X129362000Y-89993323D01*
X138174000Y-89033323D02*
X134741000Y-89033323D01*
X134362000Y-92073323D02*
X132638000Y-92073323D01*
X138447000Y-88193323D02*
X128553000Y-88193323D01*
X138620000Y-87032323D02*
G75*
G03*
X138620000Y-87032323I-5120000J0D01*
G01*
X117980000Y-117330000D02*
X117980000Y-121070000D01*
X117980000Y-117330000D02*
X125220000Y-117330000D01*
X117980000Y-121070000D02*
X125220000Y-121070000D01*
X125220000Y-117330000D02*
X125220000Y-121070000D01*
X151310000Y-101552836D02*
X151310000Y-101337164D01*
X152030000Y-101552836D02*
X152030000Y-101337164D01*
X125140580Y-107290000D02*
X124859420Y-107290000D01*
X125140580Y-108310000D02*
X124859420Y-108310000D01*
X125340580Y-100990000D02*
X125059420Y-100990000D01*
X125340580Y-102010000D02*
X125059420Y-102010000D01*
X150440000Y-117807836D02*
X150440000Y-117592164D01*
X151160000Y-117807836D02*
X151160000Y-117592164D01*
X136290000Y-75726252D02*
X136290000Y-75203748D01*
X137760000Y-75726252D02*
X137760000Y-75203748D01*
X168860000Y-104691252D02*
X168860000Y-104168748D01*
X170330000Y-104691252D02*
X170330000Y-104168748D01*
X155430000Y-95617936D02*
X155430000Y-98672064D01*
X152710000Y-95617936D02*
X152710000Y-98672064D01*
X105622500Y-105937258D02*
X105622500Y-105462742D01*
X104577500Y-105937258D02*
X104577500Y-105462742D01*
X107795000Y-107845000D02*
X110395000Y-107845000D01*
X107795000Y-112985000D02*
X112995000Y-112985000D01*
X110395000Y-107845000D02*
X110395000Y-105245000D01*
X110395000Y-105245000D02*
X112995000Y-105245000D01*
X107795000Y-105245000D02*
X109125000Y-105245000D01*
X112995000Y-105245000D02*
X112995000Y-112985000D01*
X107795000Y-107845000D02*
X107795000Y-112985000D01*
X107795000Y-106575000D02*
X107795000Y-105245000D01*
X100367000Y-67603000D02*
X100367000Y-78192260D01*
X120433000Y-67603000D02*
X100367000Y-67603000D01*
X120433000Y-95797000D02*
X120433000Y-67603000D01*
X100367000Y-95797000D02*
X120433000Y-95797000D01*
X100367000Y-85207740D02*
X100367000Y-95797000D01*
X125132000Y-97575000D02*
G75*
G03*
X125132000Y-97575000I-381000J0D01*
G01*
X125059420Y-98890000D02*
X125340580Y-98890000D01*
X125059420Y-99910000D02*
X125340580Y-99910000D01*
X151840000Y-117372936D02*
X151840000Y-120427064D01*
X154560000Y-117372936D02*
X154560000Y-120427064D01*
X167020000Y-111225000D02*
X155180000Y-111225000D01*
X155180000Y-111225000D02*
X155180000Y-121975000D01*
X155180000Y-121975000D02*
X167020000Y-121975000D01*
X167020000Y-121975000D02*
X167020000Y-111225000D01*
X139490000Y-75726252D02*
X139490000Y-75203748D01*
X140960000Y-75726252D02*
X140960000Y-75203748D01*
X143660000Y-75751252D02*
X143660000Y-75228748D01*
X142190000Y-75751252D02*
X142190000Y-75228748D01*
X125140580Y-106510000D02*
X124859420Y-106510000D01*
X125140580Y-105490000D02*
X124859420Y-105490000D01*
X151310000Y-99552836D02*
X151310000Y-99337164D01*
X152030000Y-99552836D02*
X152030000Y-99337164D01*
%LPC*%
D12*
X131673500Y-101236200D02*
X139800500Y-101236200D01*
X139800500Y-101236200D02*
X139800500Y-101623600D01*
X139800500Y-101623600D02*
X131673500Y-101623600D01*
X131673500Y-101623600D02*
X131673500Y-101236200D01*
G36*
X139800500Y-101623600D02*
G01*
X131673500Y-101623600D01*
X131673500Y-101236200D01*
X139800500Y-101236200D01*
X139800500Y-101623600D01*
G37*
X139800500Y-101623600D02*
X131673500Y-101623600D01*
X131673500Y-101236200D01*
X139800500Y-101236200D01*
X139800500Y-101623600D01*
X131673500Y-107535400D02*
X139800500Y-107535400D01*
X139800500Y-107535400D02*
X139800500Y-107855600D01*
X139800500Y-107855600D02*
X131673500Y-107855600D01*
X131673500Y-107855600D02*
X131673500Y-107535400D01*
G36*
X139800500Y-107855600D02*
G01*
X131673500Y-107855600D01*
X131673500Y-107535400D01*
X139800500Y-107535400D01*
X139800500Y-107855600D01*
G37*
X139800500Y-107855600D02*
X131673500Y-107855600D01*
X131673500Y-107535400D01*
X139800500Y-107535400D01*
X139800500Y-107855600D01*
X131673500Y-106748000D02*
X139800500Y-106748000D01*
X139800500Y-106748000D02*
X139800500Y-107135400D01*
X139800500Y-107135400D02*
X131673500Y-107135400D01*
X131673500Y-107135400D02*
X131673500Y-106748000D01*
G36*
X139800500Y-107135400D02*
G01*
X131673500Y-107135400D01*
X131673500Y-106748000D01*
X139800500Y-106748000D01*
X139800500Y-107135400D01*
G37*
X139800500Y-107135400D02*
X131673500Y-107135400D01*
X131673500Y-106748000D01*
X139800500Y-106748000D01*
X139800500Y-107135400D01*
X138292900Y-99728600D02*
X137905500Y-99728600D01*
X137905500Y-99728600D02*
X137905500Y-107855600D01*
X137905500Y-107855600D02*
X138292900Y-107855600D01*
X138292900Y-107855600D02*
X138292900Y-99728600D01*
G36*
X138292900Y-107855600D02*
G01*
X137905500Y-107855600D01*
X137905500Y-99728600D01*
X138292900Y-99728600D01*
X138292900Y-107855600D01*
G37*
X138292900Y-107855600D02*
X137905500Y-107855600D01*
X137905500Y-99728600D01*
X138292900Y-99728600D01*
X138292900Y-107855600D01*
X133568500Y-99728600D02*
X133181100Y-99728600D01*
X133181100Y-99728600D02*
X133181100Y-107855600D01*
X133181100Y-107855600D02*
X133568500Y-107855600D01*
X133568500Y-107855600D02*
X133568500Y-99728600D01*
G36*
X133568500Y-107855600D02*
G01*
X133181100Y-107855600D01*
X133181100Y-99728600D01*
X133568500Y-99728600D01*
X133568500Y-107855600D01*
G37*
X133568500Y-107855600D02*
X133181100Y-107855600D01*
X133181100Y-99728600D01*
X133568500Y-99728600D01*
X133568500Y-107855600D01*
X136718100Y-99728600D02*
X136330700Y-99728600D01*
X136330700Y-99728600D02*
X136330700Y-107855600D01*
X136330700Y-107855600D02*
X136718100Y-107855600D01*
X136718100Y-107855600D02*
X136718100Y-99728600D01*
G36*
X136718100Y-107855600D02*
G01*
X136330700Y-107855600D01*
X136330700Y-99728600D01*
X136718100Y-99728600D01*
X136718100Y-107855600D01*
G37*
X136718100Y-107855600D02*
X136330700Y-107855600D01*
X136330700Y-99728600D01*
X136718100Y-99728600D01*
X136718100Y-107855600D01*
X139480300Y-99728600D02*
X139800500Y-99728600D01*
X139800500Y-99728600D02*
X139800500Y-107855600D01*
X139800500Y-107855600D02*
X139480300Y-107855600D01*
X139480300Y-107855600D02*
X139480300Y-99728600D01*
G36*
X139800500Y-107855600D02*
G01*
X139480300Y-107855600D01*
X139480300Y-99728600D01*
X139800500Y-99728600D01*
X139800500Y-107855600D01*
G37*
X139800500Y-107855600D02*
X139480300Y-107855600D01*
X139480300Y-99728600D01*
X139800500Y-99728600D01*
X139800500Y-107855600D01*
X131673500Y-99728600D02*
X139800500Y-99728600D01*
X139800500Y-99728600D02*
X139800500Y-100048800D01*
X139800500Y-100048800D02*
X131673500Y-100048800D01*
X131673500Y-100048800D02*
X131673500Y-99728600D01*
G36*
X139800500Y-100048800D02*
G01*
X131673500Y-100048800D01*
X131673500Y-99728600D01*
X139800500Y-99728600D01*
X139800500Y-100048800D01*
G37*
X139800500Y-100048800D02*
X131673500Y-100048800D01*
X131673500Y-99728600D01*
X139800500Y-99728600D01*
X139800500Y-100048800D01*
X131673500Y-105173200D02*
X139800500Y-105173200D01*
X139800500Y-105173200D02*
X139800500Y-105560600D01*
X139800500Y-105560600D02*
X131673500Y-105560600D01*
X131673500Y-105560600D02*
X131673500Y-105173200D01*
G36*
X139800500Y-105560600D02*
G01*
X131673500Y-105560600D01*
X131673500Y-105173200D01*
X139800500Y-105173200D01*
X139800500Y-105560600D01*
G37*
X139800500Y-105560600D02*
X131673500Y-105560600D01*
X131673500Y-105173200D01*
X139800500Y-105173200D01*
X139800500Y-105560600D01*
X131673500Y-104385800D02*
X139800500Y-104385800D01*
X139800500Y-104385800D02*
X139800500Y-104773200D01*
X139800500Y-104773200D02*
X131673500Y-104773200D01*
X131673500Y-104773200D02*
X131673500Y-104385800D01*
G36*
X139800500Y-104773200D02*
G01*
X131673500Y-104773200D01*
X131673500Y-104385800D01*
X139800500Y-104385800D01*
X139800500Y-104773200D01*
G37*
X139800500Y-104773200D02*
X131673500Y-104773200D01*
X131673500Y-104385800D01*
X139800500Y-104385800D01*
X139800500Y-104773200D01*
X131673500Y-103598400D02*
X139800500Y-103598400D01*
X139800500Y-103598400D02*
X139800500Y-103985800D01*
X139800500Y-103985800D02*
X131673500Y-103985800D01*
X131673500Y-103985800D02*
X131673500Y-103598400D01*
G36*
X139800500Y-103985800D02*
G01*
X131673500Y-103985800D01*
X131673500Y-103598400D01*
X139800500Y-103598400D01*
X139800500Y-103985800D01*
G37*
X139800500Y-103985800D02*
X131673500Y-103985800D01*
X131673500Y-103598400D01*
X139800500Y-103598400D01*
X139800500Y-103985800D01*
X139080300Y-99728600D02*
X138692900Y-99728600D01*
X138692900Y-99728600D02*
X138692900Y-107855600D01*
X138692900Y-107855600D02*
X139080300Y-107855600D01*
X139080300Y-107855600D02*
X139080300Y-99728600D01*
G36*
X139080300Y-107855600D02*
G01*
X138692900Y-107855600D01*
X138692900Y-99728600D01*
X139080300Y-99728600D01*
X139080300Y-107855600D01*
G37*
X139080300Y-107855600D02*
X138692900Y-107855600D01*
X138692900Y-99728600D01*
X139080300Y-99728600D01*
X139080300Y-107855600D01*
X131673500Y-105960600D02*
X139800500Y-105960600D01*
X139800500Y-105960600D02*
X139800500Y-106348000D01*
X139800500Y-106348000D02*
X131673500Y-106348000D01*
X131673500Y-106348000D02*
X131673500Y-105960600D01*
G36*
X139800500Y-106348000D02*
G01*
X131673500Y-106348000D01*
X131673500Y-105960600D01*
X139800500Y-105960600D01*
X139800500Y-106348000D01*
G37*
X139800500Y-106348000D02*
X131673500Y-106348000D01*
X131673500Y-105960600D01*
X139800500Y-105960600D01*
X139800500Y-106348000D01*
X132781100Y-99728600D02*
X132393700Y-99728600D01*
X132393700Y-99728600D02*
X132393700Y-107855600D01*
X132393700Y-107855600D02*
X132781100Y-107855600D01*
X132781100Y-107855600D02*
X132781100Y-99728600D01*
G36*
X132781100Y-107855600D02*
G01*
X132393700Y-107855600D01*
X132393700Y-99728600D01*
X132781100Y-99728600D01*
X132781100Y-107855600D01*
G37*
X132781100Y-107855600D02*
X132393700Y-107855600D01*
X132393700Y-99728600D01*
X132781100Y-99728600D01*
X132781100Y-107855600D01*
X131673500Y-99728600D02*
X131993700Y-99728600D01*
X131993700Y-99728600D02*
X131993700Y-107855600D01*
X131993700Y-107855600D02*
X131673500Y-107855600D01*
X131673500Y-107855600D02*
X131673500Y-99728600D01*
G36*
X131993700Y-107855600D02*
G01*
X131673500Y-107855600D01*
X131673500Y-99728600D01*
X131993700Y-99728600D01*
X131993700Y-107855600D01*
G37*
X131993700Y-107855600D02*
X131673500Y-107855600D01*
X131673500Y-99728600D01*
X131993700Y-99728600D01*
X131993700Y-107855600D01*
X135143300Y-99728600D02*
X134755900Y-99728600D01*
X134755900Y-99728600D02*
X134755900Y-107855600D01*
X134755900Y-107855600D02*
X135143300Y-107855600D01*
X135143300Y-107855600D02*
X135143300Y-99728600D01*
G36*
X135143300Y-107855600D02*
G01*
X134755900Y-107855600D01*
X134755900Y-99728600D01*
X135143300Y-99728600D01*
X135143300Y-107855600D01*
G37*
X135143300Y-107855600D02*
X134755900Y-107855600D01*
X134755900Y-99728600D01*
X135143300Y-99728600D01*
X135143300Y-107855600D01*
X131673500Y-102023600D02*
X139800500Y-102023600D01*
X139800500Y-102023600D02*
X139800500Y-102411000D01*
X139800500Y-102411000D02*
X131673500Y-102411000D01*
X131673500Y-102411000D02*
X131673500Y-102023600D01*
G36*
X139800500Y-102411000D02*
G01*
X131673500Y-102411000D01*
X131673500Y-102023600D01*
X139800500Y-102023600D01*
X139800500Y-102411000D01*
G37*
X139800500Y-102411000D02*
X131673500Y-102411000D01*
X131673500Y-102023600D01*
X139800500Y-102023600D01*
X139800500Y-102411000D01*
X134355900Y-99728600D02*
X133968500Y-99728600D01*
X133968500Y-99728600D02*
X133968500Y-107855600D01*
X133968500Y-107855600D02*
X134355900Y-107855600D01*
X134355900Y-107855600D02*
X134355900Y-99728600D01*
G36*
X134355900Y-107855600D02*
G01*
X133968500Y-107855600D01*
X133968500Y-99728600D01*
X134355900Y-99728600D01*
X134355900Y-107855600D01*
G37*
X134355900Y-107855600D02*
X133968500Y-107855600D01*
X133968500Y-99728600D01*
X134355900Y-99728600D01*
X134355900Y-107855600D01*
X137505500Y-99728600D02*
X137118100Y-99728600D01*
X137118100Y-99728600D02*
X137118100Y-107855600D01*
X137118100Y-107855600D02*
X137505500Y-107855600D01*
X137505500Y-107855600D02*
X137505500Y-99728600D01*
G36*
X137505500Y-107855600D02*
G01*
X137118100Y-107855600D01*
X137118100Y-99728600D01*
X137505500Y-99728600D01*
X137505500Y-107855600D01*
G37*
X137505500Y-107855600D02*
X137118100Y-107855600D01*
X137118100Y-99728600D01*
X137505500Y-99728600D01*
X137505500Y-107855600D01*
X131673500Y-102811000D02*
X139800500Y-102811000D01*
X139800500Y-102811000D02*
X139800500Y-103198400D01*
X139800500Y-103198400D02*
X131673500Y-103198400D01*
X131673500Y-103198400D02*
X131673500Y-102811000D01*
G36*
X139800500Y-103198400D02*
G01*
X131673500Y-103198400D01*
X131673500Y-102811000D01*
X139800500Y-102811000D01*
X139800500Y-103198400D01*
G37*
X139800500Y-103198400D02*
X131673500Y-103198400D01*
X131673500Y-102811000D01*
X139800500Y-102811000D01*
X139800500Y-103198400D01*
X131673500Y-100448800D02*
X139800500Y-100448800D01*
X139800500Y-100448800D02*
X139800500Y-100836200D01*
X139800500Y-100836200D02*
X131673500Y-100836200D01*
X131673500Y-100836200D02*
X131673500Y-100448800D01*
G36*
X139800500Y-100836200D02*
G01*
X131673500Y-100836200D01*
X131673500Y-100448800D01*
X139800500Y-100448800D01*
X139800500Y-100836200D01*
G37*
X139800500Y-100836200D02*
X131673500Y-100836200D01*
X131673500Y-100448800D01*
X139800500Y-100448800D01*
X139800500Y-100836200D01*
X135930700Y-99728600D02*
X135543300Y-99728600D01*
X135543300Y-99728600D02*
X135543300Y-107855600D01*
X135543300Y-107855600D02*
X135930700Y-107855600D01*
X135930700Y-107855600D02*
X135930700Y-99728600D01*
G36*
X135930700Y-107855600D02*
G01*
X135543300Y-107855600D01*
X135543300Y-99728600D01*
X135930700Y-99728600D01*
X135930700Y-107855600D01*
G37*
X135930700Y-107855600D02*
X135543300Y-107855600D01*
X135543300Y-99728600D01*
X135930700Y-99728600D01*
X135930700Y-107855600D01*
D13*
X175195000Y-103630000D03*
X175195000Y-108630000D03*
D14*
X124175000Y-104300000D03*
X125825000Y-104300000D03*
D13*
X119100000Y-114600000D03*
X124100000Y-114600000D03*
D15*
X168700000Y-119850000D03*
X168700000Y-117950000D03*
D16*
X139832323Y-121300000D03*
D17*
X144832323Y-121300000D03*
D18*
X158040000Y-97190000D03*
X166300000Y-97190000D03*
X166300000Y-103900000D03*
X158040000Y-103900000D03*
D19*
X179700000Y-106660000D03*
D20*
X179700000Y-109200000D03*
D16*
X144200000Y-84632323D03*
D17*
X144200000Y-89632323D03*
D21*
X122250000Y-98562500D03*
X120350000Y-98562500D03*
X121300000Y-100437500D03*
D19*
X152875000Y-76475000D03*
D20*
X152875000Y-73935000D03*
X155415000Y-76475000D03*
X155415000Y-73935000D03*
X157955000Y-76475000D03*
X157955000Y-73935000D03*
D22*
X170900000Y-119475000D03*
X170900000Y-117925000D03*
D15*
X168700000Y-115450000D03*
X168700000Y-113550000D03*
D23*
X153200000Y-110087500D03*
X153200000Y-114712500D03*
D19*
X179700000Y-115270000D03*
D20*
X179700000Y-117810000D03*
D24*
X138075000Y-93900000D03*
X135125000Y-93900000D03*
D25*
X115200000Y-97875000D03*
X115200000Y-99525000D03*
D26*
X138492900Y-101036200D03*
X136918100Y-104185800D03*
X137705500Y-106548000D03*
X137705500Y-103398400D03*
X132981100Y-106548000D03*
X133768500Y-107335400D03*
X132193700Y-107335400D03*
X132193700Y-105760600D03*
X136130700Y-103398400D03*
X136918100Y-105760600D03*
X135343300Y-101036200D03*
X136130700Y-101823600D03*
X138492900Y-104185800D03*
X136918100Y-107335400D03*
X136918100Y-102611000D03*
X134555900Y-103398400D03*
X135343300Y-102611000D03*
X132193700Y-101036200D03*
X139280300Y-103398400D03*
X132193700Y-104185800D03*
X139280300Y-104973200D03*
X138492900Y-102611000D03*
X136130700Y-106548000D03*
X134555900Y-101823600D03*
X132981100Y-103398400D03*
X133768500Y-101036200D03*
X133768500Y-102611000D03*
X136918100Y-101036200D03*
X134555900Y-100248800D03*
X135343300Y-104185800D03*
X137705500Y-104973200D03*
X134555900Y-104973200D03*
X132981100Y-100248800D03*
X132193700Y-102611000D03*
X132981100Y-104973200D03*
X136130700Y-100248800D03*
X138492900Y-105760600D03*
X139280300Y-106548000D03*
X135343300Y-105760600D03*
X138492900Y-107335400D03*
X139280300Y-101823600D03*
X137705500Y-101823600D03*
X133768500Y-104185800D03*
X133768500Y-105760600D03*
X135343300Y-107335400D03*
X132981100Y-101823600D03*
X139280300Y-100248800D03*
X136130700Y-104973200D03*
X137705500Y-100248800D03*
X134555900Y-106548000D03*
D27*
X128011852Y-97792102D03*
X128011852Y-98592100D03*
X128011852Y-99392101D03*
X128011852Y-100192100D03*
X128011852Y-100992101D03*
X128011852Y-101792099D03*
X128011852Y-102592100D03*
X128011852Y-103392101D03*
X128011852Y-104192099D03*
X128011852Y-104992100D03*
X128011852Y-105792099D03*
X128011852Y-106592099D03*
X128011852Y-107392100D03*
X128011852Y-108192099D03*
X128011852Y-108992100D03*
X128011852Y-109792098D03*
D28*
X129737002Y-111517248D03*
X130537000Y-111517248D03*
X131337001Y-111517248D03*
X132137000Y-111517248D03*
X132937001Y-111517248D03*
X133737001Y-111517248D03*
X134537000Y-111517248D03*
X135337001Y-111517248D03*
X136136999Y-111517248D03*
X136937000Y-111517248D03*
X137737001Y-111517248D03*
X138536999Y-111517248D03*
X139337000Y-111517248D03*
X140136999Y-111517248D03*
X140937000Y-111517248D03*
X141736998Y-111517248D03*
D27*
X143462148Y-109792098D03*
X143462148Y-108992100D03*
X143462148Y-108192099D03*
X143462148Y-107392100D03*
X143462148Y-106592099D03*
X143462148Y-105792099D03*
X143462148Y-104992100D03*
X143462148Y-104192099D03*
X143462148Y-103392101D03*
X143462148Y-102592100D03*
X143462148Y-101792099D03*
X143462148Y-100992101D03*
X143462148Y-100192100D03*
X143462148Y-99392101D03*
X143462148Y-98592100D03*
X143462148Y-97792102D03*
D28*
X141736998Y-96066952D03*
X140937000Y-96066952D03*
X140136999Y-96066952D03*
X139337000Y-96066952D03*
X138536999Y-96066952D03*
X137736999Y-96066952D03*
X136937000Y-96066952D03*
X136136999Y-96066952D03*
X135337001Y-96066952D03*
X134537000Y-96066952D03*
X133736999Y-96066952D03*
X132937001Y-96066952D03*
X132137000Y-96066952D03*
X131337001Y-96066952D03*
X130537000Y-96066952D03*
X129737002Y-96066952D03*
D29*
X127245000Y-114390000D03*
X130195000Y-114390000D03*
X122725000Y-110200000D03*
X125675000Y-110200000D03*
D30*
X150800000Y-114380000D03*
X150800000Y-113420000D03*
D31*
X111400000Y-103412500D03*
X111400000Y-101587500D03*
D32*
X133775000Y-114000000D03*
X132225000Y-114000000D03*
D19*
X122325000Y-125525000D03*
D20*
X119785000Y-125525000D03*
X117245000Y-125525000D03*
D19*
X107575000Y-99125000D03*
D20*
X105035000Y-99125000D03*
D13*
X174000000Y-114100000D03*
X174000000Y-119100000D03*
D33*
X176350000Y-126750000D03*
D23*
X154070000Y-101432500D03*
X154070000Y-106057500D03*
D22*
X171895000Y-105505000D03*
X171895000Y-103955000D03*
D31*
X117700000Y-103412500D03*
X117700000Y-101587500D03*
D24*
X139075000Y-114300000D03*
X136125000Y-114300000D03*
D22*
X171895000Y-108905000D03*
X171895000Y-107355000D03*
D15*
X134125000Y-76415000D03*
X134125000Y-74515000D03*
X169595000Y-109300000D03*
X169595000Y-107400000D03*
D31*
X114500000Y-103412500D03*
X114500000Y-101587500D03*
D22*
X170900000Y-115475000D03*
X170900000Y-113925000D03*
D16*
X133867677Y-121300000D03*
D17*
X128867677Y-121300000D03*
D34*
X110664500Y-115765500D03*
X108764500Y-117565500D03*
X110664500Y-119365500D03*
D16*
X133500000Y-84532323D03*
D17*
X133500000Y-89532323D03*
D13*
X119100000Y-119200000D03*
X124100000Y-119200000D03*
D30*
X151670000Y-101925000D03*
X151670000Y-100965000D03*
D32*
X125775000Y-107800000D03*
X124225000Y-107800000D03*
X125975000Y-101500000D03*
X124425000Y-101500000D03*
D30*
X150800000Y-118180000D03*
X150800000Y-117220000D03*
D15*
X137025000Y-76415000D03*
X137025000Y-74515000D03*
X169595000Y-105380000D03*
X169595000Y-103480000D03*
D23*
X154070000Y-94832500D03*
X154070000Y-99457500D03*
D33*
X130800000Y-70500000D03*
D35*
X105100000Y-106525000D03*
X105100000Y-104875000D03*
D33*
X176400000Y-71800000D03*
D19*
X109125000Y-106575000D03*
D20*
X111665000Y-106575000D03*
X109125000Y-109115000D03*
X111665000Y-109115000D03*
X109125000Y-111655000D03*
X111665000Y-111655000D03*
D36*
X124751000Y-86780000D03*
X124751000Y-76620000D03*
D37*
X102678400Y-81700000D03*
D38*
X124425000Y-99400000D03*
X125975000Y-99400000D03*
D23*
X153200000Y-116587500D03*
X153200000Y-121212500D03*
D33*
X101900000Y-126700000D03*
D18*
X156970000Y-113245000D03*
X165230000Y-113245000D03*
X165230000Y-119955000D03*
X156970000Y-119955000D03*
D15*
X140225000Y-76415000D03*
X140225000Y-74515000D03*
X142925000Y-76440000D03*
X142925000Y-74540000D03*
D32*
X125775000Y-106000000D03*
X124225000Y-106000000D03*
D30*
X151670000Y-99925000D03*
X151670000Y-98965000D03*
M02*
