G04 #@! TF.GenerationSoftware,KiCad,Pcbnew,(6.0.1)*
G04 #@! TF.CreationDate,2022-04-24T16:27:43-07:00*
G04 #@! TF.ProjectId,AudioAmp,41756469-6f41-46d7-902e-6b696361645f,rev?*
G04 #@! TF.SameCoordinates,Original*
G04 #@! TF.FileFunction,Soldermask,Top*
G04 #@! TF.FilePolarity,Negative*
%FSLAX46Y46*%
G04 Gerber Fmt 4.6, Leading zero omitted, Abs format (unit mm)*
G04 Created by KiCad (PCBNEW (6.0.1)) date 2022-04-24 16:27:43*
%MOMM*%
%LPD*%
G01*
G04 APERTURE LIST*
G04 Aperture macros list*
%AMRoundRect*
0 Rectangle with rounded corners*
0 $1 Rounding radius*
0 $2 $3 $4 $5 $6 $7 $8 $9 X,Y pos of 4 corners*
0 Add a 4 corners polygon primitive as box body*
4,1,4,$2,$3,$4,$5,$6,$7,$8,$9,$2,$3,0*
0 Add four circle primitives for the rounded corners*
1,1,$1+$1,$2,$3*
1,1,$1+$1,$4,$5*
1,1,$1+$1,$6,$7*
1,1,$1+$1,$8,$9*
0 Add four rect primitives between the rounded corners*
20,1,$1+$1,$2,$3,$4,$5,0*
20,1,$1+$1,$4,$5,$6,$7,0*
20,1,$1+$1,$6,$7,$8,$9,0*
20,1,$1+$1,$8,$9,$2,$3,0*%
G04 Aperture macros list end*
%ADD10C,0.100000*%
%ADD11C,1.600000*%
%ADD12RoundRect,0.200000X-0.200000X-0.275000X0.200000X-0.275000X0.200000X0.275000X-0.200000X0.275000X0*%
%ADD13RoundRect,0.250000X0.475000X-0.250000X0.475000X0.250000X-0.475000X0.250000X-0.475000X-0.250000X0*%
%ADD14R,2.000000X2.000000*%
%ADD15C,2.000000*%
%ADD16C,1.800000*%
%ADD17R,1.700000X1.700000*%
%ADD18O,1.700000X1.700000*%
%ADD19RoundRect,0.150000X-0.150000X0.587500X-0.150000X-0.587500X0.150000X-0.587500X0.150000X0.587500X0*%
%ADD20RoundRect,0.225000X0.250000X-0.225000X0.250000X0.225000X-0.250000X0.225000X-0.250000X-0.225000X0*%
%ADD21RoundRect,0.250000X-1.075000X0.362500X-1.075000X-0.362500X1.075000X-0.362500X1.075000X0.362500X0*%
%ADD22RoundRect,0.250000X0.325000X0.650000X-0.325000X0.650000X-0.325000X-0.650000X0.325000X-0.650000X0*%
%ADD23RoundRect,0.200000X-0.275000X0.200000X-0.275000X-0.200000X0.275000X-0.200000X0.275000X0.200000X0*%
%ADD24C,0.508000*%
%ADD25R,1.404099X0.456400*%
%ADD26R,0.456400X1.404099*%
%ADD27RoundRect,0.250000X-0.325000X-0.650000X0.325000X-0.650000X0.325000X0.650000X-0.325000X0.650000X0*%
%ADD28RoundRect,0.140000X0.170000X-0.140000X0.170000X0.140000X-0.170000X0.140000X-0.170000X-0.140000X0*%
%ADD29RoundRect,0.250000X0.450000X-0.262500X0.450000X0.262500X-0.450000X0.262500X-0.450000X-0.262500X0*%
%ADD30RoundRect,0.225000X0.225000X0.250000X-0.225000X0.250000X-0.225000X-0.250000X0.225000X-0.250000X0*%
%ADD31C,2.500000*%
%ADD32C,1.498600*%
%ADD33RoundRect,0.200000X0.275000X-0.200000X0.275000X0.200000X-0.275000X0.200000X-0.275000X-0.200000X0*%
%ADD34R,5.588000X5.334000*%
%ADD35R,5.283200X6.350000*%
%ADD36RoundRect,0.225000X-0.225000X-0.250000X0.225000X-0.250000X0.225000X0.250000X-0.225000X0.250000X0*%
G04 APERTURE END LIST*
D10*
X131673500Y-101236200D02*
X139800500Y-101236200D01*
X139800500Y-101236200D02*
X139800500Y-101623600D01*
X139800500Y-101623600D02*
X131673500Y-101623600D01*
X131673500Y-101623600D02*
X131673500Y-101236200D01*
G36*
X139800500Y-101623600D02*
G01*
X131673500Y-101623600D01*
X131673500Y-101236200D01*
X139800500Y-101236200D01*
X139800500Y-101623600D01*
G37*
X139800500Y-101623600D02*
X131673500Y-101623600D01*
X131673500Y-101236200D01*
X139800500Y-101236200D01*
X139800500Y-101623600D01*
X131673500Y-107535400D02*
X139800500Y-107535400D01*
X139800500Y-107535400D02*
X139800500Y-107855600D01*
X139800500Y-107855600D02*
X131673500Y-107855600D01*
X131673500Y-107855600D02*
X131673500Y-107535400D01*
G36*
X139800500Y-107855600D02*
G01*
X131673500Y-107855600D01*
X131673500Y-107535400D01*
X139800500Y-107535400D01*
X139800500Y-107855600D01*
G37*
X139800500Y-107855600D02*
X131673500Y-107855600D01*
X131673500Y-107535400D01*
X139800500Y-107535400D01*
X139800500Y-107855600D01*
X131673500Y-106748000D02*
X139800500Y-106748000D01*
X139800500Y-106748000D02*
X139800500Y-107135400D01*
X139800500Y-107135400D02*
X131673500Y-107135400D01*
X131673500Y-107135400D02*
X131673500Y-106748000D01*
G36*
X139800500Y-107135400D02*
G01*
X131673500Y-107135400D01*
X131673500Y-106748000D01*
X139800500Y-106748000D01*
X139800500Y-107135400D01*
G37*
X139800500Y-107135400D02*
X131673500Y-107135400D01*
X131673500Y-106748000D01*
X139800500Y-106748000D01*
X139800500Y-107135400D01*
X138292900Y-99728600D02*
X137905500Y-99728600D01*
X137905500Y-99728600D02*
X137905500Y-107855600D01*
X137905500Y-107855600D02*
X138292900Y-107855600D01*
X138292900Y-107855600D02*
X138292900Y-99728600D01*
G36*
X138292900Y-107855600D02*
G01*
X137905500Y-107855600D01*
X137905500Y-99728600D01*
X138292900Y-99728600D01*
X138292900Y-107855600D01*
G37*
X138292900Y-107855600D02*
X137905500Y-107855600D01*
X137905500Y-99728600D01*
X138292900Y-99728600D01*
X138292900Y-107855600D01*
X133568500Y-99728600D02*
X133181100Y-99728600D01*
X133181100Y-99728600D02*
X133181100Y-107855600D01*
X133181100Y-107855600D02*
X133568500Y-107855600D01*
X133568500Y-107855600D02*
X133568500Y-99728600D01*
G36*
X133568500Y-107855600D02*
G01*
X133181100Y-107855600D01*
X133181100Y-99728600D01*
X133568500Y-99728600D01*
X133568500Y-107855600D01*
G37*
X133568500Y-107855600D02*
X133181100Y-107855600D01*
X133181100Y-99728600D01*
X133568500Y-99728600D01*
X133568500Y-107855600D01*
X136718100Y-99728600D02*
X136330700Y-99728600D01*
X136330700Y-99728600D02*
X136330700Y-107855600D01*
X136330700Y-107855600D02*
X136718100Y-107855600D01*
X136718100Y-107855600D02*
X136718100Y-99728600D01*
G36*
X136718100Y-107855600D02*
G01*
X136330700Y-107855600D01*
X136330700Y-99728600D01*
X136718100Y-99728600D01*
X136718100Y-107855600D01*
G37*
X136718100Y-107855600D02*
X136330700Y-107855600D01*
X136330700Y-99728600D01*
X136718100Y-99728600D01*
X136718100Y-107855600D01*
X139480300Y-99728600D02*
X139800500Y-99728600D01*
X139800500Y-99728600D02*
X139800500Y-107855600D01*
X139800500Y-107855600D02*
X139480300Y-107855600D01*
X139480300Y-107855600D02*
X139480300Y-99728600D01*
G36*
X139800500Y-107855600D02*
G01*
X139480300Y-107855600D01*
X139480300Y-99728600D01*
X139800500Y-99728600D01*
X139800500Y-107855600D01*
G37*
X139800500Y-107855600D02*
X139480300Y-107855600D01*
X139480300Y-99728600D01*
X139800500Y-99728600D01*
X139800500Y-107855600D01*
X131673500Y-99728600D02*
X139800500Y-99728600D01*
X139800500Y-99728600D02*
X139800500Y-100048800D01*
X139800500Y-100048800D02*
X131673500Y-100048800D01*
X131673500Y-100048800D02*
X131673500Y-99728600D01*
G36*
X139800500Y-100048800D02*
G01*
X131673500Y-100048800D01*
X131673500Y-99728600D01*
X139800500Y-99728600D01*
X139800500Y-100048800D01*
G37*
X139800500Y-100048800D02*
X131673500Y-100048800D01*
X131673500Y-99728600D01*
X139800500Y-99728600D01*
X139800500Y-100048800D01*
X131673500Y-105173200D02*
X139800500Y-105173200D01*
X139800500Y-105173200D02*
X139800500Y-105560600D01*
X139800500Y-105560600D02*
X131673500Y-105560600D01*
X131673500Y-105560600D02*
X131673500Y-105173200D01*
G36*
X139800500Y-105560600D02*
G01*
X131673500Y-105560600D01*
X131673500Y-105173200D01*
X139800500Y-105173200D01*
X139800500Y-105560600D01*
G37*
X139800500Y-105560600D02*
X131673500Y-105560600D01*
X131673500Y-105173200D01*
X139800500Y-105173200D01*
X139800500Y-105560600D01*
X131673500Y-104385800D02*
X139800500Y-104385800D01*
X139800500Y-104385800D02*
X139800500Y-104773200D01*
X139800500Y-104773200D02*
X131673500Y-104773200D01*
X131673500Y-104773200D02*
X131673500Y-104385800D01*
G36*
X139800500Y-104773200D02*
G01*
X131673500Y-104773200D01*
X131673500Y-104385800D01*
X139800500Y-104385800D01*
X139800500Y-104773200D01*
G37*
X139800500Y-104773200D02*
X131673500Y-104773200D01*
X131673500Y-104385800D01*
X139800500Y-104385800D01*
X139800500Y-104773200D01*
X131673500Y-103598400D02*
X139800500Y-103598400D01*
X139800500Y-103598400D02*
X139800500Y-103985800D01*
X139800500Y-103985800D02*
X131673500Y-103985800D01*
X131673500Y-103985800D02*
X131673500Y-103598400D01*
G36*
X139800500Y-103985800D02*
G01*
X131673500Y-103985800D01*
X131673500Y-103598400D01*
X139800500Y-103598400D01*
X139800500Y-103985800D01*
G37*
X139800500Y-103985800D02*
X131673500Y-103985800D01*
X131673500Y-103598400D01*
X139800500Y-103598400D01*
X139800500Y-103985800D01*
X139080300Y-99728600D02*
X138692900Y-99728600D01*
X138692900Y-99728600D02*
X138692900Y-107855600D01*
X138692900Y-107855600D02*
X139080300Y-107855600D01*
X139080300Y-107855600D02*
X139080300Y-99728600D01*
G36*
X139080300Y-107855600D02*
G01*
X138692900Y-107855600D01*
X138692900Y-99728600D01*
X139080300Y-99728600D01*
X139080300Y-107855600D01*
G37*
X139080300Y-107855600D02*
X138692900Y-107855600D01*
X138692900Y-99728600D01*
X139080300Y-99728600D01*
X139080300Y-107855600D01*
X131673500Y-105960600D02*
X139800500Y-105960600D01*
X139800500Y-105960600D02*
X139800500Y-106348000D01*
X139800500Y-106348000D02*
X131673500Y-106348000D01*
X131673500Y-106348000D02*
X131673500Y-105960600D01*
G36*
X139800500Y-106348000D02*
G01*
X131673500Y-106348000D01*
X131673500Y-105960600D01*
X139800500Y-105960600D01*
X139800500Y-106348000D01*
G37*
X139800500Y-106348000D02*
X131673500Y-106348000D01*
X131673500Y-105960600D01*
X139800500Y-105960600D01*
X139800500Y-106348000D01*
X132781100Y-99728600D02*
X132393700Y-99728600D01*
X132393700Y-99728600D02*
X132393700Y-107855600D01*
X132393700Y-107855600D02*
X132781100Y-107855600D01*
X132781100Y-107855600D02*
X132781100Y-99728600D01*
G36*
X132781100Y-107855600D02*
G01*
X132393700Y-107855600D01*
X132393700Y-99728600D01*
X132781100Y-99728600D01*
X132781100Y-107855600D01*
G37*
X132781100Y-107855600D02*
X132393700Y-107855600D01*
X132393700Y-99728600D01*
X132781100Y-99728600D01*
X132781100Y-107855600D01*
X131673500Y-99728600D02*
X131993700Y-99728600D01*
X131993700Y-99728600D02*
X131993700Y-107855600D01*
X131993700Y-107855600D02*
X131673500Y-107855600D01*
X131673500Y-107855600D02*
X131673500Y-99728600D01*
G36*
X131993700Y-107855600D02*
G01*
X131673500Y-107855600D01*
X131673500Y-99728600D01*
X131993700Y-99728600D01*
X131993700Y-107855600D01*
G37*
X131993700Y-107855600D02*
X131673500Y-107855600D01*
X131673500Y-99728600D01*
X131993700Y-99728600D01*
X131993700Y-107855600D01*
X135143300Y-99728600D02*
X134755900Y-99728600D01*
X134755900Y-99728600D02*
X134755900Y-107855600D01*
X134755900Y-107855600D02*
X135143300Y-107855600D01*
X135143300Y-107855600D02*
X135143300Y-99728600D01*
G36*
X135143300Y-107855600D02*
G01*
X134755900Y-107855600D01*
X134755900Y-99728600D01*
X135143300Y-99728600D01*
X135143300Y-107855600D01*
G37*
X135143300Y-107855600D02*
X134755900Y-107855600D01*
X134755900Y-99728600D01*
X135143300Y-99728600D01*
X135143300Y-107855600D01*
X131673500Y-102023600D02*
X139800500Y-102023600D01*
X139800500Y-102023600D02*
X139800500Y-102411000D01*
X139800500Y-102411000D02*
X131673500Y-102411000D01*
X131673500Y-102411000D02*
X131673500Y-102023600D01*
G36*
X139800500Y-102411000D02*
G01*
X131673500Y-102411000D01*
X131673500Y-102023600D01*
X139800500Y-102023600D01*
X139800500Y-102411000D01*
G37*
X139800500Y-102411000D02*
X131673500Y-102411000D01*
X131673500Y-102023600D01*
X139800500Y-102023600D01*
X139800500Y-102411000D01*
X134355900Y-99728600D02*
X133968500Y-99728600D01*
X133968500Y-99728600D02*
X133968500Y-107855600D01*
X133968500Y-107855600D02*
X134355900Y-107855600D01*
X134355900Y-107855600D02*
X134355900Y-99728600D01*
G36*
X134355900Y-107855600D02*
G01*
X133968500Y-107855600D01*
X133968500Y-99728600D01*
X134355900Y-99728600D01*
X134355900Y-107855600D01*
G37*
X134355900Y-107855600D02*
X133968500Y-107855600D01*
X133968500Y-99728600D01*
X134355900Y-99728600D01*
X134355900Y-107855600D01*
X137505500Y-99728600D02*
X137118100Y-99728600D01*
X137118100Y-99728600D02*
X137118100Y-107855600D01*
X137118100Y-107855600D02*
X137505500Y-107855600D01*
X137505500Y-107855600D02*
X137505500Y-99728600D01*
G36*
X137505500Y-107855600D02*
G01*
X137118100Y-107855600D01*
X137118100Y-99728600D01*
X137505500Y-99728600D01*
X137505500Y-107855600D01*
G37*
X137505500Y-107855600D02*
X137118100Y-107855600D01*
X137118100Y-99728600D01*
X137505500Y-99728600D01*
X137505500Y-107855600D01*
X131673500Y-102811000D02*
X139800500Y-102811000D01*
X139800500Y-102811000D02*
X139800500Y-103198400D01*
X139800500Y-103198400D02*
X131673500Y-103198400D01*
X131673500Y-103198400D02*
X131673500Y-102811000D01*
G36*
X139800500Y-103198400D02*
G01*
X131673500Y-103198400D01*
X131673500Y-102811000D01*
X139800500Y-102811000D01*
X139800500Y-103198400D01*
G37*
X139800500Y-103198400D02*
X131673500Y-103198400D01*
X131673500Y-102811000D01*
X139800500Y-102811000D01*
X139800500Y-103198400D01*
X131673500Y-100448800D02*
X139800500Y-100448800D01*
X139800500Y-100448800D02*
X139800500Y-100836200D01*
X139800500Y-100836200D02*
X131673500Y-100836200D01*
X131673500Y-100836200D02*
X131673500Y-100448800D01*
G36*
X139800500Y-100836200D02*
G01*
X131673500Y-100836200D01*
X131673500Y-100448800D01*
X139800500Y-100448800D01*
X139800500Y-100836200D01*
G37*
X139800500Y-100836200D02*
X131673500Y-100836200D01*
X131673500Y-100448800D01*
X139800500Y-100448800D01*
X139800500Y-100836200D01*
X135930700Y-99728600D02*
X135543300Y-99728600D01*
X135543300Y-99728600D02*
X135543300Y-107855600D01*
X135543300Y-107855600D02*
X135930700Y-107855600D01*
X135930700Y-107855600D02*
X135930700Y-99728600D01*
G36*
X135930700Y-107855600D02*
G01*
X135543300Y-107855600D01*
X135543300Y-99728600D01*
X135930700Y-99728600D01*
X135930700Y-107855600D01*
G37*
X135930700Y-107855600D02*
X135543300Y-107855600D01*
X135543300Y-99728600D01*
X135930700Y-99728600D01*
X135930700Y-107855600D01*
D11*
X175195000Y-103630000D03*
X175195000Y-108630000D03*
D12*
X124175000Y-104300000D03*
X125825000Y-104300000D03*
D11*
X119100000Y-114600000D03*
X124100000Y-114600000D03*
D13*
X168700000Y-119850000D03*
X168700000Y-117950000D03*
D14*
X139832323Y-121300000D03*
D15*
X144832323Y-121300000D03*
D16*
X158040000Y-97190000D03*
X166300000Y-97190000D03*
X166300000Y-103900000D03*
X158040000Y-103900000D03*
D17*
X179700000Y-106660000D03*
D18*
X179700000Y-109200000D03*
D14*
X144200000Y-84632323D03*
D15*
X144200000Y-89632323D03*
D19*
X122250000Y-98562500D03*
X120350000Y-98562500D03*
X121300000Y-100437500D03*
D17*
X152875000Y-76475000D03*
D18*
X152875000Y-73935000D03*
X155415000Y-76475000D03*
X155415000Y-73935000D03*
X157955000Y-76475000D03*
X157955000Y-73935000D03*
D20*
X170900000Y-119475000D03*
X170900000Y-117925000D03*
D13*
X168700000Y-115450000D03*
X168700000Y-113550000D03*
D21*
X153200000Y-110087500D03*
X153200000Y-114712500D03*
D17*
X179700000Y-115270000D03*
D18*
X179700000Y-117810000D03*
D22*
X138075000Y-93900000D03*
X135125000Y-93900000D03*
D23*
X115200000Y-97875000D03*
X115200000Y-99525000D03*
D24*
X138492900Y-101036200D03*
X136918100Y-104185800D03*
X137705500Y-106548000D03*
X137705500Y-103398400D03*
X132981100Y-106548000D03*
X133768500Y-107335400D03*
X132193700Y-107335400D03*
X132193700Y-105760600D03*
X136130700Y-103398400D03*
X136918100Y-105760600D03*
X135343300Y-101036200D03*
X136130700Y-101823600D03*
X138492900Y-104185800D03*
X136918100Y-107335400D03*
X136918100Y-102611000D03*
X134555900Y-103398400D03*
X135343300Y-102611000D03*
X132193700Y-101036200D03*
X139280300Y-103398400D03*
X132193700Y-104185800D03*
X139280300Y-104973200D03*
X138492900Y-102611000D03*
X136130700Y-106548000D03*
X134555900Y-101823600D03*
X132981100Y-103398400D03*
X133768500Y-101036200D03*
X133768500Y-102611000D03*
X136918100Y-101036200D03*
X134555900Y-100248800D03*
X135343300Y-104185800D03*
X137705500Y-104973200D03*
X134555900Y-104973200D03*
X132981100Y-100248800D03*
X132193700Y-102611000D03*
X132981100Y-104973200D03*
X136130700Y-100248800D03*
X138492900Y-105760600D03*
X139280300Y-106548000D03*
X135343300Y-105760600D03*
X138492900Y-107335400D03*
X139280300Y-101823600D03*
X137705500Y-101823600D03*
X133768500Y-104185800D03*
X133768500Y-105760600D03*
X135343300Y-107335400D03*
X132981100Y-101823600D03*
X139280300Y-100248800D03*
X136130700Y-104973200D03*
X137705500Y-100248800D03*
X134555900Y-106548000D03*
D25*
X128011852Y-97792102D03*
X128011852Y-98592100D03*
X128011852Y-99392101D03*
X128011852Y-100192100D03*
X128011852Y-100992101D03*
X128011852Y-101792099D03*
X128011852Y-102592100D03*
X128011852Y-103392101D03*
X128011852Y-104192099D03*
X128011852Y-104992100D03*
X128011852Y-105792099D03*
X128011852Y-106592099D03*
X128011852Y-107392100D03*
X128011852Y-108192099D03*
X128011852Y-108992100D03*
X128011852Y-109792098D03*
D26*
X129737002Y-111517248D03*
X130537000Y-111517248D03*
X131337001Y-111517248D03*
X132137000Y-111517248D03*
X132937001Y-111517248D03*
X133737001Y-111517248D03*
X134537000Y-111517248D03*
X135337001Y-111517248D03*
X136136999Y-111517248D03*
X136937000Y-111517248D03*
X137737001Y-111517248D03*
X138536999Y-111517248D03*
X139337000Y-111517248D03*
X140136999Y-111517248D03*
X140937000Y-111517248D03*
X141736998Y-111517248D03*
D25*
X143462148Y-109792098D03*
X143462148Y-108992100D03*
X143462148Y-108192099D03*
X143462148Y-107392100D03*
X143462148Y-106592099D03*
X143462148Y-105792099D03*
X143462148Y-104992100D03*
X143462148Y-104192099D03*
X143462148Y-103392101D03*
X143462148Y-102592100D03*
X143462148Y-101792099D03*
X143462148Y-100992101D03*
X143462148Y-100192100D03*
X143462148Y-99392101D03*
X143462148Y-98592100D03*
X143462148Y-97792102D03*
D26*
X141736998Y-96066952D03*
X140937000Y-96066952D03*
X140136999Y-96066952D03*
X139337000Y-96066952D03*
X138536999Y-96066952D03*
X137736999Y-96066952D03*
X136937000Y-96066952D03*
X136136999Y-96066952D03*
X135337001Y-96066952D03*
X134537000Y-96066952D03*
X133736999Y-96066952D03*
X132937001Y-96066952D03*
X132137000Y-96066952D03*
X131337001Y-96066952D03*
X130537000Y-96066952D03*
X129737002Y-96066952D03*
D27*
X127245000Y-114390000D03*
X130195000Y-114390000D03*
X122725000Y-110200000D03*
X125675000Y-110200000D03*
D28*
X150800000Y-114380000D03*
X150800000Y-113420000D03*
D29*
X111400000Y-103412500D03*
X111400000Y-101587500D03*
D30*
X133775000Y-114000000D03*
X132225000Y-114000000D03*
D17*
X122325000Y-125525000D03*
D18*
X119785000Y-125525000D03*
X117245000Y-125525000D03*
D17*
X107575000Y-99125000D03*
D18*
X105035000Y-99125000D03*
D11*
X174000000Y-114100000D03*
X174000000Y-119100000D03*
D31*
X176350000Y-126750000D03*
D21*
X154070000Y-101432500D03*
X154070000Y-106057500D03*
D20*
X171895000Y-105505000D03*
X171895000Y-103955000D03*
D29*
X117700000Y-103412500D03*
X117700000Y-101587500D03*
D22*
X139075000Y-114300000D03*
X136125000Y-114300000D03*
D20*
X171895000Y-108905000D03*
X171895000Y-107355000D03*
D13*
X134125000Y-76415000D03*
X134125000Y-74515000D03*
X169595000Y-109300000D03*
X169595000Y-107400000D03*
D29*
X114500000Y-103412500D03*
X114500000Y-101587500D03*
D20*
X170900000Y-115475000D03*
X170900000Y-113925000D03*
D14*
X133867677Y-121300000D03*
D15*
X128867677Y-121300000D03*
D32*
X110664500Y-115765500D03*
X108764500Y-117565500D03*
X110664500Y-119365500D03*
D14*
X133500000Y-84532323D03*
D15*
X133500000Y-89532323D03*
D11*
X119100000Y-119200000D03*
X124100000Y-119200000D03*
D28*
X151670000Y-101925000D03*
X151670000Y-100965000D03*
D30*
X125775000Y-107800000D03*
X124225000Y-107800000D03*
X125975000Y-101500000D03*
X124425000Y-101500000D03*
D28*
X150800000Y-118180000D03*
X150800000Y-117220000D03*
D13*
X137025000Y-76415000D03*
X137025000Y-74515000D03*
X169595000Y-105380000D03*
X169595000Y-103480000D03*
D21*
X154070000Y-94832500D03*
X154070000Y-99457500D03*
D31*
X130800000Y-70500000D03*
D33*
X105100000Y-106525000D03*
X105100000Y-104875000D03*
D31*
X176400000Y-71800000D03*
D17*
X109125000Y-106575000D03*
D18*
X111665000Y-106575000D03*
X109125000Y-109115000D03*
X111665000Y-109115000D03*
X109125000Y-111655000D03*
X111665000Y-111655000D03*
D34*
X124751000Y-86780000D03*
X124751000Y-76620000D03*
D35*
X102678400Y-81700000D03*
D36*
X124425000Y-99400000D03*
X125975000Y-99400000D03*
D21*
X153200000Y-116587500D03*
X153200000Y-121212500D03*
D31*
X101900000Y-126700000D03*
D16*
X156970000Y-113245000D03*
X165230000Y-113245000D03*
X165230000Y-119955000D03*
X156970000Y-119955000D03*
D13*
X140225000Y-76415000D03*
X140225000Y-74515000D03*
X142925000Y-76440000D03*
X142925000Y-74540000D03*
D30*
X125775000Y-106000000D03*
X124225000Y-106000000D03*
D28*
X151670000Y-99925000D03*
X151670000Y-98965000D03*
M02*
