G04 #@! TF.GenerationSoftware,KiCad,Pcbnew,(6.0.1)*
G04 #@! TF.CreationDate,2022-04-24T16:27:43-07:00*
G04 #@! TF.ProjectId,AudioAmp,41756469-6f41-46d7-902e-6b696361645f,rev?*
G04 #@! TF.SameCoordinates,Original*
G04 #@! TF.FileFunction,Paste,Top*
G04 #@! TF.FilePolarity,Positive*
%FSLAX46Y46*%
G04 Gerber Fmt 4.6, Leading zero omitted, Abs format (unit mm)*
G04 Created by KiCad (PCBNEW (6.0.1)) date 2022-04-24 16:27:43*
%MOMM*%
%LPD*%
G01*
G04 APERTURE LIST*
G04 Aperture macros list*
%AMRoundRect*
0 Rectangle with rounded corners*
0 $1 Rounding radius*
0 $2 $3 $4 $5 $6 $7 $8 $9 X,Y pos of 4 corners*
0 Add a 4 corners polygon primitive as box body*
4,1,4,$2,$3,$4,$5,$6,$7,$8,$9,$2,$3,0*
0 Add four circle primitives for the rounded corners*
1,1,$1+$1,$2,$3*
1,1,$1+$1,$4,$5*
1,1,$1+$1,$6,$7*
1,1,$1+$1,$8,$9*
0 Add four rect primitives between the rounded corners*
20,1,$1+$1,$2,$3,$4,$5,0*
20,1,$1+$1,$4,$5,$6,$7,0*
20,1,$1+$1,$6,$7,$8,$9,0*
20,1,$1+$1,$8,$9,$2,$3,0*%
G04 Aperture macros list end*
%ADD10C,0.100000*%
%ADD11RoundRect,0.200000X-0.200000X-0.275000X0.200000X-0.275000X0.200000X0.275000X-0.200000X0.275000X0*%
%ADD12RoundRect,0.250000X0.475000X-0.250000X0.475000X0.250000X-0.475000X0.250000X-0.475000X-0.250000X0*%
%ADD13RoundRect,0.150000X-0.150000X0.587500X-0.150000X-0.587500X0.150000X-0.587500X0.150000X0.587500X0*%
%ADD14RoundRect,0.225000X0.250000X-0.225000X0.250000X0.225000X-0.250000X0.225000X-0.250000X-0.225000X0*%
%ADD15RoundRect,0.250000X-1.075000X0.362500X-1.075000X-0.362500X1.075000X-0.362500X1.075000X0.362500X0*%
%ADD16RoundRect,0.250000X0.325000X0.650000X-0.325000X0.650000X-0.325000X-0.650000X0.325000X-0.650000X0*%
%ADD17RoundRect,0.200000X-0.275000X0.200000X-0.275000X-0.200000X0.275000X-0.200000X0.275000X0.200000X0*%
%ADD18R,1.404099X0.456400*%
%ADD19R,0.456400X1.404099*%
%ADD20RoundRect,0.250000X-0.325000X-0.650000X0.325000X-0.650000X0.325000X0.650000X-0.325000X0.650000X0*%
%ADD21RoundRect,0.140000X0.170000X-0.140000X0.170000X0.140000X-0.170000X0.140000X-0.170000X-0.140000X0*%
%ADD22RoundRect,0.250000X0.450000X-0.262500X0.450000X0.262500X-0.450000X0.262500X-0.450000X-0.262500X0*%
%ADD23RoundRect,0.225000X0.225000X0.250000X-0.225000X0.250000X-0.225000X-0.250000X0.225000X-0.250000X0*%
%ADD24RoundRect,0.200000X0.275000X-0.200000X0.275000X0.200000X-0.275000X0.200000X-0.275000X-0.200000X0*%
%ADD25R,5.588000X5.334000*%
%ADD26R,5.283200X6.350000*%
%ADD27RoundRect,0.225000X-0.225000X-0.250000X0.225000X-0.250000X0.225000X0.250000X-0.225000X0.250000X0*%
G04 APERTURE END LIST*
D10*
X138734321Y-107435400D02*
X138592900Y-107576821D01*
X138592900Y-107576821D02*
X138592900Y-107717170D01*
X138592900Y-107717170D02*
X139180300Y-107717170D01*
X139180300Y-107717170D02*
X139180300Y-107576821D01*
X139180300Y-107576821D02*
X139038879Y-107435400D01*
X139038879Y-107435400D02*
X138734321Y-107435400D01*
G36*
X139180300Y-107576821D02*
G01*
X139180300Y-107717170D01*
X138592900Y-107717170D01*
X138592900Y-107576821D01*
X138734321Y-107435400D01*
X139038879Y-107435400D01*
X139180300Y-107576821D01*
G37*
X139180300Y-107576821D02*
X139180300Y-107717170D01*
X138592900Y-107717170D01*
X138592900Y-107576821D01*
X138734321Y-107435400D01*
X139038879Y-107435400D01*
X139180300Y-107576821D01*
X134655900Y-99867030D02*
X134655900Y-100007379D01*
X134655900Y-100007379D02*
X134797321Y-100148800D01*
X134797321Y-100148800D02*
X135101879Y-100148800D01*
X135101879Y-100148800D02*
X135243300Y-100007379D01*
X135243300Y-100007379D02*
X135243300Y-99867030D01*
X135243300Y-99867030D02*
X134655900Y-99867030D01*
G36*
X135243300Y-100007379D02*
G01*
X135101879Y-100148800D01*
X134797321Y-100148800D01*
X134655900Y-100007379D01*
X134655900Y-99867030D01*
X135243300Y-99867030D01*
X135243300Y-100007379D01*
G37*
X135243300Y-100007379D02*
X135101879Y-100148800D01*
X134797321Y-100148800D01*
X134655900Y-100007379D01*
X134655900Y-99867030D01*
X135243300Y-99867030D01*
X135243300Y-100007379D01*
X131811930Y-101923600D02*
X131811930Y-102511000D01*
X131811930Y-102511000D02*
X131952279Y-102511000D01*
X131952279Y-102511000D02*
X132093700Y-102369579D01*
X132093700Y-102369579D02*
X132093700Y-102065021D01*
X132093700Y-102065021D02*
X131952279Y-101923600D01*
X131952279Y-101923600D02*
X131811930Y-101923600D01*
G36*
X132093700Y-102065021D02*
G01*
X132093700Y-102369579D01*
X131952279Y-102511000D01*
X131811930Y-102511000D01*
X131811930Y-101923600D01*
X131952279Y-101923600D01*
X132093700Y-102065021D01*
G37*
X132093700Y-102065021D02*
X132093700Y-102369579D01*
X131952279Y-102511000D01*
X131811930Y-102511000D01*
X131811930Y-101923600D01*
X131952279Y-101923600D01*
X132093700Y-102065021D01*
X138734321Y-101923600D02*
X138592900Y-102065021D01*
X138592900Y-102065021D02*
X138592900Y-102369579D01*
X138592900Y-102369579D02*
X138734321Y-102511000D01*
X138734321Y-102511000D02*
X139038879Y-102511000D01*
X139038879Y-102511000D02*
X139180300Y-102369579D01*
X139180300Y-102369579D02*
X139180300Y-102065021D01*
X139180300Y-102065021D02*
X139038879Y-101923600D01*
X139038879Y-101923600D02*
X138734321Y-101923600D01*
G36*
X139180300Y-102065021D02*
G01*
X139180300Y-102369579D01*
X139038879Y-102511000D01*
X138734321Y-102511000D01*
X138592900Y-102369579D01*
X138592900Y-102065021D01*
X138734321Y-101923600D01*
X139038879Y-101923600D01*
X139180300Y-102065021D01*
G37*
X139180300Y-102065021D02*
X139180300Y-102369579D01*
X139038879Y-102511000D01*
X138734321Y-102511000D01*
X138592900Y-102369579D01*
X138592900Y-102065021D01*
X138734321Y-101923600D01*
X139038879Y-101923600D01*
X139180300Y-102065021D01*
X132435121Y-107435400D02*
X132293700Y-107576821D01*
X132293700Y-107576821D02*
X132293700Y-107717170D01*
X132293700Y-107717170D02*
X132881100Y-107717170D01*
X132881100Y-107717170D02*
X132881100Y-107576821D01*
X132881100Y-107576821D02*
X132739679Y-107435400D01*
X132739679Y-107435400D02*
X132435121Y-107435400D01*
G36*
X132881100Y-107576821D02*
G01*
X132881100Y-107717170D01*
X132293700Y-107717170D01*
X132293700Y-107576821D01*
X132435121Y-107435400D01*
X132739679Y-107435400D01*
X132881100Y-107576821D01*
G37*
X132881100Y-107576821D02*
X132881100Y-107717170D01*
X132293700Y-107717170D01*
X132293700Y-107576821D01*
X132435121Y-107435400D01*
X132739679Y-107435400D01*
X132881100Y-107576821D01*
X135584721Y-104285800D02*
X135443300Y-104427221D01*
X135443300Y-104427221D02*
X135443300Y-104731779D01*
X135443300Y-104731779D02*
X135584721Y-104873200D01*
X135584721Y-104873200D02*
X135889279Y-104873200D01*
X135889279Y-104873200D02*
X136030700Y-104731779D01*
X136030700Y-104731779D02*
X136030700Y-104427221D01*
X136030700Y-104427221D02*
X135889279Y-104285800D01*
X135889279Y-104285800D02*
X135584721Y-104285800D01*
G36*
X136030700Y-104427221D02*
G01*
X136030700Y-104731779D01*
X135889279Y-104873200D01*
X135584721Y-104873200D01*
X135443300Y-104731779D01*
X135443300Y-104427221D01*
X135584721Y-104285800D01*
X135889279Y-104285800D01*
X136030700Y-104427221D01*
G37*
X136030700Y-104427221D02*
X136030700Y-104731779D01*
X135889279Y-104873200D01*
X135584721Y-104873200D01*
X135443300Y-104731779D01*
X135443300Y-104427221D01*
X135584721Y-104285800D01*
X135889279Y-104285800D01*
X136030700Y-104427221D01*
X132435121Y-103498400D02*
X132293700Y-103639821D01*
X132293700Y-103639821D02*
X132293700Y-103944379D01*
X132293700Y-103944379D02*
X132435121Y-104085800D01*
X132435121Y-104085800D02*
X132739679Y-104085800D01*
X132739679Y-104085800D02*
X132881100Y-103944379D01*
X132881100Y-103944379D02*
X132881100Y-103639821D01*
X132881100Y-103639821D02*
X132739679Y-103498400D01*
X132739679Y-103498400D02*
X132435121Y-103498400D01*
G36*
X132881100Y-103639821D02*
G01*
X132881100Y-103944379D01*
X132739679Y-104085800D01*
X132435121Y-104085800D01*
X132293700Y-103944379D01*
X132293700Y-103639821D01*
X132435121Y-103498400D01*
X132739679Y-103498400D01*
X132881100Y-103639821D01*
G37*
X132881100Y-103639821D02*
X132881100Y-103944379D01*
X132739679Y-104085800D01*
X132435121Y-104085800D01*
X132293700Y-103944379D01*
X132293700Y-103639821D01*
X132435121Y-103498400D01*
X132739679Y-103498400D01*
X132881100Y-103639821D01*
X135584721Y-105860600D02*
X135443300Y-106002021D01*
X135443300Y-106002021D02*
X135443300Y-106306579D01*
X135443300Y-106306579D02*
X135584721Y-106448000D01*
X135584721Y-106448000D02*
X135889279Y-106448000D01*
X135889279Y-106448000D02*
X136030700Y-106306579D01*
X136030700Y-106306579D02*
X136030700Y-106002021D01*
X136030700Y-106002021D02*
X135889279Y-105860600D01*
X135889279Y-105860600D02*
X135584721Y-105860600D01*
G36*
X136030700Y-106002021D02*
G01*
X136030700Y-106306579D01*
X135889279Y-106448000D01*
X135584721Y-106448000D01*
X135443300Y-106306579D01*
X135443300Y-106002021D01*
X135584721Y-105860600D01*
X135889279Y-105860600D01*
X136030700Y-106002021D01*
G37*
X136030700Y-106002021D02*
X136030700Y-106306579D01*
X135889279Y-106448000D01*
X135584721Y-106448000D01*
X135443300Y-106306579D01*
X135443300Y-106002021D01*
X135584721Y-105860600D01*
X135889279Y-105860600D01*
X136030700Y-106002021D01*
X136372121Y-105860600D02*
X136230700Y-106002021D01*
X136230700Y-106002021D02*
X136230700Y-106306579D01*
X136230700Y-106306579D02*
X136372121Y-106448000D01*
X136372121Y-106448000D02*
X136676679Y-106448000D01*
X136676679Y-106448000D02*
X136818100Y-106306579D01*
X136818100Y-106306579D02*
X136818100Y-106002021D01*
X136818100Y-106002021D02*
X136676679Y-105860600D01*
X136676679Y-105860600D02*
X136372121Y-105860600D01*
G36*
X136818100Y-106002021D02*
G01*
X136818100Y-106306579D01*
X136676679Y-106448000D01*
X136372121Y-106448000D01*
X136230700Y-106306579D01*
X136230700Y-106002021D01*
X136372121Y-105860600D01*
X136676679Y-105860600D01*
X136818100Y-106002021D01*
G37*
X136818100Y-106002021D02*
X136818100Y-106306579D01*
X136676679Y-106448000D01*
X136372121Y-106448000D01*
X136230700Y-106306579D01*
X136230700Y-106002021D01*
X136372121Y-105860600D01*
X136676679Y-105860600D01*
X136818100Y-106002021D01*
X133081100Y-99867030D02*
X133081100Y-100007379D01*
X133081100Y-100007379D02*
X133222521Y-100148800D01*
X133222521Y-100148800D02*
X133527079Y-100148800D01*
X133527079Y-100148800D02*
X133668500Y-100007379D01*
X133668500Y-100007379D02*
X133668500Y-99867030D01*
X133668500Y-99867030D02*
X133081100Y-99867030D01*
G36*
X133668500Y-100007379D02*
G01*
X133527079Y-100148800D01*
X133222521Y-100148800D01*
X133081100Y-100007379D01*
X133081100Y-99867030D01*
X133668500Y-99867030D01*
X133668500Y-100007379D01*
G37*
X133668500Y-100007379D02*
X133527079Y-100148800D01*
X133222521Y-100148800D01*
X133081100Y-100007379D01*
X133081100Y-99867030D01*
X133668500Y-99867030D01*
X133668500Y-100007379D01*
X133222521Y-105073200D02*
X133081100Y-105214621D01*
X133081100Y-105214621D02*
X133081100Y-105519179D01*
X133081100Y-105519179D02*
X133222521Y-105660600D01*
X133222521Y-105660600D02*
X133527079Y-105660600D01*
X133527079Y-105660600D02*
X133668500Y-105519179D01*
X133668500Y-105519179D02*
X133668500Y-105214621D01*
X133668500Y-105214621D02*
X133527079Y-105073200D01*
X133527079Y-105073200D02*
X133222521Y-105073200D01*
G36*
X133668500Y-105214621D02*
G01*
X133668500Y-105519179D01*
X133527079Y-105660600D01*
X133222521Y-105660600D01*
X133081100Y-105519179D01*
X133081100Y-105214621D01*
X133222521Y-105073200D01*
X133527079Y-105073200D01*
X133668500Y-105214621D01*
G37*
X133668500Y-105214621D02*
X133668500Y-105519179D01*
X133527079Y-105660600D01*
X133222521Y-105660600D01*
X133081100Y-105519179D01*
X133081100Y-105214621D01*
X133222521Y-105073200D01*
X133527079Y-105073200D01*
X133668500Y-105214621D01*
X134797321Y-101923600D02*
X134655900Y-102065021D01*
X134655900Y-102065021D02*
X134655900Y-102369579D01*
X134655900Y-102369579D02*
X134797321Y-102511000D01*
X134797321Y-102511000D02*
X135101879Y-102511000D01*
X135101879Y-102511000D02*
X135243300Y-102369579D01*
X135243300Y-102369579D02*
X135243300Y-102065021D01*
X135243300Y-102065021D02*
X135101879Y-101923600D01*
X135101879Y-101923600D02*
X134797321Y-101923600D01*
G36*
X135243300Y-102065021D02*
G01*
X135243300Y-102369579D01*
X135101879Y-102511000D01*
X134797321Y-102511000D01*
X134655900Y-102369579D01*
X134655900Y-102065021D01*
X134797321Y-101923600D01*
X135101879Y-101923600D01*
X135243300Y-102065021D01*
G37*
X135243300Y-102065021D02*
X135243300Y-102369579D01*
X135101879Y-102511000D01*
X134797321Y-102511000D01*
X134655900Y-102369579D01*
X134655900Y-102065021D01*
X134797321Y-101923600D01*
X135101879Y-101923600D01*
X135243300Y-102065021D01*
X134009921Y-101923600D02*
X133868500Y-102065021D01*
X133868500Y-102065021D02*
X133868500Y-102369579D01*
X133868500Y-102369579D02*
X134009921Y-102511000D01*
X134009921Y-102511000D02*
X134314479Y-102511000D01*
X134314479Y-102511000D02*
X134455900Y-102369579D01*
X134455900Y-102369579D02*
X134455900Y-102065021D01*
X134455900Y-102065021D02*
X134314479Y-101923600D01*
X134314479Y-101923600D02*
X134009921Y-101923600D01*
G36*
X134455900Y-102065021D02*
G01*
X134455900Y-102369579D01*
X134314479Y-102511000D01*
X134009921Y-102511000D01*
X133868500Y-102369579D01*
X133868500Y-102065021D01*
X134009921Y-101923600D01*
X134314479Y-101923600D01*
X134455900Y-102065021D01*
G37*
X134455900Y-102065021D02*
X134455900Y-102369579D01*
X134314479Y-102511000D01*
X134009921Y-102511000D01*
X133868500Y-102369579D01*
X133868500Y-102065021D01*
X134009921Y-101923600D01*
X134314479Y-101923600D01*
X134455900Y-102065021D01*
X131811930Y-102711000D02*
X131811930Y-103298400D01*
X131811930Y-103298400D02*
X131952279Y-103298400D01*
X131952279Y-103298400D02*
X132093700Y-103156979D01*
X132093700Y-103156979D02*
X132093700Y-102852421D01*
X132093700Y-102852421D02*
X131952279Y-102711000D01*
X131952279Y-102711000D02*
X131811930Y-102711000D01*
G36*
X132093700Y-102852421D02*
G01*
X132093700Y-103156979D01*
X131952279Y-103298400D01*
X131811930Y-103298400D01*
X131811930Y-102711000D01*
X131952279Y-102711000D01*
X132093700Y-102852421D01*
G37*
X132093700Y-102852421D02*
X132093700Y-103156979D01*
X131952279Y-103298400D01*
X131811930Y-103298400D01*
X131811930Y-102711000D01*
X131952279Y-102711000D01*
X132093700Y-102852421D01*
X134009921Y-101136200D02*
X133868500Y-101277621D01*
X133868500Y-101277621D02*
X133868500Y-101582179D01*
X133868500Y-101582179D02*
X134009921Y-101723600D01*
X134009921Y-101723600D02*
X134314479Y-101723600D01*
X134314479Y-101723600D02*
X134455900Y-101582179D01*
X134455900Y-101582179D02*
X134455900Y-101277621D01*
X134455900Y-101277621D02*
X134314479Y-101136200D01*
X134314479Y-101136200D02*
X134009921Y-101136200D01*
G36*
X134455900Y-101277621D02*
G01*
X134455900Y-101582179D01*
X134314479Y-101723600D01*
X134009921Y-101723600D01*
X133868500Y-101582179D01*
X133868500Y-101277621D01*
X134009921Y-101136200D01*
X134314479Y-101136200D01*
X134455900Y-101277621D01*
G37*
X134455900Y-101277621D02*
X134455900Y-101582179D01*
X134314479Y-101723600D01*
X134009921Y-101723600D01*
X133868500Y-101582179D01*
X133868500Y-101277621D01*
X134009921Y-101136200D01*
X134314479Y-101136200D01*
X134455900Y-101277621D01*
X134009921Y-105860600D02*
X133868500Y-106002021D01*
X133868500Y-106002021D02*
X133868500Y-106306579D01*
X133868500Y-106306579D02*
X134009921Y-106448000D01*
X134009921Y-106448000D02*
X134314479Y-106448000D01*
X134314479Y-106448000D02*
X134455900Y-106306579D01*
X134455900Y-106306579D02*
X134455900Y-106002021D01*
X134455900Y-106002021D02*
X134314479Y-105860600D01*
X134314479Y-105860600D02*
X134009921Y-105860600D01*
G36*
X134455900Y-106002021D02*
G01*
X134455900Y-106306579D01*
X134314479Y-106448000D01*
X134009921Y-106448000D01*
X133868500Y-106306579D01*
X133868500Y-106002021D01*
X134009921Y-105860600D01*
X134314479Y-105860600D01*
X134455900Y-106002021D01*
G37*
X134455900Y-106002021D02*
X134455900Y-106306579D01*
X134314479Y-106448000D01*
X134009921Y-106448000D01*
X133868500Y-106306579D01*
X133868500Y-106002021D01*
X134009921Y-105860600D01*
X134314479Y-105860600D01*
X134455900Y-106002021D01*
X135443300Y-99867030D02*
X135443300Y-100007379D01*
X135443300Y-100007379D02*
X135584721Y-100148800D01*
X135584721Y-100148800D02*
X135889279Y-100148800D01*
X135889279Y-100148800D02*
X136030700Y-100007379D01*
X136030700Y-100007379D02*
X136030700Y-99867030D01*
X136030700Y-99867030D02*
X135443300Y-99867030D01*
G36*
X136030700Y-100007379D02*
G01*
X135889279Y-100148800D01*
X135584721Y-100148800D01*
X135443300Y-100007379D01*
X135443300Y-99867030D01*
X136030700Y-99867030D01*
X136030700Y-100007379D01*
G37*
X136030700Y-100007379D02*
X135889279Y-100148800D01*
X135584721Y-100148800D01*
X135443300Y-100007379D01*
X135443300Y-99867030D01*
X136030700Y-99867030D01*
X136030700Y-100007379D01*
X137946921Y-105073200D02*
X137805500Y-105214621D01*
X137805500Y-105214621D02*
X137805500Y-105519179D01*
X137805500Y-105519179D02*
X137946921Y-105660600D01*
X137946921Y-105660600D02*
X138251479Y-105660600D01*
X138251479Y-105660600D02*
X138392900Y-105519179D01*
X138392900Y-105519179D02*
X138392900Y-105214621D01*
X138392900Y-105214621D02*
X138251479Y-105073200D01*
X138251479Y-105073200D02*
X137946921Y-105073200D01*
G36*
X138392900Y-105214621D02*
G01*
X138392900Y-105519179D01*
X138251479Y-105660600D01*
X137946921Y-105660600D01*
X137805500Y-105519179D01*
X137805500Y-105214621D01*
X137946921Y-105073200D01*
X138251479Y-105073200D01*
X138392900Y-105214621D01*
G37*
X138392900Y-105214621D02*
X138392900Y-105519179D01*
X138251479Y-105660600D01*
X137946921Y-105660600D01*
X137805500Y-105519179D01*
X137805500Y-105214621D01*
X137946921Y-105073200D01*
X138251479Y-105073200D01*
X138392900Y-105214621D01*
X137946921Y-105860600D02*
X137805500Y-106002021D01*
X137805500Y-106002021D02*
X137805500Y-106306579D01*
X137805500Y-106306579D02*
X137946921Y-106448000D01*
X137946921Y-106448000D02*
X138251479Y-106448000D01*
X138251479Y-106448000D02*
X138392900Y-106306579D01*
X138392900Y-106306579D02*
X138392900Y-106002021D01*
X138392900Y-106002021D02*
X138251479Y-105860600D01*
X138251479Y-105860600D02*
X137946921Y-105860600D01*
G36*
X138392900Y-106002021D02*
G01*
X138392900Y-106306579D01*
X138251479Y-106448000D01*
X137946921Y-106448000D01*
X137805500Y-106306579D01*
X137805500Y-106002021D01*
X137946921Y-105860600D01*
X138251479Y-105860600D01*
X138392900Y-106002021D01*
G37*
X138392900Y-106002021D02*
X138392900Y-106306579D01*
X138251479Y-106448000D01*
X137946921Y-106448000D01*
X137805500Y-106306579D01*
X137805500Y-106002021D01*
X137946921Y-105860600D01*
X138251479Y-105860600D01*
X138392900Y-106002021D01*
X138592900Y-99867030D02*
X138592900Y-100007379D01*
X138592900Y-100007379D02*
X138734321Y-100148800D01*
X138734321Y-100148800D02*
X139038879Y-100148800D01*
X139038879Y-100148800D02*
X139180300Y-100007379D01*
X139180300Y-100007379D02*
X139180300Y-99867030D01*
X139180300Y-99867030D02*
X138592900Y-99867030D01*
G36*
X139180300Y-100007379D02*
G01*
X139038879Y-100148800D01*
X138734321Y-100148800D01*
X138592900Y-100007379D01*
X138592900Y-99867030D01*
X139180300Y-99867030D01*
X139180300Y-100007379D01*
G37*
X139180300Y-100007379D02*
X139038879Y-100148800D01*
X138734321Y-100148800D01*
X138592900Y-100007379D01*
X138592900Y-99867030D01*
X139180300Y-99867030D01*
X139180300Y-100007379D01*
X134797321Y-105073200D02*
X134655900Y-105214621D01*
X134655900Y-105214621D02*
X134655900Y-105519179D01*
X134655900Y-105519179D02*
X134797321Y-105660600D01*
X134797321Y-105660600D02*
X135101879Y-105660600D01*
X135101879Y-105660600D02*
X135243300Y-105519179D01*
X135243300Y-105519179D02*
X135243300Y-105214621D01*
X135243300Y-105214621D02*
X135101879Y-105073200D01*
X135101879Y-105073200D02*
X134797321Y-105073200D01*
G36*
X135243300Y-105214621D02*
G01*
X135243300Y-105519179D01*
X135101879Y-105660600D01*
X134797321Y-105660600D01*
X134655900Y-105519179D01*
X134655900Y-105214621D01*
X134797321Y-105073200D01*
X135101879Y-105073200D01*
X135243300Y-105214621D01*
G37*
X135243300Y-105214621D02*
X135243300Y-105519179D01*
X135101879Y-105660600D01*
X134797321Y-105660600D01*
X134655900Y-105519179D01*
X134655900Y-105214621D01*
X134797321Y-105073200D01*
X135101879Y-105073200D01*
X135243300Y-105214621D01*
X133222521Y-100348800D02*
X133081100Y-100490221D01*
X133081100Y-100490221D02*
X133081100Y-100794779D01*
X133081100Y-100794779D02*
X133222521Y-100936200D01*
X133222521Y-100936200D02*
X133527079Y-100936200D01*
X133527079Y-100936200D02*
X133668500Y-100794779D01*
X133668500Y-100794779D02*
X133668500Y-100490221D01*
X133668500Y-100490221D02*
X133527079Y-100348800D01*
X133527079Y-100348800D02*
X133222521Y-100348800D01*
G36*
X133668500Y-100490221D02*
G01*
X133668500Y-100794779D01*
X133527079Y-100936200D01*
X133222521Y-100936200D01*
X133081100Y-100794779D01*
X133081100Y-100490221D01*
X133222521Y-100348800D01*
X133527079Y-100348800D01*
X133668500Y-100490221D01*
G37*
X133668500Y-100490221D02*
X133668500Y-100794779D01*
X133527079Y-100936200D01*
X133222521Y-100936200D01*
X133081100Y-100794779D01*
X133081100Y-100490221D01*
X133222521Y-100348800D01*
X133527079Y-100348800D01*
X133668500Y-100490221D01*
X136372121Y-104285800D02*
X136230700Y-104427221D01*
X136230700Y-104427221D02*
X136230700Y-104731779D01*
X136230700Y-104731779D02*
X136372121Y-104873200D01*
X136372121Y-104873200D02*
X136676679Y-104873200D01*
X136676679Y-104873200D02*
X136818100Y-104731779D01*
X136818100Y-104731779D02*
X136818100Y-104427221D01*
X136818100Y-104427221D02*
X136676679Y-104285800D01*
X136676679Y-104285800D02*
X136372121Y-104285800D01*
G36*
X136818100Y-104427221D02*
G01*
X136818100Y-104731779D01*
X136676679Y-104873200D01*
X136372121Y-104873200D01*
X136230700Y-104731779D01*
X136230700Y-104427221D01*
X136372121Y-104285800D01*
X136676679Y-104285800D01*
X136818100Y-104427221D01*
G37*
X136818100Y-104427221D02*
X136818100Y-104731779D01*
X136676679Y-104873200D01*
X136372121Y-104873200D01*
X136230700Y-104731779D01*
X136230700Y-104427221D01*
X136372121Y-104285800D01*
X136676679Y-104285800D01*
X136818100Y-104427221D01*
X134797321Y-105860600D02*
X134655900Y-106002021D01*
X134655900Y-106002021D02*
X134655900Y-106306579D01*
X134655900Y-106306579D02*
X134797321Y-106448000D01*
X134797321Y-106448000D02*
X135101879Y-106448000D01*
X135101879Y-106448000D02*
X135243300Y-106306579D01*
X135243300Y-106306579D02*
X135243300Y-106002021D01*
X135243300Y-106002021D02*
X135101879Y-105860600D01*
X135101879Y-105860600D02*
X134797321Y-105860600D01*
G36*
X135243300Y-106002021D02*
G01*
X135243300Y-106306579D01*
X135101879Y-106448000D01*
X134797321Y-106448000D01*
X134655900Y-106306579D01*
X134655900Y-106002021D01*
X134797321Y-105860600D01*
X135101879Y-105860600D01*
X135243300Y-106002021D01*
G37*
X135243300Y-106002021D02*
X135243300Y-106306579D01*
X135101879Y-106448000D01*
X134797321Y-106448000D01*
X134655900Y-106306579D01*
X134655900Y-106002021D01*
X134797321Y-105860600D01*
X135101879Y-105860600D01*
X135243300Y-106002021D01*
X131811930Y-101136200D02*
X131811930Y-101723600D01*
X131811930Y-101723600D02*
X131952279Y-101723600D01*
X131952279Y-101723600D02*
X132093700Y-101582179D01*
X132093700Y-101582179D02*
X132093700Y-101277621D01*
X132093700Y-101277621D02*
X131952279Y-101136200D01*
X131952279Y-101136200D02*
X131811930Y-101136200D01*
G36*
X132093700Y-101277621D02*
G01*
X132093700Y-101582179D01*
X131952279Y-101723600D01*
X131811930Y-101723600D01*
X131811930Y-101136200D01*
X131952279Y-101136200D01*
X132093700Y-101277621D01*
G37*
X132093700Y-101277621D02*
X132093700Y-101582179D01*
X131952279Y-101723600D01*
X131811930Y-101723600D01*
X131811930Y-101136200D01*
X131952279Y-101136200D01*
X132093700Y-101277621D01*
X131811930Y-105073200D02*
X131811930Y-105660600D01*
X131811930Y-105660600D02*
X131952279Y-105660600D01*
X131952279Y-105660600D02*
X132093700Y-105519179D01*
X132093700Y-105519179D02*
X132093700Y-105214621D01*
X132093700Y-105214621D02*
X131952279Y-105073200D01*
X131952279Y-105073200D02*
X131811930Y-105073200D01*
G36*
X132093700Y-105214621D02*
G01*
X132093700Y-105519179D01*
X131952279Y-105660600D01*
X131811930Y-105660600D01*
X131811930Y-105073200D01*
X131952279Y-105073200D01*
X132093700Y-105214621D01*
G37*
X132093700Y-105214621D02*
X132093700Y-105519179D01*
X131952279Y-105660600D01*
X131811930Y-105660600D01*
X131811930Y-105073200D01*
X131952279Y-105073200D01*
X132093700Y-105214621D01*
X138734321Y-104285800D02*
X138592900Y-104427221D01*
X138592900Y-104427221D02*
X138592900Y-104731779D01*
X138592900Y-104731779D02*
X138734321Y-104873200D01*
X138734321Y-104873200D02*
X139038879Y-104873200D01*
X139038879Y-104873200D02*
X139180300Y-104731779D01*
X139180300Y-104731779D02*
X139180300Y-104427221D01*
X139180300Y-104427221D02*
X139038879Y-104285800D01*
X139038879Y-104285800D02*
X138734321Y-104285800D01*
G36*
X139180300Y-104427221D02*
G01*
X139180300Y-104731779D01*
X139038879Y-104873200D01*
X138734321Y-104873200D01*
X138592900Y-104731779D01*
X138592900Y-104427221D01*
X138734321Y-104285800D01*
X139038879Y-104285800D01*
X139180300Y-104427221D01*
G37*
X139180300Y-104427221D02*
X139180300Y-104731779D01*
X139038879Y-104873200D01*
X138734321Y-104873200D01*
X138592900Y-104731779D01*
X138592900Y-104427221D01*
X138734321Y-104285800D01*
X139038879Y-104285800D01*
X139180300Y-104427221D01*
X134009921Y-103498400D02*
X133868500Y-103639821D01*
X133868500Y-103639821D02*
X133868500Y-103944379D01*
X133868500Y-103944379D02*
X134009921Y-104085800D01*
X134009921Y-104085800D02*
X134314479Y-104085800D01*
X134314479Y-104085800D02*
X134455900Y-103944379D01*
X134455900Y-103944379D02*
X134455900Y-103639821D01*
X134455900Y-103639821D02*
X134314479Y-103498400D01*
X134314479Y-103498400D02*
X134009921Y-103498400D01*
G36*
X134455900Y-103639821D02*
G01*
X134455900Y-103944379D01*
X134314479Y-104085800D01*
X134009921Y-104085800D01*
X133868500Y-103944379D01*
X133868500Y-103639821D01*
X134009921Y-103498400D01*
X134314479Y-103498400D01*
X134455900Y-103639821D01*
G37*
X134455900Y-103639821D02*
X134455900Y-103944379D01*
X134314479Y-104085800D01*
X134009921Y-104085800D01*
X133868500Y-103944379D01*
X133868500Y-103639821D01*
X134009921Y-103498400D01*
X134314479Y-103498400D01*
X134455900Y-103639821D01*
X135584721Y-106648000D02*
X135443300Y-106789421D01*
X135443300Y-106789421D02*
X135443300Y-107093979D01*
X135443300Y-107093979D02*
X135584721Y-107235400D01*
X135584721Y-107235400D02*
X135889279Y-107235400D01*
X135889279Y-107235400D02*
X136030700Y-107093979D01*
X136030700Y-107093979D02*
X136030700Y-106789421D01*
X136030700Y-106789421D02*
X135889279Y-106648000D01*
X135889279Y-106648000D02*
X135584721Y-106648000D01*
G36*
X136030700Y-106789421D02*
G01*
X136030700Y-107093979D01*
X135889279Y-107235400D01*
X135584721Y-107235400D01*
X135443300Y-107093979D01*
X135443300Y-106789421D01*
X135584721Y-106648000D01*
X135889279Y-106648000D01*
X136030700Y-106789421D01*
G37*
X136030700Y-106789421D02*
X136030700Y-107093979D01*
X135889279Y-107235400D01*
X135584721Y-107235400D01*
X135443300Y-107093979D01*
X135443300Y-106789421D01*
X135584721Y-106648000D01*
X135889279Y-106648000D01*
X136030700Y-106789421D01*
X139521721Y-101136200D02*
X139380300Y-101277621D01*
X139380300Y-101277621D02*
X139380300Y-101582179D01*
X139380300Y-101582179D02*
X139521721Y-101723600D01*
X139521721Y-101723600D02*
X139662070Y-101723600D01*
X139662070Y-101723600D02*
X139662070Y-101136200D01*
X139662070Y-101136200D02*
X139521721Y-101136200D01*
G36*
X139662070Y-101723600D02*
G01*
X139521721Y-101723600D01*
X139380300Y-101582179D01*
X139380300Y-101277621D01*
X139521721Y-101136200D01*
X139662070Y-101136200D01*
X139662070Y-101723600D01*
G37*
X139662070Y-101723600D02*
X139521721Y-101723600D01*
X139380300Y-101582179D01*
X139380300Y-101277621D01*
X139521721Y-101136200D01*
X139662070Y-101136200D01*
X139662070Y-101723600D01*
X137946921Y-106648000D02*
X137805500Y-106789421D01*
X137805500Y-106789421D02*
X137805500Y-107093979D01*
X137805500Y-107093979D02*
X137946921Y-107235400D01*
X137946921Y-107235400D02*
X138251479Y-107235400D01*
X138251479Y-107235400D02*
X138392900Y-107093979D01*
X138392900Y-107093979D02*
X138392900Y-106789421D01*
X138392900Y-106789421D02*
X138251479Y-106648000D01*
X138251479Y-106648000D02*
X137946921Y-106648000D01*
G36*
X138392900Y-106789421D02*
G01*
X138392900Y-107093979D01*
X138251479Y-107235400D01*
X137946921Y-107235400D01*
X137805500Y-107093979D01*
X137805500Y-106789421D01*
X137946921Y-106648000D01*
X138251479Y-106648000D01*
X138392900Y-106789421D01*
G37*
X138392900Y-106789421D02*
X138392900Y-107093979D01*
X138251479Y-107235400D01*
X137946921Y-107235400D01*
X137805500Y-107093979D01*
X137805500Y-106789421D01*
X137946921Y-106648000D01*
X138251479Y-106648000D01*
X138392900Y-106789421D01*
X131811930Y-100348800D02*
X131811930Y-100936200D01*
X131811930Y-100936200D02*
X131952279Y-100936200D01*
X131952279Y-100936200D02*
X132093700Y-100794779D01*
X132093700Y-100794779D02*
X132093700Y-100490221D01*
X132093700Y-100490221D02*
X131952279Y-100348800D01*
X131952279Y-100348800D02*
X131811930Y-100348800D01*
G36*
X132093700Y-100490221D02*
G01*
X132093700Y-100794779D01*
X131952279Y-100936200D01*
X131811930Y-100936200D01*
X131811930Y-100348800D01*
X131952279Y-100348800D01*
X132093700Y-100490221D01*
G37*
X132093700Y-100490221D02*
X132093700Y-100794779D01*
X131952279Y-100936200D01*
X131811930Y-100936200D01*
X131811930Y-100348800D01*
X131952279Y-100348800D01*
X132093700Y-100490221D01*
X134009921Y-100348800D02*
X133868500Y-100490221D01*
X133868500Y-100490221D02*
X133868500Y-100794779D01*
X133868500Y-100794779D02*
X134009921Y-100936200D01*
X134009921Y-100936200D02*
X134314479Y-100936200D01*
X134314479Y-100936200D02*
X134455900Y-100794779D01*
X134455900Y-100794779D02*
X134455900Y-100490221D01*
X134455900Y-100490221D02*
X134314479Y-100348800D01*
X134314479Y-100348800D02*
X134009921Y-100348800D01*
G36*
X134455900Y-100490221D02*
G01*
X134455900Y-100794779D01*
X134314479Y-100936200D01*
X134009921Y-100936200D01*
X133868500Y-100794779D01*
X133868500Y-100490221D01*
X134009921Y-100348800D01*
X134314479Y-100348800D01*
X134455900Y-100490221D01*
G37*
X134455900Y-100490221D02*
X134455900Y-100794779D01*
X134314479Y-100936200D01*
X134009921Y-100936200D01*
X133868500Y-100794779D01*
X133868500Y-100490221D01*
X134009921Y-100348800D01*
X134314479Y-100348800D01*
X134455900Y-100490221D01*
X134797321Y-103498400D02*
X134655900Y-103639821D01*
X134655900Y-103639821D02*
X134655900Y-103944379D01*
X134655900Y-103944379D02*
X134797321Y-104085800D01*
X134797321Y-104085800D02*
X135101879Y-104085800D01*
X135101879Y-104085800D02*
X135243300Y-103944379D01*
X135243300Y-103944379D02*
X135243300Y-103639821D01*
X135243300Y-103639821D02*
X135101879Y-103498400D01*
X135101879Y-103498400D02*
X134797321Y-103498400D01*
G36*
X135243300Y-103639821D02*
G01*
X135243300Y-103944379D01*
X135101879Y-104085800D01*
X134797321Y-104085800D01*
X134655900Y-103944379D01*
X134655900Y-103639821D01*
X134797321Y-103498400D01*
X135101879Y-103498400D01*
X135243300Y-103639821D01*
G37*
X135243300Y-103639821D02*
X135243300Y-103944379D01*
X135101879Y-104085800D01*
X134797321Y-104085800D01*
X134655900Y-103944379D01*
X134655900Y-103639821D01*
X134797321Y-103498400D01*
X135101879Y-103498400D01*
X135243300Y-103639821D01*
X139521721Y-105860600D02*
X139380300Y-106002021D01*
X139380300Y-106002021D02*
X139380300Y-106306579D01*
X139380300Y-106306579D02*
X139521721Y-106448000D01*
X139521721Y-106448000D02*
X139662070Y-106448000D01*
X139662070Y-106448000D02*
X139662070Y-105860600D01*
X139662070Y-105860600D02*
X139521721Y-105860600D01*
G36*
X139662070Y-106448000D02*
G01*
X139521721Y-106448000D01*
X139380300Y-106306579D01*
X139380300Y-106002021D01*
X139521721Y-105860600D01*
X139662070Y-105860600D01*
X139662070Y-106448000D01*
G37*
X139662070Y-106448000D02*
X139521721Y-106448000D01*
X139380300Y-106306579D01*
X139380300Y-106002021D01*
X139521721Y-105860600D01*
X139662070Y-105860600D01*
X139662070Y-106448000D01*
X132293700Y-99867030D02*
X132293700Y-100007379D01*
X132293700Y-100007379D02*
X132435121Y-100148800D01*
X132435121Y-100148800D02*
X132739679Y-100148800D01*
X132739679Y-100148800D02*
X132881100Y-100007379D01*
X132881100Y-100007379D02*
X132881100Y-99867030D01*
X132881100Y-99867030D02*
X132293700Y-99867030D01*
G36*
X132881100Y-100007379D02*
G01*
X132739679Y-100148800D01*
X132435121Y-100148800D01*
X132293700Y-100007379D01*
X132293700Y-99867030D01*
X132881100Y-99867030D01*
X132881100Y-100007379D01*
G37*
X132881100Y-100007379D02*
X132739679Y-100148800D01*
X132435121Y-100148800D01*
X132293700Y-100007379D01*
X132293700Y-99867030D01*
X132881100Y-99867030D01*
X132881100Y-100007379D01*
X137159521Y-102711000D02*
X137018100Y-102852421D01*
X137018100Y-102852421D02*
X137018100Y-103156979D01*
X137018100Y-103156979D02*
X137159521Y-103298400D01*
X137159521Y-103298400D02*
X137464079Y-103298400D01*
X137464079Y-103298400D02*
X137605500Y-103156979D01*
X137605500Y-103156979D02*
X137605500Y-102852421D01*
X137605500Y-102852421D02*
X137464079Y-102711000D01*
X137464079Y-102711000D02*
X137159521Y-102711000D01*
G36*
X137605500Y-102852421D02*
G01*
X137605500Y-103156979D01*
X137464079Y-103298400D01*
X137159521Y-103298400D01*
X137018100Y-103156979D01*
X137018100Y-102852421D01*
X137159521Y-102711000D01*
X137464079Y-102711000D01*
X137605500Y-102852421D01*
G37*
X137605500Y-102852421D02*
X137605500Y-103156979D01*
X137464079Y-103298400D01*
X137159521Y-103298400D01*
X137018100Y-103156979D01*
X137018100Y-102852421D01*
X137159521Y-102711000D01*
X137464079Y-102711000D01*
X137605500Y-102852421D01*
X137159521Y-103498400D02*
X137018100Y-103639821D01*
X137018100Y-103639821D02*
X137018100Y-103944379D01*
X137018100Y-103944379D02*
X137159521Y-104085800D01*
X137159521Y-104085800D02*
X137464079Y-104085800D01*
X137464079Y-104085800D02*
X137605500Y-103944379D01*
X137605500Y-103944379D02*
X137605500Y-103639821D01*
X137605500Y-103639821D02*
X137464079Y-103498400D01*
X137464079Y-103498400D02*
X137159521Y-103498400D01*
G36*
X137605500Y-103639821D02*
G01*
X137605500Y-103944379D01*
X137464079Y-104085800D01*
X137159521Y-104085800D01*
X137018100Y-103944379D01*
X137018100Y-103639821D01*
X137159521Y-103498400D01*
X137464079Y-103498400D01*
X137605500Y-103639821D01*
G37*
X137605500Y-103639821D02*
X137605500Y-103944379D01*
X137464079Y-104085800D01*
X137159521Y-104085800D01*
X137018100Y-103944379D01*
X137018100Y-103639821D01*
X137159521Y-103498400D01*
X137464079Y-103498400D01*
X137605500Y-103639821D01*
X137946921Y-102711000D02*
X137805500Y-102852421D01*
X137805500Y-102852421D02*
X137805500Y-103156979D01*
X137805500Y-103156979D02*
X137946921Y-103298400D01*
X137946921Y-103298400D02*
X138251479Y-103298400D01*
X138251479Y-103298400D02*
X138392900Y-103156979D01*
X138392900Y-103156979D02*
X138392900Y-102852421D01*
X138392900Y-102852421D02*
X138251479Y-102711000D01*
X138251479Y-102711000D02*
X137946921Y-102711000D01*
G36*
X138392900Y-102852421D02*
G01*
X138392900Y-103156979D01*
X138251479Y-103298400D01*
X137946921Y-103298400D01*
X137805500Y-103156979D01*
X137805500Y-102852421D01*
X137946921Y-102711000D01*
X138251479Y-102711000D01*
X138392900Y-102852421D01*
G37*
X138392900Y-102852421D02*
X138392900Y-103156979D01*
X138251479Y-103298400D01*
X137946921Y-103298400D01*
X137805500Y-103156979D01*
X137805500Y-102852421D01*
X137946921Y-102711000D01*
X138251479Y-102711000D01*
X138392900Y-102852421D01*
X134009921Y-102711000D02*
X133868500Y-102852421D01*
X133868500Y-102852421D02*
X133868500Y-103156979D01*
X133868500Y-103156979D02*
X134009921Y-103298400D01*
X134009921Y-103298400D02*
X134314479Y-103298400D01*
X134314479Y-103298400D02*
X134455900Y-103156979D01*
X134455900Y-103156979D02*
X134455900Y-102852421D01*
X134455900Y-102852421D02*
X134314479Y-102711000D01*
X134314479Y-102711000D02*
X134009921Y-102711000D01*
G36*
X134455900Y-102852421D02*
G01*
X134455900Y-103156979D01*
X134314479Y-103298400D01*
X134009921Y-103298400D01*
X133868500Y-103156979D01*
X133868500Y-102852421D01*
X134009921Y-102711000D01*
X134314479Y-102711000D01*
X134455900Y-102852421D01*
G37*
X134455900Y-102852421D02*
X134455900Y-103156979D01*
X134314479Y-103298400D01*
X134009921Y-103298400D01*
X133868500Y-103156979D01*
X133868500Y-102852421D01*
X134009921Y-102711000D01*
X134314479Y-102711000D01*
X134455900Y-102852421D01*
X136372121Y-102711000D02*
X136230700Y-102852421D01*
X136230700Y-102852421D02*
X136230700Y-103156979D01*
X136230700Y-103156979D02*
X136372121Y-103298400D01*
X136372121Y-103298400D02*
X136676679Y-103298400D01*
X136676679Y-103298400D02*
X136818100Y-103156979D01*
X136818100Y-103156979D02*
X136818100Y-102852421D01*
X136818100Y-102852421D02*
X136676679Y-102711000D01*
X136676679Y-102711000D02*
X136372121Y-102711000D01*
G36*
X136818100Y-102852421D02*
G01*
X136818100Y-103156979D01*
X136676679Y-103298400D01*
X136372121Y-103298400D01*
X136230700Y-103156979D01*
X136230700Y-102852421D01*
X136372121Y-102711000D01*
X136676679Y-102711000D01*
X136818100Y-102852421D01*
G37*
X136818100Y-102852421D02*
X136818100Y-103156979D01*
X136676679Y-103298400D01*
X136372121Y-103298400D01*
X136230700Y-103156979D01*
X136230700Y-102852421D01*
X136372121Y-102711000D01*
X136676679Y-102711000D01*
X136818100Y-102852421D01*
X133222521Y-101923600D02*
X133081100Y-102065021D01*
X133081100Y-102065021D02*
X133081100Y-102369579D01*
X133081100Y-102369579D02*
X133222521Y-102511000D01*
X133222521Y-102511000D02*
X133527079Y-102511000D01*
X133527079Y-102511000D02*
X133668500Y-102369579D01*
X133668500Y-102369579D02*
X133668500Y-102065021D01*
X133668500Y-102065021D02*
X133527079Y-101923600D01*
X133527079Y-101923600D02*
X133222521Y-101923600D01*
G36*
X133668500Y-102065021D02*
G01*
X133668500Y-102369579D01*
X133527079Y-102511000D01*
X133222521Y-102511000D01*
X133081100Y-102369579D01*
X133081100Y-102065021D01*
X133222521Y-101923600D01*
X133527079Y-101923600D01*
X133668500Y-102065021D01*
G37*
X133668500Y-102065021D02*
X133668500Y-102369579D01*
X133527079Y-102511000D01*
X133222521Y-102511000D01*
X133081100Y-102369579D01*
X133081100Y-102065021D01*
X133222521Y-101923600D01*
X133527079Y-101923600D01*
X133668500Y-102065021D01*
X131811930Y-99867030D02*
X131811930Y-100148800D01*
X131811930Y-100148800D02*
X131952279Y-100148800D01*
X131952279Y-100148800D02*
X132093700Y-100007379D01*
X132093700Y-100007379D02*
X132093700Y-99867030D01*
X132093700Y-99867030D02*
X131811930Y-99867030D01*
G36*
X132093700Y-100007379D02*
G01*
X131952279Y-100148800D01*
X131811930Y-100148800D01*
X131811930Y-99867030D01*
X132093700Y-99867030D01*
X132093700Y-100007379D01*
G37*
X132093700Y-100007379D02*
X131952279Y-100148800D01*
X131811930Y-100148800D01*
X131811930Y-99867030D01*
X132093700Y-99867030D01*
X132093700Y-100007379D01*
X136372121Y-107435400D02*
X136230700Y-107576821D01*
X136230700Y-107576821D02*
X136230700Y-107717170D01*
X136230700Y-107717170D02*
X136818100Y-107717170D01*
X136818100Y-107717170D02*
X136818100Y-107576821D01*
X136818100Y-107576821D02*
X136676679Y-107435400D01*
X136676679Y-107435400D02*
X136372121Y-107435400D01*
G36*
X136818100Y-107576821D02*
G01*
X136818100Y-107717170D01*
X136230700Y-107717170D01*
X136230700Y-107576821D01*
X136372121Y-107435400D01*
X136676679Y-107435400D01*
X136818100Y-107576821D01*
G37*
X136818100Y-107576821D02*
X136818100Y-107717170D01*
X136230700Y-107717170D01*
X136230700Y-107576821D01*
X136372121Y-107435400D01*
X136676679Y-107435400D01*
X136818100Y-107576821D01*
X134797321Y-101136200D02*
X134655900Y-101277621D01*
X134655900Y-101277621D02*
X134655900Y-101582179D01*
X134655900Y-101582179D02*
X134797321Y-101723600D01*
X134797321Y-101723600D02*
X135101879Y-101723600D01*
X135101879Y-101723600D02*
X135243300Y-101582179D01*
X135243300Y-101582179D02*
X135243300Y-101277621D01*
X135243300Y-101277621D02*
X135101879Y-101136200D01*
X135101879Y-101136200D02*
X134797321Y-101136200D01*
G36*
X135243300Y-101277621D02*
G01*
X135243300Y-101582179D01*
X135101879Y-101723600D01*
X134797321Y-101723600D01*
X134655900Y-101582179D01*
X134655900Y-101277621D01*
X134797321Y-101136200D01*
X135101879Y-101136200D01*
X135243300Y-101277621D01*
G37*
X135243300Y-101277621D02*
X135243300Y-101582179D01*
X135101879Y-101723600D01*
X134797321Y-101723600D01*
X134655900Y-101582179D01*
X134655900Y-101277621D01*
X134797321Y-101136200D01*
X135101879Y-101136200D01*
X135243300Y-101277621D01*
X135584721Y-101923600D02*
X135443300Y-102065021D01*
X135443300Y-102065021D02*
X135443300Y-102369579D01*
X135443300Y-102369579D02*
X135584721Y-102511000D01*
X135584721Y-102511000D02*
X135889279Y-102511000D01*
X135889279Y-102511000D02*
X136030700Y-102369579D01*
X136030700Y-102369579D02*
X136030700Y-102065021D01*
X136030700Y-102065021D02*
X135889279Y-101923600D01*
X135889279Y-101923600D02*
X135584721Y-101923600D01*
G36*
X136030700Y-102065021D02*
G01*
X136030700Y-102369579D01*
X135889279Y-102511000D01*
X135584721Y-102511000D01*
X135443300Y-102369579D01*
X135443300Y-102065021D01*
X135584721Y-101923600D01*
X135889279Y-101923600D01*
X136030700Y-102065021D01*
G37*
X136030700Y-102065021D02*
X136030700Y-102369579D01*
X135889279Y-102511000D01*
X135584721Y-102511000D01*
X135443300Y-102369579D01*
X135443300Y-102065021D01*
X135584721Y-101923600D01*
X135889279Y-101923600D01*
X136030700Y-102065021D01*
X132435121Y-105860600D02*
X132293700Y-106002021D01*
X132293700Y-106002021D02*
X132293700Y-106306579D01*
X132293700Y-106306579D02*
X132435121Y-106448000D01*
X132435121Y-106448000D02*
X132739679Y-106448000D01*
X132739679Y-106448000D02*
X132881100Y-106306579D01*
X132881100Y-106306579D02*
X132881100Y-106002021D01*
X132881100Y-106002021D02*
X132739679Y-105860600D01*
X132739679Y-105860600D02*
X132435121Y-105860600D01*
G36*
X132881100Y-106002021D02*
G01*
X132881100Y-106306579D01*
X132739679Y-106448000D01*
X132435121Y-106448000D01*
X132293700Y-106306579D01*
X132293700Y-106002021D01*
X132435121Y-105860600D01*
X132739679Y-105860600D01*
X132881100Y-106002021D01*
G37*
X132881100Y-106002021D02*
X132881100Y-106306579D01*
X132739679Y-106448000D01*
X132435121Y-106448000D01*
X132293700Y-106306579D01*
X132293700Y-106002021D01*
X132435121Y-105860600D01*
X132739679Y-105860600D01*
X132881100Y-106002021D01*
X139521721Y-106648000D02*
X139380300Y-106789421D01*
X139380300Y-106789421D02*
X139380300Y-107093979D01*
X139380300Y-107093979D02*
X139521721Y-107235400D01*
X139521721Y-107235400D02*
X139662070Y-107235400D01*
X139662070Y-107235400D02*
X139662070Y-106648000D01*
X139662070Y-106648000D02*
X139521721Y-106648000D01*
G36*
X139662070Y-107235400D02*
G01*
X139521721Y-107235400D01*
X139380300Y-107093979D01*
X139380300Y-106789421D01*
X139521721Y-106648000D01*
X139662070Y-106648000D01*
X139662070Y-107235400D01*
G37*
X139662070Y-107235400D02*
X139521721Y-107235400D01*
X139380300Y-107093979D01*
X139380300Y-106789421D01*
X139521721Y-106648000D01*
X139662070Y-106648000D01*
X139662070Y-107235400D01*
X137946921Y-100348800D02*
X137805500Y-100490221D01*
X137805500Y-100490221D02*
X137805500Y-100794779D01*
X137805500Y-100794779D02*
X137946921Y-100936200D01*
X137946921Y-100936200D02*
X138251479Y-100936200D01*
X138251479Y-100936200D02*
X138392900Y-100794779D01*
X138392900Y-100794779D02*
X138392900Y-100490221D01*
X138392900Y-100490221D02*
X138251479Y-100348800D01*
X138251479Y-100348800D02*
X137946921Y-100348800D01*
G36*
X138392900Y-100490221D02*
G01*
X138392900Y-100794779D01*
X138251479Y-100936200D01*
X137946921Y-100936200D01*
X137805500Y-100794779D01*
X137805500Y-100490221D01*
X137946921Y-100348800D01*
X138251479Y-100348800D01*
X138392900Y-100490221D01*
G37*
X138392900Y-100490221D02*
X138392900Y-100794779D01*
X138251479Y-100936200D01*
X137946921Y-100936200D01*
X137805500Y-100794779D01*
X137805500Y-100490221D01*
X137946921Y-100348800D01*
X138251479Y-100348800D01*
X138392900Y-100490221D01*
X138734321Y-100348800D02*
X138592900Y-100490221D01*
X138592900Y-100490221D02*
X138592900Y-100794779D01*
X138592900Y-100794779D02*
X138734321Y-100936200D01*
X138734321Y-100936200D02*
X139038879Y-100936200D01*
X139038879Y-100936200D02*
X139180300Y-100794779D01*
X139180300Y-100794779D02*
X139180300Y-100490221D01*
X139180300Y-100490221D02*
X139038879Y-100348800D01*
X139038879Y-100348800D02*
X138734321Y-100348800D01*
G36*
X139180300Y-100490221D02*
G01*
X139180300Y-100794779D01*
X139038879Y-100936200D01*
X138734321Y-100936200D01*
X138592900Y-100794779D01*
X138592900Y-100490221D01*
X138734321Y-100348800D01*
X139038879Y-100348800D01*
X139180300Y-100490221D01*
G37*
X139180300Y-100490221D02*
X139180300Y-100794779D01*
X139038879Y-100936200D01*
X138734321Y-100936200D01*
X138592900Y-100794779D01*
X138592900Y-100490221D01*
X138734321Y-100348800D01*
X139038879Y-100348800D01*
X139180300Y-100490221D01*
X135584721Y-107435400D02*
X135443300Y-107576821D01*
X135443300Y-107576821D02*
X135443300Y-107717170D01*
X135443300Y-107717170D02*
X136030700Y-107717170D01*
X136030700Y-107717170D02*
X136030700Y-107576821D01*
X136030700Y-107576821D02*
X135889279Y-107435400D01*
X135889279Y-107435400D02*
X135584721Y-107435400D01*
G36*
X136030700Y-107576821D02*
G01*
X136030700Y-107717170D01*
X135443300Y-107717170D01*
X135443300Y-107576821D01*
X135584721Y-107435400D01*
X135889279Y-107435400D01*
X136030700Y-107576821D01*
G37*
X136030700Y-107576821D02*
X136030700Y-107717170D01*
X135443300Y-107717170D01*
X135443300Y-107576821D01*
X135584721Y-107435400D01*
X135889279Y-107435400D01*
X136030700Y-107576821D01*
X137159521Y-101923600D02*
X137018100Y-102065021D01*
X137018100Y-102065021D02*
X137018100Y-102369579D01*
X137018100Y-102369579D02*
X137159521Y-102511000D01*
X137159521Y-102511000D02*
X137464079Y-102511000D01*
X137464079Y-102511000D02*
X137605500Y-102369579D01*
X137605500Y-102369579D02*
X137605500Y-102065021D01*
X137605500Y-102065021D02*
X137464079Y-101923600D01*
X137464079Y-101923600D02*
X137159521Y-101923600D01*
G36*
X137605500Y-102065021D02*
G01*
X137605500Y-102369579D01*
X137464079Y-102511000D01*
X137159521Y-102511000D01*
X137018100Y-102369579D01*
X137018100Y-102065021D01*
X137159521Y-101923600D01*
X137464079Y-101923600D01*
X137605500Y-102065021D01*
G37*
X137605500Y-102065021D02*
X137605500Y-102369579D01*
X137464079Y-102511000D01*
X137159521Y-102511000D01*
X137018100Y-102369579D01*
X137018100Y-102065021D01*
X137159521Y-101923600D01*
X137464079Y-101923600D01*
X137605500Y-102065021D01*
X137159521Y-105860600D02*
X137018100Y-106002021D01*
X137018100Y-106002021D02*
X137018100Y-106306579D01*
X137018100Y-106306579D02*
X137159521Y-106448000D01*
X137159521Y-106448000D02*
X137464079Y-106448000D01*
X137464079Y-106448000D02*
X137605500Y-106306579D01*
X137605500Y-106306579D02*
X137605500Y-106002021D01*
X137605500Y-106002021D02*
X137464079Y-105860600D01*
X137464079Y-105860600D02*
X137159521Y-105860600D01*
G36*
X137605500Y-106002021D02*
G01*
X137605500Y-106306579D01*
X137464079Y-106448000D01*
X137159521Y-106448000D01*
X137018100Y-106306579D01*
X137018100Y-106002021D01*
X137159521Y-105860600D01*
X137464079Y-105860600D01*
X137605500Y-106002021D01*
G37*
X137605500Y-106002021D02*
X137605500Y-106306579D01*
X137464079Y-106448000D01*
X137159521Y-106448000D01*
X137018100Y-106306579D01*
X137018100Y-106002021D01*
X137159521Y-105860600D01*
X137464079Y-105860600D01*
X137605500Y-106002021D01*
X138734321Y-105073200D02*
X138592900Y-105214621D01*
X138592900Y-105214621D02*
X138592900Y-105519179D01*
X138592900Y-105519179D02*
X138734321Y-105660600D01*
X138734321Y-105660600D02*
X139038879Y-105660600D01*
X139038879Y-105660600D02*
X139180300Y-105519179D01*
X139180300Y-105519179D02*
X139180300Y-105214621D01*
X139180300Y-105214621D02*
X139038879Y-105073200D01*
X139038879Y-105073200D02*
X138734321Y-105073200D01*
G36*
X139180300Y-105214621D02*
G01*
X139180300Y-105519179D01*
X139038879Y-105660600D01*
X138734321Y-105660600D01*
X138592900Y-105519179D01*
X138592900Y-105214621D01*
X138734321Y-105073200D01*
X139038879Y-105073200D01*
X139180300Y-105214621D01*
G37*
X139180300Y-105214621D02*
X139180300Y-105519179D01*
X139038879Y-105660600D01*
X138734321Y-105660600D01*
X138592900Y-105519179D01*
X138592900Y-105214621D01*
X138734321Y-105073200D01*
X139038879Y-105073200D01*
X139180300Y-105214621D01*
X136372121Y-103498400D02*
X136230700Y-103639821D01*
X136230700Y-103639821D02*
X136230700Y-103944379D01*
X136230700Y-103944379D02*
X136372121Y-104085800D01*
X136372121Y-104085800D02*
X136676679Y-104085800D01*
X136676679Y-104085800D02*
X136818100Y-103944379D01*
X136818100Y-103944379D02*
X136818100Y-103639821D01*
X136818100Y-103639821D02*
X136676679Y-103498400D01*
X136676679Y-103498400D02*
X136372121Y-103498400D01*
G36*
X136818100Y-103639821D02*
G01*
X136818100Y-103944379D01*
X136676679Y-104085800D01*
X136372121Y-104085800D01*
X136230700Y-103944379D01*
X136230700Y-103639821D01*
X136372121Y-103498400D01*
X136676679Y-103498400D01*
X136818100Y-103639821D01*
G37*
X136818100Y-103639821D02*
X136818100Y-103944379D01*
X136676679Y-104085800D01*
X136372121Y-104085800D01*
X136230700Y-103944379D01*
X136230700Y-103639821D01*
X136372121Y-103498400D01*
X136676679Y-103498400D01*
X136818100Y-103639821D01*
X137946921Y-107435400D02*
X137805500Y-107576821D01*
X137805500Y-107576821D02*
X137805500Y-107717170D01*
X137805500Y-107717170D02*
X138392900Y-107717170D01*
X138392900Y-107717170D02*
X138392900Y-107576821D01*
X138392900Y-107576821D02*
X138251479Y-107435400D01*
X138251479Y-107435400D02*
X137946921Y-107435400D01*
G36*
X138392900Y-107576821D02*
G01*
X138392900Y-107717170D01*
X137805500Y-107717170D01*
X137805500Y-107576821D01*
X137946921Y-107435400D01*
X138251479Y-107435400D01*
X138392900Y-107576821D01*
G37*
X138392900Y-107576821D02*
X138392900Y-107717170D01*
X137805500Y-107717170D01*
X137805500Y-107576821D01*
X137946921Y-107435400D01*
X138251479Y-107435400D01*
X138392900Y-107576821D01*
X139521721Y-107435400D02*
X139380300Y-107576821D01*
X139380300Y-107576821D02*
X139380300Y-107717170D01*
X139380300Y-107717170D02*
X139662070Y-107717170D01*
X139662070Y-107717170D02*
X139662070Y-107435400D01*
X139662070Y-107435400D02*
X139521721Y-107435400D01*
G36*
X139662070Y-107717170D02*
G01*
X139380300Y-107717170D01*
X139380300Y-107576821D01*
X139521721Y-107435400D01*
X139662070Y-107435400D01*
X139662070Y-107717170D01*
G37*
X139662070Y-107717170D02*
X139380300Y-107717170D01*
X139380300Y-107576821D01*
X139521721Y-107435400D01*
X139662070Y-107435400D01*
X139662070Y-107717170D01*
X136372121Y-100348800D02*
X136230700Y-100490221D01*
X136230700Y-100490221D02*
X136230700Y-100794779D01*
X136230700Y-100794779D02*
X136372121Y-100936200D01*
X136372121Y-100936200D02*
X136676679Y-100936200D01*
X136676679Y-100936200D02*
X136818100Y-100794779D01*
X136818100Y-100794779D02*
X136818100Y-100490221D01*
X136818100Y-100490221D02*
X136676679Y-100348800D01*
X136676679Y-100348800D02*
X136372121Y-100348800D01*
G36*
X136818100Y-100490221D02*
G01*
X136818100Y-100794779D01*
X136676679Y-100936200D01*
X136372121Y-100936200D01*
X136230700Y-100794779D01*
X136230700Y-100490221D01*
X136372121Y-100348800D01*
X136676679Y-100348800D01*
X136818100Y-100490221D01*
G37*
X136818100Y-100490221D02*
X136818100Y-100794779D01*
X136676679Y-100936200D01*
X136372121Y-100936200D01*
X136230700Y-100794779D01*
X136230700Y-100490221D01*
X136372121Y-100348800D01*
X136676679Y-100348800D01*
X136818100Y-100490221D01*
X134009921Y-107435400D02*
X133868500Y-107576821D01*
X133868500Y-107576821D02*
X133868500Y-107717170D01*
X133868500Y-107717170D02*
X134455900Y-107717170D01*
X134455900Y-107717170D02*
X134455900Y-107576821D01*
X134455900Y-107576821D02*
X134314479Y-107435400D01*
X134314479Y-107435400D02*
X134009921Y-107435400D01*
G36*
X134455900Y-107576821D02*
G01*
X134455900Y-107717170D01*
X133868500Y-107717170D01*
X133868500Y-107576821D01*
X134009921Y-107435400D01*
X134314479Y-107435400D01*
X134455900Y-107576821D01*
G37*
X134455900Y-107576821D02*
X134455900Y-107717170D01*
X133868500Y-107717170D01*
X133868500Y-107576821D01*
X134009921Y-107435400D01*
X134314479Y-107435400D01*
X134455900Y-107576821D01*
X137159521Y-105073200D02*
X137018100Y-105214621D01*
X137018100Y-105214621D02*
X137018100Y-105519179D01*
X137018100Y-105519179D02*
X137159521Y-105660600D01*
X137159521Y-105660600D02*
X137464079Y-105660600D01*
X137464079Y-105660600D02*
X137605500Y-105519179D01*
X137605500Y-105519179D02*
X137605500Y-105214621D01*
X137605500Y-105214621D02*
X137464079Y-105073200D01*
X137464079Y-105073200D02*
X137159521Y-105073200D01*
G36*
X137605500Y-105214621D02*
G01*
X137605500Y-105519179D01*
X137464079Y-105660600D01*
X137159521Y-105660600D01*
X137018100Y-105519179D01*
X137018100Y-105214621D01*
X137159521Y-105073200D01*
X137464079Y-105073200D01*
X137605500Y-105214621D01*
G37*
X137605500Y-105214621D02*
X137605500Y-105519179D01*
X137464079Y-105660600D01*
X137159521Y-105660600D01*
X137018100Y-105519179D01*
X137018100Y-105214621D01*
X137159521Y-105073200D01*
X137464079Y-105073200D01*
X137605500Y-105214621D01*
X131811930Y-103498400D02*
X131811930Y-104085800D01*
X131811930Y-104085800D02*
X131952279Y-104085800D01*
X131952279Y-104085800D02*
X132093700Y-103944379D01*
X132093700Y-103944379D02*
X132093700Y-103639821D01*
X132093700Y-103639821D02*
X131952279Y-103498400D01*
X131952279Y-103498400D02*
X131811930Y-103498400D01*
G36*
X132093700Y-103639821D02*
G01*
X132093700Y-103944379D01*
X131952279Y-104085800D01*
X131811930Y-104085800D01*
X131811930Y-103498400D01*
X131952279Y-103498400D01*
X132093700Y-103639821D01*
G37*
X132093700Y-103639821D02*
X132093700Y-103944379D01*
X131952279Y-104085800D01*
X131811930Y-104085800D01*
X131811930Y-103498400D01*
X131952279Y-103498400D01*
X132093700Y-103639821D01*
X131811930Y-104285800D02*
X131811930Y-104873200D01*
X131811930Y-104873200D02*
X131952279Y-104873200D01*
X131952279Y-104873200D02*
X132093700Y-104731779D01*
X132093700Y-104731779D02*
X132093700Y-104427221D01*
X132093700Y-104427221D02*
X131952279Y-104285800D01*
X131952279Y-104285800D02*
X131811930Y-104285800D01*
G36*
X132093700Y-104427221D02*
G01*
X132093700Y-104731779D01*
X131952279Y-104873200D01*
X131811930Y-104873200D01*
X131811930Y-104285800D01*
X131952279Y-104285800D01*
X132093700Y-104427221D01*
G37*
X132093700Y-104427221D02*
X132093700Y-104731779D01*
X131952279Y-104873200D01*
X131811930Y-104873200D01*
X131811930Y-104285800D01*
X131952279Y-104285800D01*
X132093700Y-104427221D01*
X132435121Y-106648000D02*
X132293700Y-106789421D01*
X132293700Y-106789421D02*
X132293700Y-107093979D01*
X132293700Y-107093979D02*
X132435121Y-107235400D01*
X132435121Y-107235400D02*
X132739679Y-107235400D01*
X132739679Y-107235400D02*
X132881100Y-107093979D01*
X132881100Y-107093979D02*
X132881100Y-106789421D01*
X132881100Y-106789421D02*
X132739679Y-106648000D01*
X132739679Y-106648000D02*
X132435121Y-106648000D01*
G36*
X132881100Y-106789421D02*
G01*
X132881100Y-107093979D01*
X132739679Y-107235400D01*
X132435121Y-107235400D01*
X132293700Y-107093979D01*
X132293700Y-106789421D01*
X132435121Y-106648000D01*
X132739679Y-106648000D01*
X132881100Y-106789421D01*
G37*
X132881100Y-106789421D02*
X132881100Y-107093979D01*
X132739679Y-107235400D01*
X132435121Y-107235400D01*
X132293700Y-107093979D01*
X132293700Y-106789421D01*
X132435121Y-106648000D01*
X132739679Y-106648000D01*
X132881100Y-106789421D01*
X135584721Y-105073200D02*
X135443300Y-105214621D01*
X135443300Y-105214621D02*
X135443300Y-105519179D01*
X135443300Y-105519179D02*
X135584721Y-105660600D01*
X135584721Y-105660600D02*
X135889279Y-105660600D01*
X135889279Y-105660600D02*
X136030700Y-105519179D01*
X136030700Y-105519179D02*
X136030700Y-105214621D01*
X136030700Y-105214621D02*
X135889279Y-105073200D01*
X135889279Y-105073200D02*
X135584721Y-105073200D01*
G36*
X136030700Y-105214621D02*
G01*
X136030700Y-105519179D01*
X135889279Y-105660600D01*
X135584721Y-105660600D01*
X135443300Y-105519179D01*
X135443300Y-105214621D01*
X135584721Y-105073200D01*
X135889279Y-105073200D01*
X136030700Y-105214621D01*
G37*
X136030700Y-105214621D02*
X136030700Y-105519179D01*
X135889279Y-105660600D01*
X135584721Y-105660600D01*
X135443300Y-105519179D01*
X135443300Y-105214621D01*
X135584721Y-105073200D01*
X135889279Y-105073200D01*
X136030700Y-105214621D01*
X133222521Y-107435400D02*
X133081100Y-107576821D01*
X133081100Y-107576821D02*
X133081100Y-107717170D01*
X133081100Y-107717170D02*
X133668500Y-107717170D01*
X133668500Y-107717170D02*
X133668500Y-107576821D01*
X133668500Y-107576821D02*
X133527079Y-107435400D01*
X133527079Y-107435400D02*
X133222521Y-107435400D01*
G36*
X133668500Y-107576821D02*
G01*
X133668500Y-107717170D01*
X133081100Y-107717170D01*
X133081100Y-107576821D01*
X133222521Y-107435400D01*
X133527079Y-107435400D01*
X133668500Y-107576821D01*
G37*
X133668500Y-107576821D02*
X133668500Y-107717170D01*
X133081100Y-107717170D01*
X133081100Y-107576821D01*
X133222521Y-107435400D01*
X133527079Y-107435400D01*
X133668500Y-107576821D01*
X133222521Y-101136200D02*
X133081100Y-101277621D01*
X133081100Y-101277621D02*
X133081100Y-101582179D01*
X133081100Y-101582179D02*
X133222521Y-101723600D01*
X133222521Y-101723600D02*
X133527079Y-101723600D01*
X133527079Y-101723600D02*
X133668500Y-101582179D01*
X133668500Y-101582179D02*
X133668500Y-101277621D01*
X133668500Y-101277621D02*
X133527079Y-101136200D01*
X133527079Y-101136200D02*
X133222521Y-101136200D01*
G36*
X133668500Y-101277621D02*
G01*
X133668500Y-101582179D01*
X133527079Y-101723600D01*
X133222521Y-101723600D01*
X133081100Y-101582179D01*
X133081100Y-101277621D01*
X133222521Y-101136200D01*
X133527079Y-101136200D01*
X133668500Y-101277621D01*
G37*
X133668500Y-101277621D02*
X133668500Y-101582179D01*
X133527079Y-101723600D01*
X133222521Y-101723600D01*
X133081100Y-101582179D01*
X133081100Y-101277621D01*
X133222521Y-101136200D01*
X133527079Y-101136200D01*
X133668500Y-101277621D01*
X139521721Y-101923600D02*
X139380300Y-102065021D01*
X139380300Y-102065021D02*
X139380300Y-102369579D01*
X139380300Y-102369579D02*
X139521721Y-102511000D01*
X139521721Y-102511000D02*
X139662070Y-102511000D01*
X139662070Y-102511000D02*
X139662070Y-101923600D01*
X139662070Y-101923600D02*
X139521721Y-101923600D01*
G36*
X139662070Y-102511000D02*
G01*
X139521721Y-102511000D01*
X139380300Y-102369579D01*
X139380300Y-102065021D01*
X139521721Y-101923600D01*
X139662070Y-101923600D01*
X139662070Y-102511000D01*
G37*
X139662070Y-102511000D02*
X139521721Y-102511000D01*
X139380300Y-102369579D01*
X139380300Y-102065021D01*
X139521721Y-101923600D01*
X139662070Y-101923600D01*
X139662070Y-102511000D01*
X133868500Y-99867030D02*
X133868500Y-100007379D01*
X133868500Y-100007379D02*
X134009921Y-100148800D01*
X134009921Y-100148800D02*
X134314479Y-100148800D01*
X134314479Y-100148800D02*
X134455900Y-100007379D01*
X134455900Y-100007379D02*
X134455900Y-99867030D01*
X134455900Y-99867030D02*
X133868500Y-99867030D01*
G36*
X134455900Y-100007379D02*
G01*
X134314479Y-100148800D01*
X134009921Y-100148800D01*
X133868500Y-100007379D01*
X133868500Y-99867030D01*
X134455900Y-99867030D01*
X134455900Y-100007379D01*
G37*
X134455900Y-100007379D02*
X134314479Y-100148800D01*
X134009921Y-100148800D01*
X133868500Y-100007379D01*
X133868500Y-99867030D01*
X134455900Y-99867030D01*
X134455900Y-100007379D01*
X134009921Y-104285800D02*
X133868500Y-104427221D01*
X133868500Y-104427221D02*
X133868500Y-104731779D01*
X133868500Y-104731779D02*
X134009921Y-104873200D01*
X134009921Y-104873200D02*
X134314479Y-104873200D01*
X134314479Y-104873200D02*
X134455900Y-104731779D01*
X134455900Y-104731779D02*
X134455900Y-104427221D01*
X134455900Y-104427221D02*
X134314479Y-104285800D01*
X134314479Y-104285800D02*
X134009921Y-104285800D01*
G36*
X134455900Y-104427221D02*
G01*
X134455900Y-104731779D01*
X134314479Y-104873200D01*
X134009921Y-104873200D01*
X133868500Y-104731779D01*
X133868500Y-104427221D01*
X134009921Y-104285800D01*
X134314479Y-104285800D01*
X134455900Y-104427221D01*
G37*
X134455900Y-104427221D02*
X134455900Y-104731779D01*
X134314479Y-104873200D01*
X134009921Y-104873200D01*
X133868500Y-104731779D01*
X133868500Y-104427221D01*
X134009921Y-104285800D01*
X134314479Y-104285800D01*
X134455900Y-104427221D01*
X134009921Y-105073200D02*
X133868500Y-105214621D01*
X133868500Y-105214621D02*
X133868500Y-105519179D01*
X133868500Y-105519179D02*
X134009921Y-105660600D01*
X134009921Y-105660600D02*
X134314479Y-105660600D01*
X134314479Y-105660600D02*
X134455900Y-105519179D01*
X134455900Y-105519179D02*
X134455900Y-105214621D01*
X134455900Y-105214621D02*
X134314479Y-105073200D01*
X134314479Y-105073200D02*
X134009921Y-105073200D01*
G36*
X134455900Y-105214621D02*
G01*
X134455900Y-105519179D01*
X134314479Y-105660600D01*
X134009921Y-105660600D01*
X133868500Y-105519179D01*
X133868500Y-105214621D01*
X134009921Y-105073200D01*
X134314479Y-105073200D01*
X134455900Y-105214621D01*
G37*
X134455900Y-105214621D02*
X134455900Y-105519179D01*
X134314479Y-105660600D01*
X134009921Y-105660600D01*
X133868500Y-105519179D01*
X133868500Y-105214621D01*
X134009921Y-105073200D01*
X134314479Y-105073200D01*
X134455900Y-105214621D01*
X137946921Y-101923600D02*
X137805500Y-102065021D01*
X137805500Y-102065021D02*
X137805500Y-102369579D01*
X137805500Y-102369579D02*
X137946921Y-102511000D01*
X137946921Y-102511000D02*
X138251479Y-102511000D01*
X138251479Y-102511000D02*
X138392900Y-102369579D01*
X138392900Y-102369579D02*
X138392900Y-102065021D01*
X138392900Y-102065021D02*
X138251479Y-101923600D01*
X138251479Y-101923600D02*
X137946921Y-101923600D01*
G36*
X138392900Y-102065021D02*
G01*
X138392900Y-102369579D01*
X138251479Y-102511000D01*
X137946921Y-102511000D01*
X137805500Y-102369579D01*
X137805500Y-102065021D01*
X137946921Y-101923600D01*
X138251479Y-101923600D01*
X138392900Y-102065021D01*
G37*
X138392900Y-102065021D02*
X138392900Y-102369579D01*
X138251479Y-102511000D01*
X137946921Y-102511000D01*
X137805500Y-102369579D01*
X137805500Y-102065021D01*
X137946921Y-101923600D01*
X138251479Y-101923600D01*
X138392900Y-102065021D01*
X135584721Y-103498400D02*
X135443300Y-103639821D01*
X135443300Y-103639821D02*
X135443300Y-103944379D01*
X135443300Y-103944379D02*
X135584721Y-104085800D01*
X135584721Y-104085800D02*
X135889279Y-104085800D01*
X135889279Y-104085800D02*
X136030700Y-103944379D01*
X136030700Y-103944379D02*
X136030700Y-103639821D01*
X136030700Y-103639821D02*
X135889279Y-103498400D01*
X135889279Y-103498400D02*
X135584721Y-103498400D01*
G36*
X136030700Y-103639821D02*
G01*
X136030700Y-103944379D01*
X135889279Y-104085800D01*
X135584721Y-104085800D01*
X135443300Y-103944379D01*
X135443300Y-103639821D01*
X135584721Y-103498400D01*
X135889279Y-103498400D01*
X136030700Y-103639821D01*
G37*
X136030700Y-103639821D02*
X136030700Y-103944379D01*
X135889279Y-104085800D01*
X135584721Y-104085800D01*
X135443300Y-103944379D01*
X135443300Y-103639821D01*
X135584721Y-103498400D01*
X135889279Y-103498400D01*
X136030700Y-103639821D01*
X132435121Y-104285800D02*
X132293700Y-104427221D01*
X132293700Y-104427221D02*
X132293700Y-104731779D01*
X132293700Y-104731779D02*
X132435121Y-104873200D01*
X132435121Y-104873200D02*
X132739679Y-104873200D01*
X132739679Y-104873200D02*
X132881100Y-104731779D01*
X132881100Y-104731779D02*
X132881100Y-104427221D01*
X132881100Y-104427221D02*
X132739679Y-104285800D01*
X132739679Y-104285800D02*
X132435121Y-104285800D01*
G36*
X132881100Y-104427221D02*
G01*
X132881100Y-104731779D01*
X132739679Y-104873200D01*
X132435121Y-104873200D01*
X132293700Y-104731779D01*
X132293700Y-104427221D01*
X132435121Y-104285800D01*
X132739679Y-104285800D01*
X132881100Y-104427221D01*
G37*
X132881100Y-104427221D02*
X132881100Y-104731779D01*
X132739679Y-104873200D01*
X132435121Y-104873200D01*
X132293700Y-104731779D01*
X132293700Y-104427221D01*
X132435121Y-104285800D01*
X132739679Y-104285800D01*
X132881100Y-104427221D01*
X131811930Y-107435400D02*
X131811930Y-107717170D01*
X131811930Y-107717170D02*
X132093700Y-107717170D01*
X132093700Y-107717170D02*
X132093700Y-107576821D01*
X132093700Y-107576821D02*
X131952279Y-107435400D01*
X131952279Y-107435400D02*
X131811930Y-107435400D01*
G36*
X132093700Y-107576821D02*
G01*
X132093700Y-107717170D01*
X131811930Y-107717170D01*
X131811930Y-107435400D01*
X131952279Y-107435400D01*
X132093700Y-107576821D01*
G37*
X132093700Y-107576821D02*
X132093700Y-107717170D01*
X131811930Y-107717170D01*
X131811930Y-107435400D01*
X131952279Y-107435400D01*
X132093700Y-107576821D01*
X132435121Y-105073200D02*
X132293700Y-105214621D01*
X132293700Y-105214621D02*
X132293700Y-105519179D01*
X132293700Y-105519179D02*
X132435121Y-105660600D01*
X132435121Y-105660600D02*
X132739679Y-105660600D01*
X132739679Y-105660600D02*
X132881100Y-105519179D01*
X132881100Y-105519179D02*
X132881100Y-105214621D01*
X132881100Y-105214621D02*
X132739679Y-105073200D01*
X132739679Y-105073200D02*
X132435121Y-105073200D01*
G36*
X132881100Y-105214621D02*
G01*
X132881100Y-105519179D01*
X132739679Y-105660600D01*
X132435121Y-105660600D01*
X132293700Y-105519179D01*
X132293700Y-105214621D01*
X132435121Y-105073200D01*
X132739679Y-105073200D01*
X132881100Y-105214621D01*
G37*
X132881100Y-105214621D02*
X132881100Y-105519179D01*
X132739679Y-105660600D01*
X132435121Y-105660600D01*
X132293700Y-105519179D01*
X132293700Y-105214621D01*
X132435121Y-105073200D01*
X132739679Y-105073200D01*
X132881100Y-105214621D01*
X137159521Y-107435400D02*
X137018100Y-107576821D01*
X137018100Y-107576821D02*
X137018100Y-107717170D01*
X137018100Y-107717170D02*
X137605500Y-107717170D01*
X137605500Y-107717170D02*
X137605500Y-107576821D01*
X137605500Y-107576821D02*
X137464079Y-107435400D01*
X137464079Y-107435400D02*
X137159521Y-107435400D01*
G36*
X137605500Y-107576821D02*
G01*
X137605500Y-107717170D01*
X137018100Y-107717170D01*
X137018100Y-107576821D01*
X137159521Y-107435400D01*
X137464079Y-107435400D01*
X137605500Y-107576821D01*
G37*
X137605500Y-107576821D02*
X137605500Y-107717170D01*
X137018100Y-107717170D01*
X137018100Y-107576821D01*
X137159521Y-107435400D01*
X137464079Y-107435400D01*
X137605500Y-107576821D01*
X138734321Y-103498400D02*
X138592900Y-103639821D01*
X138592900Y-103639821D02*
X138592900Y-103944379D01*
X138592900Y-103944379D02*
X138734321Y-104085800D01*
X138734321Y-104085800D02*
X139038879Y-104085800D01*
X139038879Y-104085800D02*
X139180300Y-103944379D01*
X139180300Y-103944379D02*
X139180300Y-103639821D01*
X139180300Y-103639821D02*
X139038879Y-103498400D01*
X139038879Y-103498400D02*
X138734321Y-103498400D01*
G36*
X139180300Y-103639821D02*
G01*
X139180300Y-103944379D01*
X139038879Y-104085800D01*
X138734321Y-104085800D01*
X138592900Y-103944379D01*
X138592900Y-103639821D01*
X138734321Y-103498400D01*
X139038879Y-103498400D01*
X139180300Y-103639821D01*
G37*
X139180300Y-103639821D02*
X139180300Y-103944379D01*
X139038879Y-104085800D01*
X138734321Y-104085800D01*
X138592900Y-103944379D01*
X138592900Y-103639821D01*
X138734321Y-103498400D01*
X139038879Y-103498400D01*
X139180300Y-103639821D01*
X138734321Y-106648000D02*
X138592900Y-106789421D01*
X138592900Y-106789421D02*
X138592900Y-107093979D01*
X138592900Y-107093979D02*
X138734321Y-107235400D01*
X138734321Y-107235400D02*
X139038879Y-107235400D01*
X139038879Y-107235400D02*
X139180300Y-107093979D01*
X139180300Y-107093979D02*
X139180300Y-106789421D01*
X139180300Y-106789421D02*
X139038879Y-106648000D01*
X139038879Y-106648000D02*
X138734321Y-106648000D01*
G36*
X139180300Y-106789421D02*
G01*
X139180300Y-107093979D01*
X139038879Y-107235400D01*
X138734321Y-107235400D01*
X138592900Y-107093979D01*
X138592900Y-106789421D01*
X138734321Y-106648000D01*
X139038879Y-106648000D01*
X139180300Y-106789421D01*
G37*
X139180300Y-106789421D02*
X139180300Y-107093979D01*
X139038879Y-107235400D01*
X138734321Y-107235400D01*
X138592900Y-107093979D01*
X138592900Y-106789421D01*
X138734321Y-106648000D01*
X139038879Y-106648000D01*
X139180300Y-106789421D01*
X136372121Y-101923600D02*
X136230700Y-102065021D01*
X136230700Y-102065021D02*
X136230700Y-102369579D01*
X136230700Y-102369579D02*
X136372121Y-102511000D01*
X136372121Y-102511000D02*
X136676679Y-102511000D01*
X136676679Y-102511000D02*
X136818100Y-102369579D01*
X136818100Y-102369579D02*
X136818100Y-102065021D01*
X136818100Y-102065021D02*
X136676679Y-101923600D01*
X136676679Y-101923600D02*
X136372121Y-101923600D01*
G36*
X136818100Y-102065021D02*
G01*
X136818100Y-102369579D01*
X136676679Y-102511000D01*
X136372121Y-102511000D01*
X136230700Y-102369579D01*
X136230700Y-102065021D01*
X136372121Y-101923600D01*
X136676679Y-101923600D01*
X136818100Y-102065021D01*
G37*
X136818100Y-102065021D02*
X136818100Y-102369579D01*
X136676679Y-102511000D01*
X136372121Y-102511000D01*
X136230700Y-102369579D01*
X136230700Y-102065021D01*
X136372121Y-101923600D01*
X136676679Y-101923600D01*
X136818100Y-102065021D01*
X137946921Y-103498400D02*
X137805500Y-103639821D01*
X137805500Y-103639821D02*
X137805500Y-103944379D01*
X137805500Y-103944379D02*
X137946921Y-104085800D01*
X137946921Y-104085800D02*
X138251479Y-104085800D01*
X138251479Y-104085800D02*
X138392900Y-103944379D01*
X138392900Y-103944379D02*
X138392900Y-103639821D01*
X138392900Y-103639821D02*
X138251479Y-103498400D01*
X138251479Y-103498400D02*
X137946921Y-103498400D01*
G36*
X138392900Y-103639821D02*
G01*
X138392900Y-103944379D01*
X138251479Y-104085800D01*
X137946921Y-104085800D01*
X137805500Y-103944379D01*
X137805500Y-103639821D01*
X137946921Y-103498400D01*
X138251479Y-103498400D01*
X138392900Y-103639821D01*
G37*
X138392900Y-103639821D02*
X138392900Y-103944379D01*
X138251479Y-104085800D01*
X137946921Y-104085800D01*
X137805500Y-103944379D01*
X137805500Y-103639821D01*
X137946921Y-103498400D01*
X138251479Y-103498400D01*
X138392900Y-103639821D01*
X137946921Y-101136200D02*
X137805500Y-101277621D01*
X137805500Y-101277621D02*
X137805500Y-101582179D01*
X137805500Y-101582179D02*
X137946921Y-101723600D01*
X137946921Y-101723600D02*
X138251479Y-101723600D01*
X138251479Y-101723600D02*
X138392900Y-101582179D01*
X138392900Y-101582179D02*
X138392900Y-101277621D01*
X138392900Y-101277621D02*
X138251479Y-101136200D01*
X138251479Y-101136200D02*
X137946921Y-101136200D01*
G36*
X138392900Y-101277621D02*
G01*
X138392900Y-101582179D01*
X138251479Y-101723600D01*
X137946921Y-101723600D01*
X137805500Y-101582179D01*
X137805500Y-101277621D01*
X137946921Y-101136200D01*
X138251479Y-101136200D01*
X138392900Y-101277621D01*
G37*
X138392900Y-101277621D02*
X138392900Y-101582179D01*
X138251479Y-101723600D01*
X137946921Y-101723600D01*
X137805500Y-101582179D01*
X137805500Y-101277621D01*
X137946921Y-101136200D01*
X138251479Y-101136200D01*
X138392900Y-101277621D01*
X137805500Y-99867030D02*
X137805500Y-100007379D01*
X137805500Y-100007379D02*
X137946921Y-100148800D01*
X137946921Y-100148800D02*
X138251479Y-100148800D01*
X138251479Y-100148800D02*
X138392900Y-100007379D01*
X138392900Y-100007379D02*
X138392900Y-99867030D01*
X138392900Y-99867030D02*
X137805500Y-99867030D01*
G36*
X138392900Y-100007379D02*
G01*
X138251479Y-100148800D01*
X137946921Y-100148800D01*
X137805500Y-100007379D01*
X137805500Y-99867030D01*
X138392900Y-99867030D01*
X138392900Y-100007379D01*
G37*
X138392900Y-100007379D02*
X138251479Y-100148800D01*
X137946921Y-100148800D01*
X137805500Y-100007379D01*
X137805500Y-99867030D01*
X138392900Y-99867030D01*
X138392900Y-100007379D01*
X131811930Y-106648000D02*
X131811930Y-107235400D01*
X131811930Y-107235400D02*
X131952279Y-107235400D01*
X131952279Y-107235400D02*
X132093700Y-107093979D01*
X132093700Y-107093979D02*
X132093700Y-106789421D01*
X132093700Y-106789421D02*
X131952279Y-106648000D01*
X131952279Y-106648000D02*
X131811930Y-106648000D01*
G36*
X132093700Y-106789421D02*
G01*
X132093700Y-107093979D01*
X131952279Y-107235400D01*
X131811930Y-107235400D01*
X131811930Y-106648000D01*
X131952279Y-106648000D01*
X132093700Y-106789421D01*
G37*
X132093700Y-106789421D02*
X132093700Y-107093979D01*
X131952279Y-107235400D01*
X131811930Y-107235400D01*
X131811930Y-106648000D01*
X131952279Y-106648000D01*
X132093700Y-106789421D01*
X137018100Y-99867030D02*
X137018100Y-100007379D01*
X137018100Y-100007379D02*
X137159521Y-100148800D01*
X137159521Y-100148800D02*
X137464079Y-100148800D01*
X137464079Y-100148800D02*
X137605500Y-100007379D01*
X137605500Y-100007379D02*
X137605500Y-99867030D01*
X137605500Y-99867030D02*
X137018100Y-99867030D01*
G36*
X137605500Y-100007379D02*
G01*
X137464079Y-100148800D01*
X137159521Y-100148800D01*
X137018100Y-100007379D01*
X137018100Y-99867030D01*
X137605500Y-99867030D01*
X137605500Y-100007379D01*
G37*
X137605500Y-100007379D02*
X137464079Y-100148800D01*
X137159521Y-100148800D01*
X137018100Y-100007379D01*
X137018100Y-99867030D01*
X137605500Y-99867030D01*
X137605500Y-100007379D01*
X134797321Y-102711000D02*
X134655900Y-102852421D01*
X134655900Y-102852421D02*
X134655900Y-103156979D01*
X134655900Y-103156979D02*
X134797321Y-103298400D01*
X134797321Y-103298400D02*
X135101879Y-103298400D01*
X135101879Y-103298400D02*
X135243300Y-103156979D01*
X135243300Y-103156979D02*
X135243300Y-102852421D01*
X135243300Y-102852421D02*
X135101879Y-102711000D01*
X135101879Y-102711000D02*
X134797321Y-102711000D01*
G36*
X135243300Y-102852421D02*
G01*
X135243300Y-103156979D01*
X135101879Y-103298400D01*
X134797321Y-103298400D01*
X134655900Y-103156979D01*
X134655900Y-102852421D01*
X134797321Y-102711000D01*
X135101879Y-102711000D01*
X135243300Y-102852421D01*
G37*
X135243300Y-102852421D02*
X135243300Y-103156979D01*
X135101879Y-103298400D01*
X134797321Y-103298400D01*
X134655900Y-103156979D01*
X134655900Y-102852421D01*
X134797321Y-102711000D01*
X135101879Y-102711000D01*
X135243300Y-102852421D01*
X133222521Y-102711000D02*
X133081100Y-102852421D01*
X133081100Y-102852421D02*
X133081100Y-103156979D01*
X133081100Y-103156979D02*
X133222521Y-103298400D01*
X133222521Y-103298400D02*
X133527079Y-103298400D01*
X133527079Y-103298400D02*
X133668500Y-103156979D01*
X133668500Y-103156979D02*
X133668500Y-102852421D01*
X133668500Y-102852421D02*
X133527079Y-102711000D01*
X133527079Y-102711000D02*
X133222521Y-102711000D01*
G36*
X133668500Y-102852421D02*
G01*
X133668500Y-103156979D01*
X133527079Y-103298400D01*
X133222521Y-103298400D01*
X133081100Y-103156979D01*
X133081100Y-102852421D01*
X133222521Y-102711000D01*
X133527079Y-102711000D01*
X133668500Y-102852421D01*
G37*
X133668500Y-102852421D02*
X133668500Y-103156979D01*
X133527079Y-103298400D01*
X133222521Y-103298400D01*
X133081100Y-103156979D01*
X133081100Y-102852421D01*
X133222521Y-102711000D01*
X133527079Y-102711000D01*
X133668500Y-102852421D01*
X139521721Y-102711000D02*
X139380300Y-102852421D01*
X139380300Y-102852421D02*
X139380300Y-103156979D01*
X139380300Y-103156979D02*
X139521721Y-103298400D01*
X139521721Y-103298400D02*
X139662070Y-103298400D01*
X139662070Y-103298400D02*
X139662070Y-102711000D01*
X139662070Y-102711000D02*
X139521721Y-102711000D01*
G36*
X139662070Y-103298400D02*
G01*
X139521721Y-103298400D01*
X139380300Y-103156979D01*
X139380300Y-102852421D01*
X139521721Y-102711000D01*
X139662070Y-102711000D01*
X139662070Y-103298400D01*
G37*
X139662070Y-103298400D02*
X139521721Y-103298400D01*
X139380300Y-103156979D01*
X139380300Y-102852421D01*
X139521721Y-102711000D01*
X139662070Y-102711000D01*
X139662070Y-103298400D01*
X139521721Y-104285800D02*
X139380300Y-104427221D01*
X139380300Y-104427221D02*
X139380300Y-104731779D01*
X139380300Y-104731779D02*
X139521721Y-104873200D01*
X139521721Y-104873200D02*
X139662070Y-104873200D01*
X139662070Y-104873200D02*
X139662070Y-104285800D01*
X139662070Y-104285800D02*
X139521721Y-104285800D01*
G36*
X139662070Y-104873200D02*
G01*
X139521721Y-104873200D01*
X139380300Y-104731779D01*
X139380300Y-104427221D01*
X139521721Y-104285800D01*
X139662070Y-104285800D01*
X139662070Y-104873200D01*
G37*
X139662070Y-104873200D02*
X139521721Y-104873200D01*
X139380300Y-104731779D01*
X139380300Y-104427221D01*
X139521721Y-104285800D01*
X139662070Y-104285800D01*
X139662070Y-104873200D01*
X134797321Y-106648000D02*
X134655900Y-106789421D01*
X134655900Y-106789421D02*
X134655900Y-107093979D01*
X134655900Y-107093979D02*
X134797321Y-107235400D01*
X134797321Y-107235400D02*
X135101879Y-107235400D01*
X135101879Y-107235400D02*
X135243300Y-107093979D01*
X135243300Y-107093979D02*
X135243300Y-106789421D01*
X135243300Y-106789421D02*
X135101879Y-106648000D01*
X135101879Y-106648000D02*
X134797321Y-106648000D01*
G36*
X135243300Y-106789421D02*
G01*
X135243300Y-107093979D01*
X135101879Y-107235400D01*
X134797321Y-107235400D01*
X134655900Y-107093979D01*
X134655900Y-106789421D01*
X134797321Y-106648000D01*
X135101879Y-106648000D01*
X135243300Y-106789421D01*
G37*
X135243300Y-106789421D02*
X135243300Y-107093979D01*
X135101879Y-107235400D01*
X134797321Y-107235400D01*
X134655900Y-107093979D01*
X134655900Y-106789421D01*
X134797321Y-106648000D01*
X135101879Y-106648000D01*
X135243300Y-106789421D01*
X136372121Y-105073200D02*
X136230700Y-105214621D01*
X136230700Y-105214621D02*
X136230700Y-105519179D01*
X136230700Y-105519179D02*
X136372121Y-105660600D01*
X136372121Y-105660600D02*
X136676679Y-105660600D01*
X136676679Y-105660600D02*
X136818100Y-105519179D01*
X136818100Y-105519179D02*
X136818100Y-105214621D01*
X136818100Y-105214621D02*
X136676679Y-105073200D01*
X136676679Y-105073200D02*
X136372121Y-105073200D01*
G36*
X136818100Y-105214621D02*
G01*
X136818100Y-105519179D01*
X136676679Y-105660600D01*
X136372121Y-105660600D01*
X136230700Y-105519179D01*
X136230700Y-105214621D01*
X136372121Y-105073200D01*
X136676679Y-105073200D01*
X136818100Y-105214621D01*
G37*
X136818100Y-105214621D02*
X136818100Y-105519179D01*
X136676679Y-105660600D01*
X136372121Y-105660600D01*
X136230700Y-105519179D01*
X136230700Y-105214621D01*
X136372121Y-105073200D01*
X136676679Y-105073200D01*
X136818100Y-105214621D01*
X136372121Y-106648000D02*
X136230700Y-106789421D01*
X136230700Y-106789421D02*
X136230700Y-107093979D01*
X136230700Y-107093979D02*
X136372121Y-107235400D01*
X136372121Y-107235400D02*
X136676679Y-107235400D01*
X136676679Y-107235400D02*
X136818100Y-107093979D01*
X136818100Y-107093979D02*
X136818100Y-106789421D01*
X136818100Y-106789421D02*
X136676679Y-106648000D01*
X136676679Y-106648000D02*
X136372121Y-106648000D01*
G36*
X136818100Y-106789421D02*
G01*
X136818100Y-107093979D01*
X136676679Y-107235400D01*
X136372121Y-107235400D01*
X136230700Y-107093979D01*
X136230700Y-106789421D01*
X136372121Y-106648000D01*
X136676679Y-106648000D01*
X136818100Y-106789421D01*
G37*
X136818100Y-106789421D02*
X136818100Y-107093979D01*
X136676679Y-107235400D01*
X136372121Y-107235400D01*
X136230700Y-107093979D01*
X136230700Y-106789421D01*
X136372121Y-106648000D01*
X136676679Y-106648000D01*
X136818100Y-106789421D01*
X132435121Y-100348800D02*
X132293700Y-100490221D01*
X132293700Y-100490221D02*
X132293700Y-100794779D01*
X132293700Y-100794779D02*
X132435121Y-100936200D01*
X132435121Y-100936200D02*
X132739679Y-100936200D01*
X132739679Y-100936200D02*
X132881100Y-100794779D01*
X132881100Y-100794779D02*
X132881100Y-100490221D01*
X132881100Y-100490221D02*
X132739679Y-100348800D01*
X132739679Y-100348800D02*
X132435121Y-100348800D01*
G36*
X132881100Y-100490221D02*
G01*
X132881100Y-100794779D01*
X132739679Y-100936200D01*
X132435121Y-100936200D01*
X132293700Y-100794779D01*
X132293700Y-100490221D01*
X132435121Y-100348800D01*
X132739679Y-100348800D01*
X132881100Y-100490221D01*
G37*
X132881100Y-100490221D02*
X132881100Y-100794779D01*
X132739679Y-100936200D01*
X132435121Y-100936200D01*
X132293700Y-100794779D01*
X132293700Y-100490221D01*
X132435121Y-100348800D01*
X132739679Y-100348800D01*
X132881100Y-100490221D01*
X134009921Y-106648000D02*
X133868500Y-106789421D01*
X133868500Y-106789421D02*
X133868500Y-107093979D01*
X133868500Y-107093979D02*
X134009921Y-107235400D01*
X134009921Y-107235400D02*
X134314479Y-107235400D01*
X134314479Y-107235400D02*
X134455900Y-107093979D01*
X134455900Y-107093979D02*
X134455900Y-106789421D01*
X134455900Y-106789421D02*
X134314479Y-106648000D01*
X134314479Y-106648000D02*
X134009921Y-106648000D01*
G36*
X134455900Y-106789421D02*
G01*
X134455900Y-107093979D01*
X134314479Y-107235400D01*
X134009921Y-107235400D01*
X133868500Y-107093979D01*
X133868500Y-106789421D01*
X134009921Y-106648000D01*
X134314479Y-106648000D01*
X134455900Y-106789421D01*
G37*
X134455900Y-106789421D02*
X134455900Y-107093979D01*
X134314479Y-107235400D01*
X134009921Y-107235400D01*
X133868500Y-107093979D01*
X133868500Y-106789421D01*
X134009921Y-106648000D01*
X134314479Y-106648000D01*
X134455900Y-106789421D01*
X132435121Y-102711000D02*
X132293700Y-102852421D01*
X132293700Y-102852421D02*
X132293700Y-103156979D01*
X132293700Y-103156979D02*
X132435121Y-103298400D01*
X132435121Y-103298400D02*
X132739679Y-103298400D01*
X132739679Y-103298400D02*
X132881100Y-103156979D01*
X132881100Y-103156979D02*
X132881100Y-102852421D01*
X132881100Y-102852421D02*
X132739679Y-102711000D01*
X132739679Y-102711000D02*
X132435121Y-102711000D01*
G36*
X132881100Y-102852421D02*
G01*
X132881100Y-103156979D01*
X132739679Y-103298400D01*
X132435121Y-103298400D01*
X132293700Y-103156979D01*
X132293700Y-102852421D01*
X132435121Y-102711000D01*
X132739679Y-102711000D01*
X132881100Y-102852421D01*
G37*
X132881100Y-102852421D02*
X132881100Y-103156979D01*
X132739679Y-103298400D01*
X132435121Y-103298400D01*
X132293700Y-103156979D01*
X132293700Y-102852421D01*
X132435121Y-102711000D01*
X132739679Y-102711000D01*
X132881100Y-102852421D01*
X133222521Y-105860600D02*
X133081100Y-106002021D01*
X133081100Y-106002021D02*
X133081100Y-106306579D01*
X133081100Y-106306579D02*
X133222521Y-106448000D01*
X133222521Y-106448000D02*
X133527079Y-106448000D01*
X133527079Y-106448000D02*
X133668500Y-106306579D01*
X133668500Y-106306579D02*
X133668500Y-106002021D01*
X133668500Y-106002021D02*
X133527079Y-105860600D01*
X133527079Y-105860600D02*
X133222521Y-105860600D01*
G36*
X133668500Y-106002021D02*
G01*
X133668500Y-106306579D01*
X133527079Y-106448000D01*
X133222521Y-106448000D01*
X133081100Y-106306579D01*
X133081100Y-106002021D01*
X133222521Y-105860600D01*
X133527079Y-105860600D01*
X133668500Y-106002021D01*
G37*
X133668500Y-106002021D02*
X133668500Y-106306579D01*
X133527079Y-106448000D01*
X133222521Y-106448000D01*
X133081100Y-106306579D01*
X133081100Y-106002021D01*
X133222521Y-105860600D01*
X133527079Y-105860600D01*
X133668500Y-106002021D01*
X137159521Y-100348800D02*
X137018100Y-100490221D01*
X137018100Y-100490221D02*
X137018100Y-100794779D01*
X137018100Y-100794779D02*
X137159521Y-100936200D01*
X137159521Y-100936200D02*
X137464079Y-100936200D01*
X137464079Y-100936200D02*
X137605500Y-100794779D01*
X137605500Y-100794779D02*
X137605500Y-100490221D01*
X137605500Y-100490221D02*
X137464079Y-100348800D01*
X137464079Y-100348800D02*
X137159521Y-100348800D01*
G36*
X137605500Y-100490221D02*
G01*
X137605500Y-100794779D01*
X137464079Y-100936200D01*
X137159521Y-100936200D01*
X137018100Y-100794779D01*
X137018100Y-100490221D01*
X137159521Y-100348800D01*
X137464079Y-100348800D01*
X137605500Y-100490221D01*
G37*
X137605500Y-100490221D02*
X137605500Y-100794779D01*
X137464079Y-100936200D01*
X137159521Y-100936200D01*
X137018100Y-100794779D01*
X137018100Y-100490221D01*
X137159521Y-100348800D01*
X137464079Y-100348800D01*
X137605500Y-100490221D01*
X139521721Y-100348800D02*
X139380300Y-100490221D01*
X139380300Y-100490221D02*
X139380300Y-100794779D01*
X139380300Y-100794779D02*
X139521721Y-100936200D01*
X139521721Y-100936200D02*
X139662070Y-100936200D01*
X139662070Y-100936200D02*
X139662070Y-100348800D01*
X139662070Y-100348800D02*
X139521721Y-100348800D01*
G36*
X139662070Y-100936200D02*
G01*
X139521721Y-100936200D01*
X139380300Y-100794779D01*
X139380300Y-100490221D01*
X139521721Y-100348800D01*
X139662070Y-100348800D01*
X139662070Y-100936200D01*
G37*
X139662070Y-100936200D02*
X139521721Y-100936200D01*
X139380300Y-100794779D01*
X139380300Y-100490221D01*
X139521721Y-100348800D01*
X139662070Y-100348800D01*
X139662070Y-100936200D01*
X137946921Y-104285800D02*
X137805500Y-104427221D01*
X137805500Y-104427221D02*
X137805500Y-104731779D01*
X137805500Y-104731779D02*
X137946921Y-104873200D01*
X137946921Y-104873200D02*
X138251479Y-104873200D01*
X138251479Y-104873200D02*
X138392900Y-104731779D01*
X138392900Y-104731779D02*
X138392900Y-104427221D01*
X138392900Y-104427221D02*
X138251479Y-104285800D01*
X138251479Y-104285800D02*
X137946921Y-104285800D01*
G36*
X138392900Y-104427221D02*
G01*
X138392900Y-104731779D01*
X138251479Y-104873200D01*
X137946921Y-104873200D01*
X137805500Y-104731779D01*
X137805500Y-104427221D01*
X137946921Y-104285800D01*
X138251479Y-104285800D01*
X138392900Y-104427221D01*
G37*
X138392900Y-104427221D02*
X138392900Y-104731779D01*
X138251479Y-104873200D01*
X137946921Y-104873200D01*
X137805500Y-104731779D01*
X137805500Y-104427221D01*
X137946921Y-104285800D01*
X138251479Y-104285800D01*
X138392900Y-104427221D01*
X135584721Y-101136200D02*
X135443300Y-101277621D01*
X135443300Y-101277621D02*
X135443300Y-101582179D01*
X135443300Y-101582179D02*
X135584721Y-101723600D01*
X135584721Y-101723600D02*
X135889279Y-101723600D01*
X135889279Y-101723600D02*
X136030700Y-101582179D01*
X136030700Y-101582179D02*
X136030700Y-101277621D01*
X136030700Y-101277621D02*
X135889279Y-101136200D01*
X135889279Y-101136200D02*
X135584721Y-101136200D01*
G36*
X136030700Y-101277621D02*
G01*
X136030700Y-101582179D01*
X135889279Y-101723600D01*
X135584721Y-101723600D01*
X135443300Y-101582179D01*
X135443300Y-101277621D01*
X135584721Y-101136200D01*
X135889279Y-101136200D01*
X136030700Y-101277621D01*
G37*
X136030700Y-101277621D02*
X136030700Y-101582179D01*
X135889279Y-101723600D01*
X135584721Y-101723600D01*
X135443300Y-101582179D01*
X135443300Y-101277621D01*
X135584721Y-101136200D01*
X135889279Y-101136200D01*
X136030700Y-101277621D01*
X132435121Y-101136200D02*
X132293700Y-101277621D01*
X132293700Y-101277621D02*
X132293700Y-101582179D01*
X132293700Y-101582179D02*
X132435121Y-101723600D01*
X132435121Y-101723600D02*
X132739679Y-101723600D01*
X132739679Y-101723600D02*
X132881100Y-101582179D01*
X132881100Y-101582179D02*
X132881100Y-101277621D01*
X132881100Y-101277621D02*
X132739679Y-101136200D01*
X132739679Y-101136200D02*
X132435121Y-101136200D01*
G36*
X132881100Y-101277621D02*
G01*
X132881100Y-101582179D01*
X132739679Y-101723600D01*
X132435121Y-101723600D01*
X132293700Y-101582179D01*
X132293700Y-101277621D01*
X132435121Y-101136200D01*
X132739679Y-101136200D01*
X132881100Y-101277621D01*
G37*
X132881100Y-101277621D02*
X132881100Y-101582179D01*
X132739679Y-101723600D01*
X132435121Y-101723600D01*
X132293700Y-101582179D01*
X132293700Y-101277621D01*
X132435121Y-101136200D01*
X132739679Y-101136200D01*
X132881100Y-101277621D01*
X134797321Y-100348800D02*
X134655900Y-100490221D01*
X134655900Y-100490221D02*
X134655900Y-100794779D01*
X134655900Y-100794779D02*
X134797321Y-100936200D01*
X134797321Y-100936200D02*
X135101879Y-100936200D01*
X135101879Y-100936200D02*
X135243300Y-100794779D01*
X135243300Y-100794779D02*
X135243300Y-100490221D01*
X135243300Y-100490221D02*
X135101879Y-100348800D01*
X135101879Y-100348800D02*
X134797321Y-100348800D01*
G36*
X135243300Y-100490221D02*
G01*
X135243300Y-100794779D01*
X135101879Y-100936200D01*
X134797321Y-100936200D01*
X134655900Y-100794779D01*
X134655900Y-100490221D01*
X134797321Y-100348800D01*
X135101879Y-100348800D01*
X135243300Y-100490221D01*
G37*
X135243300Y-100490221D02*
X135243300Y-100794779D01*
X135101879Y-100936200D01*
X134797321Y-100936200D01*
X134655900Y-100794779D01*
X134655900Y-100490221D01*
X134797321Y-100348800D01*
X135101879Y-100348800D01*
X135243300Y-100490221D01*
X136372121Y-101136200D02*
X136230700Y-101277621D01*
X136230700Y-101277621D02*
X136230700Y-101582179D01*
X136230700Y-101582179D02*
X136372121Y-101723600D01*
X136372121Y-101723600D02*
X136676679Y-101723600D01*
X136676679Y-101723600D02*
X136818100Y-101582179D01*
X136818100Y-101582179D02*
X136818100Y-101277621D01*
X136818100Y-101277621D02*
X136676679Y-101136200D01*
X136676679Y-101136200D02*
X136372121Y-101136200D01*
G36*
X136818100Y-101277621D02*
G01*
X136818100Y-101582179D01*
X136676679Y-101723600D01*
X136372121Y-101723600D01*
X136230700Y-101582179D01*
X136230700Y-101277621D01*
X136372121Y-101136200D01*
X136676679Y-101136200D01*
X136818100Y-101277621D01*
G37*
X136818100Y-101277621D02*
X136818100Y-101582179D01*
X136676679Y-101723600D01*
X136372121Y-101723600D01*
X136230700Y-101582179D01*
X136230700Y-101277621D01*
X136372121Y-101136200D01*
X136676679Y-101136200D01*
X136818100Y-101277621D01*
X134797321Y-104285800D02*
X134655900Y-104427221D01*
X134655900Y-104427221D02*
X134655900Y-104731779D01*
X134655900Y-104731779D02*
X134797321Y-104873200D01*
X134797321Y-104873200D02*
X135101879Y-104873200D01*
X135101879Y-104873200D02*
X135243300Y-104731779D01*
X135243300Y-104731779D02*
X135243300Y-104427221D01*
X135243300Y-104427221D02*
X135101879Y-104285800D01*
X135101879Y-104285800D02*
X134797321Y-104285800D01*
G36*
X135243300Y-104427221D02*
G01*
X135243300Y-104731779D01*
X135101879Y-104873200D01*
X134797321Y-104873200D01*
X134655900Y-104731779D01*
X134655900Y-104427221D01*
X134797321Y-104285800D01*
X135101879Y-104285800D01*
X135243300Y-104427221D01*
G37*
X135243300Y-104427221D02*
X135243300Y-104731779D01*
X135101879Y-104873200D01*
X134797321Y-104873200D01*
X134655900Y-104731779D01*
X134655900Y-104427221D01*
X134797321Y-104285800D01*
X135101879Y-104285800D01*
X135243300Y-104427221D01*
X137159521Y-106648000D02*
X137018100Y-106789421D01*
X137018100Y-106789421D02*
X137018100Y-107093979D01*
X137018100Y-107093979D02*
X137159521Y-107235400D01*
X137159521Y-107235400D02*
X137464079Y-107235400D01*
X137464079Y-107235400D02*
X137605500Y-107093979D01*
X137605500Y-107093979D02*
X137605500Y-106789421D01*
X137605500Y-106789421D02*
X137464079Y-106648000D01*
X137464079Y-106648000D02*
X137159521Y-106648000D01*
G36*
X137605500Y-106789421D02*
G01*
X137605500Y-107093979D01*
X137464079Y-107235400D01*
X137159521Y-107235400D01*
X137018100Y-107093979D01*
X137018100Y-106789421D01*
X137159521Y-106648000D01*
X137464079Y-106648000D01*
X137605500Y-106789421D01*
G37*
X137605500Y-106789421D02*
X137605500Y-107093979D01*
X137464079Y-107235400D01*
X137159521Y-107235400D01*
X137018100Y-107093979D01*
X137018100Y-106789421D01*
X137159521Y-106648000D01*
X137464079Y-106648000D01*
X137605500Y-106789421D01*
X139521721Y-105073200D02*
X139380300Y-105214621D01*
X139380300Y-105214621D02*
X139380300Y-105519179D01*
X139380300Y-105519179D02*
X139521721Y-105660600D01*
X139521721Y-105660600D02*
X139662070Y-105660600D01*
X139662070Y-105660600D02*
X139662070Y-105073200D01*
X139662070Y-105073200D02*
X139521721Y-105073200D01*
G36*
X139662070Y-105660600D02*
G01*
X139521721Y-105660600D01*
X139380300Y-105519179D01*
X139380300Y-105214621D01*
X139521721Y-105073200D01*
X139662070Y-105073200D01*
X139662070Y-105660600D01*
G37*
X139662070Y-105660600D02*
X139521721Y-105660600D01*
X139380300Y-105519179D01*
X139380300Y-105214621D01*
X139521721Y-105073200D01*
X139662070Y-105073200D01*
X139662070Y-105660600D01*
X133222521Y-104285800D02*
X133081100Y-104427221D01*
X133081100Y-104427221D02*
X133081100Y-104731779D01*
X133081100Y-104731779D02*
X133222521Y-104873200D01*
X133222521Y-104873200D02*
X133527079Y-104873200D01*
X133527079Y-104873200D02*
X133668500Y-104731779D01*
X133668500Y-104731779D02*
X133668500Y-104427221D01*
X133668500Y-104427221D02*
X133527079Y-104285800D01*
X133527079Y-104285800D02*
X133222521Y-104285800D01*
G36*
X133668500Y-104427221D02*
G01*
X133668500Y-104731779D01*
X133527079Y-104873200D01*
X133222521Y-104873200D01*
X133081100Y-104731779D01*
X133081100Y-104427221D01*
X133222521Y-104285800D01*
X133527079Y-104285800D01*
X133668500Y-104427221D01*
G37*
X133668500Y-104427221D02*
X133668500Y-104731779D01*
X133527079Y-104873200D01*
X133222521Y-104873200D01*
X133081100Y-104731779D01*
X133081100Y-104427221D01*
X133222521Y-104285800D01*
X133527079Y-104285800D01*
X133668500Y-104427221D01*
X136230700Y-99867030D02*
X136230700Y-100007379D01*
X136230700Y-100007379D02*
X136372121Y-100148800D01*
X136372121Y-100148800D02*
X136676679Y-100148800D01*
X136676679Y-100148800D02*
X136818100Y-100007379D01*
X136818100Y-100007379D02*
X136818100Y-99867030D01*
X136818100Y-99867030D02*
X136230700Y-99867030D01*
G36*
X136818100Y-100007379D02*
G01*
X136676679Y-100148800D01*
X136372121Y-100148800D01*
X136230700Y-100007379D01*
X136230700Y-99867030D01*
X136818100Y-99867030D01*
X136818100Y-100007379D01*
G37*
X136818100Y-100007379D02*
X136676679Y-100148800D01*
X136372121Y-100148800D01*
X136230700Y-100007379D01*
X136230700Y-99867030D01*
X136818100Y-99867030D01*
X136818100Y-100007379D01*
X137159521Y-101136200D02*
X137018100Y-101277621D01*
X137018100Y-101277621D02*
X137018100Y-101582179D01*
X137018100Y-101582179D02*
X137159521Y-101723600D01*
X137159521Y-101723600D02*
X137464079Y-101723600D01*
X137464079Y-101723600D02*
X137605500Y-101582179D01*
X137605500Y-101582179D02*
X137605500Y-101277621D01*
X137605500Y-101277621D02*
X137464079Y-101136200D01*
X137464079Y-101136200D02*
X137159521Y-101136200D01*
G36*
X137605500Y-101277621D02*
G01*
X137605500Y-101582179D01*
X137464079Y-101723600D01*
X137159521Y-101723600D01*
X137018100Y-101582179D01*
X137018100Y-101277621D01*
X137159521Y-101136200D01*
X137464079Y-101136200D01*
X137605500Y-101277621D01*
G37*
X137605500Y-101277621D02*
X137605500Y-101582179D01*
X137464079Y-101723600D01*
X137159521Y-101723600D01*
X137018100Y-101582179D01*
X137018100Y-101277621D01*
X137159521Y-101136200D01*
X137464079Y-101136200D01*
X137605500Y-101277621D01*
X137159521Y-104285800D02*
X137018100Y-104427221D01*
X137018100Y-104427221D02*
X137018100Y-104731779D01*
X137018100Y-104731779D02*
X137159521Y-104873200D01*
X137159521Y-104873200D02*
X137464079Y-104873200D01*
X137464079Y-104873200D02*
X137605500Y-104731779D01*
X137605500Y-104731779D02*
X137605500Y-104427221D01*
X137605500Y-104427221D02*
X137464079Y-104285800D01*
X137464079Y-104285800D02*
X137159521Y-104285800D01*
G36*
X137605500Y-104427221D02*
G01*
X137605500Y-104731779D01*
X137464079Y-104873200D01*
X137159521Y-104873200D01*
X137018100Y-104731779D01*
X137018100Y-104427221D01*
X137159521Y-104285800D01*
X137464079Y-104285800D01*
X137605500Y-104427221D01*
G37*
X137605500Y-104427221D02*
X137605500Y-104731779D01*
X137464079Y-104873200D01*
X137159521Y-104873200D01*
X137018100Y-104731779D01*
X137018100Y-104427221D01*
X137159521Y-104285800D01*
X137464079Y-104285800D01*
X137605500Y-104427221D01*
X133222521Y-103498400D02*
X133081100Y-103639821D01*
X133081100Y-103639821D02*
X133081100Y-103944379D01*
X133081100Y-103944379D02*
X133222521Y-104085800D01*
X133222521Y-104085800D02*
X133527079Y-104085800D01*
X133527079Y-104085800D02*
X133668500Y-103944379D01*
X133668500Y-103944379D02*
X133668500Y-103639821D01*
X133668500Y-103639821D02*
X133527079Y-103498400D01*
X133527079Y-103498400D02*
X133222521Y-103498400D01*
G36*
X133668500Y-103639821D02*
G01*
X133668500Y-103944379D01*
X133527079Y-104085800D01*
X133222521Y-104085800D01*
X133081100Y-103944379D01*
X133081100Y-103639821D01*
X133222521Y-103498400D01*
X133527079Y-103498400D01*
X133668500Y-103639821D01*
G37*
X133668500Y-103639821D02*
X133668500Y-103944379D01*
X133527079Y-104085800D01*
X133222521Y-104085800D01*
X133081100Y-103944379D01*
X133081100Y-103639821D01*
X133222521Y-103498400D01*
X133527079Y-103498400D01*
X133668500Y-103639821D01*
X138734321Y-105860600D02*
X138592900Y-106002021D01*
X138592900Y-106002021D02*
X138592900Y-106306579D01*
X138592900Y-106306579D02*
X138734321Y-106448000D01*
X138734321Y-106448000D02*
X139038879Y-106448000D01*
X139038879Y-106448000D02*
X139180300Y-106306579D01*
X139180300Y-106306579D02*
X139180300Y-106002021D01*
X139180300Y-106002021D02*
X139038879Y-105860600D01*
X139038879Y-105860600D02*
X138734321Y-105860600D01*
G36*
X139180300Y-106002021D02*
G01*
X139180300Y-106306579D01*
X139038879Y-106448000D01*
X138734321Y-106448000D01*
X138592900Y-106306579D01*
X138592900Y-106002021D01*
X138734321Y-105860600D01*
X139038879Y-105860600D01*
X139180300Y-106002021D01*
G37*
X139180300Y-106002021D02*
X139180300Y-106306579D01*
X139038879Y-106448000D01*
X138734321Y-106448000D01*
X138592900Y-106306579D01*
X138592900Y-106002021D01*
X138734321Y-105860600D01*
X139038879Y-105860600D01*
X139180300Y-106002021D01*
X138734321Y-101136200D02*
X138592900Y-101277621D01*
X138592900Y-101277621D02*
X138592900Y-101582179D01*
X138592900Y-101582179D02*
X138734321Y-101723600D01*
X138734321Y-101723600D02*
X139038879Y-101723600D01*
X139038879Y-101723600D02*
X139180300Y-101582179D01*
X139180300Y-101582179D02*
X139180300Y-101277621D01*
X139180300Y-101277621D02*
X139038879Y-101136200D01*
X139038879Y-101136200D02*
X138734321Y-101136200D01*
G36*
X139180300Y-101277621D02*
G01*
X139180300Y-101582179D01*
X139038879Y-101723600D01*
X138734321Y-101723600D01*
X138592900Y-101582179D01*
X138592900Y-101277621D01*
X138734321Y-101136200D01*
X139038879Y-101136200D01*
X139180300Y-101277621D01*
G37*
X139180300Y-101277621D02*
X139180300Y-101582179D01*
X139038879Y-101723600D01*
X138734321Y-101723600D01*
X138592900Y-101582179D01*
X138592900Y-101277621D01*
X138734321Y-101136200D01*
X139038879Y-101136200D01*
X139180300Y-101277621D01*
X134797321Y-107435400D02*
X134655900Y-107576821D01*
X134655900Y-107576821D02*
X134655900Y-107717170D01*
X134655900Y-107717170D02*
X135243300Y-107717170D01*
X135243300Y-107717170D02*
X135243300Y-107576821D01*
X135243300Y-107576821D02*
X135101879Y-107435400D01*
X135101879Y-107435400D02*
X134797321Y-107435400D01*
G36*
X135243300Y-107576821D02*
G01*
X135243300Y-107717170D01*
X134655900Y-107717170D01*
X134655900Y-107576821D01*
X134797321Y-107435400D01*
X135101879Y-107435400D01*
X135243300Y-107576821D01*
G37*
X135243300Y-107576821D02*
X135243300Y-107717170D01*
X134655900Y-107717170D01*
X134655900Y-107576821D01*
X134797321Y-107435400D01*
X135101879Y-107435400D01*
X135243300Y-107576821D01*
X135584721Y-100348800D02*
X135443300Y-100490221D01*
X135443300Y-100490221D02*
X135443300Y-100794779D01*
X135443300Y-100794779D02*
X135584721Y-100936200D01*
X135584721Y-100936200D02*
X135889279Y-100936200D01*
X135889279Y-100936200D02*
X136030700Y-100794779D01*
X136030700Y-100794779D02*
X136030700Y-100490221D01*
X136030700Y-100490221D02*
X135889279Y-100348800D01*
X135889279Y-100348800D02*
X135584721Y-100348800D01*
G36*
X136030700Y-100490221D02*
G01*
X136030700Y-100794779D01*
X135889279Y-100936200D01*
X135584721Y-100936200D01*
X135443300Y-100794779D01*
X135443300Y-100490221D01*
X135584721Y-100348800D01*
X135889279Y-100348800D01*
X136030700Y-100490221D01*
G37*
X136030700Y-100490221D02*
X136030700Y-100794779D01*
X135889279Y-100936200D01*
X135584721Y-100936200D01*
X135443300Y-100794779D01*
X135443300Y-100490221D01*
X135584721Y-100348800D01*
X135889279Y-100348800D01*
X136030700Y-100490221D01*
X139521721Y-103498400D02*
X139380300Y-103639821D01*
X139380300Y-103639821D02*
X139380300Y-103944379D01*
X139380300Y-103944379D02*
X139521721Y-104085800D01*
X139521721Y-104085800D02*
X139662070Y-104085800D01*
X139662070Y-104085800D02*
X139662070Y-103498400D01*
X139662070Y-103498400D02*
X139521721Y-103498400D01*
G36*
X139662070Y-104085800D02*
G01*
X139521721Y-104085800D01*
X139380300Y-103944379D01*
X139380300Y-103639821D01*
X139521721Y-103498400D01*
X139662070Y-103498400D01*
X139662070Y-104085800D01*
G37*
X139662070Y-104085800D02*
X139521721Y-104085800D01*
X139380300Y-103944379D01*
X139380300Y-103639821D01*
X139521721Y-103498400D01*
X139662070Y-103498400D01*
X139662070Y-104085800D01*
X131811930Y-105860600D02*
X131811930Y-106448000D01*
X131811930Y-106448000D02*
X131952279Y-106448000D01*
X131952279Y-106448000D02*
X132093700Y-106306579D01*
X132093700Y-106306579D02*
X132093700Y-106002021D01*
X132093700Y-106002021D02*
X131952279Y-105860600D01*
X131952279Y-105860600D02*
X131811930Y-105860600D01*
G36*
X132093700Y-106002021D02*
G01*
X132093700Y-106306579D01*
X131952279Y-106448000D01*
X131811930Y-106448000D01*
X131811930Y-105860600D01*
X131952279Y-105860600D01*
X132093700Y-106002021D01*
G37*
X132093700Y-106002021D02*
X132093700Y-106306579D01*
X131952279Y-106448000D01*
X131811930Y-106448000D01*
X131811930Y-105860600D01*
X131952279Y-105860600D01*
X132093700Y-106002021D01*
X138734321Y-102711000D02*
X138592900Y-102852421D01*
X138592900Y-102852421D02*
X138592900Y-103156979D01*
X138592900Y-103156979D02*
X138734321Y-103298400D01*
X138734321Y-103298400D02*
X139038879Y-103298400D01*
X139038879Y-103298400D02*
X139180300Y-103156979D01*
X139180300Y-103156979D02*
X139180300Y-102852421D01*
X139180300Y-102852421D02*
X139038879Y-102711000D01*
X139038879Y-102711000D02*
X138734321Y-102711000D01*
G36*
X139180300Y-102852421D02*
G01*
X139180300Y-103156979D01*
X139038879Y-103298400D01*
X138734321Y-103298400D01*
X138592900Y-103156979D01*
X138592900Y-102852421D01*
X138734321Y-102711000D01*
X139038879Y-102711000D01*
X139180300Y-102852421D01*
G37*
X139180300Y-102852421D02*
X139180300Y-103156979D01*
X139038879Y-103298400D01*
X138734321Y-103298400D01*
X138592900Y-103156979D01*
X138592900Y-102852421D01*
X138734321Y-102711000D01*
X139038879Y-102711000D01*
X139180300Y-102852421D01*
X132435121Y-101923600D02*
X132293700Y-102065021D01*
X132293700Y-102065021D02*
X132293700Y-102369579D01*
X132293700Y-102369579D02*
X132435121Y-102511000D01*
X132435121Y-102511000D02*
X132739679Y-102511000D01*
X132739679Y-102511000D02*
X132881100Y-102369579D01*
X132881100Y-102369579D02*
X132881100Y-102065021D01*
X132881100Y-102065021D02*
X132739679Y-101923600D01*
X132739679Y-101923600D02*
X132435121Y-101923600D01*
G36*
X132881100Y-102065021D02*
G01*
X132881100Y-102369579D01*
X132739679Y-102511000D01*
X132435121Y-102511000D01*
X132293700Y-102369579D01*
X132293700Y-102065021D01*
X132435121Y-101923600D01*
X132739679Y-101923600D01*
X132881100Y-102065021D01*
G37*
X132881100Y-102065021D02*
X132881100Y-102369579D01*
X132739679Y-102511000D01*
X132435121Y-102511000D01*
X132293700Y-102369579D01*
X132293700Y-102065021D01*
X132435121Y-101923600D01*
X132739679Y-101923600D01*
X132881100Y-102065021D01*
X133222521Y-106648000D02*
X133081100Y-106789421D01*
X133081100Y-106789421D02*
X133081100Y-107093979D01*
X133081100Y-107093979D02*
X133222521Y-107235400D01*
X133222521Y-107235400D02*
X133527079Y-107235400D01*
X133527079Y-107235400D02*
X133668500Y-107093979D01*
X133668500Y-107093979D02*
X133668500Y-106789421D01*
X133668500Y-106789421D02*
X133527079Y-106648000D01*
X133527079Y-106648000D02*
X133222521Y-106648000D01*
G36*
X133668500Y-106789421D02*
G01*
X133668500Y-107093979D01*
X133527079Y-107235400D01*
X133222521Y-107235400D01*
X133081100Y-107093979D01*
X133081100Y-106789421D01*
X133222521Y-106648000D01*
X133527079Y-106648000D01*
X133668500Y-106789421D01*
G37*
X133668500Y-106789421D02*
X133668500Y-107093979D01*
X133527079Y-107235400D01*
X133222521Y-107235400D01*
X133081100Y-107093979D01*
X133081100Y-106789421D01*
X133222521Y-106648000D01*
X133527079Y-106648000D01*
X133668500Y-106789421D01*
X135584721Y-102711000D02*
X135443300Y-102852421D01*
X135443300Y-102852421D02*
X135443300Y-103156979D01*
X135443300Y-103156979D02*
X135584721Y-103298400D01*
X135584721Y-103298400D02*
X135889279Y-103298400D01*
X135889279Y-103298400D02*
X136030700Y-103156979D01*
X136030700Y-103156979D02*
X136030700Y-102852421D01*
X136030700Y-102852421D02*
X135889279Y-102711000D01*
X135889279Y-102711000D02*
X135584721Y-102711000D01*
G36*
X136030700Y-102852421D02*
G01*
X136030700Y-103156979D01*
X135889279Y-103298400D01*
X135584721Y-103298400D01*
X135443300Y-103156979D01*
X135443300Y-102852421D01*
X135584721Y-102711000D01*
X135889279Y-102711000D01*
X136030700Y-102852421D01*
G37*
X136030700Y-102852421D02*
X136030700Y-103156979D01*
X135889279Y-103298400D01*
X135584721Y-103298400D01*
X135443300Y-103156979D01*
X135443300Y-102852421D01*
X135584721Y-102711000D01*
X135889279Y-102711000D01*
X136030700Y-102852421D01*
X139380300Y-99867030D02*
X139380300Y-100007379D01*
X139380300Y-100007379D02*
X139521721Y-100148800D01*
X139521721Y-100148800D02*
X139662070Y-100148800D01*
X139662070Y-100148800D02*
X139662070Y-99867030D01*
X139662070Y-99867030D02*
X139380300Y-99867030D01*
G36*
X139662070Y-100148800D02*
G01*
X139521721Y-100148800D01*
X139380300Y-100007379D01*
X139380300Y-99867030D01*
X139662070Y-99867030D01*
X139662070Y-100148800D01*
G37*
X139662070Y-100148800D02*
X139521721Y-100148800D01*
X139380300Y-100007379D01*
X139380300Y-99867030D01*
X139662070Y-99867030D01*
X139662070Y-100148800D01*
D11*
X124175000Y-104300000D03*
X125825000Y-104300000D03*
D12*
X168700000Y-119850000D03*
X168700000Y-117950000D03*
D13*
X122250000Y-98562500D03*
X120350000Y-98562500D03*
X121300000Y-100437500D03*
D14*
X170900000Y-119475000D03*
X170900000Y-117925000D03*
D12*
X168700000Y-115450000D03*
X168700000Y-113550000D03*
D15*
X153200000Y-110087500D03*
X153200000Y-114712500D03*
D16*
X138075000Y-93900000D03*
X135125000Y-93900000D03*
D17*
X115200000Y-97875000D03*
X115200000Y-99525000D03*
D18*
X128011852Y-97792102D03*
X128011852Y-98592100D03*
X128011852Y-99392101D03*
X128011852Y-100192100D03*
X128011852Y-100992101D03*
X128011852Y-101792099D03*
X128011852Y-102592100D03*
X128011852Y-103392101D03*
X128011852Y-104192099D03*
X128011852Y-104992100D03*
X128011852Y-105792099D03*
X128011852Y-106592099D03*
X128011852Y-107392100D03*
X128011852Y-108192099D03*
X128011852Y-108992100D03*
X128011852Y-109792098D03*
D19*
X129737002Y-111517248D03*
X130537000Y-111517248D03*
X131337001Y-111517248D03*
X132137000Y-111517248D03*
X132937001Y-111517248D03*
X133737001Y-111517248D03*
X134537000Y-111517248D03*
X135337001Y-111517248D03*
X136136999Y-111517248D03*
X136937000Y-111517248D03*
X137737001Y-111517248D03*
X138536999Y-111517248D03*
X139337000Y-111517248D03*
X140136999Y-111517248D03*
X140937000Y-111517248D03*
X141736998Y-111517248D03*
D18*
X143462148Y-109792098D03*
X143462148Y-108992100D03*
X143462148Y-108192099D03*
X143462148Y-107392100D03*
X143462148Y-106592099D03*
X143462148Y-105792099D03*
X143462148Y-104992100D03*
X143462148Y-104192099D03*
X143462148Y-103392101D03*
X143462148Y-102592100D03*
X143462148Y-101792099D03*
X143462148Y-100992101D03*
X143462148Y-100192100D03*
X143462148Y-99392101D03*
X143462148Y-98592100D03*
X143462148Y-97792102D03*
D19*
X141736998Y-96066952D03*
X140937000Y-96066952D03*
X140136999Y-96066952D03*
X139337000Y-96066952D03*
X138536999Y-96066952D03*
X137736999Y-96066952D03*
X136937000Y-96066952D03*
X136136999Y-96066952D03*
X135337001Y-96066952D03*
X134537000Y-96066952D03*
X133736999Y-96066952D03*
X132937001Y-96066952D03*
X132137000Y-96066952D03*
X131337001Y-96066952D03*
X130537000Y-96066952D03*
X129737002Y-96066952D03*
D20*
X127245000Y-114390000D03*
X130195000Y-114390000D03*
X122725000Y-110200000D03*
X125675000Y-110200000D03*
D21*
X150800000Y-114380000D03*
X150800000Y-113420000D03*
D22*
X111400000Y-103412500D03*
X111400000Y-101587500D03*
D23*
X133775000Y-114000000D03*
X132225000Y-114000000D03*
D15*
X154070000Y-101432500D03*
X154070000Y-106057500D03*
D14*
X171895000Y-105505000D03*
X171895000Y-103955000D03*
D22*
X117700000Y-103412500D03*
X117700000Y-101587500D03*
D16*
X139075000Y-114300000D03*
X136125000Y-114300000D03*
D14*
X171895000Y-108905000D03*
X171895000Y-107355000D03*
D12*
X134125000Y-76415000D03*
X134125000Y-74515000D03*
X169595000Y-109300000D03*
X169595000Y-107400000D03*
D22*
X114500000Y-103412500D03*
X114500000Y-101587500D03*
D14*
X170900000Y-115475000D03*
X170900000Y-113925000D03*
D21*
X151670000Y-101925000D03*
X151670000Y-100965000D03*
D23*
X125775000Y-107800000D03*
X124225000Y-107800000D03*
X125975000Y-101500000D03*
X124425000Y-101500000D03*
D21*
X150800000Y-118180000D03*
X150800000Y-117220000D03*
D12*
X137025000Y-76415000D03*
X137025000Y-74515000D03*
X169595000Y-105380000D03*
X169595000Y-103480000D03*
D15*
X154070000Y-94832500D03*
X154070000Y-99457500D03*
D24*
X105100000Y-106525000D03*
X105100000Y-104875000D03*
D25*
X124751000Y-86780000D03*
X124751000Y-76620000D03*
D26*
X102678400Y-81700000D03*
D27*
X124425000Y-99400000D03*
X125975000Y-99400000D03*
D15*
X153200000Y-116587500D03*
X153200000Y-121212500D03*
D12*
X140225000Y-76415000D03*
X140225000Y-74515000D03*
X142925000Y-76440000D03*
X142925000Y-74540000D03*
D23*
X125775000Y-106000000D03*
X124225000Y-106000000D03*
D21*
X151670000Y-99925000D03*
X151670000Y-98965000D03*
M02*
