%FSLAX45Y45*%
G04 Gerber Fmt 4.5, Leading zero omitted, Abs format (unit mm)*
G04 Created by KiCad (PCBNEW (6.0.1)) date 2022-04-24 16:27:48*
%MOMM*%
%LPD*%
G01*
G04 APERTURE LIST*
%TA.AperFunction,Profile*%
%ADD10C,0.100000*%
%TD*%
%ADD11C,0.200000*%
%ADD12C,0.040000*%
%ADD13C,0.050800*%
%ADD14C,0.080000*%
%ADD15C,0.099060*%
%ADD16C,0.100000*%
%ADD17C,0.110000*%
G04 APERTURE END LIST*
D10*
X9650000Y-6700000D02*
X18210000Y-6700000D01*
X18210000Y-6700000D02*
X18210000Y-13150000D01*
X18210000Y-13150000D02*
X9650000Y-13150000D01*
X9650000Y-13150000D02*
X9650000Y-6700000D01*
D11*
D12*
X10013000Y-9759000D02*
X10053000Y-9799000D01*
X10053000Y-9759000D02*
X10013000Y-9799000D01*
X10013000Y-10521000D02*
X10053000Y-10561000D01*
X10053000Y-10521000D02*
X10013000Y-10561000D01*
X10013000Y-11410000D02*
X10053000Y-11450000D01*
X10053000Y-11410000D02*
X10013000Y-11450000D01*
X10016000Y-12046000D02*
X10056000Y-12086000D01*
X10056000Y-12046000D02*
X10016000Y-12086000D01*
X10521000Y-10902000D02*
X10561000Y-10942000D01*
X10561000Y-10902000D02*
X10521000Y-10942000D01*
X10521000Y-11156000D02*
X10561000Y-11196000D01*
X10561000Y-11156000D02*
X10521000Y-11196000D01*
X10660000Y-10640000D02*
X10700000Y-10680000D01*
X10700000Y-10640000D02*
X10660000Y-10680000D01*
X10775000Y-12553000D02*
X10815000Y-12593000D01*
X10815000Y-12553000D02*
X10775000Y-12593000D01*
X10930000Y-10320000D02*
X10970000Y-10360000D01*
X10970000Y-10320000D02*
X10930000Y-10360000D01*
X11280000Y-10320000D02*
X11320000Y-10360000D01*
X11320000Y-10320000D02*
X11280000Y-10360000D01*
X11283000Y-12553000D02*
X11323000Y-12593000D01*
X11323000Y-12553000D02*
X11283000Y-12593000D01*
X11590000Y-10330000D02*
X11630000Y-10370000D01*
X11630000Y-10330000D02*
X11590000Y-10370000D01*
X11870000Y-7100000D02*
X11910000Y-7140000D01*
X11910000Y-7100000D02*
X11870000Y-7140000D01*
X11870000Y-7350000D02*
X11910000Y-7390000D01*
X11910000Y-7350000D02*
X11870000Y-7390000D01*
X11870000Y-7590000D02*
X11910000Y-7630000D01*
X11910000Y-7590000D02*
X11870000Y-7630000D01*
X11870000Y-7790000D02*
X11910000Y-7830000D01*
X11910000Y-7790000D02*
X11870000Y-7830000D01*
X12110000Y-10230000D02*
X12150000Y-10270000D01*
X12150000Y-10230000D02*
X12110000Y-10270000D01*
X12172000Y-10521000D02*
X12212000Y-10561000D01*
X12212000Y-10521000D02*
X12172000Y-10561000D01*
X12172000Y-10775000D02*
X12212000Y-10815000D01*
X12212000Y-10775000D02*
X12172000Y-10815000D01*
X12190000Y-7100000D02*
X12230000Y-7140000D01*
X12230000Y-7100000D02*
X12190000Y-7140000D01*
X12450000Y-7100000D02*
X12490000Y-7140000D01*
X12490000Y-7100000D02*
X12450000Y-7140000D01*
X12500000Y-10020000D02*
X12540000Y-10060000D01*
X12540000Y-10020000D02*
X12500000Y-10060000D01*
X12560000Y-9760000D02*
X12600000Y-9800000D01*
X12600000Y-9760000D02*
X12560000Y-9800000D01*
X12660000Y-7100000D02*
X12700000Y-7140000D01*
X12700000Y-7100000D02*
X12660000Y-7140000D01*
X12680000Y-12807000D02*
X12720000Y-12847000D01*
X12720000Y-12807000D02*
X12680000Y-12847000D01*
X12760000Y-9570000D02*
X12800000Y-9610000D01*
X12800000Y-9570000D02*
X12760000Y-9610000D01*
X12780000Y-11130000D02*
X12820000Y-11170000D01*
X12820000Y-11130000D02*
X12780000Y-11170000D01*
X12934000Y-9124000D02*
X12974000Y-9164000D01*
X12974000Y-9124000D02*
X12934000Y-9164000D01*
X12950000Y-10000000D02*
X12990000Y-10040000D01*
X12990000Y-10000000D02*
X12950000Y-10040000D01*
X12950000Y-10160000D02*
X12990000Y-10200000D01*
X12990000Y-10160000D02*
X12950000Y-10200000D01*
X12950000Y-10320000D02*
X12990000Y-10360000D01*
X12990000Y-10320000D02*
X12950000Y-10360000D01*
X13040000Y-9370000D02*
X13080000Y-9410000D01*
X13080000Y-9370000D02*
X13040000Y-9410000D01*
X13061000Y-10902000D02*
X13101000Y-10942000D01*
X13101000Y-10902000D02*
X13061000Y-10942000D01*
X13061000Y-12426000D02*
X13101000Y-12466000D01*
X13101000Y-12426000D02*
X13061000Y-12466000D01*
X13188000Y-12807000D02*
X13228000Y-12847000D01*
X13228000Y-12807000D02*
X13188000Y-12847000D01*
X13315000Y-10902000D02*
X13355000Y-10942000D01*
X13355000Y-10902000D02*
X13315000Y-10942000D01*
X13409000Y-7088000D02*
X13449000Y-7128000D01*
X13449000Y-7088000D02*
X13409000Y-7128000D01*
X13470000Y-11280000D02*
X13510000Y-11320000D01*
X13510000Y-11280000D02*
X13470000Y-11320000D01*
X13670000Y-12110000D02*
X13710000Y-12150000D01*
X13710000Y-12110000D02*
X13670000Y-12150000D01*
X13680000Y-8230000D02*
X13720000Y-8270000D01*
X13720000Y-8230000D02*
X13680000Y-8270000D01*
X13680000Y-8510000D02*
X13720000Y-8550000D01*
X13720000Y-8510000D02*
X13680000Y-8550000D01*
X13696000Y-12807000D02*
X13736000Y-12847000D01*
X13736000Y-12807000D02*
X13696000Y-12847000D01*
X13721000Y-7092000D02*
X13761000Y-7132000D01*
X13761000Y-7092000D02*
X13721000Y-7132000D01*
X14040000Y-7092000D02*
X14080000Y-7132000D01*
X14080000Y-7092000D02*
X14040000Y-7132000D01*
X14050000Y-8230000D02*
X14090000Y-8270000D01*
X14090000Y-8230000D02*
X14050000Y-8270000D01*
X14050000Y-8510000D02*
X14090000Y-8550000D01*
X14090000Y-8510000D02*
X14050000Y-8550000D01*
X14077000Y-9378000D02*
X14117000Y-9418000D01*
X14117000Y-9378000D02*
X14077000Y-9418000D01*
X14077000Y-10902000D02*
X14117000Y-10942000D01*
X14117000Y-10902000D02*
X14077000Y-10942000D01*
X14297000Y-7092000D02*
X14337000Y-7132000D01*
X14337000Y-7092000D02*
X14297000Y-7132000D01*
X14330000Y-9590000D02*
X14370000Y-9630000D01*
X14370000Y-9590000D02*
X14330000Y-9630000D01*
X14331000Y-9378000D02*
X14371000Y-9418000D01*
X14371000Y-9378000D02*
X14331000Y-9418000D01*
X14331000Y-12807000D02*
X14371000Y-12847000D01*
X14371000Y-12807000D02*
X14331000Y-12847000D01*
X14458000Y-12426000D02*
X14498000Y-12466000D01*
X14498000Y-12426000D02*
X14458000Y-12466000D01*
X14530000Y-10200000D02*
X14570000Y-10240000D01*
X14570000Y-10200000D02*
X14530000Y-10240000D01*
X14530000Y-10420000D02*
X14570000Y-10460000D01*
X14570000Y-10420000D02*
X14530000Y-10460000D01*
X14630000Y-10530000D02*
X14670000Y-10570000D01*
X14670000Y-10530000D02*
X14630000Y-10570000D01*
X14712000Y-8870000D02*
X14752000Y-8910000D01*
X14752000Y-8870000D02*
X14712000Y-8910000D01*
X14712000Y-9124000D02*
X14752000Y-9164000D01*
X14752000Y-9124000D02*
X14712000Y-9164000D01*
X14839000Y-12807000D02*
X14879000Y-12847000D01*
X14879000Y-12807000D02*
X14839000Y-12847000D01*
X14900000Y-10310000D02*
X14940000Y-10350000D01*
X14940000Y-10310000D02*
X14900000Y-10350000D01*
X15030000Y-9990000D02*
X15070000Y-10030000D01*
X15070000Y-9990000D02*
X15030000Y-10030000D01*
X15040000Y-10590000D02*
X15080000Y-10630000D01*
X15080000Y-10590000D02*
X15040000Y-10630000D01*
X15060000Y-11560000D02*
X15100000Y-11600000D01*
X15100000Y-11560000D02*
X15060000Y-11600000D01*
X15347000Y-12680000D02*
X15387000Y-12720000D01*
X15387000Y-12680000D02*
X15347000Y-12720000D01*
X16109000Y-10775000D02*
X16149000Y-10815000D01*
X16149000Y-10775000D02*
X16109000Y-10815000D01*
X16109000Y-11283000D02*
X16149000Y-11323000D01*
X16149000Y-11283000D02*
X16109000Y-11323000D01*
X16109000Y-11664000D02*
X16149000Y-11704000D01*
X16149000Y-11664000D02*
X16109000Y-11704000D01*
X16109000Y-12045000D02*
X16149000Y-12085000D01*
X16149000Y-12045000D02*
X16109000Y-12085000D01*
X16197000Y-10034500D02*
X16237000Y-10074500D01*
X16237000Y-10034500D02*
X16197000Y-10074500D01*
X16236000Y-12680000D02*
X16276000Y-12720000D01*
X16276000Y-12680000D02*
X16236000Y-12720000D01*
X16363000Y-7981000D02*
X16403000Y-8021000D01*
X16403000Y-7981000D02*
X16363000Y-8021000D01*
X16363000Y-8489000D02*
X16403000Y-8529000D01*
X16403000Y-8489000D02*
X16363000Y-8529000D01*
X16363000Y-8997000D02*
X16403000Y-9037000D01*
X16403000Y-8997000D02*
X16363000Y-9037000D01*
X16366000Y-7475000D02*
X16406000Y-7515000D01*
X16406000Y-7475000D02*
X16366000Y-7515000D01*
X16871000Y-12680000D02*
X16911000Y-12720000D01*
X16911000Y-12680000D02*
X16871000Y-12720000D01*
X16970000Y-11650000D02*
X17010000Y-11690000D01*
X17010000Y-11650000D02*
X16970000Y-11690000D01*
X16998000Y-7473000D02*
X17038000Y-7513000D01*
X17038000Y-7473000D02*
X16998000Y-7513000D01*
X16998000Y-7981000D02*
X17038000Y-8021000D01*
X17038000Y-7981000D02*
X16998000Y-8021000D01*
X16998000Y-8489000D02*
X17038000Y-8529000D01*
X17038000Y-8489000D02*
X16998000Y-8529000D01*
X16998000Y-8997000D02*
X17038000Y-9037000D01*
X17038000Y-8997000D02*
X16998000Y-9037000D01*
X17059500Y-10623000D02*
X17099500Y-10663000D01*
X17099500Y-10623000D02*
X17059500Y-10663000D01*
X17252000Y-9632000D02*
X17292000Y-9672000D01*
X17292000Y-9632000D02*
X17252000Y-9672000D01*
X17506000Y-10013000D02*
X17546000Y-10053000D01*
X17546000Y-10013000D02*
X17506000Y-10053000D01*
X17760000Y-9632000D02*
X17800000Y-9672000D01*
X17800000Y-9632000D02*
X17760000Y-9672000D01*
X17887000Y-10013000D02*
X17927000Y-10053000D01*
X17927000Y-10013000D02*
X17887000Y-10053000D01*
D13*
X13244770Y-10103620D02*
G75*
G03*
X13244770Y-10103620I-25400J0D01*
G01*
X13244770Y-10261100D02*
G75*
G03*
X13244770Y-10261100I-25400J0D01*
G01*
X13244770Y-10418580D02*
G75*
G03*
X13244770Y-10418580I-25400J0D01*
G01*
X13244770Y-10576060D02*
G75*
G03*
X13244770Y-10576060I-25400J0D01*
G01*
X13244770Y-10733540D02*
G75*
G03*
X13244770Y-10733540I-25400J0D01*
G01*
X13323510Y-10024880D02*
G75*
G03*
X13323510Y-10024880I-25400J0D01*
G01*
X13323510Y-10182360D02*
G75*
G03*
X13323510Y-10182360I-25400J0D01*
G01*
X13323510Y-10339840D02*
G75*
G03*
X13323510Y-10339840I-25400J0D01*
G01*
X13323510Y-10497320D02*
G75*
G03*
X13323510Y-10497320I-25400J0D01*
G01*
X13323510Y-10654800D02*
G75*
G03*
X13323510Y-10654800I-25400J0D01*
G01*
X13402250Y-10103620D02*
G75*
G03*
X13402250Y-10103620I-25400J0D01*
G01*
X13402250Y-10261100D02*
G75*
G03*
X13402250Y-10261100I-25400J0D01*
G01*
X13402250Y-10418580D02*
G75*
G03*
X13402250Y-10418580I-25400J0D01*
G01*
X13402250Y-10576060D02*
G75*
G03*
X13402250Y-10576060I-25400J0D01*
G01*
X13402250Y-10733540D02*
G75*
G03*
X13402250Y-10733540I-25400J0D01*
G01*
X13480990Y-10024880D02*
G75*
G03*
X13480990Y-10024880I-25400J0D01*
G01*
X13480990Y-10182360D02*
G75*
G03*
X13480990Y-10182360I-25400J0D01*
G01*
X13480990Y-10339840D02*
G75*
G03*
X13480990Y-10339840I-25400J0D01*
G01*
X13480990Y-10497320D02*
G75*
G03*
X13480990Y-10497320I-25400J0D01*
G01*
X13480990Y-10654800D02*
G75*
G03*
X13480990Y-10654800I-25400J0D01*
G01*
X13559730Y-10103620D02*
G75*
G03*
X13559730Y-10103620I-25400J0D01*
G01*
X13559730Y-10261100D02*
G75*
G03*
X13559730Y-10261100I-25400J0D01*
G01*
X13559730Y-10418580D02*
G75*
G03*
X13559730Y-10418580I-25400J0D01*
G01*
X13559730Y-10576060D02*
G75*
G03*
X13559730Y-10576060I-25400J0D01*
G01*
X13559730Y-10733540D02*
G75*
G03*
X13559730Y-10733540I-25400J0D01*
G01*
X13638470Y-10024880D02*
G75*
G03*
X13638470Y-10024880I-25400J0D01*
G01*
X13638470Y-10182360D02*
G75*
G03*
X13638470Y-10182360I-25400J0D01*
G01*
X13638470Y-10339840D02*
G75*
G03*
X13638470Y-10339840I-25400J0D01*
G01*
X13638470Y-10497320D02*
G75*
G03*
X13638470Y-10497320I-25400J0D01*
G01*
X13638470Y-10654800D02*
G75*
G03*
X13638470Y-10654800I-25400J0D01*
G01*
X13717210Y-10103620D02*
G75*
G03*
X13717210Y-10103620I-25400J0D01*
G01*
X13717210Y-10261100D02*
G75*
G03*
X13717210Y-10261100I-25400J0D01*
G01*
X13717210Y-10418580D02*
G75*
G03*
X13717210Y-10418580I-25400J0D01*
G01*
X13717210Y-10576060D02*
G75*
G03*
X13717210Y-10576060I-25400J0D01*
G01*
X13717210Y-10733540D02*
G75*
G03*
X13717210Y-10733540I-25400J0D01*
G01*
X13795950Y-10024880D02*
G75*
G03*
X13795950Y-10024880I-25400J0D01*
G01*
X13795950Y-10182360D02*
G75*
G03*
X13795950Y-10182360I-25400J0D01*
G01*
X13795950Y-10339840D02*
G75*
G03*
X13795950Y-10339840I-25400J0D01*
G01*
X13795950Y-10497320D02*
G75*
G03*
X13795950Y-10497320I-25400J0D01*
G01*
X13795950Y-10654800D02*
G75*
G03*
X13795950Y-10654800I-25400J0D01*
G01*
X13874690Y-10103620D02*
G75*
G03*
X13874690Y-10103620I-25400J0D01*
G01*
X13874690Y-10261100D02*
G75*
G03*
X13874690Y-10261100I-25400J0D01*
G01*
X13874690Y-10418580D02*
G75*
G03*
X13874690Y-10418580I-25400J0D01*
G01*
X13874690Y-10576060D02*
G75*
G03*
X13874690Y-10576060I-25400J0D01*
G01*
X13874690Y-10733540D02*
G75*
G03*
X13874690Y-10733540I-25400J0D01*
G01*
X13953430Y-10024880D02*
G75*
G03*
X13953430Y-10024880I-25400J0D01*
G01*
X13953430Y-10182360D02*
G75*
G03*
X13953430Y-10182360I-25400J0D01*
G01*
X13953430Y-10339840D02*
G75*
G03*
X13953430Y-10339840I-25400J0D01*
G01*
X13953430Y-10497320D02*
G75*
G03*
X13953430Y-10497320I-25400J0D01*
G01*
X13953430Y-10654800D02*
G75*
G03*
X13953430Y-10654800I-25400J0D01*
G01*
D14*
X11910000Y-11420000D02*
X11910000Y-11500000D01*
X11870000Y-11460000D02*
X11950000Y-11460000D01*
X11910000Y-11880000D02*
X11910000Y-11960000D01*
X11870000Y-11920000D02*
X11950000Y-11920000D01*
X12410000Y-11420000D02*
X12410000Y-11500000D01*
X12370000Y-11460000D02*
X12450000Y-11460000D01*
X12410000Y-11880000D02*
X12410000Y-11960000D01*
X12370000Y-11920000D02*
X12450000Y-11920000D01*
X17400000Y-11370000D02*
X17400000Y-11450000D01*
X17360000Y-11410000D02*
X17440000Y-11410000D01*
X17400000Y-11870000D02*
X17400000Y-11950000D01*
X17360000Y-11910000D02*
X17440000Y-11910000D01*
X17519500Y-10323000D02*
X17519500Y-10403000D01*
X17479500Y-10363000D02*
X17559500Y-10363000D01*
X17519500Y-10823000D02*
X17519500Y-10903000D01*
X17479500Y-10863000D02*
X17559500Y-10863000D01*
D15*
X10911473Y-11791573D02*
X10911473Y-11721527D01*
X10841427Y-11721527D01*
X10841427Y-11791573D01*
X10911473Y-11791573D01*
X11101473Y-11611573D02*
X11101473Y-11541527D01*
X11031427Y-11541527D01*
X11031427Y-11611573D01*
X11101473Y-11611573D01*
X11101473Y-11971573D02*
X11101473Y-11901527D01*
X11031427Y-11901527D01*
X11031427Y-11971573D01*
X11101473Y-11971573D01*
D16*
X10503500Y-9962500D02*
X10553500Y-9912500D01*
X10503500Y-9862500D01*
X10453500Y-9912500D01*
X10503500Y-9962500D01*
X10757500Y-9962500D02*
X10807500Y-9912500D01*
X10757500Y-9862500D01*
X10707500Y-9912500D01*
X10757500Y-9962500D01*
X10912500Y-10707500D02*
X10962500Y-10657500D01*
X10912500Y-10607500D01*
X10862500Y-10657500D01*
X10912500Y-10707500D01*
X10912500Y-10961500D02*
X10962500Y-10911500D01*
X10912500Y-10861500D01*
X10862500Y-10911500D01*
X10912500Y-10961500D01*
X10912500Y-11215500D02*
X10962500Y-11165500D01*
X10912500Y-11115500D01*
X10862500Y-11165500D01*
X10912500Y-11215500D01*
X11166500Y-10707500D02*
X11216500Y-10657500D01*
X11166500Y-10607500D01*
X11116500Y-10657500D01*
X11166500Y-10707500D01*
X11166500Y-10961500D02*
X11216500Y-10911500D01*
X11166500Y-10861500D01*
X11116500Y-10911500D01*
X11166500Y-10961500D01*
X11166500Y-11215500D02*
X11216500Y-11165500D01*
X11166500Y-11115500D01*
X11116500Y-11165500D01*
X11166500Y-11215500D01*
X11724500Y-12602500D02*
X11774500Y-12552500D01*
X11724500Y-12502500D01*
X11674500Y-12552500D01*
X11724500Y-12602500D01*
X11978500Y-12602500D02*
X12028500Y-12552500D01*
X11978500Y-12502500D01*
X11928500Y-12552500D01*
X11978500Y-12602500D01*
X12232500Y-12602500D02*
X12282500Y-12552500D01*
X12232500Y-12502500D01*
X12182500Y-12552500D01*
X12232500Y-12602500D01*
X12886768Y-12180000D02*
X12936768Y-12130000D01*
X12886768Y-12080000D01*
X12836768Y-12130000D01*
X12886768Y-12180000D01*
X13350000Y-8503232D02*
X13400000Y-8453232D01*
X13350000Y-8403232D01*
X13300000Y-8453232D01*
X13350000Y-8503232D01*
X13350000Y-9003232D02*
X13400000Y-8953232D01*
X13350000Y-8903232D01*
X13300000Y-8953232D01*
X13350000Y-9003232D01*
X13386768Y-12180000D02*
X13436768Y-12130000D01*
X13386768Y-12080000D01*
X13336768Y-12130000D01*
X13386768Y-12180000D01*
X13983232Y-12180000D02*
X14033232Y-12130000D01*
X13983232Y-12080000D01*
X13933232Y-12130000D01*
X13983232Y-12180000D01*
X14420000Y-8513232D02*
X14470000Y-8463232D01*
X14420000Y-8413232D01*
X14370000Y-8463232D01*
X14420000Y-8513232D01*
X14420000Y-9013232D02*
X14470000Y-8963232D01*
X14420000Y-8913232D01*
X14370000Y-8963232D01*
X14420000Y-9013232D01*
X14483232Y-12180000D02*
X14533232Y-12130000D01*
X14483232Y-12080000D01*
X14433232Y-12130000D01*
X14483232Y-12180000D01*
X15287500Y-7443500D02*
X15337500Y-7393500D01*
X15287500Y-7343500D01*
X15237500Y-7393500D01*
X15287500Y-7443500D01*
X15287500Y-7697500D02*
X15337500Y-7647500D01*
X15287500Y-7597500D01*
X15237500Y-7647500D01*
X15287500Y-7697500D01*
X15541500Y-7443500D02*
X15591500Y-7393500D01*
X15541500Y-7343500D01*
X15491500Y-7393500D01*
X15541500Y-7443500D01*
X15541500Y-7697500D02*
X15591500Y-7647500D01*
X15541500Y-7597500D01*
X15491500Y-7647500D01*
X15541500Y-7697500D01*
X15795500Y-7443500D02*
X15845500Y-7393500D01*
X15795500Y-7343500D01*
X15745500Y-7393500D01*
X15795500Y-7443500D01*
X15795500Y-7697500D02*
X15845500Y-7647500D01*
X15795500Y-7597500D01*
X15745500Y-7647500D01*
X15795500Y-7697500D01*
X17970000Y-10716000D02*
X18020000Y-10666000D01*
X17970000Y-10616000D01*
X17920000Y-10666000D01*
X17970000Y-10716000D01*
X17970000Y-10970000D02*
X18020000Y-10920000D01*
X17970000Y-10870000D01*
X17920000Y-10920000D01*
X17970000Y-10970000D01*
X17970000Y-11577000D02*
X18020000Y-11527000D01*
X17970000Y-11477000D01*
X17920000Y-11527000D01*
X17970000Y-11577000D01*
X17970000Y-11831000D02*
X18020000Y-11781000D01*
X17970000Y-11731000D01*
X17920000Y-11781000D01*
X17970000Y-11831000D01*
D17*
X15642000Y-11269500D02*
X15752000Y-11379500D01*
X15752000Y-11269500D02*
X15642000Y-11379500D01*
X15752000Y-11324500D02*
G75*
G03*
X15752000Y-11324500I-55000J0D01*
G01*
X15642000Y-11940500D02*
X15752000Y-12050500D01*
X15752000Y-11940500D02*
X15642000Y-12050500D01*
X15752000Y-11995500D02*
G75*
G03*
X15752000Y-11995500I-55000J0D01*
G01*
X15749000Y-9664000D02*
X15859000Y-9774000D01*
X15859000Y-9664000D02*
X15749000Y-9774000D01*
X15859000Y-9719000D02*
G75*
G03*
X15859000Y-9719000I-55000J0D01*
G01*
X15749000Y-10335000D02*
X15859000Y-10445000D01*
X15859000Y-10335000D02*
X15749000Y-10445000D01*
X15859000Y-10390000D02*
G75*
G03*
X15859000Y-10390000I-55000J0D01*
G01*
X16468000Y-11269500D02*
X16578000Y-11379500D01*
X16578000Y-11269500D02*
X16468000Y-11379500D01*
X16578000Y-11324500D02*
G75*
G03*
X16578000Y-11324500I-55000J0D01*
G01*
X16468000Y-11940500D02*
X16578000Y-12050500D01*
X16578000Y-11940500D02*
X16468000Y-12050500D01*
X16578000Y-11995500D02*
G75*
G03*
X16578000Y-11995500I-55000J0D01*
G01*
X16575000Y-9664000D02*
X16685000Y-9774000D01*
X16685000Y-9664000D02*
X16575000Y-9774000D01*
X16685000Y-9719000D02*
G75*
G03*
X16685000Y-9719000I-55000J0D01*
G01*
X16575000Y-10335000D02*
X16685000Y-10445000D01*
X16685000Y-10335000D02*
X16575000Y-10445000D01*
X16685000Y-10390000D02*
G75*
G03*
X16685000Y-10390000I-55000J0D01*
G01*
D11*
X9902619Y-13465476D02*
X9902619Y-13265476D01*
X9950238Y-13265476D01*
X9978810Y-13275000D01*
X9997857Y-13294048D01*
X10007381Y-13313095D01*
X10016905Y-13351190D01*
X10016905Y-13379762D01*
X10007381Y-13417857D01*
X9997857Y-13436905D01*
X9978810Y-13455952D01*
X9950238Y-13465476D01*
X9902619Y-13465476D01*
X10102619Y-13465476D02*
X10102619Y-13332143D01*
X10102619Y-13370238D02*
X10112143Y-13351190D01*
X10121667Y-13341667D01*
X10140714Y-13332143D01*
X10159762Y-13332143D01*
X10226429Y-13465476D02*
X10226429Y-13332143D01*
X10226429Y-13265476D02*
X10216905Y-13275000D01*
X10226429Y-13284524D01*
X10235952Y-13275000D01*
X10226429Y-13265476D01*
X10226429Y-13284524D01*
X10350238Y-13465476D02*
X10331190Y-13455952D01*
X10321667Y-13436905D01*
X10321667Y-13265476D01*
X10455000Y-13465476D02*
X10435952Y-13455952D01*
X10426429Y-13436905D01*
X10426429Y-13265476D01*
X10683571Y-13465476D02*
X10683571Y-13265476D01*
X10750238Y-13408333D01*
X10816905Y-13265476D01*
X10816905Y-13465476D01*
X10997857Y-13465476D02*
X10997857Y-13360714D01*
X10988333Y-13341667D01*
X10969286Y-13332143D01*
X10931190Y-13332143D01*
X10912143Y-13341667D01*
X10997857Y-13455952D02*
X10978810Y-13465476D01*
X10931190Y-13465476D01*
X10912143Y-13455952D01*
X10902619Y-13436905D01*
X10902619Y-13417857D01*
X10912143Y-13398809D01*
X10931190Y-13389286D01*
X10978810Y-13389286D01*
X10997857Y-13379762D01*
X11093095Y-13332143D02*
X11093095Y-13532143D01*
X11093095Y-13341667D02*
X11112143Y-13332143D01*
X11150238Y-13332143D01*
X11169286Y-13341667D01*
X11178810Y-13351190D01*
X11188333Y-13370238D01*
X11188333Y-13427381D01*
X11178810Y-13446428D01*
X11169286Y-13455952D01*
X11150238Y-13465476D01*
X11112143Y-13465476D01*
X11093095Y-13455952D01*
X11274048Y-13446428D02*
X11283571Y-13455952D01*
X11274048Y-13465476D01*
X11264524Y-13455952D01*
X11274048Y-13446428D01*
X11274048Y-13465476D01*
X11274048Y-13341667D02*
X11283571Y-13351190D01*
X11274048Y-13360714D01*
X11264524Y-13351190D01*
X11274048Y-13341667D01*
X11274048Y-13360714D01*
D12*
X9605000Y-13775000D02*
X9645000Y-13815000D01*
X9645000Y-13775000D02*
X9605000Y-13815000D01*
D11*
X9940714Y-13685476D02*
X9959762Y-13685476D01*
X9978810Y-13695000D01*
X9988333Y-13704524D01*
X9997857Y-13723571D01*
X10007381Y-13761667D01*
X10007381Y-13809286D01*
X9997857Y-13847381D01*
X9988333Y-13866428D01*
X9978810Y-13875952D01*
X9959762Y-13885476D01*
X9940714Y-13885476D01*
X9921667Y-13875952D01*
X9912143Y-13866428D01*
X9902619Y-13847381D01*
X9893095Y-13809286D01*
X9893095Y-13761667D01*
X9902619Y-13723571D01*
X9912143Y-13704524D01*
X9921667Y-13695000D01*
X9940714Y-13685476D01*
X10093095Y-13866428D02*
X10102619Y-13875952D01*
X10093095Y-13885476D01*
X10083571Y-13875952D01*
X10093095Y-13866428D01*
X10093095Y-13885476D01*
X10274048Y-13752143D02*
X10274048Y-13885476D01*
X10226429Y-13675952D02*
X10178810Y-13818809D01*
X10302619Y-13818809D01*
X10416905Y-13685476D02*
X10435952Y-13685476D01*
X10455000Y-13695000D01*
X10464524Y-13704524D01*
X10474048Y-13723571D01*
X10483571Y-13761667D01*
X10483571Y-13809286D01*
X10474048Y-13847381D01*
X10464524Y-13866428D01*
X10455000Y-13875952D01*
X10435952Y-13885476D01*
X10416905Y-13885476D01*
X10397857Y-13875952D01*
X10388333Y-13866428D01*
X10378810Y-13847381D01*
X10369286Y-13809286D01*
X10369286Y-13761667D01*
X10378810Y-13723571D01*
X10388333Y-13704524D01*
X10397857Y-13695000D01*
X10416905Y-13685476D01*
X10607381Y-13685476D02*
X10626429Y-13685476D01*
X10645476Y-13695000D01*
X10655000Y-13704524D01*
X10664524Y-13723571D01*
X10674048Y-13761667D01*
X10674048Y-13809286D01*
X10664524Y-13847381D01*
X10655000Y-13866428D01*
X10645476Y-13875952D01*
X10626429Y-13885476D01*
X10607381Y-13885476D01*
X10588333Y-13875952D01*
X10578810Y-13866428D01*
X10569286Y-13847381D01*
X10559762Y-13809286D01*
X10559762Y-13761667D01*
X10569286Y-13723571D01*
X10578810Y-13704524D01*
X10588333Y-13695000D01*
X10607381Y-13685476D01*
X10759762Y-13885476D02*
X10759762Y-13752143D01*
X10759762Y-13771190D02*
X10769286Y-13761667D01*
X10788333Y-13752143D01*
X10816905Y-13752143D01*
X10835952Y-13761667D01*
X10845476Y-13780714D01*
X10845476Y-13885476D01*
X10845476Y-13780714D02*
X10855000Y-13761667D01*
X10874048Y-13752143D01*
X10902619Y-13752143D01*
X10921667Y-13761667D01*
X10931190Y-13780714D01*
X10931190Y-13885476D01*
X11026429Y-13885476D02*
X11026429Y-13752143D01*
X11026429Y-13771190D02*
X11035952Y-13761667D01*
X11055000Y-13752143D01*
X11083571Y-13752143D01*
X11102619Y-13761667D01*
X11112143Y-13780714D01*
X11112143Y-13885476D01*
X11112143Y-13780714D02*
X11121667Y-13761667D01*
X11140714Y-13752143D01*
X11169286Y-13752143D01*
X11188333Y-13761667D01*
X11197857Y-13780714D01*
X11197857Y-13885476D01*
X11588333Y-13675952D02*
X11416905Y-13933095D01*
X11845476Y-13685476D02*
X11864524Y-13685476D01*
X11883571Y-13695000D01*
X11893095Y-13704524D01*
X11902619Y-13723571D01*
X11912143Y-13761667D01*
X11912143Y-13809286D01*
X11902619Y-13847381D01*
X11893095Y-13866428D01*
X11883571Y-13875952D01*
X11864524Y-13885476D01*
X11845476Y-13885476D01*
X11826428Y-13875952D01*
X11816905Y-13866428D01*
X11807381Y-13847381D01*
X11797857Y-13809286D01*
X11797857Y-13761667D01*
X11807381Y-13723571D01*
X11816905Y-13704524D01*
X11826428Y-13695000D01*
X11845476Y-13685476D01*
X11997857Y-13866428D02*
X12007381Y-13875952D01*
X11997857Y-13885476D01*
X11988333Y-13875952D01*
X11997857Y-13866428D01*
X11997857Y-13885476D01*
X12131190Y-13685476D02*
X12150238Y-13685476D01*
X12169286Y-13695000D01*
X12178809Y-13704524D01*
X12188333Y-13723571D01*
X12197857Y-13761667D01*
X12197857Y-13809286D01*
X12188333Y-13847381D01*
X12178809Y-13866428D01*
X12169286Y-13875952D01*
X12150238Y-13885476D01*
X12131190Y-13885476D01*
X12112143Y-13875952D01*
X12102619Y-13866428D01*
X12093095Y-13847381D01*
X12083571Y-13809286D01*
X12083571Y-13761667D01*
X12093095Y-13723571D01*
X12102619Y-13704524D01*
X12112143Y-13695000D01*
X12131190Y-13685476D01*
X12388333Y-13885476D02*
X12274048Y-13885476D01*
X12331190Y-13885476D02*
X12331190Y-13685476D01*
X12312143Y-13714048D01*
X12293095Y-13733095D01*
X12274048Y-13742619D01*
X12569286Y-13685476D02*
X12474048Y-13685476D01*
X12464524Y-13780714D01*
X12474048Y-13771190D01*
X12493095Y-13761667D01*
X12540714Y-13761667D01*
X12559762Y-13771190D01*
X12569286Y-13780714D01*
X12578809Y-13799762D01*
X12578809Y-13847381D01*
X12569286Y-13866428D01*
X12559762Y-13875952D01*
X12540714Y-13885476D01*
X12493095Y-13885476D01*
X12474048Y-13875952D01*
X12464524Y-13866428D01*
X12645476Y-13685476D02*
X12778809Y-13685476D01*
X12693095Y-13885476D01*
X12845476Y-13685476D02*
X12845476Y-13723571D01*
X12921667Y-13685476D02*
X12921667Y-13723571D01*
X13216905Y-13961667D02*
X13207381Y-13952143D01*
X13188333Y-13923571D01*
X13178809Y-13904524D01*
X13169286Y-13875952D01*
X13159762Y-13828333D01*
X13159762Y-13790238D01*
X13169286Y-13742619D01*
X13178809Y-13714048D01*
X13188333Y-13695000D01*
X13207381Y-13666428D01*
X13216905Y-13656905D01*
X13321667Y-13771190D02*
X13302619Y-13761667D01*
X13293095Y-13752143D01*
X13283571Y-13733095D01*
X13283571Y-13723571D01*
X13293095Y-13704524D01*
X13302619Y-13695000D01*
X13321667Y-13685476D01*
X13359762Y-13685476D01*
X13378809Y-13695000D01*
X13388333Y-13704524D01*
X13397857Y-13723571D01*
X13397857Y-13733095D01*
X13388333Y-13752143D01*
X13378809Y-13761667D01*
X13359762Y-13771190D01*
X13321667Y-13771190D01*
X13302619Y-13780714D01*
X13293095Y-13790238D01*
X13283571Y-13809286D01*
X13283571Y-13847381D01*
X13293095Y-13866428D01*
X13302619Y-13875952D01*
X13321667Y-13885476D01*
X13359762Y-13885476D01*
X13378809Y-13875952D01*
X13388333Y-13866428D01*
X13397857Y-13847381D01*
X13397857Y-13809286D01*
X13388333Y-13790238D01*
X13378809Y-13780714D01*
X13359762Y-13771190D01*
X13578809Y-13685476D02*
X13483571Y-13685476D01*
X13474048Y-13780714D01*
X13483571Y-13771190D01*
X13502619Y-13761667D01*
X13550238Y-13761667D01*
X13569286Y-13771190D01*
X13578809Y-13780714D01*
X13588333Y-13799762D01*
X13588333Y-13847381D01*
X13578809Y-13866428D01*
X13569286Y-13875952D01*
X13550238Y-13885476D01*
X13502619Y-13885476D01*
X13483571Y-13875952D01*
X13474048Y-13866428D01*
X13826428Y-13885476D02*
X13826428Y-13685476D01*
X13912143Y-13885476D02*
X13912143Y-13780714D01*
X13902619Y-13761667D01*
X13883571Y-13752143D01*
X13855000Y-13752143D01*
X13835952Y-13761667D01*
X13826428Y-13771190D01*
X14035952Y-13885476D02*
X14016905Y-13875952D01*
X14007381Y-13866428D01*
X13997857Y-13847381D01*
X13997857Y-13790238D01*
X14007381Y-13771190D01*
X14016905Y-13761667D01*
X14035952Y-13752143D01*
X14064524Y-13752143D01*
X14083571Y-13761667D01*
X14093095Y-13771190D01*
X14102619Y-13790238D01*
X14102619Y-13847381D01*
X14093095Y-13866428D01*
X14083571Y-13875952D01*
X14064524Y-13885476D01*
X14035952Y-13885476D01*
X14216905Y-13885476D02*
X14197857Y-13875952D01*
X14188333Y-13856905D01*
X14188333Y-13685476D01*
X14369286Y-13875952D02*
X14350238Y-13885476D01*
X14312143Y-13885476D01*
X14293095Y-13875952D01*
X14283571Y-13856905D01*
X14283571Y-13780714D01*
X14293095Y-13761667D01*
X14312143Y-13752143D01*
X14350238Y-13752143D01*
X14369286Y-13761667D01*
X14378809Y-13780714D01*
X14378809Y-13799762D01*
X14283571Y-13818809D01*
X14455000Y-13875952D02*
X14474048Y-13885476D01*
X14512143Y-13885476D01*
X14531190Y-13875952D01*
X14540714Y-13856905D01*
X14540714Y-13847381D01*
X14531190Y-13828333D01*
X14512143Y-13818809D01*
X14483571Y-13818809D01*
X14464524Y-13809286D01*
X14455000Y-13790238D01*
X14455000Y-13780714D01*
X14464524Y-13761667D01*
X14483571Y-13752143D01*
X14512143Y-13752143D01*
X14531190Y-13761667D01*
X14607381Y-13961667D02*
X14616905Y-13952143D01*
X14635952Y-13923571D01*
X14645476Y-13904524D01*
X14655000Y-13875952D01*
X14664524Y-13828333D01*
X14664524Y-13790238D01*
X14655000Y-13742619D01*
X14645476Y-13714048D01*
X14635952Y-13695000D01*
X14616905Y-13666428D01*
X14607381Y-13656905D01*
D13*
X9645000Y-14059000D02*
G75*
G03*
X9645000Y-14059000I-25400J0D01*
G01*
D11*
X9940714Y-13949476D02*
X9959762Y-13949476D01*
X9978810Y-13959000D01*
X9988333Y-13968524D01*
X9997857Y-13987571D01*
X10007381Y-14025667D01*
X10007381Y-14073286D01*
X9997857Y-14111381D01*
X9988333Y-14130428D01*
X9978810Y-14139952D01*
X9959762Y-14149476D01*
X9940714Y-14149476D01*
X9921667Y-14139952D01*
X9912143Y-14130428D01*
X9902619Y-14111381D01*
X9893095Y-14073286D01*
X9893095Y-14025667D01*
X9902619Y-13987571D01*
X9912143Y-13968524D01*
X9921667Y-13959000D01*
X9940714Y-13949476D01*
X10093095Y-14130428D02*
X10102619Y-14139952D01*
X10093095Y-14149476D01*
X10083571Y-14139952D01*
X10093095Y-14130428D01*
X10093095Y-14149476D01*
X10283571Y-13949476D02*
X10188333Y-13949476D01*
X10178810Y-14044714D01*
X10188333Y-14035190D01*
X10207381Y-14025667D01*
X10255000Y-14025667D01*
X10274048Y-14035190D01*
X10283571Y-14044714D01*
X10293095Y-14063762D01*
X10293095Y-14111381D01*
X10283571Y-14130428D01*
X10274048Y-14139952D01*
X10255000Y-14149476D01*
X10207381Y-14149476D01*
X10188333Y-14139952D01*
X10178810Y-14130428D01*
X10416905Y-13949476D02*
X10435952Y-13949476D01*
X10455000Y-13959000D01*
X10464524Y-13968524D01*
X10474048Y-13987571D01*
X10483571Y-14025667D01*
X10483571Y-14073286D01*
X10474048Y-14111381D01*
X10464524Y-14130428D01*
X10455000Y-14139952D01*
X10435952Y-14149476D01*
X10416905Y-14149476D01*
X10397857Y-14139952D01*
X10388333Y-14130428D01*
X10378810Y-14111381D01*
X10369286Y-14073286D01*
X10369286Y-14025667D01*
X10378810Y-13987571D01*
X10388333Y-13968524D01*
X10397857Y-13959000D01*
X10416905Y-13949476D01*
X10597857Y-14035190D02*
X10578810Y-14025667D01*
X10569286Y-14016143D01*
X10559762Y-13997095D01*
X10559762Y-13987571D01*
X10569286Y-13968524D01*
X10578810Y-13959000D01*
X10597857Y-13949476D01*
X10635952Y-13949476D01*
X10655000Y-13959000D01*
X10664524Y-13968524D01*
X10674048Y-13987571D01*
X10674048Y-13997095D01*
X10664524Y-14016143D01*
X10655000Y-14025667D01*
X10635952Y-14035190D01*
X10597857Y-14035190D01*
X10578810Y-14044714D01*
X10569286Y-14054238D01*
X10559762Y-14073286D01*
X10559762Y-14111381D01*
X10569286Y-14130428D01*
X10578810Y-14139952D01*
X10597857Y-14149476D01*
X10635952Y-14149476D01*
X10655000Y-14139952D01*
X10664524Y-14130428D01*
X10674048Y-14111381D01*
X10674048Y-14073286D01*
X10664524Y-14054238D01*
X10655000Y-14044714D01*
X10635952Y-14035190D01*
X10759762Y-14149476D02*
X10759762Y-14016143D01*
X10759762Y-14035190D02*
X10769286Y-14025667D01*
X10788333Y-14016143D01*
X10816905Y-14016143D01*
X10835952Y-14025667D01*
X10845476Y-14044714D01*
X10845476Y-14149476D01*
X10845476Y-14044714D02*
X10855000Y-14025667D01*
X10874048Y-14016143D01*
X10902619Y-14016143D01*
X10921667Y-14025667D01*
X10931190Y-14044714D01*
X10931190Y-14149476D01*
X11026429Y-14149476D02*
X11026429Y-14016143D01*
X11026429Y-14035190D02*
X11035952Y-14025667D01*
X11055000Y-14016143D01*
X11083571Y-14016143D01*
X11102619Y-14025667D01*
X11112143Y-14044714D01*
X11112143Y-14149476D01*
X11112143Y-14044714D02*
X11121667Y-14025667D01*
X11140714Y-14016143D01*
X11169286Y-14016143D01*
X11188333Y-14025667D01*
X11197857Y-14044714D01*
X11197857Y-14149476D01*
X11588333Y-13939952D02*
X11416905Y-14197095D01*
X11845476Y-13949476D02*
X11864524Y-13949476D01*
X11883571Y-13959000D01*
X11893095Y-13968524D01*
X11902619Y-13987571D01*
X11912143Y-14025667D01*
X11912143Y-14073286D01*
X11902619Y-14111381D01*
X11893095Y-14130428D01*
X11883571Y-14139952D01*
X11864524Y-14149476D01*
X11845476Y-14149476D01*
X11826428Y-14139952D01*
X11816905Y-14130428D01*
X11807381Y-14111381D01*
X11797857Y-14073286D01*
X11797857Y-14025667D01*
X11807381Y-13987571D01*
X11816905Y-13968524D01*
X11826428Y-13959000D01*
X11845476Y-13949476D01*
X11997857Y-14130428D02*
X12007381Y-14139952D01*
X11997857Y-14149476D01*
X11988333Y-14139952D01*
X11997857Y-14130428D01*
X11997857Y-14149476D01*
X12131190Y-13949476D02*
X12150238Y-13949476D01*
X12169286Y-13959000D01*
X12178809Y-13968524D01*
X12188333Y-13987571D01*
X12197857Y-14025667D01*
X12197857Y-14073286D01*
X12188333Y-14111381D01*
X12178809Y-14130428D01*
X12169286Y-14139952D01*
X12150238Y-14149476D01*
X12131190Y-14149476D01*
X12112143Y-14139952D01*
X12102619Y-14130428D01*
X12093095Y-14111381D01*
X12083571Y-14073286D01*
X12083571Y-14025667D01*
X12093095Y-13987571D01*
X12102619Y-13968524D01*
X12112143Y-13959000D01*
X12131190Y-13949476D01*
X12274048Y-13968524D02*
X12283571Y-13959000D01*
X12302619Y-13949476D01*
X12350238Y-13949476D01*
X12369286Y-13959000D01*
X12378809Y-13968524D01*
X12388333Y-13987571D01*
X12388333Y-14006619D01*
X12378809Y-14035190D01*
X12264524Y-14149476D01*
X12388333Y-14149476D01*
X12512143Y-13949476D02*
X12531190Y-13949476D01*
X12550238Y-13959000D01*
X12559762Y-13968524D01*
X12569286Y-13987571D01*
X12578809Y-14025667D01*
X12578809Y-14073286D01*
X12569286Y-14111381D01*
X12559762Y-14130428D01*
X12550238Y-14139952D01*
X12531190Y-14149476D01*
X12512143Y-14149476D01*
X12493095Y-14139952D01*
X12483571Y-14130428D01*
X12474048Y-14111381D01*
X12464524Y-14073286D01*
X12464524Y-14025667D01*
X12474048Y-13987571D01*
X12483571Y-13968524D01*
X12493095Y-13959000D01*
X12512143Y-13949476D01*
X12702619Y-13949476D02*
X12721667Y-13949476D01*
X12740714Y-13959000D01*
X12750238Y-13968524D01*
X12759762Y-13987571D01*
X12769286Y-14025667D01*
X12769286Y-14073286D01*
X12759762Y-14111381D01*
X12750238Y-14130428D01*
X12740714Y-14139952D01*
X12721667Y-14149476D01*
X12702619Y-14149476D01*
X12683571Y-14139952D01*
X12674048Y-14130428D01*
X12664524Y-14111381D01*
X12655000Y-14073286D01*
X12655000Y-14025667D01*
X12664524Y-13987571D01*
X12674048Y-13968524D01*
X12683571Y-13959000D01*
X12702619Y-13949476D01*
X12845476Y-13949476D02*
X12845476Y-13987571D01*
X12921667Y-13949476D02*
X12921667Y-13987571D01*
X13216905Y-14225667D02*
X13207381Y-14216143D01*
X13188333Y-14187571D01*
X13178809Y-14168524D01*
X13169286Y-14139952D01*
X13159762Y-14092333D01*
X13159762Y-14054238D01*
X13169286Y-14006619D01*
X13178809Y-13978048D01*
X13188333Y-13959000D01*
X13207381Y-13930428D01*
X13216905Y-13920905D01*
X13388333Y-13949476D02*
X13293095Y-13949476D01*
X13283571Y-14044714D01*
X13293095Y-14035190D01*
X13312143Y-14025667D01*
X13359762Y-14025667D01*
X13378809Y-14035190D01*
X13388333Y-14044714D01*
X13397857Y-14063762D01*
X13397857Y-14111381D01*
X13388333Y-14130428D01*
X13378809Y-14139952D01*
X13359762Y-14149476D01*
X13312143Y-14149476D01*
X13293095Y-14139952D01*
X13283571Y-14130428D01*
X13521667Y-13949476D02*
X13540714Y-13949476D01*
X13559762Y-13959000D01*
X13569286Y-13968524D01*
X13578809Y-13987571D01*
X13588333Y-14025667D01*
X13588333Y-14073286D01*
X13578809Y-14111381D01*
X13569286Y-14130428D01*
X13559762Y-14139952D01*
X13540714Y-14149476D01*
X13521667Y-14149476D01*
X13502619Y-14139952D01*
X13493095Y-14130428D01*
X13483571Y-14111381D01*
X13474048Y-14073286D01*
X13474048Y-14025667D01*
X13483571Y-13987571D01*
X13493095Y-13968524D01*
X13502619Y-13959000D01*
X13521667Y-13949476D01*
X13826428Y-14149476D02*
X13826428Y-13949476D01*
X13912143Y-14149476D02*
X13912143Y-14044714D01*
X13902619Y-14025667D01*
X13883571Y-14016143D01*
X13855000Y-14016143D01*
X13835952Y-14025667D01*
X13826428Y-14035190D01*
X14035952Y-14149476D02*
X14016905Y-14139952D01*
X14007381Y-14130428D01*
X13997857Y-14111381D01*
X13997857Y-14054238D01*
X14007381Y-14035190D01*
X14016905Y-14025667D01*
X14035952Y-14016143D01*
X14064524Y-14016143D01*
X14083571Y-14025667D01*
X14093095Y-14035190D01*
X14102619Y-14054238D01*
X14102619Y-14111381D01*
X14093095Y-14130428D01*
X14083571Y-14139952D01*
X14064524Y-14149476D01*
X14035952Y-14149476D01*
X14216905Y-14149476D02*
X14197857Y-14139952D01*
X14188333Y-14120905D01*
X14188333Y-13949476D01*
X14369286Y-14139952D02*
X14350238Y-14149476D01*
X14312143Y-14149476D01*
X14293095Y-14139952D01*
X14283571Y-14120905D01*
X14283571Y-14044714D01*
X14293095Y-14025667D01*
X14312143Y-14016143D01*
X14350238Y-14016143D01*
X14369286Y-14025667D01*
X14378809Y-14044714D01*
X14378809Y-14063762D01*
X14283571Y-14082809D01*
X14455000Y-14139952D02*
X14474048Y-14149476D01*
X14512143Y-14149476D01*
X14531190Y-14139952D01*
X14540714Y-14120905D01*
X14540714Y-14111381D01*
X14531190Y-14092333D01*
X14512143Y-14082809D01*
X14483571Y-14082809D01*
X14464524Y-14073286D01*
X14455000Y-14054238D01*
X14455000Y-14044714D01*
X14464524Y-14025667D01*
X14483571Y-14016143D01*
X14512143Y-14016143D01*
X14531190Y-14025667D01*
X14607381Y-14225667D02*
X14616905Y-14216143D01*
X14635952Y-14187571D01*
X14645476Y-14168524D01*
X14655000Y-14139952D01*
X14664524Y-14092333D01*
X14664524Y-14054238D01*
X14655000Y-14006619D01*
X14645476Y-13978048D01*
X14635952Y-13959000D01*
X14616905Y-13930428D01*
X14607381Y-13920905D01*
D14*
X9605000Y-14283000D02*
X9605000Y-14363000D01*
X9565000Y-14323000D02*
X9645000Y-14323000D01*
D11*
X9940714Y-14213476D02*
X9959762Y-14213476D01*
X9978810Y-14223000D01*
X9988333Y-14232524D01*
X9997857Y-14251571D01*
X10007381Y-14289667D01*
X10007381Y-14337286D01*
X9997857Y-14375381D01*
X9988333Y-14394428D01*
X9978810Y-14403952D01*
X9959762Y-14413476D01*
X9940714Y-14413476D01*
X9921667Y-14403952D01*
X9912143Y-14394428D01*
X9902619Y-14375381D01*
X9893095Y-14337286D01*
X9893095Y-14289667D01*
X9902619Y-14251571D01*
X9912143Y-14232524D01*
X9921667Y-14223000D01*
X9940714Y-14213476D01*
X10093095Y-14394428D02*
X10102619Y-14403952D01*
X10093095Y-14413476D01*
X10083571Y-14403952D01*
X10093095Y-14394428D01*
X10093095Y-14413476D01*
X10216905Y-14299190D02*
X10197857Y-14289667D01*
X10188333Y-14280143D01*
X10178810Y-14261095D01*
X10178810Y-14251571D01*
X10188333Y-14232524D01*
X10197857Y-14223000D01*
X10216905Y-14213476D01*
X10255000Y-14213476D01*
X10274048Y-14223000D01*
X10283571Y-14232524D01*
X10293095Y-14251571D01*
X10293095Y-14261095D01*
X10283571Y-14280143D01*
X10274048Y-14289667D01*
X10255000Y-14299190D01*
X10216905Y-14299190D01*
X10197857Y-14308714D01*
X10188333Y-14318238D01*
X10178810Y-14337286D01*
X10178810Y-14375381D01*
X10188333Y-14394428D01*
X10197857Y-14403952D01*
X10216905Y-14413476D01*
X10255000Y-14413476D01*
X10274048Y-14403952D01*
X10283571Y-14394428D01*
X10293095Y-14375381D01*
X10293095Y-14337286D01*
X10283571Y-14318238D01*
X10274048Y-14308714D01*
X10255000Y-14299190D01*
X10416905Y-14213476D02*
X10435952Y-14213476D01*
X10455000Y-14223000D01*
X10464524Y-14232524D01*
X10474048Y-14251571D01*
X10483571Y-14289667D01*
X10483571Y-14337286D01*
X10474048Y-14375381D01*
X10464524Y-14394428D01*
X10455000Y-14403952D01*
X10435952Y-14413476D01*
X10416905Y-14413476D01*
X10397857Y-14403952D01*
X10388333Y-14394428D01*
X10378810Y-14375381D01*
X10369286Y-14337286D01*
X10369286Y-14289667D01*
X10378810Y-14251571D01*
X10388333Y-14232524D01*
X10397857Y-14223000D01*
X10416905Y-14213476D01*
X10607381Y-14213476D02*
X10626429Y-14213476D01*
X10645476Y-14223000D01*
X10655000Y-14232524D01*
X10664524Y-14251571D01*
X10674048Y-14289667D01*
X10674048Y-14337286D01*
X10664524Y-14375381D01*
X10655000Y-14394428D01*
X10645476Y-14403952D01*
X10626429Y-14413476D01*
X10607381Y-14413476D01*
X10588333Y-14403952D01*
X10578810Y-14394428D01*
X10569286Y-14375381D01*
X10559762Y-14337286D01*
X10559762Y-14289667D01*
X10569286Y-14251571D01*
X10578810Y-14232524D01*
X10588333Y-14223000D01*
X10607381Y-14213476D01*
X10759762Y-14413476D02*
X10759762Y-14280143D01*
X10759762Y-14299190D02*
X10769286Y-14289667D01*
X10788333Y-14280143D01*
X10816905Y-14280143D01*
X10835952Y-14289667D01*
X10845476Y-14308714D01*
X10845476Y-14413476D01*
X10845476Y-14308714D02*
X10855000Y-14289667D01*
X10874048Y-14280143D01*
X10902619Y-14280143D01*
X10921667Y-14289667D01*
X10931190Y-14308714D01*
X10931190Y-14413476D01*
X11026429Y-14413476D02*
X11026429Y-14280143D01*
X11026429Y-14299190D02*
X11035952Y-14289667D01*
X11055000Y-14280143D01*
X11083571Y-14280143D01*
X11102619Y-14289667D01*
X11112143Y-14308714D01*
X11112143Y-14413476D01*
X11112143Y-14308714D02*
X11121667Y-14289667D01*
X11140714Y-14280143D01*
X11169286Y-14280143D01*
X11188333Y-14289667D01*
X11197857Y-14308714D01*
X11197857Y-14413476D01*
X11588333Y-14203952D02*
X11416905Y-14461095D01*
X11845476Y-14213476D02*
X11864524Y-14213476D01*
X11883571Y-14223000D01*
X11893095Y-14232524D01*
X11902619Y-14251571D01*
X11912143Y-14289667D01*
X11912143Y-14337286D01*
X11902619Y-14375381D01*
X11893095Y-14394428D01*
X11883571Y-14403952D01*
X11864524Y-14413476D01*
X11845476Y-14413476D01*
X11826428Y-14403952D01*
X11816905Y-14394428D01*
X11807381Y-14375381D01*
X11797857Y-14337286D01*
X11797857Y-14289667D01*
X11807381Y-14251571D01*
X11816905Y-14232524D01*
X11826428Y-14223000D01*
X11845476Y-14213476D01*
X11997857Y-14394428D02*
X12007381Y-14403952D01*
X11997857Y-14413476D01*
X11988333Y-14403952D01*
X11997857Y-14394428D01*
X11997857Y-14413476D01*
X12131190Y-14213476D02*
X12150238Y-14213476D01*
X12169286Y-14223000D01*
X12178809Y-14232524D01*
X12188333Y-14251571D01*
X12197857Y-14289667D01*
X12197857Y-14337286D01*
X12188333Y-14375381D01*
X12178809Y-14394428D01*
X12169286Y-14403952D01*
X12150238Y-14413476D01*
X12131190Y-14413476D01*
X12112143Y-14403952D01*
X12102619Y-14394428D01*
X12093095Y-14375381D01*
X12083571Y-14337286D01*
X12083571Y-14289667D01*
X12093095Y-14251571D01*
X12102619Y-14232524D01*
X12112143Y-14223000D01*
X12131190Y-14213476D01*
X12264524Y-14213476D02*
X12388333Y-14213476D01*
X12321667Y-14289667D01*
X12350238Y-14289667D01*
X12369286Y-14299190D01*
X12378809Y-14308714D01*
X12388333Y-14327762D01*
X12388333Y-14375381D01*
X12378809Y-14394428D01*
X12369286Y-14403952D01*
X12350238Y-14413476D01*
X12293095Y-14413476D01*
X12274048Y-14403952D01*
X12264524Y-14394428D01*
X12578809Y-14413476D02*
X12464524Y-14413476D01*
X12521667Y-14413476D02*
X12521667Y-14213476D01*
X12502619Y-14242048D01*
X12483571Y-14261095D01*
X12464524Y-14270619D01*
X12759762Y-14213476D02*
X12664524Y-14213476D01*
X12655000Y-14308714D01*
X12664524Y-14299190D01*
X12683571Y-14289667D01*
X12731190Y-14289667D01*
X12750238Y-14299190D01*
X12759762Y-14308714D01*
X12769286Y-14327762D01*
X12769286Y-14375381D01*
X12759762Y-14394428D01*
X12750238Y-14403952D01*
X12731190Y-14413476D01*
X12683571Y-14413476D01*
X12664524Y-14403952D01*
X12655000Y-14394428D01*
X12845476Y-14213476D02*
X12845476Y-14251571D01*
X12921667Y-14213476D02*
X12921667Y-14251571D01*
X13216905Y-14489667D02*
X13207381Y-14480143D01*
X13188333Y-14451571D01*
X13178809Y-14432524D01*
X13169286Y-14403952D01*
X13159762Y-14356333D01*
X13159762Y-14318238D01*
X13169286Y-14270619D01*
X13178809Y-14242048D01*
X13188333Y-14223000D01*
X13207381Y-14194428D01*
X13216905Y-14184905D01*
X13321667Y-14299190D02*
X13302619Y-14289667D01*
X13293095Y-14280143D01*
X13283571Y-14261095D01*
X13283571Y-14251571D01*
X13293095Y-14232524D01*
X13302619Y-14223000D01*
X13321667Y-14213476D01*
X13359762Y-14213476D01*
X13378809Y-14223000D01*
X13388333Y-14232524D01*
X13397857Y-14251571D01*
X13397857Y-14261095D01*
X13388333Y-14280143D01*
X13378809Y-14289667D01*
X13359762Y-14299190D01*
X13321667Y-14299190D01*
X13302619Y-14308714D01*
X13293095Y-14318238D01*
X13283571Y-14337286D01*
X13283571Y-14375381D01*
X13293095Y-14394428D01*
X13302619Y-14403952D01*
X13321667Y-14413476D01*
X13359762Y-14413476D01*
X13378809Y-14403952D01*
X13388333Y-14394428D01*
X13397857Y-14375381D01*
X13397857Y-14337286D01*
X13388333Y-14318238D01*
X13378809Y-14308714D01*
X13359762Y-14299190D01*
X13635952Y-14413476D02*
X13635952Y-14213476D01*
X13721667Y-14413476D02*
X13721667Y-14308714D01*
X13712143Y-14289667D01*
X13693095Y-14280143D01*
X13664524Y-14280143D01*
X13645476Y-14289667D01*
X13635952Y-14299190D01*
X13845476Y-14413476D02*
X13826428Y-14403952D01*
X13816905Y-14394428D01*
X13807381Y-14375381D01*
X13807381Y-14318238D01*
X13816905Y-14299190D01*
X13826428Y-14289667D01*
X13845476Y-14280143D01*
X13874048Y-14280143D01*
X13893095Y-14289667D01*
X13902619Y-14299190D01*
X13912143Y-14318238D01*
X13912143Y-14375381D01*
X13902619Y-14394428D01*
X13893095Y-14403952D01*
X13874048Y-14413476D01*
X13845476Y-14413476D01*
X14026428Y-14413476D02*
X14007381Y-14403952D01*
X13997857Y-14384905D01*
X13997857Y-14213476D01*
X14178809Y-14403952D02*
X14159762Y-14413476D01*
X14121667Y-14413476D01*
X14102619Y-14403952D01*
X14093095Y-14384905D01*
X14093095Y-14308714D01*
X14102619Y-14289667D01*
X14121667Y-14280143D01*
X14159762Y-14280143D01*
X14178809Y-14289667D01*
X14188333Y-14308714D01*
X14188333Y-14327762D01*
X14093095Y-14346809D01*
X14264524Y-14403952D02*
X14283571Y-14413476D01*
X14321667Y-14413476D01*
X14340714Y-14403952D01*
X14350238Y-14384905D01*
X14350238Y-14375381D01*
X14340714Y-14356333D01*
X14321667Y-14346809D01*
X14293095Y-14346809D01*
X14274048Y-14337286D01*
X14264524Y-14318238D01*
X14264524Y-14308714D01*
X14274048Y-14289667D01*
X14293095Y-14280143D01*
X14321667Y-14280143D01*
X14340714Y-14289667D01*
X14416905Y-14489667D02*
X14426428Y-14480143D01*
X14445476Y-14451571D01*
X14455000Y-14432524D01*
X14464524Y-14403952D01*
X14474048Y-14356333D01*
X14474048Y-14318238D01*
X14464524Y-14270619D01*
X14455000Y-14242048D01*
X14445476Y-14223000D01*
X14426428Y-14194428D01*
X14416905Y-14184905D01*
D15*
X9630493Y-14622023D02*
X9630493Y-14551977D01*
X9560447Y-14551977D01*
X9560447Y-14622023D01*
X9630493Y-14622023D01*
D11*
X9940714Y-14477476D02*
X9959762Y-14477476D01*
X9978810Y-14487000D01*
X9988333Y-14496524D01*
X9997857Y-14515571D01*
X10007381Y-14553667D01*
X10007381Y-14601286D01*
X9997857Y-14639381D01*
X9988333Y-14658428D01*
X9978810Y-14667952D01*
X9959762Y-14677476D01*
X9940714Y-14677476D01*
X9921667Y-14667952D01*
X9912143Y-14658428D01*
X9902619Y-14639381D01*
X9893095Y-14601286D01*
X9893095Y-14553667D01*
X9902619Y-14515571D01*
X9912143Y-14496524D01*
X9921667Y-14487000D01*
X9940714Y-14477476D01*
X10093095Y-14658428D02*
X10102619Y-14667952D01*
X10093095Y-14677476D01*
X10083571Y-14667952D01*
X10093095Y-14658428D01*
X10093095Y-14677476D01*
X10197857Y-14677476D02*
X10235952Y-14677476D01*
X10255000Y-14667952D01*
X10264524Y-14658428D01*
X10283571Y-14629857D01*
X10293095Y-14591762D01*
X10293095Y-14515571D01*
X10283571Y-14496524D01*
X10274048Y-14487000D01*
X10255000Y-14477476D01*
X10216905Y-14477476D01*
X10197857Y-14487000D01*
X10188333Y-14496524D01*
X10178810Y-14515571D01*
X10178810Y-14563190D01*
X10188333Y-14582238D01*
X10197857Y-14591762D01*
X10216905Y-14601286D01*
X10255000Y-14601286D01*
X10274048Y-14591762D01*
X10283571Y-14582238D01*
X10293095Y-14563190D01*
X10388333Y-14677476D02*
X10426429Y-14677476D01*
X10445476Y-14667952D01*
X10455000Y-14658428D01*
X10474048Y-14629857D01*
X10483571Y-14591762D01*
X10483571Y-14515571D01*
X10474048Y-14496524D01*
X10464524Y-14487000D01*
X10445476Y-14477476D01*
X10407381Y-14477476D01*
X10388333Y-14487000D01*
X10378810Y-14496524D01*
X10369286Y-14515571D01*
X10369286Y-14563190D01*
X10378810Y-14582238D01*
X10388333Y-14591762D01*
X10407381Y-14601286D01*
X10445476Y-14601286D01*
X10464524Y-14591762D01*
X10474048Y-14582238D01*
X10483571Y-14563190D01*
X10674048Y-14677476D02*
X10559762Y-14677476D01*
X10616905Y-14677476D02*
X10616905Y-14477476D01*
X10597857Y-14506048D01*
X10578810Y-14525095D01*
X10559762Y-14534619D01*
X10759762Y-14677476D02*
X10759762Y-14544143D01*
X10759762Y-14563190D02*
X10769286Y-14553667D01*
X10788333Y-14544143D01*
X10816905Y-14544143D01*
X10835952Y-14553667D01*
X10845476Y-14572714D01*
X10845476Y-14677476D01*
X10845476Y-14572714D02*
X10855000Y-14553667D01*
X10874048Y-14544143D01*
X10902619Y-14544143D01*
X10921667Y-14553667D01*
X10931190Y-14572714D01*
X10931190Y-14677476D01*
X11026429Y-14677476D02*
X11026429Y-14544143D01*
X11026429Y-14563190D02*
X11035952Y-14553667D01*
X11055000Y-14544143D01*
X11083571Y-14544143D01*
X11102619Y-14553667D01*
X11112143Y-14572714D01*
X11112143Y-14677476D01*
X11112143Y-14572714D02*
X11121667Y-14553667D01*
X11140714Y-14544143D01*
X11169286Y-14544143D01*
X11188333Y-14553667D01*
X11197857Y-14572714D01*
X11197857Y-14677476D01*
X11588333Y-14467952D02*
X11416905Y-14725095D01*
X11845476Y-14477476D02*
X11864524Y-14477476D01*
X11883571Y-14487000D01*
X11893095Y-14496524D01*
X11902619Y-14515571D01*
X11912143Y-14553667D01*
X11912143Y-14601286D01*
X11902619Y-14639381D01*
X11893095Y-14658428D01*
X11883571Y-14667952D01*
X11864524Y-14677476D01*
X11845476Y-14677476D01*
X11826428Y-14667952D01*
X11816905Y-14658428D01*
X11807381Y-14639381D01*
X11797857Y-14601286D01*
X11797857Y-14553667D01*
X11807381Y-14515571D01*
X11816905Y-14496524D01*
X11826428Y-14487000D01*
X11845476Y-14477476D01*
X11997857Y-14658428D02*
X12007381Y-14667952D01*
X11997857Y-14677476D01*
X11988333Y-14667952D01*
X11997857Y-14658428D01*
X11997857Y-14677476D01*
X12131190Y-14477476D02*
X12150238Y-14477476D01*
X12169286Y-14487000D01*
X12178809Y-14496524D01*
X12188333Y-14515571D01*
X12197857Y-14553667D01*
X12197857Y-14601286D01*
X12188333Y-14639381D01*
X12178809Y-14658428D01*
X12169286Y-14667952D01*
X12150238Y-14677476D01*
X12131190Y-14677476D01*
X12112143Y-14667952D01*
X12102619Y-14658428D01*
X12093095Y-14639381D01*
X12083571Y-14601286D01*
X12083571Y-14553667D01*
X12093095Y-14515571D01*
X12102619Y-14496524D01*
X12112143Y-14487000D01*
X12131190Y-14477476D01*
X12264524Y-14477476D02*
X12388333Y-14477476D01*
X12321667Y-14553667D01*
X12350238Y-14553667D01*
X12369286Y-14563190D01*
X12378809Y-14572714D01*
X12388333Y-14591762D01*
X12388333Y-14639381D01*
X12378809Y-14658428D01*
X12369286Y-14667952D01*
X12350238Y-14677476D01*
X12293095Y-14677476D01*
X12274048Y-14667952D01*
X12264524Y-14658428D01*
X12483571Y-14677476D02*
X12521667Y-14677476D01*
X12540714Y-14667952D01*
X12550238Y-14658428D01*
X12569286Y-14629857D01*
X12578809Y-14591762D01*
X12578809Y-14515571D01*
X12569286Y-14496524D01*
X12559762Y-14487000D01*
X12540714Y-14477476D01*
X12502619Y-14477476D01*
X12483571Y-14487000D01*
X12474048Y-14496524D01*
X12464524Y-14515571D01*
X12464524Y-14563190D01*
X12474048Y-14582238D01*
X12483571Y-14591762D01*
X12502619Y-14601286D01*
X12540714Y-14601286D01*
X12559762Y-14591762D01*
X12569286Y-14582238D01*
X12578809Y-14563190D01*
X12702619Y-14477476D02*
X12721667Y-14477476D01*
X12740714Y-14487000D01*
X12750238Y-14496524D01*
X12759762Y-14515571D01*
X12769286Y-14553667D01*
X12769286Y-14601286D01*
X12759762Y-14639381D01*
X12750238Y-14658428D01*
X12740714Y-14667952D01*
X12721667Y-14677476D01*
X12702619Y-14677476D01*
X12683571Y-14667952D01*
X12674048Y-14658428D01*
X12664524Y-14639381D01*
X12655000Y-14601286D01*
X12655000Y-14553667D01*
X12664524Y-14515571D01*
X12674048Y-14496524D01*
X12683571Y-14487000D01*
X12702619Y-14477476D01*
X12845476Y-14477476D02*
X12845476Y-14515571D01*
X12921667Y-14477476D02*
X12921667Y-14515571D01*
X13216905Y-14753667D02*
X13207381Y-14744143D01*
X13188333Y-14715571D01*
X13178809Y-14696524D01*
X13169286Y-14667952D01*
X13159762Y-14620333D01*
X13159762Y-14582238D01*
X13169286Y-14534619D01*
X13178809Y-14506048D01*
X13188333Y-14487000D01*
X13207381Y-14458428D01*
X13216905Y-14448905D01*
X13274048Y-14477476D02*
X13397857Y-14477476D01*
X13331190Y-14553667D01*
X13359762Y-14553667D01*
X13378809Y-14563190D01*
X13388333Y-14572714D01*
X13397857Y-14591762D01*
X13397857Y-14639381D01*
X13388333Y-14658428D01*
X13378809Y-14667952D01*
X13359762Y-14677476D01*
X13302619Y-14677476D01*
X13283571Y-14667952D01*
X13274048Y-14658428D01*
X13635952Y-14677476D02*
X13635952Y-14477476D01*
X13721667Y-14677476D02*
X13721667Y-14572714D01*
X13712143Y-14553667D01*
X13693095Y-14544143D01*
X13664524Y-14544143D01*
X13645476Y-14553667D01*
X13635952Y-14563190D01*
X13845476Y-14677476D02*
X13826428Y-14667952D01*
X13816905Y-14658428D01*
X13807381Y-14639381D01*
X13807381Y-14582238D01*
X13816905Y-14563190D01*
X13826428Y-14553667D01*
X13845476Y-14544143D01*
X13874048Y-14544143D01*
X13893095Y-14553667D01*
X13902619Y-14563190D01*
X13912143Y-14582238D01*
X13912143Y-14639381D01*
X13902619Y-14658428D01*
X13893095Y-14667952D01*
X13874048Y-14677476D01*
X13845476Y-14677476D01*
X14026428Y-14677476D02*
X14007381Y-14667952D01*
X13997857Y-14648905D01*
X13997857Y-14477476D01*
X14178809Y-14667952D02*
X14159762Y-14677476D01*
X14121667Y-14677476D01*
X14102619Y-14667952D01*
X14093095Y-14648905D01*
X14093095Y-14572714D01*
X14102619Y-14553667D01*
X14121667Y-14544143D01*
X14159762Y-14544143D01*
X14178809Y-14553667D01*
X14188333Y-14572714D01*
X14188333Y-14591762D01*
X14093095Y-14610809D01*
X14264524Y-14667952D02*
X14283571Y-14677476D01*
X14321667Y-14677476D01*
X14340714Y-14667952D01*
X14350238Y-14648905D01*
X14350238Y-14639381D01*
X14340714Y-14620333D01*
X14321667Y-14610809D01*
X14293095Y-14610809D01*
X14274048Y-14601286D01*
X14264524Y-14582238D01*
X14264524Y-14572714D01*
X14274048Y-14553667D01*
X14293095Y-14544143D01*
X14321667Y-14544143D01*
X14340714Y-14553667D01*
X14416905Y-14753667D02*
X14426428Y-14744143D01*
X14445476Y-14715571D01*
X14455000Y-14696524D01*
X14464524Y-14667952D01*
X14474048Y-14620333D01*
X14474048Y-14582238D01*
X14464524Y-14534619D01*
X14455000Y-14506048D01*
X14445476Y-14487000D01*
X14426428Y-14458428D01*
X14416905Y-14448905D01*
D16*
X9595000Y-14901000D02*
X9645000Y-14851000D01*
X9595000Y-14801000D01*
X9545000Y-14851000D01*
X9595000Y-14901000D01*
D11*
X10007381Y-14941476D02*
X9893095Y-14941476D01*
X9950238Y-14941476D02*
X9950238Y-14741476D01*
X9931190Y-14770048D01*
X9912143Y-14789095D01*
X9893095Y-14798619D01*
X10093095Y-14922428D02*
X10102619Y-14931952D01*
X10093095Y-14941476D01*
X10083571Y-14931952D01*
X10093095Y-14922428D01*
X10093095Y-14941476D01*
X10226429Y-14741476D02*
X10245476Y-14741476D01*
X10264524Y-14751000D01*
X10274048Y-14760524D01*
X10283571Y-14779571D01*
X10293095Y-14817667D01*
X10293095Y-14865286D01*
X10283571Y-14903381D01*
X10274048Y-14922428D01*
X10264524Y-14931952D01*
X10245476Y-14941476D01*
X10226429Y-14941476D01*
X10207381Y-14931952D01*
X10197857Y-14922428D01*
X10188333Y-14903381D01*
X10178810Y-14865286D01*
X10178810Y-14817667D01*
X10188333Y-14779571D01*
X10197857Y-14760524D01*
X10207381Y-14751000D01*
X10226429Y-14741476D01*
X10416905Y-14741476D02*
X10435952Y-14741476D01*
X10455000Y-14751000D01*
X10464524Y-14760524D01*
X10474048Y-14779571D01*
X10483571Y-14817667D01*
X10483571Y-14865286D01*
X10474048Y-14903381D01*
X10464524Y-14922428D01*
X10455000Y-14931952D01*
X10435952Y-14941476D01*
X10416905Y-14941476D01*
X10397857Y-14931952D01*
X10388333Y-14922428D01*
X10378810Y-14903381D01*
X10369286Y-14865286D01*
X10369286Y-14817667D01*
X10378810Y-14779571D01*
X10388333Y-14760524D01*
X10397857Y-14751000D01*
X10416905Y-14741476D01*
X10607381Y-14741476D02*
X10626429Y-14741476D01*
X10645476Y-14751000D01*
X10655000Y-14760524D01*
X10664524Y-14779571D01*
X10674048Y-14817667D01*
X10674048Y-14865286D01*
X10664524Y-14903381D01*
X10655000Y-14922428D01*
X10645476Y-14931952D01*
X10626429Y-14941476D01*
X10607381Y-14941476D01*
X10588333Y-14931952D01*
X10578810Y-14922428D01*
X10569286Y-14903381D01*
X10559762Y-14865286D01*
X10559762Y-14817667D01*
X10569286Y-14779571D01*
X10578810Y-14760524D01*
X10588333Y-14751000D01*
X10607381Y-14741476D01*
X10759762Y-14941476D02*
X10759762Y-14808143D01*
X10759762Y-14827190D02*
X10769286Y-14817667D01*
X10788333Y-14808143D01*
X10816905Y-14808143D01*
X10835952Y-14817667D01*
X10845476Y-14836714D01*
X10845476Y-14941476D01*
X10845476Y-14836714D02*
X10855000Y-14817667D01*
X10874048Y-14808143D01*
X10902619Y-14808143D01*
X10921667Y-14817667D01*
X10931190Y-14836714D01*
X10931190Y-14941476D01*
X11026429Y-14941476D02*
X11026429Y-14808143D01*
X11026429Y-14827190D02*
X11035952Y-14817667D01*
X11055000Y-14808143D01*
X11083571Y-14808143D01*
X11102619Y-14817667D01*
X11112143Y-14836714D01*
X11112143Y-14941476D01*
X11112143Y-14836714D02*
X11121667Y-14817667D01*
X11140714Y-14808143D01*
X11169286Y-14808143D01*
X11188333Y-14817667D01*
X11197857Y-14836714D01*
X11197857Y-14941476D01*
X11588333Y-14731952D02*
X11416905Y-14989095D01*
X11845476Y-14741476D02*
X11864524Y-14741476D01*
X11883571Y-14751000D01*
X11893095Y-14760524D01*
X11902619Y-14779571D01*
X11912143Y-14817667D01*
X11912143Y-14865286D01*
X11902619Y-14903381D01*
X11893095Y-14922428D01*
X11883571Y-14931952D01*
X11864524Y-14941476D01*
X11845476Y-14941476D01*
X11826428Y-14931952D01*
X11816905Y-14922428D01*
X11807381Y-14903381D01*
X11797857Y-14865286D01*
X11797857Y-14817667D01*
X11807381Y-14779571D01*
X11816905Y-14760524D01*
X11826428Y-14751000D01*
X11845476Y-14741476D01*
X11997857Y-14922428D02*
X12007381Y-14931952D01*
X11997857Y-14941476D01*
X11988333Y-14931952D01*
X11997857Y-14922428D01*
X11997857Y-14941476D01*
X12131190Y-14741476D02*
X12150238Y-14741476D01*
X12169286Y-14751000D01*
X12178809Y-14760524D01*
X12188333Y-14779571D01*
X12197857Y-14817667D01*
X12197857Y-14865286D01*
X12188333Y-14903381D01*
X12178809Y-14922428D01*
X12169286Y-14931952D01*
X12150238Y-14941476D01*
X12131190Y-14941476D01*
X12112143Y-14931952D01*
X12102619Y-14922428D01*
X12093095Y-14903381D01*
X12083571Y-14865286D01*
X12083571Y-14817667D01*
X12093095Y-14779571D01*
X12102619Y-14760524D01*
X12112143Y-14751000D01*
X12131190Y-14741476D01*
X12264524Y-14741476D02*
X12388333Y-14741476D01*
X12321667Y-14817667D01*
X12350238Y-14817667D01*
X12369286Y-14827190D01*
X12378809Y-14836714D01*
X12388333Y-14855762D01*
X12388333Y-14903381D01*
X12378809Y-14922428D01*
X12369286Y-14931952D01*
X12350238Y-14941476D01*
X12293095Y-14941476D01*
X12274048Y-14931952D01*
X12264524Y-14922428D01*
X12483571Y-14941476D02*
X12521667Y-14941476D01*
X12540714Y-14931952D01*
X12550238Y-14922428D01*
X12569286Y-14893857D01*
X12578809Y-14855762D01*
X12578809Y-14779571D01*
X12569286Y-14760524D01*
X12559762Y-14751000D01*
X12540714Y-14741476D01*
X12502619Y-14741476D01*
X12483571Y-14751000D01*
X12474048Y-14760524D01*
X12464524Y-14779571D01*
X12464524Y-14827190D01*
X12474048Y-14846238D01*
X12483571Y-14855762D01*
X12502619Y-14865286D01*
X12540714Y-14865286D01*
X12559762Y-14855762D01*
X12569286Y-14846238D01*
X12578809Y-14827190D01*
X12750238Y-14808143D02*
X12750238Y-14941476D01*
X12702619Y-14731952D02*
X12655000Y-14874809D01*
X12778809Y-14874809D01*
X12845476Y-14741476D02*
X12845476Y-14779571D01*
X12921667Y-14741476D02*
X12921667Y-14779571D01*
X13216905Y-15017667D02*
X13207381Y-15008143D01*
X13188333Y-14979571D01*
X13178809Y-14960524D01*
X13169286Y-14931952D01*
X13159762Y-14884333D01*
X13159762Y-14846238D01*
X13169286Y-14798619D01*
X13178809Y-14770048D01*
X13188333Y-14751000D01*
X13207381Y-14722428D01*
X13216905Y-14712905D01*
X13283571Y-14760524D02*
X13293095Y-14751000D01*
X13312143Y-14741476D01*
X13359762Y-14741476D01*
X13378809Y-14751000D01*
X13388333Y-14760524D01*
X13397857Y-14779571D01*
X13397857Y-14798619D01*
X13388333Y-14827190D01*
X13274048Y-14941476D01*
X13397857Y-14941476D01*
X13493095Y-14941476D02*
X13531190Y-14941476D01*
X13550238Y-14931952D01*
X13559762Y-14922428D01*
X13578809Y-14893857D01*
X13588333Y-14855762D01*
X13588333Y-14779571D01*
X13578809Y-14760524D01*
X13569286Y-14751000D01*
X13550238Y-14741476D01*
X13512143Y-14741476D01*
X13493095Y-14751000D01*
X13483571Y-14760524D01*
X13474048Y-14779571D01*
X13474048Y-14827190D01*
X13483571Y-14846238D01*
X13493095Y-14855762D01*
X13512143Y-14865286D01*
X13550238Y-14865286D01*
X13569286Y-14855762D01*
X13578809Y-14846238D01*
X13588333Y-14827190D01*
X13826428Y-14941476D02*
X13826428Y-14741476D01*
X13912143Y-14941476D02*
X13912143Y-14836714D01*
X13902619Y-14817667D01*
X13883571Y-14808143D01*
X13855000Y-14808143D01*
X13835952Y-14817667D01*
X13826428Y-14827190D01*
X14035952Y-14941476D02*
X14016905Y-14931952D01*
X14007381Y-14922428D01*
X13997857Y-14903381D01*
X13997857Y-14846238D01*
X14007381Y-14827190D01*
X14016905Y-14817667D01*
X14035952Y-14808143D01*
X14064524Y-14808143D01*
X14083571Y-14817667D01*
X14093095Y-14827190D01*
X14102619Y-14846238D01*
X14102619Y-14903381D01*
X14093095Y-14922428D01*
X14083571Y-14931952D01*
X14064524Y-14941476D01*
X14035952Y-14941476D01*
X14216905Y-14941476D02*
X14197857Y-14931952D01*
X14188333Y-14912905D01*
X14188333Y-14741476D01*
X14369286Y-14931952D02*
X14350238Y-14941476D01*
X14312143Y-14941476D01*
X14293095Y-14931952D01*
X14283571Y-14912905D01*
X14283571Y-14836714D01*
X14293095Y-14817667D01*
X14312143Y-14808143D01*
X14350238Y-14808143D01*
X14369286Y-14817667D01*
X14378809Y-14836714D01*
X14378809Y-14855762D01*
X14283571Y-14874809D01*
X14455000Y-14931952D02*
X14474048Y-14941476D01*
X14512143Y-14941476D01*
X14531190Y-14931952D01*
X14540714Y-14912905D01*
X14540714Y-14903381D01*
X14531190Y-14884333D01*
X14512143Y-14874809D01*
X14483571Y-14874809D01*
X14464524Y-14865286D01*
X14455000Y-14846238D01*
X14455000Y-14836714D01*
X14464524Y-14817667D01*
X14483571Y-14808143D01*
X14512143Y-14808143D01*
X14531190Y-14817667D01*
X14607381Y-15017667D02*
X14616905Y-15008143D01*
X14635952Y-14979571D01*
X14645476Y-14960524D01*
X14655000Y-14931952D01*
X14664524Y-14884333D01*
X14664524Y-14846238D01*
X14655000Y-14798619D01*
X14645476Y-14770048D01*
X14635952Y-14751000D01*
X14616905Y-14722428D01*
X14607381Y-14712905D01*
D17*
X9535000Y-15060000D02*
X9645000Y-15170000D01*
X9645000Y-15060000D02*
X9535000Y-15170000D01*
X9645000Y-15115000D02*
G75*
G03*
X9645000Y-15115000I-55000J0D01*
G01*
D11*
X10007381Y-15205476D02*
X9893095Y-15205476D01*
X9950238Y-15205476D02*
X9950238Y-15005476D01*
X9931190Y-15034048D01*
X9912143Y-15053095D01*
X9893095Y-15062619D01*
X10093095Y-15186428D02*
X10102619Y-15195952D01*
X10093095Y-15205476D01*
X10083571Y-15195952D01*
X10093095Y-15186428D01*
X10093095Y-15205476D01*
X10293095Y-15205476D02*
X10178810Y-15205476D01*
X10235952Y-15205476D02*
X10235952Y-15005476D01*
X10216905Y-15034048D01*
X10197857Y-15053095D01*
X10178810Y-15062619D01*
X10416905Y-15005476D02*
X10435952Y-15005476D01*
X10455000Y-15015000D01*
X10464524Y-15024524D01*
X10474048Y-15043571D01*
X10483571Y-15081667D01*
X10483571Y-15129286D01*
X10474048Y-15167381D01*
X10464524Y-15186428D01*
X10455000Y-15195952D01*
X10435952Y-15205476D01*
X10416905Y-15205476D01*
X10397857Y-15195952D01*
X10388333Y-15186428D01*
X10378810Y-15167381D01*
X10369286Y-15129286D01*
X10369286Y-15081667D01*
X10378810Y-15043571D01*
X10388333Y-15024524D01*
X10397857Y-15015000D01*
X10416905Y-15005476D01*
X10607381Y-15005476D02*
X10626429Y-15005476D01*
X10645476Y-15015000D01*
X10655000Y-15024524D01*
X10664524Y-15043571D01*
X10674048Y-15081667D01*
X10674048Y-15129286D01*
X10664524Y-15167381D01*
X10655000Y-15186428D01*
X10645476Y-15195952D01*
X10626429Y-15205476D01*
X10607381Y-15205476D01*
X10588333Y-15195952D01*
X10578810Y-15186428D01*
X10569286Y-15167381D01*
X10559762Y-15129286D01*
X10559762Y-15081667D01*
X10569286Y-15043571D01*
X10578810Y-15024524D01*
X10588333Y-15015000D01*
X10607381Y-15005476D01*
X10759762Y-15205476D02*
X10759762Y-15072143D01*
X10759762Y-15091190D02*
X10769286Y-15081667D01*
X10788333Y-15072143D01*
X10816905Y-15072143D01*
X10835952Y-15081667D01*
X10845476Y-15100714D01*
X10845476Y-15205476D01*
X10845476Y-15100714D02*
X10855000Y-15081667D01*
X10874048Y-15072143D01*
X10902619Y-15072143D01*
X10921667Y-15081667D01*
X10931190Y-15100714D01*
X10931190Y-15205476D01*
X11026429Y-15205476D02*
X11026429Y-15072143D01*
X11026429Y-15091190D02*
X11035952Y-15081667D01*
X11055000Y-15072143D01*
X11083571Y-15072143D01*
X11102619Y-15081667D01*
X11112143Y-15100714D01*
X11112143Y-15205476D01*
X11112143Y-15100714D02*
X11121667Y-15081667D01*
X11140714Y-15072143D01*
X11169286Y-15072143D01*
X11188333Y-15081667D01*
X11197857Y-15100714D01*
X11197857Y-15205476D01*
X11588333Y-14995952D02*
X11416905Y-15253095D01*
X11845476Y-15005476D02*
X11864524Y-15005476D01*
X11883571Y-15015000D01*
X11893095Y-15024524D01*
X11902619Y-15043571D01*
X11912143Y-15081667D01*
X11912143Y-15129286D01*
X11902619Y-15167381D01*
X11893095Y-15186428D01*
X11883571Y-15195952D01*
X11864524Y-15205476D01*
X11845476Y-15205476D01*
X11826428Y-15195952D01*
X11816905Y-15186428D01*
X11807381Y-15167381D01*
X11797857Y-15129286D01*
X11797857Y-15081667D01*
X11807381Y-15043571D01*
X11816905Y-15024524D01*
X11826428Y-15015000D01*
X11845476Y-15005476D01*
X11997857Y-15186428D02*
X12007381Y-15195952D01*
X11997857Y-15205476D01*
X11988333Y-15195952D01*
X11997857Y-15186428D01*
X11997857Y-15205476D01*
X12131190Y-15005476D02*
X12150238Y-15005476D01*
X12169286Y-15015000D01*
X12178809Y-15024524D01*
X12188333Y-15043571D01*
X12197857Y-15081667D01*
X12197857Y-15129286D01*
X12188333Y-15167381D01*
X12178809Y-15186428D01*
X12169286Y-15195952D01*
X12150238Y-15205476D01*
X12131190Y-15205476D01*
X12112143Y-15195952D01*
X12102619Y-15186428D01*
X12093095Y-15167381D01*
X12083571Y-15129286D01*
X12083571Y-15081667D01*
X12093095Y-15043571D01*
X12102619Y-15024524D01*
X12112143Y-15015000D01*
X12131190Y-15005476D01*
X12369286Y-15072143D02*
X12369286Y-15205476D01*
X12321667Y-14995952D02*
X12274048Y-15138809D01*
X12397857Y-15138809D01*
X12455000Y-15005476D02*
X12578809Y-15005476D01*
X12512143Y-15081667D01*
X12540714Y-15081667D01*
X12559762Y-15091190D01*
X12569286Y-15100714D01*
X12578809Y-15119762D01*
X12578809Y-15167381D01*
X12569286Y-15186428D01*
X12559762Y-15195952D01*
X12540714Y-15205476D01*
X12483571Y-15205476D01*
X12464524Y-15195952D01*
X12455000Y-15186428D01*
X12645476Y-15005476D02*
X12769286Y-15005476D01*
X12702619Y-15081667D01*
X12731190Y-15081667D01*
X12750238Y-15091190D01*
X12759762Y-15100714D01*
X12769286Y-15119762D01*
X12769286Y-15167381D01*
X12759762Y-15186428D01*
X12750238Y-15195952D01*
X12731190Y-15205476D01*
X12674048Y-15205476D01*
X12655000Y-15195952D01*
X12645476Y-15186428D01*
X12845476Y-15005476D02*
X12845476Y-15043571D01*
X12921667Y-15005476D02*
X12921667Y-15043571D01*
X13216905Y-15281667D02*
X13207381Y-15272143D01*
X13188333Y-15243571D01*
X13178809Y-15224524D01*
X13169286Y-15195952D01*
X13159762Y-15148333D01*
X13159762Y-15110238D01*
X13169286Y-15062619D01*
X13178809Y-15034048D01*
X13188333Y-15015000D01*
X13207381Y-14986428D01*
X13216905Y-14976905D01*
X13321667Y-15091190D02*
X13302619Y-15081667D01*
X13293095Y-15072143D01*
X13283571Y-15053095D01*
X13283571Y-15043571D01*
X13293095Y-15024524D01*
X13302619Y-15015000D01*
X13321667Y-15005476D01*
X13359762Y-15005476D01*
X13378809Y-15015000D01*
X13388333Y-15024524D01*
X13397857Y-15043571D01*
X13397857Y-15053095D01*
X13388333Y-15072143D01*
X13378809Y-15081667D01*
X13359762Y-15091190D01*
X13321667Y-15091190D01*
X13302619Y-15100714D01*
X13293095Y-15110238D01*
X13283571Y-15129286D01*
X13283571Y-15167381D01*
X13293095Y-15186428D01*
X13302619Y-15195952D01*
X13321667Y-15205476D01*
X13359762Y-15205476D01*
X13378809Y-15195952D01*
X13388333Y-15186428D01*
X13397857Y-15167381D01*
X13397857Y-15129286D01*
X13388333Y-15110238D01*
X13378809Y-15100714D01*
X13359762Y-15091190D01*
X13635952Y-15205476D02*
X13635952Y-15005476D01*
X13721667Y-15205476D02*
X13721667Y-15100714D01*
X13712143Y-15081667D01*
X13693095Y-15072143D01*
X13664524Y-15072143D01*
X13645476Y-15081667D01*
X13635952Y-15091190D01*
X13845476Y-15205476D02*
X13826428Y-15195952D01*
X13816905Y-15186428D01*
X13807381Y-15167381D01*
X13807381Y-15110238D01*
X13816905Y-15091190D01*
X13826428Y-15081667D01*
X13845476Y-15072143D01*
X13874048Y-15072143D01*
X13893095Y-15081667D01*
X13902619Y-15091190D01*
X13912143Y-15110238D01*
X13912143Y-15167381D01*
X13902619Y-15186428D01*
X13893095Y-15195952D01*
X13874048Y-15205476D01*
X13845476Y-15205476D01*
X14026428Y-15205476D02*
X14007381Y-15195952D01*
X13997857Y-15176905D01*
X13997857Y-15005476D01*
X14178809Y-15195952D02*
X14159762Y-15205476D01*
X14121667Y-15205476D01*
X14102619Y-15195952D01*
X14093095Y-15176905D01*
X14093095Y-15100714D01*
X14102619Y-15081667D01*
X14121667Y-15072143D01*
X14159762Y-15072143D01*
X14178809Y-15081667D01*
X14188333Y-15100714D01*
X14188333Y-15119762D01*
X14093095Y-15138809D01*
X14264524Y-15195952D02*
X14283571Y-15205476D01*
X14321667Y-15205476D01*
X14340714Y-15195952D01*
X14350238Y-15176905D01*
X14350238Y-15167381D01*
X14340714Y-15148333D01*
X14321667Y-15138809D01*
X14293095Y-15138809D01*
X14274048Y-15129286D01*
X14264524Y-15110238D01*
X14264524Y-15100714D01*
X14274048Y-15081667D01*
X14293095Y-15072143D01*
X14321667Y-15072143D01*
X14340714Y-15081667D01*
X14416905Y-15281667D02*
X14426428Y-15272143D01*
X14445476Y-15243571D01*
X14455000Y-15224524D01*
X14464524Y-15195952D01*
X14474048Y-15148333D01*
X14474048Y-15110238D01*
X14464524Y-15062619D01*
X14455000Y-15034048D01*
X14445476Y-15015000D01*
X14426428Y-14986428D01*
X14416905Y-14976905D01*
M02*
