G04 #@! TF.GenerationSoftware,KiCad,Pcbnew,(6.0.1)*
G04 #@! TF.CreationDate,2022-04-24T16:27:42-07:00*
G04 #@! TF.ProjectId,AudioAmp,41756469-6f41-46d7-902e-6b696361645f,rev?*
G04 #@! TF.SameCoordinates,Original*
G04 #@! TF.FileFunction,Copper,L3,Inr*
G04 #@! TF.FilePolarity,Positive*
%FSLAX46Y46*%
G04 Gerber Fmt 4.6, Leading zero omitted, Abs format (unit mm)*
G04 Created by KiCad (PCBNEW (6.0.1)) date 2022-04-24 16:27:42*
%MOMM*%
%LPD*%
G01*
G04 APERTURE LIST*
G04 #@! TA.AperFunction,ComponentPad*
%ADD10C,1.600000*%
G04 #@! TD*
G04 #@! TA.AperFunction,ComponentPad*
%ADD11R,2.000000X2.000000*%
G04 #@! TD*
G04 #@! TA.AperFunction,ComponentPad*
%ADD12C,2.000000*%
G04 #@! TD*
G04 #@! TA.AperFunction,ComponentPad*
%ADD13C,1.800000*%
G04 #@! TD*
G04 #@! TA.AperFunction,ComponentPad*
%ADD14R,1.700000X1.700000*%
G04 #@! TD*
G04 #@! TA.AperFunction,ComponentPad*
%ADD15O,1.700000X1.700000*%
G04 #@! TD*
G04 #@! TA.AperFunction,HeatsinkPad*
%ADD16C,0.508000*%
G04 #@! TD*
G04 #@! TA.AperFunction,ComponentPad*
%ADD17C,0.508000*%
G04 #@! TD*
G04 #@! TA.AperFunction,ComponentPad*
%ADD18C,1.498600*%
G04 #@! TD*
G04 #@! TA.AperFunction,ViaPad*
%ADD19C,0.800000*%
G04 #@! TD*
G04 APERTURE END LIST*
D10*
X175195000Y-103630000D03*
X175195000Y-108630000D03*
X119100000Y-114600000D03*
X124100000Y-114600000D03*
D11*
X139832323Y-121300000D03*
D12*
X144832323Y-121300000D03*
D13*
X158040000Y-97190000D03*
X166300000Y-97190000D03*
X166300000Y-103900000D03*
X158040000Y-103900000D03*
D14*
X179700000Y-106660000D03*
D15*
X179700000Y-109200000D03*
D11*
X144200000Y-84632323D03*
D12*
X144200000Y-89632323D03*
D14*
X152875000Y-76475000D03*
D15*
X152875000Y-73935000D03*
X155415000Y-76475000D03*
X155415000Y-73935000D03*
X157955000Y-76475000D03*
X157955000Y-73935000D03*
D14*
X179700000Y-115270000D03*
D15*
X179700000Y-117810000D03*
D16*
X138492900Y-101036200D03*
X136918100Y-104185800D03*
X137705500Y-106548000D03*
X137705500Y-103398400D03*
X132981100Y-106548000D03*
X133768500Y-107335400D03*
X132193700Y-107335400D03*
X132193700Y-105760600D03*
X136130700Y-103398400D03*
X136918100Y-105760600D03*
X135343300Y-101036200D03*
X136130700Y-101823600D03*
X138492900Y-104185800D03*
X136918100Y-107335400D03*
X136918100Y-102611000D03*
X134555900Y-103398400D03*
X135343300Y-102611000D03*
X132193700Y-101036200D03*
X139280300Y-103398400D03*
X132193700Y-104185800D03*
X139280300Y-104973200D03*
X138492900Y-102611000D03*
X136130700Y-106548000D03*
X134555900Y-101823600D03*
D17*
X132981100Y-103398400D03*
D16*
X133768500Y-101036200D03*
X133768500Y-102611000D03*
X136918100Y-101036200D03*
X134555900Y-100248800D03*
X135343300Y-104185800D03*
X137705500Y-104973200D03*
X134555900Y-104973200D03*
X132981100Y-100248800D03*
X132193700Y-102611000D03*
X132981100Y-104973200D03*
X136130700Y-100248800D03*
X138492900Y-105760600D03*
X139280300Y-106548000D03*
X135343300Y-105760600D03*
X138492900Y-107335400D03*
X139280300Y-101823600D03*
X137705500Y-101823600D03*
X133768500Y-104185800D03*
X133768500Y-105760600D03*
X135343300Y-107335400D03*
X132981100Y-101823600D03*
X139280300Y-100248800D03*
X136130700Y-104973200D03*
X137705500Y-100248800D03*
X134555900Y-106548000D03*
D14*
X122325000Y-125525000D03*
D15*
X119785000Y-125525000D03*
X117245000Y-125525000D03*
D14*
X107575000Y-99125000D03*
D15*
X105035000Y-99125000D03*
D10*
X174000000Y-114100000D03*
X174000000Y-119100000D03*
D11*
X133867677Y-121300000D03*
D12*
X128867677Y-121300000D03*
D18*
X110664500Y-115765500D03*
X108764500Y-117565500D03*
X110664500Y-119365500D03*
D11*
X133500000Y-84532323D03*
D12*
X133500000Y-89532323D03*
D10*
X119100000Y-119200000D03*
X124100000Y-119200000D03*
D14*
X109125000Y-106575000D03*
D15*
X111665000Y-106575000D03*
X109125000Y-109115000D03*
X111665000Y-109115000D03*
X109125000Y-111655000D03*
X111665000Y-111655000D03*
D13*
X156970000Y-113245000D03*
X165230000Y-113245000D03*
X165230000Y-119955000D03*
X156970000Y-119955000D03*
D19*
X134900000Y-113000000D03*
X127000000Y-128270000D03*
X170180000Y-85090000D03*
X100330000Y-105410000D03*
X146500000Y-105500000D03*
X100360000Y-120660000D03*
X148590000Y-128270000D03*
X133350000Y-109220000D03*
X150500000Y-100100000D03*
X134290000Y-71080000D03*
X163860000Y-74950000D03*
X144780000Y-124460000D03*
X100330000Y-97790000D03*
X140600000Y-71120000D03*
X137160000Y-128270000D03*
X140970000Y-93980000D03*
X129700000Y-103400000D03*
X172720000Y-96520000D03*
X170180000Y-90170000D03*
X128000000Y-111500000D03*
X169900000Y-116700000D03*
X179070000Y-100330000D03*
X130810000Y-109220000D03*
X113030000Y-125730000D03*
X147320000Y-91440000D03*
X175260000Y-100330000D03*
X107950000Y-125730000D03*
X147320000Y-88900000D03*
X105410000Y-111760000D03*
X161290000Y-120650000D03*
X162170000Y-100545000D03*
X143510000Y-93980000D03*
X162560000Y-127000000D03*
X130810000Y-124460000D03*
X125200000Y-100400000D03*
X143500000Y-96100000D03*
X170180000Y-74930000D03*
X143510000Y-128270000D03*
X137410000Y-71120000D03*
X170180000Y-80010000D03*
X121920000Y-105410000D03*
X163830000Y-90170000D03*
X161290000Y-107950000D03*
X163830000Y-85090000D03*
X121300000Y-102500000D03*
X161290000Y-116840000D03*
X140970000Y-109220000D03*
X121920000Y-107950000D03*
X100330000Y-114300000D03*
X168910000Y-127000000D03*
X143170000Y-71120000D03*
X161290000Y-113030000D03*
X177800000Y-96520000D03*
X163830000Y-80010000D03*
X153670000Y-127000000D03*
X129540000Y-91440000D03*
X150800000Y-115800000D03*
X105410000Y-109220000D03*
X170795000Y-106430000D03*
X132080000Y-128270000D03*
X129700000Y-101800000D03*
X116100000Y-103500000D03*
X125800000Y-97800000D03*
X109500000Y-103400000D03*
X113000000Y-103400000D03*
X129700000Y-100200000D03*
X130600000Y-93900000D03*
X106800000Y-106600000D03*
X127800000Y-95900000D03*
X150600000Y-106100000D03*
X140700000Y-82500000D03*
X118900000Y-73700000D03*
X140700000Y-85300000D03*
X118900000Y-78100000D03*
X137000000Y-85300000D03*
X122100000Y-71200000D03*
X118900000Y-76100000D03*
X118900000Y-71200000D03*
X126800000Y-71200000D03*
X136900000Y-121300000D03*
X137000000Y-82500000D03*
X124700000Y-71200000D03*
X145500000Y-104400000D03*
X149200000Y-103300000D03*
X145500000Y-102200000D03*
G04 #@! TA.AperFunction,Conductor*
G36*
X155209613Y-67508001D02*
G01*
X155648327Y-67509566D01*
X180874449Y-67599552D01*
X180942498Y-67619797D01*
X180988800Y-67673618D01*
X181000000Y-67725551D01*
X181000000Y-105259856D01*
X180979998Y-105327977D01*
X180926342Y-105374470D01*
X180856068Y-105384574D01*
X180813044Y-105366734D01*
X180811760Y-105369079D01*
X180803892Y-105364771D01*
X180796705Y-105359385D01*
X180660316Y-105308255D01*
X180598134Y-105301500D01*
X178801866Y-105301500D01*
X178739684Y-105308255D01*
X178603295Y-105359385D01*
X178486739Y-105446739D01*
X178399385Y-105563295D01*
X178348255Y-105699684D01*
X178341500Y-105761866D01*
X178341500Y-107558134D01*
X178348255Y-107620316D01*
X178399385Y-107756705D01*
X178486739Y-107873261D01*
X178603295Y-107960615D01*
X178611704Y-107963767D01*
X178611705Y-107963768D01*
X178720451Y-108004535D01*
X178777216Y-108047176D01*
X178801916Y-108113738D01*
X178786709Y-108183087D01*
X178767316Y-108209568D01*
X178692731Y-108287617D01*
X178640629Y-108342138D01*
X178637715Y-108346410D01*
X178637714Y-108346411D01*
X178576234Y-108436538D01*
X178514743Y-108526680D01*
X178469325Y-108624525D01*
X178445570Y-108675702D01*
X178420688Y-108729305D01*
X178360989Y-108944570D01*
X178337251Y-109166695D01*
X178337548Y-109171848D01*
X178337548Y-109171851D01*
X178344173Y-109286749D01*
X178350110Y-109389715D01*
X178351247Y-109394761D01*
X178351248Y-109394767D01*
X178372275Y-109488069D01*
X178399222Y-109607639D01*
X178483266Y-109814616D01*
X178534942Y-109898944D01*
X178592646Y-109993108D01*
X178599987Y-110005088D01*
X178746250Y-110173938D01*
X178918126Y-110316632D01*
X179111000Y-110429338D01*
X179115825Y-110431180D01*
X179115826Y-110431181D01*
X179188612Y-110458975D01*
X179319692Y-110509030D01*
X179324760Y-110510061D01*
X179324763Y-110510062D01*
X179387373Y-110522800D01*
X179538597Y-110553567D01*
X179543772Y-110553757D01*
X179543774Y-110553757D01*
X179756673Y-110561564D01*
X179756677Y-110561564D01*
X179761837Y-110561753D01*
X179766957Y-110561097D01*
X179766959Y-110561097D01*
X179978288Y-110534025D01*
X179978289Y-110534025D01*
X179983416Y-110533368D01*
X180018641Y-110522800D01*
X180192429Y-110470661D01*
X180192434Y-110470659D01*
X180197384Y-110469174D01*
X180397994Y-110370896D01*
X180579860Y-110241173D01*
X180589435Y-110231632D01*
X180734435Y-110087137D01*
X180738096Y-110083489D01*
X180771677Y-110036756D01*
X180827672Y-109993108D01*
X180898375Y-109986662D01*
X180961340Y-110019465D01*
X180996574Y-110081101D01*
X181000000Y-110110282D01*
X181000000Y-113869856D01*
X180979998Y-113937977D01*
X180926342Y-113984470D01*
X180856068Y-113994574D01*
X180813044Y-113976734D01*
X180811760Y-113979079D01*
X180803892Y-113974771D01*
X180796705Y-113969385D01*
X180660316Y-113918255D01*
X180598134Y-113911500D01*
X178801866Y-113911500D01*
X178739684Y-113918255D01*
X178603295Y-113969385D01*
X178486739Y-114056739D01*
X178399385Y-114173295D01*
X178348255Y-114309684D01*
X178341500Y-114371866D01*
X178341500Y-116168134D01*
X178348255Y-116230316D01*
X178399385Y-116366705D01*
X178486739Y-116483261D01*
X178603295Y-116570615D01*
X178611704Y-116573767D01*
X178611705Y-116573768D01*
X178720451Y-116614535D01*
X178777216Y-116657176D01*
X178801916Y-116723738D01*
X178786709Y-116793087D01*
X178767316Y-116819568D01*
X178678647Y-116912355D01*
X178640629Y-116952138D01*
X178637715Y-116956410D01*
X178637714Y-116956411D01*
X178601566Y-117009402D01*
X178514743Y-117136680D01*
X178420688Y-117339305D01*
X178360989Y-117554570D01*
X178337251Y-117776695D01*
X178350110Y-117999715D01*
X178351247Y-118004761D01*
X178351248Y-118004767D01*
X178369182Y-118084345D01*
X178399222Y-118217639D01*
X178443879Y-118327616D01*
X178462135Y-118372575D01*
X178483266Y-118424616D01*
X178485965Y-118429020D01*
X178592646Y-118603108D01*
X178599987Y-118615088D01*
X178746250Y-118783938D01*
X178918126Y-118926632D01*
X179111000Y-119039338D01*
X179319692Y-119119030D01*
X179324760Y-119120061D01*
X179324763Y-119120062D01*
X179427790Y-119141023D01*
X179538597Y-119163567D01*
X179543772Y-119163757D01*
X179543774Y-119163757D01*
X179756673Y-119171564D01*
X179756677Y-119171564D01*
X179761837Y-119171753D01*
X179766957Y-119171097D01*
X179766959Y-119171097D01*
X179978288Y-119144025D01*
X179978289Y-119144025D01*
X179983416Y-119143368D01*
X179988366Y-119141883D01*
X180192429Y-119080661D01*
X180192434Y-119080659D01*
X180197384Y-119079174D01*
X180397994Y-118980896D01*
X180579860Y-118851173D01*
X180584016Y-118847032D01*
X180672303Y-118759052D01*
X180738096Y-118693489D01*
X180771677Y-118646756D01*
X180827672Y-118603108D01*
X180898375Y-118596662D01*
X180961340Y-118629465D01*
X180996574Y-118691101D01*
X181000000Y-118720282D01*
X181000000Y-130473698D01*
X180979998Y-130541819D01*
X180926342Y-130588312D01*
X180873699Y-130599698D01*
X97424904Y-130400298D01*
X97356831Y-130380133D01*
X97310467Y-130326366D01*
X97299208Y-130275097D01*
X97288010Y-128508500D01*
X97277228Y-126807655D01*
X100139858Y-126807655D01*
X100175104Y-127066638D01*
X100176412Y-127071124D01*
X100176412Y-127071126D01*
X100189678Y-127116638D01*
X100248243Y-127317567D01*
X100357668Y-127554928D01*
X100360231Y-127558837D01*
X100498410Y-127769596D01*
X100498414Y-127769601D01*
X100500976Y-127773509D01*
X100675018Y-127968506D01*
X100875970Y-128135637D01*
X100879973Y-128138066D01*
X101095422Y-128268804D01*
X101095426Y-128268806D01*
X101099419Y-128271229D01*
X101340455Y-128372303D01*
X101593783Y-128436641D01*
X101598434Y-128437109D01*
X101598438Y-128437110D01*
X101791308Y-128456531D01*
X101810867Y-128458500D01*
X101966354Y-128458500D01*
X101968679Y-128458327D01*
X101968685Y-128458327D01*
X102156000Y-128444407D01*
X102156004Y-128444406D01*
X102160652Y-128444061D01*
X102165200Y-128443032D01*
X102165206Y-128443031D01*
X102351601Y-128400853D01*
X102415577Y-128386377D01*
X102451769Y-128372303D01*
X102654824Y-128293340D01*
X102654827Y-128293339D01*
X102659177Y-128291647D01*
X102886098Y-128161951D01*
X103091357Y-128000138D01*
X103270443Y-127809763D01*
X103412543Y-127604928D01*
X103416759Y-127598851D01*
X103416761Y-127598848D01*
X103419424Y-127595009D01*
X103441284Y-127550682D01*
X103532960Y-127364781D01*
X103532961Y-127364778D01*
X103535025Y-127360593D01*
X103614707Y-127111665D01*
X103656721Y-126853693D01*
X103660142Y-126592345D01*
X103624896Y-126333362D01*
X103610473Y-126283877D01*
X103586222Y-126200678D01*
X103551757Y-126082433D01*
X103442332Y-125845072D01*
X103409519Y-125795024D01*
X103301590Y-125630404D01*
X103301586Y-125630399D01*
X103299024Y-125626491D01*
X103178714Y-125491695D01*
X115882251Y-125491695D01*
X115882548Y-125496848D01*
X115882548Y-125496851D01*
X115892705Y-125672999D01*
X115895110Y-125714715D01*
X115896247Y-125719761D01*
X115896248Y-125719767D01*
X115914589Y-125801149D01*
X115944222Y-125932639D01*
X116028266Y-126139616D01*
X116065685Y-126200678D01*
X116142291Y-126325688D01*
X116144987Y-126330088D01*
X116291250Y-126498938D01*
X116463126Y-126641632D01*
X116656000Y-126754338D01*
X116864692Y-126834030D01*
X116869760Y-126835061D01*
X116869763Y-126835062D01*
X116957824Y-126852978D01*
X117083597Y-126878567D01*
X117088772Y-126878757D01*
X117088774Y-126878757D01*
X117301673Y-126886564D01*
X117301677Y-126886564D01*
X117306837Y-126886753D01*
X117311957Y-126886097D01*
X117311959Y-126886097D01*
X117523288Y-126859025D01*
X117523289Y-126859025D01*
X117528416Y-126858368D01*
X117533366Y-126856883D01*
X117737429Y-126795661D01*
X117737434Y-126795659D01*
X117742384Y-126794174D01*
X117942994Y-126695896D01*
X118124860Y-126566173D01*
X118283096Y-126408489D01*
X118301152Y-126383362D01*
X118413453Y-126227077D01*
X118414776Y-126228028D01*
X118461645Y-126184857D01*
X118531580Y-126172625D01*
X118597026Y-126200144D01*
X118624875Y-126231994D01*
X118684987Y-126330088D01*
X118831250Y-126498938D01*
X119003126Y-126641632D01*
X119196000Y-126754338D01*
X119404692Y-126834030D01*
X119409760Y-126835061D01*
X119409763Y-126835062D01*
X119497824Y-126852978D01*
X119623597Y-126878567D01*
X119628772Y-126878757D01*
X119628774Y-126878757D01*
X119841673Y-126886564D01*
X119841677Y-126886564D01*
X119846837Y-126886753D01*
X119851957Y-126886097D01*
X119851959Y-126886097D01*
X120063288Y-126859025D01*
X120063289Y-126859025D01*
X120068416Y-126858368D01*
X120073366Y-126856883D01*
X120277429Y-126795661D01*
X120277434Y-126795659D01*
X120282384Y-126794174D01*
X120482994Y-126695896D01*
X120664860Y-126566173D01*
X120773091Y-126458319D01*
X120835462Y-126424404D01*
X120906268Y-126429592D01*
X120963030Y-126472238D01*
X120980012Y-126503341D01*
X120997871Y-126550980D01*
X121024385Y-126621705D01*
X121111739Y-126738261D01*
X121228295Y-126825615D01*
X121364684Y-126876745D01*
X121426866Y-126883500D01*
X123223134Y-126883500D01*
X123285316Y-126876745D01*
X123336238Y-126857655D01*
X174589858Y-126857655D01*
X174625104Y-127116638D01*
X174626412Y-127121124D01*
X174626412Y-127121126D01*
X174646098Y-127188664D01*
X174698243Y-127367567D01*
X174807668Y-127604928D01*
X174810231Y-127608837D01*
X174948410Y-127819596D01*
X174948414Y-127819601D01*
X174950976Y-127823509D01*
X175125018Y-128018506D01*
X175325970Y-128185637D01*
X175329973Y-128188066D01*
X175545422Y-128318804D01*
X175545426Y-128318806D01*
X175549419Y-128321229D01*
X175790455Y-128422303D01*
X176043783Y-128486641D01*
X176048434Y-128487109D01*
X176048438Y-128487110D01*
X176241308Y-128506531D01*
X176260867Y-128508500D01*
X176416354Y-128508500D01*
X176418679Y-128508327D01*
X176418685Y-128508327D01*
X176606000Y-128494407D01*
X176606004Y-128494406D01*
X176610652Y-128494061D01*
X176615200Y-128493032D01*
X176615206Y-128493031D01*
X176801601Y-128450853D01*
X176865577Y-128436377D01*
X176901769Y-128422303D01*
X177104824Y-128343340D01*
X177104827Y-128343339D01*
X177109177Y-128341647D01*
X177336098Y-128211951D01*
X177541357Y-128050138D01*
X177720443Y-127859763D01*
X177869424Y-127645009D01*
X177896149Y-127590816D01*
X177982960Y-127414781D01*
X177982961Y-127414778D01*
X177985025Y-127410593D01*
X177999690Y-127364781D01*
X178063280Y-127166123D01*
X178064707Y-127161665D01*
X178106721Y-126903693D01*
X178108816Y-126743642D01*
X178110081Y-126647022D01*
X178110081Y-126647019D01*
X178110142Y-126642345D01*
X178074896Y-126383362D01*
X178060473Y-126333877D01*
X178029343Y-126227077D01*
X178001757Y-126132433D01*
X177892332Y-125895072D01*
X177833272Y-125804991D01*
X177751590Y-125680404D01*
X177751586Y-125680399D01*
X177749024Y-125676491D01*
X177574982Y-125481494D01*
X177374030Y-125314363D01*
X177292003Y-125264588D01*
X177154578Y-125181196D01*
X177154574Y-125181194D01*
X177150581Y-125178771D01*
X176909545Y-125077697D01*
X176656217Y-125013359D01*
X176651566Y-125012891D01*
X176651562Y-125012890D01*
X176442271Y-124991816D01*
X176439133Y-124991500D01*
X176283646Y-124991500D01*
X176281321Y-124991673D01*
X176281315Y-124991673D01*
X176094000Y-125005593D01*
X176093996Y-125005594D01*
X176089348Y-125005939D01*
X176084800Y-125006968D01*
X176084794Y-125006969D01*
X175898399Y-125049147D01*
X175834423Y-125063623D01*
X175830071Y-125065315D01*
X175830069Y-125065316D01*
X175595176Y-125156660D01*
X175595173Y-125156661D01*
X175590823Y-125158353D01*
X175363902Y-125288049D01*
X175158643Y-125449862D01*
X174979557Y-125640237D01*
X174924385Y-125719767D01*
X174834512Y-125849318D01*
X174830576Y-125854991D01*
X174828510Y-125859181D01*
X174828508Y-125859184D01*
X174741698Y-126035219D01*
X174714975Y-126089407D01*
X174635293Y-126338335D01*
X174593279Y-126596307D01*
X174592737Y-126637711D01*
X174591245Y-126751731D01*
X174589858Y-126857655D01*
X123336238Y-126857655D01*
X123421705Y-126825615D01*
X123538261Y-126738261D01*
X123625615Y-126621705D01*
X123676745Y-126485316D01*
X123683500Y-126423134D01*
X123683500Y-124626866D01*
X123676745Y-124564684D01*
X123625615Y-124428295D01*
X123538261Y-124311739D01*
X123421705Y-124224385D01*
X123285316Y-124173255D01*
X123223134Y-124166500D01*
X121426866Y-124166500D01*
X121364684Y-124173255D01*
X121228295Y-124224385D01*
X121111739Y-124311739D01*
X121024385Y-124428295D01*
X121021233Y-124436703D01*
X120979919Y-124546907D01*
X120937277Y-124603671D01*
X120870716Y-124628371D01*
X120801367Y-124613163D01*
X120768743Y-124587476D01*
X120718151Y-124531875D01*
X120718142Y-124531866D01*
X120714670Y-124528051D01*
X120710619Y-124524852D01*
X120710615Y-124524848D01*
X120543414Y-124392800D01*
X120543410Y-124392798D01*
X120539359Y-124389598D01*
X120343789Y-124281638D01*
X120338920Y-124279914D01*
X120338916Y-124279912D01*
X120138087Y-124208795D01*
X120138083Y-124208794D01*
X120133212Y-124207069D01*
X120128119Y-124206162D01*
X120128116Y-124206161D01*
X119918373Y-124168800D01*
X119918367Y-124168799D01*
X119913284Y-124167894D01*
X119839452Y-124166992D01*
X119695081Y-124165228D01*
X119695079Y-124165228D01*
X119689911Y-124165165D01*
X119469091Y-124198955D01*
X119256756Y-124268357D01*
X119058607Y-124371507D01*
X119054474Y-124374610D01*
X119054471Y-124374612D01*
X118884100Y-124502530D01*
X118879965Y-124505635D01*
X118840525Y-124546907D01*
X118786280Y-124603671D01*
X118725629Y-124667138D01*
X118618201Y-124824621D01*
X118563293Y-124869621D01*
X118492768Y-124877792D01*
X118429021Y-124846538D01*
X118408324Y-124822054D01*
X118327822Y-124697617D01*
X118327820Y-124697614D01*
X118325014Y-124693277D01*
X118174670Y-124528051D01*
X118170619Y-124524852D01*
X118170615Y-124524848D01*
X118003414Y-124392800D01*
X118003410Y-124392798D01*
X117999359Y-124389598D01*
X117803789Y-124281638D01*
X117798920Y-124279914D01*
X117798916Y-124279912D01*
X117598087Y-124208795D01*
X117598083Y-124208794D01*
X117593212Y-124207069D01*
X117588119Y-124206162D01*
X117588116Y-124206161D01*
X117378373Y-124168800D01*
X117378367Y-124168799D01*
X117373284Y-124167894D01*
X117299452Y-124166992D01*
X117155081Y-124165228D01*
X117155079Y-124165228D01*
X117149911Y-124165165D01*
X116929091Y-124198955D01*
X116716756Y-124268357D01*
X116518607Y-124371507D01*
X116514474Y-124374610D01*
X116514471Y-124374612D01*
X116344100Y-124502530D01*
X116339965Y-124505635D01*
X116300525Y-124546907D01*
X116246280Y-124603671D01*
X116185629Y-124667138D01*
X116059743Y-124851680D01*
X116018050Y-124941500D01*
X115984160Y-125014511D01*
X115965688Y-125054305D01*
X115905989Y-125269570D01*
X115882251Y-125491695D01*
X103178714Y-125491695D01*
X103124982Y-125431494D01*
X102924030Y-125264363D01*
X102782979Y-125178771D01*
X102704578Y-125131196D01*
X102704574Y-125131194D01*
X102700581Y-125128771D01*
X102459545Y-125027697D01*
X102206217Y-124963359D01*
X102201566Y-124962891D01*
X102201562Y-124962890D01*
X101992271Y-124941816D01*
X101989133Y-124941500D01*
X101833646Y-124941500D01*
X101831321Y-124941673D01*
X101831315Y-124941673D01*
X101644000Y-124955593D01*
X101643996Y-124955594D01*
X101639348Y-124955939D01*
X101634800Y-124956968D01*
X101634794Y-124956969D01*
X101482192Y-124991500D01*
X101384423Y-125013623D01*
X101380071Y-125015315D01*
X101380069Y-125015316D01*
X101145176Y-125106660D01*
X101145173Y-125106661D01*
X101140823Y-125108353D01*
X100913902Y-125238049D01*
X100708643Y-125399862D01*
X100529557Y-125590237D01*
X100380576Y-125804991D01*
X100378510Y-125809181D01*
X100378508Y-125809184D01*
X100271187Y-126026811D01*
X100264975Y-126039407D01*
X100263553Y-126043850D01*
X100263552Y-126043852D01*
X100249762Y-126086932D01*
X100185293Y-126288335D01*
X100143279Y-126546307D01*
X100139858Y-126807655D01*
X97277228Y-126807655D01*
X97250128Y-122532670D01*
X127999837Y-122532670D01*
X128005564Y-122540320D01*
X128176719Y-122645205D01*
X128185514Y-122649687D01*
X128395665Y-122736734D01*
X128405050Y-122739783D01*
X128626231Y-122792885D01*
X128635978Y-122794428D01*
X128862747Y-122812275D01*
X128872607Y-122812275D01*
X129099376Y-122794428D01*
X129109123Y-122792885D01*
X129330304Y-122739783D01*
X129339689Y-122736734D01*
X129549840Y-122649687D01*
X129558635Y-122645205D01*
X129726122Y-122542568D01*
X129735584Y-122532110D01*
X129731801Y-122523334D01*
X129556601Y-122348134D01*
X132359177Y-122348134D01*
X132365932Y-122410316D01*
X132417062Y-122546705D01*
X132504416Y-122663261D01*
X132620972Y-122750615D01*
X132757361Y-122801745D01*
X132819543Y-122808500D01*
X134915811Y-122808500D01*
X134977993Y-122801745D01*
X135114382Y-122750615D01*
X135230938Y-122663261D01*
X135318292Y-122546705D01*
X135369422Y-122410316D01*
X135376177Y-122348134D01*
X138323823Y-122348134D01*
X138330578Y-122410316D01*
X138381708Y-122546705D01*
X138469062Y-122663261D01*
X138585618Y-122750615D01*
X138722007Y-122801745D01*
X138784189Y-122808500D01*
X140880457Y-122808500D01*
X140942639Y-122801745D01*
X141079028Y-122750615D01*
X141195584Y-122663261D01*
X141282938Y-122546705D01*
X141288199Y-122532670D01*
X143964483Y-122532670D01*
X143970210Y-122540320D01*
X144141365Y-122645205D01*
X144150160Y-122649687D01*
X144360311Y-122736734D01*
X144369696Y-122739783D01*
X144590877Y-122792885D01*
X144600624Y-122794428D01*
X144827393Y-122812275D01*
X144837253Y-122812275D01*
X145064022Y-122794428D01*
X145073769Y-122792885D01*
X145294950Y-122739783D01*
X145304335Y-122736734D01*
X145514486Y-122649687D01*
X145523281Y-122645205D01*
X145690768Y-122542568D01*
X145700230Y-122532110D01*
X145696447Y-122523334D01*
X144845135Y-121672022D01*
X144831191Y-121664408D01*
X144829358Y-121664539D01*
X144822743Y-121668790D01*
X143971243Y-122520290D01*
X143964483Y-122532670D01*
X141288199Y-122532670D01*
X141334068Y-122410316D01*
X141340823Y-122348134D01*
X141340823Y-121304930D01*
X143320048Y-121304930D01*
X143337895Y-121531699D01*
X143339438Y-121541446D01*
X143392540Y-121762627D01*
X143395589Y-121772012D01*
X143482636Y-121982163D01*
X143487118Y-121990958D01*
X143589755Y-122158445D01*
X143600213Y-122167907D01*
X143608989Y-122164124D01*
X144460301Y-121312812D01*
X144466679Y-121301132D01*
X145196731Y-121301132D01*
X145196862Y-121302965D01*
X145201113Y-121309580D01*
X146052613Y-122161080D01*
X146064993Y-122167840D01*
X146072643Y-122162113D01*
X146177528Y-121990958D01*
X146182010Y-121982163D01*
X146269057Y-121772012D01*
X146272106Y-121762627D01*
X146325208Y-121541446D01*
X146326751Y-121531699D01*
X146344598Y-121304930D01*
X146344598Y-121295070D01*
X146326751Y-121068301D01*
X146325208Y-121058554D01*
X146272106Y-120837373D01*
X146269057Y-120827988D01*
X146182010Y-120617837D01*
X146177528Y-120609042D01*
X146074891Y-120441555D01*
X146064433Y-120432093D01*
X146055657Y-120435876D01*
X145204345Y-121287188D01*
X145196731Y-121301132D01*
X144466679Y-121301132D01*
X144467915Y-121298868D01*
X144467784Y-121297035D01*
X144463533Y-121290420D01*
X143612033Y-120438920D01*
X143599653Y-120432160D01*
X143592003Y-120437887D01*
X143487118Y-120609042D01*
X143482636Y-120617837D01*
X143395589Y-120827988D01*
X143392540Y-120837373D01*
X143339438Y-121058554D01*
X143337895Y-121068301D01*
X143320048Y-121295070D01*
X143320048Y-121304930D01*
X141340823Y-121304930D01*
X141340823Y-120251866D01*
X141334068Y-120189684D01*
X141288409Y-120067890D01*
X143964416Y-120067890D01*
X143968199Y-120076666D01*
X144819511Y-120927978D01*
X144833455Y-120935592D01*
X144835288Y-120935461D01*
X144841903Y-120931210D01*
X145693403Y-120079710D01*
X145700163Y-120067330D01*
X145694436Y-120059680D01*
X145523281Y-119954795D01*
X145514486Y-119950313D01*
X145442436Y-119920469D01*
X155557095Y-119920469D01*
X155557392Y-119925622D01*
X155557392Y-119925625D01*
X155565238Y-120061703D01*
X155570427Y-120151697D01*
X155571564Y-120156743D01*
X155571565Y-120156749D01*
X155603741Y-120299523D01*
X155621346Y-120377642D01*
X155623288Y-120382424D01*
X155623289Y-120382428D01*
X155692516Y-120552912D01*
X155708484Y-120592237D01*
X155829501Y-120789719D01*
X155981147Y-120964784D01*
X156094094Y-121058554D01*
X156148586Y-121103794D01*
X156159349Y-121112730D01*
X156359322Y-121229584D01*
X156575694Y-121312209D01*
X156580760Y-121313240D01*
X156580761Y-121313240D01*
X156633846Y-121324040D01*
X156802656Y-121358385D01*
X156933324Y-121363176D01*
X157028949Y-121366683D01*
X157028953Y-121366683D01*
X157034113Y-121366872D01*
X157039233Y-121366216D01*
X157039235Y-121366216D01*
X157112270Y-121356860D01*
X157263847Y-121337442D01*
X157268795Y-121335957D01*
X157268802Y-121335956D01*
X157480747Y-121272369D01*
X157485690Y-121270886D01*
X157566236Y-121231427D01*
X157689049Y-121171262D01*
X157689052Y-121171260D01*
X157693684Y-121168991D01*
X157882243Y-121034494D01*
X158046303Y-120871005D01*
X158181458Y-120682917D01*
X158209033Y-120627124D01*
X158281784Y-120479922D01*
X158281785Y-120479920D01*
X158284078Y-120475280D01*
X158351408Y-120253671D01*
X158381640Y-120024041D01*
X158383327Y-119955000D01*
X158380488Y-119920469D01*
X163817095Y-119920469D01*
X163817392Y-119925622D01*
X163817392Y-119925625D01*
X163825238Y-120061703D01*
X163830427Y-120151697D01*
X163831564Y-120156743D01*
X163831565Y-120156749D01*
X163863741Y-120299523D01*
X163881346Y-120377642D01*
X163883288Y-120382424D01*
X163883289Y-120382428D01*
X163952516Y-120552912D01*
X163968484Y-120592237D01*
X164089501Y-120789719D01*
X164241147Y-120964784D01*
X164354094Y-121058554D01*
X164408586Y-121103794D01*
X164419349Y-121112730D01*
X164619322Y-121229584D01*
X164835694Y-121312209D01*
X164840760Y-121313240D01*
X164840761Y-121313240D01*
X164893846Y-121324040D01*
X165062656Y-121358385D01*
X165193324Y-121363176D01*
X165288949Y-121366683D01*
X165288953Y-121366683D01*
X165294113Y-121366872D01*
X165299233Y-121366216D01*
X165299235Y-121366216D01*
X165372270Y-121356860D01*
X165523847Y-121337442D01*
X165528795Y-121335957D01*
X165528802Y-121335956D01*
X165740747Y-121272369D01*
X165745690Y-121270886D01*
X165826236Y-121231427D01*
X165949049Y-121171262D01*
X165949052Y-121171260D01*
X165953684Y-121168991D01*
X166142243Y-121034494D01*
X166306303Y-120871005D01*
X166441458Y-120682917D01*
X166469033Y-120627124D01*
X166541784Y-120479922D01*
X166541785Y-120479920D01*
X166544078Y-120475280D01*
X166611408Y-120253671D01*
X166641640Y-120024041D01*
X166643327Y-119955000D01*
X166629885Y-119791500D01*
X166624773Y-119729318D01*
X166624772Y-119729312D01*
X166624349Y-119724167D01*
X166580411Y-119549243D01*
X166569184Y-119504544D01*
X166569183Y-119504540D01*
X166567925Y-119499533D01*
X166565866Y-119494797D01*
X166477630Y-119291868D01*
X166477628Y-119291865D01*
X166475570Y-119287131D01*
X166354509Y-119100000D01*
X172686502Y-119100000D01*
X172706457Y-119328087D01*
X172765716Y-119549243D01*
X172768039Y-119554224D01*
X172768039Y-119554225D01*
X172860151Y-119751762D01*
X172860154Y-119751767D01*
X172862477Y-119756749D01*
X172935902Y-119861611D01*
X172988508Y-119936739D01*
X172993802Y-119944300D01*
X173155700Y-120106198D01*
X173160208Y-120109355D01*
X173160211Y-120109357D01*
X173213298Y-120146529D01*
X173343251Y-120237523D01*
X173348233Y-120239846D01*
X173348238Y-120239849D01*
X173545775Y-120331961D01*
X173550757Y-120334284D01*
X173556065Y-120335706D01*
X173556067Y-120335707D01*
X173766598Y-120392119D01*
X173766600Y-120392119D01*
X173771913Y-120393543D01*
X174000000Y-120413498D01*
X174228087Y-120393543D01*
X174233400Y-120392119D01*
X174233402Y-120392119D01*
X174443933Y-120335707D01*
X174443935Y-120335706D01*
X174449243Y-120334284D01*
X174454225Y-120331961D01*
X174651762Y-120239849D01*
X174651767Y-120239846D01*
X174656749Y-120237523D01*
X174786702Y-120146529D01*
X174839789Y-120109357D01*
X174839792Y-120109355D01*
X174844300Y-120106198D01*
X175006198Y-119944300D01*
X175011493Y-119936739D01*
X175064098Y-119861611D01*
X175137523Y-119756749D01*
X175139846Y-119751767D01*
X175139849Y-119751762D01*
X175231961Y-119554225D01*
X175231961Y-119554224D01*
X175234284Y-119549243D01*
X175293543Y-119328087D01*
X175313498Y-119100000D01*
X175293543Y-118871913D01*
X175268328Y-118777810D01*
X175235707Y-118656067D01*
X175235706Y-118656065D01*
X175234284Y-118650757D01*
X175231961Y-118645775D01*
X175139849Y-118448238D01*
X175139846Y-118448233D01*
X175137523Y-118443251D01*
X175048309Y-118315841D01*
X175009357Y-118260211D01*
X175009355Y-118260208D01*
X175006198Y-118255700D01*
X174844300Y-118093802D01*
X174839792Y-118090645D01*
X174839789Y-118090643D01*
X174717145Y-118004767D01*
X174656749Y-117962477D01*
X174651767Y-117960154D01*
X174651762Y-117960151D01*
X174454225Y-117868039D01*
X174454224Y-117868039D01*
X174449243Y-117865716D01*
X174443935Y-117864294D01*
X174443933Y-117864293D01*
X174233402Y-117807881D01*
X174233400Y-117807881D01*
X174228087Y-117806457D01*
X174000000Y-117786502D01*
X173771913Y-117806457D01*
X173766600Y-117807881D01*
X173766598Y-117807881D01*
X173556067Y-117864293D01*
X173556065Y-117864294D01*
X173550757Y-117865716D01*
X173545776Y-117868039D01*
X173545775Y-117868039D01*
X173348238Y-117960151D01*
X173348233Y-117960154D01*
X173343251Y-117962477D01*
X173282855Y-118004767D01*
X173160211Y-118090643D01*
X173160208Y-118090645D01*
X173155700Y-118093802D01*
X172993802Y-118255700D01*
X172990645Y-118260208D01*
X172990643Y-118260211D01*
X172951691Y-118315841D01*
X172862477Y-118443251D01*
X172860154Y-118448233D01*
X172860151Y-118448238D01*
X172768039Y-118645775D01*
X172765716Y-118650757D01*
X172764294Y-118656065D01*
X172764293Y-118656067D01*
X172731672Y-118777810D01*
X172706457Y-118871913D01*
X172686502Y-119100000D01*
X166354509Y-119100000D01*
X166349764Y-119092665D01*
X166335415Y-119076895D01*
X166245329Y-118977892D01*
X166193887Y-118921358D01*
X166189836Y-118918159D01*
X166189832Y-118918155D01*
X166016177Y-118781011D01*
X166016172Y-118781008D01*
X166012123Y-118777810D01*
X166007607Y-118775317D01*
X166007604Y-118775315D01*
X165813879Y-118668373D01*
X165813875Y-118668371D01*
X165809355Y-118665876D01*
X165804486Y-118664152D01*
X165804482Y-118664150D01*
X165595903Y-118590288D01*
X165595899Y-118590287D01*
X165591028Y-118588562D01*
X165585935Y-118587655D01*
X165585932Y-118587654D01*
X165368095Y-118548851D01*
X165368089Y-118548850D01*
X165363006Y-118547945D01*
X165290096Y-118547054D01*
X165136581Y-118545179D01*
X165136579Y-118545179D01*
X165131411Y-118545116D01*
X164902464Y-118580150D01*
X164682314Y-118652106D01*
X164677726Y-118654494D01*
X164677722Y-118654496D01*
X164487760Y-118753384D01*
X164476872Y-118759052D01*
X164472739Y-118762155D01*
X164472736Y-118762157D01*
X164295790Y-118895012D01*
X164291655Y-118898117D01*
X164131639Y-119065564D01*
X164128725Y-119069836D01*
X164128724Y-119069837D01*
X164095167Y-119119030D01*
X164001119Y-119256899D01*
X163903602Y-119466981D01*
X163841707Y-119690169D01*
X163817095Y-119920469D01*
X158380488Y-119920469D01*
X158369885Y-119791500D01*
X158364773Y-119729318D01*
X158364772Y-119729312D01*
X158364349Y-119724167D01*
X158320411Y-119549243D01*
X158309184Y-119504544D01*
X158309183Y-119504540D01*
X158307925Y-119499533D01*
X158305866Y-119494797D01*
X158217630Y-119291868D01*
X158217628Y-119291865D01*
X158215570Y-119287131D01*
X158089764Y-119092665D01*
X158075415Y-119076895D01*
X157985329Y-118977892D01*
X157933887Y-118921358D01*
X157929836Y-118918159D01*
X157929832Y-118918155D01*
X157756177Y-118781011D01*
X157756172Y-118781008D01*
X157752123Y-118777810D01*
X157747607Y-118775317D01*
X157747604Y-118775315D01*
X157553879Y-118668373D01*
X157553875Y-118668371D01*
X157549355Y-118665876D01*
X157544486Y-118664152D01*
X157544482Y-118664150D01*
X157335903Y-118590288D01*
X157335899Y-118590287D01*
X157331028Y-118588562D01*
X157325935Y-118587655D01*
X157325932Y-118587654D01*
X157108095Y-118548851D01*
X157108089Y-118548850D01*
X157103006Y-118547945D01*
X157030096Y-118547054D01*
X156876581Y-118545179D01*
X156876579Y-118545179D01*
X156871411Y-118545116D01*
X156642464Y-118580150D01*
X156422314Y-118652106D01*
X156417726Y-118654494D01*
X156417722Y-118654496D01*
X156227760Y-118753384D01*
X156216872Y-118759052D01*
X156212739Y-118762155D01*
X156212736Y-118762157D01*
X156035790Y-118895012D01*
X156031655Y-118898117D01*
X155871639Y-119065564D01*
X155868725Y-119069836D01*
X155868724Y-119069837D01*
X155835167Y-119119030D01*
X155741119Y-119256899D01*
X155643602Y-119466981D01*
X155581707Y-119690169D01*
X155557095Y-119920469D01*
X145442436Y-119920469D01*
X145304335Y-119863266D01*
X145294950Y-119860217D01*
X145073769Y-119807115D01*
X145064022Y-119805572D01*
X144837253Y-119787725D01*
X144827393Y-119787725D01*
X144600624Y-119805572D01*
X144590877Y-119807115D01*
X144369696Y-119860217D01*
X144360311Y-119863266D01*
X144150160Y-119950313D01*
X144141365Y-119954795D01*
X143973878Y-120057432D01*
X143964416Y-120067890D01*
X141288409Y-120067890D01*
X141282938Y-120053295D01*
X141195584Y-119936739D01*
X141079028Y-119849385D01*
X140942639Y-119798255D01*
X140880457Y-119791500D01*
X138784189Y-119791500D01*
X138722007Y-119798255D01*
X138585618Y-119849385D01*
X138469062Y-119936739D01*
X138381708Y-120053295D01*
X138330578Y-120189684D01*
X138323823Y-120251866D01*
X138323823Y-122348134D01*
X135376177Y-122348134D01*
X135376177Y-121300000D01*
X135986496Y-121300000D01*
X136006458Y-121489928D01*
X136065473Y-121671556D01*
X136160960Y-121836944D01*
X136288747Y-121978866D01*
X136443248Y-122091118D01*
X136449276Y-122093802D01*
X136449278Y-122093803D01*
X136600386Y-122161080D01*
X136617712Y-122168794D01*
X136711113Y-122188647D01*
X136798056Y-122207128D01*
X136798061Y-122207128D01*
X136804513Y-122208500D01*
X136995487Y-122208500D01*
X137001939Y-122207128D01*
X137001944Y-122207128D01*
X137088887Y-122188647D01*
X137182288Y-122168794D01*
X137199614Y-122161080D01*
X137350722Y-122093803D01*
X137350724Y-122093802D01*
X137356752Y-122091118D01*
X137511253Y-121978866D01*
X137639040Y-121836944D01*
X137734527Y-121671556D01*
X137793542Y-121489928D01*
X137813504Y-121300000D01*
X137799735Y-121168991D01*
X137794232Y-121116635D01*
X137794232Y-121116633D01*
X137793542Y-121110072D01*
X137734527Y-120928444D01*
X137639040Y-120763056D01*
X137570664Y-120687116D01*
X137515675Y-120626045D01*
X137515674Y-120626044D01*
X137511253Y-120621134D01*
X137412157Y-120549136D01*
X137362094Y-120512763D01*
X137362093Y-120512762D01*
X137356752Y-120508882D01*
X137350724Y-120506198D01*
X137350722Y-120506197D01*
X137188319Y-120433891D01*
X137188318Y-120433891D01*
X137182288Y-120431206D01*
X137051397Y-120403384D01*
X137001944Y-120392872D01*
X137001939Y-120392872D01*
X136995487Y-120391500D01*
X136804513Y-120391500D01*
X136798061Y-120392872D01*
X136798056Y-120392872D01*
X136748603Y-120403384D01*
X136617712Y-120431206D01*
X136611682Y-120433891D01*
X136611681Y-120433891D01*
X136449278Y-120506197D01*
X136449276Y-120506198D01*
X136443248Y-120508882D01*
X136437907Y-120512762D01*
X136437906Y-120512763D01*
X136387843Y-120549136D01*
X136288747Y-120621134D01*
X136284326Y-120626044D01*
X136284325Y-120626045D01*
X136229337Y-120687116D01*
X136160960Y-120763056D01*
X136065473Y-120928444D01*
X136006458Y-121110072D01*
X136005768Y-121116633D01*
X136005768Y-121116635D01*
X136000265Y-121168991D01*
X135986496Y-121300000D01*
X135376177Y-121300000D01*
X135376177Y-120251866D01*
X135369422Y-120189684D01*
X135318292Y-120053295D01*
X135230938Y-119936739D01*
X135114382Y-119849385D01*
X134977993Y-119798255D01*
X134915811Y-119791500D01*
X132819543Y-119791500D01*
X132757361Y-119798255D01*
X132620972Y-119849385D01*
X132504416Y-119936739D01*
X132417062Y-120053295D01*
X132365932Y-120189684D01*
X132359177Y-120251866D01*
X132359177Y-122348134D01*
X129556601Y-122348134D01*
X128880489Y-121672022D01*
X128866545Y-121664408D01*
X128864712Y-121664539D01*
X128858097Y-121668790D01*
X128006597Y-122520290D01*
X127999837Y-122532670D01*
X97250128Y-122532670D01*
X97242345Y-121304930D01*
X127355402Y-121304930D01*
X127373249Y-121531699D01*
X127374792Y-121541446D01*
X127427894Y-121762627D01*
X127430943Y-121772012D01*
X127517990Y-121982163D01*
X127522472Y-121990958D01*
X127625109Y-122158445D01*
X127635567Y-122167907D01*
X127644343Y-122164124D01*
X128495655Y-121312812D01*
X128502033Y-121301132D01*
X129232085Y-121301132D01*
X129232216Y-121302965D01*
X129236467Y-121309580D01*
X130087967Y-122161080D01*
X130100347Y-122167840D01*
X130107997Y-122162113D01*
X130212882Y-121990958D01*
X130217364Y-121982163D01*
X130304411Y-121772012D01*
X130307460Y-121762627D01*
X130360562Y-121541446D01*
X130362105Y-121531699D01*
X130379952Y-121304930D01*
X130379952Y-121295070D01*
X130362105Y-121068301D01*
X130360562Y-121058554D01*
X130307460Y-120837373D01*
X130304411Y-120827988D01*
X130217364Y-120617837D01*
X130212882Y-120609042D01*
X130110245Y-120441555D01*
X130099787Y-120432093D01*
X130091011Y-120435876D01*
X129239699Y-121287188D01*
X129232085Y-121301132D01*
X128502033Y-121301132D01*
X128503269Y-121298868D01*
X128503138Y-121297035D01*
X128498887Y-121290420D01*
X127647387Y-120438920D01*
X127635007Y-120432160D01*
X127627357Y-120437887D01*
X127522472Y-120609042D01*
X127517990Y-120617837D01*
X127430943Y-120827988D01*
X127427894Y-120837373D01*
X127374792Y-121058554D01*
X127373249Y-121068301D01*
X127355402Y-121295070D01*
X127355402Y-121304930D01*
X97242345Y-121304930D01*
X97236705Y-120415159D01*
X109979396Y-120415159D01*
X109988692Y-120427174D01*
X110028940Y-120455356D01*
X110038435Y-120460839D01*
X110227853Y-120549166D01*
X110238145Y-120552912D01*
X110440023Y-120607005D01*
X110450818Y-120608908D01*
X110659025Y-120627124D01*
X110669975Y-120627124D01*
X110878182Y-120608908D01*
X110888977Y-120607005D01*
X111090855Y-120552912D01*
X111101147Y-120549166D01*
X111290565Y-120460839D01*
X111300060Y-120455356D01*
X111341146Y-120426587D01*
X111349521Y-120416110D01*
X111342453Y-120402663D01*
X110677312Y-119737522D01*
X110663368Y-119729908D01*
X110661535Y-119730039D01*
X110654920Y-119734290D01*
X109985826Y-120403384D01*
X109979396Y-120415159D01*
X97236705Y-120415159D01*
X97218641Y-117565500D01*
X107501895Y-117565500D01*
X107521077Y-117784749D01*
X107522501Y-117790063D01*
X107522501Y-117790064D01*
X107569567Y-117965716D01*
X107578039Y-117997336D01*
X107580361Y-118002316D01*
X107580362Y-118002318D01*
X107627720Y-118103876D01*
X107671052Y-118196802D01*
X107797288Y-118377087D01*
X107952913Y-118532712D01*
X107957421Y-118535869D01*
X107957424Y-118535871D01*
X108126839Y-118654496D01*
X108133197Y-118658948D01*
X108138179Y-118661271D01*
X108138184Y-118661274D01*
X108305804Y-118739436D01*
X108332664Y-118751961D01*
X108337972Y-118753383D01*
X108337974Y-118753384D01*
X108539936Y-118807499D01*
X108539937Y-118807499D01*
X108545251Y-118808923D01*
X108764500Y-118828105D01*
X108983749Y-118808923D01*
X108989063Y-118807499D01*
X108989064Y-118807499D01*
X109191026Y-118753384D01*
X109191028Y-118753383D01*
X109196336Y-118751961D01*
X109223196Y-118739436D01*
X109351543Y-118679587D01*
X109421735Y-118668926D01*
X109486548Y-118697906D01*
X109525404Y-118757326D01*
X109525967Y-118828320D01*
X109518988Y-118847032D01*
X109480834Y-118928853D01*
X109477088Y-118939145D01*
X109422995Y-119141023D01*
X109421092Y-119151818D01*
X109402876Y-119360025D01*
X109402876Y-119370975D01*
X109421092Y-119579182D01*
X109422995Y-119589977D01*
X109477088Y-119791855D01*
X109480834Y-119802147D01*
X109569161Y-119991564D01*
X109574644Y-120001060D01*
X109603413Y-120042146D01*
X109613890Y-120050521D01*
X109627338Y-120043452D01*
X110304158Y-119366632D01*
X111028908Y-119366632D01*
X111029039Y-119368465D01*
X111033290Y-119375080D01*
X111702384Y-120044174D01*
X111714159Y-120050604D01*
X111726174Y-120041308D01*
X111754356Y-120001060D01*
X111759839Y-119991564D01*
X111848166Y-119802147D01*
X111851912Y-119791855D01*
X111906005Y-119589977D01*
X111907908Y-119579182D01*
X111926124Y-119370975D01*
X111926124Y-119360025D01*
X111912123Y-119200000D01*
X117786502Y-119200000D01*
X117806457Y-119428087D01*
X117807881Y-119433400D01*
X117807881Y-119433402D01*
X117849836Y-119589977D01*
X117865716Y-119649243D01*
X117868039Y-119654224D01*
X117868039Y-119654225D01*
X117960151Y-119851762D01*
X117960154Y-119851767D01*
X117962477Y-119856749D01*
X118035902Y-119961611D01*
X118081940Y-120027359D01*
X118093802Y-120044300D01*
X118255700Y-120206198D01*
X118260208Y-120209355D01*
X118260211Y-120209357D01*
X118303758Y-120239849D01*
X118443251Y-120337523D01*
X118448233Y-120339846D01*
X118448238Y-120339849D01*
X118635509Y-120427174D01*
X118650757Y-120434284D01*
X118656065Y-120435706D01*
X118656067Y-120435707D01*
X118866598Y-120492119D01*
X118866600Y-120492119D01*
X118871913Y-120493543D01*
X119100000Y-120513498D01*
X119328087Y-120493543D01*
X119333400Y-120492119D01*
X119333402Y-120492119D01*
X119543933Y-120435707D01*
X119543935Y-120435706D01*
X119549243Y-120434284D01*
X119564491Y-120427174D01*
X119751762Y-120339849D01*
X119751767Y-120339846D01*
X119756749Y-120337523D01*
X119896242Y-120239849D01*
X119939789Y-120209357D01*
X119939792Y-120209355D01*
X119944300Y-120206198D01*
X120106198Y-120044300D01*
X120118061Y-120027359D01*
X120164098Y-119961611D01*
X120237523Y-119856749D01*
X120239846Y-119851767D01*
X120239849Y-119851762D01*
X120331961Y-119654225D01*
X120331961Y-119654224D01*
X120334284Y-119649243D01*
X120350165Y-119589977D01*
X120392119Y-119433402D01*
X120392119Y-119433400D01*
X120393543Y-119428087D01*
X120413498Y-119200000D01*
X122786502Y-119200000D01*
X122806457Y-119428087D01*
X122807881Y-119433400D01*
X122807881Y-119433402D01*
X122849836Y-119589977D01*
X122865716Y-119649243D01*
X122868039Y-119654224D01*
X122868039Y-119654225D01*
X122960151Y-119851762D01*
X122960154Y-119851767D01*
X122962477Y-119856749D01*
X123035902Y-119961611D01*
X123081940Y-120027359D01*
X123093802Y-120044300D01*
X123255700Y-120206198D01*
X123260208Y-120209355D01*
X123260211Y-120209357D01*
X123303758Y-120239849D01*
X123443251Y-120337523D01*
X123448233Y-120339846D01*
X123448238Y-120339849D01*
X123635509Y-120427174D01*
X123650757Y-120434284D01*
X123656065Y-120435706D01*
X123656067Y-120435707D01*
X123866598Y-120492119D01*
X123866600Y-120492119D01*
X123871913Y-120493543D01*
X124100000Y-120513498D01*
X124328087Y-120493543D01*
X124333400Y-120492119D01*
X124333402Y-120492119D01*
X124543933Y-120435707D01*
X124543935Y-120435706D01*
X124549243Y-120434284D01*
X124564491Y-120427174D01*
X124751762Y-120339849D01*
X124751767Y-120339846D01*
X124756749Y-120337523D01*
X124896242Y-120239849D01*
X124939789Y-120209357D01*
X124939792Y-120209355D01*
X124944300Y-120206198D01*
X125082608Y-120067890D01*
X127999770Y-120067890D01*
X128003553Y-120076666D01*
X128854865Y-120927978D01*
X128868809Y-120935592D01*
X128870642Y-120935461D01*
X128877257Y-120931210D01*
X129728757Y-120079710D01*
X129735517Y-120067330D01*
X129729790Y-120059680D01*
X129558635Y-119954795D01*
X129549840Y-119950313D01*
X129339689Y-119863266D01*
X129330304Y-119860217D01*
X129109123Y-119807115D01*
X129099376Y-119805572D01*
X128872607Y-119787725D01*
X128862747Y-119787725D01*
X128635978Y-119805572D01*
X128626231Y-119807115D01*
X128405050Y-119860217D01*
X128395665Y-119863266D01*
X128185514Y-119950313D01*
X128176719Y-119954795D01*
X128009232Y-120057432D01*
X127999770Y-120067890D01*
X125082608Y-120067890D01*
X125106198Y-120044300D01*
X125118061Y-120027359D01*
X125164098Y-119961611D01*
X125237523Y-119856749D01*
X125239846Y-119851767D01*
X125239849Y-119851762D01*
X125331961Y-119654225D01*
X125331961Y-119654224D01*
X125334284Y-119649243D01*
X125350165Y-119589977D01*
X125392119Y-119433402D01*
X125392119Y-119433400D01*
X125393543Y-119428087D01*
X125413498Y-119200000D01*
X125393543Y-118971913D01*
X125379997Y-118921358D01*
X125335707Y-118756067D01*
X125335706Y-118756065D01*
X125334284Y-118750757D01*
X125324577Y-118729940D01*
X125239849Y-118548238D01*
X125239846Y-118548233D01*
X125237523Y-118543251D01*
X125123901Y-118380982D01*
X125109357Y-118360211D01*
X125109355Y-118360208D01*
X125106198Y-118355700D01*
X124944300Y-118193802D01*
X124939792Y-118190645D01*
X124939789Y-118190643D01*
X124861611Y-118135902D01*
X124756749Y-118062477D01*
X124751767Y-118060154D01*
X124751762Y-118060151D01*
X124554225Y-117968039D01*
X124554224Y-117968039D01*
X124549243Y-117965716D01*
X124543935Y-117964294D01*
X124543933Y-117964293D01*
X124333402Y-117907881D01*
X124333400Y-117907881D01*
X124328087Y-117906457D01*
X124100000Y-117886502D01*
X123871913Y-117906457D01*
X123866600Y-117907881D01*
X123866598Y-117907881D01*
X123656067Y-117964293D01*
X123656065Y-117964294D01*
X123650757Y-117965716D01*
X123645776Y-117968039D01*
X123645775Y-117968039D01*
X123448238Y-118060151D01*
X123448233Y-118060154D01*
X123443251Y-118062477D01*
X123338389Y-118135902D01*
X123260211Y-118190643D01*
X123260208Y-118190645D01*
X123255700Y-118193802D01*
X123093802Y-118355700D01*
X123090645Y-118360208D01*
X123090643Y-118360211D01*
X123076099Y-118380982D01*
X122962477Y-118543251D01*
X122960154Y-118548233D01*
X122960151Y-118548238D01*
X122875423Y-118729940D01*
X122865716Y-118750757D01*
X122864294Y-118756065D01*
X122864293Y-118756067D01*
X122820003Y-118921358D01*
X122806457Y-118971913D01*
X122786502Y-119200000D01*
X120413498Y-119200000D01*
X120393543Y-118971913D01*
X120379997Y-118921358D01*
X120335707Y-118756067D01*
X120335706Y-118756065D01*
X120334284Y-118750757D01*
X120324577Y-118729940D01*
X120239849Y-118548238D01*
X120239846Y-118548233D01*
X120237523Y-118543251D01*
X120123901Y-118380982D01*
X120109357Y-118360211D01*
X120109355Y-118360208D01*
X120106198Y-118355700D01*
X119944300Y-118193802D01*
X119939792Y-118190645D01*
X119939789Y-118190643D01*
X119861611Y-118135902D01*
X119756749Y-118062477D01*
X119751767Y-118060154D01*
X119751762Y-118060151D01*
X119554225Y-117968039D01*
X119554224Y-117968039D01*
X119549243Y-117965716D01*
X119543935Y-117964294D01*
X119543933Y-117964293D01*
X119333402Y-117907881D01*
X119333400Y-117907881D01*
X119328087Y-117906457D01*
X119100000Y-117886502D01*
X118871913Y-117906457D01*
X118866600Y-117907881D01*
X118866598Y-117907881D01*
X118656067Y-117964293D01*
X118656065Y-117964294D01*
X118650757Y-117965716D01*
X118645776Y-117968039D01*
X118645775Y-117968039D01*
X118448238Y-118060151D01*
X118448233Y-118060154D01*
X118443251Y-118062477D01*
X118338389Y-118135902D01*
X118260211Y-118190643D01*
X118260208Y-118190645D01*
X118255700Y-118193802D01*
X118093802Y-118355700D01*
X118090645Y-118360208D01*
X118090643Y-118360211D01*
X118076099Y-118380982D01*
X117962477Y-118543251D01*
X117960154Y-118548233D01*
X117960151Y-118548238D01*
X117875423Y-118729940D01*
X117865716Y-118750757D01*
X117864294Y-118756065D01*
X117864293Y-118756067D01*
X117820003Y-118921358D01*
X117806457Y-118971913D01*
X117786502Y-119200000D01*
X111912123Y-119200000D01*
X111907908Y-119151818D01*
X111906005Y-119141023D01*
X111851912Y-118939145D01*
X111848166Y-118928853D01*
X111759839Y-118739436D01*
X111754356Y-118729940D01*
X111725587Y-118688854D01*
X111715110Y-118680479D01*
X111701662Y-118687548D01*
X111036522Y-119352688D01*
X111028908Y-119366632D01*
X110304158Y-119366632D01*
X111343174Y-118327616D01*
X111349604Y-118315841D01*
X111340308Y-118303826D01*
X111300060Y-118275644D01*
X111290565Y-118270161D01*
X111101147Y-118181834D01*
X111090855Y-118178088D01*
X110888977Y-118123995D01*
X110878182Y-118122092D01*
X110669975Y-118103876D01*
X110659025Y-118103876D01*
X110450818Y-118122092D01*
X110440023Y-118123995D01*
X110238145Y-118178088D01*
X110227853Y-118181834D01*
X110077833Y-118251790D01*
X110007642Y-118262451D01*
X109942829Y-118233471D01*
X109903972Y-118174052D01*
X109903409Y-118103057D01*
X109910388Y-118084345D01*
X109948638Y-118002318D01*
X109948639Y-118002316D01*
X109950961Y-117997336D01*
X109959434Y-117965716D01*
X110006499Y-117790064D01*
X110006499Y-117790063D01*
X110007923Y-117784749D01*
X110027105Y-117565500D01*
X110007923Y-117346251D01*
X110004804Y-117334610D01*
X109952384Y-117138974D01*
X109952383Y-117138972D01*
X109950961Y-117133664D01*
X109910717Y-117047360D01*
X109900056Y-116977168D01*
X109929036Y-116912355D01*
X109988456Y-116873499D01*
X110059450Y-116872936D01*
X110078156Y-116879913D01*
X110147729Y-116912355D01*
X110225030Y-116948401D01*
X110232664Y-116951961D01*
X110237972Y-116953383D01*
X110237974Y-116953384D01*
X110439936Y-117007499D01*
X110439937Y-117007499D01*
X110445251Y-117008923D01*
X110664500Y-117028105D01*
X110883749Y-117008923D01*
X110889063Y-117007499D01*
X110889064Y-117007499D01*
X111091026Y-116953384D01*
X111091028Y-116953383D01*
X111096336Y-116951961D01*
X111101318Y-116949638D01*
X111290816Y-116861274D01*
X111290821Y-116861271D01*
X111295803Y-116858948D01*
X111352044Y-116819568D01*
X111471576Y-116735871D01*
X111471579Y-116735869D01*
X111476087Y-116732712D01*
X111631712Y-116577087D01*
X111757948Y-116396802D01*
X111775904Y-116358297D01*
X111848638Y-116202318D01*
X111848639Y-116202316D01*
X111850961Y-116197336D01*
X111857876Y-116171531D01*
X111906499Y-115990064D01*
X111906499Y-115990063D01*
X111907923Y-115984749D01*
X111927105Y-115765500D01*
X111907923Y-115546251D01*
X111867134Y-115394022D01*
X111852384Y-115338974D01*
X111852383Y-115338972D01*
X111850961Y-115333664D01*
X111807214Y-115239849D01*
X111760271Y-115139179D01*
X111760269Y-115139176D01*
X111757948Y-115134198D01*
X111631712Y-114953913D01*
X111476087Y-114798288D01*
X111471579Y-114795131D01*
X111471576Y-114795129D01*
X111300312Y-114675209D01*
X111300309Y-114675207D01*
X111295803Y-114672052D01*
X111290821Y-114669729D01*
X111290816Y-114669726D01*
X111141287Y-114600000D01*
X117786502Y-114600000D01*
X117806457Y-114828087D01*
X117807881Y-114833400D01*
X117807881Y-114833402D01*
X117839129Y-114950018D01*
X117865716Y-115049243D01*
X117868039Y-115054224D01*
X117868039Y-115054225D01*
X117960151Y-115251762D01*
X117960154Y-115251767D01*
X117962477Y-115256749D01*
X118093802Y-115444300D01*
X118255700Y-115606198D01*
X118260208Y-115609355D01*
X118260211Y-115609357D01*
X118338389Y-115664098D01*
X118443251Y-115737523D01*
X118448233Y-115739846D01*
X118448238Y-115739849D01*
X118645775Y-115831961D01*
X118650757Y-115834284D01*
X118656065Y-115835706D01*
X118656067Y-115835707D01*
X118866598Y-115892119D01*
X118866600Y-115892119D01*
X118871913Y-115893543D01*
X119100000Y-115913498D01*
X119328087Y-115893543D01*
X119333400Y-115892119D01*
X119333402Y-115892119D01*
X119543933Y-115835707D01*
X119543935Y-115835706D01*
X119549243Y-115834284D01*
X119554225Y-115831961D01*
X119751762Y-115739849D01*
X119751767Y-115739846D01*
X119756749Y-115737523D01*
X119861611Y-115664098D01*
X119939789Y-115609357D01*
X119939792Y-115609355D01*
X119944300Y-115606198D01*
X120106198Y-115444300D01*
X120237523Y-115256749D01*
X120239846Y-115251767D01*
X120239849Y-115251762D01*
X120331961Y-115054225D01*
X120331961Y-115054224D01*
X120334284Y-115049243D01*
X120360872Y-114950018D01*
X120392119Y-114833402D01*
X120392119Y-114833400D01*
X120393543Y-114828087D01*
X120413498Y-114600000D01*
X122786502Y-114600000D01*
X122806457Y-114828087D01*
X122807881Y-114833400D01*
X122807881Y-114833402D01*
X122839129Y-114950018D01*
X122865716Y-115049243D01*
X122868039Y-115054224D01*
X122868039Y-115054225D01*
X122960151Y-115251762D01*
X122960154Y-115251767D01*
X122962477Y-115256749D01*
X123093802Y-115444300D01*
X123255700Y-115606198D01*
X123260208Y-115609355D01*
X123260211Y-115609357D01*
X123338389Y-115664098D01*
X123443251Y-115737523D01*
X123448233Y-115739846D01*
X123448238Y-115739849D01*
X123645775Y-115831961D01*
X123650757Y-115834284D01*
X123656065Y-115835706D01*
X123656067Y-115835707D01*
X123866598Y-115892119D01*
X123866600Y-115892119D01*
X123871913Y-115893543D01*
X124100000Y-115913498D01*
X124328087Y-115893543D01*
X124333400Y-115892119D01*
X124333402Y-115892119D01*
X124543933Y-115835707D01*
X124543935Y-115835706D01*
X124549243Y-115834284D01*
X124554225Y-115831961D01*
X124751762Y-115739849D01*
X124751767Y-115739846D01*
X124756749Y-115737523D01*
X124861611Y-115664098D01*
X124939789Y-115609357D01*
X124939792Y-115609355D01*
X124944300Y-115606198D01*
X125106198Y-115444300D01*
X125237523Y-115256749D01*
X125239846Y-115251767D01*
X125239849Y-115251762D01*
X125331961Y-115054225D01*
X125331961Y-115054224D01*
X125334284Y-115049243D01*
X125360872Y-114950018D01*
X125392119Y-114833402D01*
X125392119Y-114833400D01*
X125393543Y-114828087D01*
X125413498Y-114600000D01*
X125393543Y-114371913D01*
X125381800Y-114328087D01*
X125335707Y-114156067D01*
X125335706Y-114156065D01*
X125334284Y-114150757D01*
X125301159Y-114079719D01*
X125239849Y-113948238D01*
X125239846Y-113948233D01*
X125237523Y-113943251D01*
X125164098Y-113838389D01*
X125109357Y-113760211D01*
X125109355Y-113760208D01*
X125106198Y-113755700D01*
X124944300Y-113593802D01*
X124939792Y-113590645D01*
X124939789Y-113590643D01*
X124861611Y-113535902D01*
X124756749Y-113462477D01*
X124751767Y-113460154D01*
X124751762Y-113460151D01*
X124554225Y-113368039D01*
X124554224Y-113368039D01*
X124549243Y-113365716D01*
X124543935Y-113364294D01*
X124543933Y-113364293D01*
X124333402Y-113307881D01*
X124333400Y-113307881D01*
X124328087Y-113306457D01*
X124100000Y-113286502D01*
X123871913Y-113306457D01*
X123866600Y-113307881D01*
X123866598Y-113307881D01*
X123656067Y-113364293D01*
X123656065Y-113364294D01*
X123650757Y-113365716D01*
X123645776Y-113368039D01*
X123645775Y-113368039D01*
X123448238Y-113460151D01*
X123448233Y-113460154D01*
X123443251Y-113462477D01*
X123338389Y-113535902D01*
X123260211Y-113590643D01*
X123260208Y-113590645D01*
X123255700Y-113593802D01*
X123093802Y-113755700D01*
X123090645Y-113760208D01*
X123090643Y-113760211D01*
X123035902Y-113838389D01*
X122962477Y-113943251D01*
X122960154Y-113948233D01*
X122960151Y-113948238D01*
X122898841Y-114079719D01*
X122865716Y-114150757D01*
X122864294Y-114156065D01*
X122864293Y-114156067D01*
X122818200Y-114328087D01*
X122806457Y-114371913D01*
X122786502Y-114600000D01*
X120413498Y-114600000D01*
X120393543Y-114371913D01*
X120381800Y-114328087D01*
X120335707Y-114156067D01*
X120335706Y-114156065D01*
X120334284Y-114150757D01*
X120301159Y-114079719D01*
X120239849Y-113948238D01*
X120239846Y-113948233D01*
X120237523Y-113943251D01*
X120164098Y-113838389D01*
X120109357Y-113760211D01*
X120109355Y-113760208D01*
X120106198Y-113755700D01*
X119944300Y-113593802D01*
X119939792Y-113590645D01*
X119939789Y-113590643D01*
X119861611Y-113535902D01*
X119756749Y-113462477D01*
X119751767Y-113460154D01*
X119751762Y-113460151D01*
X119554225Y-113368039D01*
X119554224Y-113368039D01*
X119549243Y-113365716D01*
X119543935Y-113364294D01*
X119543933Y-113364293D01*
X119333402Y-113307881D01*
X119333400Y-113307881D01*
X119328087Y-113306457D01*
X119100000Y-113286502D01*
X118871913Y-113306457D01*
X118866600Y-113307881D01*
X118866598Y-113307881D01*
X118656067Y-113364293D01*
X118656065Y-113364294D01*
X118650757Y-113365716D01*
X118645776Y-113368039D01*
X118645775Y-113368039D01*
X118448238Y-113460151D01*
X118448233Y-113460154D01*
X118443251Y-113462477D01*
X118338389Y-113535902D01*
X118260211Y-113590643D01*
X118260208Y-113590645D01*
X118255700Y-113593802D01*
X118093802Y-113755700D01*
X118090645Y-113760208D01*
X118090643Y-113760211D01*
X118035902Y-113838389D01*
X117962477Y-113943251D01*
X117960154Y-113948233D01*
X117960151Y-113948238D01*
X117898841Y-114079719D01*
X117865716Y-114150757D01*
X117864294Y-114156065D01*
X117864293Y-114156067D01*
X117818200Y-114328087D01*
X117806457Y-114371913D01*
X117786502Y-114600000D01*
X111141287Y-114600000D01*
X111101318Y-114581362D01*
X111101317Y-114581361D01*
X111096336Y-114579039D01*
X111091028Y-114577617D01*
X111091026Y-114577616D01*
X110889064Y-114523501D01*
X110889063Y-114523501D01*
X110883749Y-114522077D01*
X110664500Y-114502895D01*
X110445251Y-114522077D01*
X110439937Y-114523501D01*
X110439936Y-114523501D01*
X110237974Y-114577616D01*
X110237972Y-114577617D01*
X110232664Y-114579039D01*
X110227684Y-114581361D01*
X110227682Y-114581362D01*
X110038179Y-114669729D01*
X110038176Y-114669731D01*
X110033198Y-114672052D01*
X109852913Y-114798288D01*
X109697288Y-114953913D01*
X109571052Y-115134198D01*
X109568731Y-115139176D01*
X109568729Y-115139179D01*
X109521786Y-115239849D01*
X109478039Y-115333664D01*
X109476617Y-115338972D01*
X109476616Y-115338974D01*
X109461866Y-115394022D01*
X109421077Y-115546251D01*
X109401895Y-115765500D01*
X109421077Y-115984749D01*
X109422501Y-115990063D01*
X109422501Y-115990064D01*
X109471125Y-116171531D01*
X109478039Y-116197336D01*
X109480361Y-116202316D01*
X109480362Y-116202318D01*
X109518283Y-116283640D01*
X109528944Y-116353832D01*
X109499964Y-116418645D01*
X109440544Y-116457501D01*
X109369550Y-116458064D01*
X109350844Y-116451087D01*
X109196336Y-116379039D01*
X109191028Y-116377617D01*
X109191026Y-116377616D01*
X108989064Y-116323501D01*
X108989063Y-116323501D01*
X108983749Y-116322077D01*
X108764500Y-116302895D01*
X108545251Y-116322077D01*
X108539937Y-116323501D01*
X108539936Y-116323501D01*
X108337974Y-116377616D01*
X108337972Y-116377617D01*
X108332664Y-116379039D01*
X108327684Y-116381361D01*
X108327682Y-116381362D01*
X108138179Y-116469729D01*
X108138176Y-116469731D01*
X108133198Y-116472052D01*
X107952913Y-116598288D01*
X107797288Y-116753913D01*
X107671052Y-116934198D01*
X107668731Y-116939176D01*
X107668729Y-116939179D01*
X107627262Y-117028105D01*
X107578039Y-117133664D01*
X107576617Y-117138972D01*
X107576616Y-117138974D01*
X107524196Y-117334610D01*
X107521077Y-117346251D01*
X107501895Y-117565500D01*
X97218641Y-117565500D01*
X97191034Y-113210469D01*
X155557095Y-113210469D01*
X155557392Y-113215622D01*
X155557392Y-113215625D01*
X155563067Y-113314041D01*
X155570427Y-113441697D01*
X155571564Y-113446743D01*
X155571565Y-113446749D01*
X155603741Y-113589523D01*
X155621346Y-113667642D01*
X155623288Y-113672424D01*
X155623289Y-113672428D01*
X155704292Y-113871913D01*
X155708484Y-113882237D01*
X155829501Y-114079719D01*
X155981147Y-114254784D01*
X156159349Y-114402730D01*
X156359322Y-114519584D01*
X156364147Y-114521426D01*
X156364148Y-114521427D01*
X156423085Y-114543933D01*
X156575694Y-114602209D01*
X156580760Y-114603240D01*
X156580761Y-114603240D01*
X156633846Y-114614040D01*
X156802656Y-114648385D01*
X156933324Y-114653176D01*
X157028949Y-114656683D01*
X157028953Y-114656683D01*
X157034113Y-114656872D01*
X157039233Y-114656216D01*
X157039235Y-114656216D01*
X157112270Y-114646860D01*
X157263847Y-114627442D01*
X157268795Y-114625957D01*
X157268802Y-114625956D01*
X157480747Y-114562369D01*
X157485690Y-114560886D01*
X157499287Y-114554225D01*
X157689049Y-114461262D01*
X157689052Y-114461260D01*
X157693684Y-114458991D01*
X157882243Y-114324494D01*
X158046303Y-114161005D01*
X158181458Y-113972917D01*
X158184762Y-113966233D01*
X158281784Y-113769922D01*
X158281785Y-113769920D01*
X158284078Y-113765280D01*
X158351408Y-113543671D01*
X158381640Y-113314041D01*
X158382313Y-113286502D01*
X158383245Y-113248365D01*
X158383245Y-113248361D01*
X158383327Y-113245000D01*
X158380488Y-113210469D01*
X163817095Y-113210469D01*
X163817392Y-113215622D01*
X163817392Y-113215625D01*
X163823067Y-113314041D01*
X163830427Y-113441697D01*
X163831564Y-113446743D01*
X163831565Y-113446749D01*
X163863741Y-113589523D01*
X163881346Y-113667642D01*
X163883288Y-113672424D01*
X163883289Y-113672428D01*
X163964292Y-113871913D01*
X163968484Y-113882237D01*
X164089501Y-114079719D01*
X164241147Y-114254784D01*
X164419349Y-114402730D01*
X164619322Y-114519584D01*
X164624147Y-114521426D01*
X164624148Y-114521427D01*
X164683085Y-114543933D01*
X164835694Y-114602209D01*
X164840760Y-114603240D01*
X164840761Y-114603240D01*
X164893846Y-114614040D01*
X165062656Y-114648385D01*
X165193324Y-114653176D01*
X165288949Y-114656683D01*
X165288953Y-114656683D01*
X165294113Y-114656872D01*
X165299233Y-114656216D01*
X165299235Y-114656216D01*
X165372270Y-114646860D01*
X165523847Y-114627442D01*
X165528795Y-114625957D01*
X165528802Y-114625956D01*
X165740747Y-114562369D01*
X165745690Y-114560886D01*
X165759287Y-114554225D01*
X165949049Y-114461262D01*
X165949052Y-114461260D01*
X165953684Y-114458991D01*
X166142243Y-114324494D01*
X166306303Y-114161005D01*
X166350140Y-114100000D01*
X172686502Y-114100000D01*
X172706457Y-114328087D01*
X172707881Y-114333400D01*
X172707881Y-114333402D01*
X172758263Y-114521427D01*
X172765716Y-114549243D01*
X172768039Y-114554224D01*
X172768039Y-114554225D01*
X172860151Y-114751762D01*
X172860154Y-114751767D01*
X172862477Y-114756749D01*
X172993802Y-114944300D01*
X173155700Y-115106198D01*
X173160208Y-115109355D01*
X173160211Y-115109357D01*
X173238389Y-115164098D01*
X173343251Y-115237523D01*
X173348233Y-115239846D01*
X173348238Y-115239849D01*
X173538743Y-115328682D01*
X173550757Y-115334284D01*
X173556065Y-115335706D01*
X173556067Y-115335707D01*
X173766598Y-115392119D01*
X173766600Y-115392119D01*
X173771913Y-115393543D01*
X174000000Y-115413498D01*
X174228087Y-115393543D01*
X174233400Y-115392119D01*
X174233402Y-115392119D01*
X174443933Y-115335707D01*
X174443935Y-115335706D01*
X174449243Y-115334284D01*
X174461257Y-115328682D01*
X174651762Y-115239849D01*
X174651767Y-115239846D01*
X174656749Y-115237523D01*
X174761611Y-115164098D01*
X174839789Y-115109357D01*
X174839792Y-115109355D01*
X174844300Y-115106198D01*
X175006198Y-114944300D01*
X175137523Y-114756749D01*
X175139846Y-114751767D01*
X175139849Y-114751762D01*
X175231961Y-114554225D01*
X175231961Y-114554224D01*
X175234284Y-114549243D01*
X175241738Y-114521427D01*
X175292119Y-114333402D01*
X175292119Y-114333400D01*
X175293543Y-114328087D01*
X175313498Y-114100000D01*
X175293543Y-113871913D01*
X175292119Y-113866598D01*
X175235707Y-113656067D01*
X175235706Y-113656065D01*
X175234284Y-113650757D01*
X175186656Y-113548617D01*
X175139849Y-113448238D01*
X175139846Y-113448233D01*
X175137523Y-113443251D01*
X175006198Y-113255700D01*
X174844300Y-113093802D01*
X174839792Y-113090645D01*
X174839789Y-113090643D01*
X174723413Y-113009156D01*
X174656749Y-112962477D01*
X174651767Y-112960154D01*
X174651762Y-112960151D01*
X174454225Y-112868039D01*
X174454224Y-112868039D01*
X174449243Y-112865716D01*
X174443935Y-112864294D01*
X174443933Y-112864293D01*
X174233402Y-112807881D01*
X174233400Y-112807881D01*
X174228087Y-112806457D01*
X174000000Y-112786502D01*
X173771913Y-112806457D01*
X173766600Y-112807881D01*
X173766598Y-112807881D01*
X173556067Y-112864293D01*
X173556065Y-112864294D01*
X173550757Y-112865716D01*
X173545776Y-112868039D01*
X173545775Y-112868039D01*
X173348238Y-112960151D01*
X173348233Y-112960154D01*
X173343251Y-112962477D01*
X173276587Y-113009156D01*
X173160211Y-113090643D01*
X173160208Y-113090645D01*
X173155700Y-113093802D01*
X172993802Y-113255700D01*
X172862477Y-113443251D01*
X172860154Y-113448233D01*
X172860151Y-113448238D01*
X172813344Y-113548617D01*
X172765716Y-113650757D01*
X172764294Y-113656065D01*
X172764293Y-113656067D01*
X172707881Y-113866598D01*
X172706457Y-113871913D01*
X172686502Y-114100000D01*
X166350140Y-114100000D01*
X166441458Y-113972917D01*
X166444762Y-113966233D01*
X166541784Y-113769922D01*
X166541785Y-113769920D01*
X166544078Y-113765280D01*
X166611408Y-113543671D01*
X166641640Y-113314041D01*
X166642313Y-113286502D01*
X166643245Y-113248365D01*
X166643245Y-113248361D01*
X166643327Y-113245000D01*
X166630896Y-113093802D01*
X166624773Y-113019318D01*
X166624772Y-113019312D01*
X166624349Y-113014167D01*
X166591738Y-112884338D01*
X166569184Y-112794544D01*
X166569183Y-112794540D01*
X166567925Y-112789533D01*
X166565866Y-112784797D01*
X166477630Y-112581868D01*
X166477628Y-112581865D01*
X166475570Y-112577131D01*
X166349764Y-112382665D01*
X166330303Y-112361277D01*
X166250905Y-112274020D01*
X166193887Y-112211358D01*
X166189836Y-112208159D01*
X166189832Y-112208155D01*
X166016177Y-112071011D01*
X166016172Y-112071008D01*
X166012123Y-112067810D01*
X166007607Y-112065317D01*
X166007604Y-112065315D01*
X165813879Y-111958373D01*
X165813875Y-111958371D01*
X165809355Y-111955876D01*
X165804486Y-111954152D01*
X165804482Y-111954150D01*
X165595903Y-111880288D01*
X165595899Y-111880287D01*
X165591028Y-111878562D01*
X165585935Y-111877655D01*
X165585932Y-111877654D01*
X165368095Y-111838851D01*
X165368089Y-111838850D01*
X165363006Y-111837945D01*
X165290096Y-111837054D01*
X165136581Y-111835179D01*
X165136579Y-111835179D01*
X165131411Y-111835116D01*
X164902464Y-111870150D01*
X164682314Y-111942106D01*
X164677726Y-111944494D01*
X164677722Y-111944496D01*
X164651065Y-111958373D01*
X164476872Y-112049052D01*
X164472739Y-112052155D01*
X164472736Y-112052157D01*
X164327168Y-112161453D01*
X164291655Y-112188117D01*
X164131639Y-112355564D01*
X164128725Y-112359836D01*
X164128724Y-112359837D01*
X164057676Y-112463990D01*
X164001119Y-112546899D01*
X163903602Y-112756981D01*
X163841707Y-112980169D01*
X163817095Y-113210469D01*
X158380488Y-113210469D01*
X158370896Y-113093802D01*
X158364773Y-113019318D01*
X158364772Y-113019312D01*
X158364349Y-113014167D01*
X158331738Y-112884338D01*
X158309184Y-112794544D01*
X158309183Y-112794540D01*
X158307925Y-112789533D01*
X158305866Y-112784797D01*
X158217630Y-112581868D01*
X158217628Y-112581865D01*
X158215570Y-112577131D01*
X158089764Y-112382665D01*
X158070303Y-112361277D01*
X157990905Y-112274020D01*
X157933887Y-112211358D01*
X157929836Y-112208159D01*
X157929832Y-112208155D01*
X157756177Y-112071011D01*
X157756172Y-112071008D01*
X157752123Y-112067810D01*
X157747607Y-112065317D01*
X157747604Y-112065315D01*
X157553879Y-111958373D01*
X157553875Y-111958371D01*
X157549355Y-111955876D01*
X157544486Y-111954152D01*
X157544482Y-111954150D01*
X157335903Y-111880288D01*
X157335899Y-111880287D01*
X157331028Y-111878562D01*
X157325935Y-111877655D01*
X157325932Y-111877654D01*
X157108095Y-111838851D01*
X157108089Y-111838850D01*
X157103006Y-111837945D01*
X157030096Y-111837054D01*
X156876581Y-111835179D01*
X156876579Y-111835179D01*
X156871411Y-111835116D01*
X156642464Y-111870150D01*
X156422314Y-111942106D01*
X156417726Y-111944494D01*
X156417722Y-111944496D01*
X156391065Y-111958373D01*
X156216872Y-112049052D01*
X156212739Y-112052155D01*
X156212736Y-112052157D01*
X156067168Y-112161453D01*
X156031655Y-112188117D01*
X155871639Y-112355564D01*
X155868725Y-112359836D01*
X155868724Y-112359837D01*
X155797676Y-112463990D01*
X155741119Y-112546899D01*
X155643602Y-112756981D01*
X155581707Y-112980169D01*
X155557095Y-113210469D01*
X97191034Y-113210469D01*
X97149129Y-106600000D01*
X105886496Y-106600000D01*
X105906458Y-106789928D01*
X105965473Y-106971556D01*
X105968776Y-106977278D01*
X105968777Y-106977279D01*
X105986803Y-107008500D01*
X106060960Y-107136944D01*
X106065378Y-107141851D01*
X106065379Y-107141852D01*
X106161825Y-107248966D01*
X106188747Y-107278866D01*
X106241208Y-107316981D01*
X106328067Y-107380088D01*
X106343248Y-107391118D01*
X106349276Y-107393802D01*
X106349278Y-107393803D01*
X106494566Y-107458489D01*
X106517712Y-107468794D01*
X106607725Y-107487927D01*
X106698056Y-107507128D01*
X106698061Y-107507128D01*
X106704513Y-107508500D01*
X106895487Y-107508500D01*
X106901939Y-107507128D01*
X106901944Y-107507128D01*
X106992275Y-107487927D01*
X107082288Y-107468794D01*
X107105434Y-107458489D01*
X107250722Y-107393803D01*
X107250724Y-107393802D01*
X107256752Y-107391118D01*
X107271934Y-107380088D01*
X107358792Y-107316981D01*
X107411253Y-107278866D01*
X107439844Y-107247113D01*
X107534617Y-107141856D01*
X107539040Y-107136944D01*
X107539963Y-107135346D01*
X107594785Y-107093071D01*
X107665521Y-107086994D01*
X107728313Y-107120126D01*
X107763225Y-107181945D01*
X107766500Y-107210485D01*
X107766500Y-107473134D01*
X107773255Y-107535316D01*
X107824385Y-107671705D01*
X107911739Y-107788261D01*
X108028295Y-107875615D01*
X108036704Y-107878767D01*
X108036705Y-107878768D01*
X108145451Y-107919535D01*
X108202216Y-107962176D01*
X108226916Y-108028738D01*
X108211709Y-108098087D01*
X108192316Y-108124568D01*
X108065629Y-108257138D01*
X108062720Y-108261403D01*
X108062714Y-108261411D01*
X107989815Y-108368277D01*
X107939743Y-108441680D01*
X107898108Y-108531375D01*
X107849787Y-108635475D01*
X107845688Y-108644305D01*
X107785989Y-108859570D01*
X107762251Y-109081695D01*
X107762548Y-109086848D01*
X107762548Y-109086851D01*
X107768011Y-109181590D01*
X107775110Y-109304715D01*
X107776247Y-109309761D01*
X107776248Y-109309767D01*
X107793101Y-109384547D01*
X107824222Y-109522639D01*
X107908266Y-109729616D01*
X107957420Y-109809829D01*
X108022291Y-109915688D01*
X108024987Y-109920088D01*
X108171250Y-110088938D01*
X108343126Y-110231632D01*
X108353218Y-110237529D01*
X108416445Y-110274476D01*
X108465169Y-110326114D01*
X108478240Y-110395897D01*
X108451509Y-110461669D01*
X108411055Y-110495027D01*
X108398607Y-110501507D01*
X108394474Y-110504610D01*
X108394471Y-110504612D01*
X108224100Y-110632530D01*
X108219965Y-110635635D01*
X108065629Y-110797138D01*
X107939743Y-110981680D01*
X107845688Y-111184305D01*
X107785989Y-111399570D01*
X107762251Y-111621695D01*
X107762548Y-111626848D01*
X107762548Y-111626851D01*
X107768011Y-111721590D01*
X107775110Y-111844715D01*
X107776247Y-111849761D01*
X107776248Y-111849767D01*
X107796119Y-111937939D01*
X107824222Y-112062639D01*
X107908266Y-112269616D01*
X107958645Y-112351827D01*
X108022291Y-112455688D01*
X108024987Y-112460088D01*
X108171250Y-112628938D01*
X108343126Y-112771632D01*
X108536000Y-112884338D01*
X108744692Y-112964030D01*
X108749760Y-112965061D01*
X108749763Y-112965062D01*
X108824017Y-112980169D01*
X108963597Y-113008567D01*
X108968772Y-113008757D01*
X108968774Y-113008757D01*
X109181673Y-113016564D01*
X109181677Y-113016564D01*
X109186837Y-113016753D01*
X109191957Y-113016097D01*
X109191959Y-113016097D01*
X109403288Y-112989025D01*
X109403289Y-112989025D01*
X109408416Y-112988368D01*
X109418639Y-112985301D01*
X109617429Y-112925661D01*
X109617434Y-112925659D01*
X109622384Y-112924174D01*
X109822994Y-112825896D01*
X110004860Y-112696173D01*
X110163096Y-112538489D01*
X110222594Y-112455689D01*
X110293453Y-112357077D01*
X110294776Y-112358028D01*
X110341645Y-112314857D01*
X110411580Y-112302625D01*
X110477026Y-112330144D01*
X110504875Y-112361994D01*
X110564987Y-112460088D01*
X110711250Y-112628938D01*
X110883126Y-112771632D01*
X111076000Y-112884338D01*
X111284692Y-112964030D01*
X111289760Y-112965061D01*
X111289763Y-112965062D01*
X111364017Y-112980169D01*
X111503597Y-113008567D01*
X111508772Y-113008757D01*
X111508774Y-113008757D01*
X111721673Y-113016564D01*
X111721677Y-113016564D01*
X111726837Y-113016753D01*
X111731957Y-113016097D01*
X111731959Y-113016097D01*
X111943288Y-112989025D01*
X111943289Y-112989025D01*
X111948416Y-112988368D01*
X111958639Y-112985301D01*
X112157429Y-112925661D01*
X112157434Y-112925659D01*
X112162384Y-112924174D01*
X112362994Y-112825896D01*
X112544860Y-112696173D01*
X112703096Y-112538489D01*
X112762594Y-112455689D01*
X112830435Y-112361277D01*
X112833453Y-112357077D01*
X112854320Y-112314857D01*
X112930136Y-112161453D01*
X112930137Y-112161451D01*
X112932430Y-112156811D01*
X112997370Y-111943069D01*
X113026529Y-111721590D01*
X113028156Y-111655000D01*
X113009852Y-111432361D01*
X112955431Y-111215702D01*
X112866354Y-111010840D01*
X112745014Y-110823277D01*
X112594670Y-110658051D01*
X112590619Y-110654852D01*
X112590615Y-110654848D01*
X112423414Y-110522800D01*
X112423410Y-110522798D01*
X112419359Y-110519598D01*
X112378053Y-110496796D01*
X112328084Y-110446364D01*
X112313312Y-110376921D01*
X112338428Y-110310516D01*
X112365780Y-110283909D01*
X112430802Y-110237529D01*
X112544860Y-110156173D01*
X112703096Y-109998489D01*
X112762594Y-109915689D01*
X112830435Y-109821277D01*
X112833453Y-109817077D01*
X112854320Y-109774857D01*
X112930136Y-109621453D01*
X112930137Y-109621451D01*
X112932430Y-109616811D01*
X112997370Y-109403069D01*
X113026529Y-109181590D01*
X113026893Y-109166695D01*
X113028074Y-109118365D01*
X113028074Y-109118361D01*
X113028156Y-109115000D01*
X113009852Y-108892361D01*
X112955431Y-108675702D01*
X112935559Y-108630000D01*
X173881502Y-108630000D01*
X173901457Y-108858087D01*
X173902881Y-108863400D01*
X173902881Y-108863402D01*
X173933417Y-108977361D01*
X173960716Y-109079243D01*
X173963039Y-109084224D01*
X173963039Y-109084225D01*
X174055151Y-109281762D01*
X174055154Y-109281767D01*
X174057477Y-109286749D01*
X174188802Y-109474300D01*
X174350700Y-109636198D01*
X174355208Y-109639355D01*
X174355211Y-109639357D01*
X174433389Y-109694098D01*
X174538251Y-109767523D01*
X174543233Y-109769846D01*
X174543238Y-109769849D01*
X174655065Y-109821994D01*
X174745757Y-109864284D01*
X174751065Y-109865706D01*
X174751067Y-109865707D01*
X174961598Y-109922119D01*
X174961600Y-109922119D01*
X174966913Y-109923543D01*
X175195000Y-109943498D01*
X175423087Y-109923543D01*
X175428400Y-109922119D01*
X175428402Y-109922119D01*
X175638933Y-109865707D01*
X175638935Y-109865706D01*
X175644243Y-109864284D01*
X175734935Y-109821994D01*
X175846762Y-109769849D01*
X175846767Y-109769846D01*
X175851749Y-109767523D01*
X175956611Y-109694098D01*
X176034789Y-109639357D01*
X176034792Y-109639355D01*
X176039300Y-109636198D01*
X176201198Y-109474300D01*
X176332523Y-109286749D01*
X176334846Y-109281767D01*
X176334849Y-109281762D01*
X176426961Y-109084225D01*
X176426961Y-109084224D01*
X176429284Y-109079243D01*
X176456584Y-108977361D01*
X176487119Y-108863402D01*
X176487119Y-108863400D01*
X176488543Y-108858087D01*
X176508498Y-108630000D01*
X176488543Y-108401913D01*
X176457084Y-108284506D01*
X176430707Y-108186067D01*
X176430706Y-108186065D01*
X176429284Y-108180757D01*
X176400044Y-108118051D01*
X176334849Y-107978238D01*
X176334846Y-107978233D01*
X176332523Y-107973251D01*
X176242121Y-107844144D01*
X176204357Y-107790211D01*
X176204355Y-107790208D01*
X176201198Y-107785700D01*
X176039300Y-107623802D01*
X176034792Y-107620645D01*
X176034789Y-107620643D01*
X175909347Y-107532808D01*
X175851749Y-107492477D01*
X175846767Y-107490154D01*
X175846762Y-107490151D01*
X175649225Y-107398039D01*
X175649224Y-107398039D01*
X175644243Y-107395716D01*
X175638935Y-107394294D01*
X175638933Y-107394293D01*
X175428402Y-107337881D01*
X175428400Y-107337881D01*
X175423087Y-107336457D01*
X175195000Y-107316502D01*
X174966913Y-107336457D01*
X174961600Y-107337881D01*
X174961598Y-107337881D01*
X174751067Y-107394293D01*
X174751065Y-107394294D01*
X174745757Y-107395716D01*
X174740776Y-107398039D01*
X174740775Y-107398039D01*
X174543238Y-107490151D01*
X174543233Y-107490154D01*
X174538251Y-107492477D01*
X174480653Y-107532808D01*
X174355211Y-107620643D01*
X174355208Y-107620645D01*
X174350700Y-107623802D01*
X174188802Y-107785700D01*
X174185645Y-107790208D01*
X174185643Y-107790211D01*
X174147879Y-107844144D01*
X174057477Y-107973251D01*
X174055154Y-107978233D01*
X174055151Y-107978238D01*
X173989956Y-108118051D01*
X173960716Y-108180757D01*
X173959294Y-108186065D01*
X173959293Y-108186067D01*
X173932916Y-108284506D01*
X173901457Y-108401913D01*
X173881502Y-108630000D01*
X112935559Y-108630000D01*
X112866354Y-108470840D01*
X112783093Y-108342138D01*
X112747822Y-108287617D01*
X112747820Y-108287614D01*
X112745014Y-108283277D01*
X112594670Y-108118051D01*
X112590619Y-108114852D01*
X112590615Y-108114848D01*
X112423414Y-107982800D01*
X112423410Y-107982798D01*
X112419359Y-107979598D01*
X112378053Y-107956796D01*
X112328084Y-107906364D01*
X112313312Y-107836921D01*
X112338428Y-107770516D01*
X112365780Y-107743909D01*
X112409603Y-107712650D01*
X112544860Y-107616173D01*
X112703096Y-107458489D01*
X112746534Y-107398039D01*
X112799243Y-107324686D01*
X131426450Y-107324686D01*
X131443143Y-107494936D01*
X131497140Y-107657256D01*
X131500787Y-107663278D01*
X131500788Y-107663280D01*
X131582106Y-107797554D01*
X131582109Y-107797557D01*
X131585756Y-107803580D01*
X131704589Y-107926634D01*
X131758903Y-107962176D01*
X131790420Y-107982800D01*
X131847730Y-108020303D01*
X131854334Y-108022759D01*
X131854336Y-108022760D01*
X132001457Y-108077474D01*
X132001459Y-108077474D01*
X132008067Y-108079932D01*
X132087154Y-108090485D01*
X132170649Y-108101626D01*
X132170653Y-108101626D01*
X132177630Y-108102557D01*
X132184641Y-108101919D01*
X132184645Y-108101919D01*
X132340973Y-108087692D01*
X132340975Y-108087692D01*
X132347992Y-108087053D01*
X132354690Y-108084877D01*
X132354693Y-108084876D01*
X132503989Y-108036366D01*
X132503991Y-108036365D01*
X132510685Y-108034190D01*
X132606448Y-107977104D01*
X132651572Y-107950205D01*
X132651574Y-107950204D01*
X132657624Y-107946597D01*
X132781505Y-107828627D01*
X132794779Y-107808649D01*
X132876171Y-107686143D01*
X132878106Y-107687429D01*
X132919458Y-107643944D01*
X132988431Y-107627113D01*
X133055554Y-107650243D01*
X133090381Y-107687707D01*
X133149728Y-107785700D01*
X133160556Y-107803580D01*
X133279389Y-107926634D01*
X133333703Y-107962176D01*
X133365220Y-107982800D01*
X133422530Y-108020303D01*
X133429134Y-108022759D01*
X133429136Y-108022760D01*
X133576257Y-108077474D01*
X133576259Y-108077474D01*
X133582867Y-108079932D01*
X133661954Y-108090485D01*
X133745449Y-108101626D01*
X133745453Y-108101626D01*
X133752430Y-108102557D01*
X133759441Y-108101919D01*
X133759445Y-108101919D01*
X133915773Y-108087692D01*
X133915775Y-108087692D01*
X133922792Y-108087053D01*
X133929490Y-108084877D01*
X133929493Y-108084876D01*
X134078789Y-108036366D01*
X134078791Y-108036365D01*
X134085485Y-108034190D01*
X134181248Y-107977104D01*
X134226372Y-107950205D01*
X134226374Y-107950204D01*
X134232424Y-107946597D01*
X134356305Y-107828627D01*
X134369579Y-107808649D01*
X134450971Y-107686143D01*
X134452906Y-107687429D01*
X134494258Y-107643944D01*
X134563231Y-107627113D01*
X134630354Y-107650243D01*
X134665181Y-107687707D01*
X134724528Y-107785700D01*
X134735356Y-107803580D01*
X134854189Y-107926634D01*
X134908503Y-107962176D01*
X134940020Y-107982800D01*
X134997330Y-108020303D01*
X135003934Y-108022759D01*
X135003936Y-108022760D01*
X135151057Y-108077474D01*
X135151059Y-108077474D01*
X135157667Y-108079932D01*
X135236754Y-108090485D01*
X135320249Y-108101626D01*
X135320253Y-108101626D01*
X135327230Y-108102557D01*
X135334241Y-108101919D01*
X135334245Y-108101919D01*
X135490573Y-108087692D01*
X135490575Y-108087692D01*
X135497592Y-108087053D01*
X135504290Y-108084877D01*
X135504293Y-108084876D01*
X135653589Y-108036366D01*
X135653591Y-108036365D01*
X135660285Y-108034190D01*
X135756048Y-107977104D01*
X135801172Y-107950205D01*
X135801174Y-107950204D01*
X135807224Y-107946597D01*
X135931105Y-107828627D01*
X135944379Y-107808649D01*
X136025771Y-107686143D01*
X136027706Y-107687429D01*
X136069058Y-107643944D01*
X136138031Y-107627113D01*
X136205154Y-107650243D01*
X136239981Y-107687707D01*
X136299328Y-107785700D01*
X136310156Y-107803580D01*
X136428989Y-107926634D01*
X136483303Y-107962176D01*
X136514820Y-107982800D01*
X136572130Y-108020303D01*
X136578734Y-108022759D01*
X136578736Y-108022760D01*
X136725857Y-108077474D01*
X136725859Y-108077474D01*
X136732467Y-108079932D01*
X136811554Y-108090485D01*
X136895049Y-108101626D01*
X136895053Y-108101626D01*
X136902030Y-108102557D01*
X136909041Y-108101919D01*
X136909045Y-108101919D01*
X137065373Y-108087692D01*
X137065375Y-108087692D01*
X137072392Y-108087053D01*
X137079090Y-108084877D01*
X137079093Y-108084876D01*
X137228389Y-108036366D01*
X137228391Y-108036365D01*
X137235085Y-108034190D01*
X137330848Y-107977104D01*
X137375972Y-107950205D01*
X137375974Y-107950204D01*
X137382024Y-107946597D01*
X137505905Y-107828627D01*
X137519179Y-107808649D01*
X137600571Y-107686143D01*
X137602506Y-107687429D01*
X137643858Y-107643944D01*
X137712831Y-107627113D01*
X137779954Y-107650243D01*
X137814781Y-107687707D01*
X137874128Y-107785700D01*
X137884956Y-107803580D01*
X138003789Y-107926634D01*
X138058103Y-107962176D01*
X138089620Y-107982800D01*
X138146930Y-108020303D01*
X138153534Y-108022759D01*
X138153536Y-108022760D01*
X138300657Y-108077474D01*
X138300659Y-108077474D01*
X138307267Y-108079932D01*
X138386354Y-108090485D01*
X138469849Y-108101626D01*
X138469853Y-108101626D01*
X138476830Y-108102557D01*
X138483841Y-108101919D01*
X138483845Y-108101919D01*
X138640173Y-108087692D01*
X138640175Y-108087692D01*
X138647192Y-108087053D01*
X138653890Y-108084877D01*
X138653893Y-108084876D01*
X138803189Y-108036366D01*
X138803191Y-108036365D01*
X138809885Y-108034190D01*
X138905648Y-107977104D01*
X138950772Y-107950205D01*
X138950774Y-107950204D01*
X138956824Y-107946597D01*
X139080705Y-107828627D01*
X139093979Y-107808649D01*
X139171470Y-107692014D01*
X139175371Y-107686143D01*
X139225295Y-107554717D01*
X139233618Y-107532808D01*
X139233619Y-107532806D01*
X139236118Y-107526226D01*
X139251904Y-107413907D01*
X139281191Y-107349234D01*
X139340795Y-107310661D01*
X139365257Y-107305963D01*
X139427573Y-107300292D01*
X139427575Y-107300292D01*
X139434592Y-107299653D01*
X139441290Y-107297477D01*
X139441293Y-107297476D01*
X139590589Y-107248966D01*
X139590591Y-107248965D01*
X139597285Y-107246790D01*
X139744224Y-107159197D01*
X139868105Y-107041227D01*
X139962771Y-106898743D01*
X140023518Y-106738826D01*
X140024498Y-106731854D01*
X140046775Y-106573347D01*
X140046775Y-106573344D01*
X140047326Y-106569425D01*
X140047625Y-106548000D01*
X140028556Y-106378000D01*
X140019445Y-106351834D01*
X139974614Y-106223097D01*
X139974613Y-106223095D01*
X139972299Y-106216450D01*
X139899533Y-106100000D01*
X149686496Y-106100000D01*
X149706458Y-106289928D01*
X149765473Y-106471556D01*
X149860960Y-106636944D01*
X149988747Y-106778866D01*
X150080455Y-106845496D01*
X150111461Y-106868023D01*
X150143248Y-106891118D01*
X150149276Y-106893802D01*
X150149278Y-106893803D01*
X150309799Y-106965271D01*
X150317712Y-106968794D01*
X150409447Y-106988293D01*
X150498056Y-107007128D01*
X150498061Y-107007128D01*
X150504513Y-107008500D01*
X150695487Y-107008500D01*
X150701939Y-107007128D01*
X150701944Y-107007128D01*
X150790553Y-106988293D01*
X150882288Y-106968794D01*
X150890201Y-106965271D01*
X151050722Y-106893803D01*
X151050724Y-106893802D01*
X151056752Y-106891118D01*
X151088540Y-106868023D01*
X151119545Y-106845496D01*
X151211253Y-106778866D01*
X151339040Y-106636944D01*
X151434527Y-106471556D01*
X151493542Y-106289928D01*
X151513504Y-106100000D01*
X151497738Y-105949994D01*
X151494232Y-105916635D01*
X151494232Y-105916633D01*
X151493542Y-105910072D01*
X151434527Y-105728444D01*
X151428000Y-105717138D01*
X151373383Y-105622540D01*
X151339040Y-105563056D01*
X151329563Y-105552530D01*
X151215675Y-105426045D01*
X151215674Y-105426044D01*
X151211253Y-105421134D01*
X151112157Y-105349136D01*
X151062094Y-105312763D01*
X151062093Y-105312762D01*
X151056752Y-105308882D01*
X151050724Y-105306198D01*
X151050722Y-105306197D01*
X150888319Y-105233891D01*
X150888318Y-105233891D01*
X150882288Y-105231206D01*
X150788888Y-105211353D01*
X150701944Y-105192872D01*
X150701939Y-105192872D01*
X150695487Y-105191500D01*
X150504513Y-105191500D01*
X150498061Y-105192872D01*
X150498056Y-105192872D01*
X150411113Y-105211353D01*
X150317712Y-105231206D01*
X150311682Y-105233891D01*
X150311681Y-105233891D01*
X150149278Y-105306197D01*
X150149276Y-105306198D01*
X150143248Y-105308882D01*
X150137907Y-105312762D01*
X150137906Y-105312763D01*
X150087843Y-105349136D01*
X149988747Y-105421134D01*
X149984326Y-105426044D01*
X149984325Y-105426045D01*
X149870438Y-105552530D01*
X149860960Y-105563056D01*
X149826617Y-105622540D01*
X149772001Y-105717138D01*
X149765473Y-105728444D01*
X149706458Y-105910072D01*
X149705768Y-105916633D01*
X149705768Y-105916635D01*
X149702262Y-105949994D01*
X149686496Y-106100000D01*
X139899533Y-106100000D01*
X139881648Y-106071378D01*
X139873900Y-106063575D01*
X139766072Y-105954992D01*
X139761109Y-105949994D01*
X139628802Y-105866030D01*
X139582003Y-105812640D01*
X139571498Y-105742425D01*
X139600622Y-105677677D01*
X139631797Y-105651417D01*
X139744224Y-105584397D01*
X139868105Y-105466427D01*
X139876416Y-105453919D01*
X139939223Y-105359385D01*
X139962771Y-105323943D01*
X140012207Y-105193803D01*
X140021018Y-105170608D01*
X140021019Y-105170606D01*
X140023518Y-105164026D01*
X140024498Y-105157054D01*
X140046775Y-104998547D01*
X140046775Y-104998544D01*
X140047326Y-104994625D01*
X140047625Y-104973200D01*
X140028556Y-104803200D01*
X140019530Y-104777279D01*
X139974614Y-104648297D01*
X139974613Y-104648295D01*
X139972299Y-104641650D01*
X139966342Y-104632116D01*
X139885381Y-104502552D01*
X139881648Y-104496578D01*
X139855046Y-104469789D01*
X139785742Y-104400000D01*
X144586496Y-104400000D01*
X144587186Y-104406565D01*
X144597275Y-104502552D01*
X144606458Y-104589928D01*
X144665473Y-104771556D01*
X144668776Y-104777278D01*
X144668777Y-104777279D01*
X144691136Y-104816005D01*
X144760960Y-104936944D01*
X144765378Y-104941851D01*
X144765379Y-104941852D01*
X144827798Y-105011175D01*
X144888747Y-105078866D01*
X144940218Y-105116262D01*
X145023028Y-105176427D01*
X145043248Y-105191118D01*
X145049276Y-105193802D01*
X145049278Y-105193803D01*
X145211681Y-105266109D01*
X145217712Y-105268794D01*
X145311113Y-105288647D01*
X145398056Y-105307128D01*
X145398061Y-105307128D01*
X145404513Y-105308500D01*
X145595487Y-105308500D01*
X145601939Y-105307128D01*
X145601944Y-105307128D01*
X145688888Y-105288647D01*
X145782288Y-105268794D01*
X145788319Y-105266109D01*
X145950722Y-105193803D01*
X145950724Y-105193802D01*
X145956752Y-105191118D01*
X145976973Y-105176427D01*
X146059782Y-105116262D01*
X146111253Y-105078866D01*
X146172202Y-105011175D01*
X146234621Y-104941852D01*
X146234622Y-104941851D01*
X146239040Y-104936944D01*
X146308864Y-104816005D01*
X146331223Y-104777279D01*
X146331224Y-104777278D01*
X146334527Y-104771556D01*
X146393542Y-104589928D01*
X146402726Y-104502552D01*
X146412814Y-104406565D01*
X146413504Y-104400000D01*
X146407022Y-104338327D01*
X146394232Y-104216635D01*
X146394232Y-104216633D01*
X146393542Y-104210072D01*
X146334527Y-104028444D01*
X146317382Y-103998747D01*
X146262312Y-103903365D01*
X146239040Y-103863056D01*
X146217104Y-103838693D01*
X146115675Y-103726045D01*
X146115674Y-103726044D01*
X146111253Y-103721134D01*
X145992933Y-103635169D01*
X145962094Y-103612763D01*
X145962093Y-103612762D01*
X145956752Y-103608882D01*
X145950724Y-103606198D01*
X145950722Y-103606197D01*
X145788319Y-103533891D01*
X145788318Y-103533891D01*
X145782288Y-103531206D01*
X145688887Y-103511353D01*
X145601944Y-103492872D01*
X145601939Y-103492872D01*
X145595487Y-103491500D01*
X145404513Y-103491500D01*
X145398061Y-103492872D01*
X145398056Y-103492872D01*
X145311113Y-103511353D01*
X145217712Y-103531206D01*
X145211682Y-103533891D01*
X145211681Y-103533891D01*
X145049278Y-103606197D01*
X145049276Y-103606198D01*
X145043248Y-103608882D01*
X145037907Y-103612762D01*
X145037906Y-103612763D01*
X145007067Y-103635169D01*
X144888747Y-103721134D01*
X144884326Y-103726044D01*
X144884325Y-103726045D01*
X144782897Y-103838693D01*
X144760960Y-103863056D01*
X144737688Y-103903365D01*
X144682619Y-103998747D01*
X144665473Y-104028444D01*
X144606458Y-104210072D01*
X144605768Y-104216633D01*
X144605768Y-104216635D01*
X144592978Y-104338327D01*
X144586496Y-104400000D01*
X139785742Y-104400000D01*
X139766072Y-104380192D01*
X139761109Y-104375194D01*
X139632856Y-104293803D01*
X139628802Y-104291230D01*
X139582003Y-104237840D01*
X139571498Y-104167625D01*
X139600622Y-104102877D01*
X139631797Y-104076617D01*
X139712608Y-104028444D01*
X139738172Y-104013205D01*
X139738174Y-104013204D01*
X139744224Y-104009597D01*
X139868105Y-103891627D01*
X139883289Y-103868774D01*
X139915438Y-103820385D01*
X139962771Y-103749143D01*
X140014577Y-103612763D01*
X140021018Y-103595808D01*
X140021019Y-103595806D01*
X140023518Y-103589226D01*
X140024498Y-103582254D01*
X140046775Y-103423747D01*
X140046775Y-103423744D01*
X140047326Y-103419825D01*
X140047473Y-103409278D01*
X140047570Y-103402362D01*
X140047570Y-103402357D01*
X140047625Y-103398400D01*
X140036587Y-103300000D01*
X148286496Y-103300000D01*
X148287186Y-103306565D01*
X148302214Y-103449544D01*
X148306458Y-103489928D01*
X148365473Y-103671556D01*
X148460960Y-103836944D01*
X148465378Y-103841851D01*
X148465379Y-103841852D01*
X148582888Y-103972359D01*
X148588747Y-103978866D01*
X148687843Y-104050864D01*
X148733761Y-104084225D01*
X148743248Y-104091118D01*
X148749276Y-104093802D01*
X148749278Y-104093803D01*
X148911681Y-104166109D01*
X148917712Y-104168794D01*
X149004479Y-104187237D01*
X149098056Y-104207128D01*
X149098061Y-104207128D01*
X149104513Y-104208500D01*
X149295487Y-104208500D01*
X149301939Y-104207128D01*
X149301944Y-104207128D01*
X149395521Y-104187237D01*
X149482288Y-104168794D01*
X149488319Y-104166109D01*
X149650722Y-104093803D01*
X149650724Y-104093802D01*
X149656752Y-104091118D01*
X149666240Y-104084225D01*
X149712157Y-104050864D01*
X149811253Y-103978866D01*
X149817112Y-103972359D01*
X149913356Y-103865469D01*
X156627095Y-103865469D01*
X156627392Y-103870622D01*
X156627392Y-103870625D01*
X156633067Y-103969041D01*
X156640427Y-104096697D01*
X156641564Y-104101743D01*
X156641565Y-104101749D01*
X156665520Y-104208043D01*
X156691346Y-104322642D01*
X156693288Y-104327424D01*
X156693289Y-104327428D01*
X156764400Y-104502552D01*
X156778484Y-104537237D01*
X156899501Y-104734719D01*
X157051147Y-104909784D01*
X157229349Y-105057730D01*
X157429322Y-105174584D01*
X157645694Y-105257209D01*
X157650760Y-105258240D01*
X157650761Y-105258240D01*
X157653489Y-105258795D01*
X157872656Y-105303385D01*
X158003324Y-105308176D01*
X158098949Y-105311683D01*
X158098953Y-105311683D01*
X158104113Y-105311872D01*
X158109233Y-105311216D01*
X158109235Y-105311216D01*
X158185078Y-105301500D01*
X158333847Y-105282442D01*
X158338795Y-105280957D01*
X158338802Y-105280956D01*
X158550747Y-105217369D01*
X158555690Y-105215886D01*
X158560324Y-105213616D01*
X158759049Y-105116262D01*
X158759052Y-105116260D01*
X158763684Y-105113991D01*
X158952243Y-104979494D01*
X159116303Y-104816005D01*
X159251458Y-104627917D01*
X159267131Y-104596206D01*
X159351784Y-104424922D01*
X159351785Y-104424920D01*
X159354078Y-104420280D01*
X159421408Y-104198671D01*
X159451640Y-103969041D01*
X159451722Y-103965691D01*
X159453245Y-103903365D01*
X159453245Y-103903361D01*
X159453327Y-103900000D01*
X159450488Y-103865469D01*
X164887095Y-103865469D01*
X164887392Y-103870622D01*
X164887392Y-103870625D01*
X164893067Y-103969041D01*
X164900427Y-104096697D01*
X164901564Y-104101743D01*
X164901565Y-104101749D01*
X164925520Y-104208043D01*
X164951346Y-104322642D01*
X164953288Y-104327424D01*
X164953289Y-104327428D01*
X165024400Y-104502552D01*
X165038484Y-104537237D01*
X165159501Y-104734719D01*
X165311147Y-104909784D01*
X165489349Y-105057730D01*
X165689322Y-105174584D01*
X165905694Y-105257209D01*
X165910760Y-105258240D01*
X165910761Y-105258240D01*
X165913489Y-105258795D01*
X166132656Y-105303385D01*
X166263324Y-105308176D01*
X166358949Y-105311683D01*
X166358953Y-105311683D01*
X166364113Y-105311872D01*
X166369233Y-105311216D01*
X166369235Y-105311216D01*
X166445078Y-105301500D01*
X166593847Y-105282442D01*
X166598795Y-105280957D01*
X166598802Y-105280956D01*
X166810747Y-105217369D01*
X166815690Y-105215886D01*
X166820324Y-105213616D01*
X167019049Y-105116262D01*
X167019052Y-105116260D01*
X167023684Y-105113991D01*
X167212243Y-104979494D01*
X167376303Y-104816005D01*
X167511458Y-104627917D01*
X167527131Y-104596206D01*
X167611784Y-104424922D01*
X167611785Y-104424920D01*
X167614078Y-104420280D01*
X167681408Y-104198671D01*
X167711640Y-103969041D01*
X167711722Y-103965691D01*
X167713245Y-103903365D01*
X167713245Y-103903361D01*
X167713327Y-103900000D01*
X167707032Y-103823434D01*
X167694773Y-103674318D01*
X167694772Y-103674312D01*
X167694349Y-103669167D01*
X167684511Y-103630000D01*
X173881502Y-103630000D01*
X173901457Y-103858087D01*
X173902881Y-103863400D01*
X173902881Y-103863402D01*
X173940922Y-104005370D01*
X173960716Y-104079243D01*
X173963039Y-104084224D01*
X173963039Y-104084225D01*
X174055151Y-104281762D01*
X174055154Y-104281767D01*
X174057477Y-104286749D01*
X174098500Y-104345336D01*
X174141768Y-104407128D01*
X174188802Y-104474300D01*
X174350700Y-104636198D01*
X174355208Y-104639355D01*
X174355211Y-104639357D01*
X174433389Y-104694098D01*
X174538251Y-104767523D01*
X174543233Y-104769846D01*
X174543238Y-104769849D01*
X174740775Y-104861961D01*
X174745757Y-104864284D01*
X174751065Y-104865706D01*
X174751067Y-104865707D01*
X174961598Y-104922119D01*
X174961600Y-104922119D01*
X174966913Y-104923543D01*
X175195000Y-104943498D01*
X175423087Y-104923543D01*
X175428400Y-104922119D01*
X175428402Y-104922119D01*
X175638933Y-104865707D01*
X175638935Y-104865706D01*
X175644243Y-104864284D01*
X175649225Y-104861961D01*
X175846762Y-104769849D01*
X175846767Y-104769846D01*
X175851749Y-104767523D01*
X175956611Y-104694098D01*
X176034789Y-104639357D01*
X176034792Y-104639355D01*
X176039300Y-104636198D01*
X176201198Y-104474300D01*
X176248233Y-104407128D01*
X176291500Y-104345336D01*
X176332523Y-104286749D01*
X176334846Y-104281767D01*
X176334849Y-104281762D01*
X176426961Y-104084225D01*
X176426961Y-104084224D01*
X176429284Y-104079243D01*
X176449079Y-104005370D01*
X176487119Y-103863402D01*
X176487119Y-103863400D01*
X176488543Y-103858087D01*
X176508498Y-103630000D01*
X176488543Y-103401913D01*
X176487119Y-103396598D01*
X176430707Y-103186067D01*
X176430706Y-103186065D01*
X176429284Y-103180757D01*
X176399384Y-103116635D01*
X176334849Y-102978238D01*
X176334846Y-102978233D01*
X176332523Y-102973251D01*
X176226009Y-102821134D01*
X176204357Y-102790211D01*
X176204355Y-102790208D01*
X176201198Y-102785700D01*
X176039300Y-102623802D01*
X176034792Y-102620645D01*
X176034789Y-102620643D01*
X175910424Y-102533562D01*
X175851749Y-102492477D01*
X175846767Y-102490154D01*
X175846762Y-102490151D01*
X175649225Y-102398039D01*
X175649224Y-102398039D01*
X175644243Y-102395716D01*
X175638935Y-102394294D01*
X175638933Y-102394293D01*
X175428402Y-102337881D01*
X175428400Y-102337881D01*
X175423087Y-102336457D01*
X175195000Y-102316502D01*
X174966913Y-102336457D01*
X174961600Y-102337881D01*
X174961598Y-102337881D01*
X174751067Y-102394293D01*
X174751065Y-102394294D01*
X174745757Y-102395716D01*
X174740776Y-102398039D01*
X174740775Y-102398039D01*
X174543238Y-102490151D01*
X174543233Y-102490154D01*
X174538251Y-102492477D01*
X174479576Y-102533562D01*
X174355211Y-102620643D01*
X174355208Y-102620645D01*
X174350700Y-102623802D01*
X174188802Y-102785700D01*
X174185645Y-102790208D01*
X174185643Y-102790211D01*
X174163991Y-102821134D01*
X174057477Y-102973251D01*
X174055154Y-102978233D01*
X174055151Y-102978238D01*
X173990616Y-103116635D01*
X173960716Y-103180757D01*
X173959294Y-103186065D01*
X173959293Y-103186067D01*
X173902881Y-103396598D01*
X173901457Y-103401913D01*
X173881502Y-103630000D01*
X167684511Y-103630000D01*
X167651857Y-103500000D01*
X167639184Y-103449544D01*
X167639183Y-103449540D01*
X167637925Y-103444533D01*
X167627788Y-103421219D01*
X167547630Y-103236868D01*
X167547628Y-103236865D01*
X167545570Y-103232131D01*
X167419764Y-103037665D01*
X167263887Y-102866358D01*
X167259836Y-102863159D01*
X167259832Y-102863155D01*
X167086177Y-102726011D01*
X167086172Y-102726008D01*
X167082123Y-102722810D01*
X167077607Y-102720317D01*
X167077604Y-102720315D01*
X166883879Y-102613373D01*
X166883875Y-102613371D01*
X166879355Y-102610876D01*
X166874486Y-102609152D01*
X166874482Y-102609150D01*
X166665903Y-102535288D01*
X166665899Y-102535287D01*
X166661028Y-102533562D01*
X166655935Y-102532655D01*
X166655932Y-102532654D01*
X166438095Y-102493851D01*
X166438089Y-102493850D01*
X166433006Y-102492945D01*
X166360096Y-102492054D01*
X166206581Y-102490179D01*
X166206579Y-102490179D01*
X166201411Y-102490116D01*
X165972464Y-102525150D01*
X165752314Y-102597106D01*
X165747726Y-102599494D01*
X165747722Y-102599496D01*
X165551461Y-102701663D01*
X165546872Y-102704052D01*
X165542739Y-102707155D01*
X165542736Y-102707157D01*
X165365790Y-102840012D01*
X165361655Y-102843117D01*
X165201639Y-103010564D01*
X165198725Y-103014836D01*
X165198724Y-103014837D01*
X165185155Y-103034729D01*
X165071119Y-103201899D01*
X164973602Y-103411981D01*
X164911707Y-103635169D01*
X164887095Y-103865469D01*
X159450488Y-103865469D01*
X159447032Y-103823434D01*
X159434773Y-103674318D01*
X159434772Y-103674312D01*
X159434349Y-103669167D01*
X159391857Y-103500000D01*
X159379184Y-103449544D01*
X159379183Y-103449540D01*
X159377925Y-103444533D01*
X159367788Y-103421219D01*
X159287630Y-103236868D01*
X159287628Y-103236865D01*
X159285570Y-103232131D01*
X159159764Y-103037665D01*
X159003887Y-102866358D01*
X158999836Y-102863159D01*
X158999832Y-102863155D01*
X158826177Y-102726011D01*
X158826172Y-102726008D01*
X158822123Y-102722810D01*
X158817607Y-102720317D01*
X158817604Y-102720315D01*
X158623879Y-102613373D01*
X158623875Y-102613371D01*
X158619355Y-102610876D01*
X158614486Y-102609152D01*
X158614482Y-102609150D01*
X158405903Y-102535288D01*
X158405899Y-102535287D01*
X158401028Y-102533562D01*
X158395935Y-102532655D01*
X158395932Y-102532654D01*
X158178095Y-102493851D01*
X158178089Y-102493850D01*
X158173006Y-102492945D01*
X158100096Y-102492054D01*
X157946581Y-102490179D01*
X157946579Y-102490179D01*
X157941411Y-102490116D01*
X157712464Y-102525150D01*
X157492314Y-102597106D01*
X157487726Y-102599494D01*
X157487722Y-102599496D01*
X157291461Y-102701663D01*
X157286872Y-102704052D01*
X157282739Y-102707155D01*
X157282736Y-102707157D01*
X157105790Y-102840012D01*
X157101655Y-102843117D01*
X156941639Y-103010564D01*
X156938725Y-103014836D01*
X156938724Y-103014837D01*
X156925155Y-103034729D01*
X156811119Y-103201899D01*
X156713602Y-103411981D01*
X156651707Y-103635169D01*
X156627095Y-103865469D01*
X149913356Y-103865469D01*
X149934621Y-103841852D01*
X149934622Y-103841851D01*
X149939040Y-103836944D01*
X150034527Y-103671556D01*
X150093542Y-103489928D01*
X150097787Y-103449544D01*
X150112814Y-103306565D01*
X150113504Y-103300000D01*
X150103634Y-103206092D01*
X150094232Y-103116635D01*
X150094232Y-103116633D01*
X150093542Y-103110072D01*
X150034527Y-102928444D01*
X150030679Y-102921778D01*
X149996775Y-102863056D01*
X149939040Y-102763056D01*
X149902803Y-102722810D01*
X149815675Y-102626045D01*
X149815674Y-102626044D01*
X149811253Y-102621134D01*
X149656752Y-102508882D01*
X149650724Y-102506198D01*
X149650722Y-102506197D01*
X149488319Y-102433891D01*
X149488318Y-102433891D01*
X149482288Y-102431206D01*
X149388887Y-102411353D01*
X149301944Y-102392872D01*
X149301939Y-102392872D01*
X149295487Y-102391500D01*
X149104513Y-102391500D01*
X149098061Y-102392872D01*
X149098056Y-102392872D01*
X149011113Y-102411353D01*
X148917712Y-102431206D01*
X148911682Y-102433891D01*
X148911681Y-102433891D01*
X148749278Y-102506197D01*
X148749276Y-102506198D01*
X148743248Y-102508882D01*
X148588747Y-102621134D01*
X148584326Y-102626044D01*
X148584325Y-102626045D01*
X148497198Y-102722810D01*
X148460960Y-102763056D01*
X148403225Y-102863056D01*
X148369322Y-102921778D01*
X148365473Y-102928444D01*
X148306458Y-103110072D01*
X148305768Y-103116633D01*
X148305768Y-103116635D01*
X148296366Y-103206092D01*
X148286496Y-103300000D01*
X140036587Y-103300000D01*
X140028556Y-103228400D01*
X140019988Y-103203794D01*
X139974614Y-103073497D01*
X139974613Y-103073495D01*
X139972299Y-103066850D01*
X139934793Y-103006827D01*
X139885381Y-102927752D01*
X139881648Y-102921778D01*
X139761109Y-102800394D01*
X139636214Y-102721134D01*
X139628802Y-102716430D01*
X139582003Y-102663040D01*
X139571498Y-102592825D01*
X139600622Y-102528077D01*
X139631797Y-102501817D01*
X139744224Y-102434797D01*
X139868105Y-102316827D01*
X139945725Y-102200000D01*
X144586496Y-102200000D01*
X144587186Y-102206565D01*
X144599286Y-102321686D01*
X144606458Y-102389928D01*
X144665473Y-102571556D01*
X144668776Y-102577278D01*
X144668777Y-102577279D01*
X144680224Y-102597106D01*
X144760960Y-102736944D01*
X144765378Y-102741851D01*
X144765379Y-102741852D01*
X144822591Y-102805392D01*
X144888747Y-102878866D01*
X144940930Y-102916779D01*
X145012452Y-102968743D01*
X145043248Y-102991118D01*
X145049276Y-102993802D01*
X145049278Y-102993803D01*
X145211681Y-103066109D01*
X145217712Y-103068794D01*
X145290422Y-103084249D01*
X145398056Y-103107128D01*
X145398061Y-103107128D01*
X145404513Y-103108500D01*
X145595487Y-103108500D01*
X145601939Y-103107128D01*
X145601944Y-103107128D01*
X145709578Y-103084249D01*
X145782288Y-103068794D01*
X145788319Y-103066109D01*
X145950722Y-102993803D01*
X145950724Y-102993802D01*
X145956752Y-102991118D01*
X145987549Y-102968743D01*
X146059070Y-102916779D01*
X146111253Y-102878866D01*
X146177409Y-102805392D01*
X146234621Y-102741852D01*
X146234622Y-102741851D01*
X146239040Y-102736944D01*
X146319776Y-102597106D01*
X146331223Y-102577279D01*
X146331224Y-102577278D01*
X146334527Y-102571556D01*
X146393542Y-102389928D01*
X146400715Y-102321686D01*
X146412814Y-102206565D01*
X146413504Y-102200000D01*
X146405211Y-102121096D01*
X146394232Y-102016635D01*
X146394232Y-102016633D01*
X146393542Y-102010072D01*
X146334527Y-101828444D01*
X146239040Y-101663056D01*
X146197243Y-101616635D01*
X146115675Y-101526045D01*
X146115674Y-101526044D01*
X146111253Y-101521134D01*
X145956752Y-101408882D01*
X145950724Y-101406198D01*
X145950722Y-101406197D01*
X145788319Y-101333891D01*
X145788318Y-101333891D01*
X145782288Y-101331206D01*
X145688888Y-101311353D01*
X145601944Y-101292872D01*
X145601939Y-101292872D01*
X145595487Y-101291500D01*
X145404513Y-101291500D01*
X145398061Y-101292872D01*
X145398056Y-101292872D01*
X145311113Y-101311353D01*
X145217712Y-101331206D01*
X145211682Y-101333891D01*
X145211681Y-101333891D01*
X145049278Y-101406197D01*
X145049276Y-101406198D01*
X145043248Y-101408882D01*
X144888747Y-101521134D01*
X144884326Y-101526044D01*
X144884325Y-101526045D01*
X144802758Y-101616635D01*
X144760960Y-101663056D01*
X144665473Y-101828444D01*
X144606458Y-102010072D01*
X144605768Y-102016633D01*
X144605768Y-102016635D01*
X144594789Y-102121096D01*
X144586496Y-102200000D01*
X139945725Y-102200000D01*
X139962771Y-102174343D01*
X140023518Y-102014426D01*
X140024498Y-102007454D01*
X140046775Y-101848947D01*
X140046775Y-101848944D01*
X140047326Y-101845025D01*
X140047473Y-101834478D01*
X140047570Y-101827562D01*
X140047570Y-101827557D01*
X140047625Y-101823600D01*
X140028556Y-101653600D01*
X140019445Y-101627434D01*
X139974614Y-101498697D01*
X139974613Y-101498695D01*
X139972299Y-101492050D01*
X139928978Y-101422721D01*
X139885381Y-101352952D01*
X139881648Y-101346978D01*
X139864624Y-101329834D01*
X139766072Y-101230592D01*
X139761109Y-101225594D01*
X139628802Y-101141630D01*
X139582003Y-101088240D01*
X139571498Y-101018025D01*
X139600622Y-100953277D01*
X139631797Y-100927017D01*
X139744224Y-100859997D01*
X139868105Y-100742027D01*
X139962771Y-100599543D01*
X140016009Y-100459393D01*
X140021018Y-100446208D01*
X140021019Y-100446206D01*
X140023518Y-100439626D01*
X140024632Y-100431703D01*
X140046775Y-100274147D01*
X140046775Y-100274144D01*
X140047326Y-100270225D01*
X140047625Y-100248800D01*
X140028556Y-100078800D01*
X140010355Y-100026531D01*
X139974614Y-99923897D01*
X139974613Y-99923895D01*
X139972299Y-99917250D01*
X139881648Y-99772178D01*
X139868459Y-99758896D01*
X139778964Y-99668774D01*
X139761109Y-99650794D01*
X139695839Y-99609373D01*
X139622616Y-99562904D01*
X139622613Y-99562902D01*
X139616673Y-99559133D01*
X139610040Y-99556771D01*
X139462154Y-99504111D01*
X139462149Y-99504110D01*
X139455519Y-99501749D01*
X139448531Y-99500916D01*
X139448528Y-99500915D01*
X139332955Y-99487134D01*
X139285657Y-99481494D01*
X139278654Y-99482230D01*
X139278653Y-99482230D01*
X139234258Y-99486896D01*
X139115528Y-99499375D01*
X139105371Y-99502833D01*
X138960256Y-99552234D01*
X138960253Y-99552235D01*
X138953589Y-99554504D01*
X138807888Y-99644140D01*
X138802857Y-99649067D01*
X138802854Y-99649069D01*
X138782732Y-99668774D01*
X138685666Y-99763828D01*
X138681847Y-99769753D01*
X138681846Y-99769755D01*
X138598238Y-99899489D01*
X138544523Y-99945914D01*
X138474237Y-99955929D01*
X138409694Y-99926353D01*
X138385473Y-99898004D01*
X138310581Y-99778152D01*
X138306848Y-99772178D01*
X138293659Y-99758896D01*
X138204164Y-99668774D01*
X138186309Y-99650794D01*
X138121039Y-99609373D01*
X138047816Y-99562904D01*
X138047813Y-99562902D01*
X138041873Y-99559133D01*
X138035240Y-99556771D01*
X137887354Y-99504111D01*
X137887349Y-99504110D01*
X137880719Y-99501749D01*
X137873731Y-99500916D01*
X137873728Y-99500915D01*
X137758155Y-99487134D01*
X137710857Y-99481494D01*
X137703854Y-99482230D01*
X137703853Y-99482230D01*
X137659458Y-99486896D01*
X137540728Y-99499375D01*
X137530571Y-99502833D01*
X137385456Y-99552234D01*
X137385453Y-99552235D01*
X137378789Y-99554504D01*
X137233088Y-99644140D01*
X137228057Y-99649067D01*
X137228054Y-99649069D01*
X137207932Y-99668774D01*
X137110866Y-99763828D01*
X137107047Y-99769753D01*
X137107046Y-99769755D01*
X137023438Y-99899489D01*
X136969723Y-99945914D01*
X136899437Y-99955929D01*
X136834894Y-99926353D01*
X136810673Y-99898004D01*
X136735781Y-99778152D01*
X136732048Y-99772178D01*
X136718859Y-99758896D01*
X136629364Y-99668774D01*
X136611509Y-99650794D01*
X136546239Y-99609373D01*
X136473016Y-99562904D01*
X136473013Y-99562902D01*
X136467073Y-99559133D01*
X136460440Y-99556771D01*
X136312554Y-99504111D01*
X136312549Y-99504110D01*
X136305919Y-99501749D01*
X136298931Y-99500916D01*
X136298928Y-99500915D01*
X136183355Y-99487134D01*
X136136057Y-99481494D01*
X136129054Y-99482230D01*
X136129053Y-99482230D01*
X136084658Y-99486896D01*
X135965928Y-99499375D01*
X135955771Y-99502833D01*
X135810656Y-99552234D01*
X135810653Y-99552235D01*
X135803989Y-99554504D01*
X135658288Y-99644140D01*
X135653257Y-99649067D01*
X135653254Y-99649069D01*
X135633132Y-99668774D01*
X135536066Y-99763828D01*
X135532247Y-99769753D01*
X135532246Y-99769755D01*
X135448638Y-99899489D01*
X135394923Y-99945914D01*
X135324637Y-99955929D01*
X135260094Y-99926353D01*
X135235873Y-99898004D01*
X135160981Y-99778152D01*
X135157248Y-99772178D01*
X135144059Y-99758896D01*
X135054564Y-99668774D01*
X135036709Y-99650794D01*
X134971439Y-99609373D01*
X134898216Y-99562904D01*
X134898213Y-99562902D01*
X134892273Y-99559133D01*
X134885640Y-99556771D01*
X134737754Y-99504111D01*
X134737749Y-99504110D01*
X134731119Y-99501749D01*
X134724131Y-99500916D01*
X134724128Y-99500915D01*
X134608555Y-99487134D01*
X134561257Y-99481494D01*
X134554254Y-99482230D01*
X134554253Y-99482230D01*
X134509858Y-99486896D01*
X134391128Y-99499375D01*
X134380971Y-99502833D01*
X134235856Y-99552234D01*
X134235853Y-99552235D01*
X134229189Y-99554504D01*
X134083488Y-99644140D01*
X134078457Y-99649067D01*
X134078454Y-99649069D01*
X134058332Y-99668774D01*
X133961266Y-99763828D01*
X133957447Y-99769753D01*
X133957446Y-99769755D01*
X133873838Y-99899489D01*
X133820123Y-99945914D01*
X133749837Y-99955929D01*
X133685294Y-99926353D01*
X133661073Y-99898004D01*
X133586181Y-99778152D01*
X133582448Y-99772178D01*
X133569259Y-99758896D01*
X133479764Y-99668774D01*
X133461909Y-99650794D01*
X133396639Y-99609373D01*
X133323416Y-99562904D01*
X133323413Y-99562902D01*
X133317473Y-99559133D01*
X133310840Y-99556771D01*
X133162954Y-99504111D01*
X133162949Y-99504110D01*
X133156319Y-99501749D01*
X133149331Y-99500916D01*
X133149328Y-99500915D01*
X133033755Y-99487134D01*
X132986457Y-99481494D01*
X132979454Y-99482230D01*
X132979453Y-99482230D01*
X132935058Y-99486896D01*
X132816328Y-99499375D01*
X132806171Y-99502833D01*
X132661056Y-99552234D01*
X132661053Y-99552235D01*
X132654389Y-99554504D01*
X132508688Y-99644140D01*
X132503657Y-99649067D01*
X132503654Y-99649069D01*
X132483532Y-99668774D01*
X132386466Y-99763828D01*
X132382647Y-99769753D01*
X132382646Y-99769755D01*
X132377235Y-99778152D01*
X132293798Y-99907620D01*
X132291387Y-99914243D01*
X132291386Y-99914246D01*
X132237700Y-100061747D01*
X132237699Y-100061752D01*
X132235290Y-100068370D01*
X132232215Y-100092715D01*
X132222621Y-100168654D01*
X132194239Y-100233731D01*
X132135179Y-100273132D01*
X132110789Y-100278171D01*
X132028928Y-100286775D01*
X132022260Y-100289045D01*
X131873656Y-100339634D01*
X131873653Y-100339635D01*
X131866989Y-100341904D01*
X131721288Y-100431540D01*
X131716257Y-100436467D01*
X131716254Y-100436469D01*
X131675126Y-100476745D01*
X131599066Y-100551228D01*
X131506398Y-100695020D01*
X131503987Y-100701643D01*
X131503986Y-100701646D01*
X131450300Y-100849147D01*
X131450299Y-100849152D01*
X131447890Y-100855770D01*
X131426450Y-101025486D01*
X131443143Y-101195736D01*
X131497140Y-101358056D01*
X131500787Y-101364078D01*
X131500788Y-101364080D01*
X131582106Y-101498354D01*
X131582109Y-101498357D01*
X131585756Y-101504380D01*
X131704589Y-101627434D01*
X131710485Y-101631292D01*
X131844994Y-101719313D01*
X131891043Y-101773350D01*
X131900566Y-101843705D01*
X131870541Y-101908041D01*
X131842023Y-101932062D01*
X131727294Y-102002644D01*
X131727288Y-102002649D01*
X131721288Y-102006340D01*
X131716257Y-102011267D01*
X131716254Y-102011269D01*
X131706309Y-102021008D01*
X131599066Y-102126028D01*
X131595247Y-102131953D01*
X131595246Y-102131955D01*
X131572175Y-102167755D01*
X131506398Y-102269820D01*
X131503987Y-102276443D01*
X131503986Y-102276446D01*
X131450300Y-102423947D01*
X131450299Y-102423952D01*
X131447890Y-102430570D01*
X131426450Y-102600286D01*
X131443143Y-102770536D01*
X131497140Y-102932856D01*
X131500787Y-102938878D01*
X131500788Y-102938880D01*
X131582106Y-103073154D01*
X131582109Y-103073157D01*
X131585756Y-103079180D01*
X131704589Y-103202234D01*
X131710485Y-103206092D01*
X131844994Y-103294113D01*
X131891043Y-103348150D01*
X131900566Y-103418505D01*
X131870541Y-103482841D01*
X131842023Y-103506862D01*
X131727294Y-103577444D01*
X131727288Y-103577449D01*
X131721288Y-103581140D01*
X131716257Y-103586067D01*
X131716254Y-103586069D01*
X131671192Y-103630197D01*
X131599066Y-103700828D01*
X131595247Y-103706753D01*
X131595246Y-103706755D01*
X131572175Y-103742555D01*
X131506398Y-103844620D01*
X131503987Y-103851243D01*
X131503986Y-103851246D01*
X131450300Y-103998747D01*
X131450299Y-103998752D01*
X131447890Y-104005370D01*
X131426450Y-104175086D01*
X131443143Y-104345336D01*
X131497140Y-104507656D01*
X131500787Y-104513678D01*
X131500788Y-104513680D01*
X131582106Y-104647954D01*
X131582109Y-104647957D01*
X131585756Y-104653980D01*
X131704589Y-104777034D01*
X131710485Y-104780892D01*
X131844994Y-104868913D01*
X131891043Y-104922950D01*
X131900566Y-104993305D01*
X131870541Y-105057641D01*
X131842023Y-105081662D01*
X131727294Y-105152244D01*
X131727288Y-105152249D01*
X131721288Y-105155940D01*
X131716257Y-105160867D01*
X131716254Y-105160869D01*
X131659446Y-105216500D01*
X131599066Y-105275628D01*
X131595247Y-105281553D01*
X131595246Y-105281555D01*
X131572175Y-105317355D01*
X131506398Y-105419420D01*
X131503987Y-105426043D01*
X131503986Y-105426046D01*
X131450300Y-105573547D01*
X131450299Y-105573552D01*
X131447890Y-105580170D01*
X131426450Y-105749886D01*
X131443143Y-105920136D01*
X131497140Y-106082456D01*
X131500787Y-106088478D01*
X131500788Y-106088480D01*
X131582106Y-106222754D01*
X131582109Y-106222757D01*
X131585756Y-106228780D01*
X131704589Y-106351834D01*
X131734414Y-106371351D01*
X131844994Y-106443713D01*
X131891043Y-106497750D01*
X131900566Y-106568105D01*
X131870541Y-106632441D01*
X131842023Y-106656462D01*
X131727294Y-106727044D01*
X131727288Y-106727049D01*
X131721288Y-106730740D01*
X131716257Y-106735667D01*
X131716254Y-106735669D01*
X131706309Y-106745408D01*
X131599066Y-106850428D01*
X131595247Y-106856353D01*
X131595246Y-106856355D01*
X131567929Y-106898743D01*
X131506398Y-106994220D01*
X131503987Y-107000843D01*
X131503986Y-107000846D01*
X131450300Y-107148347D01*
X131450299Y-107148352D01*
X131447890Y-107154970D01*
X131426450Y-107324686D01*
X112799243Y-107324686D01*
X112830435Y-107281277D01*
X112833453Y-107277077D01*
X112847347Y-107248966D01*
X112930136Y-107081453D01*
X112930137Y-107081451D01*
X112932430Y-107076811D01*
X112997370Y-106863069D01*
X113026529Y-106641590D01*
X113028156Y-106575000D01*
X113009852Y-106352361D01*
X112955431Y-106135702D01*
X112866354Y-105930840D01*
X112770983Y-105783419D01*
X112747822Y-105747617D01*
X112747820Y-105747614D01*
X112745014Y-105743277D01*
X112594670Y-105578051D01*
X112590619Y-105574852D01*
X112590615Y-105574848D01*
X112423414Y-105442800D01*
X112423410Y-105442798D01*
X112419359Y-105439598D01*
X112394810Y-105426046D01*
X112367136Y-105410769D01*
X112223789Y-105331638D01*
X112218920Y-105329914D01*
X112218916Y-105329912D01*
X112018087Y-105258795D01*
X112018083Y-105258794D01*
X112013212Y-105257069D01*
X112008119Y-105256162D01*
X112008116Y-105256161D01*
X111798373Y-105218800D01*
X111798367Y-105218799D01*
X111793284Y-105217894D01*
X111719452Y-105216992D01*
X111575081Y-105215228D01*
X111575079Y-105215228D01*
X111569911Y-105215165D01*
X111349091Y-105248955D01*
X111136756Y-105318357D01*
X111106443Y-105334137D01*
X110946783Y-105417251D01*
X110938607Y-105421507D01*
X110934474Y-105424610D01*
X110934471Y-105424612D01*
X110764100Y-105552530D01*
X110759965Y-105555635D01*
X110703537Y-105614684D01*
X110679283Y-105640064D01*
X110617759Y-105675494D01*
X110546846Y-105672037D01*
X110489060Y-105630791D01*
X110470207Y-105597243D01*
X110428767Y-105486703D01*
X110425615Y-105478295D01*
X110338261Y-105361739D01*
X110221705Y-105274385D01*
X110085316Y-105223255D01*
X110023134Y-105216500D01*
X108226866Y-105216500D01*
X108164684Y-105223255D01*
X108028295Y-105274385D01*
X107911739Y-105361739D01*
X107824385Y-105478295D01*
X107773255Y-105614684D01*
X107766500Y-105676866D01*
X107766500Y-105989515D01*
X107746498Y-106057636D01*
X107692842Y-106104129D01*
X107622568Y-106114233D01*
X107557988Y-106084739D01*
X107540657Y-106065856D01*
X107539040Y-106063056D01*
X107411253Y-105921134D01*
X107256752Y-105808882D01*
X107250724Y-105806198D01*
X107250722Y-105806197D01*
X107088319Y-105733891D01*
X107088318Y-105733891D01*
X107082288Y-105731206D01*
X106970949Y-105707540D01*
X106901944Y-105692872D01*
X106901939Y-105692872D01*
X106895487Y-105691500D01*
X106704513Y-105691500D01*
X106698061Y-105692872D01*
X106698056Y-105692872D01*
X106629051Y-105707540D01*
X106517712Y-105731206D01*
X106511682Y-105733891D01*
X106511681Y-105733891D01*
X106349278Y-105806197D01*
X106349276Y-105806198D01*
X106343248Y-105808882D01*
X106188747Y-105921134D01*
X106184326Y-105926044D01*
X106184325Y-105926045D01*
X106127177Y-105989515D01*
X106060960Y-106063056D01*
X105965473Y-106228444D01*
X105906458Y-106410072D01*
X105905768Y-106416633D01*
X105905768Y-106416635D01*
X105889624Y-106570243D01*
X105886496Y-106600000D01*
X97149129Y-106600000D01*
X97128843Y-103400000D01*
X108586496Y-103400000D01*
X108587186Y-103406565D01*
X108597728Y-103506862D01*
X108606458Y-103589928D01*
X108665473Y-103771556D01*
X108760960Y-103936944D01*
X108765378Y-103941851D01*
X108765379Y-103941852D01*
X108838194Y-104022721D01*
X108888747Y-104078866D01*
X108986727Y-104150053D01*
X109026385Y-104178866D01*
X109043248Y-104191118D01*
X109049276Y-104193802D01*
X109049278Y-104193803D01*
X109211681Y-104266109D01*
X109217712Y-104268794D01*
X109302183Y-104286749D01*
X109398056Y-104307128D01*
X109398061Y-104307128D01*
X109404513Y-104308500D01*
X109595487Y-104308500D01*
X109601939Y-104307128D01*
X109601944Y-104307128D01*
X109697817Y-104286749D01*
X109782288Y-104268794D01*
X109788319Y-104266109D01*
X109950722Y-104193803D01*
X109950724Y-104193802D01*
X109956752Y-104191118D01*
X109973616Y-104178866D01*
X110013273Y-104150053D01*
X110111253Y-104078866D01*
X110161806Y-104022721D01*
X110234621Y-103941852D01*
X110234622Y-103941851D01*
X110239040Y-103936944D01*
X110334527Y-103771556D01*
X110393542Y-103589928D01*
X110402273Y-103506862D01*
X110412814Y-103406565D01*
X110413504Y-103400000D01*
X112086496Y-103400000D01*
X112087186Y-103406565D01*
X112097728Y-103506862D01*
X112106458Y-103589928D01*
X112165473Y-103771556D01*
X112260960Y-103936944D01*
X112265378Y-103941851D01*
X112265379Y-103941852D01*
X112338194Y-104022721D01*
X112388747Y-104078866D01*
X112486727Y-104150053D01*
X112526385Y-104178866D01*
X112543248Y-104191118D01*
X112549276Y-104193802D01*
X112549278Y-104193803D01*
X112711681Y-104266109D01*
X112717712Y-104268794D01*
X112802183Y-104286749D01*
X112898056Y-104307128D01*
X112898061Y-104307128D01*
X112904513Y-104308500D01*
X113095487Y-104308500D01*
X113101939Y-104307128D01*
X113101944Y-104307128D01*
X113197817Y-104286749D01*
X113282288Y-104268794D01*
X113288319Y-104266109D01*
X113450722Y-104193803D01*
X113450724Y-104193802D01*
X113456752Y-104191118D01*
X113473616Y-104178866D01*
X113513273Y-104150053D01*
X113611253Y-104078866D01*
X113661806Y-104022721D01*
X113734621Y-103941852D01*
X113734622Y-103941851D01*
X113739040Y-103936944D01*
X113834527Y-103771556D01*
X113893542Y-103589928D01*
X113902273Y-103506862D01*
X113902994Y-103500000D01*
X115186496Y-103500000D01*
X115187186Y-103506565D01*
X115205129Y-103677279D01*
X115206458Y-103689928D01*
X115265473Y-103871556D01*
X115360960Y-104036944D01*
X115365378Y-104041851D01*
X115365379Y-104041852D01*
X115479046Y-104168092D01*
X115488747Y-104178866D01*
X115587843Y-104250864D01*
X115637235Y-104286749D01*
X115643248Y-104291118D01*
X115649276Y-104293802D01*
X115649278Y-104293803D01*
X115765024Y-104345336D01*
X115817712Y-104368794D01*
X115911113Y-104388647D01*
X115998056Y-104407128D01*
X115998061Y-104407128D01*
X116004513Y-104408500D01*
X116195487Y-104408500D01*
X116201939Y-104407128D01*
X116201944Y-104407128D01*
X116288887Y-104388647D01*
X116382288Y-104368794D01*
X116434976Y-104345336D01*
X116550722Y-104293803D01*
X116550724Y-104293802D01*
X116556752Y-104291118D01*
X116562766Y-104286749D01*
X116612157Y-104250864D01*
X116711253Y-104178866D01*
X116720954Y-104168092D01*
X116834621Y-104041852D01*
X116834622Y-104041851D01*
X116839040Y-104036944D01*
X116934527Y-103871556D01*
X116993542Y-103689928D01*
X116994872Y-103677279D01*
X117012814Y-103506565D01*
X117013504Y-103500000D01*
X117007674Y-103444533D01*
X116994232Y-103316635D01*
X116994232Y-103316633D01*
X116993542Y-103310072D01*
X116934527Y-103128444D01*
X116839040Y-102963056D01*
X116805831Y-102926173D01*
X116715675Y-102826045D01*
X116715674Y-102826044D01*
X116711253Y-102821134D01*
X116575922Y-102722810D01*
X116562094Y-102712763D01*
X116562093Y-102712762D01*
X116556752Y-102708882D01*
X116550724Y-102706198D01*
X116550722Y-102706197D01*
X116388319Y-102633891D01*
X116388318Y-102633891D01*
X116382288Y-102631206D01*
X116286643Y-102610876D01*
X116201944Y-102592872D01*
X116201939Y-102592872D01*
X116195487Y-102591500D01*
X116004513Y-102591500D01*
X115998061Y-102592872D01*
X115998056Y-102592872D01*
X115913357Y-102610876D01*
X115817712Y-102631206D01*
X115811682Y-102633891D01*
X115811681Y-102633891D01*
X115649278Y-102706197D01*
X115649276Y-102706198D01*
X115643248Y-102708882D01*
X115637907Y-102712762D01*
X115637906Y-102712763D01*
X115624078Y-102722810D01*
X115488747Y-102821134D01*
X115484326Y-102826044D01*
X115484325Y-102826045D01*
X115394170Y-102926173D01*
X115360960Y-102963056D01*
X115265473Y-103128444D01*
X115206458Y-103310072D01*
X115205768Y-103316633D01*
X115205768Y-103316635D01*
X115192326Y-103444533D01*
X115186496Y-103500000D01*
X113902994Y-103500000D01*
X113912814Y-103406565D01*
X113913504Y-103400000D01*
X113903684Y-103306565D01*
X113894232Y-103216635D01*
X113894232Y-103216633D01*
X113893542Y-103210072D01*
X113834527Y-103028444D01*
X113822047Y-103006827D01*
X113796775Y-102963056D01*
X113739040Y-102863056D01*
X113669389Y-102785700D01*
X113615675Y-102726045D01*
X113615674Y-102726044D01*
X113611253Y-102721134D01*
X113477288Y-102623802D01*
X113462094Y-102612763D01*
X113462093Y-102612762D01*
X113456752Y-102608882D01*
X113450724Y-102606198D01*
X113450722Y-102606197D01*
X113288319Y-102533891D01*
X113288318Y-102533891D01*
X113282288Y-102531206D01*
X113188887Y-102511353D01*
X113101944Y-102492872D01*
X113101939Y-102492872D01*
X113095487Y-102491500D01*
X112904513Y-102491500D01*
X112898061Y-102492872D01*
X112898056Y-102492872D01*
X112811112Y-102511353D01*
X112717712Y-102531206D01*
X112711682Y-102533891D01*
X112711681Y-102533891D01*
X112549278Y-102606197D01*
X112549276Y-102606198D01*
X112543248Y-102608882D01*
X112537907Y-102612762D01*
X112537906Y-102612763D01*
X112522712Y-102623802D01*
X112388747Y-102721134D01*
X112384326Y-102726044D01*
X112384325Y-102726045D01*
X112330612Y-102785700D01*
X112260960Y-102863056D01*
X112203225Y-102963056D01*
X112177954Y-103006827D01*
X112165473Y-103028444D01*
X112106458Y-103210072D01*
X112105768Y-103216633D01*
X112105768Y-103216635D01*
X112096316Y-103306565D01*
X112086496Y-103400000D01*
X110413504Y-103400000D01*
X110403684Y-103306565D01*
X110394232Y-103216635D01*
X110394232Y-103216633D01*
X110393542Y-103210072D01*
X110334527Y-103028444D01*
X110322047Y-103006827D01*
X110296775Y-102963056D01*
X110239040Y-102863056D01*
X110169389Y-102785700D01*
X110115675Y-102726045D01*
X110115674Y-102726044D01*
X110111253Y-102721134D01*
X109977288Y-102623802D01*
X109962094Y-102612763D01*
X109962093Y-102612762D01*
X109956752Y-102608882D01*
X109950724Y-102606198D01*
X109950722Y-102606197D01*
X109788319Y-102533891D01*
X109788318Y-102533891D01*
X109782288Y-102531206D01*
X109688887Y-102511353D01*
X109601944Y-102492872D01*
X109601939Y-102492872D01*
X109595487Y-102491500D01*
X109404513Y-102491500D01*
X109398061Y-102492872D01*
X109398056Y-102492872D01*
X109311112Y-102511353D01*
X109217712Y-102531206D01*
X109211682Y-102533891D01*
X109211681Y-102533891D01*
X109049278Y-102606197D01*
X109049276Y-102606198D01*
X109043248Y-102608882D01*
X109037907Y-102612762D01*
X109037906Y-102612763D01*
X109022712Y-102623802D01*
X108888747Y-102721134D01*
X108884326Y-102726044D01*
X108884325Y-102726045D01*
X108830612Y-102785700D01*
X108760960Y-102863056D01*
X108703225Y-102963056D01*
X108677954Y-103006827D01*
X108665473Y-103028444D01*
X108606458Y-103210072D01*
X108605768Y-103216633D01*
X108605768Y-103216635D01*
X108596316Y-103306565D01*
X108586496Y-103400000D01*
X97128843Y-103400000D01*
X97118700Y-101800000D01*
X128786496Y-101800000D01*
X128787186Y-101806565D01*
X128791090Y-101843705D01*
X128806458Y-101989928D01*
X128865473Y-102171556D01*
X128960960Y-102336944D01*
X128965378Y-102341851D01*
X128965379Y-102341852D01*
X129008667Y-102389928D01*
X129088747Y-102478866D01*
X129243248Y-102591118D01*
X129249276Y-102593802D01*
X129249278Y-102593803D01*
X129404788Y-102663040D01*
X129417712Y-102668794D01*
X129511112Y-102688647D01*
X129598056Y-102707128D01*
X129598061Y-102707128D01*
X129604513Y-102708500D01*
X129795487Y-102708500D01*
X129801939Y-102707128D01*
X129801944Y-102707128D01*
X129888888Y-102688647D01*
X129982288Y-102668794D01*
X129995212Y-102663040D01*
X130150722Y-102593803D01*
X130150724Y-102593802D01*
X130156752Y-102591118D01*
X130311253Y-102478866D01*
X130391333Y-102389928D01*
X130434621Y-102341852D01*
X130434622Y-102341851D01*
X130439040Y-102336944D01*
X130534527Y-102171556D01*
X130593542Y-101989928D01*
X130608911Y-101843705D01*
X130612814Y-101806565D01*
X130613504Y-101800000D01*
X130599111Y-101663056D01*
X130594232Y-101616635D01*
X130594232Y-101616633D01*
X130593542Y-101610072D01*
X130534527Y-101428444D01*
X130439040Y-101263056D01*
X130311253Y-101121134D01*
X130284829Y-101101935D01*
X130241475Y-101045714D01*
X130235399Y-100974978D01*
X130268531Y-100912186D01*
X130284829Y-100898064D01*
X130305909Y-100882749D01*
X130305911Y-100882747D01*
X130311253Y-100878866D01*
X130439040Y-100736944D01*
X130534527Y-100571556D01*
X130593542Y-100389928D01*
X130597137Y-100355729D01*
X130612814Y-100206565D01*
X130613504Y-100200000D01*
X130598559Y-100057805D01*
X130594232Y-100016635D01*
X130594232Y-100016633D01*
X130593542Y-100010072D01*
X130534527Y-99828444D01*
X130439040Y-99663056D01*
X130432500Y-99655792D01*
X130315675Y-99526045D01*
X130315674Y-99526044D01*
X130311253Y-99521134D01*
X130156752Y-99408882D01*
X130150724Y-99406198D01*
X130150722Y-99406197D01*
X129988319Y-99333891D01*
X129988318Y-99333891D01*
X129982288Y-99331206D01*
X129888887Y-99311353D01*
X129801944Y-99292872D01*
X129801939Y-99292872D01*
X129795487Y-99291500D01*
X129604513Y-99291500D01*
X129598061Y-99292872D01*
X129598056Y-99292872D01*
X129511113Y-99311353D01*
X129417712Y-99331206D01*
X129411682Y-99333891D01*
X129411681Y-99333891D01*
X129249278Y-99406197D01*
X129249276Y-99406198D01*
X129243248Y-99408882D01*
X129088747Y-99521134D01*
X129084326Y-99526044D01*
X129084325Y-99526045D01*
X128967501Y-99655792D01*
X128960960Y-99663056D01*
X128865473Y-99828444D01*
X128806458Y-100010072D01*
X128805768Y-100016633D01*
X128805768Y-100016635D01*
X128801441Y-100057805D01*
X128786496Y-100200000D01*
X128787186Y-100206565D01*
X128802864Y-100355729D01*
X128806458Y-100389928D01*
X128865473Y-100571556D01*
X128960960Y-100736944D01*
X129088747Y-100878866D01*
X129094089Y-100882747D01*
X129094091Y-100882749D01*
X129115171Y-100898064D01*
X129158525Y-100954286D01*
X129164601Y-101025022D01*
X129131469Y-101087814D01*
X129115173Y-101101935D01*
X129088747Y-101121134D01*
X128960960Y-101263056D01*
X128865473Y-101428444D01*
X128806458Y-101610072D01*
X128805768Y-101616633D01*
X128805768Y-101616635D01*
X128800889Y-101663056D01*
X128786496Y-101800000D01*
X97118700Y-101800000D01*
X97103442Y-99392966D01*
X103703257Y-99392966D01*
X103733565Y-99527446D01*
X103736645Y-99537275D01*
X103816770Y-99734603D01*
X103821413Y-99743794D01*
X103932694Y-99925388D01*
X103938777Y-99933699D01*
X104078213Y-100094667D01*
X104085580Y-100101883D01*
X104249434Y-100237916D01*
X104257881Y-100243831D01*
X104441756Y-100351279D01*
X104451042Y-100355729D01*
X104650001Y-100431703D01*
X104659899Y-100434579D01*
X104763250Y-100455606D01*
X104777299Y-100454410D01*
X104781000Y-100444065D01*
X104781000Y-100443517D01*
X105289000Y-100443517D01*
X105293064Y-100457359D01*
X105306478Y-100459393D01*
X105313184Y-100458534D01*
X105323262Y-100456392D01*
X105527255Y-100395191D01*
X105536842Y-100391433D01*
X105728095Y-100297739D01*
X105736945Y-100292464D01*
X105910328Y-100168792D01*
X105918193Y-100162145D01*
X106022897Y-100057805D01*
X106085268Y-100023889D01*
X106156075Y-100029077D01*
X106212837Y-100071723D01*
X106229819Y-100102826D01*
X106274385Y-100221705D01*
X106361739Y-100338261D01*
X106478295Y-100425615D01*
X106614684Y-100476745D01*
X106676866Y-100483500D01*
X108473134Y-100483500D01*
X108535316Y-100476745D01*
X108671705Y-100425615D01*
X108788261Y-100338261D01*
X108875615Y-100221705D01*
X108926745Y-100085316D01*
X108933500Y-100023134D01*
X108933500Y-98226866D01*
X108926745Y-98164684D01*
X108875615Y-98028295D01*
X108788261Y-97911739D01*
X108671705Y-97824385D01*
X108606658Y-97800000D01*
X124886496Y-97800000D01*
X124887186Y-97806565D01*
X124897675Y-97906358D01*
X124906458Y-97989928D01*
X124965473Y-98171556D01*
X125060960Y-98336944D01*
X125188747Y-98478866D01*
X125343248Y-98591118D01*
X125349276Y-98593802D01*
X125349278Y-98593803D01*
X125511681Y-98666109D01*
X125517712Y-98668794D01*
X125611112Y-98688647D01*
X125698056Y-98707128D01*
X125698061Y-98707128D01*
X125704513Y-98708500D01*
X125895487Y-98708500D01*
X125901939Y-98707128D01*
X125901944Y-98707128D01*
X125988887Y-98688647D01*
X126082288Y-98668794D01*
X126088319Y-98666109D01*
X126250722Y-98593803D01*
X126250724Y-98593802D01*
X126256752Y-98591118D01*
X126411253Y-98478866D01*
X126539040Y-98336944D01*
X126634527Y-98171556D01*
X126693542Y-97989928D01*
X126702326Y-97906358D01*
X126712814Y-97806565D01*
X126713504Y-97800000D01*
X126693542Y-97610072D01*
X126634527Y-97428444D01*
X126539040Y-97263056D01*
X126442168Y-97155469D01*
X156627095Y-97155469D01*
X156627392Y-97160622D01*
X156627392Y-97160625D01*
X156633015Y-97258148D01*
X156640427Y-97386697D01*
X156641564Y-97391743D01*
X156641565Y-97391749D01*
X156673741Y-97534523D01*
X156691346Y-97612642D01*
X156693288Y-97617424D01*
X156693289Y-97617428D01*
X156765569Y-97795432D01*
X156778484Y-97827237D01*
X156899501Y-98024719D01*
X157051147Y-98199784D01*
X157229349Y-98347730D01*
X157429322Y-98464584D01*
X157434147Y-98466426D01*
X157434148Y-98466427D01*
X157476891Y-98482749D01*
X157645694Y-98547209D01*
X157650760Y-98548240D01*
X157650761Y-98548240D01*
X157703846Y-98559040D01*
X157872656Y-98593385D01*
X158003324Y-98598176D01*
X158098949Y-98601683D01*
X158098953Y-98601683D01*
X158104113Y-98601872D01*
X158109233Y-98601216D01*
X158109235Y-98601216D01*
X158188060Y-98591118D01*
X158333847Y-98572442D01*
X158338795Y-98570957D01*
X158338802Y-98570956D01*
X158550747Y-98507369D01*
X158555690Y-98505886D01*
X158610845Y-98478866D01*
X158759049Y-98406262D01*
X158759052Y-98406260D01*
X158763684Y-98403991D01*
X158952243Y-98269494D01*
X159116303Y-98106005D01*
X159251458Y-97917917D01*
X159254512Y-97911739D01*
X159351784Y-97714922D01*
X159351785Y-97714920D01*
X159354078Y-97710280D01*
X159421408Y-97488671D01*
X159451640Y-97259041D01*
X159453327Y-97190000D01*
X159450488Y-97155469D01*
X164887095Y-97155469D01*
X164887392Y-97160622D01*
X164887392Y-97160625D01*
X164893015Y-97258148D01*
X164900427Y-97386697D01*
X164901564Y-97391743D01*
X164901565Y-97391749D01*
X164933741Y-97534523D01*
X164951346Y-97612642D01*
X164953288Y-97617424D01*
X164953289Y-97617428D01*
X165025569Y-97795432D01*
X165038484Y-97827237D01*
X165159501Y-98024719D01*
X165311147Y-98199784D01*
X165489349Y-98347730D01*
X165689322Y-98464584D01*
X165694147Y-98466426D01*
X165694148Y-98466427D01*
X165736891Y-98482749D01*
X165905694Y-98547209D01*
X165910760Y-98548240D01*
X165910761Y-98548240D01*
X165963846Y-98559040D01*
X166132656Y-98593385D01*
X166263324Y-98598176D01*
X166358949Y-98601683D01*
X166358953Y-98601683D01*
X166364113Y-98601872D01*
X166369233Y-98601216D01*
X166369235Y-98601216D01*
X166448060Y-98591118D01*
X166593847Y-98572442D01*
X166598795Y-98570957D01*
X166598802Y-98570956D01*
X166810747Y-98507369D01*
X166815690Y-98505886D01*
X166870845Y-98478866D01*
X167019049Y-98406262D01*
X167019052Y-98406260D01*
X167023684Y-98403991D01*
X167212243Y-98269494D01*
X167376303Y-98106005D01*
X167511458Y-97917917D01*
X167514512Y-97911739D01*
X167611784Y-97714922D01*
X167611785Y-97714920D01*
X167614078Y-97710280D01*
X167681408Y-97488671D01*
X167711640Y-97259041D01*
X167713327Y-97190000D01*
X167707032Y-97113434D01*
X167694773Y-96964318D01*
X167694772Y-96964312D01*
X167694349Y-96959167D01*
X167656160Y-96807128D01*
X167639184Y-96739544D01*
X167639183Y-96739540D01*
X167637925Y-96734533D01*
X167635866Y-96729797D01*
X167547630Y-96526868D01*
X167547628Y-96526865D01*
X167545570Y-96522131D01*
X167419764Y-96327665D01*
X167263887Y-96156358D01*
X167259836Y-96153159D01*
X167259832Y-96153155D01*
X167086177Y-96016011D01*
X167086172Y-96016008D01*
X167082123Y-96012810D01*
X167077607Y-96010317D01*
X167077604Y-96010315D01*
X166883879Y-95903373D01*
X166883875Y-95903371D01*
X166879355Y-95900876D01*
X166874486Y-95899152D01*
X166874482Y-95899150D01*
X166665903Y-95825288D01*
X166665899Y-95825287D01*
X166661028Y-95823562D01*
X166655935Y-95822655D01*
X166655932Y-95822654D01*
X166438095Y-95783851D01*
X166438089Y-95783850D01*
X166433006Y-95782945D01*
X166360096Y-95782054D01*
X166206581Y-95780179D01*
X166206579Y-95780179D01*
X166201411Y-95780116D01*
X165972464Y-95815150D01*
X165752314Y-95887106D01*
X165747726Y-95889494D01*
X165747722Y-95889496D01*
X165721065Y-95903373D01*
X165546872Y-95994052D01*
X165542739Y-95997155D01*
X165542736Y-95997157D01*
X165365790Y-96130012D01*
X165361655Y-96133117D01*
X165201639Y-96300564D01*
X165198725Y-96304836D01*
X165198724Y-96304837D01*
X165183152Y-96327665D01*
X165071119Y-96491899D01*
X164973602Y-96701981D01*
X164911707Y-96925169D01*
X164887095Y-97155469D01*
X159450488Y-97155469D01*
X159447032Y-97113434D01*
X159434773Y-96964318D01*
X159434772Y-96964312D01*
X159434349Y-96959167D01*
X159396160Y-96807128D01*
X159379184Y-96739544D01*
X159379183Y-96739540D01*
X159377925Y-96734533D01*
X159375866Y-96729797D01*
X159287630Y-96526868D01*
X159287628Y-96526865D01*
X159285570Y-96522131D01*
X159159764Y-96327665D01*
X159003887Y-96156358D01*
X158999836Y-96153159D01*
X158999832Y-96153155D01*
X158826177Y-96016011D01*
X158826172Y-96016008D01*
X158822123Y-96012810D01*
X158817607Y-96010317D01*
X158817604Y-96010315D01*
X158623879Y-95903373D01*
X158623875Y-95903371D01*
X158619355Y-95900876D01*
X158614486Y-95899152D01*
X158614482Y-95899150D01*
X158405903Y-95825288D01*
X158405899Y-95825287D01*
X158401028Y-95823562D01*
X158395935Y-95822655D01*
X158395932Y-95822654D01*
X158178095Y-95783851D01*
X158178089Y-95783850D01*
X158173006Y-95782945D01*
X158100096Y-95782054D01*
X157946581Y-95780179D01*
X157946579Y-95780179D01*
X157941411Y-95780116D01*
X157712464Y-95815150D01*
X157492314Y-95887106D01*
X157487726Y-95889494D01*
X157487722Y-95889496D01*
X157461065Y-95903373D01*
X157286872Y-95994052D01*
X157282739Y-95997155D01*
X157282736Y-95997157D01*
X157105790Y-96130012D01*
X157101655Y-96133117D01*
X156941639Y-96300564D01*
X156938725Y-96304836D01*
X156938724Y-96304837D01*
X156923152Y-96327665D01*
X156811119Y-96491899D01*
X156713602Y-96701981D01*
X156651707Y-96925169D01*
X156627095Y-97155469D01*
X126442168Y-97155469D01*
X126411253Y-97121134D01*
X126256752Y-97008882D01*
X126250724Y-97006198D01*
X126250722Y-97006197D01*
X126088319Y-96933891D01*
X126088318Y-96933891D01*
X126082288Y-96931206D01*
X125988887Y-96911353D01*
X125901944Y-96892872D01*
X125901939Y-96892872D01*
X125895487Y-96891500D01*
X125704513Y-96891500D01*
X125698061Y-96892872D01*
X125698056Y-96892872D01*
X125611112Y-96911353D01*
X125517712Y-96931206D01*
X125511682Y-96933891D01*
X125511681Y-96933891D01*
X125349278Y-97006197D01*
X125349276Y-97006198D01*
X125343248Y-97008882D01*
X125188747Y-97121134D01*
X125060960Y-97263056D01*
X124965473Y-97428444D01*
X124906458Y-97610072D01*
X124886496Y-97800000D01*
X108606658Y-97800000D01*
X108535316Y-97773255D01*
X108473134Y-97766500D01*
X106676866Y-97766500D01*
X106614684Y-97773255D01*
X106478295Y-97824385D01*
X106361739Y-97911739D01*
X106274385Y-98028295D01*
X106271233Y-98036703D01*
X106271232Y-98036705D01*
X106229722Y-98147433D01*
X106187081Y-98204198D01*
X106120519Y-98228898D01*
X106051170Y-98213691D01*
X106018546Y-98188004D01*
X105967799Y-98132234D01*
X105960273Y-98125215D01*
X105793139Y-97993222D01*
X105784552Y-97987517D01*
X105598117Y-97884599D01*
X105588705Y-97880369D01*
X105387959Y-97809280D01*
X105377988Y-97806646D01*
X105306837Y-97793972D01*
X105293540Y-97795432D01*
X105289000Y-97809989D01*
X105289000Y-100443517D01*
X104781000Y-100443517D01*
X104781000Y-99397115D01*
X104776525Y-99381876D01*
X104775135Y-99380671D01*
X104767452Y-99379000D01*
X103718225Y-99379000D01*
X103704694Y-99382973D01*
X103703257Y-99392966D01*
X97103442Y-99392966D01*
X97100058Y-98859183D01*
X103699389Y-98859183D01*
X103700912Y-98867607D01*
X103713292Y-98871000D01*
X104762885Y-98871000D01*
X104778124Y-98866525D01*
X104779329Y-98865135D01*
X104781000Y-98857452D01*
X104781000Y-97808102D01*
X104777082Y-97794758D01*
X104762806Y-97792771D01*
X104724324Y-97798660D01*
X104714288Y-97801051D01*
X104511868Y-97867212D01*
X104502359Y-97871209D01*
X104313463Y-97969542D01*
X104304738Y-97975036D01*
X104134433Y-98102905D01*
X104126726Y-98109748D01*
X103979590Y-98263717D01*
X103973104Y-98271727D01*
X103853098Y-98447649D01*
X103848000Y-98456623D01*
X103758338Y-98649783D01*
X103754775Y-98659470D01*
X103699389Y-98859183D01*
X97100058Y-98859183D01*
X97081299Y-95900000D01*
X126886496Y-95900000D01*
X126906458Y-96089928D01*
X126965473Y-96271556D01*
X127060960Y-96436944D01*
X127065378Y-96441851D01*
X127065379Y-96441852D01*
X127141928Y-96526868D01*
X127188747Y-96578866D01*
X127343248Y-96691118D01*
X127349276Y-96693802D01*
X127349278Y-96693803D01*
X127440760Y-96734533D01*
X127517712Y-96768794D01*
X127611112Y-96788647D01*
X127698056Y-96807128D01*
X127698061Y-96807128D01*
X127704513Y-96808500D01*
X127895487Y-96808500D01*
X127901939Y-96807128D01*
X127901944Y-96807128D01*
X127988887Y-96788647D01*
X128082288Y-96768794D01*
X128159240Y-96734533D01*
X128250722Y-96693803D01*
X128250724Y-96693802D01*
X128256752Y-96691118D01*
X128411253Y-96578866D01*
X128458072Y-96526868D01*
X128534621Y-96441852D01*
X128534622Y-96441851D01*
X128539040Y-96436944D01*
X128634527Y-96271556D01*
X128693542Y-96089928D01*
X128713504Y-95900000D01*
X128704504Y-95814368D01*
X128694232Y-95716635D01*
X128694232Y-95716633D01*
X128693542Y-95710072D01*
X128634527Y-95528444D01*
X128539040Y-95363056D01*
X128411253Y-95221134D01*
X128256752Y-95108882D01*
X128250724Y-95106198D01*
X128250722Y-95106197D01*
X128088319Y-95033891D01*
X128088318Y-95033891D01*
X128082288Y-95031206D01*
X127988888Y-95011353D01*
X127901944Y-94992872D01*
X127901939Y-94992872D01*
X127895487Y-94991500D01*
X127704513Y-94991500D01*
X127698061Y-94992872D01*
X127698056Y-94992872D01*
X127611112Y-95011353D01*
X127517712Y-95031206D01*
X127511682Y-95033891D01*
X127511681Y-95033891D01*
X127349278Y-95106197D01*
X127349276Y-95106198D01*
X127343248Y-95108882D01*
X127188747Y-95221134D01*
X127060960Y-95363056D01*
X126965473Y-95528444D01*
X126906458Y-95710072D01*
X126905768Y-95716633D01*
X126905768Y-95716635D01*
X126895496Y-95814368D01*
X126886496Y-95900000D01*
X97081299Y-95900000D01*
X97068621Y-93900000D01*
X129686496Y-93900000D01*
X129706458Y-94089928D01*
X129765473Y-94271556D01*
X129860960Y-94436944D01*
X129988747Y-94578866D01*
X130143248Y-94691118D01*
X130149276Y-94693802D01*
X130149278Y-94693803D01*
X130311681Y-94766109D01*
X130317712Y-94768794D01*
X130411112Y-94788647D01*
X130498056Y-94807128D01*
X130498061Y-94807128D01*
X130504513Y-94808500D01*
X130695487Y-94808500D01*
X130701939Y-94807128D01*
X130701944Y-94807128D01*
X130788888Y-94788647D01*
X130882288Y-94768794D01*
X130888319Y-94766109D01*
X131050722Y-94693803D01*
X131050724Y-94693802D01*
X131056752Y-94691118D01*
X131211253Y-94578866D01*
X131339040Y-94436944D01*
X131434527Y-94271556D01*
X131493542Y-94089928D01*
X131513504Y-93900000D01*
X131493542Y-93710072D01*
X131434527Y-93528444D01*
X131339040Y-93363056D01*
X131211253Y-93221134D01*
X131056752Y-93108882D01*
X131050724Y-93106198D01*
X131050722Y-93106197D01*
X130888319Y-93033891D01*
X130888318Y-93033891D01*
X130882288Y-93031206D01*
X130788888Y-93011353D01*
X130701944Y-92992872D01*
X130701939Y-92992872D01*
X130695487Y-92991500D01*
X130504513Y-92991500D01*
X130498061Y-92992872D01*
X130498056Y-92992872D01*
X130411112Y-93011353D01*
X130317712Y-93031206D01*
X130311682Y-93033891D01*
X130311681Y-93033891D01*
X130149278Y-93106197D01*
X130149276Y-93106198D01*
X130143248Y-93108882D01*
X129988747Y-93221134D01*
X129860960Y-93363056D01*
X129765473Y-93528444D01*
X129706458Y-93710072D01*
X129686496Y-93900000D01*
X97068621Y-93900000D01*
X97048748Y-90764993D01*
X132632160Y-90764993D01*
X132637887Y-90772643D01*
X132809042Y-90877528D01*
X132817837Y-90882010D01*
X133027988Y-90969057D01*
X133037373Y-90972106D01*
X133258554Y-91025208D01*
X133268301Y-91026751D01*
X133495070Y-91044598D01*
X133504930Y-91044598D01*
X133731699Y-91026751D01*
X133741446Y-91025208D01*
X133962627Y-90972106D01*
X133972012Y-90969057D01*
X134182163Y-90882010D01*
X134190958Y-90877528D01*
X134211413Y-90864993D01*
X143332160Y-90864993D01*
X143337887Y-90872643D01*
X143509042Y-90977528D01*
X143517837Y-90982010D01*
X143727988Y-91069057D01*
X143737373Y-91072106D01*
X143958554Y-91125208D01*
X143968301Y-91126751D01*
X144195070Y-91144598D01*
X144204930Y-91144598D01*
X144431699Y-91126751D01*
X144441446Y-91125208D01*
X144662627Y-91072106D01*
X144672012Y-91069057D01*
X144882163Y-90982010D01*
X144890958Y-90977528D01*
X145058445Y-90874891D01*
X145067907Y-90864433D01*
X145064124Y-90855657D01*
X144212812Y-90004345D01*
X144198868Y-89996731D01*
X144197035Y-89996862D01*
X144190420Y-90001113D01*
X143338920Y-90852613D01*
X143332160Y-90864993D01*
X134211413Y-90864993D01*
X134358445Y-90774891D01*
X134367907Y-90764433D01*
X134364124Y-90755657D01*
X133512812Y-89904345D01*
X133498868Y-89896731D01*
X133497035Y-89896862D01*
X133490420Y-89901113D01*
X132638920Y-90752613D01*
X132632160Y-90764993D01*
X97048748Y-90764993D01*
X97040965Y-89537253D01*
X131987725Y-89537253D01*
X132005572Y-89764022D01*
X132007115Y-89773769D01*
X132060217Y-89994950D01*
X132063266Y-90004335D01*
X132150313Y-90214486D01*
X132154795Y-90223281D01*
X132257432Y-90390768D01*
X132267890Y-90400230D01*
X132276666Y-90396447D01*
X133127978Y-89545135D01*
X133134356Y-89533455D01*
X133864408Y-89533455D01*
X133864539Y-89535288D01*
X133868790Y-89541903D01*
X134720290Y-90393403D01*
X134732670Y-90400163D01*
X134740320Y-90394436D01*
X134845205Y-90223281D01*
X134849687Y-90214486D01*
X134936734Y-90004335D01*
X134939783Y-89994950D01*
X134992885Y-89773769D01*
X134994428Y-89764022D01*
X135004405Y-89637253D01*
X142687725Y-89637253D01*
X142705572Y-89864022D01*
X142707115Y-89873769D01*
X142760217Y-90094950D01*
X142763266Y-90104335D01*
X142850313Y-90314486D01*
X142854795Y-90323281D01*
X142957432Y-90490768D01*
X142967890Y-90500230D01*
X142976666Y-90496447D01*
X143827978Y-89645135D01*
X143834356Y-89633455D01*
X144564408Y-89633455D01*
X144564539Y-89635288D01*
X144568790Y-89641903D01*
X145420290Y-90493403D01*
X145432670Y-90500163D01*
X145440320Y-90494436D01*
X145545205Y-90323281D01*
X145549687Y-90314486D01*
X145636734Y-90104335D01*
X145639783Y-90094950D01*
X145692885Y-89873769D01*
X145694428Y-89864022D01*
X145712275Y-89637253D01*
X145712275Y-89627393D01*
X145694428Y-89400624D01*
X145692885Y-89390877D01*
X145639783Y-89169696D01*
X145636734Y-89160311D01*
X145549687Y-88950160D01*
X145545205Y-88941365D01*
X145442568Y-88773878D01*
X145432110Y-88764416D01*
X145423334Y-88768199D01*
X144572022Y-89619511D01*
X144564408Y-89633455D01*
X143834356Y-89633455D01*
X143835592Y-89631191D01*
X143835461Y-89629358D01*
X143831210Y-89622743D01*
X142979710Y-88771243D01*
X142967330Y-88764483D01*
X142959680Y-88770210D01*
X142854795Y-88941365D01*
X142850313Y-88950160D01*
X142763266Y-89160311D01*
X142760217Y-89169696D01*
X142707115Y-89390877D01*
X142705572Y-89400624D01*
X142687725Y-89627393D01*
X142687725Y-89637253D01*
X135004405Y-89637253D01*
X135012275Y-89537253D01*
X135012275Y-89527393D01*
X134994428Y-89300624D01*
X134992885Y-89290877D01*
X134939783Y-89069696D01*
X134936734Y-89060311D01*
X134849687Y-88850160D01*
X134845205Y-88841365D01*
X134742568Y-88673878D01*
X134732110Y-88664416D01*
X134723334Y-88668199D01*
X133872022Y-89519511D01*
X133864408Y-89533455D01*
X133134356Y-89533455D01*
X133135592Y-89531191D01*
X133135461Y-89529358D01*
X133131210Y-89522743D01*
X132279710Y-88671243D01*
X132267330Y-88664483D01*
X132259680Y-88670210D01*
X132154795Y-88841365D01*
X132150313Y-88850160D01*
X132063266Y-89060311D01*
X132060217Y-89069696D01*
X132007115Y-89290877D01*
X132005572Y-89300624D01*
X131987725Y-89527393D01*
X131987725Y-89537253D01*
X97040965Y-89537253D01*
X97033123Y-88300213D01*
X132632093Y-88300213D01*
X132635876Y-88308989D01*
X133487188Y-89160301D01*
X133501132Y-89167915D01*
X133502965Y-89167784D01*
X133509580Y-89163533D01*
X134272900Y-88400213D01*
X143332093Y-88400213D01*
X143335876Y-88408989D01*
X144187188Y-89260301D01*
X144201132Y-89267915D01*
X144202965Y-89267784D01*
X144209580Y-89263533D01*
X145061080Y-88412033D01*
X145067840Y-88399653D01*
X145062113Y-88392003D01*
X144890958Y-88287118D01*
X144882163Y-88282636D01*
X144672012Y-88195589D01*
X144662627Y-88192540D01*
X144441446Y-88139438D01*
X144431699Y-88137895D01*
X144204930Y-88120048D01*
X144195070Y-88120048D01*
X143968301Y-88137895D01*
X143958554Y-88139438D01*
X143737373Y-88192540D01*
X143727988Y-88195589D01*
X143517837Y-88282636D01*
X143509042Y-88287118D01*
X143341555Y-88389755D01*
X143332093Y-88400213D01*
X134272900Y-88400213D01*
X134361080Y-88312033D01*
X134367840Y-88299653D01*
X134362113Y-88292003D01*
X134190958Y-88187118D01*
X134182163Y-88182636D01*
X133972012Y-88095589D01*
X133962627Y-88092540D01*
X133741446Y-88039438D01*
X133731699Y-88037895D01*
X133504930Y-88020048D01*
X133495070Y-88020048D01*
X133268301Y-88037895D01*
X133258554Y-88039438D01*
X133037373Y-88092540D01*
X133027988Y-88095589D01*
X132817837Y-88182636D01*
X132809042Y-88187118D01*
X132641555Y-88289755D01*
X132632093Y-88300213D01*
X97033123Y-88300213D01*
X97015882Y-85580457D01*
X131991500Y-85580457D01*
X131998255Y-85642639D01*
X132049385Y-85779028D01*
X132136739Y-85895584D01*
X132253295Y-85982938D01*
X132389684Y-86034068D01*
X132451866Y-86040823D01*
X134548134Y-86040823D01*
X134610316Y-86034068D01*
X134746705Y-85982938D01*
X134863261Y-85895584D01*
X134950615Y-85779028D01*
X135001745Y-85642639D01*
X135008500Y-85580457D01*
X135008500Y-85300000D01*
X136086496Y-85300000D01*
X136106458Y-85489928D01*
X136165473Y-85671556D01*
X136260960Y-85836944D01*
X136265378Y-85841851D01*
X136265379Y-85841852D01*
X136318605Y-85900965D01*
X136388747Y-85978866D01*
X136419164Y-86000965D01*
X136536328Y-86086090D01*
X136543248Y-86091118D01*
X136549276Y-86093802D01*
X136549278Y-86093803D01*
X136711681Y-86166109D01*
X136717712Y-86168794D01*
X136811112Y-86188647D01*
X136898056Y-86207128D01*
X136898061Y-86207128D01*
X136904513Y-86208500D01*
X137095487Y-86208500D01*
X137101939Y-86207128D01*
X137101944Y-86207128D01*
X137188887Y-86188647D01*
X137282288Y-86168794D01*
X137288319Y-86166109D01*
X137450722Y-86093803D01*
X137450724Y-86093802D01*
X137456752Y-86091118D01*
X137463673Y-86086090D01*
X137580836Y-86000965D01*
X137611253Y-85978866D01*
X137681395Y-85900965D01*
X137734621Y-85841852D01*
X137734622Y-85841851D01*
X137739040Y-85836944D01*
X137834527Y-85671556D01*
X137893542Y-85489928D01*
X137913504Y-85300000D01*
X139786496Y-85300000D01*
X139806458Y-85489928D01*
X139865473Y-85671556D01*
X139960960Y-85836944D01*
X139965378Y-85841851D01*
X139965379Y-85841852D01*
X140018605Y-85900965D01*
X140088747Y-85978866D01*
X140119164Y-86000965D01*
X140236328Y-86086090D01*
X140243248Y-86091118D01*
X140249276Y-86093802D01*
X140249278Y-86093803D01*
X140411681Y-86166109D01*
X140417712Y-86168794D01*
X140511112Y-86188647D01*
X140598056Y-86207128D01*
X140598061Y-86207128D01*
X140604513Y-86208500D01*
X140795487Y-86208500D01*
X140801939Y-86207128D01*
X140801944Y-86207128D01*
X140888887Y-86188647D01*
X140982288Y-86168794D01*
X140988319Y-86166109D01*
X141150722Y-86093803D01*
X141150724Y-86093802D01*
X141156752Y-86091118D01*
X141163673Y-86086090D01*
X141280836Y-86000965D01*
X141311253Y-85978866D01*
X141381395Y-85900965D01*
X141434621Y-85841852D01*
X141434622Y-85841851D01*
X141439040Y-85836944D01*
X141529388Y-85680457D01*
X142691500Y-85680457D01*
X142698255Y-85742639D01*
X142749385Y-85879028D01*
X142836739Y-85995584D01*
X142953295Y-86082938D01*
X143089684Y-86134068D01*
X143151866Y-86140823D01*
X145248134Y-86140823D01*
X145310316Y-86134068D01*
X145446705Y-86082938D01*
X145563261Y-85995584D01*
X145650615Y-85879028D01*
X145701745Y-85742639D01*
X145708500Y-85680457D01*
X145708500Y-83584189D01*
X145701745Y-83522007D01*
X145650615Y-83385618D01*
X145563261Y-83269062D01*
X145446705Y-83181708D01*
X145310316Y-83130578D01*
X145248134Y-83123823D01*
X143151866Y-83123823D01*
X143089684Y-83130578D01*
X142953295Y-83181708D01*
X142836739Y-83269062D01*
X142749385Y-83385618D01*
X142698255Y-83522007D01*
X142691500Y-83584189D01*
X142691500Y-85680457D01*
X141529388Y-85680457D01*
X141534527Y-85671556D01*
X141593542Y-85489928D01*
X141613504Y-85300000D01*
X141593542Y-85110072D01*
X141534527Y-84928444D01*
X141439040Y-84763056D01*
X141311253Y-84621134D01*
X141156752Y-84508882D01*
X141150724Y-84506198D01*
X141150722Y-84506197D01*
X140988319Y-84433891D01*
X140988318Y-84433891D01*
X140982288Y-84431206D01*
X140888887Y-84411353D01*
X140801944Y-84392872D01*
X140801939Y-84392872D01*
X140795487Y-84391500D01*
X140604513Y-84391500D01*
X140598061Y-84392872D01*
X140598056Y-84392872D01*
X140511113Y-84411353D01*
X140417712Y-84431206D01*
X140411682Y-84433891D01*
X140411681Y-84433891D01*
X140249278Y-84506197D01*
X140249276Y-84506198D01*
X140243248Y-84508882D01*
X140088747Y-84621134D01*
X139960960Y-84763056D01*
X139865473Y-84928444D01*
X139806458Y-85110072D01*
X139786496Y-85300000D01*
X137913504Y-85300000D01*
X137893542Y-85110072D01*
X137834527Y-84928444D01*
X137739040Y-84763056D01*
X137611253Y-84621134D01*
X137456752Y-84508882D01*
X137450724Y-84506198D01*
X137450722Y-84506197D01*
X137288319Y-84433891D01*
X137288318Y-84433891D01*
X137282288Y-84431206D01*
X137188887Y-84411353D01*
X137101944Y-84392872D01*
X137101939Y-84392872D01*
X137095487Y-84391500D01*
X136904513Y-84391500D01*
X136898061Y-84392872D01*
X136898056Y-84392872D01*
X136811113Y-84411353D01*
X136717712Y-84431206D01*
X136711682Y-84433891D01*
X136711681Y-84433891D01*
X136549278Y-84506197D01*
X136549276Y-84506198D01*
X136543248Y-84508882D01*
X136388747Y-84621134D01*
X136260960Y-84763056D01*
X136165473Y-84928444D01*
X136106458Y-85110072D01*
X136086496Y-85300000D01*
X135008500Y-85300000D01*
X135008500Y-83484189D01*
X135001745Y-83422007D01*
X134950615Y-83285618D01*
X134863261Y-83169062D01*
X134746705Y-83081708D01*
X134610316Y-83030578D01*
X134548134Y-83023823D01*
X132451866Y-83023823D01*
X132389684Y-83030578D01*
X132253295Y-83081708D01*
X132136739Y-83169062D01*
X132049385Y-83285618D01*
X131998255Y-83422007D01*
X131991500Y-83484189D01*
X131991500Y-85580457D01*
X97015882Y-85580457D01*
X97008003Y-84337473D01*
X97008000Y-84336674D01*
X97008000Y-82500000D01*
X136086496Y-82500000D01*
X136106458Y-82689928D01*
X136165473Y-82871556D01*
X136260960Y-83036944D01*
X136265378Y-83041851D01*
X136265379Y-83041852D01*
X136306115Y-83087094D01*
X136388747Y-83178866D01*
X136543248Y-83291118D01*
X136549276Y-83293802D01*
X136549278Y-83293803D01*
X136711681Y-83366109D01*
X136717712Y-83368794D01*
X136811113Y-83388647D01*
X136898056Y-83407128D01*
X136898061Y-83407128D01*
X136904513Y-83408500D01*
X137095487Y-83408500D01*
X137101939Y-83407128D01*
X137101944Y-83407128D01*
X137188887Y-83388647D01*
X137282288Y-83368794D01*
X137288319Y-83366109D01*
X137450722Y-83293803D01*
X137450724Y-83293802D01*
X137456752Y-83291118D01*
X137611253Y-83178866D01*
X137693885Y-83087094D01*
X137734621Y-83041852D01*
X137734622Y-83041851D01*
X137739040Y-83036944D01*
X137834527Y-82871556D01*
X137893542Y-82689928D01*
X137913504Y-82500000D01*
X139786496Y-82500000D01*
X139806458Y-82689928D01*
X139865473Y-82871556D01*
X139960960Y-83036944D01*
X139965378Y-83041851D01*
X139965379Y-83041852D01*
X140006115Y-83087094D01*
X140088747Y-83178866D01*
X140243248Y-83291118D01*
X140249276Y-83293802D01*
X140249278Y-83293803D01*
X140411681Y-83366109D01*
X140417712Y-83368794D01*
X140511113Y-83388647D01*
X140598056Y-83407128D01*
X140598061Y-83407128D01*
X140604513Y-83408500D01*
X140795487Y-83408500D01*
X140801939Y-83407128D01*
X140801944Y-83407128D01*
X140888887Y-83388647D01*
X140982288Y-83368794D01*
X140988319Y-83366109D01*
X141150722Y-83293803D01*
X141150724Y-83293802D01*
X141156752Y-83291118D01*
X141311253Y-83178866D01*
X141393885Y-83087094D01*
X141434621Y-83041852D01*
X141434622Y-83041851D01*
X141439040Y-83036944D01*
X141534527Y-82871556D01*
X141593542Y-82689928D01*
X141613504Y-82500000D01*
X141593542Y-82310072D01*
X141534527Y-82128444D01*
X141439040Y-81963056D01*
X141311253Y-81821134D01*
X141156752Y-81708882D01*
X141150724Y-81706198D01*
X141150722Y-81706197D01*
X140988319Y-81633891D01*
X140988318Y-81633891D01*
X140982288Y-81631206D01*
X140888888Y-81611353D01*
X140801944Y-81592872D01*
X140801939Y-81592872D01*
X140795487Y-81591500D01*
X140604513Y-81591500D01*
X140598061Y-81592872D01*
X140598056Y-81592872D01*
X140511112Y-81611353D01*
X140417712Y-81631206D01*
X140411682Y-81633891D01*
X140411681Y-81633891D01*
X140249278Y-81706197D01*
X140249276Y-81706198D01*
X140243248Y-81708882D01*
X140088747Y-81821134D01*
X139960960Y-81963056D01*
X139865473Y-82128444D01*
X139806458Y-82310072D01*
X139786496Y-82500000D01*
X137913504Y-82500000D01*
X137893542Y-82310072D01*
X137834527Y-82128444D01*
X137739040Y-81963056D01*
X137611253Y-81821134D01*
X137456752Y-81708882D01*
X137450724Y-81706198D01*
X137450722Y-81706197D01*
X137288319Y-81633891D01*
X137288318Y-81633891D01*
X137282288Y-81631206D01*
X137188888Y-81611353D01*
X137101944Y-81592872D01*
X137101939Y-81592872D01*
X137095487Y-81591500D01*
X136904513Y-81591500D01*
X136898061Y-81592872D01*
X136898056Y-81592872D01*
X136811112Y-81611353D01*
X136717712Y-81631206D01*
X136711682Y-81633891D01*
X136711681Y-81633891D01*
X136549278Y-81706197D01*
X136549276Y-81706198D01*
X136543248Y-81708882D01*
X136388747Y-81821134D01*
X136260960Y-81963056D01*
X136165473Y-82128444D01*
X136106458Y-82310072D01*
X136086496Y-82500000D01*
X97008000Y-82500000D01*
X97008000Y-78100000D01*
X117986496Y-78100000D01*
X118006458Y-78289928D01*
X118065473Y-78471556D01*
X118160960Y-78636944D01*
X118288747Y-78778866D01*
X118443248Y-78891118D01*
X118449276Y-78893802D01*
X118449278Y-78893803D01*
X118611681Y-78966109D01*
X118617712Y-78968794D01*
X118711113Y-78988647D01*
X118798056Y-79007128D01*
X118798061Y-79007128D01*
X118804513Y-79008500D01*
X118995487Y-79008500D01*
X119001939Y-79007128D01*
X119001944Y-79007128D01*
X119088887Y-78988647D01*
X119182288Y-78968794D01*
X119188319Y-78966109D01*
X119350722Y-78893803D01*
X119350724Y-78893802D01*
X119356752Y-78891118D01*
X119511253Y-78778866D01*
X119639040Y-78636944D01*
X119734527Y-78471556D01*
X119793542Y-78289928D01*
X119813504Y-78100000D01*
X119793542Y-77910072D01*
X119734527Y-77728444D01*
X119721413Y-77705729D01*
X119653393Y-77587916D01*
X119639040Y-77563056D01*
X119538940Y-77451883D01*
X119515675Y-77426045D01*
X119515674Y-77426044D01*
X119511253Y-77421134D01*
X119440418Y-77369669D01*
X151517001Y-77369669D01*
X151517371Y-77376490D01*
X151522895Y-77427352D01*
X151526521Y-77442604D01*
X151571676Y-77563054D01*
X151580214Y-77578649D01*
X151656715Y-77680724D01*
X151669276Y-77693285D01*
X151771351Y-77769786D01*
X151786946Y-77778324D01*
X151907394Y-77823478D01*
X151922649Y-77827105D01*
X151973514Y-77832631D01*
X151980328Y-77833000D01*
X152602885Y-77833000D01*
X152618124Y-77828525D01*
X152619329Y-77827135D01*
X152621000Y-77819452D01*
X152621000Y-77814884D01*
X153129000Y-77814884D01*
X153133475Y-77830123D01*
X153134865Y-77831328D01*
X153142548Y-77832999D01*
X153769669Y-77832999D01*
X153776490Y-77832629D01*
X153827352Y-77827105D01*
X153842604Y-77823479D01*
X153963054Y-77778324D01*
X153978649Y-77769786D01*
X154080724Y-77693285D01*
X154093285Y-77680724D01*
X154169786Y-77578649D01*
X154178325Y-77563052D01*
X154219425Y-77453418D01*
X154262066Y-77396653D01*
X154328628Y-77371953D01*
X154397977Y-77387160D01*
X154432645Y-77415150D01*
X154458219Y-77444674D01*
X154465580Y-77451883D01*
X154629434Y-77587916D01*
X154637881Y-77593831D01*
X154821756Y-77701279D01*
X154831042Y-77705729D01*
X155030001Y-77781703D01*
X155039899Y-77784579D01*
X155143250Y-77805606D01*
X155157299Y-77804410D01*
X155161000Y-77794065D01*
X155161000Y-77793517D01*
X155669000Y-77793517D01*
X155673064Y-77807359D01*
X155686478Y-77809393D01*
X155693184Y-77808534D01*
X155703262Y-77806392D01*
X155907255Y-77745191D01*
X155916842Y-77741433D01*
X156108095Y-77647739D01*
X156116945Y-77642464D01*
X156290328Y-77518792D01*
X156298200Y-77512139D01*
X156449052Y-77361812D01*
X156455730Y-77353965D01*
X156583022Y-77176819D01*
X156584147Y-77177627D01*
X156631669Y-77133876D01*
X156701607Y-77121661D01*
X156767046Y-77149197D01*
X156794870Y-77181028D01*
X156852690Y-77275383D01*
X156858777Y-77283699D01*
X156998213Y-77444667D01*
X157005580Y-77451883D01*
X157169434Y-77587916D01*
X157177881Y-77593831D01*
X157361756Y-77701279D01*
X157371042Y-77705729D01*
X157570001Y-77781703D01*
X157579899Y-77784579D01*
X157683250Y-77805606D01*
X157697299Y-77804410D01*
X157701000Y-77794065D01*
X157701000Y-77793517D01*
X158209000Y-77793517D01*
X158213064Y-77807359D01*
X158226478Y-77809393D01*
X158233184Y-77808534D01*
X158243262Y-77806392D01*
X158447255Y-77745191D01*
X158456842Y-77741433D01*
X158648095Y-77647739D01*
X158656945Y-77642464D01*
X158830328Y-77518792D01*
X158838200Y-77512139D01*
X158989052Y-77361812D01*
X158995730Y-77353965D01*
X159120003Y-77181020D01*
X159125313Y-77172183D01*
X159219670Y-76981267D01*
X159223469Y-76971672D01*
X159285377Y-76767910D01*
X159287555Y-76757837D01*
X159288986Y-76746962D01*
X159286775Y-76732778D01*
X159273617Y-76729000D01*
X158227115Y-76729000D01*
X158211876Y-76733475D01*
X158210671Y-76734865D01*
X158209000Y-76742548D01*
X158209000Y-77793517D01*
X157701000Y-77793517D01*
X157701000Y-76747115D01*
X157696525Y-76731876D01*
X157695135Y-76730671D01*
X157687452Y-76729000D01*
X155687115Y-76729000D01*
X155671876Y-76733475D01*
X155670671Y-76734865D01*
X155669000Y-76742548D01*
X155669000Y-77793517D01*
X155161000Y-77793517D01*
X155161000Y-76747115D01*
X155156525Y-76731876D01*
X155155135Y-76730671D01*
X155147452Y-76729000D01*
X153147115Y-76729000D01*
X153131876Y-76733475D01*
X153130671Y-76734865D01*
X153129000Y-76742548D01*
X153129000Y-77814884D01*
X152621000Y-77814884D01*
X152621000Y-76747115D01*
X152616525Y-76731876D01*
X152615135Y-76730671D01*
X152607452Y-76729000D01*
X151535116Y-76729000D01*
X151519877Y-76733475D01*
X151518672Y-76734865D01*
X151517001Y-76742548D01*
X151517001Y-77369669D01*
X119440418Y-77369669D01*
X119356752Y-77308882D01*
X119350724Y-77306198D01*
X119350722Y-77306197D01*
X119188319Y-77233891D01*
X119188318Y-77233891D01*
X119182288Y-77231206D01*
X119144844Y-77223247D01*
X119082371Y-77189518D01*
X119048049Y-77127369D01*
X119052777Y-77056530D01*
X119095053Y-76999492D01*
X119144844Y-76976753D01*
X119182288Y-76968794D01*
X119188319Y-76966109D01*
X119350722Y-76893803D01*
X119350724Y-76893802D01*
X119356752Y-76891118D01*
X119511253Y-76778866D01*
X119539842Y-76747115D01*
X119634621Y-76641852D01*
X119634622Y-76641851D01*
X119639040Y-76636944D01*
X119734527Y-76471556D01*
X119793542Y-76289928D01*
X119802159Y-76207947D01*
X119812814Y-76106565D01*
X119813504Y-76100000D01*
X119793542Y-75910072D01*
X119734527Y-75728444D01*
X119639040Y-75563056D01*
X119602658Y-75522649D01*
X119515675Y-75426045D01*
X119515674Y-75426044D01*
X119511253Y-75421134D01*
X119356752Y-75308882D01*
X119350724Y-75306198D01*
X119350722Y-75306197D01*
X119188319Y-75233891D01*
X119188318Y-75233891D01*
X119182288Y-75231206D01*
X119088887Y-75211353D01*
X119001944Y-75192872D01*
X119001939Y-75192872D01*
X118995487Y-75191500D01*
X118804513Y-75191500D01*
X118798061Y-75192872D01*
X118798056Y-75192872D01*
X118711113Y-75211353D01*
X118617712Y-75231206D01*
X118611682Y-75233891D01*
X118611681Y-75233891D01*
X118449278Y-75306197D01*
X118449276Y-75306198D01*
X118443248Y-75308882D01*
X118288747Y-75421134D01*
X118284326Y-75426044D01*
X118284325Y-75426045D01*
X118197343Y-75522649D01*
X118160960Y-75563056D01*
X118065473Y-75728444D01*
X118006458Y-75910072D01*
X117986496Y-76100000D01*
X117987186Y-76106565D01*
X117997842Y-76207947D01*
X118006458Y-76289928D01*
X118065473Y-76471556D01*
X118160960Y-76636944D01*
X118165378Y-76641851D01*
X118165379Y-76641852D01*
X118260158Y-76747115D01*
X118288747Y-76778866D01*
X118443248Y-76891118D01*
X118449276Y-76893802D01*
X118449278Y-76893803D01*
X118611681Y-76966109D01*
X118617712Y-76968794D01*
X118655156Y-76976753D01*
X118717629Y-77010482D01*
X118751951Y-77072631D01*
X118747223Y-77143470D01*
X118704947Y-77200508D01*
X118655156Y-77223247D01*
X118617712Y-77231206D01*
X118611682Y-77233891D01*
X118611681Y-77233891D01*
X118449278Y-77306197D01*
X118449276Y-77306198D01*
X118443248Y-77308882D01*
X118288747Y-77421134D01*
X118284326Y-77426044D01*
X118284325Y-77426045D01*
X118261061Y-77451883D01*
X118160960Y-77563056D01*
X118146607Y-77587916D01*
X118078588Y-77705729D01*
X118065473Y-77728444D01*
X118006458Y-77910072D01*
X117986496Y-78100000D01*
X97008000Y-78100000D01*
X97008000Y-73700000D01*
X117986496Y-73700000D01*
X118006458Y-73889928D01*
X118065473Y-74071556D01*
X118160960Y-74236944D01*
X118288747Y-74378866D01*
X118443248Y-74491118D01*
X118449276Y-74493802D01*
X118449278Y-74493803D01*
X118611681Y-74566109D01*
X118617712Y-74568794D01*
X118711112Y-74588647D01*
X118798056Y-74607128D01*
X118798061Y-74607128D01*
X118804513Y-74608500D01*
X118995487Y-74608500D01*
X119001939Y-74607128D01*
X119001944Y-74607128D01*
X119088888Y-74588647D01*
X119182288Y-74568794D01*
X119188319Y-74566109D01*
X119350722Y-74493803D01*
X119350724Y-74493802D01*
X119356752Y-74491118D01*
X119511253Y-74378866D01*
X119639040Y-74236944D01*
X119734527Y-74071556D01*
X119789719Y-73901695D01*
X151512251Y-73901695D01*
X151512548Y-73906848D01*
X151512548Y-73906851D01*
X151522045Y-74071556D01*
X151525110Y-74124715D01*
X151526247Y-74129761D01*
X151526248Y-74129767D01*
X151546119Y-74217939D01*
X151574222Y-74342639D01*
X151658266Y-74549616D01*
X151709019Y-74632438D01*
X151772291Y-74735688D01*
X151774987Y-74740088D01*
X151921250Y-74908938D01*
X151925225Y-74912238D01*
X151925231Y-74912244D01*
X151930425Y-74916556D01*
X151970059Y-74975460D01*
X151971555Y-75046441D01*
X151934439Y-75106962D01*
X151894168Y-75131480D01*
X151786946Y-75171676D01*
X151771351Y-75180214D01*
X151669276Y-75256715D01*
X151656715Y-75269276D01*
X151580214Y-75371351D01*
X151571676Y-75386946D01*
X151526522Y-75507394D01*
X151522895Y-75522649D01*
X151517369Y-75573514D01*
X151517000Y-75580328D01*
X151517000Y-76202885D01*
X151521475Y-76218124D01*
X151522865Y-76219329D01*
X151530548Y-76221000D01*
X159273344Y-76221000D01*
X159286875Y-76217027D01*
X159288180Y-76207947D01*
X159246214Y-76040875D01*
X159242894Y-76031124D01*
X159157972Y-75835814D01*
X159153105Y-75826739D01*
X159037426Y-75647926D01*
X159031136Y-75639757D01*
X158887806Y-75482240D01*
X158880273Y-75475215D01*
X158713139Y-75343222D01*
X158704556Y-75337520D01*
X158667602Y-75317120D01*
X158617631Y-75266687D01*
X158602859Y-75197245D01*
X158627975Y-75130839D01*
X158655327Y-75104232D01*
X158678797Y-75087491D01*
X158834860Y-74976173D01*
X158859323Y-74951796D01*
X158989435Y-74822137D01*
X158993096Y-74818489D01*
X159052594Y-74735689D01*
X159120435Y-74641277D01*
X159123453Y-74637077D01*
X159144320Y-74594857D01*
X159220136Y-74441453D01*
X159220137Y-74441451D01*
X159222430Y-74436811D01*
X159281663Y-74241852D01*
X159285865Y-74228023D01*
X159285865Y-74228021D01*
X159287370Y-74223069D01*
X159316529Y-74001590D01*
X159318156Y-73935000D01*
X159299852Y-73712361D01*
X159245431Y-73495702D01*
X159156354Y-73290840D01*
X159035014Y-73103277D01*
X158884670Y-72938051D01*
X158880619Y-72934852D01*
X158880615Y-72934848D01*
X158713414Y-72802800D01*
X158713410Y-72802798D01*
X158709359Y-72799598D01*
X158694690Y-72791500D01*
X158657136Y-72770769D01*
X158513789Y-72691638D01*
X158508920Y-72689914D01*
X158508916Y-72689912D01*
X158308087Y-72618795D01*
X158308083Y-72618794D01*
X158303212Y-72617069D01*
X158298119Y-72616162D01*
X158298116Y-72616161D01*
X158088373Y-72578800D01*
X158088367Y-72578799D01*
X158083284Y-72577894D01*
X158009452Y-72576992D01*
X157865081Y-72575228D01*
X157865079Y-72575228D01*
X157859911Y-72575165D01*
X157639091Y-72608955D01*
X157426756Y-72678357D01*
X157228607Y-72781507D01*
X157224474Y-72784610D01*
X157224471Y-72784612D01*
X157054100Y-72912530D01*
X157049965Y-72915635D01*
X157046393Y-72919373D01*
X156901023Y-73071494D01*
X156895629Y-73077138D01*
X156788201Y-73234621D01*
X156733293Y-73279621D01*
X156662768Y-73287792D01*
X156599021Y-73256538D01*
X156578324Y-73232054D01*
X156497822Y-73107617D01*
X156497820Y-73107614D01*
X156495014Y-73103277D01*
X156344670Y-72938051D01*
X156340619Y-72934852D01*
X156340615Y-72934848D01*
X156173414Y-72802800D01*
X156173410Y-72802798D01*
X156169359Y-72799598D01*
X156154690Y-72791500D01*
X156117136Y-72770769D01*
X155973789Y-72691638D01*
X155968920Y-72689914D01*
X155968916Y-72689912D01*
X155768087Y-72618795D01*
X155768083Y-72618794D01*
X155763212Y-72617069D01*
X155758119Y-72616162D01*
X155758116Y-72616161D01*
X155548373Y-72578800D01*
X155548367Y-72578799D01*
X155543284Y-72577894D01*
X155469452Y-72576992D01*
X155325081Y-72575228D01*
X155325079Y-72575228D01*
X155319911Y-72575165D01*
X155099091Y-72608955D01*
X154886756Y-72678357D01*
X154688607Y-72781507D01*
X154684474Y-72784610D01*
X154684471Y-72784612D01*
X154514100Y-72912530D01*
X154509965Y-72915635D01*
X154506393Y-72919373D01*
X154361023Y-73071494D01*
X154355629Y-73077138D01*
X154248201Y-73234621D01*
X154193293Y-73279621D01*
X154122768Y-73287792D01*
X154059021Y-73256538D01*
X154038324Y-73232054D01*
X153957822Y-73107617D01*
X153957820Y-73107614D01*
X153955014Y-73103277D01*
X153804670Y-72938051D01*
X153800619Y-72934852D01*
X153800615Y-72934848D01*
X153633414Y-72802800D01*
X153633410Y-72802798D01*
X153629359Y-72799598D01*
X153614690Y-72791500D01*
X153577136Y-72770769D01*
X153433789Y-72691638D01*
X153428920Y-72689914D01*
X153428916Y-72689912D01*
X153228087Y-72618795D01*
X153228083Y-72618794D01*
X153223212Y-72617069D01*
X153218119Y-72616162D01*
X153218116Y-72616161D01*
X153008373Y-72578800D01*
X153008367Y-72578799D01*
X153003284Y-72577894D01*
X152929452Y-72576992D01*
X152785081Y-72575228D01*
X152785079Y-72575228D01*
X152779911Y-72575165D01*
X152559091Y-72608955D01*
X152346756Y-72678357D01*
X152148607Y-72781507D01*
X152144474Y-72784610D01*
X152144471Y-72784612D01*
X151974100Y-72912530D01*
X151969965Y-72915635D01*
X151966393Y-72919373D01*
X151821023Y-73071494D01*
X151815629Y-73077138D01*
X151689743Y-73261680D01*
X151674003Y-73295590D01*
X151629415Y-73391647D01*
X151595688Y-73464305D01*
X151535989Y-73679570D01*
X151512251Y-73901695D01*
X119789719Y-73901695D01*
X119793542Y-73889928D01*
X119813504Y-73700000D01*
X119797151Y-73544407D01*
X119794232Y-73516635D01*
X119794232Y-73516633D01*
X119793542Y-73510072D01*
X119734527Y-73328444D01*
X119639040Y-73163056D01*
X119582389Y-73100138D01*
X119515675Y-73026045D01*
X119515674Y-73026044D01*
X119511253Y-73021134D01*
X119366047Y-72915635D01*
X119362094Y-72912763D01*
X119362093Y-72912762D01*
X119356752Y-72908882D01*
X119350724Y-72906198D01*
X119350722Y-72906197D01*
X119188319Y-72833891D01*
X119188318Y-72833891D01*
X119182288Y-72831206D01*
X119088888Y-72811353D01*
X119001944Y-72792872D01*
X119001939Y-72792872D01*
X118995487Y-72791500D01*
X118804513Y-72791500D01*
X118798061Y-72792872D01*
X118798056Y-72792872D01*
X118711112Y-72811353D01*
X118617712Y-72831206D01*
X118611682Y-72833891D01*
X118611681Y-72833891D01*
X118449278Y-72906197D01*
X118449276Y-72906198D01*
X118443248Y-72908882D01*
X118437907Y-72912762D01*
X118437906Y-72912763D01*
X118433953Y-72915635D01*
X118288747Y-73021134D01*
X118284326Y-73026044D01*
X118284325Y-73026045D01*
X118217612Y-73100138D01*
X118160960Y-73163056D01*
X118065473Y-73328444D01*
X118006458Y-73510072D01*
X118005768Y-73516633D01*
X118005768Y-73516635D01*
X118002849Y-73544407D01*
X117986496Y-73700000D01*
X97008000Y-73700000D01*
X97008000Y-71200000D01*
X117986496Y-71200000D01*
X118006458Y-71389928D01*
X118065473Y-71571556D01*
X118160960Y-71736944D01*
X118165378Y-71741851D01*
X118165379Y-71741852D01*
X118192069Y-71771494D01*
X118288747Y-71878866D01*
X118443248Y-71991118D01*
X118449276Y-71993802D01*
X118449278Y-71993803D01*
X118611681Y-72066109D01*
X118617712Y-72068794D01*
X118711113Y-72088647D01*
X118798056Y-72107128D01*
X118798061Y-72107128D01*
X118804513Y-72108500D01*
X118995487Y-72108500D01*
X119001939Y-72107128D01*
X119001944Y-72107128D01*
X119088887Y-72088647D01*
X119182288Y-72068794D01*
X119188319Y-72066109D01*
X119350722Y-71993803D01*
X119350724Y-71993802D01*
X119356752Y-71991118D01*
X119511253Y-71878866D01*
X119607931Y-71771494D01*
X119634621Y-71741852D01*
X119634622Y-71741851D01*
X119639040Y-71736944D01*
X119734527Y-71571556D01*
X119793542Y-71389928D01*
X119813504Y-71200000D01*
X121186496Y-71200000D01*
X121206458Y-71389928D01*
X121265473Y-71571556D01*
X121360960Y-71736944D01*
X121365378Y-71741851D01*
X121365379Y-71741852D01*
X121392069Y-71771494D01*
X121488747Y-71878866D01*
X121643248Y-71991118D01*
X121649276Y-71993802D01*
X121649278Y-71993803D01*
X121811681Y-72066109D01*
X121817712Y-72068794D01*
X121911113Y-72088647D01*
X121998056Y-72107128D01*
X121998061Y-72107128D01*
X122004513Y-72108500D01*
X122195487Y-72108500D01*
X122201939Y-72107128D01*
X122201944Y-72107128D01*
X122288887Y-72088647D01*
X122382288Y-72068794D01*
X122388319Y-72066109D01*
X122550722Y-71993803D01*
X122550724Y-71993802D01*
X122556752Y-71991118D01*
X122711253Y-71878866D01*
X122807931Y-71771494D01*
X122834621Y-71741852D01*
X122834622Y-71741851D01*
X122839040Y-71736944D01*
X122934527Y-71571556D01*
X122993542Y-71389928D01*
X123013504Y-71200000D01*
X123786496Y-71200000D01*
X123806458Y-71389928D01*
X123865473Y-71571556D01*
X123960960Y-71736944D01*
X123965378Y-71741851D01*
X123965379Y-71741852D01*
X123992069Y-71771494D01*
X124088747Y-71878866D01*
X124243248Y-71991118D01*
X124249276Y-71993802D01*
X124249278Y-71993803D01*
X124411681Y-72066109D01*
X124417712Y-72068794D01*
X124511113Y-72088647D01*
X124598056Y-72107128D01*
X124598061Y-72107128D01*
X124604513Y-72108500D01*
X124795487Y-72108500D01*
X124801939Y-72107128D01*
X124801944Y-72107128D01*
X124888887Y-72088647D01*
X124982288Y-72068794D01*
X124988319Y-72066109D01*
X125150722Y-71993803D01*
X125150724Y-71993802D01*
X125156752Y-71991118D01*
X125311253Y-71878866D01*
X125407931Y-71771494D01*
X125434621Y-71741852D01*
X125434622Y-71741851D01*
X125439040Y-71736944D01*
X125534527Y-71571556D01*
X125593542Y-71389928D01*
X125613504Y-71200000D01*
X125886496Y-71200000D01*
X125906458Y-71389928D01*
X125965473Y-71571556D01*
X126060960Y-71736944D01*
X126065378Y-71741851D01*
X126065379Y-71741852D01*
X126092069Y-71771494D01*
X126188747Y-71878866D01*
X126343248Y-71991118D01*
X126349276Y-71993802D01*
X126349278Y-71993803D01*
X126511681Y-72066109D01*
X126517712Y-72068794D01*
X126611113Y-72088647D01*
X126698056Y-72107128D01*
X126698061Y-72107128D01*
X126704513Y-72108500D01*
X126895487Y-72108500D01*
X126901939Y-72107128D01*
X126901944Y-72107128D01*
X126988887Y-72088647D01*
X127082288Y-72068794D01*
X127088319Y-72066109D01*
X127250722Y-71993803D01*
X127250724Y-71993802D01*
X127256752Y-71991118D01*
X127411253Y-71878866D01*
X127507931Y-71771494D01*
X127534621Y-71741852D01*
X127534622Y-71741851D01*
X127539040Y-71736944D01*
X127634527Y-71571556D01*
X127693542Y-71389928D01*
X127713504Y-71200000D01*
X127707603Y-71143852D01*
X127694232Y-71016635D01*
X127694232Y-71016633D01*
X127693542Y-71010072D01*
X127634527Y-70828444D01*
X127539040Y-70663056D01*
X127489157Y-70607655D01*
X129039858Y-70607655D01*
X129075104Y-70866638D01*
X129076412Y-70871124D01*
X129076412Y-70871126D01*
X129096098Y-70938664D01*
X129148243Y-71117567D01*
X129150203Y-71121820D01*
X129150204Y-71121821D01*
X129166029Y-71156148D01*
X129257668Y-71354928D01*
X129260231Y-71358837D01*
X129398410Y-71569596D01*
X129398414Y-71569601D01*
X129400976Y-71573509D01*
X129575018Y-71768506D01*
X129775970Y-71935637D01*
X129779973Y-71938066D01*
X129995422Y-72068804D01*
X129995426Y-72068806D01*
X129999419Y-72071229D01*
X130240455Y-72172303D01*
X130493783Y-72236641D01*
X130498434Y-72237109D01*
X130498438Y-72237110D01*
X130691308Y-72256531D01*
X130710867Y-72258500D01*
X130866354Y-72258500D01*
X130868679Y-72258327D01*
X130868685Y-72258327D01*
X131056000Y-72244407D01*
X131056004Y-72244406D01*
X131060652Y-72244061D01*
X131065200Y-72243032D01*
X131065206Y-72243031D01*
X131251601Y-72200853D01*
X131315577Y-72186377D01*
X131351769Y-72172303D01*
X131554824Y-72093340D01*
X131554827Y-72093339D01*
X131559177Y-72091647D01*
X131599162Y-72068794D01*
X131643196Y-72043626D01*
X131786098Y-71961951D01*
X131854972Y-71907655D01*
X174639858Y-71907655D01*
X174675104Y-72166638D01*
X174676412Y-72171124D01*
X174676412Y-72171126D01*
X174695172Y-72235489D01*
X174748243Y-72417567D01*
X174857668Y-72654928D01*
X174860231Y-72658837D01*
X174998410Y-72869596D01*
X174998414Y-72869601D01*
X175000976Y-72873509D01*
X175175018Y-73068506D01*
X175375970Y-73235637D01*
X175379973Y-73238066D01*
X175595422Y-73368804D01*
X175595426Y-73368806D01*
X175599419Y-73371229D01*
X175840455Y-73472303D01*
X176093783Y-73536641D01*
X176098434Y-73537109D01*
X176098438Y-73537110D01*
X176291308Y-73556531D01*
X176310867Y-73558500D01*
X176466354Y-73558500D01*
X176468679Y-73558327D01*
X176468685Y-73558327D01*
X176656000Y-73544407D01*
X176656004Y-73544406D01*
X176660652Y-73544061D01*
X176665200Y-73543032D01*
X176665206Y-73543031D01*
X176852190Y-73500720D01*
X176915577Y-73486377D01*
X176951769Y-73472303D01*
X177154824Y-73393340D01*
X177154827Y-73393339D01*
X177159177Y-73391647D01*
X177386098Y-73261951D01*
X177591357Y-73100138D01*
X177770443Y-72909763D01*
X177919424Y-72695009D01*
X177927636Y-72678357D01*
X178032960Y-72464781D01*
X178032961Y-72464778D01*
X178035025Y-72460593D01*
X178099771Y-72258327D01*
X178113280Y-72216123D01*
X178114707Y-72211665D01*
X178156721Y-71953693D01*
X178160142Y-71692345D01*
X178124896Y-71433362D01*
X178110473Y-71383877D01*
X178056877Y-71200000D01*
X178051757Y-71182433D01*
X178039640Y-71156148D01*
X177944289Y-70949318D01*
X177942332Y-70945072D01*
X177893851Y-70871126D01*
X177801590Y-70730404D01*
X177801586Y-70730399D01*
X177799024Y-70726491D01*
X177624982Y-70531494D01*
X177424030Y-70364363D01*
X177367128Y-70329834D01*
X177204578Y-70231196D01*
X177204574Y-70231194D01*
X177200581Y-70228771D01*
X176959545Y-70127697D01*
X176706217Y-70063359D01*
X176701566Y-70062891D01*
X176701562Y-70062890D01*
X176492271Y-70041816D01*
X176489133Y-70041500D01*
X176333646Y-70041500D01*
X176331321Y-70041673D01*
X176331315Y-70041673D01*
X176144000Y-70055593D01*
X176143996Y-70055594D01*
X176139348Y-70055939D01*
X176134800Y-70056968D01*
X176134794Y-70056969D01*
X175996179Y-70088335D01*
X175884423Y-70113623D01*
X175880071Y-70115315D01*
X175880069Y-70115316D01*
X175645176Y-70206660D01*
X175645173Y-70206661D01*
X175640823Y-70208353D01*
X175413902Y-70338049D01*
X175208643Y-70499862D01*
X175029557Y-70690237D01*
X174937649Y-70822721D01*
X174907183Y-70866638D01*
X174880576Y-70904991D01*
X174764975Y-71139407D01*
X174763553Y-71143850D01*
X174763552Y-71143852D01*
X174745579Y-71200000D01*
X174685293Y-71388335D01*
X174643279Y-71646307D01*
X174643218Y-71650980D01*
X174641228Y-71803029D01*
X174639858Y-71907655D01*
X131854972Y-71907655D01*
X131991357Y-71800138D01*
X132170443Y-71609763D01*
X132289605Y-71437993D01*
X132316759Y-71398851D01*
X132316761Y-71398848D01*
X132319424Y-71395009D01*
X132435025Y-71160593D01*
X132485217Y-71003794D01*
X132513280Y-70916123D01*
X132514707Y-70911665D01*
X132556721Y-70653693D01*
X132558735Y-70499862D01*
X132560081Y-70397022D01*
X132560081Y-70397019D01*
X132560142Y-70392345D01*
X132524896Y-70133362D01*
X132510473Y-70083877D01*
X132453068Y-69886932D01*
X132451757Y-69882433D01*
X132342332Y-69645072D01*
X132309519Y-69595024D01*
X132201590Y-69430404D01*
X132201586Y-69430399D01*
X132199024Y-69426491D01*
X132024982Y-69231494D01*
X131824030Y-69064363D01*
X131776844Y-69035730D01*
X131604578Y-68931196D01*
X131604574Y-68931194D01*
X131600581Y-68928771D01*
X131359545Y-68827697D01*
X131106217Y-68763359D01*
X131101566Y-68762891D01*
X131101562Y-68762890D01*
X130892271Y-68741816D01*
X130889133Y-68741500D01*
X130733646Y-68741500D01*
X130731321Y-68741673D01*
X130731315Y-68741673D01*
X130544000Y-68755593D01*
X130543996Y-68755594D01*
X130539348Y-68755939D01*
X130534800Y-68756968D01*
X130534794Y-68756969D01*
X130348399Y-68799147D01*
X130284423Y-68813623D01*
X130280071Y-68815315D01*
X130280069Y-68815316D01*
X130045176Y-68906660D01*
X130045173Y-68906661D01*
X130040823Y-68908353D01*
X129813902Y-69038049D01*
X129608643Y-69199862D01*
X129429557Y-69390237D01*
X129280576Y-69604991D01*
X129164975Y-69839407D01*
X129163553Y-69843850D01*
X129163552Y-69843852D01*
X129100184Y-70041816D01*
X129085293Y-70088335D01*
X129043279Y-70346307D01*
X129042737Y-70387711D01*
X129040991Y-70521134D01*
X129039858Y-70607655D01*
X127489157Y-70607655D01*
X127411253Y-70521134D01*
X127256752Y-70408882D01*
X127250724Y-70406198D01*
X127250722Y-70406197D01*
X127088319Y-70333891D01*
X127088318Y-70333891D01*
X127082288Y-70331206D01*
X126988887Y-70311353D01*
X126901944Y-70292872D01*
X126901939Y-70292872D01*
X126895487Y-70291500D01*
X126704513Y-70291500D01*
X126698061Y-70292872D01*
X126698056Y-70292872D01*
X126611113Y-70311353D01*
X126517712Y-70331206D01*
X126511682Y-70333891D01*
X126511681Y-70333891D01*
X126349278Y-70406197D01*
X126349276Y-70406198D01*
X126343248Y-70408882D01*
X126188747Y-70521134D01*
X126060960Y-70663056D01*
X125965473Y-70828444D01*
X125906458Y-71010072D01*
X125905768Y-71016633D01*
X125905768Y-71016635D01*
X125892397Y-71143852D01*
X125886496Y-71200000D01*
X125613504Y-71200000D01*
X125607603Y-71143852D01*
X125594232Y-71016635D01*
X125594232Y-71016633D01*
X125593542Y-71010072D01*
X125534527Y-70828444D01*
X125439040Y-70663056D01*
X125311253Y-70521134D01*
X125156752Y-70408882D01*
X125150724Y-70406198D01*
X125150722Y-70406197D01*
X124988319Y-70333891D01*
X124988318Y-70333891D01*
X124982288Y-70331206D01*
X124888887Y-70311353D01*
X124801944Y-70292872D01*
X124801939Y-70292872D01*
X124795487Y-70291500D01*
X124604513Y-70291500D01*
X124598061Y-70292872D01*
X124598056Y-70292872D01*
X124511113Y-70311353D01*
X124417712Y-70331206D01*
X124411682Y-70333891D01*
X124411681Y-70333891D01*
X124249278Y-70406197D01*
X124249276Y-70406198D01*
X124243248Y-70408882D01*
X124088747Y-70521134D01*
X123960960Y-70663056D01*
X123865473Y-70828444D01*
X123806458Y-71010072D01*
X123805768Y-71016633D01*
X123805768Y-71016635D01*
X123792397Y-71143852D01*
X123786496Y-71200000D01*
X123013504Y-71200000D01*
X123007603Y-71143852D01*
X122994232Y-71016635D01*
X122994232Y-71016633D01*
X122993542Y-71010072D01*
X122934527Y-70828444D01*
X122839040Y-70663056D01*
X122711253Y-70521134D01*
X122556752Y-70408882D01*
X122550724Y-70406198D01*
X122550722Y-70406197D01*
X122388319Y-70333891D01*
X122388318Y-70333891D01*
X122382288Y-70331206D01*
X122288887Y-70311353D01*
X122201944Y-70292872D01*
X122201939Y-70292872D01*
X122195487Y-70291500D01*
X122004513Y-70291500D01*
X121998061Y-70292872D01*
X121998056Y-70292872D01*
X121911113Y-70311353D01*
X121817712Y-70331206D01*
X121811682Y-70333891D01*
X121811681Y-70333891D01*
X121649278Y-70406197D01*
X121649276Y-70406198D01*
X121643248Y-70408882D01*
X121488747Y-70521134D01*
X121360960Y-70663056D01*
X121265473Y-70828444D01*
X121206458Y-71010072D01*
X121205768Y-71016633D01*
X121205768Y-71016635D01*
X121192397Y-71143852D01*
X121186496Y-71200000D01*
X119813504Y-71200000D01*
X119807603Y-71143852D01*
X119794232Y-71016635D01*
X119794232Y-71016633D01*
X119793542Y-71010072D01*
X119734527Y-70828444D01*
X119639040Y-70663056D01*
X119511253Y-70521134D01*
X119356752Y-70408882D01*
X119350724Y-70406198D01*
X119350722Y-70406197D01*
X119188319Y-70333891D01*
X119188318Y-70333891D01*
X119182288Y-70331206D01*
X119088887Y-70311353D01*
X119001944Y-70292872D01*
X119001939Y-70292872D01*
X118995487Y-70291500D01*
X118804513Y-70291500D01*
X118798061Y-70292872D01*
X118798056Y-70292872D01*
X118711113Y-70311353D01*
X118617712Y-70331206D01*
X118611682Y-70333891D01*
X118611681Y-70333891D01*
X118449278Y-70406197D01*
X118449276Y-70406198D01*
X118443248Y-70408882D01*
X118288747Y-70521134D01*
X118160960Y-70663056D01*
X118065473Y-70828444D01*
X118006458Y-71010072D01*
X118005768Y-71016633D01*
X118005768Y-71016635D01*
X117992397Y-71143852D01*
X117986496Y-71200000D01*
X97008000Y-71200000D01*
X97008000Y-67634000D01*
X97028002Y-67565879D01*
X97081658Y-67519386D01*
X97134000Y-67508000D01*
X155209164Y-67508000D01*
X155209613Y-67508001D01*
G37*
G04 #@! TD.AperFunction*
M02*
