M48
; DRILL file {KiCad (6.0.1)} date Thu Jun  9 13:55:54 2022
; FORMAT={-:-/ absolute / metric / decimal}
; #@! TF.CreationDate,2022-06-09T13:55:54-07:00
; #@! TF.GenerationSoftware,Kicad,Pcbnew,(6.0.1)
; #@! TF.FileFunction,Plated,1,4,PTH
FMAT,2
METRIC
; #@! TA.AperFunction,Plated,PTH,ViaDrill
T1C0.400
; #@! TA.AperFunction,Plated,PTH,ComponentDrill
T2C0.500
; #@! TA.AperFunction,Plated,PTH,ComponentDrill
T3C0.508
; #@! TA.AperFunction,Plated,PTH,ComponentDrill
T4C0.800
; #@! TA.AperFunction,Plated,PTH,ComponentDrill
T5C0.991
; #@! TA.AperFunction,Plated,PTH,ComponentDrill
T6C1.000
%
G90
G05
T1
X98.8Y-106.4
X99.0Y-89.0
X99.0Y-116.0
X99.0Y-124.0
X102.0Y-120.0
X104.0Y-69.0
X104.0Y-77.0
X104.0Y-89.0
X104.996Y-123.986
X105.0Y-116.0
X107.997Y-119.976
X108.8Y-106.3
X109.0Y-69.0
X109.0Y-73.0
X109.0Y-77.0
X109.0Y-81.0
X109.0Y-85.0
X109.0Y-89.0
X112.0Y-128.0
X114.991Y-76.995
X114.991Y-84.996
X115.0Y-69.0
X115.0Y-73.0
X115.0Y-81.0
X117.0Y-128.0
X119.6Y-98.7
X120.089Y-103.452
X121.8Y-82.2
X121.8Y-87.9
X121.8Y-90.5
X122.1Y-74.9
X122.1Y-77.6
X122.245Y-105.051
X122.4Y-98.7
X122.6Y-100.3
X123.0Y-96.0
X123.3Y-108.5
X123.6Y-86.4
X123.6Y-101.8
X123.7Y-122.15
X123.7Y-127.4
X124.7Y-104.3
X124.7Y-105.87
X124.8Y-99.5
X125.0Y-94.3
X125.0Y-97.9
X125.0Y-107.5
X125.1Y-74.9
X125.1Y-110.2
X125.2Y-77.7
X125.5Y-82.2
X125.5Y-84.8
X125.5Y-90.5
X126.1Y-105.1
X126.149Y-93.3
X127.1Y-96.4
X127.8Y-108.7
X129.3Y-94.5
X129.4Y-71.1
X129.5Y-69.1
X129.5Y-108.9
X130.0Y-96.4
X130.5Y-90.9
X130.7Y-75.0
X130.7Y-80.2
X130.7Y-82.6
X130.7Y-85.2
X131.2Y-94.5
X131.3Y-109.983
X131.5Y-69.1
X131.5Y-71.1
X132.0Y-108.0
X132.964Y-96.4
X133.6Y-69.1
X133.6Y-71.1
X134.1Y-113.4
X134.2Y-94.5
X134.2Y-118.9
X134.2Y-121.6
X134.2Y-124.5
X134.2Y-130.0
X134.4Y-110.0
X135.0Y-108.0
X135.7Y-69.1
X135.7Y-71.1
X136.1Y-96.4
X136.55Y-94.53
X136.57Y-109.983
X137.2Y-104.7
X137.726Y-100.248
X137.8Y-101.8
X137.81Y-97.85
X137.873Y-106.7
X139.1Y-103.8
X139.5Y-127.0
X139.5Y-129.95
X139.59Y-87.873
X139.6Y-111.7
X139.6Y-117.2
X139.6Y-121.1
X139.6Y-123.95
X140.0Y-76.0
X140.0Y-80.0
X140.0Y-83.0
X141.4Y-89.0
X141.5Y-86.1
X141.5Y-118.6
X141.6Y-115.5
X143.0Y-125.0
X143.5Y-108.7
X143.8Y-95.5
X145.0Y-76.0
X145.6Y-106.6
X145.7Y-87.8
X145.8Y-117.1
X146.106Y-102.216
X146.28Y-97.93
X147.6Y-89.1
X147.807Y-86.041
X147.9Y-118.5
X148.0Y-115.6
X149.0Y-108.9
X149.02Y-95.58
X151.0Y-76.0
X151.0Y-130.0
X152.0Y-102.35
X152.0Y-107.0
T3
X127.794Y-99.497
X127.794Y-101.071
X127.794Y-102.646
X127.794Y-104.221
X127.794Y-105.796
X128.581Y-98.709
X128.581Y-100.284
X128.581Y-101.859
X128.581Y-103.434
X128.581Y-105.008
X129.368Y-99.497
X129.368Y-101.071
X129.368Y-102.646
X129.368Y-104.221
X129.368Y-105.796
X130.156Y-98.709
X130.156Y-100.284
X130.156Y-101.859
X130.156Y-103.434
X130.156Y-105.008
X130.943Y-99.497
X130.943Y-101.071
X130.943Y-102.646
X130.943Y-104.221
X130.943Y-105.796
X131.731Y-98.709
X131.731Y-100.284
X131.731Y-101.859
X131.731Y-103.434
X131.731Y-105.008
X132.518Y-99.497
X132.518Y-101.071
X132.518Y-102.646
X132.518Y-104.221
X132.518Y-105.796
X133.305Y-98.709
X133.305Y-100.284
X133.305Y-101.859
X133.305Y-103.434
X133.305Y-105.008
X134.093Y-99.497
X134.093Y-101.071
X134.093Y-102.646
X134.093Y-104.221
X134.093Y-105.796
X134.88Y-98.709
X134.88Y-100.284
X134.88Y-101.859
X134.88Y-103.434
X134.88Y-105.008
T4
X116.2Y-110.5
X116.2Y-114.6
X121.2Y-110.5
X121.2Y-114.6
X143.1Y-122.2
X143.4Y-82.3
X148.1Y-122.2
X148.4Y-82.3
T5
X99.2Y-101.4
X101.0Y-99.5
X102.8Y-101.4
T6
X102.425Y-106.375
X102.425Y-108.915
X102.425Y-111.455
X104.965Y-106.375
X104.965Y-108.915
X104.965Y-111.455
X106.9Y-98.86
X106.9Y-101.4
X111.745Y-120.525
X114.285Y-120.525
X116.825Y-120.525
X129.168Y-116.4
X129.168Y-127.2
X130.489Y-77.257
X130.489Y-87.957
X134.168Y-116.4
X134.168Y-127.2
X135.489Y-77.257
X135.489Y-87.957
X139.02Y-69.1
X139.02Y-71.64
X141.56Y-69.1
X141.56Y-71.64
X144.1Y-69.1
X144.1Y-71.64
X151.63Y-79.935
X151.63Y-82.475
X151.7Y-121.935
X151.7Y-124.475
T2
X143.8Y-110.47G85X141.8Y-110.47
G05
X143.8Y-116.97G85X141.8Y-116.97
G05
X141.82Y-87.54G85X143.82Y-87.54
G05
X141.82Y-94.04G85X143.82Y-94.04
G05
X150.0Y-110.47G85X148.0Y-110.47
G05
X150.0Y-116.97G85X148.0Y-116.97
G05
X148.02Y-87.54G85X150.02Y-87.54
G05
X148.02Y-94.04G85X150.02Y-94.04
G05
T0
M30
