M48
; DRILL file {KiCad (6.0.1)} date Sun Apr 24 16:27:46 2022
; FORMAT={-:-/ absolute / metric / decimal}
; #@! TF.CreationDate,2022-04-24T16:27:46-07:00
; #@! TF.GenerationSoftware,Kicad,Pcbnew,(6.0.1)
; #@! TF.FileFunction,Plated,1,4,PTH
FMAT,2
METRIC
; #@! TA.AperFunction,Plated,PTH,ViaDrill
T1C0.400
; #@! TA.AperFunction,Plated,PTH,ComponentDrill
T2C0.508
; #@! TA.AperFunction,Plated,PTH,ComponentDrill
T3C0.800
; #@! TA.AperFunction,Plated,PTH,ComponentDrill
T4C0.991
; #@! TA.AperFunction,Plated,PTH,ComponentDrill
T5C1.000
; #@! TA.AperFunction,Plated,PTH,ComponentDrill
T6C1.100
%
G90
G05
T1
X100.33Y-97.79
X100.33Y-105.41
X100.33Y-114.3
X100.36Y-120.66
X105.41Y-109.22
X105.41Y-111.76
X106.8Y-106.6
X107.95Y-125.73
X109.5Y-103.4
X113.0Y-103.4
X113.03Y-125.73
X116.1Y-103.5
X118.9Y-71.2
X118.9Y-73.7
X118.9Y-76.1
X118.9Y-78.1
X121.3Y-102.5
X121.92Y-105.41
X121.92Y-107.95
X122.1Y-71.2
X124.7Y-71.2
X125.2Y-100.4
X125.8Y-97.8
X126.8Y-71.2
X127.0Y-128.27
X127.8Y-95.9
X128.0Y-111.5
X129.54Y-91.44
X129.7Y-100.2
X129.7Y-101.8
X129.7Y-103.4
X130.6Y-93.9
X130.81Y-109.22
X130.81Y-124.46
X132.08Y-128.27
X133.35Y-109.22
X134.29Y-71.08
X134.9Y-113.0
X136.9Y-121.3
X137.0Y-82.5
X137.0Y-85.3
X137.16Y-128.27
X137.41Y-71.12
X140.6Y-71.12
X140.7Y-82.5
X140.7Y-85.3
X140.97Y-93.98
X140.97Y-109.22
X143.17Y-71.12
X143.5Y-96.1
X143.51Y-93.98
X143.51Y-128.27
X144.78Y-124.46
X145.5Y-102.2
X145.5Y-104.4
X146.5Y-105.5
X147.32Y-88.9
X147.32Y-91.44
X148.59Y-128.27
X149.2Y-103.3
X150.5Y-100.1
X150.6Y-106.1
X150.8Y-115.8
X153.67Y-127.0
X161.29Y-107.95
X161.29Y-113.03
X161.29Y-116.84
X161.29Y-120.65
X162.17Y-100.545
X162.56Y-127.0
X163.83Y-80.01
X163.83Y-85.09
X163.83Y-90.17
X163.86Y-74.95
X168.91Y-127.0
X169.9Y-116.7
X170.18Y-74.93
X170.18Y-80.01
X170.18Y-85.09
X170.18Y-90.17
X170.795Y-106.43
X172.72Y-96.52
X175.26Y-100.33
X177.8Y-96.52
X179.07Y-100.33
T2
X132.194Y-101.036
X132.194Y-102.611
X132.194Y-104.186
X132.194Y-105.761
X132.194Y-107.335
X132.981Y-100.249
X132.981Y-101.824
X132.981Y-103.398
X132.981Y-104.973
X132.981Y-106.548
X133.768Y-101.036
X133.768Y-102.611
X133.768Y-104.186
X133.768Y-105.761
X133.768Y-107.335
X134.556Y-100.249
X134.556Y-101.824
X134.556Y-103.398
X134.556Y-104.973
X134.556Y-106.548
X135.343Y-101.036
X135.343Y-102.611
X135.343Y-104.186
X135.343Y-105.761
X135.343Y-107.335
X136.131Y-100.249
X136.131Y-101.824
X136.131Y-103.398
X136.131Y-104.973
X136.131Y-106.548
X136.918Y-101.036
X136.918Y-102.611
X136.918Y-104.186
X136.918Y-105.761
X136.918Y-107.335
X137.706Y-100.249
X137.706Y-101.824
X137.706Y-103.398
X137.706Y-104.973
X137.706Y-106.548
X138.493Y-101.036
X138.493Y-102.611
X138.493Y-104.186
X138.493Y-105.761
X138.493Y-107.335
X139.28Y-100.249
X139.28Y-101.824
X139.28Y-103.398
X139.28Y-104.973
X139.28Y-106.548
T3
X119.1Y-114.6
X119.1Y-119.2
X124.1Y-114.6
X124.1Y-119.2
X174.0Y-114.1
X174.0Y-119.1
X175.195Y-103.63
X175.195Y-108.63
T4
X108.764Y-117.566
X110.664Y-115.765
X110.664Y-119.365
T5
X105.035Y-99.125
X107.575Y-99.125
X109.125Y-106.575
X109.125Y-109.115
X109.125Y-111.655
X111.665Y-106.575
X111.665Y-109.115
X111.665Y-111.655
X117.245Y-125.525
X119.785Y-125.525
X122.325Y-125.525
X128.868Y-121.3
X133.5Y-84.532
X133.5Y-89.532
X133.868Y-121.3
X139.832Y-121.3
X144.2Y-84.632
X144.2Y-89.632
X144.832Y-121.3
X152.875Y-73.935
X152.875Y-76.475
X155.415Y-73.935
X155.415Y-76.475
X157.955Y-73.935
X157.955Y-76.475
X179.7Y-106.66
X179.7Y-109.2
X179.7Y-115.27
X179.7Y-117.81
T6
X156.97Y-113.245
X156.97Y-119.955
X158.04Y-97.19
X158.04Y-103.9
X165.23Y-113.245
X165.23Y-119.955
X166.3Y-97.19
X166.3Y-103.9
T0
M30
