G04 #@! TF.GenerationSoftware,KiCad,Pcbnew,(6.0.1)*
G04 #@! TF.CreationDate,2022-06-09T13:55:52-07:00*
G04 #@! TF.ProjectId,AudioAmpRev1_2,41756469-6f41-46d7-9052-6576315f322e,1.2*
G04 #@! TF.SameCoordinates,Original*
G04 #@! TF.FileFunction,Soldermask,Bot*
G04 #@! TF.FilePolarity,Negative*
%FSLAX46Y46*%
G04 Gerber Fmt 4.6, Leading zero omitted, Abs format (unit mm)*
G04 Created by KiCad (PCBNEW (6.0.1)) date 2022-06-09 13:55:52*
%MOMM*%
%LPD*%
G01*
G04 APERTURE LIST*
G04 Aperture macros list*
%AMRoundRect*
0 Rectangle with rounded corners*
0 $1 Rounding radius*
0 $2 $3 $4 $5 $6 $7 $8 $9 X,Y pos of 4 corners*
0 Add a 4 corners polygon primitive as box body*
4,1,4,$2,$3,$4,$5,$6,$7,$8,$9,$2,$3,0*
0 Add four circle primitives for the rounded corners*
1,1,$1+$1,$2,$3*
1,1,$1+$1,$4,$5*
1,1,$1+$1,$6,$7*
1,1,$1+$1,$8,$9*
0 Add four rect primitives between the rounded corners*
20,1,$1+$1,$2,$3,$4,$5,0*
20,1,$1+$1,$4,$5,$6,$7,0*
20,1,$1+$1,$6,$7,$8,$9,0*
20,1,$1+$1,$8,$9,$2,$3,0*%
G04 Aperture macros list end*
%ADD10R,4.550000X5.500000*%
%ADD11R,4.550000X5.300000*%
%ADD12C,1.600000*%
%ADD13R,2.000000X2.000000*%
%ADD14C,2.000000*%
%ADD15R,1.700000X1.700000*%
%ADD16O,1.700000X1.700000*%
%ADD17C,0.508000*%
%ADD18C,2.500000*%
%ADD19C,1.498600*%
%ADD20RoundRect,0.250000X0.250000X0.475000X-0.250000X0.475000X-0.250000X-0.475000X0.250000X-0.475000X0*%
%ADD21RoundRect,0.225000X0.225000X0.250000X-0.225000X0.250000X-0.225000X-0.250000X0.225000X-0.250000X0*%
%ADD22RoundRect,0.250000X-0.250000X-0.475000X0.250000X-0.475000X0.250000X0.475000X-0.250000X0.475000X0*%
%ADD23RoundRect,0.250000X1.075000X-0.362500X1.075000X0.362500X-1.075000X0.362500X-1.075000X-0.362500X0*%
%ADD24RoundRect,0.250000X0.325000X0.650000X-0.325000X0.650000X-0.325000X-0.650000X0.325000X-0.650000X0*%
%ADD25RoundRect,0.200000X0.200000X0.275000X-0.200000X0.275000X-0.200000X-0.275000X0.200000X-0.275000X0*%
%ADD26RoundRect,0.140000X0.170000X-0.140000X0.170000X0.140000X-0.170000X0.140000X-0.170000X-0.140000X0*%
%ADD27RoundRect,0.250000X-0.262500X-0.450000X0.262500X-0.450000X0.262500X0.450000X-0.262500X0.450000X0*%
%ADD28RoundRect,0.250000X0.650000X-0.325000X0.650000X0.325000X-0.650000X0.325000X-0.650000X-0.325000X0*%
%ADD29RoundRect,0.225000X-0.225000X-0.250000X0.225000X-0.250000X0.225000X0.250000X-0.225000X0.250000X0*%
%ADD30RoundRect,0.140000X-0.170000X0.140000X-0.170000X-0.140000X0.170000X-0.140000X0.170000X0.140000X0*%
%ADD31RoundRect,0.250000X-1.075000X0.362500X-1.075000X-0.362500X1.075000X-0.362500X1.075000X0.362500X0*%
G04 APERTURE END LIST*
D10*
X149125000Y-110170000D03*
D11*
X149125000Y-117170000D03*
X142675000Y-117170000D03*
D10*
X142675000Y-110170000D03*
X142695000Y-94340000D03*
D11*
X142695000Y-87340000D03*
X149145000Y-87340000D03*
D10*
X149145000Y-94340000D03*
D12*
X143400000Y-82300000D03*
X148400000Y-82300000D03*
X116200000Y-114600000D03*
X121200000Y-114600000D03*
D13*
X134167677Y-127200000D03*
D14*
X129167677Y-127200000D03*
D15*
X151630000Y-82475000D03*
D16*
X151630000Y-79935000D03*
D13*
X130489223Y-87957000D03*
D14*
X135489223Y-87957000D03*
D15*
X144100000Y-69100000D03*
D16*
X144100000Y-71640000D03*
X141560000Y-69100000D03*
X141560000Y-71640000D03*
X139020000Y-69100000D03*
X139020000Y-71640000D03*
D15*
X151700000Y-124475000D03*
D16*
X151700000Y-121935000D03*
D17*
X133305500Y-105008400D03*
X134880300Y-105008400D03*
X134880300Y-98709200D03*
X132518100Y-105795800D03*
X134092900Y-102646200D03*
X130943300Y-101071400D03*
X130155900Y-98709200D03*
X132518100Y-102646200D03*
X128581100Y-100284000D03*
X127793700Y-102646200D03*
X134880300Y-101858800D03*
X130155900Y-103433600D03*
X127793700Y-99496600D03*
X130943300Y-104221000D03*
X131730700Y-101858800D03*
X134092900Y-99496600D03*
X134092900Y-104221000D03*
X129368500Y-99496600D03*
X129368500Y-101071400D03*
X130155900Y-101858800D03*
X130943300Y-99496600D03*
X132518100Y-99496600D03*
X133305500Y-98709200D03*
X130943300Y-102646200D03*
X131730700Y-100284000D03*
X130155900Y-100284000D03*
X133305500Y-103433600D03*
X128581100Y-105008400D03*
X133305500Y-100284000D03*
X129368500Y-104221000D03*
X131730700Y-105008400D03*
X134092900Y-101071400D03*
X132518100Y-101071400D03*
X131730700Y-98709200D03*
X128581100Y-101858800D03*
X129368500Y-105795800D03*
X130943300Y-105795800D03*
X130155900Y-105008400D03*
X134880300Y-100284000D03*
X132518100Y-104221000D03*
X127793700Y-101071400D03*
X128581100Y-103433600D03*
X127793700Y-104221000D03*
X131730700Y-103433600D03*
X134092900Y-105795800D03*
X134880300Y-103433600D03*
X128581100Y-98709200D03*
X127793700Y-105795800D03*
X129368500Y-102646200D03*
X133305500Y-101858800D03*
D15*
X116825000Y-120525000D03*
D16*
X114285000Y-120525000D03*
X111745000Y-120525000D03*
D15*
X106900000Y-101400000D03*
D16*
X106900000Y-98860000D03*
D12*
X148100000Y-122200000D03*
X143100000Y-122200000D03*
D18*
X148200000Y-129000000D03*
D13*
X134167677Y-116400000D03*
D14*
X129167677Y-116400000D03*
D19*
X102800000Y-101400000D03*
X101000000Y-99500000D03*
X99200000Y-101400000D03*
D13*
X130489223Y-77257000D03*
D14*
X135489223Y-77257000D03*
D12*
X116200000Y-110500000D03*
X121200000Y-110500000D03*
D18*
X100000000Y-71000000D03*
X150200000Y-71000000D03*
D15*
X102425000Y-106375000D03*
D16*
X104965000Y-106375000D03*
X102425000Y-108915000D03*
X104965000Y-108915000D03*
X102425000Y-111455000D03*
X104965000Y-111455000D03*
D18*
X100000000Y-128500000D03*
D20*
X141150000Y-115500000D03*
X139250000Y-115500000D03*
D21*
X141075000Y-118720000D03*
X139525000Y-118720000D03*
D22*
X145850000Y-115480000D03*
X147750000Y-115480000D03*
D23*
X149000000Y-108712500D03*
X149000000Y-104087500D03*
D24*
X134175000Y-94600000D03*
X131225000Y-94600000D03*
D25*
X100425000Y-108900000D03*
X98775000Y-108900000D03*
D26*
X146700000Y-105580000D03*
X146700000Y-104620000D03*
D27*
X106987500Y-106400000D03*
X108812500Y-106400000D03*
D21*
X129475000Y-108900000D03*
X127925000Y-108900000D03*
D28*
X137100000Y-104675000D03*
X137100000Y-101725000D03*
D23*
X149020000Y-100502500D03*
X149020000Y-95877500D03*
D29*
X139600000Y-89280000D03*
X141150000Y-89280000D03*
D27*
X107000000Y-111500000D03*
X108825000Y-111500000D03*
D24*
X134305000Y-109982752D03*
X131355000Y-109982752D03*
D21*
X147250000Y-89280000D03*
X145700000Y-89280000D03*
D20*
X147600000Y-86050000D03*
X145700000Y-86050000D03*
D27*
X106987500Y-108900000D03*
X108812500Y-108900000D03*
D29*
X145725000Y-118720000D03*
X147275000Y-118720000D03*
D26*
X146820000Y-98870000D03*
X146820000Y-97910000D03*
D29*
X124525000Y-105900000D03*
X126075000Y-105900000D03*
X124825000Y-99500000D03*
X126375000Y-99500000D03*
D30*
X145600000Y-104620000D03*
X145600000Y-105580000D03*
D22*
X139250000Y-86050000D03*
X141150000Y-86050000D03*
D31*
X143580000Y-95917500D03*
X143580000Y-100542500D03*
D25*
X100425000Y-106400000D03*
X98775000Y-106400000D03*
D31*
X143500000Y-104087500D03*
X143500000Y-108712500D03*
D29*
X124525000Y-104300000D03*
X126075000Y-104300000D03*
D30*
X145720000Y-97910000D03*
X145720000Y-98870000D03*
M02*
