G04 #@! TF.GenerationSoftware,KiCad,Pcbnew,(6.0.1)*
G04 #@! TF.CreationDate,2022-04-24T16:27:43-07:00*
G04 #@! TF.ProjectId,AudioAmp,41756469-6f41-46d7-902e-6b696361645f,rev?*
G04 #@! TF.SameCoordinates,Original*
G04 #@! TF.FileFunction,Soldermask,Bot*
G04 #@! TF.FilePolarity,Negative*
%FSLAX46Y46*%
G04 Gerber Fmt 4.6, Leading zero omitted, Abs format (unit mm)*
G04 Created by KiCad (PCBNEW (6.0.1)) date 2022-04-24 16:27:43*
%MOMM*%
%LPD*%
G01*
G04 APERTURE LIST*
G04 Aperture macros list*
%AMRoundRect*
0 Rectangle with rounded corners*
0 $1 Rounding radius*
0 $2 $3 $4 $5 $6 $7 $8 $9 X,Y pos of 4 corners*
0 Add a 4 corners polygon primitive as box body*
4,1,4,$2,$3,$4,$5,$6,$7,$8,$9,$2,$3,0*
0 Add four circle primitives for the rounded corners*
1,1,$1+$1,$2,$3*
1,1,$1+$1,$4,$5*
1,1,$1+$1,$6,$7*
1,1,$1+$1,$8,$9*
0 Add four rect primitives between the rounded corners*
20,1,$1+$1,$2,$3,$4,$5,0*
20,1,$1+$1,$4,$5,$6,$7,0*
20,1,$1+$1,$6,$7,$8,$9,0*
20,1,$1+$1,$8,$9,$2,$3,0*%
G04 Aperture macros list end*
%ADD10C,1.600000*%
%ADD11R,2.000000X2.000000*%
%ADD12C,2.000000*%
%ADD13C,1.800000*%
%ADD14R,1.700000X1.700000*%
%ADD15O,1.700000X1.700000*%
%ADD16C,0.508000*%
%ADD17C,2.500000*%
%ADD18C,1.498600*%
%ADD19RoundRect,0.250000X0.650000X-0.325000X0.650000X0.325000X-0.650000X0.325000X-0.650000X-0.325000X0*%
%ADD20RoundRect,0.250000X-0.650000X0.325000X-0.650000X-0.325000X0.650000X-0.325000X0.650000X0.325000X0*%
G04 APERTURE END LIST*
D10*
X175195000Y-103630000D03*
X175195000Y-108630000D03*
X119100000Y-114600000D03*
X124100000Y-114600000D03*
D11*
X139832323Y-121300000D03*
D12*
X144832323Y-121300000D03*
D13*
X158040000Y-97190000D03*
X166300000Y-97190000D03*
X166300000Y-103900000D03*
X158040000Y-103900000D03*
D14*
X179700000Y-106660000D03*
D15*
X179700000Y-109200000D03*
D11*
X144200000Y-84632323D03*
D12*
X144200000Y-89632323D03*
D14*
X152875000Y-76475000D03*
D15*
X152875000Y-73935000D03*
X155415000Y-76475000D03*
X155415000Y-73935000D03*
X157955000Y-76475000D03*
X157955000Y-73935000D03*
D14*
X179700000Y-115270000D03*
D15*
X179700000Y-117810000D03*
D16*
X138492900Y-101036200D03*
X136918100Y-104185800D03*
X137705500Y-106548000D03*
X137705500Y-103398400D03*
X132981100Y-106548000D03*
X133768500Y-107335400D03*
X132193700Y-107335400D03*
X132193700Y-105760600D03*
X136130700Y-103398400D03*
X136918100Y-105760600D03*
X135343300Y-101036200D03*
X136130700Y-101823600D03*
X138492900Y-104185800D03*
X136918100Y-107335400D03*
X136918100Y-102611000D03*
X134555900Y-103398400D03*
X135343300Y-102611000D03*
X132193700Y-101036200D03*
X139280300Y-103398400D03*
X132193700Y-104185800D03*
X139280300Y-104973200D03*
X138492900Y-102611000D03*
X136130700Y-106548000D03*
X134555900Y-101823600D03*
X132981100Y-103398400D03*
X133768500Y-101036200D03*
X133768500Y-102611000D03*
X136918100Y-101036200D03*
X134555900Y-100248800D03*
X135343300Y-104185800D03*
X137705500Y-104973200D03*
X134555900Y-104973200D03*
X132981100Y-100248800D03*
X132193700Y-102611000D03*
X132981100Y-104973200D03*
X136130700Y-100248800D03*
X138492900Y-105760600D03*
X139280300Y-106548000D03*
X135343300Y-105760600D03*
X138492900Y-107335400D03*
X139280300Y-101823600D03*
X137705500Y-101823600D03*
X133768500Y-104185800D03*
X133768500Y-105760600D03*
X135343300Y-107335400D03*
X132981100Y-101823600D03*
X139280300Y-100248800D03*
X136130700Y-104973200D03*
X137705500Y-100248800D03*
X134555900Y-106548000D03*
D14*
X122325000Y-125525000D03*
D15*
X119785000Y-125525000D03*
X117245000Y-125525000D03*
D14*
X107575000Y-99125000D03*
D15*
X105035000Y-99125000D03*
D10*
X174000000Y-114100000D03*
X174000000Y-119100000D03*
D17*
X176350000Y-126750000D03*
D11*
X133867677Y-121300000D03*
D12*
X128867677Y-121300000D03*
D18*
X110664500Y-115765500D03*
X108764500Y-117565500D03*
X110664500Y-119365500D03*
D11*
X133500000Y-84532323D03*
D12*
X133500000Y-89532323D03*
D10*
X119100000Y-119200000D03*
X124100000Y-119200000D03*
D17*
X130800000Y-70500000D03*
X176400000Y-71800000D03*
D14*
X109125000Y-106575000D03*
D15*
X111665000Y-106575000D03*
X109125000Y-109115000D03*
X111665000Y-109115000D03*
X109125000Y-111655000D03*
X111665000Y-111655000D03*
D17*
X101900000Y-126700000D03*
D13*
X156970000Y-113245000D03*
X165230000Y-113245000D03*
X165230000Y-119955000D03*
X156970000Y-119955000D03*
D19*
X150600000Y-104575000D03*
X150600000Y-101625000D03*
D20*
X147900000Y-101625000D03*
X147900000Y-104575000D03*
M02*
