G04 #@! TF.GenerationSoftware,KiCad,Pcbnew,(6.0.1)*
G04 #@! TF.CreationDate,2022-06-09T13:55:52-07:00*
G04 #@! TF.ProjectId,AudioAmpRev1_2,41756469-6f41-46d7-9052-6576315f322e,1.2*
G04 #@! TF.SameCoordinates,Original*
G04 #@! TF.FileFunction,Soldermask,Top*
G04 #@! TF.FilePolarity,Negative*
%FSLAX46Y46*%
G04 Gerber Fmt 4.6, Leading zero omitted, Abs format (unit mm)*
G04 Created by KiCad (PCBNEW (6.0.1)) date 2022-06-09 13:55:52*
%MOMM*%
%LPD*%
G01*
G04 APERTURE LIST*
G04 Aperture macros list*
%AMRoundRect*
0 Rectangle with rounded corners*
0 $1 Rounding radius*
0 $2 $3 $4 $5 $6 $7 $8 $9 X,Y pos of 4 corners*
0 Add a 4 corners polygon primitive as box body*
4,1,4,$2,$3,$4,$5,$6,$7,$8,$9,$2,$3,0*
0 Add four circle primitives for the rounded corners*
1,1,$1+$1,$2,$3*
1,1,$1+$1,$4,$5*
1,1,$1+$1,$6,$7*
1,1,$1+$1,$8,$9*
0 Add four rect primitives between the rounded corners*
20,1,$1+$1,$2,$3,$4,$5,0*
20,1,$1+$1,$4,$5,$6,$7,0*
20,1,$1+$1,$6,$7,$8,$9,0*
20,1,$1+$1,$8,$9,$2,$3,0*%
G04 Aperture macros list end*
%ADD10C,0.100000*%
%ADD11R,4.550000X5.500000*%
%ADD12R,4.550000X5.300000*%
%ADD13C,1.600000*%
%ADD14RoundRect,0.200000X-0.200000X-0.275000X0.200000X-0.275000X0.200000X0.275000X-0.200000X0.275000X0*%
%ADD15R,2.000000X2.000000*%
%ADD16C,2.000000*%
%ADD17R,1.700000X1.700000*%
%ADD18O,1.700000X1.700000*%
%ADD19RoundRect,0.150000X0.150000X-0.587500X0.150000X0.587500X-0.150000X0.587500X-0.150000X-0.587500X0*%
%ADD20R,1.404099X0.456400*%
%ADD21R,0.456400X1.404099*%
%ADD22C,0.508000*%
%ADD23RoundRect,0.250000X0.650000X-0.325000X0.650000X0.325000X-0.650000X0.325000X-0.650000X-0.325000X0*%
%ADD24RoundRect,0.250000X-0.325000X-0.650000X0.325000X-0.650000X0.325000X0.650000X-0.325000X0.650000X0*%
%ADD25C,2.500000*%
%ADD26RoundRect,0.250000X-0.650000X0.325000X-0.650000X-0.325000X0.650000X-0.325000X0.650000X0.325000X0*%
%ADD27RoundRect,0.250000X-0.475000X0.250000X-0.475000X-0.250000X0.475000X-0.250000X0.475000X0.250000X0*%
%ADD28C,1.498600*%
%ADD29R,5.588000X5.334000*%
%ADD30R,5.283200X6.350000*%
%ADD31RoundRect,0.225000X-0.250000X0.225000X-0.250000X-0.225000X0.250000X-0.225000X0.250000X0.225000X0*%
G04 APERTURE END LIST*
D10*
X127273500Y-104421000D02*
X135400500Y-104421000D01*
X135400500Y-104421000D02*
X135400500Y-104808400D01*
X135400500Y-104808400D02*
X127273500Y-104808400D01*
X127273500Y-104808400D02*
X127273500Y-104421000D01*
G36*
X135400500Y-104808400D02*
G01*
X127273500Y-104808400D01*
X127273500Y-104421000D01*
X135400500Y-104421000D01*
X135400500Y-104808400D01*
G37*
X135400500Y-104808400D02*
X127273500Y-104808400D01*
X127273500Y-104421000D01*
X135400500Y-104421000D01*
X135400500Y-104808400D01*
X132318100Y-98189000D02*
X131930700Y-98189000D01*
X131930700Y-98189000D02*
X131930700Y-106316000D01*
X131930700Y-106316000D02*
X132318100Y-106316000D01*
X132318100Y-106316000D02*
X132318100Y-98189000D01*
G36*
X132318100Y-106316000D02*
G01*
X131930700Y-106316000D01*
X131930700Y-98189000D01*
X132318100Y-98189000D01*
X132318100Y-106316000D01*
G37*
X132318100Y-106316000D02*
X131930700Y-106316000D01*
X131930700Y-98189000D01*
X132318100Y-98189000D01*
X132318100Y-106316000D01*
X127273500Y-99696600D02*
X135400500Y-99696600D01*
X135400500Y-99696600D02*
X135400500Y-100084000D01*
X135400500Y-100084000D02*
X127273500Y-100084000D01*
X127273500Y-100084000D02*
X127273500Y-99696600D01*
G36*
X135400500Y-100084000D02*
G01*
X127273500Y-100084000D01*
X127273500Y-99696600D01*
X135400500Y-99696600D01*
X135400500Y-100084000D01*
G37*
X135400500Y-100084000D02*
X127273500Y-100084000D01*
X127273500Y-99696600D01*
X135400500Y-99696600D01*
X135400500Y-100084000D01*
X127273500Y-98189000D02*
X127593700Y-98189000D01*
X127593700Y-98189000D02*
X127593700Y-106316000D01*
X127593700Y-106316000D02*
X127273500Y-106316000D01*
X127273500Y-106316000D02*
X127273500Y-98189000D01*
G36*
X127593700Y-106316000D02*
G01*
X127273500Y-106316000D01*
X127273500Y-98189000D01*
X127593700Y-98189000D01*
X127593700Y-106316000D01*
G37*
X127593700Y-106316000D02*
X127273500Y-106316000D01*
X127273500Y-98189000D01*
X127593700Y-98189000D01*
X127593700Y-106316000D01*
X128381100Y-98189000D02*
X127993700Y-98189000D01*
X127993700Y-98189000D02*
X127993700Y-106316000D01*
X127993700Y-106316000D02*
X128381100Y-106316000D01*
X128381100Y-106316000D02*
X128381100Y-98189000D01*
G36*
X128381100Y-106316000D02*
G01*
X127993700Y-106316000D01*
X127993700Y-98189000D01*
X128381100Y-98189000D01*
X128381100Y-106316000D01*
G37*
X128381100Y-106316000D02*
X127993700Y-106316000D01*
X127993700Y-98189000D01*
X128381100Y-98189000D01*
X128381100Y-106316000D01*
X131530700Y-98189000D02*
X131143300Y-98189000D01*
X131143300Y-98189000D02*
X131143300Y-106316000D01*
X131143300Y-106316000D02*
X131530700Y-106316000D01*
X131530700Y-106316000D02*
X131530700Y-98189000D01*
G36*
X131530700Y-106316000D02*
G01*
X131143300Y-106316000D01*
X131143300Y-98189000D01*
X131530700Y-98189000D01*
X131530700Y-106316000D01*
G37*
X131530700Y-106316000D02*
X131143300Y-106316000D01*
X131143300Y-98189000D01*
X131530700Y-98189000D01*
X131530700Y-106316000D01*
X135080300Y-98189000D02*
X135400500Y-98189000D01*
X135400500Y-98189000D02*
X135400500Y-106316000D01*
X135400500Y-106316000D02*
X135080300Y-106316000D01*
X135080300Y-106316000D02*
X135080300Y-98189000D01*
G36*
X135400500Y-106316000D02*
G01*
X135080300Y-106316000D01*
X135080300Y-98189000D01*
X135400500Y-98189000D01*
X135400500Y-106316000D01*
G37*
X135400500Y-106316000D02*
X135080300Y-106316000D01*
X135080300Y-98189000D01*
X135400500Y-98189000D01*
X135400500Y-106316000D01*
X127273500Y-98909200D02*
X135400500Y-98909200D01*
X135400500Y-98909200D02*
X135400500Y-99296600D01*
X135400500Y-99296600D02*
X127273500Y-99296600D01*
X127273500Y-99296600D02*
X127273500Y-98909200D01*
G36*
X135400500Y-99296600D02*
G01*
X127273500Y-99296600D01*
X127273500Y-98909200D01*
X135400500Y-98909200D01*
X135400500Y-99296600D01*
G37*
X135400500Y-99296600D02*
X127273500Y-99296600D01*
X127273500Y-98909200D01*
X135400500Y-98909200D01*
X135400500Y-99296600D01*
X130743300Y-98189000D02*
X130355900Y-98189000D01*
X130355900Y-98189000D02*
X130355900Y-106316000D01*
X130355900Y-106316000D02*
X130743300Y-106316000D01*
X130743300Y-106316000D02*
X130743300Y-98189000D01*
G36*
X130743300Y-106316000D02*
G01*
X130355900Y-106316000D01*
X130355900Y-98189000D01*
X130743300Y-98189000D01*
X130743300Y-106316000D01*
G37*
X130743300Y-106316000D02*
X130355900Y-106316000D01*
X130355900Y-98189000D01*
X130743300Y-98189000D01*
X130743300Y-106316000D01*
X127273500Y-105208400D02*
X135400500Y-105208400D01*
X135400500Y-105208400D02*
X135400500Y-105595800D01*
X135400500Y-105595800D02*
X127273500Y-105595800D01*
X127273500Y-105595800D02*
X127273500Y-105208400D01*
G36*
X135400500Y-105595800D02*
G01*
X127273500Y-105595800D01*
X127273500Y-105208400D01*
X135400500Y-105208400D01*
X135400500Y-105595800D01*
G37*
X135400500Y-105595800D02*
X127273500Y-105595800D01*
X127273500Y-105208400D01*
X135400500Y-105208400D01*
X135400500Y-105595800D01*
X127273500Y-105995800D02*
X135400500Y-105995800D01*
X135400500Y-105995800D02*
X135400500Y-106316000D01*
X135400500Y-106316000D02*
X127273500Y-106316000D01*
X127273500Y-106316000D02*
X127273500Y-105995800D01*
G36*
X135400500Y-106316000D02*
G01*
X127273500Y-106316000D01*
X127273500Y-105995800D01*
X135400500Y-105995800D01*
X135400500Y-106316000D01*
G37*
X135400500Y-106316000D02*
X127273500Y-106316000D01*
X127273500Y-105995800D01*
X135400500Y-105995800D01*
X135400500Y-106316000D01*
X127273500Y-100484000D02*
X135400500Y-100484000D01*
X135400500Y-100484000D02*
X135400500Y-100871400D01*
X135400500Y-100871400D02*
X127273500Y-100871400D01*
X127273500Y-100871400D02*
X127273500Y-100484000D01*
G36*
X135400500Y-100871400D02*
G01*
X127273500Y-100871400D01*
X127273500Y-100484000D01*
X135400500Y-100484000D01*
X135400500Y-100871400D01*
G37*
X135400500Y-100871400D02*
X127273500Y-100871400D01*
X127273500Y-100484000D01*
X135400500Y-100484000D01*
X135400500Y-100871400D01*
X133892900Y-98189000D02*
X133505500Y-98189000D01*
X133505500Y-98189000D02*
X133505500Y-106316000D01*
X133505500Y-106316000D02*
X133892900Y-106316000D01*
X133892900Y-106316000D02*
X133892900Y-98189000D01*
G36*
X133892900Y-106316000D02*
G01*
X133505500Y-106316000D01*
X133505500Y-98189000D01*
X133892900Y-98189000D01*
X133892900Y-106316000D01*
G37*
X133892900Y-106316000D02*
X133505500Y-106316000D01*
X133505500Y-98189000D01*
X133892900Y-98189000D01*
X133892900Y-106316000D01*
X133105500Y-98189000D02*
X132718100Y-98189000D01*
X132718100Y-98189000D02*
X132718100Y-106316000D01*
X132718100Y-106316000D02*
X133105500Y-106316000D01*
X133105500Y-106316000D02*
X133105500Y-98189000D01*
G36*
X133105500Y-106316000D02*
G01*
X132718100Y-106316000D01*
X132718100Y-98189000D01*
X133105500Y-98189000D01*
X133105500Y-106316000D01*
G37*
X133105500Y-106316000D02*
X132718100Y-106316000D01*
X132718100Y-98189000D01*
X133105500Y-98189000D01*
X133105500Y-106316000D01*
X127273500Y-102846200D02*
X135400500Y-102846200D01*
X135400500Y-102846200D02*
X135400500Y-103233600D01*
X135400500Y-103233600D02*
X127273500Y-103233600D01*
X127273500Y-103233600D02*
X127273500Y-102846200D01*
G36*
X135400500Y-103233600D02*
G01*
X127273500Y-103233600D01*
X127273500Y-102846200D01*
X135400500Y-102846200D01*
X135400500Y-103233600D01*
G37*
X135400500Y-103233600D02*
X127273500Y-103233600D01*
X127273500Y-102846200D01*
X135400500Y-102846200D01*
X135400500Y-103233600D01*
X134680300Y-98189000D02*
X134292900Y-98189000D01*
X134292900Y-98189000D02*
X134292900Y-106316000D01*
X134292900Y-106316000D02*
X134680300Y-106316000D01*
X134680300Y-106316000D02*
X134680300Y-98189000D01*
G36*
X134680300Y-106316000D02*
G01*
X134292900Y-106316000D01*
X134292900Y-98189000D01*
X134680300Y-98189000D01*
X134680300Y-106316000D01*
G37*
X134680300Y-106316000D02*
X134292900Y-106316000D01*
X134292900Y-98189000D01*
X134680300Y-98189000D01*
X134680300Y-106316000D01*
X129955900Y-98189000D02*
X129568500Y-98189000D01*
X129568500Y-98189000D02*
X129568500Y-106316000D01*
X129568500Y-106316000D02*
X129955900Y-106316000D01*
X129955900Y-106316000D02*
X129955900Y-98189000D01*
G36*
X129955900Y-106316000D02*
G01*
X129568500Y-106316000D01*
X129568500Y-98189000D01*
X129955900Y-98189000D01*
X129955900Y-106316000D01*
G37*
X129955900Y-106316000D02*
X129568500Y-106316000D01*
X129568500Y-98189000D01*
X129955900Y-98189000D01*
X129955900Y-106316000D01*
X129168500Y-98189000D02*
X128781100Y-98189000D01*
X128781100Y-98189000D02*
X128781100Y-106316000D01*
X128781100Y-106316000D02*
X129168500Y-106316000D01*
X129168500Y-106316000D02*
X129168500Y-98189000D01*
G36*
X129168500Y-106316000D02*
G01*
X128781100Y-106316000D01*
X128781100Y-98189000D01*
X129168500Y-98189000D01*
X129168500Y-106316000D01*
G37*
X129168500Y-106316000D02*
X128781100Y-106316000D01*
X128781100Y-98189000D01*
X129168500Y-98189000D01*
X129168500Y-106316000D01*
X127273500Y-103633600D02*
X135400500Y-103633600D01*
X135400500Y-103633600D02*
X135400500Y-104021000D01*
X135400500Y-104021000D02*
X127273500Y-104021000D01*
X127273500Y-104021000D02*
X127273500Y-103633600D01*
G36*
X135400500Y-104021000D02*
G01*
X127273500Y-104021000D01*
X127273500Y-103633600D01*
X135400500Y-103633600D01*
X135400500Y-104021000D01*
G37*
X135400500Y-104021000D02*
X127273500Y-104021000D01*
X127273500Y-103633600D01*
X135400500Y-103633600D01*
X135400500Y-104021000D01*
X127273500Y-98189000D02*
X135400500Y-98189000D01*
X135400500Y-98189000D02*
X135400500Y-98509200D01*
X135400500Y-98509200D02*
X127273500Y-98509200D01*
X127273500Y-98509200D02*
X127273500Y-98189000D01*
G36*
X135400500Y-98509200D02*
G01*
X127273500Y-98509200D01*
X127273500Y-98189000D01*
X135400500Y-98189000D01*
X135400500Y-98509200D01*
G37*
X135400500Y-98509200D02*
X127273500Y-98509200D01*
X127273500Y-98189000D01*
X135400500Y-98189000D01*
X135400500Y-98509200D01*
X127273500Y-102058800D02*
X135400500Y-102058800D01*
X135400500Y-102058800D02*
X135400500Y-102446200D01*
X135400500Y-102446200D02*
X127273500Y-102446200D01*
X127273500Y-102446200D02*
X127273500Y-102058800D01*
G36*
X135400500Y-102446200D02*
G01*
X127273500Y-102446200D01*
X127273500Y-102058800D01*
X135400500Y-102058800D01*
X135400500Y-102446200D01*
G37*
X135400500Y-102446200D02*
X127273500Y-102446200D01*
X127273500Y-102058800D01*
X135400500Y-102058800D01*
X135400500Y-102446200D01*
X127273500Y-101271400D02*
X135400500Y-101271400D01*
X135400500Y-101271400D02*
X135400500Y-101658800D01*
X135400500Y-101658800D02*
X127273500Y-101658800D01*
X127273500Y-101658800D02*
X127273500Y-101271400D01*
G36*
X135400500Y-101658800D02*
G01*
X127273500Y-101658800D01*
X127273500Y-101271400D01*
X135400500Y-101271400D01*
X135400500Y-101658800D01*
G37*
X135400500Y-101658800D02*
X127273500Y-101658800D01*
X127273500Y-101271400D01*
X135400500Y-101271400D01*
X135400500Y-101658800D01*
D11*
X149125000Y-110170000D03*
D12*
X149125000Y-117170000D03*
X142675000Y-117170000D03*
D11*
X142675000Y-110170000D03*
X142695000Y-94340000D03*
D12*
X142695000Y-87340000D03*
X149145000Y-87340000D03*
D11*
X149145000Y-94340000D03*
D13*
X143400000Y-82300000D03*
X148400000Y-82300000D03*
D14*
X120063917Y-103452499D03*
X121713917Y-103452499D03*
D13*
X116200000Y-114600000D03*
X121200000Y-114600000D03*
D15*
X134167677Y-127200000D03*
D16*
X129167677Y-127200000D03*
D17*
X151630000Y-82475000D03*
D18*
X151630000Y-79935000D03*
D15*
X130489223Y-87957000D03*
D16*
X135489223Y-87957000D03*
D19*
X118700000Y-97262500D03*
X117750000Y-99137500D03*
X119650000Y-99137500D03*
D17*
X144100000Y-69100000D03*
D18*
X144100000Y-71640000D03*
X141560000Y-69100000D03*
X141560000Y-71640000D03*
X139020000Y-69100000D03*
X139020000Y-71640000D03*
D17*
X151700000Y-124475000D03*
D18*
X151700000Y-121935000D03*
D20*
X123611852Y-96252502D03*
X123611852Y-97052500D03*
X123611852Y-97852501D03*
X123611852Y-98652500D03*
X123611852Y-99452501D03*
X123611852Y-100252499D03*
X123611852Y-101052500D03*
X123611852Y-101852501D03*
X123611852Y-102652499D03*
X123611852Y-103452500D03*
X123611852Y-104252499D03*
X123611852Y-105052499D03*
X123611852Y-105852500D03*
X123611852Y-106652499D03*
X123611852Y-107452500D03*
X123611852Y-108252498D03*
D21*
X125337002Y-109977648D03*
X126137000Y-109977648D03*
X126937001Y-109977648D03*
X127737000Y-109977648D03*
X128537001Y-109977648D03*
X129337001Y-109977648D03*
X130137000Y-109977648D03*
X130937001Y-109977648D03*
X131736999Y-109977648D03*
X132537000Y-109977648D03*
X133337001Y-109977648D03*
X134136999Y-109977648D03*
X134937000Y-109977648D03*
X135736999Y-109977648D03*
X136537000Y-109977648D03*
X137336998Y-109977648D03*
D20*
X139062148Y-108252498D03*
X139062148Y-107452500D03*
X139062148Y-106652499D03*
X139062148Y-105852500D03*
X139062148Y-105052499D03*
X139062148Y-104252499D03*
X139062148Y-103452500D03*
X139062148Y-102652499D03*
X139062148Y-101852501D03*
X139062148Y-101052500D03*
X139062148Y-100252499D03*
X139062148Y-99452501D03*
X139062148Y-98652500D03*
X139062148Y-97852501D03*
X139062148Y-97052500D03*
X139062148Y-96252502D03*
D21*
X137336998Y-94527352D03*
X136537000Y-94527352D03*
X135736999Y-94527352D03*
X134937000Y-94527352D03*
X134136999Y-94527352D03*
X133336999Y-94527352D03*
X132537000Y-94527352D03*
X131736999Y-94527352D03*
X130937001Y-94527352D03*
X130137000Y-94527352D03*
X129336999Y-94527352D03*
X128537001Y-94527352D03*
X127737000Y-94527352D03*
X126937001Y-94527352D03*
X126137000Y-94527352D03*
X125337002Y-94527352D03*
D22*
X133305500Y-105008400D03*
X134880300Y-105008400D03*
X134880300Y-98709200D03*
X132518100Y-105795800D03*
X134092900Y-102646200D03*
X130943300Y-101071400D03*
X130155900Y-98709200D03*
X132518100Y-102646200D03*
X128581100Y-100284000D03*
X127793700Y-102646200D03*
X134880300Y-101858800D03*
X130155900Y-103433600D03*
X127793700Y-99496600D03*
X130943300Y-104221000D03*
X131730700Y-101858800D03*
X134092900Y-99496600D03*
X134092900Y-104221000D03*
X129368500Y-99496600D03*
X129368500Y-101071400D03*
X130155900Y-101858800D03*
X130943300Y-99496600D03*
X132518100Y-99496600D03*
X133305500Y-98709200D03*
X130943300Y-102646200D03*
X131730700Y-100284000D03*
X130155900Y-100284000D03*
X133305500Y-103433600D03*
X128581100Y-105008400D03*
X133305500Y-100284000D03*
X129368500Y-104221000D03*
X131730700Y-105008400D03*
X134092900Y-101071400D03*
X132518100Y-101071400D03*
X131730700Y-98709200D03*
X128581100Y-101858800D03*
X129368500Y-105795800D03*
X130943300Y-105795800D03*
X130155900Y-105008400D03*
X134880300Y-100284000D03*
X132518100Y-104221000D03*
X127793700Y-101071400D03*
X128581100Y-103433600D03*
X127793700Y-104221000D03*
X131730700Y-103433600D03*
X134092900Y-105795800D03*
X134880300Y-103433600D03*
X128581100Y-98709200D03*
X127793700Y-105795800D03*
X129368500Y-102646200D03*
X133305500Y-101858800D03*
D23*
X124650000Y-115125000D03*
X124650000Y-112175000D03*
D24*
X118625000Y-107200000D03*
X121575000Y-107200000D03*
D17*
X116825000Y-120525000D03*
D18*
X114285000Y-120525000D03*
X111745000Y-120525000D03*
D17*
X106900000Y-101400000D03*
D18*
X106900000Y-98860000D03*
D13*
X148100000Y-122200000D03*
X143100000Y-122200000D03*
D25*
X148200000Y-129000000D03*
D26*
X141700000Y-100825000D03*
X141700000Y-103775000D03*
D27*
X129400000Y-69200000D03*
X129400000Y-71100000D03*
D15*
X134167677Y-116400000D03*
D16*
X129167677Y-116400000D03*
D28*
X102800000Y-101400000D03*
X101000000Y-99500000D03*
X99200000Y-101400000D03*
D15*
X130489223Y-77257000D03*
D16*
X135489223Y-77257000D03*
D13*
X116200000Y-110500000D03*
X121200000Y-110500000D03*
D27*
X131500000Y-69200000D03*
X131500000Y-71100000D03*
D25*
X100000000Y-71000000D03*
X150200000Y-71000000D03*
D17*
X102425000Y-106375000D03*
D18*
X104965000Y-106375000D03*
X102425000Y-108915000D03*
X104965000Y-108915000D03*
X102425000Y-111455000D03*
X104965000Y-111455000D03*
D29*
X123500000Y-86500000D03*
X123500000Y-76340000D03*
D30*
X101427400Y-81420000D03*
D31*
X121300000Y-97025000D03*
X121300000Y-98575000D03*
D25*
X100000000Y-128500000D03*
D27*
X133600000Y-69200000D03*
X133600000Y-71100000D03*
X135700000Y-69200000D03*
X135700000Y-71100000D03*
M02*
