G04 #@! TF.GenerationSoftware,KiCad,Pcbnew,(6.0.1)*
G04 #@! TF.CreationDate,2022-04-19T13:09:52-07:00*
G04 #@! TF.ProjectId,Motherboard,4d6f7468-6572-4626-9f61-72642e6b6963,rev?*
G04 #@! TF.SameCoordinates,Original*
G04 #@! TF.FileFunction,Legend,Top*
G04 #@! TF.FilePolarity,Positive*
%FSLAX46Y46*%
G04 Gerber Fmt 4.6, Leading zero omitted, Abs format (unit mm)*
G04 Created by KiCad (PCBNEW (6.0.1)) date 2022-04-19 13:09:52*
%MOMM*%
%LPD*%
G01*
G04 APERTURE LIST*
G04 Aperture macros list*
%AMRoundRect*
0 Rectangle with rounded corners*
0 $1 Rounding radius*
0 $2 $3 $4 $5 $6 $7 $8 $9 X,Y pos of 4 corners*
0 Add a 4 corners polygon primitive as box body*
4,1,4,$2,$3,$4,$5,$6,$7,$8,$9,$2,$3,0*
0 Add four circle primitives for the rounded corners*
1,1,$1+$1,$2,$3*
1,1,$1+$1,$4,$5*
1,1,$1+$1,$6,$7*
1,1,$1+$1,$8,$9*
0 Add four rect primitives between the rounded corners*
20,1,$1+$1,$2,$3,$4,$5,0*
20,1,$1+$1,$4,$5,$6,$7,0*
20,1,$1+$1,$6,$7,$8,$9,0*
20,1,$1+$1,$8,$9,$2,$3,0*%
G04 Aperture macros list end*
%ADD10C,0.150000*%
%ADD11C,0.120000*%
%ADD12C,0.100000*%
%ADD13R,1.700000X1.700000*%
%ADD14C,2.050000*%
%ADD15C,2.250000*%
%ADD16R,2.500000X2.500000*%
%ADD17O,2.500000X2.500000*%
%ADD18RoundRect,0.237500X-0.300000X-0.237500X0.300000X-0.237500X0.300000X0.237500X-0.300000X0.237500X0*%
%ADD19O,1.700000X1.700000*%
%ADD20RoundRect,0.500000X1.500000X-0.500000X1.500000X0.500000X-1.500000X0.500000X-1.500000X-0.500000X0*%
%ADD21C,1.524000*%
%ADD22C,3.300000*%
%ADD23C,2.500000*%
%ADD24RoundRect,0.850000X-0.850000X-2.150000X0.850000X-2.150000X0.850000X2.150000X-0.850000X2.150000X0*%
%ADD25O,7.000000X3.500000*%
%ADD26O,7.300000X3.500000*%
%ADD27C,4.500000*%
%ADD28C,3.100000*%
%ADD29RoundRect,0.850000X0.850000X2.150000X-0.850000X2.150000X-0.850000X-2.150000X0.850000X-2.150000X0*%
%ADD30RoundRect,0.250000X-0.250000X-1.750000X0.250000X-1.750000X0.250000X1.750000X-0.250000X1.750000X0*%
%ADD31C,3.000000*%
%ADD32R,1.524000X1.524000*%
%ADD33RoundRect,0.237500X-0.237500X0.300000X-0.237500X-0.300000X0.237500X-0.300000X0.237500X0.300000X0*%
%ADD34R,1.500000X1.500000*%
%ADD35C,1.500000*%
%ADD36C,3.500000*%
%ADD37RoundRect,0.249999X-1.425001X0.450001X-1.425001X-0.450001X1.425001X-0.450001X1.425001X0.450001X0*%
%ADD38R,1.100000X1.100000*%
%ADD39RoundRect,0.249999X0.450001X1.075001X-0.450001X1.075001X-0.450001X-1.075001X0.450001X-1.075001X0*%
%ADD40R,0.431800X1.346200*%
%ADD41R,2.413000X1.778000*%
%ADD42R,1.500000X0.400000*%
%ADD43R,2.000000X2.500000*%
%ADD44RoundRect,0.150000X-0.587500X-0.150000X0.587500X-0.150000X0.587500X0.150000X-0.587500X0.150000X0*%
G04 APERTURE END LIST*
D10*
X230000000Y-153100000D02*
X280000000Y-153100000D01*
X280000000Y-153100000D02*
X280000000Y-203100000D01*
X280000000Y-203100000D02*
X230000000Y-203100000D01*
X230000000Y-203100000D02*
X230000000Y-153100000D01*
X199790476Y-101982380D02*
X199790476Y-102696666D01*
X199742857Y-102839523D01*
X199647619Y-102934761D01*
X199504761Y-102982380D01*
X199409523Y-102982380D01*
X200790476Y-102982380D02*
X200219047Y-102982380D01*
X200504761Y-102982380D02*
X200504761Y-101982380D01*
X200409523Y-102125238D01*
X200314285Y-102220476D01*
X200219047Y-102268095D01*
X201409523Y-101982380D02*
X201504761Y-101982380D01*
X201600000Y-102030000D01*
X201647619Y-102077619D01*
X201695238Y-102172857D01*
X201742857Y-102363333D01*
X201742857Y-102601428D01*
X201695238Y-102791904D01*
X201647619Y-102887142D01*
X201600000Y-102934761D01*
X201504761Y-102982380D01*
X201409523Y-102982380D01*
X201314285Y-102934761D01*
X201266666Y-102887142D01*
X201219047Y-102791904D01*
X201171428Y-102601428D01*
X201171428Y-102363333D01*
X201219047Y-102172857D01*
X201266666Y-102077619D01*
X201314285Y-102030000D01*
X201409523Y-101982380D01*
X171702380Y-66333333D02*
X172416666Y-66333333D01*
X172559523Y-66380952D01*
X172654761Y-66476190D01*
X172702380Y-66619047D01*
X172702380Y-66714285D01*
X172130952Y-65714285D02*
X172083333Y-65809523D01*
X172035714Y-65857142D01*
X171940476Y-65904761D01*
X171892857Y-65904761D01*
X171797619Y-65857142D01*
X171750000Y-65809523D01*
X171702380Y-65714285D01*
X171702380Y-65523809D01*
X171750000Y-65428571D01*
X171797619Y-65380952D01*
X171892857Y-65333333D01*
X171940476Y-65333333D01*
X172035714Y-65380952D01*
X172083333Y-65428571D01*
X172130952Y-65523809D01*
X172130952Y-65714285D01*
X172178571Y-65809523D01*
X172226190Y-65857142D01*
X172321428Y-65904761D01*
X172511904Y-65904761D01*
X172607142Y-65857142D01*
X172654761Y-65809523D01*
X172702380Y-65714285D01*
X172702380Y-65523809D01*
X172654761Y-65428571D01*
X172607142Y-65380952D01*
X172511904Y-65333333D01*
X172321428Y-65333333D01*
X172226190Y-65380952D01*
X172178571Y-65428571D01*
X172130952Y-65523809D01*
X280319880Y-73160595D02*
X279319880Y-73160595D01*
X280319880Y-72589166D02*
X279748452Y-73017738D01*
X279319880Y-72589166D02*
X279891309Y-73160595D01*
X280319880Y-71636785D02*
X280319880Y-72208214D01*
X280319880Y-71922500D02*
X279319880Y-71922500D01*
X279462738Y-72017738D01*
X279557976Y-72112976D01*
X279605595Y-72208214D01*
X223265476Y-102282380D02*
X223265476Y-102996666D01*
X223217857Y-103139523D01*
X223122619Y-103234761D01*
X222979761Y-103282380D01*
X222884523Y-103282380D01*
X224265476Y-103282380D02*
X223694047Y-103282380D01*
X223979761Y-103282380D02*
X223979761Y-102282380D01*
X223884523Y-102425238D01*
X223789285Y-102520476D01*
X223694047Y-102568095D01*
X225122619Y-102615714D02*
X225122619Y-103282380D01*
X224884523Y-102234761D02*
X224646428Y-102949047D01*
X225265476Y-102949047D01*
X139707380Y-201611904D02*
X140516904Y-201611904D01*
X140612142Y-201564285D01*
X140659761Y-201516666D01*
X140707380Y-201421428D01*
X140707380Y-201230952D01*
X140659761Y-201135714D01*
X140612142Y-201088095D01*
X140516904Y-201040476D01*
X139707380Y-201040476D01*
X140707380Y-200040476D02*
X140707380Y-200611904D01*
X140707380Y-200326190D02*
X139707380Y-200326190D01*
X139850238Y-200421428D01*
X139945476Y-200516666D01*
X139993095Y-200611904D01*
X224785476Y-98352380D02*
X224785476Y-99066666D01*
X224737857Y-99209523D01*
X224642619Y-99304761D01*
X224499761Y-99352380D01*
X224404523Y-99352380D01*
X225214047Y-98447619D02*
X225261666Y-98400000D01*
X225356904Y-98352380D01*
X225595000Y-98352380D01*
X225690238Y-98400000D01*
X225737857Y-98447619D01*
X225785476Y-98542857D01*
X225785476Y-98638095D01*
X225737857Y-98780952D01*
X225166428Y-99352380D01*
X225785476Y-99352380D01*
X226737857Y-99352380D02*
X226166428Y-99352380D01*
X226452142Y-99352380D02*
X226452142Y-98352380D01*
X226356904Y-98495238D01*
X226261666Y-98590476D01*
X226166428Y-98638095D01*
X140066666Y-78352380D02*
X140066666Y-79066666D01*
X140019047Y-79209523D01*
X139923809Y-79304761D01*
X139780952Y-79352380D01*
X139685714Y-79352380D01*
X140971428Y-78352380D02*
X140780952Y-78352380D01*
X140685714Y-78400000D01*
X140638095Y-78447619D01*
X140542857Y-78590476D01*
X140495238Y-78780952D01*
X140495238Y-79161904D01*
X140542857Y-79257142D01*
X140590476Y-79304761D01*
X140685714Y-79352380D01*
X140876190Y-79352380D01*
X140971428Y-79304761D01*
X141019047Y-79257142D01*
X141066666Y-79161904D01*
X141066666Y-78923809D01*
X141019047Y-78828571D01*
X140971428Y-78780952D01*
X140876190Y-78733333D01*
X140685714Y-78733333D01*
X140590476Y-78780952D01*
X140542857Y-78828571D01*
X140495238Y-78923809D01*
X134032666Y-113828380D02*
X134032666Y-114542666D01*
X133985047Y-114685523D01*
X133889809Y-114780761D01*
X133746952Y-114828380D01*
X133651714Y-114828380D01*
X134937428Y-114161714D02*
X134937428Y-114828380D01*
X134699333Y-113780761D02*
X134461238Y-114495047D01*
X135080285Y-114495047D01*
X220240476Y-119932380D02*
X220240476Y-120646666D01*
X220192857Y-120789523D01*
X220097619Y-120884761D01*
X219954761Y-120932380D01*
X219859523Y-120932380D01*
X221240476Y-120932380D02*
X220669047Y-120932380D01*
X220954761Y-120932380D02*
X220954761Y-119932380D01*
X220859523Y-120075238D01*
X220764285Y-120170476D01*
X220669047Y-120218095D01*
X222145238Y-119932380D02*
X221669047Y-119932380D01*
X221621428Y-120408571D01*
X221669047Y-120360952D01*
X221764285Y-120313333D01*
X222002380Y-120313333D01*
X222097619Y-120360952D01*
X222145238Y-120408571D01*
X222192857Y-120503809D01*
X222192857Y-120741904D01*
X222145238Y-120837142D01*
X222097619Y-120884761D01*
X222002380Y-120932380D01*
X221764285Y-120932380D01*
X221669047Y-120884761D01*
X221621428Y-120837142D01*
X214965476Y-102282380D02*
X214965476Y-102996666D01*
X214917857Y-103139523D01*
X214822619Y-103234761D01*
X214679761Y-103282380D01*
X214584523Y-103282380D01*
X215394047Y-102377619D02*
X215441666Y-102330000D01*
X215536904Y-102282380D01*
X215775000Y-102282380D01*
X215870238Y-102330000D01*
X215917857Y-102377619D01*
X215965476Y-102472857D01*
X215965476Y-102568095D01*
X215917857Y-102710952D01*
X215346428Y-103282380D01*
X215965476Y-103282380D01*
X216584523Y-102282380D02*
X216679761Y-102282380D01*
X216775000Y-102330000D01*
X216822619Y-102377619D01*
X216870238Y-102472857D01*
X216917857Y-102663333D01*
X216917857Y-102901428D01*
X216870238Y-103091904D01*
X216822619Y-103187142D01*
X216775000Y-103234761D01*
X216679761Y-103282380D01*
X216584523Y-103282380D01*
X216489285Y-103234761D01*
X216441666Y-103187142D01*
X216394047Y-103091904D01*
X216346428Y-102901428D01*
X216346428Y-102663333D01*
X216394047Y-102472857D01*
X216441666Y-102377619D01*
X216489285Y-102330000D01*
X216584523Y-102282380D01*
X251782380Y-79083333D02*
X252496666Y-79083333D01*
X252639523Y-79130952D01*
X252734761Y-79226190D01*
X252782380Y-79369047D01*
X252782380Y-79464285D01*
X251877619Y-78654761D02*
X251830000Y-78607142D01*
X251782380Y-78511904D01*
X251782380Y-78273809D01*
X251830000Y-78178571D01*
X251877619Y-78130952D01*
X251972857Y-78083333D01*
X252068095Y-78083333D01*
X252210952Y-78130952D01*
X252782380Y-78702380D01*
X252782380Y-78083333D01*
X209190476Y-203552380D02*
X209190476Y-204266666D01*
X209142857Y-204409523D01*
X209047619Y-204504761D01*
X208904761Y-204552380D01*
X208809523Y-204552380D01*
X209619047Y-203647619D02*
X209666666Y-203600000D01*
X209761904Y-203552380D01*
X210000000Y-203552380D01*
X210095238Y-203600000D01*
X210142857Y-203647619D01*
X210190476Y-203742857D01*
X210190476Y-203838095D01*
X210142857Y-203980952D01*
X209571428Y-204552380D01*
X210190476Y-204552380D01*
X210571428Y-203647619D02*
X210619047Y-203600000D01*
X210714285Y-203552380D01*
X210952380Y-203552380D01*
X211047619Y-203600000D01*
X211095238Y-203647619D01*
X211142857Y-203742857D01*
X211142857Y-203838095D01*
X211095238Y-203980952D01*
X210523809Y-204552380D01*
X211142857Y-204552380D01*
X257233095Y-122707380D02*
X257233095Y-123516904D01*
X257280714Y-123612142D01*
X257328333Y-123659761D01*
X257423571Y-123707380D01*
X257614047Y-123707380D01*
X257709285Y-123659761D01*
X257756904Y-123612142D01*
X257804523Y-123516904D01*
X257804523Y-122707380D01*
X258185476Y-122707380D02*
X258804523Y-122707380D01*
X258471190Y-123088333D01*
X258614047Y-123088333D01*
X258709285Y-123135952D01*
X258756904Y-123183571D01*
X258804523Y-123278809D01*
X258804523Y-123516904D01*
X258756904Y-123612142D01*
X258709285Y-123659761D01*
X258614047Y-123707380D01*
X258328333Y-123707380D01*
X258233095Y-123659761D01*
X258185476Y-123612142D01*
X284538095Y-192852380D02*
X284538095Y-191852380D01*
X284538095Y-192328571D02*
X285109523Y-192328571D01*
X285109523Y-192852380D02*
X285109523Y-191852380D01*
X286109523Y-192852380D02*
X285538095Y-192852380D01*
X285823809Y-192852380D02*
X285823809Y-191852380D01*
X285728571Y-191995238D01*
X285633333Y-192090476D01*
X285538095Y-192138095D01*
X181902380Y-157516904D02*
X182711904Y-157516904D01*
X182807142Y-157469285D01*
X182854761Y-157421666D01*
X182902380Y-157326428D01*
X182902380Y-157135952D01*
X182854761Y-157040714D01*
X182807142Y-156993095D01*
X182711904Y-156945476D01*
X181902380Y-156945476D01*
X181997619Y-156516904D02*
X181950000Y-156469285D01*
X181902380Y-156374047D01*
X181902380Y-156135952D01*
X181950000Y-156040714D01*
X181997619Y-155993095D01*
X182092857Y-155945476D01*
X182188095Y-155945476D01*
X182330952Y-155993095D01*
X182902380Y-156564523D01*
X182902380Y-155945476D01*
X160002380Y-138874047D02*
X160002380Y-139445476D01*
X160002380Y-139159761D02*
X159002380Y-139159761D01*
X159145238Y-139255000D01*
X159240476Y-139350238D01*
X159288095Y-139445476D01*
X159097619Y-138493095D02*
X159050000Y-138445476D01*
X159002380Y-138350238D01*
X159002380Y-138112142D01*
X159050000Y-138016904D01*
X159097619Y-137969285D01*
X159192857Y-137921666D01*
X159288095Y-137921666D01*
X159430952Y-137969285D01*
X160002380Y-138540714D01*
X160002380Y-137921666D01*
X159002380Y-137635952D02*
X160002380Y-137302619D01*
X159002380Y-136969285D01*
X152150000Y-138916904D02*
X152102380Y-139012142D01*
X152102380Y-139155000D01*
X152150000Y-139297857D01*
X152245238Y-139393095D01*
X152340476Y-139440714D01*
X152530952Y-139488333D01*
X152673809Y-139488333D01*
X152864285Y-139440714D01*
X152959523Y-139393095D01*
X153054761Y-139297857D01*
X153102380Y-139155000D01*
X153102380Y-139059761D01*
X153054761Y-138916904D01*
X153007142Y-138869285D01*
X152673809Y-138869285D01*
X152673809Y-139059761D01*
X153102380Y-138440714D02*
X152102380Y-138440714D01*
X153102380Y-137869285D01*
X152102380Y-137869285D01*
X153102380Y-137393095D02*
X152102380Y-137393095D01*
X152102380Y-137155000D01*
X152150000Y-137012142D01*
X152245238Y-136916904D01*
X152340476Y-136869285D01*
X152530952Y-136821666D01*
X152673809Y-136821666D01*
X152864285Y-136869285D01*
X152959523Y-136916904D01*
X153054761Y-137012142D01*
X153102380Y-137155000D01*
X153102380Y-137393095D01*
X239516666Y-78132380D02*
X239516666Y-78846666D01*
X239469047Y-78989523D01*
X239373809Y-79084761D01*
X239230952Y-79132380D01*
X239135714Y-79132380D01*
X240040476Y-79132380D02*
X240230952Y-79132380D01*
X240326190Y-79084761D01*
X240373809Y-79037142D01*
X240469047Y-78894285D01*
X240516666Y-78703809D01*
X240516666Y-78322857D01*
X240469047Y-78227619D01*
X240421428Y-78180000D01*
X240326190Y-78132380D01*
X240135714Y-78132380D01*
X240040476Y-78180000D01*
X239992857Y-78227619D01*
X239945238Y-78322857D01*
X239945238Y-78560952D01*
X239992857Y-78656190D01*
X240040476Y-78703809D01*
X240135714Y-78751428D01*
X240326190Y-78751428D01*
X240421428Y-78703809D01*
X240469047Y-78656190D01*
X240516666Y-78560952D01*
X220360476Y-189902380D02*
X220360476Y-190616666D01*
X220312857Y-190759523D01*
X220217619Y-190854761D01*
X220074761Y-190902380D01*
X219979523Y-190902380D01*
X221360476Y-190902380D02*
X220789047Y-190902380D01*
X221074761Y-190902380D02*
X221074761Y-189902380D01*
X220979523Y-190045238D01*
X220884285Y-190140476D01*
X220789047Y-190188095D01*
X222217619Y-189902380D02*
X222027142Y-189902380D01*
X221931904Y-189950000D01*
X221884285Y-189997619D01*
X221789047Y-190140476D01*
X221741428Y-190330952D01*
X221741428Y-190711904D01*
X221789047Y-190807142D01*
X221836666Y-190854761D01*
X221931904Y-190902380D01*
X222122380Y-190902380D01*
X222217619Y-190854761D01*
X222265238Y-190807142D01*
X222312857Y-190711904D01*
X222312857Y-190473809D01*
X222265238Y-190378571D01*
X222217619Y-190330952D01*
X222122380Y-190283333D01*
X221931904Y-190283333D01*
X221836666Y-190330952D01*
X221789047Y-190378571D01*
X221741428Y-190473809D01*
X148866666Y-80082380D02*
X148866666Y-80796666D01*
X148819047Y-80939523D01*
X148723809Y-81034761D01*
X148580952Y-81082380D01*
X148485714Y-81082380D01*
X149819047Y-80082380D02*
X149342857Y-80082380D01*
X149295238Y-80558571D01*
X149342857Y-80510952D01*
X149438095Y-80463333D01*
X149676190Y-80463333D01*
X149771428Y-80510952D01*
X149819047Y-80558571D01*
X149866666Y-80653809D01*
X149866666Y-80891904D01*
X149819047Y-80987142D01*
X149771428Y-81034761D01*
X149676190Y-81082380D01*
X149438095Y-81082380D01*
X149342857Y-81034761D01*
X149295238Y-80987142D01*
X257783333Y-82552380D02*
X257450000Y-82076190D01*
X257211904Y-82552380D02*
X257211904Y-81552380D01*
X257592857Y-81552380D01*
X257688095Y-81600000D01*
X257735714Y-81647619D01*
X257783333Y-81742857D01*
X257783333Y-81885714D01*
X257735714Y-81980952D01*
X257688095Y-82028571D01*
X257592857Y-82076190D01*
X257211904Y-82076190D01*
X258164285Y-81647619D02*
X258211904Y-81600000D01*
X258307142Y-81552380D01*
X258545238Y-81552380D01*
X258640476Y-81600000D01*
X258688095Y-81647619D01*
X258735714Y-81742857D01*
X258735714Y-81838095D01*
X258688095Y-81980952D01*
X258116666Y-82552380D01*
X258735714Y-82552380D01*
X213096666Y-65379880D02*
X213096666Y-66094166D01*
X213049047Y-66237023D01*
X212953809Y-66332261D01*
X212810952Y-66379880D01*
X212715714Y-66379880D01*
X214096666Y-66379880D02*
X213525238Y-66379880D01*
X213810952Y-66379880D02*
X213810952Y-65379880D01*
X213715714Y-65522738D01*
X213620476Y-65617976D01*
X213525238Y-65665595D01*
X134238095Y-192452380D02*
X134238095Y-191452380D01*
X134238095Y-191928571D02*
X134809523Y-191928571D01*
X134809523Y-192452380D02*
X134809523Y-191452380D01*
X135238095Y-191547619D02*
X135285714Y-191500000D01*
X135380952Y-191452380D01*
X135619047Y-191452380D01*
X135714285Y-191500000D01*
X135761904Y-191547619D01*
X135809523Y-191642857D01*
X135809523Y-191738095D01*
X135761904Y-191880952D01*
X135190476Y-192452380D01*
X135809523Y-192452380D01*
X219265476Y-102282380D02*
X219265476Y-102996666D01*
X219217857Y-103139523D01*
X219122619Y-103234761D01*
X218979761Y-103282380D01*
X218884523Y-103282380D01*
X220265476Y-103282380D02*
X219694047Y-103282380D01*
X219979761Y-103282380D02*
X219979761Y-102282380D01*
X219884523Y-102425238D01*
X219789285Y-102520476D01*
X219694047Y-102568095D01*
X220836904Y-102710952D02*
X220741666Y-102663333D01*
X220694047Y-102615714D01*
X220646428Y-102520476D01*
X220646428Y-102472857D01*
X220694047Y-102377619D01*
X220741666Y-102330000D01*
X220836904Y-102282380D01*
X221027380Y-102282380D01*
X221122619Y-102330000D01*
X221170238Y-102377619D01*
X221217857Y-102472857D01*
X221217857Y-102520476D01*
X221170238Y-102615714D01*
X221122619Y-102663333D01*
X221027380Y-102710952D01*
X220836904Y-102710952D01*
X220741666Y-102758571D01*
X220694047Y-102806190D01*
X220646428Y-102901428D01*
X220646428Y-103091904D01*
X220694047Y-103187142D01*
X220741666Y-103234761D01*
X220836904Y-103282380D01*
X221027380Y-103282380D01*
X221122619Y-103234761D01*
X221170238Y-103187142D01*
X221217857Y-103091904D01*
X221217857Y-102901428D01*
X221170238Y-102806190D01*
X221122619Y-102758571D01*
X221027380Y-102710952D01*
X220642380Y-193786666D02*
X220166190Y-194120000D01*
X220642380Y-194358095D02*
X219642380Y-194358095D01*
X219642380Y-193977142D01*
X219690000Y-193881904D01*
X219737619Y-193834285D01*
X219832857Y-193786666D01*
X219975714Y-193786666D01*
X220070952Y-193834285D01*
X220118571Y-193881904D01*
X220166190Y-193977142D01*
X220166190Y-194358095D01*
X219642380Y-193453333D02*
X219642380Y-192834285D01*
X220023333Y-193167619D01*
X220023333Y-193024761D01*
X220070952Y-192929523D01*
X220118571Y-192881904D01*
X220213809Y-192834285D01*
X220451904Y-192834285D01*
X220547142Y-192881904D01*
X220594761Y-192929523D01*
X220642380Y-193024761D01*
X220642380Y-193310476D01*
X220594761Y-193405714D01*
X220547142Y-193453333D01*
X281447380Y-69665095D02*
X280447380Y-69665095D01*
X280447380Y-69427000D01*
X280495000Y-69284142D01*
X280590238Y-69188904D01*
X280685476Y-69141285D01*
X280875952Y-69093666D01*
X281018809Y-69093666D01*
X281209285Y-69141285D01*
X281304523Y-69188904D01*
X281399761Y-69284142D01*
X281447380Y-69427000D01*
X281447380Y-69665095D01*
X281447380Y-68141285D02*
X281447380Y-68712714D01*
X281447380Y-68427000D02*
X280447380Y-68427000D01*
X280590238Y-68522238D01*
X280685476Y-68617476D01*
X280733095Y-68712714D01*
X220415476Y-136257380D02*
X220415476Y-136971666D01*
X220367857Y-137114523D01*
X220272619Y-137209761D01*
X220129761Y-137257380D01*
X220034523Y-137257380D01*
X221415476Y-137257380D02*
X220844047Y-137257380D01*
X221129761Y-137257380D02*
X221129761Y-136257380D01*
X221034523Y-136400238D01*
X220939285Y-136495476D01*
X220844047Y-136543095D01*
X221891666Y-137257380D02*
X222082142Y-137257380D01*
X222177380Y-137209761D01*
X222225000Y-137162142D01*
X222320238Y-137019285D01*
X222367857Y-136828809D01*
X222367857Y-136447857D01*
X222320238Y-136352619D01*
X222272619Y-136305000D01*
X222177380Y-136257380D01*
X221986904Y-136257380D01*
X221891666Y-136305000D01*
X221844047Y-136352619D01*
X221796428Y-136447857D01*
X221796428Y-136685952D01*
X221844047Y-136781190D01*
X221891666Y-136828809D01*
X221986904Y-136876428D01*
X222177380Y-136876428D01*
X222272619Y-136828809D01*
X222320238Y-136781190D01*
X222367857Y-136685952D01*
X251782380Y-84733333D02*
X252496666Y-84733333D01*
X252639523Y-84780952D01*
X252734761Y-84876190D01*
X252782380Y-85019047D01*
X252782380Y-85114285D01*
X251782380Y-84352380D02*
X251782380Y-83733333D01*
X252163333Y-84066666D01*
X252163333Y-83923809D01*
X252210952Y-83828571D01*
X252258571Y-83780952D01*
X252353809Y-83733333D01*
X252591904Y-83733333D01*
X252687142Y-83780952D01*
X252734761Y-83828571D01*
X252782380Y-83923809D01*
X252782380Y-84209523D01*
X252734761Y-84304761D01*
X252687142Y-84352380D01*
X272902380Y-84266666D02*
X272426190Y-84600000D01*
X272902380Y-84838095D02*
X271902380Y-84838095D01*
X271902380Y-84457142D01*
X271950000Y-84361904D01*
X271997619Y-84314285D01*
X272092857Y-84266666D01*
X272235714Y-84266666D01*
X272330952Y-84314285D01*
X272378571Y-84361904D01*
X272426190Y-84457142D01*
X272426190Y-84838095D01*
X272902380Y-83314285D02*
X272902380Y-83885714D01*
X272902380Y-83600000D02*
X271902380Y-83600000D01*
X272045238Y-83695238D01*
X272140476Y-83790476D01*
X272188095Y-83885714D01*
X136944095Y-93631595D02*
X136944095Y-94441119D01*
X136991714Y-94536357D01*
X137039333Y-94583976D01*
X137134571Y-94631595D01*
X137325047Y-94631595D01*
X137420285Y-94583976D01*
X137467904Y-94536357D01*
X137515523Y-94441119D01*
X137515523Y-93631595D01*
X138467904Y-93631595D02*
X137991714Y-93631595D01*
X137944095Y-94107786D01*
X137991714Y-94060167D01*
X138086952Y-94012548D01*
X138325047Y-94012548D01*
X138420285Y-94060167D01*
X138467904Y-94107786D01*
X138515523Y-94203024D01*
X138515523Y-94441119D01*
X138467904Y-94536357D01*
X138420285Y-94583976D01*
X138325047Y-94631595D01*
X138086952Y-94631595D01*
X137991714Y-94583976D01*
X137944095Y-94536357D01*
X284638095Y-93752380D02*
X284638095Y-92752380D01*
X284638095Y-93228571D02*
X285209523Y-93228571D01*
X285209523Y-93752380D02*
X285209523Y-92752380D01*
X286114285Y-93085714D02*
X286114285Y-93752380D01*
X285876190Y-92704761D02*
X285638095Y-93419047D01*
X286257142Y-93419047D01*
X213682380Y-88761904D02*
X214491904Y-88761904D01*
X214587142Y-88714285D01*
X214634761Y-88666666D01*
X214682380Y-88571428D01*
X214682380Y-88380952D01*
X214634761Y-88285714D01*
X214587142Y-88238095D01*
X214491904Y-88190476D01*
X213682380Y-88190476D01*
X214015714Y-87285714D02*
X214682380Y-87285714D01*
X213634761Y-87523809D02*
X214349047Y-87761904D01*
X214349047Y-87142857D01*
X145838095Y-89552380D02*
X145838095Y-90361904D01*
X145885714Y-90457142D01*
X145933333Y-90504761D01*
X146028571Y-90552380D01*
X146219047Y-90552380D01*
X146314285Y-90504761D01*
X146361904Y-90457142D01*
X146409523Y-90361904D01*
X146409523Y-89552380D01*
X146790476Y-89552380D02*
X147457142Y-89552380D01*
X147028571Y-90552380D01*
X133338095Y-94002380D02*
X133338095Y-93002380D01*
X133338095Y-93478571D02*
X133909523Y-93478571D01*
X133909523Y-94002380D02*
X133909523Y-93002380D01*
X134290476Y-93002380D02*
X134909523Y-93002380D01*
X134576190Y-93383333D01*
X134719047Y-93383333D01*
X134814285Y-93430952D01*
X134861904Y-93478571D01*
X134909523Y-93573809D01*
X134909523Y-93811904D01*
X134861904Y-93907142D01*
X134814285Y-93954761D01*
X134719047Y-94002380D01*
X134433333Y-94002380D01*
X134338095Y-93954761D01*
X134290476Y-93907142D01*
X215540476Y-80927380D02*
X215540476Y-81641666D01*
X215492857Y-81784523D01*
X215397619Y-81879761D01*
X215254761Y-81927380D01*
X215159523Y-81927380D01*
X216540476Y-81927380D02*
X215969047Y-81927380D01*
X216254761Y-81927380D02*
X216254761Y-80927380D01*
X216159523Y-81070238D01*
X216064285Y-81165476D01*
X215969047Y-81213095D01*
X216873809Y-80927380D02*
X217540476Y-80927380D01*
X217111904Y-81927380D01*
X267782380Y-150458333D02*
X268496666Y-150458333D01*
X268639523Y-150505952D01*
X268734761Y-150601190D01*
X268782380Y-150744047D01*
X268782380Y-150839285D01*
X267782380Y-150077380D02*
X267782380Y-149410714D01*
X268782380Y-149839285D01*
X159684380Y-85990904D02*
X160493904Y-85990904D01*
X160589142Y-85943285D01*
X160636761Y-85895666D01*
X160684380Y-85800428D01*
X160684380Y-85609952D01*
X160636761Y-85514714D01*
X160589142Y-85467095D01*
X160493904Y-85419476D01*
X159684380Y-85419476D01*
X159684380Y-84514714D02*
X159684380Y-84705190D01*
X159732000Y-84800428D01*
X159779619Y-84848047D01*
X159922476Y-84943285D01*
X160112952Y-84990904D01*
X160493904Y-84990904D01*
X160589142Y-84943285D01*
X160636761Y-84895666D01*
X160684380Y-84800428D01*
X160684380Y-84609952D01*
X160636761Y-84514714D01*
X160589142Y-84467095D01*
X160493904Y-84419476D01*
X160255809Y-84419476D01*
X160160571Y-84467095D01*
X160112952Y-84514714D01*
X160065333Y-84609952D01*
X160065333Y-84800428D01*
X160112952Y-84895666D01*
X160160571Y-84943285D01*
X160255809Y-84990904D01*
X265904761Y-82247619D02*
X265809523Y-82200000D01*
X265714285Y-82104761D01*
X265571428Y-81961904D01*
X265476190Y-81914285D01*
X265380952Y-81914285D01*
X265428571Y-82152380D02*
X265333333Y-82104761D01*
X265238095Y-82009523D01*
X265190476Y-81819047D01*
X265190476Y-81485714D01*
X265238095Y-81295238D01*
X265333333Y-81200000D01*
X265428571Y-81152380D01*
X265619047Y-81152380D01*
X265714285Y-81200000D01*
X265809523Y-81295238D01*
X265857142Y-81485714D01*
X265857142Y-81819047D01*
X265809523Y-82009523D01*
X265714285Y-82104761D01*
X265619047Y-82152380D01*
X265428571Y-82152380D01*
X266809523Y-82152380D02*
X266238095Y-82152380D01*
X266523809Y-82152380D02*
X266523809Y-81152380D01*
X266428571Y-81295238D01*
X266333333Y-81390476D01*
X266238095Y-81438095D01*
D11*
X201930000Y-106510000D02*
X201930000Y-106630000D01*
X200600000Y-103970000D02*
X201930000Y-103970000D01*
X199270000Y-106630000D02*
X201930000Y-106630000D01*
X201930000Y-103970000D02*
X201930000Y-105300000D01*
X199270000Y-106510000D02*
X199270000Y-106630000D01*
X175200000Y-69680000D02*
X178800000Y-69680000D01*
X175200000Y-62320000D02*
X178800000Y-62320000D01*
X173320000Y-67800000D02*
X173320000Y-64200000D01*
X180680000Y-67800000D02*
X180680000Y-64200000D01*
X276097500Y-63942500D02*
X256917500Y-63942500D01*
X279307500Y-63692500D02*
X279307500Y-66092500D01*
X279057500Y-74242500D02*
X277917500Y-74242500D01*
X254757500Y-74242500D02*
X254757500Y-63942500D01*
X254757500Y-63942500D02*
X255897500Y-63942500D01*
X277207500Y-69492500D02*
X278407500Y-69492500D01*
X259357500Y-74232500D02*
X254757500Y-74242500D01*
X277207500Y-68792500D02*
X277207500Y-69492500D01*
X276967500Y-63692500D02*
X279307500Y-63692500D01*
X279057500Y-74242500D02*
X279057500Y-63942500D01*
X279057500Y-63942500D02*
X278717500Y-63942500D01*
X277607500Y-68792500D02*
X278007500Y-69492500D01*
X276897500Y-74242500D02*
X260417500Y-74242500D01*
X278407500Y-69492500D02*
X278407500Y-68792500D01*
X278407500Y-68792500D02*
X277207500Y-68792500D01*
X144653733Y-97173454D02*
X144946267Y-97173454D01*
X144653733Y-96153454D02*
X144946267Y-96153454D01*
X225405000Y-104270000D02*
X225405000Y-105600000D01*
X222745000Y-109470000D02*
X225405000Y-109470000D01*
X222745000Y-106870000D02*
X225405000Y-106870000D01*
X222745000Y-106870000D02*
X222745000Y-109470000D01*
X225405000Y-106870000D02*
X225405000Y-109470000D01*
X224075000Y-104270000D02*
X225405000Y-104270000D01*
X146055000Y-202650000D02*
X141455000Y-202650000D01*
X141455000Y-202650000D02*
X141455000Y-103750000D01*
X141455000Y-103750000D02*
X146055000Y-103750000D01*
X146055000Y-103750000D02*
X146055000Y-202650000D01*
X135067500Y-83000000D02*
X135067500Y-53000000D01*
X145567500Y-53000000D02*
X145567500Y-83000000D01*
X145567500Y-84887500D02*
X135067500Y-84912500D01*
X145567500Y-55000000D02*
X135067500Y-55000000D01*
X138046000Y-117326000D02*
X138046000Y-120926000D01*
X130686000Y-117326000D02*
X130686000Y-120926000D01*
X132566000Y-115446000D02*
X136166000Y-115446000D01*
X132566000Y-122806000D02*
X136166000Y-122806000D01*
X222380000Y-121920000D02*
X222380000Y-123250000D01*
X219720000Y-124520000D02*
X219720000Y-129660000D01*
X222380000Y-124520000D02*
X222380000Y-129660000D01*
X221050000Y-121920000D02*
X222380000Y-121920000D01*
X219720000Y-124520000D02*
X222380000Y-124520000D01*
X219720000Y-129660000D02*
X222380000Y-129660000D01*
X214445000Y-106870000D02*
X214445000Y-109470000D01*
X214445000Y-109470000D02*
X217105000Y-109470000D01*
X217105000Y-104270000D02*
X217105000Y-105600000D01*
X214445000Y-106870000D02*
X217105000Y-106870000D01*
X215775000Y-104270000D02*
X217105000Y-104270000D01*
X217105000Y-106870000D02*
X217105000Y-109470000D01*
X248730000Y-77420000D02*
X248730000Y-80080000D01*
X250000000Y-77420000D02*
X251330000Y-77420000D01*
X243590000Y-77420000D02*
X243590000Y-80080000D01*
X248730000Y-77420000D02*
X243590000Y-77420000D01*
X248730000Y-80080000D02*
X243590000Y-80080000D01*
X251330000Y-77420000D02*
X251330000Y-78750000D01*
X226595000Y-146755000D02*
X288395000Y-146755000D01*
X288395000Y-146755000D02*
X288395000Y-100255000D01*
X288395000Y-100255000D02*
X226595000Y-100255000D01*
X226595000Y-100255000D02*
X226595000Y-146755000D01*
X215650000Y-172155000D02*
X215650000Y-171455000D01*
D12*
X211250000Y-175555000D02*
X211250000Y-167655000D01*
D11*
X215650000Y-174705000D02*
X215650000Y-174005000D01*
X215650000Y-169255000D02*
X215650000Y-168555000D01*
X212750000Y-171455000D02*
X215650000Y-171455000D01*
X212750000Y-174005000D02*
X215650000Y-174005000D01*
X212750000Y-168555000D02*
X215650000Y-168555000D01*
X212750000Y-169255000D02*
X215650000Y-169255000D01*
D12*
X211250000Y-167655000D02*
X212750000Y-167655000D01*
D11*
X212750000Y-172155000D02*
X215650000Y-172155000D01*
D12*
X212750000Y-175555000D02*
X211250000Y-175555000D01*
D11*
X212750000Y-174705000D02*
X215650000Y-174705000D01*
X211250000Y-172955000D02*
X212750000Y-172955000D01*
D12*
X212750000Y-167655000D02*
X212750000Y-175555000D01*
D11*
X211250000Y-170255000D02*
X212750000Y-170255000D01*
X219350000Y-176155000D02*
X207750000Y-176155000D01*
X207750000Y-176155000D02*
X207750000Y-167155000D01*
X207750000Y-167155000D02*
X219350000Y-167155000D01*
X219350000Y-167155000D02*
X219350000Y-176155000D01*
X153650000Y-142155000D02*
X158450000Y-142155000D01*
X158450000Y-142155000D02*
X158450000Y-134255000D01*
X158450000Y-134255000D02*
X153650000Y-134255000D01*
X153650000Y-134255000D02*
X153650000Y-142155000D01*
X147850000Y-197255000D02*
X212350000Y-197255000D01*
X212350000Y-197255000D02*
X212350000Y-111655000D01*
X212350000Y-111655000D02*
X147850000Y-111655000D01*
X147850000Y-111655000D02*
X147850000Y-197255000D01*
X210450000Y-174255000D02*
G75*
G03*
X210450000Y-174255000I-800000J0D01*
G01*
X210450000Y-171655000D02*
G75*
G03*
X210450000Y-171655000I-800000J0D01*
G01*
X210450000Y-169155000D02*
G75*
G03*
X210450000Y-169155000I-800000J0D01*
G01*
X241180000Y-82660000D02*
X241180000Y-82780000D01*
X241180000Y-80120000D02*
X241180000Y-81450000D01*
X239850000Y-80120000D02*
X241180000Y-80120000D01*
X238520000Y-82780000D02*
X241180000Y-82780000D01*
X238520000Y-82660000D02*
X238520000Y-82780000D01*
X139790000Y-88953733D02*
X139790000Y-89246267D01*
X140810000Y-88953733D02*
X140810000Y-89246267D01*
X227480000Y-183870000D02*
X227480000Y-186050000D01*
X228480000Y-172400000D02*
X227480000Y-172400000D01*
X214860000Y-183870000D02*
X214860000Y-186050000D01*
X213860000Y-171780000D02*
X228480000Y-171780000D01*
X214860000Y-172400000D02*
X213860000Y-172400000D01*
X224270000Y-189050000D02*
X225070000Y-189050000D01*
X228480000Y-171780000D02*
X228480000Y-172400000D01*
X213860000Y-172400000D02*
X213860000Y-171780000D01*
X227480000Y-172400000D02*
X227480000Y-180370000D01*
X226360000Y-188900000D02*
X215980000Y-188900000D01*
X214860000Y-180370000D02*
X214860000Y-172400000D01*
X150530000Y-84610000D02*
X150530000Y-84730000D01*
X149200000Y-82070000D02*
X150530000Y-82070000D01*
X147870000Y-84610000D02*
X147870000Y-84730000D01*
X147870000Y-84730000D02*
X150530000Y-84730000D01*
X150530000Y-82070000D02*
X150530000Y-83400000D01*
X256290000Y-79822936D02*
X256290000Y-84177064D01*
X259710000Y-79822936D02*
X259710000Y-84177064D01*
X224270000Y-66127500D02*
X224270000Y-60127500D01*
X225920000Y-68787500D02*
X225920000Y-66127500D01*
X219190000Y-66127500D02*
X219190000Y-60127500D01*
X217410000Y-60127500D02*
X217410000Y-66127500D01*
X231000000Y-68787500D02*
X231000000Y-66127500D01*
X233540000Y-68787500D02*
X233540000Y-66127500D01*
X234430000Y-60127500D02*
X235190000Y-60127500D01*
X236140000Y-68787500D02*
X236140000Y-66127500D01*
X200500000Y-68587500D02*
X203100000Y-68587500D01*
X216950000Y-66127500D02*
X216950000Y-60127500D01*
X226810000Y-60127500D02*
X227570000Y-60127500D01*
X229350000Y-60127500D02*
X230110000Y-60127500D01*
X200500000Y-65187500D02*
X200500000Y-68587500D01*
X217190000Y-66127500D02*
X217190000Y-60127500D01*
X217070000Y-66127500D02*
X217070000Y-60127500D01*
X215615000Y-68937500D02*
X236055000Y-68937500D01*
X229350000Y-66127500D02*
X229350000Y-60127500D01*
X219950000Y-60127500D02*
X219950000Y-66127500D01*
X231890000Y-66127500D02*
X231890000Y-60127500D01*
X220840000Y-68787500D02*
X220840000Y-66127500D01*
X224270000Y-60127500D02*
X225030000Y-60127500D01*
X251300000Y-68487500D02*
X248700000Y-68487500D01*
X236140000Y-66127500D02*
X215700000Y-66127500D01*
X215700000Y-66127500D02*
X215700000Y-68787500D01*
X228460000Y-68787500D02*
X228460000Y-66127500D01*
X231890000Y-60127500D02*
X232650000Y-60127500D01*
X219190000Y-60127500D02*
X219950000Y-60127500D01*
X216650000Y-66127500D02*
X216650000Y-60127500D01*
X216830000Y-66127500D02*
X216830000Y-60127500D01*
X221730000Y-66127500D02*
X221730000Y-60127500D01*
X211100000Y-73187500D02*
X211100000Y-71037500D01*
X227570000Y-60127500D02*
X227570000Y-66127500D01*
X222490000Y-60127500D02*
X222490000Y-66127500D01*
X235190000Y-60127500D02*
X235190000Y-66127500D01*
X223380000Y-68787500D02*
X223380000Y-66127500D01*
X212300000Y-73187500D02*
X212300000Y-70987500D01*
X217310000Y-66127500D02*
X217310000Y-60127500D01*
X226810000Y-66127500D02*
X226810000Y-60127500D01*
X216710000Y-66127500D02*
X216710000Y-60127500D01*
X221730000Y-60127500D02*
X222490000Y-60127500D01*
X216650000Y-60127500D02*
X217410000Y-60127500D01*
X225030000Y-60127500D02*
X225030000Y-66127500D01*
X251300000Y-64987500D02*
X251300000Y-68487500D01*
X232650000Y-60127500D02*
X232650000Y-66127500D01*
X234430000Y-66127500D02*
X234430000Y-60127500D01*
X230110000Y-60127500D02*
X230110000Y-66127500D01*
X218300000Y-68787500D02*
X218300000Y-66127500D01*
X220075000Y-104270000D02*
X221405000Y-104270000D01*
X221405000Y-104270000D02*
X221405000Y-105600000D01*
X218745000Y-109470000D02*
X221405000Y-109470000D01*
X218745000Y-106870000D02*
X218745000Y-109470000D01*
X221405000Y-106870000D02*
X221405000Y-109470000D01*
X218745000Y-106870000D02*
X221405000Y-106870000D01*
X136690000Y-100253733D02*
X136690000Y-100546267D01*
X137710000Y-100253733D02*
X137710000Y-100546267D01*
X219280000Y-191442936D02*
X219280000Y-195797064D01*
X215860000Y-191442936D02*
X215860000Y-195797064D01*
X281900000Y-71000000D02*
X281900000Y-67150000D01*
X281900000Y-71000000D02*
X283900000Y-71000000D01*
X283900000Y-71000000D02*
X283900000Y-67150000D01*
X222555000Y-140845000D02*
X222555000Y-145985000D01*
X219895000Y-140845000D02*
X222555000Y-140845000D01*
X221225000Y-138245000D02*
X222555000Y-138245000D01*
X222555000Y-138245000D02*
X222555000Y-139575000D01*
X219895000Y-145985000D02*
X222555000Y-145985000D01*
X219895000Y-140845000D02*
X219895000Y-145985000D01*
X251330000Y-83070000D02*
X251330000Y-84400000D01*
X248730000Y-83070000D02*
X243590000Y-83070000D01*
X248730000Y-85730000D02*
X243590000Y-85730000D01*
X248730000Y-83070000D02*
X248730000Y-85730000D01*
X250000000Y-83070000D02*
X251330000Y-83070000D01*
X243590000Y-83070000D02*
X243590000Y-85730000D01*
X273977064Y-82740000D02*
X270922936Y-82740000D01*
X273977064Y-85460000D02*
X270922936Y-85460000D01*
X142323900Y-96112950D02*
X142323900Y-92760150D01*
X138971100Y-92760150D02*
X138971100Y-96112950D01*
X210630000Y-86670000D02*
X210630000Y-89330000D01*
X210630000Y-86670000D02*
X202950000Y-86670000D01*
X210630000Y-89330000D02*
X202950000Y-89330000D01*
X211900000Y-86670000D02*
X213230000Y-86670000D01*
X213230000Y-86670000D02*
X213230000Y-88000000D01*
X202950000Y-86670000D02*
X202950000Y-89330000D01*
X147300000Y-86940000D02*
X145900000Y-86940000D01*
X145900000Y-89260000D02*
X147800000Y-89260000D01*
X218220000Y-79045000D02*
X219550000Y-79045000D01*
X223420000Y-81705000D02*
X223420000Y-79045000D01*
X220820000Y-81705000D02*
X223420000Y-81705000D01*
X220820000Y-79045000D02*
X223420000Y-79045000D01*
X220820000Y-81705000D02*
X220820000Y-79045000D01*
X218220000Y-80375000D02*
X218220000Y-79045000D01*
X274970000Y-151455000D02*
X274970000Y-148795000D01*
X272370000Y-151455000D02*
X272370000Y-148795000D01*
X269770000Y-148795000D02*
X271100000Y-148795000D01*
X269770000Y-150125000D02*
X269770000Y-148795000D01*
X272370000Y-148795000D02*
X274970000Y-148795000D01*
X272370000Y-151455000D02*
X274970000Y-151455000D01*
X163522000Y-102899000D02*
X163522000Y-106219000D01*
X164372000Y-62519000D02*
X167692000Y-62519000D01*
X165472000Y-108169000D02*
X168792000Y-108169000D01*
X169642000Y-64469000D02*
X169642000Y-67789000D01*
X170742000Y-102899000D02*
X170742000Y-106219000D01*
X165472000Y-100949000D02*
X168792000Y-100949000D01*
X162422000Y-64469000D02*
X162422000Y-67789000D01*
X164372000Y-69739000D02*
X167692000Y-69739000D01*
X151532000Y-100359000D02*
X182132000Y-100359000D01*
X182132000Y-100359000D02*
X182132000Y-70359000D01*
X182132000Y-70359000D02*
X151532000Y-70359000D01*
X151532000Y-70359000D02*
X151532000Y-100359000D01*
X266000000Y-85660000D02*
X266650000Y-85660000D01*
X266000000Y-82540000D02*
X264325000Y-82540000D01*
X266000000Y-82540000D02*
X266650000Y-82540000D01*
X266000000Y-85660000D02*
X265350000Y-85660000D01*
%LPC*%
D13*
X200600000Y-105300000D03*
D14*
X177000000Y-66000000D03*
D15*
X174460000Y-63460000D03*
X179540000Y-63460000D03*
X179540000Y-68540000D03*
X174460000Y-68540000D03*
D16*
X277407500Y-65342500D03*
D17*
X256407500Y-65342500D03*
X259907500Y-72842500D03*
X277407500Y-72842500D03*
D18*
X143937500Y-96663454D03*
X145662500Y-96663454D03*
D13*
X224075000Y-105600000D03*
D19*
X224075000Y-108140000D03*
D20*
X143755000Y-102450000D03*
X143755000Y-203950000D03*
D21*
X144455000Y-136680000D03*
X144455000Y-139280000D03*
X144455000Y-134180000D03*
X144455000Y-177450000D03*
X144455000Y-180150000D03*
D22*
X127895000Y-107450000D03*
D23*
X127895000Y-103350000D03*
X127895000Y-99950000D03*
D24*
X291495000Y-115050000D03*
D23*
X241995000Y-98650000D03*
X238895000Y-98636052D03*
X293895000Y-100050000D03*
X293795000Y-103250000D03*
D25*
X140567500Y-82800000D03*
D26*
X140367500Y-53000000D03*
D27*
X140667500Y-74000000D03*
D14*
X134366000Y-119126000D03*
D15*
X131826000Y-116586000D03*
X136906000Y-116586000D03*
X131826000Y-121666000D03*
X136906000Y-121666000D03*
D13*
X221050000Y-123250000D03*
D19*
X221050000Y-125790000D03*
X221050000Y-128330000D03*
D13*
X215775000Y-105600000D03*
D19*
X215775000Y-108140000D03*
D13*
X250000000Y-78750000D03*
D19*
X247460000Y-78750000D03*
X244920000Y-78750000D03*
D22*
X206600000Y-200350000D03*
D28*
X294700000Y-190150000D03*
D29*
X292200000Y-174150000D03*
D23*
X128600000Y-188350000D03*
X210900000Y-200350000D03*
D28*
X294700000Y-197550000D03*
X294700000Y-193350000D03*
D22*
X128600000Y-192650000D03*
D23*
X128700000Y-185250000D03*
X214204026Y-200350000D03*
D21*
X234745000Y-117755000D03*
X234745000Y-120355000D03*
X268495000Y-143955000D03*
X284845000Y-124705000D03*
X234745000Y-122855000D03*
X271095000Y-143955000D03*
X273595000Y-143955000D03*
X284845000Y-127205000D03*
D30*
X285250000Y-195600000D03*
D31*
X207550000Y-191855000D03*
X151350000Y-162955000D03*
X152650000Y-117355000D03*
X207550000Y-117355000D03*
D21*
X154750000Y-138255000D03*
X154750000Y-135755000D03*
X154750000Y-140855000D03*
X157350000Y-135755000D03*
D32*
X157350000Y-140855000D03*
D21*
X157350000Y-138255000D03*
X187350000Y-114055000D03*
D32*
X190050000Y-114055000D03*
D21*
X195950000Y-114055000D03*
D32*
X198650000Y-114055000D03*
D13*
X239850000Y-81450000D03*
D33*
X140300000Y-88237500D03*
X140300000Y-89962500D03*
D34*
X224670000Y-187450000D03*
D35*
X222170000Y-187450000D03*
X220170000Y-187450000D03*
X217670000Y-187450000D03*
X224670000Y-184830000D03*
X222170000Y-184830000D03*
X220170000Y-184830000D03*
X217670000Y-184830000D03*
D31*
X214600000Y-182120000D03*
X214600000Y-187800000D03*
X227740000Y-187800000D03*
X227740000Y-182120000D03*
D13*
X149200000Y-83400000D03*
D36*
X276300000Y-156800000D03*
D37*
X258000000Y-78950000D03*
X258000000Y-85050000D03*
D13*
X211700000Y-74167500D03*
D19*
X211700000Y-70287500D03*
X215250000Y-74237500D03*
X215150000Y-70287500D03*
X218700000Y-74337500D03*
X218750000Y-70287500D03*
X224200000Y-74187500D03*
X224200000Y-70337500D03*
X227700000Y-74137500D03*
X227700000Y-70387500D03*
X233200000Y-74137500D03*
X233200000Y-70237500D03*
X236700000Y-74137500D03*
X236700000Y-70237500D03*
X240200000Y-74187500D03*
X240200000Y-70237500D03*
D31*
X247450000Y-64637500D03*
X204400000Y-64687500D03*
D30*
X134950000Y-195200000D03*
D13*
X220075000Y-105600000D03*
D19*
X220075000Y-108140000D03*
D33*
X137200000Y-99537500D03*
X137200000Y-101262500D03*
D37*
X217570000Y-190570000D03*
X217570000Y-196670000D03*
D38*
X282900000Y-70200000D03*
X282900000Y-67400000D03*
D13*
X221225000Y-139575000D03*
D19*
X221225000Y-142115000D03*
X221225000Y-144655000D03*
D13*
X250000000Y-84400000D03*
D19*
X247460000Y-84400000D03*
X244920000Y-84400000D03*
D39*
X274850000Y-84100000D03*
X270050000Y-84100000D03*
D40*
X141622860Y-92214050D03*
X140972620Y-92214050D03*
X140322380Y-92214050D03*
X139672140Y-92214050D03*
X139672140Y-96659050D03*
X140322380Y-96659050D03*
X140972620Y-96659050D03*
X141622860Y-96659050D03*
D41*
X140647500Y-94436550D03*
D30*
X285350000Y-96500000D03*
D36*
X276300000Y-199400000D03*
D13*
X211900000Y-88000000D03*
D19*
X209360000Y-88000000D03*
X206820000Y-88000000D03*
X204280000Y-88000000D03*
D42*
X147930000Y-88750000D03*
X147930000Y-88100000D03*
X147930000Y-87450000D03*
X145270000Y-87450000D03*
X145270000Y-88100000D03*
X145270000Y-88750000D03*
D30*
X134050000Y-96750000D03*
D13*
X219550000Y-80375000D03*
D19*
X222090000Y-80375000D03*
D36*
X233700000Y-156800000D03*
D13*
X271100000Y-150125000D03*
D19*
X273640000Y-150125000D03*
D23*
X178732000Y-97729000D03*
X153332000Y-73129000D03*
X178732000Y-73029000D03*
X153332000Y-97729000D03*
D43*
X178832000Y-86429000D03*
D23*
X178832000Y-82629000D03*
D14*
X166032000Y-66129000D03*
D15*
X163492000Y-68669000D03*
X163492000Y-63589000D03*
X168572000Y-63589000D03*
X168572000Y-68669000D03*
D14*
X167132000Y-104559000D03*
D15*
X169672000Y-102019000D03*
X169672000Y-107099000D03*
X164592000Y-102019000D03*
X164592000Y-107099000D03*
D36*
X233700000Y-199400000D03*
D44*
X265062500Y-83150000D03*
X265062500Y-85050000D03*
X266937500Y-84100000D03*
M02*
