M48
; DRILL file {KiCad (6.0.1)} date Tue Apr 19 13:10:00 2022
; FORMAT={-:-/ absolute / metric / decimal}
; #@! TF.CreationDate,2022-04-19T13:10:00-07:00
; #@! TF.GenerationSoftware,Kicad,Pcbnew,(6.0.1)
; #@! TF.FileFunction,Plated,1,4,PTH
FMAT,2
METRIC
; #@! TA.AperFunction,Plated,PTH,ViaDrill
T1C0.400
; #@! TA.AperFunction,Plated,PTH,ComponentDrill
T2C0.762
; #@! TA.AperFunction,Plated,PTH,ComponentDrill
T3C0.920
; #@! TA.AperFunction,Plated,PTH,ComponentDrill
T4C1.000
; #@! TA.AperFunction,Plated,PTH,ComponentDrill
T5C1.200
; #@! TA.AperFunction,Plated,PTH,ComponentDrill
T6C1.500
; #@! TA.AperFunction,Plated,PTH,ComponentDrill
T7C1.700
; #@! TA.AperFunction,Plated,PTH,ComponentDrill
T8C1.750
; #@! TA.AperFunction,Plated,PTH,ComponentDrill
T9C2.000
; #@! TA.AperFunction,Plated,PTH,ComponentDrill
T10C2.010
; #@! TA.AperFunction,Plated,PTH,ComponentDrill
T11C2.250
; #@! TA.AperFunction,Plated,PTH,ComponentDrill
T12C2.300
; #@! TA.AperFunction,Plated,PTH,ComponentDrill
T13C2.500
; #@! TA.AperFunction,Plated,PTH,ComponentDrill
T14C2.750
%
G90
G05
T1
X130.5Y-112.2
X136.7Y-90.4
X143.0Y-89.8
X150.9Y-88.1
X217.67Y-182.92
X258.0Y-76.75
X286.15Y-174.25
T2
X144.455Y-134.18
X144.455Y-136.68
X144.455Y-139.28
X144.455Y-177.45
X144.455Y-180.15
X154.75Y-135.755
X154.75Y-138.255
X154.75Y-140.855
X157.35Y-135.755
X157.35Y-138.255
X157.35Y-140.855
X187.35Y-114.055
X190.05Y-114.055
X195.95Y-114.055
X198.65Y-114.055
X234.745Y-117.755
X234.745Y-120.355
X234.745Y-122.855
X268.495Y-143.955
X271.095Y-143.955
X273.595Y-143.955
X284.845Y-124.705
X284.845Y-127.205
T3
X217.67Y-184.83
X217.67Y-187.45
X220.17Y-184.83
X220.17Y-187.45
X222.17Y-184.83
X222.17Y-187.45
X224.67Y-184.83
X224.67Y-187.45
T4
X149.2Y-83.4
X200.6Y-105.3
X204.28Y-88.0
X206.82Y-88.0
X209.36Y-88.0
X211.7Y-70.287
X211.7Y-74.167
X211.9Y-88.0
X215.15Y-70.287
X215.25Y-74.237
X215.775Y-105.6
X215.775Y-108.14
X218.7Y-74.337
X218.75Y-70.287
X219.55Y-80.375
X220.075Y-105.6
X220.075Y-108.14
X221.05Y-123.25
X221.05Y-125.79
X221.05Y-128.33
X221.225Y-139.575
X221.225Y-142.115
X221.225Y-144.655
X222.09Y-80.375
X224.075Y-105.6
X224.075Y-108.14
X224.2Y-70.337
X224.2Y-74.188
X227.7Y-70.388
X227.7Y-74.138
X233.2Y-70.237
X233.2Y-74.138
X236.7Y-70.237
X236.7Y-74.138
X239.85Y-81.45
X240.2Y-70.237
X240.2Y-74.188
X244.92Y-78.75
X244.92Y-84.4
X247.46Y-78.75
X247.46Y-84.4
X250.0Y-78.75
X250.0Y-84.4
X271.1Y-150.125
X273.64Y-150.125
T5
X256.407Y-65.343
X259.907Y-72.843
X277.407Y-65.343
X277.407Y-72.843
T6
X134.366Y-119.126
X166.032Y-66.129
X167.132Y-104.559
X177.0Y-66.0
X178.832Y-82.629
X178.832Y-86.429
T7
X131.826Y-116.586
X131.826Y-121.666
X136.906Y-116.586
X136.906Y-121.666
X163.492Y-63.589
X163.492Y-68.669
X164.592Y-102.019
X164.592Y-107.099
X168.572Y-63.589
X168.572Y-68.669
X169.672Y-102.019
X169.672Y-107.099
X174.46Y-63.46
X174.46Y-68.54
X179.54Y-63.46
X179.54Y-68.54
T8
X127.895Y-99.95
X127.895Y-103.35
X128.6Y-188.35
X128.7Y-185.25
X204.4Y-64.688
X210.9Y-200.35
X214.204Y-200.35
X238.895Y-98.636
X241.995Y-98.65
X247.45Y-64.638
X293.795Y-103.25
X293.895Y-100.05
T9
X294.7Y-190.15
X294.7Y-193.35
T10
X140.368Y-53.0
T11
X127.895Y-107.45
X128.6Y-192.65
X206.6Y-200.35
X294.7Y-197.55
T12
X214.6Y-182.12
X214.6Y-187.8
X227.74Y-182.12
X227.74Y-187.8
T13
X140.667Y-74.0
X233.7Y-156.8
X233.7Y-199.4
X276.3Y-156.8
X276.3Y-199.4
T14
X140.567Y-82.8
T4
X143.255Y-102.45G85X144.255Y-102.45
G05
X143.255Y-203.95G85X144.255Y-203.95
G05
T9
X291.495Y-114.55G85X291.495Y-115.55
G05
X292.2Y-174.65G85X292.2Y-173.65
G05
T0
M30
