M48
; DRILL file {KiCad (6.0.1)} date Thu Jun  9 11:36:20 2022
; FORMAT={-:-/ absolute / metric / decimal}
; #@! TF.CreationDate,2022-06-09T11:36:20-07:00
; #@! TF.GenerationSoftware,Kicad,Pcbnew,(6.0.1)
; #@! TF.FileFunction,Plated,1,2,PTH
FMAT,2
METRIC
; #@! TA.AperFunction,Plated,PTH,ViaDrill
T1C0.400
; #@! TA.AperFunction,Plated,PTH,ComponentDrill
T2C0.900
; #@! TA.AperFunction,Plated,PTH,ComponentDrill
T3C0.991
; #@! TA.AperFunction,Plated,PTH,ComponentDrill
T4C1.000
%
G90
G05
T1
X140.0Y-78.5
X144.4Y-92.5
X147.9Y-79.0
X149.4Y-92.4
X149.4Y-103.1
X150.24Y-79.0
X150.254Y-76.0
X150.47Y-97.03
X152.4Y-95.4
X152.6Y-79.0
X153.5Y-89.8
X153.6Y-99.0
X154.3Y-94.5
X154.8Y-81.7
X155.3Y-86.3
X160.5Y-79.0
T2
X143.559Y-111.555
X143.559Y-114.055
X146.159Y-111.555
X146.259Y-114.055
X148.759Y-111.555
X148.759Y-114.055
X151.359Y-111.555
X151.359Y-114.055
X153.959Y-111.555
X153.959Y-114.055
X156.559Y-111.555
X156.559Y-114.055
T3
X146.09Y-107.13
X147.719Y-86.274
X147.89Y-105.23
X149.69Y-107.13
X150.219Y-88.774
X152.719Y-86.274
T4
X139.849Y-108.655
X139.859Y-81.255
X139.859Y-83.755
X139.859Y-86.255
X139.859Y-88.655
X139.859Y-91.255
X139.859Y-93.755
X139.859Y-96.255
X139.859Y-98.755
X139.859Y-101.155
X139.859Y-103.655
X139.859Y-106.255
X142.759Y-81.255
X142.759Y-83.755
X142.759Y-86.255
X142.759Y-88.655
X142.759Y-91.255
X142.759Y-93.755
X142.759Y-96.255
X142.759Y-98.755
X142.759Y-101.155
X142.759Y-103.655
X142.759Y-106.255
X142.759Y-108.655
X146.25Y-100.285
X148.79Y-100.285
X154.025Y-103.075
X154.025Y-105.615
X154.025Y-108.155
X157.659Y-81.255
X157.659Y-83.655
X157.659Y-86.155
X157.659Y-88.655
X157.659Y-91.155
X157.659Y-93.655
X157.659Y-96.155
X157.659Y-98.655
X157.659Y-101.155
X157.659Y-103.655
X157.659Y-106.155
X157.659Y-108.655
X160.559Y-98.655
X160.659Y-81.255
X160.659Y-83.655
X160.659Y-86.155
X160.659Y-88.655
X160.659Y-91.155
X160.659Y-93.655
X160.659Y-96.155
X160.659Y-101.155
X160.659Y-103.655
X160.659Y-106.155
X160.659Y-108.655
T0
M30
