G04 #@! TF.GenerationSoftware,KiCad,Pcbnew,(6.0.1)*
G04 #@! TF.CreationDate,2022-04-24T16:28:56-07:00*
G04 #@! TF.ProjectId,PS_controller,50535f63-6f6e-4747-926f-6c6c65722e6b,rev?*
G04 #@! TF.SameCoordinates,Original*
G04 #@! TF.FileFunction,Copper,L1,Top*
G04 #@! TF.FilePolarity,Positive*
%FSLAX46Y46*%
G04 Gerber Fmt 4.6, Leading zero omitted, Abs format (unit mm)*
G04 Created by KiCad (PCBNEW (6.0.1)) date 2022-04-24 16:28:56*
%MOMM*%
%LPD*%
G01*
G04 APERTURE LIST*
G04 Aperture macros list*
%AMRoundRect*
0 Rectangle with rounded corners*
0 $1 Rounding radius*
0 $2 $3 $4 $5 $6 $7 $8 $9 X,Y pos of 4 corners*
0 Add a 4 corners polygon primitive as box body*
4,1,4,$2,$3,$4,$5,$6,$7,$8,$9,$2,$3,0*
0 Add four circle primitives for the rounded corners*
1,1,$1+$1,$2,$3*
1,1,$1+$1,$4,$5*
1,1,$1+$1,$6,$7*
1,1,$1+$1,$8,$9*
0 Add four rect primitives between the rounded corners*
20,1,$1+$1,$2,$3,$4,$5,0*
20,1,$1+$1,$4,$5,$6,$7,0*
20,1,$1+$1,$6,$7,$8,$9,0*
20,1,$1+$1,$8,$9,$2,$3,0*%
G04 Aperture macros list end*
G04 #@! TA.AperFunction,ComponentPad*
%ADD10R,1.700000X1.700000*%
G04 #@! TD*
G04 #@! TA.AperFunction,ComponentPad*
%ADD11O,1.700000X1.700000*%
G04 #@! TD*
G04 #@! TA.AperFunction,SMDPad,CuDef*
%ADD12R,1.200000X0.900000*%
G04 #@! TD*
G04 #@! TA.AperFunction,SMDPad,CuDef*
%ADD13RoundRect,0.160000X0.197500X0.160000X-0.197500X0.160000X-0.197500X-0.160000X0.197500X-0.160000X0*%
G04 #@! TD*
G04 #@! TA.AperFunction,SMDPad,CuDef*
%ADD14RoundRect,0.150000X-0.150000X0.587500X-0.150000X-0.587500X0.150000X-0.587500X0.150000X0.587500X0*%
G04 #@! TD*
G04 #@! TA.AperFunction,WasherPad*
%ADD15C,2.200000*%
G04 #@! TD*
G04 #@! TA.AperFunction,ComponentPad*
%ADD16C,1.750000*%
G04 #@! TD*
G04 #@! TA.AperFunction,SMDPad,CuDef*
%ADD17RoundRect,0.132750X0.888750X0.132750X-0.888750X0.132750X-0.888750X-0.132750X0.888750X-0.132750X0*%
G04 #@! TD*
G04 #@! TA.AperFunction,SMDPad,CuDef*
%ADD18RoundRect,0.125000X0.996500X0.125000X-0.996500X0.125000X-0.996500X-0.125000X0.996500X-0.125000X0*%
G04 #@! TD*
G04 #@! TA.AperFunction,SMDPad,CuDef*
%ADD19RoundRect,0.250000X-0.400000X-0.625000X0.400000X-0.625000X0.400000X0.625000X-0.400000X0.625000X0*%
G04 #@! TD*
G04 #@! TA.AperFunction,SMDPad,CuDef*
%ADD20RoundRect,0.237500X-0.237500X0.300000X-0.237500X-0.300000X0.237500X-0.300000X0.237500X0.300000X0*%
G04 #@! TD*
G04 #@! TA.AperFunction,SMDPad,CuDef*
%ADD21RoundRect,0.250000X0.475000X-0.337500X0.475000X0.337500X-0.475000X0.337500X-0.475000X-0.337500X0*%
G04 #@! TD*
G04 #@! TA.AperFunction,SMDPad,CuDef*
%ADD22R,1.333500X0.279400*%
G04 #@! TD*
G04 #@! TA.AperFunction,ComponentPad*
%ADD23C,1.498600*%
G04 #@! TD*
G04 #@! TA.AperFunction,SMDPad,CuDef*
%ADD24RoundRect,0.250000X-0.475000X0.337500X-0.475000X-0.337500X0.475000X-0.337500X0.475000X0.337500X0*%
G04 #@! TD*
G04 #@! TA.AperFunction,SMDPad,CuDef*
%ADD25RoundRect,0.250000X-0.412500X-0.650000X0.412500X-0.650000X0.412500X0.650000X-0.412500X0.650000X0*%
G04 #@! TD*
G04 #@! TA.AperFunction,SMDPad,CuDef*
%ADD26R,5.400000X2.900000*%
G04 #@! TD*
G04 #@! TA.AperFunction,SMDPad,CuDef*
%ADD27RoundRect,0.250000X-0.337500X-0.475000X0.337500X-0.475000X0.337500X0.475000X-0.337500X0.475000X0*%
G04 #@! TD*
G04 #@! TA.AperFunction,SMDPad,CuDef*
%ADD28RoundRect,0.237500X0.250000X0.237500X-0.250000X0.237500X-0.250000X-0.237500X0.250000X-0.237500X0*%
G04 #@! TD*
G04 #@! TA.AperFunction,ViaPad*
%ADD29C,0.800000*%
G04 #@! TD*
G04 #@! TA.AperFunction,Conductor*
%ADD30C,0.250000*%
G04 #@! TD*
G04 #@! TA.AperFunction,Conductor*
%ADD31C,0.500000*%
G04 #@! TD*
G04 APERTURE END LIST*
D10*
X215335000Y-111635000D03*
D11*
X212795000Y-111635000D03*
X210255000Y-111635000D03*
D12*
X175514000Y-78104000D03*
X175514000Y-74804000D03*
D13*
X188049500Y-76212500D03*
X186854500Y-76212500D03*
D14*
X172348000Y-80208000D03*
X170448000Y-80208000D03*
X171398000Y-82083000D03*
D15*
X206215000Y-72905000D03*
X220115000Y-72905000D03*
D16*
X220615000Y-102505000D03*
X220615000Y-100005000D03*
X214315000Y-105405000D03*
X216915000Y-105405000D03*
X220615000Y-97505000D03*
X220615000Y-95005000D03*
X220615000Y-92505000D03*
X220615000Y-90005000D03*
X220615000Y-87505000D03*
X220615000Y-85005000D03*
X220615000Y-82505000D03*
X211715000Y-105405000D03*
X220615000Y-80005000D03*
X206515000Y-105405000D03*
X209115000Y-105405000D03*
X220615000Y-77505000D03*
X220615000Y-75105000D03*
X205715000Y-75105000D03*
X205715000Y-77605000D03*
X205715000Y-80105000D03*
X205715000Y-82605000D03*
X205715000Y-85105000D03*
X205715000Y-87605000D03*
X205715000Y-90105000D03*
X205715000Y-92605000D03*
X205715000Y-95105000D03*
X205715000Y-97605000D03*
X205715000Y-100105000D03*
X205715000Y-102605000D03*
X219515000Y-105405000D03*
D17*
X199570000Y-89280000D03*
D18*
X196870000Y-89280000D03*
D10*
X188550000Y-72825000D03*
D11*
X186010000Y-72825000D03*
D19*
X196560000Y-86322000D03*
X199660000Y-86322000D03*
D20*
X192294000Y-80350000D03*
X192294000Y-82075000D03*
D21*
X193700000Y-78490000D03*
X193700000Y-76415000D03*
D10*
X226543000Y-94976000D03*
D11*
X226543000Y-92436000D03*
D22*
X184777850Y-78861740D03*
X184777850Y-79362120D03*
X184777850Y-79862500D03*
X184777850Y-80362880D03*
X184777850Y-80863260D03*
X189210150Y-80863260D03*
X189210150Y-80362880D03*
X189210150Y-79862500D03*
X189210150Y-79362120D03*
X189210150Y-78861740D03*
D10*
X176555000Y-85598000D03*
D11*
X176555000Y-88138000D03*
X176555000Y-90678000D03*
D23*
X196685500Y-95895500D03*
X198485500Y-97795500D03*
X200285500Y-95895500D03*
D24*
X180594000Y-79205000D03*
X180594000Y-81280000D03*
D23*
X196700000Y-76900000D03*
X199200000Y-74400000D03*
X201700000Y-76900000D03*
D25*
X187837500Y-98300000D03*
X190962500Y-98300000D03*
D26*
X187000000Y-84950000D03*
X187000000Y-94850000D03*
D27*
X195972500Y-91700000D03*
X198047500Y-91700000D03*
D28*
X199632500Y-84120000D03*
X197807500Y-84120000D03*
D29*
X175514000Y-72390000D03*
X191090000Y-100900000D03*
X193700000Y-73200000D03*
X176276000Y-80772000D03*
X187000000Y-79700000D03*
X184658000Y-77470000D03*
D30*
X192000000Y-77527362D02*
X192000000Y-75900000D01*
X189210150Y-79362120D02*
X190165242Y-79362120D01*
X188925000Y-72825000D02*
X188550000Y-72825000D01*
X190165242Y-79362120D02*
X192000000Y-77527362D01*
X192000000Y-75900000D02*
X188925000Y-72825000D01*
X183494500Y-79862500D02*
X184777850Y-79862500D01*
X175514000Y-78104000D02*
X179493000Y-78104000D01*
X182837000Y-79205000D02*
X183494500Y-79862500D01*
X170448000Y-80208000D02*
X172552000Y-78104000D01*
X172552000Y-78104000D02*
X175514000Y-78104000D01*
X180594000Y-79205000D02*
X182837000Y-79205000D01*
X179493000Y-78104000D02*
X180594000Y-79205000D01*
X172348000Y-80208000D02*
X175712000Y-80208000D01*
X176784000Y-81280000D02*
X180594000Y-81280000D01*
X175514000Y-72390000D02*
X175514000Y-74804000D01*
X176276000Y-80772000D02*
X176784000Y-81280000D01*
X175712000Y-80208000D02*
X176276000Y-80772000D01*
X186337120Y-80362880D02*
X187000000Y-79700000D01*
X193700000Y-76426742D02*
X193700000Y-73173258D01*
X181010740Y-80863260D02*
X184777850Y-80863260D01*
X196870000Y-89280000D02*
X196870000Y-86632000D01*
X184777850Y-80362880D02*
X184777850Y-80863260D01*
X196870000Y-86632000D02*
X196560000Y-86322000D01*
X180594000Y-81280000D02*
X181010740Y-80863260D01*
X184777850Y-80362880D02*
X186337120Y-80362880D01*
X199632500Y-86294500D02*
X199660000Y-86322000D01*
D31*
X201245000Y-87605000D02*
X201245000Y-86505000D01*
X201245000Y-87605000D02*
X205715000Y-87605000D01*
X201245000Y-85732500D02*
X199632500Y-84120000D01*
X201245000Y-86505000D02*
X199843000Y-86505000D01*
X199660000Y-86322000D02*
X199660000Y-89190000D01*
X199632500Y-84120000D02*
X199632500Y-86294500D01*
X199843000Y-86505000D02*
X199660000Y-86322000D01*
D30*
X199660000Y-89190000D02*
X199570000Y-89280000D01*
D31*
X201245000Y-86505000D02*
X201245000Y-85732500D01*
X199570000Y-89280000D02*
X201245000Y-87605000D01*
X220615000Y-75105000D02*
X223012000Y-72708000D01*
D30*
X192274000Y-78490000D02*
X193700000Y-78490000D01*
D31*
X187000000Y-93650000D02*
X187000000Y-97462500D01*
X187000000Y-97462500D02*
X187837500Y-98300000D01*
X197807500Y-84120000D02*
X197807500Y-82597500D01*
X195290000Y-76900000D02*
X196700000Y-76900000D01*
X194600000Y-79390000D02*
X197230000Y-82020000D01*
X187000000Y-92000000D02*
X194600000Y-84400000D01*
X223012000Y-72708000D02*
X223012000Y-70104000D01*
X187000000Y-93650000D02*
X187000000Y-92000000D01*
X194600000Y-84400000D02*
X194600000Y-79390000D01*
X196700000Y-71600000D02*
X196700000Y-76900000D01*
X223012000Y-70104000D02*
X198196000Y-70104000D01*
X194600000Y-79390000D02*
X193700000Y-78490000D01*
X198196000Y-70104000D02*
X196700000Y-71600000D01*
D30*
X190901500Y-79862500D02*
X192274000Y-78490000D01*
D31*
X193700000Y-78490000D02*
X195290000Y-76900000D01*
D30*
X189210150Y-79862500D02*
X190901500Y-79862500D01*
D31*
X197807500Y-82597500D02*
X197230000Y-82020000D01*
D30*
X188049500Y-76212500D02*
X189210150Y-77373150D01*
X189200000Y-77355705D02*
X189200000Y-78844295D01*
X184658000Y-78741890D02*
X184777850Y-78861740D01*
D31*
X184658000Y-77470000D02*
X184658000Y-78741890D01*
D30*
X195972500Y-91700000D02*
X196685500Y-92413000D01*
X196685500Y-92413000D02*
X196685500Y-95895500D01*
X174913000Y-85598000D02*
X171398000Y-82083000D01*
X176555000Y-85598000D02*
X174913000Y-85598000D01*
X191082260Y-80863260D02*
X189210150Y-80863260D01*
D31*
X189875000Y-82075000D02*
X187000000Y-84950000D01*
X192294000Y-82075000D02*
X189875000Y-82075000D01*
D30*
X192294000Y-82075000D02*
X191082260Y-80863260D01*
X182500000Y-76335000D02*
X186010000Y-72825000D01*
X184777850Y-79362120D02*
X183822758Y-79362120D01*
X182500000Y-78039362D02*
X182500000Y-76335000D01*
X183822758Y-79362120D02*
X182500000Y-78039362D01*
X192281120Y-80362880D02*
X189210150Y-80362880D01*
X192294000Y-80350000D02*
X192281120Y-80362880D01*
X216915000Y-110055000D02*
X215335000Y-111635000D01*
X216915000Y-105405000D02*
X216915000Y-110055000D01*
X214315000Y-110115000D02*
X212795000Y-111635000D01*
X214315000Y-105405000D02*
X214315000Y-110115000D01*
D31*
X220615000Y-95005000D02*
X226514000Y-95005000D01*
D30*
X226514000Y-95005000D02*
X226543000Y-94976000D01*
G04 #@! TA.AperFunction,Conductor*
G36*
X191100000Y-86574000D02*
G01*
X191079998Y-86642121D01*
X191026342Y-86688614D01*
X190974000Y-86700000D01*
X190311900Y-86700000D01*
X190243779Y-86679998D01*
X190197286Y-86626342D01*
X190187182Y-86556068D01*
X190193918Y-86529770D01*
X190198478Y-86517605D01*
X190202105Y-86502351D01*
X190207631Y-86451486D01*
X190208000Y-86444672D01*
X190208000Y-85222115D01*
X190203525Y-85206876D01*
X190202135Y-85205671D01*
X190194452Y-85204000D01*
X186872000Y-85204000D01*
X186803879Y-85183998D01*
X186757386Y-85130342D01*
X186746000Y-85078000D01*
X186746000Y-84677885D01*
X187254000Y-84677885D01*
X187258475Y-84693124D01*
X187259865Y-84694329D01*
X187267548Y-84696000D01*
X190189884Y-84696000D01*
X190205123Y-84691525D01*
X190206328Y-84690135D01*
X190207999Y-84682452D01*
X190207999Y-83455331D01*
X190207629Y-83448510D01*
X190202105Y-83397648D01*
X190198479Y-83382396D01*
X190153324Y-83261946D01*
X190144786Y-83246351D01*
X190068285Y-83144276D01*
X190055724Y-83131715D01*
X189953649Y-83055214D01*
X189938054Y-83046676D01*
X189817606Y-83001522D01*
X189802351Y-82997895D01*
X189751486Y-82992369D01*
X189744672Y-82992000D01*
X187272115Y-82992001D01*
X187256876Y-82996476D01*
X187255671Y-82997866D01*
X187254000Y-83005549D01*
X187254000Y-84677885D01*
X186746000Y-84677885D01*
X186746000Y-83010116D01*
X186741525Y-82994877D01*
X186740135Y-82993672D01*
X186732452Y-82992001D01*
X185426000Y-82992001D01*
X185357879Y-82971999D01*
X185311386Y-82918343D01*
X185300000Y-82866001D01*
X185300000Y-81826000D01*
X185320002Y-81757879D01*
X185373658Y-81711386D01*
X185426000Y-81700000D01*
X191100000Y-81700000D01*
X191100000Y-86574000D01*
G37*
G04 #@! TD.AperFunction*
G04 #@! TA.AperFunction,Conductor*
G36*
X229618121Y-68600002D02*
G01*
X229664614Y-68653658D01*
X229676000Y-68706000D01*
X229676000Y-113920000D01*
X229655998Y-113988121D01*
X229602342Y-114034614D01*
X229550000Y-114046000D01*
X169036000Y-114046000D01*
X168967879Y-114025998D01*
X168921386Y-113972342D01*
X168910000Y-113920000D01*
X168910000Y-112776000D01*
X196088000Y-112776000D01*
X201676000Y-112776000D01*
X201676000Y-111902966D01*
X208923257Y-111902966D01*
X208953565Y-112037446D01*
X208956645Y-112047275D01*
X209036770Y-112244603D01*
X209041413Y-112253794D01*
X209152694Y-112435388D01*
X209158777Y-112443699D01*
X209298213Y-112604667D01*
X209305580Y-112611883D01*
X209469434Y-112747916D01*
X209477881Y-112753831D01*
X209661756Y-112861279D01*
X209671042Y-112865729D01*
X209870001Y-112941703D01*
X209879899Y-112944579D01*
X209983250Y-112965606D01*
X209997299Y-112964410D01*
X210001000Y-112954065D01*
X210001000Y-111907115D01*
X209996525Y-111891876D01*
X209995135Y-111890671D01*
X209987452Y-111889000D01*
X208938225Y-111889000D01*
X208924694Y-111892973D01*
X208923257Y-111902966D01*
X201676000Y-111902966D01*
X201676000Y-111369183D01*
X208919389Y-111369183D01*
X208920912Y-111377607D01*
X208933292Y-111381000D01*
X209982885Y-111381000D01*
X209998124Y-111376525D01*
X209999329Y-111375135D01*
X210001000Y-111367452D01*
X210001000Y-110318102D01*
X209997082Y-110304758D01*
X209982806Y-110302771D01*
X209944324Y-110308660D01*
X209934288Y-110311051D01*
X209731868Y-110377212D01*
X209722359Y-110381209D01*
X209533463Y-110479542D01*
X209524738Y-110485036D01*
X209354433Y-110612905D01*
X209346726Y-110619748D01*
X209199590Y-110773717D01*
X209193104Y-110781727D01*
X209073098Y-110957649D01*
X209068000Y-110966623D01*
X208978338Y-111159783D01*
X208974775Y-111169470D01*
X208919389Y-111369183D01*
X201676000Y-111369183D01*
X201676000Y-107188000D01*
X196088000Y-107188000D01*
X196088000Y-112776000D01*
X168910000Y-112776000D01*
X168910000Y-106548130D01*
X205736700Y-106548130D01*
X205741981Y-106555184D01*
X205910919Y-106653904D01*
X205920202Y-106658351D01*
X206123002Y-106735793D01*
X206132900Y-106738669D01*
X206345625Y-106781948D01*
X206355853Y-106783167D01*
X206572788Y-106791122D01*
X206583074Y-106790655D01*
X206798400Y-106763072D01*
X206808477Y-106760930D01*
X207016401Y-106698549D01*
X207025999Y-106694788D01*
X207220947Y-106599284D01*
X207229785Y-106594015D01*
X207282172Y-106556648D01*
X207288859Y-106548130D01*
X208336700Y-106548130D01*
X208341981Y-106555184D01*
X208510919Y-106653904D01*
X208520202Y-106658351D01*
X208723002Y-106735793D01*
X208732900Y-106738669D01*
X208945625Y-106781948D01*
X208955853Y-106783167D01*
X209172788Y-106791122D01*
X209183074Y-106790655D01*
X209398400Y-106763072D01*
X209408477Y-106760930D01*
X209616401Y-106698549D01*
X209625999Y-106694788D01*
X209820947Y-106599284D01*
X209829785Y-106594015D01*
X209882172Y-106556648D01*
X209890572Y-106545948D01*
X209883585Y-106532795D01*
X209127812Y-105777022D01*
X209113868Y-105769408D01*
X209112035Y-105769539D01*
X209105420Y-105773790D01*
X208343460Y-106535750D01*
X208336700Y-106548130D01*
X207288859Y-106548130D01*
X207290572Y-106545948D01*
X207283585Y-106532795D01*
X206527812Y-105777022D01*
X206513868Y-105769408D01*
X206512035Y-105769539D01*
X206505420Y-105773790D01*
X205743460Y-106535750D01*
X205736700Y-106548130D01*
X168910000Y-106548130D01*
X168910000Y-105376250D01*
X205127971Y-105376250D01*
X205140467Y-105592967D01*
X205141903Y-105603188D01*
X205189627Y-105814948D01*
X205192706Y-105824777D01*
X205274379Y-106025914D01*
X205279022Y-106035105D01*
X205363279Y-106172601D01*
X205373735Y-106182061D01*
X205382513Y-106178277D01*
X206142978Y-105417812D01*
X206149356Y-105406132D01*
X206879408Y-105406132D01*
X206879539Y-105407965D01*
X206883790Y-105414580D01*
X207643388Y-106174178D01*
X207655398Y-106180736D01*
X207667138Y-106171768D01*
X207701502Y-106123945D01*
X207709401Y-106110801D01*
X207761633Y-106062714D01*
X207831571Y-106050499D01*
X207897010Y-106078035D01*
X207924835Y-106109866D01*
X207963278Y-106172600D01*
X207973735Y-106182061D01*
X207982513Y-106178277D01*
X208742978Y-105417812D01*
X208749356Y-105406132D01*
X209479408Y-105406132D01*
X209479539Y-105407965D01*
X209483790Y-105414580D01*
X210243388Y-106174178D01*
X210255398Y-106180736D01*
X210267138Y-106171768D01*
X210301504Y-106123944D01*
X210309108Y-106111288D01*
X210361338Y-106063199D01*
X210431276Y-106050982D01*
X210496716Y-106078515D01*
X210524544Y-106110348D01*
X210527616Y-106115361D01*
X210594744Y-106224904D01*
X210743698Y-106396861D01*
X210918737Y-106542181D01*
X210923189Y-106544783D01*
X210923194Y-106544786D01*
X211078145Y-106635332D01*
X211115160Y-106656962D01*
X211327693Y-106738120D01*
X211332759Y-106739151D01*
X211332760Y-106739151D01*
X211431861Y-106759313D01*
X211550627Y-106783476D01*
X211678437Y-106788163D01*
X211772811Y-106791624D01*
X211772815Y-106791624D01*
X211777975Y-106791813D01*
X211783095Y-106791157D01*
X211783097Y-106791157D01*
X211998504Y-106763563D01*
X211998505Y-106763563D01*
X212003632Y-106762906D01*
X212008582Y-106761421D01*
X212216591Y-106699015D01*
X212216592Y-106699014D01*
X212221537Y-106697531D01*
X212425839Y-106597444D01*
X212430043Y-106594446D01*
X212430047Y-106594443D01*
X212606847Y-106468333D01*
X212606849Y-106468331D01*
X212611051Y-106465334D01*
X212772199Y-106304747D01*
X212904956Y-106119997D01*
X212907248Y-106115360D01*
X212909405Y-106111770D01*
X212961635Y-106063681D01*
X213031573Y-106051465D01*
X213097013Y-106078999D01*
X213124840Y-106110831D01*
X213127616Y-106115361D01*
X213194744Y-106224904D01*
X213343698Y-106396861D01*
X213518737Y-106542181D01*
X213523190Y-106544783D01*
X213523194Y-106544786D01*
X213619071Y-106600812D01*
X213667794Y-106652451D01*
X213681500Y-106709600D01*
X213681500Y-109800405D01*
X213661498Y-109868526D01*
X213644595Y-109889501D01*
X213252344Y-110281751D01*
X213190032Y-110315776D01*
X213141153Y-110316702D01*
X212928373Y-110278800D01*
X212928367Y-110278799D01*
X212923284Y-110277894D01*
X212849452Y-110276992D01*
X212705081Y-110275228D01*
X212705079Y-110275228D01*
X212699911Y-110275165D01*
X212479091Y-110308955D01*
X212266756Y-110378357D01*
X212232778Y-110396045D01*
X212081549Y-110474770D01*
X212068607Y-110481507D01*
X212064474Y-110484610D01*
X212064471Y-110484612D01*
X211894100Y-110612530D01*
X211889965Y-110615635D01*
X211735629Y-110777138D01*
X211732715Y-110781410D01*
X211732714Y-110781411D01*
X211627898Y-110935066D01*
X211572987Y-110980069D01*
X211502462Y-110988240D01*
X211438715Y-110956986D01*
X211418018Y-110932502D01*
X211337426Y-110807926D01*
X211331136Y-110799757D01*
X211187806Y-110642240D01*
X211180273Y-110635215D01*
X211013139Y-110503222D01*
X211004552Y-110497517D01*
X210818117Y-110394599D01*
X210808705Y-110390369D01*
X210607959Y-110319280D01*
X210597988Y-110316646D01*
X210526837Y-110303972D01*
X210513540Y-110305432D01*
X210509000Y-110319989D01*
X210509000Y-112953517D01*
X210513064Y-112967359D01*
X210526478Y-112969393D01*
X210533184Y-112968534D01*
X210543262Y-112966392D01*
X210747255Y-112905191D01*
X210756842Y-112901433D01*
X210948095Y-112807739D01*
X210956945Y-112802464D01*
X211130328Y-112678792D01*
X211138200Y-112672139D01*
X211289052Y-112521812D01*
X211295730Y-112513965D01*
X211423022Y-112336819D01*
X211424279Y-112337722D01*
X211471373Y-112294362D01*
X211541311Y-112282145D01*
X211606751Y-112309678D01*
X211634579Y-112341511D01*
X211694987Y-112440088D01*
X211841250Y-112608938D01*
X212013126Y-112751632D01*
X212206000Y-112864338D01*
X212414692Y-112944030D01*
X212419760Y-112945061D01*
X212419763Y-112945062D01*
X212514862Y-112964410D01*
X212633597Y-112988567D01*
X212638772Y-112988757D01*
X212638774Y-112988757D01*
X212851673Y-112996564D01*
X212851677Y-112996564D01*
X212856837Y-112996753D01*
X212861957Y-112996097D01*
X212861959Y-112996097D01*
X213073288Y-112969025D01*
X213073289Y-112969025D01*
X213078416Y-112968368D01*
X213083366Y-112966883D01*
X213287429Y-112905661D01*
X213287434Y-112905659D01*
X213292384Y-112904174D01*
X213492994Y-112805896D01*
X213674860Y-112676173D01*
X213783091Y-112568319D01*
X213845462Y-112534404D01*
X213916268Y-112539592D01*
X213973030Y-112582238D01*
X213990012Y-112613341D01*
X214034385Y-112731705D01*
X214121739Y-112848261D01*
X214238295Y-112935615D01*
X214374684Y-112986745D01*
X214436866Y-112993500D01*
X216233134Y-112993500D01*
X216295316Y-112986745D01*
X216431705Y-112935615D01*
X216548261Y-112848261D01*
X216635615Y-112731705D01*
X216686745Y-112595316D01*
X216693500Y-112533134D01*
X216693500Y-111224594D01*
X216713502Y-111156473D01*
X216730405Y-111135499D01*
X217307247Y-110558657D01*
X217315537Y-110551113D01*
X217322018Y-110547000D01*
X217368659Y-110497332D01*
X217371413Y-110494491D01*
X217391134Y-110474770D01*
X217393612Y-110471575D01*
X217401318Y-110462553D01*
X217426158Y-110436101D01*
X217431586Y-110430321D01*
X217441346Y-110412568D01*
X217452199Y-110396045D01*
X217459753Y-110386306D01*
X217464613Y-110380041D01*
X217482176Y-110339457D01*
X217487383Y-110328827D01*
X217508695Y-110290060D01*
X217510666Y-110282383D01*
X217510668Y-110282378D01*
X217513732Y-110270442D01*
X217520138Y-110251730D01*
X217525034Y-110240417D01*
X217528181Y-110233145D01*
X217535097Y-110189481D01*
X217537504Y-110177860D01*
X217546528Y-110142711D01*
X217546528Y-110142710D01*
X217548500Y-110135030D01*
X217548500Y-110114769D01*
X217550051Y-110095058D01*
X217551979Y-110082885D01*
X217553219Y-110075057D01*
X217549059Y-110031046D01*
X217548500Y-110019189D01*
X217548500Y-106713912D01*
X217568502Y-106645791D01*
X217616934Y-106602661D01*
X217616757Y-106602364D01*
X217618302Y-106601443D01*
X217619068Y-106600761D01*
X217625839Y-106597444D01*
X217630044Y-106594444D01*
X217630050Y-106594441D01*
X217806847Y-106468333D01*
X217806849Y-106468331D01*
X217811051Y-106465334D01*
X217972199Y-106304747D01*
X218104956Y-106119997D01*
X218107248Y-106115360D01*
X218109405Y-106111770D01*
X218161635Y-106063681D01*
X218231573Y-106051465D01*
X218297013Y-106078999D01*
X218324840Y-106110831D01*
X218327616Y-106115361D01*
X218394744Y-106224904D01*
X218543698Y-106396861D01*
X218718737Y-106542181D01*
X218723189Y-106544783D01*
X218723194Y-106544786D01*
X218878145Y-106635332D01*
X218915160Y-106656962D01*
X219127693Y-106738120D01*
X219132759Y-106739151D01*
X219132760Y-106739151D01*
X219231861Y-106759313D01*
X219350627Y-106783476D01*
X219478437Y-106788163D01*
X219572811Y-106791624D01*
X219572815Y-106791624D01*
X219577975Y-106791813D01*
X219583095Y-106791157D01*
X219583097Y-106791157D01*
X219798504Y-106763563D01*
X219798505Y-106763563D01*
X219803632Y-106762906D01*
X219808582Y-106761421D01*
X220016591Y-106699015D01*
X220016592Y-106699014D01*
X220021537Y-106697531D01*
X220225839Y-106597444D01*
X220230043Y-106594446D01*
X220230047Y-106594443D01*
X220406847Y-106468333D01*
X220406849Y-106468331D01*
X220411051Y-106465334D01*
X220572199Y-106304747D01*
X220626764Y-106228812D01*
X220701938Y-106124198D01*
X220701942Y-106124192D01*
X220704956Y-106119997D01*
X220805755Y-105916046D01*
X220871890Y-105698370D01*
X220901585Y-105472815D01*
X220903242Y-105405000D01*
X220884601Y-105178264D01*
X220829178Y-104957617D01*
X220742670Y-104758663D01*
X220740522Y-104753722D01*
X220740520Y-104753719D01*
X220738462Y-104748985D01*
X220614890Y-104557971D01*
X220461779Y-104389704D01*
X220283241Y-104248704D01*
X220245537Y-104227890D01*
X220198336Y-104201834D01*
X220084072Y-104138757D01*
X220079203Y-104137033D01*
X220079199Y-104137031D01*
X219874496Y-104064541D01*
X219874492Y-104064540D01*
X219869621Y-104062815D01*
X219864528Y-104061908D01*
X219864525Y-104061907D01*
X219650734Y-104023825D01*
X219650728Y-104023824D01*
X219645645Y-104022919D01*
X219572196Y-104022022D01*
X219423331Y-104020203D01*
X219423329Y-104020203D01*
X219418161Y-104020140D01*
X219193278Y-104054552D01*
X218977035Y-104125231D01*
X218972447Y-104127619D01*
X218972443Y-104127621D01*
X218784644Y-104225383D01*
X218775239Y-104230279D01*
X218771106Y-104233382D01*
X218771103Y-104233384D01*
X218714476Y-104275901D01*
X218593310Y-104366875D01*
X218436133Y-104531351D01*
X218433221Y-104535620D01*
X218433215Y-104535628D01*
X218317960Y-104704585D01*
X218263049Y-104749588D01*
X218192524Y-104757759D01*
X218128777Y-104726505D01*
X218108080Y-104702021D01*
X218017698Y-104562311D01*
X218017696Y-104562308D01*
X218014890Y-104557971D01*
X217861779Y-104389704D01*
X217683241Y-104248704D01*
X217645537Y-104227890D01*
X217598336Y-104201834D01*
X217484072Y-104138757D01*
X217479203Y-104137033D01*
X217479199Y-104137031D01*
X217274496Y-104064541D01*
X217274492Y-104064540D01*
X217269621Y-104062815D01*
X217264528Y-104061908D01*
X217264525Y-104061907D01*
X217050734Y-104023825D01*
X217050728Y-104023824D01*
X217045645Y-104022919D01*
X216972196Y-104022022D01*
X216823331Y-104020203D01*
X216823329Y-104020203D01*
X216818161Y-104020140D01*
X216593278Y-104054552D01*
X216377035Y-104125231D01*
X216372447Y-104127619D01*
X216372443Y-104127621D01*
X216184644Y-104225383D01*
X216175239Y-104230279D01*
X216171106Y-104233382D01*
X216171103Y-104233384D01*
X216114476Y-104275901D01*
X215993310Y-104366875D01*
X215836133Y-104531351D01*
X215833221Y-104535620D01*
X215833215Y-104535628D01*
X215717960Y-104704585D01*
X215663049Y-104749588D01*
X215592524Y-104757759D01*
X215528777Y-104726505D01*
X215508080Y-104702021D01*
X215417698Y-104562311D01*
X215417696Y-104562308D01*
X215414890Y-104557971D01*
X215261779Y-104389704D01*
X215083241Y-104248704D01*
X215045537Y-104227890D01*
X214998336Y-104201834D01*
X214884072Y-104138757D01*
X214879203Y-104137033D01*
X214879199Y-104137031D01*
X214674496Y-104064541D01*
X214674492Y-104064540D01*
X214669621Y-104062815D01*
X214664528Y-104061908D01*
X214664525Y-104061907D01*
X214450734Y-104023825D01*
X214450728Y-104023824D01*
X214445645Y-104022919D01*
X214372196Y-104022022D01*
X214223331Y-104020203D01*
X214223329Y-104020203D01*
X214218161Y-104020140D01*
X213993278Y-104054552D01*
X213777035Y-104125231D01*
X213772447Y-104127619D01*
X213772443Y-104127621D01*
X213584644Y-104225383D01*
X213575239Y-104230279D01*
X213571106Y-104233382D01*
X213571103Y-104233384D01*
X213514476Y-104275901D01*
X213393310Y-104366875D01*
X213236133Y-104531351D01*
X213233221Y-104535620D01*
X213233215Y-104535628D01*
X213117960Y-104704585D01*
X213063049Y-104749588D01*
X212992524Y-104757759D01*
X212928777Y-104726505D01*
X212908080Y-104702021D01*
X212817698Y-104562311D01*
X212817696Y-104562308D01*
X212814890Y-104557971D01*
X212661779Y-104389704D01*
X212483241Y-104248704D01*
X212445537Y-104227890D01*
X212398336Y-104201834D01*
X212284072Y-104138757D01*
X212279203Y-104137033D01*
X212279199Y-104137031D01*
X212074496Y-104064541D01*
X212074492Y-104064540D01*
X212069621Y-104062815D01*
X212064528Y-104061908D01*
X212064525Y-104061907D01*
X211850734Y-104023825D01*
X211850728Y-104023824D01*
X211845645Y-104022919D01*
X211772196Y-104022022D01*
X211623331Y-104020203D01*
X211623329Y-104020203D01*
X211618161Y-104020140D01*
X211393278Y-104054552D01*
X211177035Y-104125231D01*
X211172447Y-104127619D01*
X211172443Y-104127621D01*
X210984644Y-104225383D01*
X210975239Y-104230279D01*
X210971106Y-104233382D01*
X210971103Y-104233384D01*
X210914476Y-104275901D01*
X210793310Y-104366875D01*
X210636133Y-104531351D01*
X210620580Y-104554151D01*
X210517655Y-104705034D01*
X210462743Y-104750037D01*
X210392218Y-104758208D01*
X210328471Y-104726954D01*
X210307774Y-104702469D01*
X210266145Y-104638119D01*
X210255458Y-104628915D01*
X210245891Y-104633319D01*
X209487022Y-105392188D01*
X209479408Y-105406132D01*
X208749356Y-105406132D01*
X208750592Y-105403868D01*
X208750461Y-105402035D01*
X208746210Y-105395420D01*
X207986858Y-104636068D01*
X207975322Y-104629768D01*
X207963039Y-104639391D01*
X207917949Y-104705490D01*
X207863037Y-104750492D01*
X207792512Y-104758663D01*
X207728766Y-104727408D01*
X207708069Y-104702925D01*
X207666144Y-104638118D01*
X207655458Y-104628915D01*
X207645891Y-104633319D01*
X206887022Y-105392188D01*
X206879408Y-105406132D01*
X206149356Y-105406132D01*
X206150592Y-105403868D01*
X206150461Y-105402035D01*
X206146210Y-105395420D01*
X205386858Y-104636068D01*
X205375322Y-104629768D01*
X205363039Y-104639391D01*
X205311279Y-104715268D01*
X205306191Y-104724224D01*
X205214795Y-104921121D01*
X205211232Y-104930808D01*
X205153223Y-105139979D01*
X205151292Y-105150100D01*
X205128222Y-105365962D01*
X205127971Y-105376250D01*
X168910000Y-105376250D01*
X168910000Y-90945966D01*
X175223257Y-90945966D01*
X175253565Y-91080446D01*
X175256645Y-91090275D01*
X175336770Y-91287603D01*
X175341413Y-91296794D01*
X175452694Y-91478388D01*
X175458777Y-91486699D01*
X175598213Y-91647667D01*
X175605580Y-91654883D01*
X175769434Y-91790916D01*
X175777881Y-91796831D01*
X175961756Y-91904279D01*
X175971042Y-91908729D01*
X176170001Y-91984703D01*
X176179899Y-91987579D01*
X176283250Y-92008606D01*
X176297299Y-92007410D01*
X176301000Y-91997065D01*
X176301000Y-91996517D01*
X176809000Y-91996517D01*
X176813064Y-92010359D01*
X176826478Y-92012393D01*
X176833184Y-92011534D01*
X176843262Y-92009392D01*
X177047255Y-91948191D01*
X177056842Y-91944433D01*
X177248095Y-91850739D01*
X177256945Y-91845464D01*
X177430328Y-91721792D01*
X177438200Y-91715139D01*
X177589052Y-91564812D01*
X177595730Y-91556965D01*
X177720003Y-91384020D01*
X177725313Y-91375183D01*
X177819670Y-91184267D01*
X177823469Y-91174672D01*
X177885377Y-90970910D01*
X177887555Y-90960837D01*
X177888986Y-90949962D01*
X177886775Y-90935778D01*
X177873617Y-90932000D01*
X176827115Y-90932000D01*
X176811876Y-90936475D01*
X176810671Y-90937865D01*
X176809000Y-90945548D01*
X176809000Y-91996517D01*
X176301000Y-91996517D01*
X176301000Y-90950115D01*
X176296525Y-90934876D01*
X176295135Y-90933671D01*
X176287452Y-90932000D01*
X175238225Y-90932000D01*
X175224694Y-90935973D01*
X175223257Y-90945966D01*
X168910000Y-90945966D01*
X168910000Y-80862002D01*
X169639500Y-80862002D01*
X169639693Y-80864450D01*
X169639693Y-80864458D01*
X169641927Y-80892833D01*
X169642438Y-80899331D01*
X169669636Y-80992949D01*
X169686586Y-81051290D01*
X169688855Y-81059101D01*
X169692892Y-81065927D01*
X169769509Y-81195480D01*
X169769511Y-81195483D01*
X169773547Y-81202307D01*
X169891193Y-81319953D01*
X169898017Y-81323989D01*
X169898020Y-81323991D01*
X169956683Y-81358684D01*
X170034399Y-81404645D01*
X170042010Y-81406856D01*
X170042012Y-81406857D01*
X170094231Y-81422028D01*
X170194169Y-81451062D01*
X170200574Y-81451566D01*
X170200579Y-81451567D01*
X170229042Y-81453807D01*
X170229050Y-81453807D01*
X170231498Y-81454000D01*
X170463500Y-81454000D01*
X170531621Y-81474002D01*
X170578114Y-81527658D01*
X170589500Y-81580000D01*
X170589500Y-82737002D01*
X170589693Y-82739450D01*
X170589693Y-82739458D01*
X170590830Y-82753899D01*
X170592438Y-82774331D01*
X170638855Y-82934101D01*
X170642892Y-82940927D01*
X170719509Y-83070480D01*
X170719511Y-83070483D01*
X170723547Y-83077307D01*
X170841193Y-83194953D01*
X170848017Y-83198989D01*
X170848020Y-83198991D01*
X170909463Y-83235328D01*
X170984399Y-83279645D01*
X170992010Y-83281856D01*
X170992012Y-83281857D01*
X171030612Y-83293071D01*
X171144169Y-83326062D01*
X171150574Y-83326566D01*
X171150579Y-83326567D01*
X171179042Y-83328807D01*
X171179050Y-83328807D01*
X171181498Y-83329000D01*
X171614502Y-83329000D01*
X171616950Y-83328807D01*
X171616958Y-83328807D01*
X171645421Y-83326567D01*
X171645426Y-83326566D01*
X171651831Y-83326062D01*
X171658006Y-83324268D01*
X171664345Y-83323110D01*
X171664851Y-83325882D01*
X171723558Y-83326035D01*
X171776839Y-83357743D01*
X174409343Y-85990247D01*
X174416887Y-85998537D01*
X174421000Y-86005018D01*
X174426777Y-86010443D01*
X174470667Y-86051658D01*
X174473509Y-86054413D01*
X174493231Y-86074135D01*
X174496355Y-86076558D01*
X174496359Y-86076562D01*
X174496424Y-86076612D01*
X174505445Y-86084317D01*
X174537679Y-86114586D01*
X174544627Y-86118405D01*
X174544629Y-86118407D01*
X174555432Y-86124346D01*
X174571959Y-86135202D01*
X174581698Y-86142757D01*
X174581700Y-86142758D01*
X174587960Y-86147614D01*
X174628540Y-86165174D01*
X174639188Y-86170391D01*
X174677940Y-86191695D01*
X174685616Y-86193666D01*
X174685619Y-86193667D01*
X174697562Y-86196733D01*
X174716267Y-86203137D01*
X174734855Y-86211181D01*
X174742678Y-86212420D01*
X174742688Y-86212423D01*
X174778524Y-86218099D01*
X174790144Y-86220505D01*
X174825289Y-86229528D01*
X174832970Y-86231500D01*
X174853224Y-86231500D01*
X174872934Y-86233051D01*
X174892943Y-86236220D01*
X174900835Y-86235474D01*
X174936961Y-86232059D01*
X174948819Y-86231500D01*
X175070500Y-86231500D01*
X175138621Y-86251502D01*
X175185114Y-86305158D01*
X175196500Y-86357500D01*
X175196500Y-86496134D01*
X175203255Y-86558316D01*
X175254385Y-86694705D01*
X175341739Y-86811261D01*
X175458295Y-86898615D01*
X175466704Y-86901767D01*
X175466705Y-86901768D01*
X175575451Y-86942535D01*
X175632216Y-86985176D01*
X175656916Y-87051738D01*
X175641709Y-87121087D01*
X175622316Y-87147568D01*
X175499816Y-87275757D01*
X175495629Y-87280138D01*
X175369743Y-87464680D01*
X175354003Y-87498590D01*
X175291037Y-87634239D01*
X175275688Y-87667305D01*
X175215989Y-87882570D01*
X175192251Y-88104695D01*
X175192548Y-88109848D01*
X175192548Y-88109851D01*
X175198011Y-88204590D01*
X175205110Y-88327715D01*
X175206247Y-88332761D01*
X175206248Y-88332767D01*
X175228392Y-88431023D01*
X175254222Y-88545639D01*
X175338266Y-88752616D01*
X175340965Y-88757020D01*
X175449776Y-88934584D01*
X175454987Y-88943088D01*
X175601250Y-89111938D01*
X175773126Y-89254632D01*
X175846955Y-89297774D01*
X175895679Y-89349412D01*
X175908750Y-89419195D01*
X175882019Y-89484967D01*
X175841562Y-89518327D01*
X175833457Y-89522546D01*
X175824738Y-89528036D01*
X175654433Y-89655905D01*
X175646726Y-89662748D01*
X175499590Y-89816717D01*
X175493104Y-89824727D01*
X175373098Y-90000649D01*
X175368000Y-90009623D01*
X175278338Y-90202783D01*
X175274775Y-90212470D01*
X175219389Y-90412183D01*
X175220912Y-90420607D01*
X175233292Y-90424000D01*
X177873344Y-90424000D01*
X177886875Y-90420027D01*
X177888180Y-90410947D01*
X177846214Y-90243875D01*
X177842894Y-90234124D01*
X177757972Y-90038814D01*
X177753105Y-90029739D01*
X177637426Y-89850926D01*
X177631136Y-89842757D01*
X177487806Y-89685240D01*
X177480273Y-89678215D01*
X177313139Y-89546222D01*
X177304556Y-89540520D01*
X177267602Y-89520120D01*
X177217631Y-89469687D01*
X177202859Y-89400245D01*
X177227975Y-89333839D01*
X177255327Y-89307232D01*
X177318304Y-89262311D01*
X177434860Y-89179173D01*
X177478566Y-89135620D01*
X177589435Y-89025137D01*
X177593096Y-89021489D01*
X177596716Y-89016452D01*
X177720435Y-88844277D01*
X177723453Y-88840077D01*
X177728296Y-88830279D01*
X177820136Y-88644453D01*
X177820137Y-88644451D01*
X177822430Y-88639811D01*
X177887370Y-88426069D01*
X177916529Y-88204590D01*
X177918156Y-88138000D01*
X177899852Y-87915361D01*
X177845431Y-87698702D01*
X177756354Y-87493840D01*
X177684923Y-87383425D01*
X177637822Y-87310617D01*
X177637820Y-87310614D01*
X177635014Y-87306277D01*
X177631532Y-87302450D01*
X177487798Y-87144488D01*
X177456746Y-87080642D01*
X177465141Y-87010143D01*
X177510317Y-86955375D01*
X177536761Y-86941706D01*
X177643297Y-86901767D01*
X177651705Y-86898615D01*
X177768261Y-86811261D01*
X177855615Y-86694705D01*
X177906745Y-86558316D01*
X177913500Y-86496134D01*
X177913500Y-84699866D01*
X177906745Y-84637684D01*
X177855615Y-84501295D01*
X177768261Y-84384739D01*
X177651705Y-84297385D01*
X177515316Y-84246255D01*
X177453134Y-84239500D01*
X175656866Y-84239500D01*
X175594684Y-84246255D01*
X175458295Y-84297385D01*
X175341739Y-84384739D01*
X175254385Y-84501295D01*
X175203255Y-84637684D01*
X175201090Y-84657617D01*
X175196903Y-84696154D01*
X175169661Y-84761716D01*
X175111298Y-84802142D01*
X175040344Y-84804597D01*
X174982545Y-84771641D01*
X173687370Y-83476465D01*
X172243405Y-82032500D01*
X172209379Y-81970188D01*
X172206500Y-81943405D01*
X172206500Y-81664595D01*
X179361001Y-81664595D01*
X179361338Y-81671114D01*
X179371257Y-81766706D01*
X179374149Y-81780100D01*
X179425588Y-81934284D01*
X179431761Y-81947462D01*
X179517063Y-82085307D01*
X179526099Y-82096708D01*
X179640829Y-82211239D01*
X179652240Y-82220251D01*
X179790243Y-82305316D01*
X179803424Y-82311463D01*
X179957710Y-82362638D01*
X179971086Y-82365505D01*
X180065438Y-82375172D01*
X180071854Y-82375500D01*
X180321885Y-82375500D01*
X180337124Y-82371025D01*
X180338329Y-82369635D01*
X180340000Y-82361952D01*
X180340000Y-82357384D01*
X180848000Y-82357384D01*
X180852475Y-82372623D01*
X180853865Y-82373828D01*
X180861548Y-82375499D01*
X181116095Y-82375499D01*
X181122614Y-82375162D01*
X181218206Y-82365243D01*
X181231600Y-82362351D01*
X181385784Y-82310912D01*
X181398962Y-82304739D01*
X181536807Y-82219437D01*
X181548208Y-82210401D01*
X181662739Y-82095671D01*
X181671751Y-82084260D01*
X181756816Y-81946257D01*
X181762963Y-81933076D01*
X181814138Y-81778790D01*
X181817005Y-81765414D01*
X181826672Y-81671062D01*
X181827000Y-81664646D01*
X181827000Y-81552115D01*
X181822525Y-81536876D01*
X181821135Y-81535671D01*
X181813452Y-81534000D01*
X180866115Y-81534000D01*
X180850876Y-81538475D01*
X180849671Y-81539865D01*
X180848000Y-81547548D01*
X180848000Y-82357384D01*
X180340000Y-82357384D01*
X180340000Y-81552115D01*
X180335525Y-81536876D01*
X180334135Y-81535671D01*
X180326452Y-81534000D01*
X179379116Y-81534000D01*
X179363877Y-81538475D01*
X179362672Y-81539865D01*
X179361001Y-81547548D01*
X179361001Y-81664595D01*
X172206500Y-81664595D01*
X172206500Y-81432378D01*
X172602000Y-81432378D01*
X172605973Y-81445909D01*
X172613871Y-81447044D01*
X172753790Y-81406393D01*
X172768221Y-81400148D01*
X172897678Y-81323589D01*
X172910104Y-81313949D01*
X173016449Y-81207604D01*
X173026089Y-81195178D01*
X173102648Y-81065721D01*
X173108893Y-81051290D01*
X173109957Y-81047629D01*
X183603101Y-81047629D01*
X183603471Y-81054450D01*
X183608995Y-81105312D01*
X183612621Y-81120564D01*
X183657776Y-81241014D01*
X183666314Y-81256609D01*
X183742815Y-81358684D01*
X183755376Y-81371245D01*
X183857451Y-81447746D01*
X183873046Y-81456284D01*
X183993494Y-81501438D01*
X184008749Y-81505065D01*
X184059614Y-81510591D01*
X184066428Y-81510960D01*
X184620036Y-81510960D01*
X184647219Y-81502979D01*
X184638150Y-81461287D01*
X184638150Y-81021075D01*
X184633675Y-81005836D01*
X184632285Y-81004631D01*
X184624602Y-81002960D01*
X183621216Y-81002960D01*
X183605977Y-81007435D01*
X183604772Y-81008825D01*
X183603101Y-81016508D01*
X183603101Y-81047629D01*
X173109957Y-81047629D01*
X173151269Y-80905435D01*
X173153570Y-80892833D01*
X173155807Y-80864416D01*
X173156000Y-80859486D01*
X173156000Y-80480115D01*
X173151525Y-80464876D01*
X173150135Y-80463671D01*
X173142452Y-80462000D01*
X172620115Y-80462000D01*
X172604876Y-80466475D01*
X172603671Y-80467865D01*
X172602000Y-80475548D01*
X172602000Y-81432378D01*
X172206500Y-81432378D01*
X172206500Y-81428998D01*
X172206307Y-81426542D01*
X172204067Y-81398079D01*
X172204066Y-81398074D01*
X172203562Y-81391669D01*
X172165736Y-81261470D01*
X172159357Y-81239512D01*
X172159356Y-81239510D01*
X172157145Y-81231899D01*
X172119637Y-81168476D01*
X172111547Y-81154797D01*
X172094000Y-81090658D01*
X172094000Y-80080000D01*
X172114002Y-80011879D01*
X172167658Y-79965386D01*
X172220000Y-79954000D01*
X173137884Y-79954000D01*
X173153123Y-79949525D01*
X173154328Y-79948135D01*
X173155999Y-79940452D01*
X173155999Y-79556517D01*
X173155805Y-79551580D01*
X173153570Y-79523164D01*
X173151270Y-79510569D01*
X173108893Y-79364710D01*
X173102648Y-79350279D01*
X173026089Y-79220822D01*
X173016449Y-79208396D01*
X172910104Y-79102051D01*
X172897674Y-79092409D01*
X172762149Y-79012261D01*
X172713696Y-78960369D01*
X172700990Y-78890518D01*
X172728065Y-78824887D01*
X172737192Y-78814712D01*
X172777499Y-78774405D01*
X172839811Y-78740379D01*
X172866594Y-78737500D01*
X174355567Y-78737500D01*
X174423688Y-78757502D01*
X174463000Y-78799678D01*
X174463385Y-78800705D01*
X174550739Y-78917261D01*
X174667295Y-79004615D01*
X174803684Y-79055745D01*
X174865866Y-79062500D01*
X176162134Y-79062500D01*
X176224316Y-79055745D01*
X176360705Y-79004615D01*
X176477261Y-78917261D01*
X176564615Y-78800705D01*
X176564861Y-78800049D01*
X176612175Y-78752843D01*
X176672433Y-78737500D01*
X179178406Y-78737500D01*
X179246527Y-78757502D01*
X179267501Y-78774405D01*
X179323595Y-78830499D01*
X179357621Y-78892811D01*
X179360500Y-78919594D01*
X179360500Y-79592900D01*
X179360837Y-79596146D01*
X179360837Y-79596150D01*
X179368984Y-79674666D01*
X179371474Y-79698666D01*
X179373655Y-79705202D01*
X179373655Y-79705204D01*
X179398030Y-79778264D01*
X179427450Y-79866446D01*
X179520522Y-80016848D01*
X179645697Y-80141805D01*
X179650235Y-80144602D01*
X179690824Y-80201853D01*
X179694054Y-80272776D01*
X179658428Y-80334187D01*
X179649932Y-80341562D01*
X179639793Y-80349598D01*
X179525261Y-80464329D01*
X179516249Y-80475740D01*
X179431184Y-80613743D01*
X179425037Y-80626924D01*
X179373862Y-80781210D01*
X179370995Y-80794586D01*
X179361328Y-80888938D01*
X179361000Y-80895355D01*
X179361000Y-81007885D01*
X179365475Y-81023124D01*
X179366865Y-81024329D01*
X179374548Y-81026000D01*
X181808884Y-81026000D01*
X181824123Y-81021525D01*
X181825328Y-81020135D01*
X181826999Y-81012452D01*
X181826999Y-80895405D01*
X181826662Y-80888886D01*
X181816743Y-80793294D01*
X181813851Y-80779900D01*
X181762412Y-80625716D01*
X181756239Y-80612538D01*
X181670937Y-80474693D01*
X181661901Y-80463292D01*
X181547172Y-80348762D01*
X181538238Y-80341706D01*
X181497177Y-80283788D01*
X181493947Y-80212865D01*
X181529574Y-80151454D01*
X181537407Y-80144654D01*
X181543348Y-80140978D01*
X181555683Y-80128622D01*
X181663134Y-80020983D01*
X181668305Y-80015803D01*
X181740684Y-79898383D01*
X181793455Y-79850891D01*
X181847943Y-79838500D01*
X182522406Y-79838500D01*
X182590527Y-79858502D01*
X182611501Y-79875405D01*
X182990843Y-80254747D01*
X182998387Y-80263037D01*
X183002500Y-80269518D01*
X183008277Y-80274943D01*
X183052167Y-80316158D01*
X183055009Y-80318913D01*
X183074730Y-80338634D01*
X183077925Y-80341112D01*
X183086947Y-80348818D01*
X183119179Y-80379086D01*
X183126128Y-80382906D01*
X183136932Y-80388846D01*
X183153456Y-80399699D01*
X183169459Y-80412113D01*
X183210043Y-80429676D01*
X183220673Y-80434883D01*
X183259440Y-80456195D01*
X183267117Y-80458166D01*
X183267122Y-80458168D01*
X183279058Y-80461232D01*
X183297766Y-80467637D01*
X183316355Y-80475681D01*
X183324180Y-80476920D01*
X183324182Y-80476921D01*
X183360019Y-80482597D01*
X183371640Y-80485004D01*
X183406789Y-80494028D01*
X183414470Y-80496000D01*
X183434731Y-80496000D01*
X183454440Y-80497551D01*
X183474443Y-80500719D01*
X183482337Y-80499973D01*
X183485687Y-80500078D01*
X183553146Y-80522209D01*
X183597931Y-80577298D01*
X183606994Y-80639623D01*
X183603469Y-80672072D01*
X183603100Y-80678888D01*
X183603100Y-80705445D01*
X183607575Y-80720684D01*
X183608965Y-80721889D01*
X183616648Y-80723560D01*
X184620035Y-80723560D01*
X184635274Y-80719085D01*
X184636479Y-80717695D01*
X184638150Y-80710012D01*
X184638150Y-80636700D01*
X184658152Y-80568579D01*
X184711808Y-80522086D01*
X184764150Y-80510700D01*
X184791550Y-80510700D01*
X184859671Y-80530702D01*
X184906164Y-80584358D01*
X184917550Y-80636700D01*
X184917550Y-80705445D01*
X184922025Y-80720684D01*
X184923415Y-80721889D01*
X184931098Y-80723560D01*
X185934484Y-80723560D01*
X185949723Y-80719085D01*
X185950928Y-80717695D01*
X185952599Y-80710012D01*
X185952599Y-80678891D01*
X185952230Y-80672072D01*
X185947299Y-80626679D01*
X185947299Y-80599465D01*
X185952231Y-80554066D01*
X185952600Y-80547252D01*
X185952600Y-80520695D01*
X185948125Y-80505456D01*
X185946733Y-80504250D01*
X185929588Y-80500520D01*
X185867276Y-80466495D01*
X185833251Y-80404183D01*
X185838317Y-80333367D01*
X185855546Y-80301835D01*
X185872306Y-80279473D01*
X185883728Y-80264232D01*
X185940587Y-80221717D01*
X185949057Y-80218901D01*
X185949723Y-80218706D01*
X185950928Y-80217315D01*
X185952599Y-80209632D01*
X185952599Y-80178510D01*
X185952230Y-80171689D01*
X185947552Y-80128622D01*
X185947552Y-80101410D01*
X185952731Y-80053733D01*
X185952731Y-80053728D01*
X185953100Y-80050334D01*
X185953100Y-79674666D01*
X185947804Y-79625915D01*
X185947804Y-79598701D01*
X185948082Y-79596150D01*
X185953100Y-79549954D01*
X185953100Y-79174286D01*
X185947804Y-79125535D01*
X185947804Y-79098321D01*
X185948052Y-79096047D01*
X185953100Y-79049574D01*
X185953100Y-78673906D01*
X185946345Y-78611724D01*
X185895215Y-78475335D01*
X185807861Y-78358779D01*
X185691305Y-78271425D01*
X185554916Y-78220295D01*
X185547064Y-78219442D01*
X185547060Y-78219441D01*
X185528893Y-78217468D01*
X185463330Y-78190226D01*
X185422904Y-78131863D01*
X185416500Y-78092205D01*
X185416500Y-78006999D01*
X185433381Y-77943999D01*
X185489223Y-77847279D01*
X185489224Y-77847278D01*
X185492527Y-77841556D01*
X185551542Y-77659928D01*
X185552838Y-77647602D01*
X185570814Y-77476565D01*
X185571504Y-77470000D01*
X185556983Y-77331836D01*
X185552232Y-77286635D01*
X185552232Y-77286633D01*
X185551542Y-77280072D01*
X185492527Y-77098444D01*
X185480144Y-77076995D01*
X185449397Y-77023740D01*
X185397040Y-76933056D01*
X185358651Y-76890420D01*
X185273675Y-76796045D01*
X185273674Y-76796044D01*
X185269253Y-76791134D01*
X185114752Y-76678882D01*
X185108724Y-76676198D01*
X185108722Y-76676197D01*
X184946319Y-76603891D01*
X184946318Y-76603891D01*
X184940288Y-76601206D01*
X184846887Y-76581353D01*
X184759944Y-76562872D01*
X184759939Y-76562872D01*
X184753487Y-76561500D01*
X184562513Y-76561500D01*
X184556061Y-76562872D01*
X184556056Y-76562872D01*
X184469113Y-76581353D01*
X184375712Y-76601206D01*
X184369682Y-76603891D01*
X184369681Y-76603891D01*
X184207278Y-76676197D01*
X184207276Y-76676198D01*
X184201248Y-76678882D01*
X184046747Y-76791134D01*
X184042326Y-76796044D01*
X184042325Y-76796045D01*
X183957350Y-76890420D01*
X183918960Y-76933056D01*
X183866603Y-77023740D01*
X183835857Y-77076995D01*
X183823473Y-77098444D01*
X183764458Y-77280072D01*
X183763768Y-77286633D01*
X183763768Y-77286635D01*
X183759017Y-77331836D01*
X183744496Y-77470000D01*
X183745186Y-77476565D01*
X183763163Y-77647602D01*
X183764458Y-77659928D01*
X183823473Y-77841556D01*
X183826776Y-77847278D01*
X183826777Y-77847279D01*
X183882619Y-77943999D01*
X183899500Y-78006999D01*
X183899500Y-78182088D01*
X183879498Y-78250209D01*
X183849065Y-78282914D01*
X183816667Y-78307195D01*
X183750161Y-78332043D01*
X183680778Y-78316990D01*
X183652007Y-78295464D01*
X183170405Y-77813862D01*
X183136379Y-77751550D01*
X183133500Y-77724767D01*
X183133500Y-76649594D01*
X183153502Y-76581473D01*
X183170405Y-76560499D01*
X183248000Y-76482904D01*
X185994239Y-76482904D01*
X185994751Y-76488473D01*
X185997361Y-76501506D01*
X186041439Y-76642161D01*
X186047645Y-76655906D01*
X186123533Y-76781211D01*
X186132840Y-76793080D01*
X186236420Y-76896660D01*
X186248289Y-76905967D01*
X186373594Y-76981855D01*
X186387339Y-76988061D01*
X186527989Y-77032137D01*
X186541036Y-77034750D01*
X186582459Y-77038556D01*
X186597336Y-77035634D01*
X186600500Y-77023740D01*
X186600500Y-76484615D01*
X186596025Y-76469376D01*
X186594635Y-76468171D01*
X186586952Y-76466500D01*
X186010847Y-76466500D01*
X185996302Y-76470771D01*
X185994239Y-76482904D01*
X183248000Y-76482904D01*
X183790443Y-75940461D01*
X185994389Y-75940461D01*
X185997312Y-75955335D01*
X186009207Y-75958500D01*
X186582385Y-75958500D01*
X186597624Y-75954025D01*
X186598829Y-75952635D01*
X186600500Y-75944952D01*
X186600500Y-75402902D01*
X186596229Y-75388357D01*
X186584096Y-75386294D01*
X186541027Y-75390251D01*
X186527994Y-75392861D01*
X186387339Y-75436939D01*
X186373594Y-75443145D01*
X186248289Y-75519033D01*
X186236420Y-75528340D01*
X186132840Y-75631920D01*
X186123533Y-75643789D01*
X186047645Y-75769094D01*
X186041439Y-75782839D01*
X185997361Y-75923494D01*
X185994751Y-75936527D01*
X185994389Y-75940461D01*
X183790443Y-75940461D01*
X185554549Y-74176355D01*
X185616861Y-74142329D01*
X185668762Y-74141979D01*
X185848597Y-74178567D01*
X185853772Y-74178757D01*
X185853774Y-74178757D01*
X186066673Y-74186564D01*
X186066677Y-74186564D01*
X186071837Y-74186753D01*
X186076957Y-74186097D01*
X186076959Y-74186097D01*
X186288288Y-74159025D01*
X186288289Y-74159025D01*
X186293416Y-74158368D01*
X186298366Y-74156883D01*
X186502429Y-74095661D01*
X186502434Y-74095659D01*
X186507384Y-74094174D01*
X186707994Y-73995896D01*
X186889860Y-73866173D01*
X186998091Y-73758319D01*
X187060462Y-73724404D01*
X187131268Y-73729592D01*
X187188030Y-73772238D01*
X187205012Y-73803341D01*
X187224574Y-73855521D01*
X187249385Y-73921705D01*
X187336739Y-74038261D01*
X187453295Y-74125615D01*
X187589684Y-74176745D01*
X187651866Y-74183500D01*
X189335406Y-74183500D01*
X189403527Y-74203502D01*
X189424501Y-74220405D01*
X191329595Y-76125499D01*
X191363621Y-76187811D01*
X191366500Y-76214594D01*
X191366500Y-77212768D01*
X191346498Y-77280889D01*
X191329595Y-77301863D01*
X190335993Y-78295464D01*
X190273681Y-78329490D01*
X190202865Y-78324425D01*
X190171333Y-78307195D01*
X190130792Y-78276811D01*
X190130790Y-78276810D01*
X190123605Y-78271425D01*
X189987216Y-78220295D01*
X189979364Y-78219442D01*
X189979360Y-78219441D01*
X189945893Y-78215806D01*
X189880331Y-78188564D01*
X189839904Y-78130202D01*
X189833500Y-78090543D01*
X189833500Y-77502414D01*
X189836534Y-77474928D01*
X189840953Y-77455157D01*
X189845852Y-77433241D01*
X189840824Y-77273261D01*
X189805420Y-77151402D01*
X189798379Y-77127167D01*
X189796168Y-77119557D01*
X189776044Y-77085529D01*
X189767347Y-77067776D01*
X189759552Y-77048088D01*
X189732666Y-77011082D01*
X189726148Y-77001160D01*
X189718729Y-76988614D01*
X189718728Y-76988613D01*
X189714692Y-76981788D01*
X189709084Y-76976180D01*
X189708334Y-76975213D01*
X189696762Y-76961665D01*
X189687550Y-76948985D01*
X189665472Y-76918598D01*
X189589166Y-76855472D01*
X189580387Y-76847483D01*
X188952404Y-76219500D01*
X188918378Y-76157188D01*
X188915499Y-76130405D01*
X188915499Y-75999064D01*
X188915030Y-75993953D01*
X188911350Y-75953900D01*
X188909134Y-75929781D01*
X188897498Y-75892651D01*
X188863020Y-75782631D01*
X188863019Y-75782629D01*
X188860748Y-75775382D01*
X188776930Y-75636982D01*
X188662518Y-75522570D01*
X188524118Y-75438752D01*
X188516871Y-75436481D01*
X188516869Y-75436480D01*
X188454715Y-75417002D01*
X188369719Y-75390366D01*
X188300437Y-75384000D01*
X188297539Y-75384000D01*
X188048849Y-75384001D01*
X187798564Y-75384001D01*
X187795705Y-75384264D01*
X187795697Y-75384264D01*
X187761924Y-75387367D01*
X187729281Y-75390366D01*
X187722903Y-75392365D01*
X187722902Y-75392365D01*
X187582131Y-75436480D01*
X187582129Y-75436481D01*
X187574882Y-75438752D01*
X187568385Y-75442687D01*
X187568380Y-75442689D01*
X187516789Y-75473934D01*
X187448160Y-75492114D01*
X187386245Y-75473934D01*
X187335412Y-75443148D01*
X187321661Y-75436939D01*
X187181011Y-75392863D01*
X187167964Y-75390250D01*
X187126541Y-75386444D01*
X187111664Y-75389366D01*
X187108500Y-75401260D01*
X187108500Y-77022098D01*
X187112771Y-77036643D01*
X187124904Y-77038706D01*
X187167973Y-77034749D01*
X187181006Y-77032139D01*
X187321661Y-76988061D01*
X187335412Y-76981852D01*
X187386245Y-76951066D01*
X187454874Y-76932886D01*
X187516789Y-76951066D01*
X187568380Y-76982311D01*
X187568385Y-76982313D01*
X187574882Y-76986248D01*
X187582129Y-76988519D01*
X187582131Y-76988520D01*
X187622466Y-77001160D01*
X187729281Y-77034634D01*
X187798563Y-77041000D01*
X187929905Y-77041000D01*
X187998026Y-77061002D01*
X188019000Y-77077905D01*
X188529595Y-77588500D01*
X188563621Y-77650812D01*
X188566500Y-77677595D01*
X188566500Y-78092748D01*
X188546498Y-78160869D01*
X188492842Y-78207362D01*
X188454108Y-78218011D01*
X188451455Y-78218299D01*
X188433084Y-78220295D01*
X188296695Y-78271425D01*
X188180139Y-78358779D01*
X188092785Y-78475335D01*
X188041655Y-78611724D01*
X188034900Y-78673906D01*
X188034900Y-79049574D01*
X188039949Y-79096047D01*
X188040196Y-79098321D01*
X188040196Y-79125535D01*
X188034900Y-79174286D01*
X188034900Y-79549954D01*
X188039919Y-79596150D01*
X188040196Y-79598701D01*
X188040196Y-79625915D01*
X188034900Y-79674666D01*
X188034900Y-80050334D01*
X188037343Y-80072815D01*
X188040196Y-80099081D01*
X188040196Y-80126295D01*
X188034900Y-80175046D01*
X188034900Y-80550714D01*
X188035269Y-80554108D01*
X188040196Y-80599461D01*
X188040196Y-80626675D01*
X188034900Y-80675426D01*
X188034900Y-81051094D01*
X188035269Y-81054491D01*
X188035453Y-81057888D01*
X188034042Y-81057964D01*
X188022513Y-81122275D01*
X187974192Y-81174291D01*
X187909778Y-81192000D01*
X186077717Y-81192000D01*
X186009596Y-81171998D01*
X185963103Y-81118342D01*
X185953348Y-81057913D01*
X185952047Y-81057843D01*
X185952600Y-81047632D01*
X185952600Y-81021075D01*
X185948125Y-81005836D01*
X185946735Y-81004631D01*
X185939052Y-81002960D01*
X184935665Y-81002960D01*
X184920426Y-81007435D01*
X184919221Y-81008825D01*
X184917550Y-81016508D01*
X184917550Y-81409856D01*
X184897726Y-81477370D01*
X184892645Y-81483234D01*
X184879983Y-81510960D01*
X184878764Y-81513630D01*
X184832271Y-81567285D01*
X184812168Y-81573188D01*
X184824799Y-81600845D01*
X184820977Y-81654272D01*
X184812577Y-81682881D01*
X184811937Y-81687329D01*
X184811936Y-81687336D01*
X184792639Y-81821552D01*
X184792638Y-81821559D01*
X184792000Y-81826000D01*
X184792000Y-82865500D01*
X184771998Y-82933621D01*
X184718342Y-82980114D01*
X184666000Y-82991500D01*
X184251866Y-82991500D01*
X184189684Y-82998255D01*
X184053295Y-83049385D01*
X183936739Y-83136739D01*
X183849385Y-83253295D01*
X183798255Y-83389684D01*
X183791500Y-83451866D01*
X183791500Y-86448134D01*
X183798255Y-86510316D01*
X183849385Y-86646705D01*
X183936739Y-86763261D01*
X184053295Y-86850615D01*
X184189684Y-86901745D01*
X184251866Y-86908500D01*
X189712884Y-86908500D01*
X189781005Y-86928502D01*
X189812762Y-86958071D01*
X189813365Y-86959010D01*
X189859858Y-87012666D01*
X189969134Y-87107355D01*
X190100660Y-87167421D01*
X190124414Y-87174396D01*
X190164458Y-87186154D01*
X190164462Y-87186155D01*
X190168781Y-87187423D01*
X190173229Y-87188063D01*
X190173236Y-87188064D01*
X190307452Y-87207361D01*
X190307459Y-87207362D01*
X190311900Y-87208000D01*
X190415129Y-87208000D01*
X190483250Y-87228002D01*
X190529743Y-87281658D01*
X190539847Y-87351932D01*
X190510353Y-87416512D01*
X190504224Y-87423095D01*
X186511089Y-91416230D01*
X186496677Y-91428616D01*
X186485082Y-91437149D01*
X186485077Y-91437154D01*
X186479182Y-91441492D01*
X186474443Y-91447070D01*
X186474440Y-91447073D01*
X186444965Y-91481768D01*
X186438035Y-91489284D01*
X186432340Y-91494979D01*
X186430060Y-91497861D01*
X186414719Y-91517251D01*
X186411928Y-91520655D01*
X186369409Y-91570703D01*
X186364667Y-91576285D01*
X186361339Y-91582801D01*
X186357972Y-91587850D01*
X186354805Y-91592979D01*
X186350266Y-91598716D01*
X186319345Y-91664875D01*
X186317442Y-91668769D01*
X186284231Y-91733808D01*
X186282492Y-91740916D01*
X186280393Y-91746559D01*
X186278476Y-91752322D01*
X186275378Y-91758950D01*
X186262828Y-91819289D01*
X186260514Y-91830412D01*
X186259544Y-91834696D01*
X186242192Y-91905610D01*
X186241500Y-91916764D01*
X186241464Y-91916762D01*
X186241225Y-91920755D01*
X186240851Y-91924947D01*
X186239360Y-91932115D01*
X186239558Y-91939432D01*
X186241454Y-92009521D01*
X186241500Y-92012928D01*
X186241500Y-92765500D01*
X186221498Y-92833621D01*
X186167842Y-92880114D01*
X186115500Y-92891500D01*
X184251866Y-92891500D01*
X184189684Y-92898255D01*
X184053295Y-92949385D01*
X183936739Y-93036739D01*
X183849385Y-93153295D01*
X183798255Y-93289684D01*
X183791500Y-93351866D01*
X183791500Y-96348134D01*
X183798255Y-96410316D01*
X183849385Y-96546705D01*
X183936739Y-96663261D01*
X184053295Y-96750615D01*
X184189684Y-96801745D01*
X184251866Y-96808500D01*
X186115500Y-96808500D01*
X186183621Y-96828502D01*
X186230114Y-96882158D01*
X186241500Y-96934500D01*
X186241500Y-97395430D01*
X186240067Y-97414380D01*
X186236801Y-97435849D01*
X186237394Y-97443141D01*
X186237394Y-97443144D01*
X186241085Y-97488518D01*
X186241500Y-97498733D01*
X186241500Y-97506793D01*
X186241925Y-97510437D01*
X186244789Y-97535007D01*
X186245222Y-97539382D01*
X186250287Y-97601646D01*
X186251140Y-97612137D01*
X186253396Y-97619101D01*
X186254587Y-97625060D01*
X186255971Y-97630915D01*
X186256818Y-97638181D01*
X186281735Y-97706827D01*
X186283152Y-97710955D01*
X186305649Y-97780399D01*
X186309445Y-97786654D01*
X186311951Y-97792128D01*
X186314670Y-97797558D01*
X186317167Y-97804437D01*
X186321180Y-97810557D01*
X186321180Y-97810558D01*
X186357186Y-97865476D01*
X186359523Y-97869180D01*
X186397405Y-97931607D01*
X186401121Y-97935815D01*
X186401122Y-97935816D01*
X186404803Y-97939984D01*
X186404776Y-97940008D01*
X186407429Y-97943000D01*
X186410132Y-97946233D01*
X186414144Y-97952352D01*
X186419456Y-97957384D01*
X186470383Y-98005628D01*
X186472825Y-98008006D01*
X186629595Y-98164776D01*
X186663621Y-98227088D01*
X186666500Y-98253871D01*
X186666500Y-99000400D01*
X186666837Y-99003646D01*
X186666837Y-99003650D01*
X186676752Y-99099206D01*
X186677474Y-99106166D01*
X186679655Y-99112702D01*
X186679655Y-99112704D01*
X186717992Y-99227614D01*
X186733450Y-99273946D01*
X186826522Y-99424348D01*
X186951697Y-99549305D01*
X186957927Y-99553145D01*
X186957928Y-99553146D01*
X187095288Y-99637816D01*
X187102262Y-99642115D01*
X187164110Y-99662629D01*
X187263611Y-99695632D01*
X187263613Y-99695632D01*
X187270139Y-99697797D01*
X187276975Y-99698497D01*
X187276978Y-99698498D01*
X187320031Y-99702909D01*
X187374600Y-99708500D01*
X188300400Y-99708500D01*
X188303646Y-99708163D01*
X188303650Y-99708163D01*
X188399308Y-99698238D01*
X188399312Y-99698237D01*
X188406166Y-99697526D01*
X188412702Y-99695345D01*
X188412704Y-99695345D01*
X188544806Y-99651272D01*
X188573946Y-99641550D01*
X188724348Y-99548478D01*
X188849305Y-99423303D01*
X188892196Y-99353722D01*
X188938275Y-99278968D01*
X188938276Y-99278966D01*
X188942115Y-99272738D01*
X188997797Y-99104861D01*
X189008500Y-99000400D01*
X189008500Y-98997095D01*
X189792001Y-98997095D01*
X189792338Y-99003614D01*
X189802257Y-99099206D01*
X189805149Y-99112600D01*
X189856588Y-99266784D01*
X189862761Y-99279962D01*
X189948063Y-99417807D01*
X189957099Y-99429208D01*
X190071829Y-99543739D01*
X190083240Y-99552751D01*
X190221243Y-99637816D01*
X190234424Y-99643963D01*
X190388710Y-99695138D01*
X190402086Y-99698005D01*
X190496438Y-99707672D01*
X190502854Y-99708000D01*
X190690385Y-99708000D01*
X190705624Y-99703525D01*
X190706829Y-99702135D01*
X190708500Y-99694452D01*
X190708500Y-99689884D01*
X191216500Y-99689884D01*
X191220975Y-99705123D01*
X191222365Y-99706328D01*
X191230048Y-99707999D01*
X191422095Y-99707999D01*
X191428614Y-99707662D01*
X191524206Y-99697743D01*
X191537600Y-99694851D01*
X191691784Y-99643412D01*
X191704962Y-99637239D01*
X191842807Y-99551937D01*
X191854208Y-99542901D01*
X191968739Y-99428171D01*
X191977751Y-99416760D01*
X192062816Y-99278757D01*
X192068963Y-99265576D01*
X192120138Y-99111290D01*
X192123005Y-99097914D01*
X192132672Y-99003562D01*
X192133000Y-98997146D01*
X192133000Y-98572115D01*
X192128525Y-98556876D01*
X192127135Y-98555671D01*
X192119452Y-98554000D01*
X191234615Y-98554000D01*
X191219376Y-98558475D01*
X191218171Y-98559865D01*
X191216500Y-98567548D01*
X191216500Y-99689884D01*
X190708500Y-99689884D01*
X190708500Y-98572115D01*
X190704025Y-98556876D01*
X190702635Y-98555671D01*
X190694952Y-98554000D01*
X189810116Y-98554000D01*
X189794877Y-98558475D01*
X189793672Y-98559865D01*
X189792001Y-98567548D01*
X189792001Y-98997095D01*
X189008500Y-98997095D01*
X189008500Y-98027885D01*
X189792000Y-98027885D01*
X189796475Y-98043124D01*
X189797865Y-98044329D01*
X189805548Y-98046000D01*
X190690385Y-98046000D01*
X190705624Y-98041525D01*
X190706829Y-98040135D01*
X190708500Y-98032452D01*
X190708500Y-98027885D01*
X191216500Y-98027885D01*
X191220975Y-98043124D01*
X191222365Y-98044329D01*
X191230048Y-98046000D01*
X192114884Y-98046000D01*
X192130123Y-98041525D01*
X192131328Y-98040135D01*
X192132999Y-98032452D01*
X192132999Y-97602905D01*
X192132662Y-97596386D01*
X192122743Y-97500794D01*
X192119851Y-97487400D01*
X192068412Y-97333216D01*
X192062239Y-97320038D01*
X191976937Y-97182193D01*
X191967901Y-97170792D01*
X191853171Y-97056261D01*
X191841760Y-97047249D01*
X191703757Y-96962184D01*
X191690576Y-96956037D01*
X191536290Y-96904862D01*
X191522914Y-96901995D01*
X191428562Y-96892328D01*
X191422145Y-96892000D01*
X191234615Y-96892000D01*
X191219376Y-96896475D01*
X191218171Y-96897865D01*
X191216500Y-96905548D01*
X191216500Y-98027885D01*
X190708500Y-98027885D01*
X190708500Y-96910116D01*
X190704025Y-96894877D01*
X190702635Y-96893672D01*
X190694952Y-96892001D01*
X190502905Y-96892001D01*
X190496386Y-96892338D01*
X190400794Y-96902257D01*
X190387400Y-96905149D01*
X190233216Y-96956588D01*
X190220038Y-96962761D01*
X190082193Y-97048063D01*
X190070792Y-97057099D01*
X189956261Y-97171829D01*
X189947249Y-97183240D01*
X189862184Y-97321243D01*
X189856037Y-97334424D01*
X189804862Y-97488710D01*
X189801995Y-97502086D01*
X189792328Y-97596438D01*
X189792000Y-97602855D01*
X189792000Y-98027885D01*
X189008500Y-98027885D01*
X189008500Y-97599600D01*
X189006646Y-97581731D01*
X188998238Y-97500692D01*
X188998237Y-97500688D01*
X188997526Y-97493834D01*
X188991656Y-97476238D01*
X188943868Y-97333002D01*
X188941550Y-97326054D01*
X188848478Y-97175652D01*
X188723303Y-97050695D01*
X188717069Y-97046852D01*
X188708807Y-97041759D01*
X188661314Y-96988987D01*
X188649892Y-96918915D01*
X188678166Y-96853792D01*
X188737160Y-96814292D01*
X188774924Y-96808500D01*
X189748134Y-96808500D01*
X189810316Y-96801745D01*
X189946705Y-96750615D01*
X190063261Y-96663261D01*
X190150615Y-96546705D01*
X190201745Y-96410316D01*
X190208500Y-96348134D01*
X190208500Y-93351866D01*
X190201745Y-93289684D01*
X190150615Y-93153295D01*
X190063261Y-93036739D01*
X189946705Y-92949385D01*
X189810316Y-92898255D01*
X189748134Y-92891500D01*
X187884500Y-92891500D01*
X187816379Y-92871498D01*
X187769886Y-92817842D01*
X187758500Y-92765500D01*
X187758500Y-92366371D01*
X187778502Y-92298250D01*
X187795405Y-92277276D01*
X187847281Y-92225400D01*
X194876500Y-92225400D01*
X194876837Y-92228646D01*
X194876837Y-92228650D01*
X194886618Y-92322914D01*
X194887474Y-92331166D01*
X194889655Y-92337702D01*
X194889655Y-92337704D01*
X194898175Y-92363240D01*
X194943450Y-92498946D01*
X195036522Y-92649348D01*
X195161697Y-92774305D01*
X195167927Y-92778145D01*
X195167928Y-92778146D01*
X195304352Y-92862239D01*
X195312262Y-92867115D01*
X195351453Y-92880114D01*
X195473611Y-92920632D01*
X195473613Y-92920632D01*
X195480139Y-92922797D01*
X195486975Y-92923497D01*
X195486978Y-92923498D01*
X195530031Y-92927909D01*
X195584600Y-92933500D01*
X195926000Y-92933500D01*
X195994121Y-92953502D01*
X196040614Y-93007158D01*
X196052000Y-93059500D01*
X196052000Y-94738000D01*
X196031998Y-94806121D01*
X195998270Y-94841213D01*
X195873913Y-94928288D01*
X195718288Y-95083913D01*
X195592052Y-95264198D01*
X195589731Y-95269176D01*
X195589729Y-95269179D01*
X195519334Y-95420141D01*
X195499039Y-95463664D01*
X195497617Y-95468972D01*
X195497616Y-95468974D01*
X195482146Y-95526710D01*
X195442077Y-95676251D01*
X195422895Y-95895500D01*
X195442077Y-96114749D01*
X195443501Y-96120063D01*
X195443501Y-96120064D01*
X195491030Y-96297444D01*
X195499039Y-96327336D01*
X195501361Y-96332316D01*
X195501362Y-96332318D01*
X195576534Y-96493523D01*
X195592052Y-96526802D01*
X195718288Y-96707087D01*
X195873913Y-96862712D01*
X195878421Y-96865869D01*
X195878424Y-96865871D01*
X196007982Y-96956588D01*
X196054197Y-96988948D01*
X196059179Y-96991271D01*
X196059184Y-96991274D01*
X196247670Y-97079166D01*
X196253664Y-97081961D01*
X196258972Y-97083383D01*
X196258974Y-97083384D01*
X196460936Y-97137499D01*
X196460937Y-97137499D01*
X196466251Y-97138923D01*
X196685500Y-97158105D01*
X196904749Y-97138923D01*
X196910063Y-97137499D01*
X196910064Y-97137499D01*
X197112026Y-97083384D01*
X197112028Y-97083383D01*
X197117336Y-97081961D01*
X197123330Y-97079166D01*
X197203640Y-97041717D01*
X197273832Y-97031056D01*
X197338645Y-97060036D01*
X197377501Y-97119456D01*
X197378064Y-97190450D01*
X197371086Y-97209160D01*
X197299039Y-97363664D01*
X197297617Y-97368972D01*
X197297616Y-97368974D01*
X197253128Y-97535007D01*
X197242077Y-97576251D01*
X197222895Y-97795500D01*
X197242077Y-98014749D01*
X197243501Y-98020063D01*
X197243501Y-98020064D01*
X197297073Y-98219997D01*
X197299039Y-98227336D01*
X197301361Y-98232316D01*
X197301362Y-98232318D01*
X197389114Y-98420501D01*
X197392052Y-98426802D01*
X197518288Y-98607087D01*
X197673913Y-98762712D01*
X197678421Y-98765869D01*
X197678424Y-98765871D01*
X197849688Y-98885791D01*
X197854197Y-98888948D01*
X197859179Y-98891271D01*
X197859184Y-98891274D01*
X198014653Y-98963770D01*
X198053664Y-98981961D01*
X198058972Y-98983383D01*
X198058974Y-98983384D01*
X198260936Y-99037499D01*
X198260937Y-99037499D01*
X198266251Y-99038923D01*
X198485500Y-99058105D01*
X198704749Y-99038923D01*
X198710063Y-99037499D01*
X198710064Y-99037499D01*
X198912026Y-98983384D01*
X198912028Y-98983383D01*
X198917336Y-98981961D01*
X198956347Y-98963770D01*
X199111816Y-98891274D01*
X199111821Y-98891271D01*
X199116803Y-98888948D01*
X199121312Y-98885791D01*
X199292576Y-98765871D01*
X199292579Y-98765869D01*
X199297087Y-98762712D01*
X199452712Y-98607087D01*
X199578948Y-98426802D01*
X199581887Y-98420501D01*
X199669638Y-98232318D01*
X199669639Y-98232316D01*
X199671961Y-98227336D01*
X199673928Y-98219997D01*
X199727499Y-98020064D01*
X199727499Y-98020063D01*
X199728923Y-98014749D01*
X199748105Y-97795500D01*
X199728923Y-97576251D01*
X199717872Y-97535007D01*
X199673384Y-97368974D01*
X199673383Y-97368972D01*
X199671961Y-97363664D01*
X199599586Y-97208456D01*
X199588925Y-97138266D01*
X199617905Y-97073453D01*
X199677324Y-97034596D01*
X199748319Y-97034033D01*
X199767031Y-97041012D01*
X199848852Y-97079166D01*
X199859145Y-97082912D01*
X200061023Y-97137005D01*
X200071818Y-97138908D01*
X200280025Y-97157124D01*
X200290975Y-97157124D01*
X200499182Y-97138908D01*
X200509977Y-97137005D01*
X200711855Y-97082912D01*
X200722147Y-97079166D01*
X200911565Y-96990839D01*
X200921060Y-96985356D01*
X200962146Y-96956587D01*
X200970521Y-96946110D01*
X200963453Y-96932663D01*
X199927422Y-95896632D01*
X200649908Y-95896632D01*
X200650039Y-95898465D01*
X200654290Y-95905080D01*
X201323384Y-96574174D01*
X201335159Y-96580604D01*
X201347174Y-96571308D01*
X201375356Y-96531060D01*
X201380839Y-96521564D01*
X201469166Y-96332147D01*
X201472912Y-96321855D01*
X201527005Y-96119977D01*
X201528908Y-96109182D01*
X201547124Y-95900975D01*
X201547124Y-95890025D01*
X201528908Y-95681818D01*
X201527005Y-95671023D01*
X201472912Y-95469145D01*
X201469166Y-95458853D01*
X201380839Y-95269436D01*
X201375356Y-95259940D01*
X201346587Y-95218854D01*
X201336110Y-95210479D01*
X201322662Y-95217548D01*
X200657522Y-95882688D01*
X200649908Y-95896632D01*
X199927422Y-95896632D01*
X199247616Y-95216826D01*
X199235841Y-95210396D01*
X199223826Y-95219692D01*
X199195644Y-95259940D01*
X199190161Y-95269436D01*
X199101834Y-95458853D01*
X199098088Y-95469145D01*
X199043995Y-95671023D01*
X199042092Y-95681818D01*
X199023876Y-95890025D01*
X199023876Y-95900975D01*
X199042092Y-96109182D01*
X199043995Y-96119977D01*
X199098088Y-96321855D01*
X199101834Y-96332147D01*
X199171790Y-96482167D01*
X199182451Y-96552358D01*
X199153471Y-96617171D01*
X199094052Y-96656028D01*
X199023057Y-96656591D01*
X199004345Y-96649612D01*
X199003640Y-96649283D01*
X198917336Y-96609039D01*
X198912028Y-96607617D01*
X198912026Y-96607616D01*
X198710064Y-96553501D01*
X198710063Y-96553501D01*
X198704749Y-96552077D01*
X198485500Y-96532895D01*
X198266251Y-96552077D01*
X198260937Y-96553501D01*
X198260936Y-96553501D01*
X198058974Y-96607616D01*
X198058972Y-96607617D01*
X198053664Y-96609039D01*
X198048684Y-96611361D01*
X198048682Y-96611362D01*
X197967360Y-96649283D01*
X197897168Y-96659944D01*
X197832355Y-96630964D01*
X197793499Y-96571544D01*
X197792936Y-96500550D01*
X197799915Y-96481838D01*
X197806893Y-96466875D01*
X197852620Y-96368812D01*
X197869638Y-96332318D01*
X197869639Y-96332316D01*
X197871961Y-96327336D01*
X197879971Y-96297444D01*
X197927499Y-96120064D01*
X197927499Y-96120063D01*
X197928923Y-96114749D01*
X197948105Y-95895500D01*
X197928923Y-95676251D01*
X197888854Y-95526710D01*
X197873384Y-95468974D01*
X197873383Y-95468972D01*
X197871961Y-95463664D01*
X197851666Y-95420141D01*
X197781271Y-95269179D01*
X197781269Y-95269176D01*
X197778948Y-95264198D01*
X197652712Y-95083913D01*
X197497087Y-94928288D01*
X197492579Y-94925131D01*
X197492576Y-94925129D01*
X197377983Y-94844890D01*
X199600479Y-94844890D01*
X199607548Y-94858338D01*
X200272688Y-95523478D01*
X200286632Y-95531092D01*
X200288465Y-95530961D01*
X200295080Y-95526710D01*
X200964174Y-94857616D01*
X200970604Y-94845841D01*
X200961308Y-94833826D01*
X200921060Y-94805644D01*
X200911565Y-94800161D01*
X200722147Y-94711834D01*
X200711855Y-94708088D01*
X200509977Y-94653995D01*
X200499182Y-94652092D01*
X200290975Y-94633876D01*
X200280025Y-94633876D01*
X200071818Y-94652092D01*
X200061023Y-94653995D01*
X199859145Y-94708088D01*
X199848853Y-94711834D01*
X199659436Y-94800161D01*
X199649940Y-94805644D01*
X199608854Y-94834413D01*
X199600479Y-94844890D01*
X197377983Y-94844890D01*
X197372729Y-94841211D01*
X197328401Y-94785754D01*
X197319000Y-94737998D01*
X197319000Y-93018489D01*
X197339002Y-92950368D01*
X197392658Y-92903875D01*
X197462932Y-92893771D01*
X197484667Y-92898896D01*
X197548707Y-92920137D01*
X197562086Y-92923005D01*
X197656438Y-92932672D01*
X197662854Y-92933000D01*
X197775385Y-92933000D01*
X197790624Y-92928525D01*
X197791829Y-92927135D01*
X197793500Y-92919452D01*
X197793500Y-92914884D01*
X198301500Y-92914884D01*
X198305975Y-92930123D01*
X198307365Y-92931328D01*
X198315048Y-92932999D01*
X198432095Y-92932999D01*
X198438614Y-92932662D01*
X198534206Y-92922743D01*
X198547600Y-92919851D01*
X198701784Y-92868412D01*
X198714962Y-92862239D01*
X198852807Y-92776937D01*
X198864208Y-92767901D01*
X198978739Y-92653171D01*
X198987751Y-92641760D01*
X199072816Y-92503757D01*
X199078963Y-92490576D01*
X199130138Y-92336290D01*
X199133005Y-92322914D01*
X199142672Y-92228562D01*
X199143000Y-92222146D01*
X199143000Y-91972115D01*
X199138525Y-91956876D01*
X199137135Y-91955671D01*
X199129452Y-91954000D01*
X198319615Y-91954000D01*
X198304376Y-91958475D01*
X198303171Y-91959865D01*
X198301500Y-91967548D01*
X198301500Y-92914884D01*
X197793500Y-92914884D01*
X197793500Y-91427885D01*
X198301500Y-91427885D01*
X198305975Y-91443124D01*
X198307365Y-91444329D01*
X198315048Y-91446000D01*
X199124884Y-91446000D01*
X199140123Y-91441525D01*
X199141328Y-91440135D01*
X199142999Y-91432452D01*
X199142999Y-91177905D01*
X199142662Y-91171386D01*
X199132743Y-91075794D01*
X199129851Y-91062400D01*
X199078412Y-90908216D01*
X199072239Y-90895038D01*
X198986937Y-90757193D01*
X198977901Y-90745792D01*
X198863171Y-90631261D01*
X198851760Y-90622249D01*
X198713757Y-90537184D01*
X198700576Y-90531037D01*
X198546290Y-90479862D01*
X198532914Y-90476995D01*
X198438562Y-90467328D01*
X198432145Y-90467000D01*
X198319615Y-90467000D01*
X198304376Y-90471475D01*
X198303171Y-90472865D01*
X198301500Y-90480548D01*
X198301500Y-91427885D01*
X197793500Y-91427885D01*
X197793500Y-90485116D01*
X197789025Y-90469877D01*
X197787635Y-90468672D01*
X197779952Y-90467001D01*
X197662905Y-90467001D01*
X197656386Y-90467338D01*
X197560794Y-90477257D01*
X197547400Y-90480149D01*
X197393216Y-90531588D01*
X197380038Y-90537761D01*
X197242193Y-90623063D01*
X197230792Y-90632099D01*
X197116262Y-90746828D01*
X197109206Y-90755762D01*
X197051288Y-90796823D01*
X196980365Y-90800053D01*
X196918954Y-90764426D01*
X196912154Y-90756593D01*
X196908478Y-90750652D01*
X196783303Y-90625695D01*
X196775180Y-90620688D01*
X196638968Y-90536725D01*
X196638966Y-90536724D01*
X196632738Y-90532885D01*
X196552995Y-90506436D01*
X196471389Y-90479368D01*
X196471387Y-90479368D01*
X196464861Y-90477203D01*
X196458025Y-90476503D01*
X196458022Y-90476502D01*
X196414969Y-90472091D01*
X196360400Y-90466500D01*
X195584600Y-90466500D01*
X195581354Y-90466837D01*
X195581350Y-90466837D01*
X195485692Y-90476762D01*
X195485688Y-90476763D01*
X195478834Y-90477474D01*
X195472298Y-90479655D01*
X195472296Y-90479655D01*
X195455928Y-90485116D01*
X195311054Y-90533450D01*
X195160652Y-90626522D01*
X195035695Y-90751697D01*
X195031855Y-90757927D01*
X195031854Y-90757928D01*
X194991005Y-90824198D01*
X194942885Y-90902262D01*
X194931768Y-90935778D01*
X194910286Y-91000547D01*
X194887203Y-91070139D01*
X194886503Y-91076975D01*
X194886502Y-91076978D01*
X194883484Y-91106432D01*
X194876500Y-91174600D01*
X194876500Y-92225400D01*
X187847281Y-92225400D01*
X190530810Y-89541871D01*
X195254091Y-89541871D01*
X195285732Y-89650780D01*
X195291980Y-89665217D01*
X195365319Y-89789227D01*
X195374968Y-89801665D01*
X195476835Y-89903532D01*
X195489273Y-89913181D01*
X195613283Y-89986520D01*
X195627720Y-89992768D01*
X195767513Y-90033382D01*
X195780100Y-90035680D01*
X195807116Y-90037807D01*
X195812042Y-90038000D01*
X196601885Y-90038000D01*
X196617124Y-90033525D01*
X196618329Y-90032135D01*
X196620000Y-90024452D01*
X196620000Y-89548115D01*
X196615525Y-89532876D01*
X196614135Y-89531671D01*
X196606452Y-89530000D01*
X195268757Y-89530000D01*
X195255226Y-89533973D01*
X195254091Y-89541871D01*
X190530810Y-89541871D01*
X191060076Y-89012605D01*
X195255696Y-89012605D01*
X195255736Y-89026705D01*
X195263006Y-89030000D01*
X196601885Y-89030000D01*
X196617124Y-89025525D01*
X196618329Y-89024135D01*
X196620000Y-89016452D01*
X196620000Y-88540116D01*
X196615525Y-88524877D01*
X196614135Y-88523672D01*
X196606452Y-88522001D01*
X195812047Y-88522001D01*
X195807111Y-88522195D01*
X195780108Y-88524319D01*
X195767507Y-88526620D01*
X195627720Y-88567232D01*
X195613283Y-88573480D01*
X195489273Y-88646819D01*
X195476835Y-88656468D01*
X195374968Y-88758335D01*
X195365319Y-88770773D01*
X195291980Y-88894783D01*
X195285732Y-88909220D01*
X195255696Y-89012605D01*
X191060076Y-89012605D01*
X193078586Y-86994095D01*
X195402001Y-86994095D01*
X195402338Y-87000614D01*
X195412257Y-87096206D01*
X195415149Y-87109600D01*
X195466588Y-87263784D01*
X195472761Y-87276962D01*
X195558063Y-87414807D01*
X195567099Y-87426208D01*
X195681829Y-87540739D01*
X195693240Y-87549751D01*
X195831243Y-87634816D01*
X195844424Y-87640963D01*
X195998710Y-87692138D01*
X196012086Y-87695005D01*
X196106438Y-87704672D01*
X196112854Y-87705000D01*
X196287885Y-87705000D01*
X196303124Y-87700525D01*
X196304329Y-87699135D01*
X196306000Y-87691452D01*
X196306000Y-87686884D01*
X196814000Y-87686884D01*
X196818475Y-87702123D01*
X196819865Y-87703328D01*
X196827548Y-87704999D01*
X197007095Y-87704999D01*
X197013614Y-87704662D01*
X197109206Y-87694743D01*
X197122600Y-87691851D01*
X197276784Y-87640412D01*
X197289962Y-87634239D01*
X197427807Y-87548937D01*
X197439208Y-87539901D01*
X197553739Y-87425171D01*
X197562751Y-87413760D01*
X197647816Y-87275757D01*
X197653963Y-87262576D01*
X197705138Y-87108290D01*
X197708005Y-87094914D01*
X197717672Y-87000562D01*
X197718000Y-86994146D01*
X197718000Y-86594115D01*
X197713525Y-86578876D01*
X197712135Y-86577671D01*
X197704452Y-86576000D01*
X196832115Y-86576000D01*
X196816876Y-86580475D01*
X196815671Y-86581865D01*
X196814000Y-86589548D01*
X196814000Y-87686884D01*
X196306000Y-87686884D01*
X196306000Y-86594115D01*
X196301525Y-86578876D01*
X196300135Y-86577671D01*
X196292452Y-86576000D01*
X195420116Y-86576000D01*
X195404877Y-86580475D01*
X195403672Y-86581865D01*
X195402001Y-86589548D01*
X195402001Y-86994095D01*
X193078586Y-86994095D01*
X194022796Y-86049885D01*
X195402000Y-86049885D01*
X195406475Y-86065124D01*
X195407865Y-86066329D01*
X195415548Y-86068000D01*
X196287885Y-86068000D01*
X196303124Y-86063525D01*
X196304329Y-86062135D01*
X196306000Y-86054452D01*
X196306000Y-84957116D01*
X196301525Y-84941877D01*
X196300135Y-84940672D01*
X196292452Y-84939001D01*
X196112905Y-84939001D01*
X196106386Y-84939338D01*
X196010794Y-84949257D01*
X195997400Y-84952149D01*
X195843216Y-85003588D01*
X195830038Y-85009761D01*
X195692193Y-85095063D01*
X195680792Y-85104099D01*
X195566261Y-85218829D01*
X195557249Y-85230240D01*
X195472184Y-85368243D01*
X195466037Y-85381424D01*
X195414862Y-85535710D01*
X195411995Y-85549086D01*
X195402328Y-85643438D01*
X195402000Y-85649855D01*
X195402000Y-86049885D01*
X194022796Y-86049885D01*
X195088911Y-84983770D01*
X195103323Y-84971384D01*
X195114918Y-84962851D01*
X195114923Y-84962846D01*
X195120818Y-84958508D01*
X195125557Y-84952930D01*
X195125560Y-84952927D01*
X195155035Y-84918232D01*
X195161965Y-84910716D01*
X195167660Y-84905021D01*
X195184746Y-84883425D01*
X195185281Y-84882749D01*
X195188072Y-84879345D01*
X195230591Y-84829297D01*
X195230592Y-84829295D01*
X195235333Y-84823715D01*
X195238661Y-84817199D01*
X195242028Y-84812150D01*
X195245195Y-84807021D01*
X195249734Y-84801284D01*
X195280655Y-84735125D01*
X195282561Y-84731225D01*
X195298574Y-84699866D01*
X195315769Y-84666192D01*
X195317508Y-84659084D01*
X195319607Y-84653441D01*
X195321524Y-84647678D01*
X195324622Y-84641050D01*
X195339487Y-84569583D01*
X195340457Y-84565299D01*
X195348939Y-84530635D01*
X195357808Y-84494390D01*
X195358500Y-84483236D01*
X195358536Y-84483238D01*
X195358775Y-84479245D01*
X195359149Y-84475053D01*
X195360640Y-84467885D01*
X195358546Y-84390479D01*
X195358500Y-84387072D01*
X195358500Y-81525371D01*
X195378502Y-81457250D01*
X195432158Y-81410757D01*
X195502432Y-81400653D01*
X195567012Y-81430147D01*
X195573595Y-81436276D01*
X197012095Y-82874776D01*
X197046121Y-82937088D01*
X197049000Y-82963871D01*
X197049000Y-83283800D01*
X197028998Y-83351921D01*
X197012175Y-83372816D01*
X196968071Y-83416997D01*
X196964231Y-83423227D01*
X196964230Y-83423228D01*
X196881364Y-83557662D01*
X196876791Y-83565080D01*
X196822026Y-83730191D01*
X196821326Y-83737027D01*
X196821325Y-83737030D01*
X196819900Y-83750942D01*
X196811500Y-83832928D01*
X196811500Y-84407072D01*
X196811837Y-84410318D01*
X196811837Y-84410322D01*
X196820531Y-84494109D01*
X196822293Y-84511093D01*
X196824474Y-84517629D01*
X196824474Y-84517631D01*
X196860510Y-84625643D01*
X196877346Y-84676107D01*
X196921048Y-84746728D01*
X196939884Y-84815178D01*
X196918722Y-84882948D01*
X196864281Y-84928519D01*
X196849400Y-84933925D01*
X196816876Y-84943475D01*
X196815671Y-84944865D01*
X196814000Y-84952548D01*
X196814000Y-86049885D01*
X196818475Y-86065124D01*
X196819865Y-86066329D01*
X196827548Y-86068000D01*
X197699884Y-86068000D01*
X197715123Y-86063525D01*
X197716328Y-86062135D01*
X197717999Y-86054452D01*
X197717999Y-85649905D01*
X197717662Y-85643386D01*
X197707743Y-85547794D01*
X197704851Y-85534400D01*
X197653412Y-85380216D01*
X197647238Y-85367038D01*
X197603157Y-85295803D01*
X197584319Y-85227351D01*
X197605480Y-85159581D01*
X197659921Y-85114010D01*
X197710301Y-85103500D01*
X198107072Y-85103500D01*
X198110318Y-85103163D01*
X198110322Y-85103163D01*
X198204235Y-85093419D01*
X198204239Y-85093418D01*
X198211093Y-85092707D01*
X198217629Y-85090526D01*
X198217631Y-85090526D01*
X198369159Y-85039972D01*
X198376107Y-85037654D01*
X198524031Y-84946116D01*
X198529204Y-84940934D01*
X198630747Y-84839214D01*
X198693030Y-84805135D01*
X198763850Y-84810138D01*
X198808938Y-84839059D01*
X198837018Y-84867090D01*
X198871097Y-84929372D01*
X198874000Y-84956263D01*
X198874000Y-84973648D01*
X198853998Y-85041769D01*
X198814306Y-85080790D01*
X198785652Y-85098522D01*
X198660695Y-85223697D01*
X198656855Y-85229927D01*
X198656854Y-85229928D01*
X198611653Y-85303258D01*
X198567885Y-85374262D01*
X198562478Y-85390563D01*
X198520858Y-85516046D01*
X198512203Y-85542139D01*
X198511503Y-85548975D01*
X198511502Y-85548978D01*
X198509336Y-85570124D01*
X198501500Y-85646600D01*
X198501500Y-86997400D01*
X198501837Y-87000646D01*
X198501837Y-87000650D01*
X198511752Y-87096206D01*
X198512474Y-87103166D01*
X198514655Y-87109702D01*
X198514655Y-87109704D01*
X198517635Y-87118635D01*
X198568450Y-87270946D01*
X198661522Y-87421348D01*
X198786697Y-87546305D01*
X198792925Y-87550144D01*
X198792930Y-87550148D01*
X198841617Y-87580159D01*
X198889110Y-87632931D01*
X198901500Y-87687418D01*
X198901500Y-88380000D01*
X198881498Y-88448121D01*
X198827842Y-88494614D01*
X198775500Y-88506000D01*
X198616490Y-88506000D01*
X198614042Y-88506193D01*
X198614034Y-88506193D01*
X198586549Y-88508356D01*
X198586544Y-88508357D01*
X198580139Y-88508861D01*
X198488281Y-88535548D01*
X198432168Y-88551850D01*
X198432166Y-88551851D01*
X198424555Y-88554062D01*
X198417730Y-88558098D01*
X198417726Y-88558100D01*
X198323358Y-88613909D01*
X198254542Y-88631369D01*
X198195080Y-88613909D01*
X198126721Y-88573482D01*
X198112280Y-88567232D01*
X197972487Y-88526618D01*
X197959900Y-88524320D01*
X197932884Y-88522193D01*
X197927957Y-88522000D01*
X197138115Y-88522000D01*
X197122876Y-88526475D01*
X197121671Y-88527865D01*
X197120000Y-88535548D01*
X197120000Y-90019884D01*
X197124475Y-90035123D01*
X197125865Y-90036328D01*
X197133548Y-90037999D01*
X197927954Y-90037999D01*
X197932889Y-90037805D01*
X197959892Y-90035681D01*
X197972493Y-90033380D01*
X198112280Y-89992768D01*
X198126721Y-89986518D01*
X198195080Y-89946091D01*
X198263896Y-89928631D01*
X198323358Y-89946091D01*
X198417726Y-90001900D01*
X198417730Y-90001902D01*
X198424555Y-90005938D01*
X198432166Y-90008149D01*
X198432168Y-90008150D01*
X198472558Y-90019884D01*
X198580139Y-90051139D01*
X198586544Y-90051643D01*
X198586549Y-90051644D01*
X198614034Y-90053807D01*
X198614042Y-90053807D01*
X198616490Y-90054000D01*
X200523510Y-90054000D01*
X200525958Y-90053807D01*
X200525966Y-90053807D01*
X200553451Y-90051644D01*
X200553456Y-90051643D01*
X200559861Y-90051139D01*
X200667442Y-90019884D01*
X200707832Y-90008150D01*
X200707834Y-90008149D01*
X200715445Y-90005938D01*
X200722703Y-90001646D01*
X200848080Y-89927498D01*
X200854901Y-89923464D01*
X200969464Y-89808901D01*
X200981099Y-89789227D01*
X201047903Y-89676268D01*
X201047903Y-89676267D01*
X201051938Y-89669445D01*
X201055375Y-89657617D01*
X201068744Y-89611599D01*
X201097139Y-89513861D01*
X201097643Y-89507456D01*
X201097644Y-89507451D01*
X201099807Y-89479966D01*
X201099807Y-89479958D01*
X201100000Y-89477510D01*
X201100000Y-89082490D01*
X201099807Y-89080034D01*
X201097644Y-89052549D01*
X201097643Y-89052544D01*
X201097139Y-89046139D01*
X201068267Y-88946760D01*
X201068470Y-88875763D01*
X201100169Y-88822512D01*
X201522276Y-88400405D01*
X201584588Y-88366379D01*
X201611371Y-88363500D01*
X204486552Y-88363500D01*
X204554673Y-88383502D01*
X204587714Y-88417251D01*
X204588986Y-88416320D01*
X204592045Y-88420499D01*
X204594744Y-88424904D01*
X204743698Y-88596861D01*
X204918737Y-88742181D01*
X204923192Y-88744784D01*
X204923203Y-88744792D01*
X204927651Y-88747391D01*
X204976374Y-88799029D01*
X204989445Y-88868812D01*
X204962713Y-88934584D01*
X204939735Y-88956936D01*
X204926498Y-88966875D01*
X204820928Y-89046139D01*
X204793310Y-89066875D01*
X204789738Y-89070613D01*
X204683131Y-89182171D01*
X204636133Y-89231351D01*
X204507931Y-89419289D01*
X204505758Y-89423971D01*
X204505756Y-89423974D01*
X204443722Y-89557617D01*
X204412145Y-89625643D01*
X204395617Y-89685240D01*
X204363330Y-89801665D01*
X204351348Y-89844869D01*
X204350799Y-89850006D01*
X204328998Y-90054000D01*
X204327172Y-90071082D01*
X204327469Y-90076234D01*
X204327469Y-90076238D01*
X204332845Y-90169463D01*
X204340268Y-90298206D01*
X204341405Y-90303252D01*
X204341406Y-90303258D01*
X204341419Y-90303314D01*
X204390283Y-90520141D01*
X204475875Y-90730927D01*
X204594744Y-90924904D01*
X204743698Y-91096861D01*
X204918737Y-91242181D01*
X204923192Y-91244784D01*
X204923203Y-91244792D01*
X204927651Y-91247391D01*
X204976374Y-91299029D01*
X204989445Y-91368812D01*
X204962713Y-91434584D01*
X204939735Y-91456936D01*
X204900357Y-91486502D01*
X204806509Y-91556965D01*
X204793310Y-91566875D01*
X204774554Y-91586502D01*
X204651626Y-91715139D01*
X204636133Y-91731351D01*
X204567099Y-91832551D01*
X204515135Y-91908729D01*
X204507931Y-91919289D01*
X204505758Y-91923971D01*
X204505756Y-91923974D01*
X204443722Y-92057617D01*
X204412145Y-92125643D01*
X204396979Y-92180329D01*
X204359859Y-92314181D01*
X204351348Y-92344869D01*
X204350799Y-92350006D01*
X204333875Y-92508365D01*
X204327172Y-92571082D01*
X204327469Y-92576234D01*
X204327469Y-92576238D01*
X204335692Y-92718837D01*
X204340268Y-92798206D01*
X204341405Y-92803252D01*
X204341406Y-92803258D01*
X204361376Y-92891869D01*
X204390283Y-93020141D01*
X204475875Y-93230927D01*
X204594744Y-93424904D01*
X204598128Y-93428810D01*
X204598129Y-93428812D01*
X204632675Y-93468693D01*
X204743698Y-93596861D01*
X204918737Y-93742181D01*
X204923192Y-93744784D01*
X204923203Y-93744792D01*
X204927651Y-93747391D01*
X204976374Y-93799029D01*
X204989445Y-93868812D01*
X204962713Y-93934584D01*
X204939735Y-93956936D01*
X204793310Y-94066875D01*
X204789738Y-94070613D01*
X204640771Y-94226498D01*
X204636133Y-94231351D01*
X204507931Y-94419289D01*
X204505758Y-94423971D01*
X204505756Y-94423974D01*
X204460743Y-94520948D01*
X204412145Y-94625643D01*
X204403278Y-94657617D01*
X204354411Y-94833826D01*
X204351348Y-94844869D01*
X204350799Y-94850006D01*
X204338408Y-94965950D01*
X204327172Y-95071082D01*
X204327469Y-95076234D01*
X204327469Y-95076238D01*
X204335741Y-95219692D01*
X204340268Y-95298206D01*
X204341405Y-95303252D01*
X204341406Y-95303258D01*
X204361686Y-95393244D01*
X204390283Y-95520141D01*
X204475875Y-95730927D01*
X204594744Y-95924904D01*
X204598128Y-95928810D01*
X204598129Y-95928812D01*
X204632675Y-95968693D01*
X204743698Y-96096861D01*
X204918737Y-96242181D01*
X204923192Y-96244784D01*
X204923203Y-96244792D01*
X204927651Y-96247391D01*
X204976374Y-96299029D01*
X204989445Y-96368812D01*
X204962713Y-96434584D01*
X204939735Y-96456936D01*
X204926498Y-96466875D01*
X204811123Y-96553501D01*
X204793310Y-96566875D01*
X204636133Y-96731351D01*
X204583506Y-96808500D01*
X204526546Y-96892001D01*
X204507931Y-96919289D01*
X204505758Y-96923971D01*
X204505756Y-96923974D01*
X204433500Y-97079638D01*
X204412145Y-97125643D01*
X204389179Y-97208457D01*
X204354245Y-97334424D01*
X204351348Y-97344869D01*
X204350799Y-97350006D01*
X204330560Y-97539382D01*
X204327172Y-97571082D01*
X204327469Y-97576234D01*
X204327469Y-97576238D01*
X204329539Y-97612137D01*
X204340268Y-97798206D01*
X204341405Y-97803252D01*
X204341406Y-97803258D01*
X204356266Y-97869195D01*
X204390283Y-98020141D01*
X204475875Y-98230927D01*
X204594744Y-98424904D01*
X204743698Y-98596861D01*
X204918737Y-98742181D01*
X204923192Y-98744784D01*
X204923203Y-98744792D01*
X204927651Y-98747391D01*
X204976374Y-98799029D01*
X204989445Y-98868812D01*
X204962713Y-98934584D01*
X204939735Y-98956936D01*
X204877635Y-99003562D01*
X204804991Y-99058105D01*
X204793310Y-99066875D01*
X204636133Y-99231351D01*
X204507931Y-99419289D01*
X204505758Y-99423971D01*
X204505756Y-99423974D01*
X204443722Y-99557617D01*
X204412145Y-99625643D01*
X204351348Y-99844869D01*
X204350799Y-99850006D01*
X204333875Y-100008365D01*
X204327172Y-100071082D01*
X204327469Y-100076234D01*
X204327469Y-100076238D01*
X204332845Y-100169463D01*
X204340268Y-100298206D01*
X204341405Y-100303252D01*
X204341406Y-100303258D01*
X204341419Y-100303314D01*
X204390283Y-100520141D01*
X204475875Y-100730927D01*
X204594744Y-100924904D01*
X204743698Y-101096861D01*
X204918737Y-101242181D01*
X204923192Y-101244784D01*
X204923203Y-101244792D01*
X204927651Y-101247391D01*
X204976374Y-101299029D01*
X204989445Y-101368812D01*
X204962713Y-101434584D01*
X204939735Y-101456936D01*
X204793310Y-101566875D01*
X204636133Y-101731351D01*
X204507931Y-101919289D01*
X204505758Y-101923971D01*
X204505756Y-101923974D01*
X204443722Y-102057617D01*
X204412145Y-102125643D01*
X204351348Y-102344869D01*
X204350799Y-102350006D01*
X204333875Y-102508365D01*
X204327172Y-102571082D01*
X204327469Y-102576234D01*
X204327469Y-102576238D01*
X204332845Y-102669463D01*
X204340268Y-102798206D01*
X204341405Y-102803252D01*
X204341406Y-102803258D01*
X204341419Y-102803314D01*
X204390283Y-103020141D01*
X204475875Y-103230927D01*
X204594744Y-103424904D01*
X204743698Y-103596861D01*
X204918737Y-103742181D01*
X204923189Y-103744783D01*
X204923194Y-103744786D01*
X205082916Y-103838120D01*
X205115160Y-103856962D01*
X205327693Y-103938120D01*
X205332759Y-103939151D01*
X205332760Y-103939151D01*
X205369521Y-103946630D01*
X205550627Y-103983476D01*
X205727808Y-103989973D01*
X205795149Y-104012457D01*
X205839645Y-104067781D01*
X205847167Y-104138378D01*
X205815327Y-104201834D01*
X205784355Y-104225383D01*
X205784467Y-104225562D01*
X205782444Y-104226836D01*
X205781376Y-104227648D01*
X205780097Y-104228314D01*
X205771370Y-104233809D01*
X205746819Y-104252243D01*
X205738365Y-104263569D01*
X205745111Y-104275901D01*
X206502188Y-105032978D01*
X206516132Y-105040592D01*
X206517965Y-105040461D01*
X206524580Y-105036210D01*
X207286190Y-104274600D01*
X207292214Y-104263569D01*
X208338365Y-104263569D01*
X208345111Y-104275901D01*
X209102188Y-105032978D01*
X209116132Y-105040592D01*
X209117965Y-105040461D01*
X209124580Y-105036210D01*
X209886190Y-104274600D01*
X209893211Y-104261744D01*
X209885718Y-104251461D01*
X209878435Y-104246622D01*
X209688398Y-104141715D01*
X209678989Y-104137487D01*
X209474364Y-104065026D01*
X209464401Y-104062394D01*
X209250687Y-104024326D01*
X209240434Y-104023356D01*
X209023366Y-104020703D01*
X209013082Y-104021423D01*
X208798507Y-104054258D01*
X208788479Y-104056647D01*
X208582147Y-104124087D01*
X208572637Y-104128084D01*
X208380095Y-104228315D01*
X208371370Y-104233809D01*
X208346819Y-104252243D01*
X208338365Y-104263569D01*
X207292214Y-104263569D01*
X207293211Y-104261744D01*
X207285718Y-104251461D01*
X207278435Y-104246622D01*
X207088398Y-104141715D01*
X207078989Y-104137487D01*
X206874364Y-104065026D01*
X206864401Y-104062394D01*
X206650687Y-104024326D01*
X206640434Y-104023356D01*
X206503539Y-104021683D01*
X206435668Y-104000850D01*
X206389834Y-103946630D01*
X206380590Y-103876238D01*
X206410870Y-103812022D01*
X206431911Y-103793113D01*
X206606847Y-103668333D01*
X206606849Y-103668331D01*
X206611051Y-103665334D01*
X206772199Y-103504747D01*
X206826764Y-103428812D01*
X206901938Y-103324198D01*
X206901942Y-103324192D01*
X206904956Y-103319997D01*
X206996225Y-103135328D01*
X207003461Y-103120688D01*
X207003462Y-103120686D01*
X207005755Y-103116046D01*
X207063819Y-102924935D01*
X207070388Y-102903314D01*
X207070388Y-102903313D01*
X207071890Y-102898370D01*
X207072565Y-102893244D01*
X207101148Y-102676136D01*
X207101148Y-102676132D01*
X207101585Y-102672815D01*
X207103242Y-102605000D01*
X207092232Y-102471082D01*
X219227172Y-102471082D01*
X219227469Y-102476234D01*
X219227469Y-102476238D01*
X219232642Y-102565950D01*
X219240268Y-102698206D01*
X219241405Y-102703252D01*
X219241406Y-102703258D01*
X219261639Y-102793037D01*
X219290283Y-102920141D01*
X219375875Y-103130927D01*
X219494744Y-103324904D01*
X219643698Y-103496861D01*
X219818737Y-103642181D01*
X219823189Y-103644783D01*
X219823194Y-103644786D01*
X219917199Y-103699718D01*
X220015160Y-103756962D01*
X220227693Y-103838120D01*
X220232759Y-103839151D01*
X220232760Y-103839151D01*
X220307501Y-103854357D01*
X220450627Y-103883476D01*
X220578437Y-103888163D01*
X220672811Y-103891624D01*
X220672815Y-103891624D01*
X220677975Y-103891813D01*
X220683095Y-103891157D01*
X220683097Y-103891157D01*
X220898504Y-103863563D01*
X220898505Y-103863563D01*
X220903632Y-103862906D01*
X220917305Y-103858804D01*
X221116591Y-103799015D01*
X221116592Y-103799014D01*
X221121537Y-103797531D01*
X221325839Y-103697444D01*
X221330043Y-103694446D01*
X221330047Y-103694443D01*
X221506847Y-103568333D01*
X221506849Y-103568331D01*
X221511051Y-103565334D01*
X221672199Y-103404747D01*
X221726764Y-103328812D01*
X221801938Y-103224198D01*
X221801942Y-103224192D01*
X221804956Y-103219997D01*
X221905755Y-103016046D01*
X221971890Y-102798370D01*
X221985077Y-102698206D01*
X222001148Y-102576136D01*
X222001148Y-102576132D01*
X222001585Y-102572815D01*
X222003242Y-102505000D01*
X221984601Y-102278264D01*
X221929178Y-102057617D01*
X221838462Y-101848985D01*
X221714890Y-101657971D01*
X221561779Y-101489704D01*
X221440349Y-101393805D01*
X221387063Y-101351722D01*
X221346000Y-101293805D01*
X221342768Y-101222882D01*
X221378393Y-101161470D01*
X221391987Y-101150261D01*
X221396011Y-101147391D01*
X221511051Y-101065334D01*
X221672199Y-100904747D01*
X221726764Y-100828812D01*
X221801938Y-100724198D01*
X221801942Y-100724192D01*
X221804956Y-100719997D01*
X221905755Y-100516046D01*
X221971890Y-100298370D01*
X221985077Y-100198206D01*
X222001148Y-100076136D01*
X222001148Y-100076132D01*
X222001585Y-100072815D01*
X222003242Y-100005000D01*
X221984601Y-99778264D01*
X221929178Y-99557617D01*
X221871068Y-99423974D01*
X221840522Y-99353722D01*
X221840520Y-99353719D01*
X221838462Y-99348985D01*
X221714890Y-99157971D01*
X221561779Y-98989704D01*
X221430202Y-98885791D01*
X221387063Y-98851722D01*
X221346000Y-98793805D01*
X221342768Y-98722882D01*
X221378393Y-98661470D01*
X221391987Y-98650261D01*
X221396011Y-98647391D01*
X221511051Y-98565334D01*
X221672199Y-98404747D01*
X221726764Y-98328812D01*
X221801938Y-98224198D01*
X221801942Y-98224192D01*
X221804956Y-98219997D01*
X221892372Y-98043124D01*
X221903461Y-98020688D01*
X221903462Y-98020686D01*
X221905755Y-98016046D01*
X221971890Y-97798370D01*
X221975173Y-97773436D01*
X222001148Y-97576136D01*
X222001148Y-97576132D01*
X222001585Y-97572815D01*
X222002402Y-97539382D01*
X222003160Y-97508365D01*
X222003160Y-97508361D01*
X222003242Y-97505000D01*
X221984601Y-97278264D01*
X221929178Y-97057617D01*
X221861602Y-96902203D01*
X221840522Y-96853722D01*
X221840520Y-96853719D01*
X221838462Y-96848985D01*
X221749184Y-96710982D01*
X221717698Y-96662311D01*
X221717696Y-96662308D01*
X221714890Y-96657971D01*
X221561779Y-96489704D01*
X221440349Y-96393805D01*
X221387063Y-96351722D01*
X221346000Y-96293805D01*
X221342768Y-96222882D01*
X221378393Y-96161470D01*
X221391987Y-96150261D01*
X221396011Y-96147391D01*
X221511051Y-96065334D01*
X221672199Y-95904747D01*
X221735990Y-95815973D01*
X221791984Y-95772326D01*
X221838312Y-95763500D01*
X225059428Y-95763500D01*
X225127549Y-95783502D01*
X225174042Y-95837158D01*
X225184691Y-95875892D01*
X225191255Y-95936316D01*
X225242385Y-96072705D01*
X225329739Y-96189261D01*
X225446295Y-96276615D01*
X225582684Y-96327745D01*
X225644866Y-96334500D01*
X227441134Y-96334500D01*
X227503316Y-96327745D01*
X227639705Y-96276615D01*
X227756261Y-96189261D01*
X227843615Y-96072705D01*
X227894745Y-95936316D01*
X227901500Y-95874134D01*
X227901500Y-94077866D01*
X227894745Y-94015684D01*
X227843615Y-93879295D01*
X227756261Y-93762739D01*
X227639705Y-93675385D01*
X227520687Y-93630767D01*
X227463923Y-93588125D01*
X227439223Y-93521564D01*
X227454430Y-93452215D01*
X227475977Y-93423535D01*
X227577052Y-93322812D01*
X227583730Y-93314965D01*
X227708003Y-93142020D01*
X227713313Y-93133183D01*
X227807670Y-92942267D01*
X227811469Y-92932672D01*
X227873377Y-92728910D01*
X227875555Y-92718837D01*
X227876986Y-92707962D01*
X227874775Y-92693778D01*
X227861617Y-92690000D01*
X225226225Y-92690000D01*
X225212694Y-92693973D01*
X225211257Y-92703966D01*
X225241565Y-92838446D01*
X225244645Y-92848275D01*
X225324770Y-93045603D01*
X225329413Y-93054794D01*
X225440694Y-93236388D01*
X225446777Y-93244699D01*
X225586213Y-93405667D01*
X225593577Y-93412879D01*
X225598522Y-93416985D01*
X225638156Y-93475889D01*
X225639653Y-93546870D01*
X225602537Y-93607392D01*
X225562264Y-93631910D01*
X225454705Y-93672232D01*
X225454704Y-93672233D01*
X225446295Y-93675385D01*
X225329739Y-93762739D01*
X225242385Y-93879295D01*
X225191255Y-94015684D01*
X225184500Y-94077866D01*
X225184500Y-94120500D01*
X225164498Y-94188621D01*
X225110842Y-94235114D01*
X225058500Y-94246500D01*
X221840717Y-94246500D01*
X221772596Y-94226498D01*
X221734925Y-94188941D01*
X221717694Y-94162306D01*
X221714890Y-94157971D01*
X221561779Y-93989704D01*
X221412877Y-93872109D01*
X221387063Y-93851722D01*
X221346000Y-93793805D01*
X221342768Y-93722882D01*
X221378393Y-93661470D01*
X221391987Y-93650261D01*
X221396011Y-93647391D01*
X221511051Y-93565334D01*
X221672199Y-93404747D01*
X221726764Y-93328812D01*
X221801938Y-93224198D01*
X221801942Y-93224192D01*
X221804956Y-93219997D01*
X221895528Y-93036739D01*
X221903461Y-93020688D01*
X221903462Y-93020686D01*
X221905755Y-93016046D01*
X221971890Y-92798370D01*
X221975901Y-92767901D01*
X222001148Y-92576136D01*
X222001148Y-92576132D01*
X222001585Y-92572815D01*
X222003242Y-92505000D01*
X221984601Y-92278264D01*
X221957453Y-92170183D01*
X225207389Y-92170183D01*
X225208912Y-92178607D01*
X225221292Y-92182000D01*
X226270885Y-92182000D01*
X226286124Y-92177525D01*
X226287329Y-92176135D01*
X226289000Y-92168452D01*
X226289000Y-92163885D01*
X226797000Y-92163885D01*
X226801475Y-92179124D01*
X226802865Y-92180329D01*
X226810548Y-92182000D01*
X227861344Y-92182000D01*
X227874875Y-92178027D01*
X227876180Y-92168947D01*
X227834214Y-92001875D01*
X227830894Y-91992124D01*
X227745972Y-91796814D01*
X227741105Y-91787739D01*
X227625426Y-91608926D01*
X227619136Y-91600757D01*
X227475806Y-91443240D01*
X227468273Y-91436215D01*
X227301139Y-91304222D01*
X227292552Y-91298517D01*
X227106117Y-91195599D01*
X227096705Y-91191369D01*
X226895959Y-91120280D01*
X226885988Y-91117646D01*
X226814837Y-91104972D01*
X226801540Y-91106432D01*
X226797000Y-91120989D01*
X226797000Y-92163885D01*
X226289000Y-92163885D01*
X226289000Y-91119102D01*
X226285082Y-91105758D01*
X226270806Y-91103771D01*
X226232324Y-91109660D01*
X226222288Y-91112051D01*
X226019868Y-91178212D01*
X226010359Y-91182209D01*
X225821463Y-91280542D01*
X225812738Y-91286036D01*
X225642433Y-91413905D01*
X225634726Y-91420748D01*
X225487590Y-91574717D01*
X225481104Y-91582727D01*
X225361098Y-91758649D01*
X225356000Y-91767623D01*
X225266338Y-91960783D01*
X225262775Y-91970470D01*
X225207389Y-92170183D01*
X221957453Y-92170183D01*
X221929178Y-92057617D01*
X221867176Y-91915023D01*
X221840522Y-91853722D01*
X221840520Y-91853719D01*
X221838462Y-91848985D01*
X221758859Y-91725936D01*
X221717698Y-91662311D01*
X221717696Y-91662308D01*
X221714890Y-91657971D01*
X221561779Y-91489704D01*
X221427959Y-91384020D01*
X221387063Y-91351722D01*
X221346000Y-91293805D01*
X221342768Y-91222882D01*
X221378393Y-91161470D01*
X221391987Y-91150261D01*
X221396011Y-91147391D01*
X221511051Y-91065334D01*
X221672199Y-90904747D01*
X221726764Y-90828812D01*
X221801938Y-90724198D01*
X221801942Y-90724192D01*
X221804956Y-90719997D01*
X221895535Y-90536725D01*
X221903461Y-90520688D01*
X221903462Y-90520686D01*
X221905755Y-90516046D01*
X221971890Y-90298370D01*
X221972592Y-90293037D01*
X222001148Y-90076136D01*
X222001148Y-90076132D01*
X222001585Y-90072815D01*
X222002045Y-90054000D01*
X222003160Y-90008365D01*
X222003160Y-90008361D01*
X222003242Y-90005000D01*
X221984601Y-89778264D01*
X221929178Y-89557617D01*
X221838462Y-89348985D01*
X221714890Y-89157971D01*
X221561779Y-88989704D01*
X221459868Y-88909220D01*
X221387063Y-88851722D01*
X221346000Y-88793805D01*
X221342768Y-88722882D01*
X221378393Y-88661470D01*
X221391987Y-88650261D01*
X221396011Y-88647391D01*
X221511051Y-88565334D01*
X221672199Y-88404747D01*
X221726764Y-88328812D01*
X221801938Y-88224198D01*
X221801942Y-88224192D01*
X221804956Y-88219997D01*
X221905755Y-88016046D01*
X221971890Y-87798370D01*
X221972565Y-87793244D01*
X222001148Y-87576136D01*
X222001148Y-87576132D01*
X222001585Y-87572815D01*
X222002149Y-87549751D01*
X222003160Y-87508365D01*
X222003160Y-87508361D01*
X222003242Y-87505000D01*
X221984601Y-87278264D01*
X221929178Y-87057617D01*
X221864340Y-86908500D01*
X221840522Y-86853722D01*
X221840520Y-86853719D01*
X221838462Y-86848985D01*
X221714890Y-86657971D01*
X221561779Y-86489704D01*
X221440349Y-86393805D01*
X221387063Y-86351722D01*
X221346000Y-86293805D01*
X221342768Y-86222882D01*
X221378393Y-86161470D01*
X221391987Y-86150261D01*
X221396011Y-86147391D01*
X221511051Y-86065334D01*
X221672199Y-85904747D01*
X221726764Y-85828812D01*
X221801938Y-85724198D01*
X221801942Y-85724192D01*
X221804956Y-85719997D01*
X221892859Y-85542139D01*
X221903461Y-85520688D01*
X221903462Y-85520686D01*
X221905755Y-85516046D01*
X221962980Y-85327695D01*
X221970388Y-85303314D01*
X221970388Y-85303313D01*
X221971890Y-85298370D01*
X221977601Y-85254993D01*
X222001148Y-85076136D01*
X222001148Y-85076132D01*
X222001585Y-85072815D01*
X222002344Y-85041769D01*
X222003160Y-85008365D01*
X222003160Y-85008361D01*
X222003242Y-85005000D01*
X221984601Y-84778264D01*
X221929178Y-84557617D01*
X221838462Y-84348985D01*
X221714890Y-84157971D01*
X221561779Y-83989704D01*
X221440349Y-83893805D01*
X221387063Y-83851722D01*
X221346000Y-83793805D01*
X221342768Y-83722882D01*
X221378393Y-83661470D01*
X221391987Y-83650261D01*
X221396011Y-83647391D01*
X221511051Y-83565334D01*
X221672199Y-83404747D01*
X221695076Y-83372910D01*
X221801938Y-83224198D01*
X221801942Y-83224192D01*
X221804956Y-83219997D01*
X221905755Y-83016046D01*
X221971890Y-82798370D01*
X221977745Y-82753899D01*
X222001148Y-82576136D01*
X222001148Y-82576132D01*
X222001585Y-82572815D01*
X222003242Y-82505000D01*
X221984601Y-82278264D01*
X221929178Y-82057617D01*
X221838462Y-81848985D01*
X221723359Y-81671062D01*
X221717698Y-81662311D01*
X221717696Y-81662308D01*
X221714890Y-81657971D01*
X221561779Y-81489704D01*
X221440349Y-81393805D01*
X221387063Y-81351722D01*
X221346000Y-81293805D01*
X221342768Y-81222882D01*
X221378393Y-81161470D01*
X221391987Y-81150261D01*
X221396011Y-81147391D01*
X221511051Y-81065334D01*
X221672199Y-80904747D01*
X221704689Y-80859533D01*
X221801938Y-80724198D01*
X221801942Y-80724192D01*
X221804956Y-80719997D01*
X221902770Y-80522086D01*
X221903461Y-80520688D01*
X221903462Y-80520686D01*
X221905755Y-80516046D01*
X221971890Y-80298370D01*
X221975260Y-80272776D01*
X221976415Y-80264000D01*
X223266000Y-80264000D01*
X228854000Y-80264000D01*
X228854000Y-74676000D01*
X223266000Y-74676000D01*
X223266000Y-80264000D01*
X221976415Y-80264000D01*
X222001148Y-80076136D01*
X222001148Y-80076132D01*
X222001585Y-80072815D01*
X222002051Y-80053733D01*
X222003160Y-80008365D01*
X222003160Y-80008361D01*
X222003242Y-80005000D01*
X221984601Y-79778264D01*
X221929178Y-79557617D01*
X221867176Y-79415023D01*
X221840522Y-79353722D01*
X221840520Y-79353719D01*
X221838462Y-79348985D01*
X221747511Y-79208396D01*
X221717698Y-79162311D01*
X221717696Y-79162308D01*
X221714890Y-79157971D01*
X221561779Y-78989704D01*
X221386653Y-78851399D01*
X221345591Y-78793483D01*
X221342359Y-78722560D01*
X221371907Y-78671625D01*
X221370983Y-78670899D01*
X221376134Y-78664339D01*
X221377984Y-78661149D01*
X221379839Y-78659619D01*
X221390572Y-78645948D01*
X221383585Y-78632795D01*
X220627812Y-77877022D01*
X220613868Y-77869408D01*
X220612035Y-77869539D01*
X220605420Y-77873790D01*
X219843460Y-78635750D01*
X219836700Y-78648130D01*
X219856007Y-78673921D01*
X219854658Y-78674931D01*
X219880019Y-78705072D01*
X219889101Y-78775485D01*
X219858673Y-78839630D01*
X219840310Y-78856504D01*
X219697445Y-78963770D01*
X219693310Y-78966875D01*
X219536133Y-79131351D01*
X219407931Y-79319289D01*
X219405758Y-79323971D01*
X219405756Y-79323974D01*
X219316311Y-79516669D01*
X219312145Y-79525643D01*
X219251348Y-79744869D01*
X219250799Y-79750006D01*
X219227781Y-79965386D01*
X219227172Y-79971082D01*
X219227469Y-79976234D01*
X219227469Y-79976238D01*
X219232642Y-80065950D01*
X219240268Y-80198206D01*
X219241405Y-80203252D01*
X219241406Y-80203258D01*
X219267152Y-80317499D01*
X219290283Y-80420141D01*
X219375875Y-80630927D01*
X219494744Y-80824904D01*
X219643698Y-80996861D01*
X219818737Y-81142181D01*
X219823192Y-81144784D01*
X219823203Y-81144792D01*
X219827651Y-81147391D01*
X219876374Y-81199029D01*
X219889445Y-81268812D01*
X219862713Y-81334584D01*
X219839735Y-81356936D01*
X219781510Y-81400653D01*
X219698017Y-81463341D01*
X219693310Y-81466875D01*
X219689738Y-81470613D01*
X219551884Y-81614869D01*
X219536133Y-81631351D01*
X219407931Y-81819289D01*
X219405758Y-81823971D01*
X219405756Y-81823974D01*
X219326093Y-81995595D01*
X219312145Y-82025643D01*
X219251348Y-82244869D01*
X219250799Y-82250006D01*
X219228874Y-82455161D01*
X219227172Y-82471082D01*
X219227469Y-82476234D01*
X219227469Y-82476238D01*
X219233038Y-82572815D01*
X219240268Y-82698206D01*
X219241405Y-82703252D01*
X219241406Y-82703258D01*
X219261639Y-82793037D01*
X219290283Y-82920141D01*
X219375875Y-83130927D01*
X219494744Y-83324904D01*
X219498125Y-83328807D01*
X219498129Y-83328812D01*
X219532675Y-83368693D01*
X219643698Y-83496861D01*
X219818737Y-83642181D01*
X219823192Y-83644784D01*
X219823203Y-83644792D01*
X219827651Y-83647391D01*
X219876374Y-83699029D01*
X219889445Y-83768812D01*
X219862713Y-83834584D01*
X219839735Y-83856936D01*
X219823918Y-83868812D01*
X219706545Y-83956938D01*
X219693310Y-83966875D01*
X219536133Y-84131351D01*
X219407931Y-84319289D01*
X219405758Y-84323971D01*
X219405756Y-84323974D01*
X219326783Y-84494109D01*
X219312145Y-84525643D01*
X219276776Y-84653179D01*
X219254594Y-84733166D01*
X219251348Y-84744869D01*
X219250799Y-84750006D01*
X219228052Y-84962851D01*
X219227172Y-84971082D01*
X219227469Y-84976234D01*
X219227469Y-84976238D01*
X219231144Y-85039972D01*
X219240268Y-85198206D01*
X219241405Y-85203252D01*
X219241406Y-85203258D01*
X219254009Y-85259182D01*
X219290283Y-85420141D01*
X219375875Y-85630927D01*
X219494744Y-85824904D01*
X219643698Y-85996861D01*
X219818737Y-86142181D01*
X219823192Y-86144784D01*
X219823203Y-86144792D01*
X219827651Y-86147391D01*
X219876374Y-86199029D01*
X219889445Y-86268812D01*
X219862713Y-86334584D01*
X219839735Y-86356936D01*
X219838984Y-86357500D01*
X219706545Y-86456938D01*
X219693310Y-86466875D01*
X219662103Y-86499531D01*
X219571717Y-86594115D01*
X219536133Y-86631351D01*
X219407931Y-86819289D01*
X219405758Y-86823971D01*
X219405756Y-86823974D01*
X219316804Y-87015607D01*
X219312145Y-87025643D01*
X219275545Y-87157617D01*
X219256026Y-87228002D01*
X219251348Y-87244869D01*
X219250799Y-87250006D01*
X219228314Y-87460401D01*
X219227172Y-87471082D01*
X219227469Y-87476234D01*
X219227469Y-87476238D01*
X219231140Y-87539901D01*
X219240268Y-87698206D01*
X219241405Y-87703252D01*
X219241406Y-87703258D01*
X219241799Y-87705000D01*
X219290283Y-87920141D01*
X219375875Y-88130927D01*
X219494744Y-88324904D01*
X219643698Y-88496861D01*
X219735986Y-88573480D01*
X219811938Y-88636536D01*
X219818737Y-88642181D01*
X219823192Y-88644784D01*
X219823203Y-88644792D01*
X219827651Y-88647391D01*
X219876374Y-88699029D01*
X219889445Y-88768812D01*
X219862713Y-88834584D01*
X219839735Y-88856936D01*
X219794959Y-88890555D01*
X219706545Y-88956938D01*
X219693310Y-88966875D01*
X219689738Y-88970613D01*
X219554685Y-89111938D01*
X219536133Y-89131351D01*
X219407931Y-89319289D01*
X219405758Y-89323971D01*
X219405756Y-89323974D01*
X219314709Y-89520120D01*
X219312145Y-89525643D01*
X219251348Y-89744869D01*
X219250799Y-89750006D01*
X219229843Y-89946091D01*
X219227172Y-89971082D01*
X219227469Y-89976234D01*
X219227469Y-89976238D01*
X219231788Y-90051139D01*
X219240268Y-90198206D01*
X219241405Y-90203252D01*
X219241406Y-90203258D01*
X219248362Y-90234124D01*
X219290283Y-90420141D01*
X219375875Y-90630927D01*
X219494744Y-90824904D01*
X219643698Y-90996861D01*
X219818737Y-91142181D01*
X219823192Y-91144784D01*
X219823203Y-91144792D01*
X219827651Y-91147391D01*
X219876374Y-91199029D01*
X219889445Y-91268812D01*
X219862713Y-91334584D01*
X219839735Y-91356936D01*
X219803663Y-91384020D01*
X219706545Y-91456938D01*
X219693310Y-91466875D01*
X219671494Y-91489704D01*
X219577359Y-91588211D01*
X219536133Y-91631351D01*
X219407931Y-91819289D01*
X219405758Y-91823971D01*
X219405756Y-91823974D01*
X219319240Y-92010359D01*
X219312145Y-92025643D01*
X219251348Y-92244869D01*
X219250799Y-92250006D01*
X219234444Y-92403042D01*
X219227172Y-92471082D01*
X219227469Y-92476234D01*
X219227469Y-92476238D01*
X219232642Y-92565950D01*
X219240268Y-92698206D01*
X219241405Y-92703252D01*
X219241406Y-92703258D01*
X219258011Y-92776937D01*
X219290283Y-92920141D01*
X219375875Y-93130927D01*
X219494744Y-93324904D01*
X219643698Y-93496861D01*
X219753626Y-93588125D01*
X219806366Y-93631910D01*
X219818737Y-93642181D01*
X219823192Y-93644784D01*
X219823203Y-93644792D01*
X219827651Y-93647391D01*
X219876374Y-93699029D01*
X219889445Y-93768812D01*
X219862713Y-93834584D01*
X219839735Y-93856936D01*
X219790630Y-93893805D01*
X219706545Y-93956938D01*
X219693310Y-93966875D01*
X219536133Y-94131351D01*
X219407931Y-94319289D01*
X219405758Y-94323971D01*
X219405756Y-94323974D01*
X219361513Y-94419289D01*
X219312145Y-94525643D01*
X219276550Y-94653995D01*
X219253254Y-94737998D01*
X219251348Y-94744869D01*
X219250799Y-94750006D01*
X219231746Y-94928288D01*
X219227172Y-94971082D01*
X219240268Y-95198206D01*
X219241405Y-95203252D01*
X219241406Y-95203258D01*
X219254180Y-95259940D01*
X219290283Y-95420141D01*
X219375875Y-95630927D01*
X219494744Y-95824904D01*
X219643698Y-95996861D01*
X219818737Y-96142181D01*
X219823192Y-96144784D01*
X219823203Y-96144792D01*
X219827651Y-96147391D01*
X219876374Y-96199029D01*
X219889445Y-96268812D01*
X219862713Y-96334584D01*
X219839735Y-96356936D01*
X219823918Y-96368812D01*
X219706545Y-96456938D01*
X219693310Y-96466875D01*
X219689738Y-96470613D01*
X219611621Y-96552358D01*
X219536133Y-96631351D01*
X219407931Y-96819289D01*
X219405758Y-96823971D01*
X219405756Y-96823974D01*
X219328099Y-96991274D01*
X219312145Y-97025643D01*
X219251348Y-97244869D01*
X219250799Y-97250006D01*
X219230158Y-97443144D01*
X219227172Y-97471082D01*
X219227469Y-97476234D01*
X219227469Y-97476238D01*
X219232938Y-97571082D01*
X219240268Y-97698206D01*
X219241405Y-97703252D01*
X219241406Y-97703258D01*
X219268645Y-97824127D01*
X219290283Y-97920141D01*
X219375875Y-98130927D01*
X219494744Y-98324904D01*
X219643698Y-98496861D01*
X219818737Y-98642181D01*
X219823192Y-98644784D01*
X219823203Y-98644792D01*
X219827651Y-98647391D01*
X219876374Y-98699029D01*
X219889445Y-98768812D01*
X219862713Y-98834584D01*
X219839735Y-98856936D01*
X219823918Y-98868812D01*
X219706545Y-98956938D01*
X219693310Y-98966875D01*
X219536133Y-99131351D01*
X219407931Y-99319289D01*
X219405758Y-99323971D01*
X219405756Y-99323974D01*
X219361513Y-99419289D01*
X219312145Y-99525643D01*
X219275545Y-99657617D01*
X219261528Y-99708163D01*
X219251348Y-99744869D01*
X219250799Y-99750006D01*
X219237092Y-99878264D01*
X219227172Y-99971082D01*
X219227469Y-99976234D01*
X219227469Y-99976238D01*
X219232642Y-100065950D01*
X219240268Y-100198206D01*
X219241405Y-100203252D01*
X219241406Y-100203258D01*
X219261639Y-100293037D01*
X219290283Y-100420141D01*
X219375875Y-100630927D01*
X219494744Y-100824904D01*
X219643698Y-100996861D01*
X219818737Y-101142181D01*
X219823192Y-101144784D01*
X219823203Y-101144792D01*
X219827651Y-101147391D01*
X219876374Y-101199029D01*
X219889445Y-101268812D01*
X219862713Y-101334584D01*
X219839735Y-101356936D01*
X219823918Y-101368812D01*
X219706545Y-101456938D01*
X219693310Y-101466875D01*
X219536133Y-101631351D01*
X219407931Y-101819289D01*
X219405758Y-101823971D01*
X219405756Y-101823974D01*
X219361513Y-101919289D01*
X219312145Y-102025643D01*
X219251348Y-102244869D01*
X219250799Y-102250006D01*
X219237092Y-102378264D01*
X219227172Y-102471082D01*
X207092232Y-102471082D01*
X207084601Y-102378264D01*
X207029178Y-102157617D01*
X206971794Y-102025643D01*
X206940522Y-101953722D01*
X206940520Y-101953719D01*
X206938462Y-101948985D01*
X206854558Y-101819289D01*
X206817698Y-101762311D01*
X206817696Y-101762308D01*
X206814890Y-101757971D01*
X206661779Y-101589704D01*
X206539992Y-101493523D01*
X206487063Y-101451722D01*
X206446000Y-101393805D01*
X206442768Y-101322882D01*
X206478393Y-101261470D01*
X206491987Y-101250261D01*
X206496011Y-101247391D01*
X206611051Y-101165334D01*
X206772199Y-101004747D01*
X206826764Y-100928812D01*
X206901938Y-100824198D01*
X206901942Y-100824192D01*
X206904956Y-100819997D01*
X206996225Y-100635328D01*
X207003461Y-100620688D01*
X207003462Y-100620686D01*
X207005755Y-100616046D01*
X207063819Y-100424935D01*
X207070388Y-100403314D01*
X207070388Y-100403313D01*
X207071890Y-100398370D01*
X207072565Y-100393244D01*
X207101148Y-100176136D01*
X207101148Y-100176132D01*
X207101585Y-100172815D01*
X207103242Y-100105000D01*
X207084601Y-99878264D01*
X207029178Y-99657617D01*
X206971794Y-99525643D01*
X206940522Y-99453722D01*
X206940520Y-99453719D01*
X206938462Y-99448985D01*
X206854558Y-99319289D01*
X206817698Y-99262311D01*
X206817696Y-99262308D01*
X206814890Y-99257971D01*
X206661779Y-99089704D01*
X206548700Y-99000400D01*
X206487063Y-98951722D01*
X206446000Y-98893805D01*
X206442768Y-98822882D01*
X206478393Y-98761470D01*
X206491987Y-98750261D01*
X206496011Y-98747391D01*
X206611051Y-98665334D01*
X206772199Y-98504747D01*
X206780677Y-98492949D01*
X206901938Y-98324198D01*
X206901942Y-98324192D01*
X206904956Y-98319997D01*
X206958827Y-98210998D01*
X207003461Y-98120688D01*
X207003462Y-98120686D01*
X207005755Y-98116046D01*
X207063819Y-97924935D01*
X207070388Y-97903314D01*
X207070388Y-97903313D01*
X207071890Y-97898370D01*
X207084257Y-97804437D01*
X207101148Y-97676136D01*
X207101148Y-97676132D01*
X207101585Y-97672815D01*
X207102752Y-97625060D01*
X207103160Y-97608365D01*
X207103160Y-97608361D01*
X207103242Y-97605000D01*
X207084601Y-97378264D01*
X207035351Y-97182193D01*
X207030437Y-97162629D01*
X207030437Y-97162628D01*
X207029178Y-97157617D01*
X206971794Y-97025643D01*
X206940522Y-96953722D01*
X206940520Y-96953719D01*
X206938462Y-96948985D01*
X206854558Y-96819289D01*
X206817698Y-96762311D01*
X206817696Y-96762308D01*
X206814890Y-96757971D01*
X206661779Y-96589704D01*
X206539992Y-96493523D01*
X206487063Y-96451722D01*
X206446000Y-96393805D01*
X206442768Y-96322882D01*
X206478393Y-96261470D01*
X206491987Y-96250261D01*
X206496011Y-96247391D01*
X206611051Y-96165334D01*
X206772199Y-96004747D01*
X206827017Y-95928460D01*
X206901938Y-95824198D01*
X206901942Y-95824192D01*
X206904956Y-95819997D01*
X206996225Y-95635328D01*
X207003461Y-95620688D01*
X207003462Y-95620686D01*
X207005755Y-95616046D01*
X207063819Y-95424935D01*
X207070388Y-95403314D01*
X207070388Y-95403313D01*
X207071890Y-95398370D01*
X207085077Y-95298206D01*
X207101148Y-95176136D01*
X207101148Y-95176132D01*
X207101585Y-95172815D01*
X207103242Y-95105000D01*
X207084601Y-94878264D01*
X207029178Y-94657617D01*
X206971794Y-94525643D01*
X206940522Y-94453722D01*
X206940520Y-94453719D01*
X206938462Y-94448985D01*
X206854558Y-94319289D01*
X206817698Y-94262311D01*
X206817696Y-94262308D01*
X206814890Y-94257971D01*
X206661779Y-94089704D01*
X206539992Y-93993523D01*
X206487063Y-93951722D01*
X206446000Y-93893805D01*
X206442768Y-93822882D01*
X206478393Y-93761470D01*
X206491987Y-93750261D01*
X206496011Y-93747391D01*
X206611051Y-93665334D01*
X206772199Y-93504747D01*
X206826764Y-93428812D01*
X206901938Y-93324198D01*
X206901942Y-93324192D01*
X206904956Y-93319997D01*
X206983190Y-93161703D01*
X207003461Y-93120688D01*
X207003462Y-93120686D01*
X207005755Y-93116046D01*
X207065126Y-92920632D01*
X207070388Y-92903314D01*
X207070388Y-92903313D01*
X207071890Y-92898370D01*
X207072746Y-92891869D01*
X207101148Y-92676136D01*
X207101148Y-92676132D01*
X207101585Y-92672815D01*
X207102065Y-92653171D01*
X207103160Y-92608365D01*
X207103160Y-92608361D01*
X207103242Y-92605000D01*
X207084601Y-92378264D01*
X207029178Y-92157617D01*
X206970052Y-92021637D01*
X206940522Y-91953722D01*
X206940520Y-91953719D01*
X206938462Y-91948985D01*
X206854558Y-91819289D01*
X206817698Y-91762311D01*
X206817696Y-91762308D01*
X206814890Y-91757971D01*
X206661779Y-91589704D01*
X206538549Y-91492383D01*
X206487063Y-91451722D01*
X206446000Y-91393805D01*
X206442768Y-91322882D01*
X206478393Y-91261470D01*
X206491987Y-91250261D01*
X206496011Y-91247391D01*
X206611051Y-91165334D01*
X206772199Y-91004747D01*
X206780677Y-90992949D01*
X206901938Y-90824198D01*
X206901942Y-90824192D01*
X206904956Y-90819997D01*
X206997821Y-90632099D01*
X207003461Y-90620688D01*
X207003462Y-90620686D01*
X207005755Y-90616046D01*
X207065134Y-90420607D01*
X207070388Y-90403314D01*
X207070388Y-90403313D01*
X207071890Y-90398370D01*
X207072565Y-90393244D01*
X207101148Y-90176136D01*
X207101148Y-90176132D01*
X207101585Y-90172815D01*
X207103242Y-90105000D01*
X207084601Y-89878264D01*
X207029178Y-89657617D01*
X206970447Y-89522546D01*
X206940522Y-89453722D01*
X206940520Y-89453719D01*
X206938462Y-89448985D01*
X206854558Y-89319289D01*
X206817698Y-89262311D01*
X206817696Y-89262308D01*
X206814890Y-89257971D01*
X206661779Y-89089704D01*
X206539992Y-88993523D01*
X206487063Y-88951722D01*
X206446000Y-88893805D01*
X206442768Y-88822882D01*
X206478393Y-88761470D01*
X206491987Y-88750261D01*
X206496011Y-88747391D01*
X206611051Y-88665334D01*
X206772199Y-88504747D01*
X206812889Y-88448121D01*
X206901938Y-88324198D01*
X206901942Y-88324192D01*
X206904956Y-88319997D01*
X206996562Y-88134646D01*
X207003461Y-88120688D01*
X207003462Y-88120686D01*
X207005755Y-88116046D01*
X207065160Y-87920522D01*
X207070388Y-87903314D01*
X207070388Y-87903313D01*
X207071890Y-87898370D01*
X207074626Y-87877588D01*
X207101148Y-87676136D01*
X207101148Y-87676132D01*
X207101585Y-87672815D01*
X207102377Y-87640412D01*
X207103160Y-87608365D01*
X207103160Y-87608361D01*
X207103242Y-87605000D01*
X207084601Y-87378264D01*
X207029178Y-87157617D01*
X206971794Y-87025643D01*
X206940522Y-86953722D01*
X206940520Y-86953719D01*
X206938462Y-86948985D01*
X206852846Y-86816642D01*
X206817698Y-86762311D01*
X206817696Y-86762308D01*
X206814890Y-86757971D01*
X206661779Y-86589704D01*
X206539992Y-86493523D01*
X206487063Y-86451722D01*
X206446000Y-86393805D01*
X206442768Y-86322882D01*
X206478393Y-86261470D01*
X206491987Y-86250261D01*
X206496011Y-86247391D01*
X206611051Y-86165334D01*
X206772199Y-86004747D01*
X206826764Y-85928812D01*
X206901938Y-85824198D01*
X206901942Y-85824192D01*
X206904956Y-85819997D01*
X206996225Y-85635328D01*
X207003461Y-85620688D01*
X207003462Y-85620686D01*
X207005755Y-85616046D01*
X207064843Y-85421564D01*
X207070388Y-85403314D01*
X207070388Y-85403313D01*
X207071890Y-85398370D01*
X207081195Y-85327695D01*
X207101148Y-85176136D01*
X207101148Y-85176132D01*
X207101585Y-85172815D01*
X207103242Y-85105000D01*
X207084601Y-84878264D01*
X207029178Y-84657617D01*
X206971794Y-84525643D01*
X206940522Y-84453722D01*
X206940520Y-84453719D01*
X206938462Y-84448985D01*
X206854558Y-84319289D01*
X206817698Y-84262311D01*
X206817696Y-84262308D01*
X206814890Y-84257971D01*
X206661779Y-84089704D01*
X206536961Y-83991129D01*
X206487063Y-83951722D01*
X206446000Y-83893805D01*
X206442768Y-83822882D01*
X206478393Y-83761470D01*
X206491987Y-83750261D01*
X206496011Y-83747391D01*
X206611051Y-83665334D01*
X206772199Y-83504747D01*
X206826764Y-83428812D01*
X206901938Y-83324198D01*
X206901942Y-83324192D01*
X206904956Y-83319997D01*
X206966757Y-83194953D01*
X207003461Y-83120688D01*
X207003462Y-83120686D01*
X207005755Y-83116046D01*
X207063819Y-82924935D01*
X207070388Y-82903314D01*
X207070388Y-82903313D01*
X207071890Y-82898370D01*
X207076069Y-82866630D01*
X207101148Y-82676136D01*
X207101148Y-82676132D01*
X207101585Y-82672815D01*
X207101787Y-82664563D01*
X207103160Y-82608365D01*
X207103160Y-82608361D01*
X207103242Y-82605000D01*
X207084601Y-82378264D01*
X207029178Y-82157617D01*
X206971794Y-82025643D01*
X206940522Y-81953722D01*
X206940520Y-81953719D01*
X206938462Y-81948985D01*
X206854558Y-81819289D01*
X206817698Y-81762311D01*
X206817696Y-81762308D01*
X206814890Y-81757971D01*
X206661779Y-81589704D01*
X206554607Y-81505065D01*
X206487063Y-81451722D01*
X206446000Y-81393805D01*
X206442768Y-81322882D01*
X206478393Y-81261470D01*
X206491987Y-81250261D01*
X206496011Y-81247391D01*
X206611051Y-81165334D01*
X206772199Y-81004747D01*
X206826764Y-80928812D01*
X206901938Y-80824198D01*
X206901942Y-80824192D01*
X206904956Y-80819997D01*
X206996225Y-80635328D01*
X207003461Y-80620688D01*
X207003462Y-80620686D01*
X207005755Y-80616046D01*
X207063819Y-80424935D01*
X207070388Y-80403314D01*
X207070388Y-80403313D01*
X207071890Y-80398370D01*
X207074429Y-80379086D01*
X207101148Y-80176136D01*
X207101148Y-80176132D01*
X207101585Y-80172815D01*
X207103054Y-80112690D01*
X207103160Y-80108365D01*
X207103160Y-80108361D01*
X207103242Y-80105000D01*
X207084601Y-79878264D01*
X207029178Y-79657617D01*
X206970679Y-79523079D01*
X206940522Y-79453722D01*
X206940520Y-79453719D01*
X206938462Y-79448985D01*
X206854558Y-79319289D01*
X206817698Y-79262311D01*
X206817696Y-79262308D01*
X206814890Y-79257971D01*
X206661779Y-79089704D01*
X206562571Y-79011355D01*
X206487063Y-78951722D01*
X206446000Y-78893805D01*
X206442768Y-78822882D01*
X206478393Y-78761470D01*
X206491987Y-78750261D01*
X206496011Y-78747391D01*
X206611051Y-78665334D01*
X206772199Y-78504747D01*
X206793334Y-78475335D01*
X206901938Y-78324198D01*
X206901942Y-78324192D01*
X206904956Y-78319997D01*
X206977567Y-78173081D01*
X207003461Y-78120688D01*
X207003462Y-78120686D01*
X207005755Y-78116046D01*
X207071890Y-77898370D01*
X207084412Y-77803258D01*
X207101148Y-77676136D01*
X207101148Y-77676132D01*
X207101585Y-77672815D01*
X207101667Y-77669463D01*
X207103160Y-77608365D01*
X207103160Y-77608361D01*
X207103242Y-77605000D01*
X207092657Y-77476250D01*
X219227971Y-77476250D01*
X219240467Y-77692967D01*
X219241903Y-77703188D01*
X219289627Y-77914948D01*
X219292706Y-77924777D01*
X219374379Y-78125914D01*
X219379022Y-78135105D01*
X219463279Y-78272601D01*
X219473735Y-78282061D01*
X219482513Y-78278277D01*
X220242978Y-77517812D01*
X220249356Y-77506132D01*
X220979408Y-77506132D01*
X220979539Y-77507965D01*
X220983790Y-77514580D01*
X221743388Y-78274178D01*
X221755398Y-78280736D01*
X221767138Y-78271768D01*
X221801507Y-78223940D01*
X221806816Y-78215103D01*
X221902994Y-78020503D01*
X221906792Y-78010910D01*
X221969897Y-77803208D01*
X221972074Y-77793138D01*
X222000646Y-77576113D01*
X222001165Y-77569438D01*
X222002658Y-77508364D01*
X222002464Y-77501646D01*
X221984530Y-77283507D01*
X221982845Y-77273327D01*
X221929962Y-77062791D01*
X221926642Y-77053040D01*
X221840080Y-76853959D01*
X221835213Y-76844884D01*
X221766144Y-76738118D01*
X221755458Y-76728915D01*
X221745891Y-76733319D01*
X220987022Y-77492188D01*
X220979408Y-77506132D01*
X220249356Y-77506132D01*
X220250592Y-77503868D01*
X220250461Y-77502035D01*
X220246210Y-77495420D01*
X219486858Y-76736068D01*
X219475322Y-76729768D01*
X219463039Y-76739391D01*
X219411279Y-76815268D01*
X219406191Y-76824224D01*
X219314795Y-77021121D01*
X219311232Y-77030808D01*
X219253223Y-77239979D01*
X219251292Y-77250100D01*
X219228222Y-77465962D01*
X219227971Y-77476250D01*
X207092657Y-77476250D01*
X207084601Y-77378264D01*
X207029178Y-77157617D01*
X206974040Y-77030808D01*
X206940522Y-76953722D01*
X206940520Y-76953719D01*
X206938462Y-76948985D01*
X206814890Y-76757971D01*
X206661779Y-76589704D01*
X206533598Y-76488473D01*
X206487063Y-76451722D01*
X206446000Y-76393805D01*
X206442768Y-76322882D01*
X206478393Y-76261470D01*
X206491987Y-76250261D01*
X206496154Y-76247289D01*
X206611051Y-76165334D01*
X206772199Y-76004747D01*
X206785586Y-75986117D01*
X206901938Y-75824198D01*
X206901942Y-75824192D01*
X206904956Y-75819997D01*
X206992195Y-75643483D01*
X207003461Y-75620688D01*
X207003462Y-75620686D01*
X207005755Y-75616046D01*
X207058425Y-75442689D01*
X207070388Y-75403314D01*
X207070388Y-75403313D01*
X207071890Y-75398370D01*
X207073034Y-75389684D01*
X207101148Y-75176136D01*
X207101148Y-75176132D01*
X207101585Y-75172815D01*
X207103242Y-75105000D01*
X207084601Y-74878264D01*
X207029178Y-74657617D01*
X207012495Y-74619249D01*
X206947520Y-74469816D01*
X206938699Y-74399369D01*
X206969366Y-74335337D01*
X206997234Y-74312140D01*
X207095948Y-74251648D01*
X207163376Y-74210328D01*
X207355898Y-74045898D01*
X207520328Y-73853376D01*
X207652616Y-73637502D01*
X207671081Y-73592925D01*
X207747611Y-73408164D01*
X207747612Y-73408162D01*
X207749505Y-73403591D01*
X207781373Y-73270851D01*
X207807454Y-73162216D01*
X207807455Y-73162210D01*
X207808609Y-73157403D01*
X207828474Y-72905000D01*
X207808609Y-72652597D01*
X207789910Y-72574707D01*
X207750660Y-72411221D01*
X207749505Y-72406409D01*
X207725978Y-72349610D01*
X207654511Y-72177072D01*
X207654509Y-72177068D01*
X207652616Y-72172498D01*
X207520328Y-71956624D01*
X207355898Y-71764102D01*
X207163376Y-71599672D01*
X206947502Y-71467384D01*
X206942932Y-71465491D01*
X206942928Y-71465489D01*
X206718164Y-71372389D01*
X206718162Y-71372388D01*
X206713591Y-71370495D01*
X206613890Y-71346559D01*
X206472216Y-71312546D01*
X206472210Y-71312545D01*
X206467403Y-71311391D01*
X206215000Y-71291526D01*
X205962597Y-71311391D01*
X205957790Y-71312545D01*
X205957784Y-71312546D01*
X205816110Y-71346559D01*
X205716409Y-71370495D01*
X205711838Y-71372388D01*
X205711836Y-71372389D01*
X205487072Y-71465489D01*
X205487068Y-71465491D01*
X205482498Y-71467384D01*
X205266624Y-71599672D01*
X205074102Y-71764102D01*
X204909672Y-71956624D01*
X204777384Y-72172498D01*
X204775491Y-72177068D01*
X204775489Y-72177072D01*
X204704022Y-72349610D01*
X204680495Y-72406409D01*
X204679340Y-72411221D01*
X204640091Y-72574707D01*
X204621391Y-72652597D01*
X204601526Y-72905000D01*
X204621391Y-73157403D01*
X204622545Y-73162210D01*
X204622546Y-73162216D01*
X204648627Y-73270851D01*
X204680495Y-73403591D01*
X204682388Y-73408162D01*
X204682389Y-73408164D01*
X204758920Y-73592925D01*
X204777384Y-73637502D01*
X204779970Y-73641722D01*
X204902704Y-73842006D01*
X204921242Y-73910540D01*
X204899786Y-73978216D01*
X204870925Y-74008600D01*
X204793310Y-74066875D01*
X204761320Y-74100351D01*
X204659292Y-74207117D01*
X204636133Y-74231351D01*
X204507931Y-74419289D01*
X204505758Y-74423971D01*
X204505756Y-74423974D01*
X204417657Y-74613769D01*
X204412145Y-74625643D01*
X204351348Y-74844869D01*
X204350799Y-74850006D01*
X204328092Y-75062475D01*
X204327172Y-75071082D01*
X204327469Y-75076234D01*
X204327469Y-75076238D01*
X204335498Y-75215482D01*
X204340268Y-75298206D01*
X204341405Y-75303252D01*
X204341406Y-75303258D01*
X204361488Y-75392367D01*
X204390283Y-75520141D01*
X204475875Y-75730927D01*
X204594744Y-75924904D01*
X204598128Y-75928810D01*
X204598129Y-75928812D01*
X204632675Y-75968693D01*
X204743698Y-76096861D01*
X204918737Y-76242181D01*
X204923192Y-76244784D01*
X204923203Y-76244792D01*
X204927651Y-76247391D01*
X204976374Y-76299029D01*
X204989445Y-76368812D01*
X204962713Y-76434584D01*
X204939735Y-76456936D01*
X204867222Y-76511380D01*
X204798642Y-76562872D01*
X204793310Y-76566875D01*
X204789738Y-76570613D01*
X204679168Y-76686318D01*
X204636133Y-76731351D01*
X204507931Y-76919289D01*
X204505758Y-76923971D01*
X204505756Y-76923974D01*
X204417657Y-77113769D01*
X204412145Y-77125643D01*
X204351348Y-77344869D01*
X204350799Y-77350006D01*
X204329293Y-77551238D01*
X204327172Y-77571082D01*
X204327469Y-77576234D01*
X204327469Y-77576238D01*
X204335283Y-77711747D01*
X204340268Y-77798206D01*
X204341405Y-77803252D01*
X204341406Y-77803258D01*
X204358030Y-77877022D01*
X204390283Y-78020141D01*
X204475875Y-78230927D01*
X204594744Y-78424904D01*
X204743698Y-78596861D01*
X204918737Y-78742181D01*
X204923192Y-78744784D01*
X204923203Y-78744792D01*
X204927651Y-78747391D01*
X204976374Y-78799029D01*
X204989445Y-78868812D01*
X204962713Y-78934584D01*
X204939735Y-78956936D01*
X204925146Y-78967890D01*
X204799137Y-79062500D01*
X204793310Y-79066875D01*
X204636133Y-79231351D01*
X204507931Y-79419289D01*
X204505758Y-79423971D01*
X204505756Y-79423974D01*
X204418415Y-79612136D01*
X204412145Y-79625643D01*
X204351348Y-79844869D01*
X204350799Y-79850006D01*
X204329027Y-80053728D01*
X204327172Y-80071082D01*
X204327469Y-80076234D01*
X204327469Y-80076238D01*
X204337978Y-80258499D01*
X204340268Y-80298206D01*
X204341405Y-80303252D01*
X204341406Y-80303258D01*
X204361686Y-80393244D01*
X204390283Y-80520141D01*
X204475875Y-80730927D01*
X204594744Y-80924904D01*
X204743698Y-81096861D01*
X204918737Y-81242181D01*
X204923192Y-81244784D01*
X204923203Y-81244792D01*
X204927651Y-81247391D01*
X204976374Y-81299029D01*
X204989445Y-81368812D01*
X204962713Y-81434584D01*
X204939735Y-81456936D01*
X204793310Y-81566875D01*
X204747550Y-81614760D01*
X204693747Y-81671062D01*
X204636133Y-81731351D01*
X204507931Y-81919289D01*
X204505758Y-81923971D01*
X204505756Y-81923974D01*
X204414768Y-82119993D01*
X204412145Y-82125643D01*
X204351348Y-82344869D01*
X204350799Y-82350006D01*
X204328220Y-82561277D01*
X204327172Y-82571082D01*
X204327469Y-82576234D01*
X204327469Y-82576238D01*
X204332562Y-82664563D01*
X204340268Y-82798206D01*
X204341405Y-82803252D01*
X204341406Y-82803258D01*
X204341419Y-82803314D01*
X204390283Y-83020141D01*
X204475875Y-83230927D01*
X204594744Y-83424904D01*
X204598128Y-83428810D01*
X204598129Y-83428812D01*
X204618099Y-83451866D01*
X204743698Y-83596861D01*
X204847954Y-83683416D01*
X204912533Y-83737030D01*
X204918737Y-83742181D01*
X204923192Y-83744784D01*
X204923203Y-83744792D01*
X204927651Y-83747391D01*
X204976374Y-83799029D01*
X204989445Y-83868812D01*
X204962713Y-83934584D01*
X204939735Y-83956936D01*
X204891006Y-83993523D01*
X204824684Y-84043319D01*
X204793310Y-84066875D01*
X204636133Y-84231351D01*
X204507931Y-84419289D01*
X204505758Y-84423971D01*
X204505756Y-84423974D01*
X204438165Y-84569588D01*
X204412145Y-84625643D01*
X204380463Y-84739885D01*
X204355667Y-84829297D01*
X204351348Y-84844869D01*
X204350799Y-84850006D01*
X204330305Y-85041769D01*
X204327172Y-85071082D01*
X204327469Y-85076234D01*
X204327469Y-85076238D01*
X204337571Y-85251438D01*
X204340268Y-85298206D01*
X204341405Y-85303252D01*
X204341406Y-85303258D01*
X204358973Y-85381209D01*
X204390283Y-85520141D01*
X204475875Y-85730927D01*
X204594744Y-85924904D01*
X204743698Y-86096861D01*
X204918737Y-86242181D01*
X204923192Y-86244784D01*
X204923203Y-86244792D01*
X204927651Y-86247391D01*
X204976374Y-86299029D01*
X204989445Y-86368812D01*
X204962713Y-86434584D01*
X204939735Y-86456936D01*
X204900357Y-86486502D01*
X204804710Y-86558316D01*
X204793310Y-86566875D01*
X204636133Y-86731351D01*
X204633225Y-86735614D01*
X204633221Y-86735619D01*
X204595100Y-86791504D01*
X204540189Y-86836507D01*
X204491011Y-86846500D01*
X202129500Y-86846500D01*
X202061379Y-86826498D01*
X202014886Y-86772842D01*
X202003500Y-86720500D01*
X202003500Y-86532835D01*
X202003742Y-86525033D01*
X202007093Y-86471013D01*
X202007547Y-86463702D01*
X202005320Y-86450740D01*
X202003500Y-86429404D01*
X202003500Y-85799563D01*
X202004933Y-85780614D01*
X202007097Y-85766386D01*
X202008198Y-85759151D01*
X202006261Y-85735328D01*
X202003915Y-85706491D01*
X202003500Y-85696277D01*
X202003500Y-85688207D01*
X202003078Y-85684587D01*
X202003077Y-85684569D01*
X202000208Y-85659961D01*
X201999775Y-85655586D01*
X201994454Y-85590161D01*
X201994453Y-85590158D01*
X201993860Y-85582863D01*
X201991604Y-85575899D01*
X201990413Y-85569940D01*
X201989029Y-85564085D01*
X201988182Y-85556819D01*
X201963265Y-85488173D01*
X201961848Y-85484045D01*
X201941607Y-85421564D01*
X201941606Y-85421562D01*
X201939351Y-85414601D01*
X201935555Y-85408346D01*
X201933049Y-85402872D01*
X201930330Y-85397442D01*
X201927833Y-85390563D01*
X201887809Y-85329516D01*
X201885472Y-85325812D01*
X201850509Y-85268193D01*
X201850505Y-85268188D01*
X201847595Y-85263392D01*
X201840197Y-85255016D01*
X201840223Y-85254993D01*
X201837574Y-85252003D01*
X201834866Y-85248764D01*
X201830856Y-85242648D01*
X201825549Y-85237621D01*
X201825546Y-85237617D01*
X201774617Y-85189372D01*
X201772175Y-85186994D01*
X200665405Y-84080224D01*
X200631379Y-84017912D01*
X200628500Y-83991129D01*
X200628500Y-83832928D01*
X200624983Y-83799029D01*
X200618419Y-83735765D01*
X200618418Y-83735761D01*
X200617707Y-83728907D01*
X200609702Y-83704911D01*
X200564972Y-83570841D01*
X200562654Y-83563893D01*
X200471116Y-83415969D01*
X200456062Y-83400941D01*
X200353184Y-83298242D01*
X200353179Y-83298238D01*
X200348003Y-83293071D01*
X200283475Y-83253295D01*
X200206150Y-83205631D01*
X200206148Y-83205630D01*
X200199920Y-83201791D01*
X200034809Y-83147026D01*
X200027973Y-83146326D01*
X200027970Y-83146325D01*
X199976013Y-83141002D01*
X199932072Y-83136500D01*
X199332928Y-83136500D01*
X199329682Y-83136837D01*
X199329678Y-83136837D01*
X199235765Y-83146581D01*
X199235761Y-83146582D01*
X199228907Y-83147293D01*
X199222371Y-83149474D01*
X199222369Y-83149474D01*
X199196865Y-83157983D01*
X199063893Y-83202346D01*
X198915969Y-83293884D01*
X198910796Y-83299066D01*
X198809253Y-83400786D01*
X198746970Y-83434865D01*
X198676150Y-83429862D01*
X198631062Y-83400941D01*
X198602982Y-83372910D01*
X198568903Y-83310628D01*
X198566000Y-83283737D01*
X198566000Y-82664563D01*
X198567433Y-82645614D01*
X198569597Y-82631386D01*
X198570698Y-82624151D01*
X198569141Y-82605000D01*
X198566415Y-82571491D01*
X198566000Y-82561277D01*
X198566000Y-82553207D01*
X198565578Y-82549587D01*
X198565577Y-82549569D01*
X198562708Y-82524961D01*
X198562275Y-82520586D01*
X198556954Y-82455161D01*
X198556953Y-82455158D01*
X198556360Y-82447863D01*
X198554104Y-82440899D01*
X198552913Y-82434940D01*
X198551529Y-82429085D01*
X198550682Y-82421819D01*
X198525765Y-82353173D01*
X198524348Y-82349045D01*
X198504107Y-82286564D01*
X198504106Y-82286562D01*
X198501851Y-82279601D01*
X198498055Y-82273346D01*
X198495549Y-82267872D01*
X198492830Y-82262442D01*
X198490333Y-82255563D01*
X198450309Y-82194516D01*
X198447972Y-82190812D01*
X198413009Y-82133193D01*
X198413005Y-82133188D01*
X198410095Y-82128392D01*
X198402697Y-82120016D01*
X198402723Y-82119993D01*
X198400074Y-82117003D01*
X198397366Y-82113764D01*
X198393356Y-82107648D01*
X198388049Y-82102621D01*
X198388046Y-82102617D01*
X198337117Y-82054372D01*
X198334675Y-82051994D01*
X195198531Y-78915850D01*
X195190963Y-78907577D01*
X195189868Y-78906268D01*
X195185856Y-78900148D01*
X195129617Y-78846872D01*
X195127175Y-78844494D01*
X194970405Y-78687724D01*
X194936379Y-78625412D01*
X194933500Y-78598629D01*
X194933500Y-78381371D01*
X194953502Y-78313250D01*
X194970405Y-78292276D01*
X195552999Y-77709682D01*
X195615311Y-77675656D01*
X195686126Y-77680721D01*
X195731570Y-77712805D01*
X195732788Y-77711587D01*
X195888413Y-77867212D01*
X195892921Y-77870369D01*
X195892924Y-77870371D01*
X196039834Y-77973238D01*
X196068697Y-77993448D01*
X196073679Y-77995771D01*
X196073684Y-77995774D01*
X196252631Y-78079218D01*
X196268164Y-78086461D01*
X196273472Y-78087883D01*
X196273474Y-78087884D01*
X196475436Y-78141999D01*
X196475437Y-78141999D01*
X196480751Y-78143423D01*
X196700000Y-78162605D01*
X196919249Y-78143423D01*
X196924563Y-78141999D01*
X196924564Y-78141999D01*
X197126526Y-78087884D01*
X197126528Y-78087883D01*
X197131836Y-78086461D01*
X197147369Y-78079218D01*
X197326316Y-77995774D01*
X197326321Y-77995771D01*
X197331303Y-77993448D01*
X197360166Y-77973238D01*
X197393840Y-77949659D01*
X201014896Y-77949659D01*
X201024192Y-77961674D01*
X201064440Y-77989856D01*
X201073935Y-77995339D01*
X201263353Y-78083666D01*
X201273645Y-78087412D01*
X201475523Y-78141505D01*
X201486318Y-78143408D01*
X201694525Y-78161624D01*
X201705475Y-78161624D01*
X201913682Y-78143408D01*
X201924477Y-78141505D01*
X202126355Y-78087412D01*
X202136647Y-78083666D01*
X202326065Y-77995339D01*
X202335560Y-77989856D01*
X202376646Y-77961087D01*
X202385021Y-77950610D01*
X202377953Y-77937163D01*
X201712812Y-77272022D01*
X201698868Y-77264408D01*
X201697035Y-77264539D01*
X201690420Y-77268790D01*
X201021326Y-77937884D01*
X201014896Y-77949659D01*
X197393840Y-77949659D01*
X197507076Y-77870371D01*
X197507079Y-77870369D01*
X197511587Y-77867212D01*
X197667212Y-77711587D01*
X197793448Y-77531302D01*
X197799660Y-77517982D01*
X197884138Y-77336818D01*
X197884139Y-77336816D01*
X197886461Y-77331836D01*
X197898573Y-77286635D01*
X197941999Y-77124564D01*
X197941999Y-77124563D01*
X197943423Y-77119249D01*
X197962126Y-76905475D01*
X200438376Y-76905475D01*
X200456592Y-77113682D01*
X200458495Y-77124477D01*
X200512588Y-77326355D01*
X200516334Y-77336647D01*
X200604661Y-77526064D01*
X200610144Y-77535560D01*
X200638913Y-77576646D01*
X200649390Y-77585021D01*
X200662838Y-77577952D01*
X201327978Y-76912812D01*
X201334356Y-76901132D01*
X202064408Y-76901132D01*
X202064539Y-76902965D01*
X202068790Y-76909580D01*
X202737884Y-77578674D01*
X202749659Y-77585104D01*
X202761674Y-77575808D01*
X202789856Y-77535560D01*
X202795339Y-77526064D01*
X202883666Y-77336647D01*
X202887412Y-77326355D01*
X202941505Y-77124477D01*
X202943408Y-77113682D01*
X202961624Y-76905475D01*
X202961624Y-76894525D01*
X202943408Y-76686318D01*
X202941505Y-76675523D01*
X202887412Y-76473645D01*
X202883666Y-76463353D01*
X202795339Y-76273936D01*
X202789856Y-76264440D01*
X202761087Y-76223354D01*
X202750610Y-76214979D01*
X202737162Y-76222048D01*
X202072022Y-76887188D01*
X202064408Y-76901132D01*
X201334356Y-76901132D01*
X201335592Y-76898868D01*
X201335461Y-76897035D01*
X201331210Y-76890420D01*
X200662116Y-76221326D01*
X200650341Y-76214896D01*
X200638326Y-76224192D01*
X200610144Y-76264440D01*
X200604661Y-76273936D01*
X200516334Y-76463353D01*
X200512588Y-76473645D01*
X200458495Y-76675523D01*
X200456592Y-76686318D01*
X200438376Y-76894525D01*
X200438376Y-76905475D01*
X197962126Y-76905475D01*
X197962605Y-76900000D01*
X197943423Y-76680751D01*
X197921742Y-76599834D01*
X197887884Y-76473474D01*
X197887883Y-76473472D01*
X197886461Y-76468164D01*
X197842831Y-76374600D01*
X197795771Y-76273679D01*
X197795769Y-76273676D01*
X197793448Y-76268698D01*
X197667212Y-76088413D01*
X197511587Y-75932788D01*
X197507073Y-75929627D01*
X197503506Y-75926634D01*
X197464181Y-75867523D01*
X197461427Y-75849390D01*
X201014979Y-75849390D01*
X201022048Y-75862838D01*
X201687188Y-76527978D01*
X201701132Y-76535592D01*
X201702965Y-76535461D01*
X201709580Y-76531210D01*
X202378674Y-75862116D01*
X202385104Y-75850341D01*
X202375808Y-75838326D01*
X202335560Y-75810144D01*
X202326065Y-75804661D01*
X202136647Y-75716334D01*
X202126355Y-75712588D01*
X201924477Y-75658495D01*
X201913682Y-75656592D01*
X201705475Y-75638376D01*
X201694525Y-75638376D01*
X201486318Y-75656592D01*
X201475523Y-75658495D01*
X201273645Y-75712588D01*
X201263353Y-75716334D01*
X201073936Y-75804661D01*
X201064440Y-75810144D01*
X201023354Y-75838913D01*
X201014979Y-75849390D01*
X197461427Y-75849390D01*
X197458500Y-75830114D01*
X197458500Y-74400000D01*
X197937395Y-74400000D01*
X197956577Y-74619249D01*
X197958001Y-74624563D01*
X197958001Y-74624564D01*
X197968201Y-74662629D01*
X198013539Y-74831836D01*
X198106552Y-75031302D01*
X198232788Y-75211587D01*
X198388413Y-75367212D01*
X198392921Y-75370369D01*
X198392924Y-75370371D01*
X198556059Y-75484599D01*
X198568697Y-75493448D01*
X198573679Y-75495771D01*
X198573684Y-75495774D01*
X198693850Y-75551808D01*
X198768164Y-75586461D01*
X198773472Y-75587883D01*
X198773474Y-75587884D01*
X198975436Y-75641999D01*
X198975437Y-75641999D01*
X198980751Y-75643423D01*
X199200000Y-75662605D01*
X199419249Y-75643423D01*
X199424563Y-75641999D01*
X199424564Y-75641999D01*
X199626526Y-75587884D01*
X199626528Y-75587883D01*
X199631836Y-75586461D01*
X199706150Y-75551808D01*
X199826316Y-75495774D01*
X199826321Y-75495771D01*
X199831303Y-75493448D01*
X199843941Y-75484599D01*
X200007076Y-75370371D01*
X200007079Y-75370369D01*
X200011587Y-75367212D01*
X200167212Y-75211587D01*
X200293448Y-75031302D01*
X200386461Y-74831836D01*
X200431800Y-74662629D01*
X200441999Y-74624564D01*
X200441999Y-74624563D01*
X200443423Y-74619249D01*
X200462605Y-74400000D01*
X200443423Y-74180751D01*
X200429494Y-74128767D01*
X200387884Y-73973474D01*
X200387883Y-73973472D01*
X200386461Y-73968164D01*
X200360876Y-73913297D01*
X200295771Y-73773679D01*
X200295769Y-73773676D01*
X200293448Y-73768698D01*
X200167212Y-73588413D01*
X200011587Y-73432788D01*
X200007079Y-73429631D01*
X200007076Y-73429629D01*
X199835812Y-73309709D01*
X199835809Y-73309707D01*
X199831303Y-73306552D01*
X199826321Y-73304229D01*
X199826316Y-73304226D01*
X199636818Y-73215862D01*
X199636817Y-73215861D01*
X199631836Y-73213539D01*
X199626528Y-73212117D01*
X199626526Y-73212116D01*
X199424564Y-73158001D01*
X199424563Y-73158001D01*
X199419249Y-73156577D01*
X199200000Y-73137395D01*
X198980751Y-73156577D01*
X198975437Y-73158001D01*
X198975436Y-73158001D01*
X198773474Y-73212116D01*
X198773472Y-73212117D01*
X198768164Y-73213539D01*
X198763184Y-73215861D01*
X198763182Y-73215862D01*
X198573679Y-73304229D01*
X198573676Y-73304231D01*
X198568698Y-73306552D01*
X198388413Y-73432788D01*
X198232788Y-73588413D01*
X198106552Y-73768698D01*
X198104231Y-73773676D01*
X198104229Y-73773679D01*
X198039124Y-73913297D01*
X198013539Y-73968164D01*
X198012117Y-73973472D01*
X198012116Y-73973474D01*
X197970506Y-74128767D01*
X197956577Y-74180751D01*
X197937395Y-74400000D01*
X197458500Y-74400000D01*
X197458500Y-71966371D01*
X197478502Y-71898250D01*
X197495405Y-71877276D01*
X198473276Y-70899405D01*
X198535588Y-70865379D01*
X198562371Y-70862500D01*
X222127500Y-70862500D01*
X222195621Y-70882502D01*
X222242114Y-70936158D01*
X222253500Y-70988500D01*
X222253500Y-72341629D01*
X222233498Y-72409750D01*
X222216595Y-72430724D01*
X221922249Y-72725070D01*
X221859937Y-72759096D01*
X221789122Y-72754031D01*
X221732286Y-72711484D01*
X221708886Y-72656113D01*
X221708609Y-72652597D01*
X221649505Y-72406409D01*
X221625978Y-72349610D01*
X221554511Y-72177072D01*
X221554509Y-72177068D01*
X221552616Y-72172498D01*
X221420328Y-71956624D01*
X221255898Y-71764102D01*
X221063376Y-71599672D01*
X220847502Y-71467384D01*
X220842932Y-71465491D01*
X220842928Y-71465489D01*
X220618164Y-71372389D01*
X220618162Y-71372388D01*
X220613591Y-71370495D01*
X220513890Y-71346559D01*
X220372216Y-71312546D01*
X220372210Y-71312545D01*
X220367403Y-71311391D01*
X220115000Y-71291526D01*
X219862597Y-71311391D01*
X219857790Y-71312545D01*
X219857784Y-71312546D01*
X219716110Y-71346559D01*
X219616409Y-71370495D01*
X219611838Y-71372388D01*
X219611836Y-71372389D01*
X219387072Y-71465489D01*
X219387068Y-71465491D01*
X219382498Y-71467384D01*
X219166624Y-71599672D01*
X218974102Y-71764102D01*
X218809672Y-71956624D01*
X218677384Y-72172498D01*
X218675491Y-72177068D01*
X218675489Y-72177072D01*
X218604022Y-72349610D01*
X218580495Y-72406409D01*
X218579340Y-72411221D01*
X218540091Y-72574707D01*
X218521391Y-72652597D01*
X218501526Y-72905000D01*
X218521391Y-73157403D01*
X218522545Y-73162210D01*
X218522546Y-73162216D01*
X218548627Y-73270851D01*
X218580495Y-73403591D01*
X218582388Y-73408162D01*
X218582389Y-73408164D01*
X218658920Y-73592925D01*
X218677384Y-73637502D01*
X218809672Y-73853376D01*
X218974102Y-74045898D01*
X219166624Y-74210328D01*
X219207897Y-74235620D01*
X219334288Y-74313073D01*
X219381919Y-74365721D01*
X219393526Y-74435763D01*
X219382741Y-74473556D01*
X219317657Y-74613769D01*
X219312145Y-74625643D01*
X219251348Y-74844869D01*
X219250799Y-74850006D01*
X219228092Y-75062475D01*
X219227172Y-75071082D01*
X219227469Y-75076234D01*
X219227469Y-75076238D01*
X219235498Y-75215482D01*
X219240268Y-75298206D01*
X219241405Y-75303252D01*
X219241406Y-75303258D01*
X219261488Y-75392367D01*
X219290283Y-75520141D01*
X219375875Y-75730927D01*
X219494744Y-75924904D01*
X219498128Y-75928810D01*
X219498129Y-75928812D01*
X219532675Y-75968693D01*
X219643698Y-76096861D01*
X219647673Y-76100161D01*
X219647677Y-76100165D01*
X219794739Y-76222258D01*
X219834374Y-76281161D01*
X219835357Y-76327747D01*
X219839904Y-76328066D01*
X219837524Y-76362031D01*
X219845111Y-76375901D01*
X220602188Y-77132978D01*
X220616132Y-77140592D01*
X220617965Y-77140461D01*
X220624580Y-77136210D01*
X221386190Y-76374600D01*
X221393804Y-76360656D01*
X221391379Y-76326745D01*
X221391383Y-76326745D01*
X221390344Y-76323846D01*
X221406331Y-76254672D01*
X221442961Y-76213902D01*
X221506847Y-76168333D01*
X221506849Y-76168331D01*
X221511051Y-76165334D01*
X221672199Y-76004747D01*
X221685586Y-75986117D01*
X221801938Y-75824198D01*
X221801942Y-75824192D01*
X221804956Y-75819997D01*
X221892195Y-75643483D01*
X221903461Y-75620688D01*
X221903462Y-75620686D01*
X221905755Y-75616046D01*
X221958425Y-75442689D01*
X221970388Y-75403314D01*
X221970388Y-75403313D01*
X221971890Y-75398370D01*
X221973034Y-75389684D01*
X222001148Y-75176136D01*
X222001148Y-75176132D01*
X222001585Y-75172815D01*
X222003242Y-75105000D01*
X221984601Y-74878264D01*
X221985339Y-74878203D01*
X221993449Y-74811825D01*
X222020053Y-74772628D01*
X223500911Y-73291770D01*
X223515323Y-73279384D01*
X223526918Y-73270851D01*
X223526923Y-73270846D01*
X223532818Y-73266508D01*
X223537557Y-73260930D01*
X223537560Y-73260927D01*
X223567035Y-73226232D01*
X223573965Y-73218716D01*
X223579660Y-73213021D01*
X223597281Y-73190749D01*
X223600072Y-73187345D01*
X223642591Y-73137297D01*
X223642592Y-73137295D01*
X223647333Y-73131715D01*
X223650661Y-73125199D01*
X223654028Y-73120150D01*
X223657195Y-73115021D01*
X223661734Y-73109284D01*
X223692655Y-73043125D01*
X223694561Y-73039225D01*
X223704497Y-73019767D01*
X223727769Y-72974192D01*
X223729508Y-72967084D01*
X223731607Y-72961441D01*
X223733524Y-72955678D01*
X223736622Y-72949050D01*
X223751487Y-72877583D01*
X223752457Y-72873299D01*
X223768473Y-72807845D01*
X223769808Y-72802390D01*
X223770500Y-72791236D01*
X223770536Y-72791238D01*
X223770775Y-72787245D01*
X223771149Y-72783053D01*
X223772640Y-72775885D01*
X223770546Y-72698479D01*
X223770500Y-72695072D01*
X223770500Y-70131835D01*
X223770742Y-70124033D01*
X223774093Y-70070013D01*
X223774547Y-70062702D01*
X223763620Y-69999111D01*
X223762651Y-69992382D01*
X223756030Y-69935589D01*
X223756029Y-69935586D01*
X223755182Y-69928319D01*
X223751942Y-69919393D01*
X223746201Y-69897742D01*
X223744594Y-69888386D01*
X223719327Y-69829004D01*
X223716848Y-69822711D01*
X223694833Y-69762063D01*
X223689627Y-69754122D01*
X223679067Y-69734385D01*
X223678213Y-69732377D01*
X223678206Y-69732365D01*
X223675343Y-69725636D01*
X223671007Y-69719744D01*
X223671004Y-69719739D01*
X223637100Y-69673668D01*
X223633210Y-69668072D01*
X223629894Y-69663014D01*
X223597856Y-69614148D01*
X223590961Y-69607616D01*
X223576139Y-69590834D01*
X223570508Y-69583182D01*
X223564935Y-69578447D01*
X223564928Y-69578440D01*
X223521351Y-69541419D01*
X223516277Y-69536867D01*
X223474766Y-69497543D01*
X223474765Y-69497542D01*
X223469453Y-69492510D01*
X223463126Y-69488835D01*
X223463117Y-69488828D01*
X223461232Y-69487733D01*
X223442953Y-69474815D01*
X223441294Y-69473406D01*
X223441291Y-69473404D01*
X223435715Y-69468667D01*
X223429201Y-69465341D01*
X223429197Y-69465338D01*
X223378264Y-69439330D01*
X223372281Y-69436068D01*
X223322841Y-69407351D01*
X223322839Y-69407350D01*
X223316510Y-69403674D01*
X223309506Y-69401553D01*
X223309502Y-69401551D01*
X223307425Y-69400922D01*
X223286649Y-69392549D01*
X223278192Y-69388231D01*
X223215505Y-69372892D01*
X223208988Y-69371109D01*
X223147233Y-69352405D01*
X223137983Y-69351831D01*
X223137754Y-69351817D01*
X223115617Y-69348449D01*
X223111846Y-69347526D01*
X223111834Y-69347524D01*
X223106390Y-69346192D01*
X223098539Y-69345705D01*
X223097175Y-69345620D01*
X223097165Y-69345620D01*
X223095236Y-69345500D01*
X223039835Y-69345500D01*
X223032033Y-69345258D01*
X222970702Y-69341453D01*
X222957740Y-69343680D01*
X222936404Y-69345500D01*
X198263063Y-69345500D01*
X198244114Y-69344067D01*
X198241570Y-69343680D01*
X198222651Y-69340802D01*
X198215359Y-69341395D01*
X198215356Y-69341395D01*
X198169991Y-69345085D01*
X198159777Y-69345500D01*
X198151707Y-69345500D01*
X198148087Y-69345922D01*
X198148069Y-69345923D01*
X198123461Y-69348792D01*
X198119100Y-69349224D01*
X198093981Y-69351267D01*
X198053661Y-69354546D01*
X198053658Y-69354547D01*
X198046363Y-69355140D01*
X198039399Y-69357396D01*
X198033440Y-69358587D01*
X198027585Y-69359971D01*
X198020319Y-69360818D01*
X197951673Y-69385735D01*
X197947545Y-69387152D01*
X197885064Y-69407393D01*
X197885062Y-69407394D01*
X197878101Y-69409649D01*
X197871846Y-69413445D01*
X197866372Y-69415951D01*
X197860942Y-69418670D01*
X197854063Y-69421167D01*
X197793016Y-69461191D01*
X197789327Y-69463518D01*
X197786329Y-69465338D01*
X197731693Y-69498491D01*
X197731688Y-69498495D01*
X197726892Y-69501405D01*
X197718516Y-69508803D01*
X197718493Y-69508777D01*
X197715503Y-69511426D01*
X197712264Y-69514134D01*
X197706148Y-69518144D01*
X197701121Y-69523451D01*
X197701117Y-69523454D01*
X197652872Y-69574383D01*
X197650494Y-69576825D01*
X196211089Y-71016230D01*
X196196677Y-71028616D01*
X196185082Y-71037149D01*
X196185077Y-71037154D01*
X196179182Y-71041492D01*
X196174443Y-71047070D01*
X196174440Y-71047073D01*
X196144965Y-71081768D01*
X196138035Y-71089284D01*
X196132340Y-71094979D01*
X196130060Y-71097861D01*
X196114719Y-71117251D01*
X196111928Y-71120655D01*
X196069409Y-71170703D01*
X196064667Y-71176285D01*
X196061339Y-71182801D01*
X196057972Y-71187850D01*
X196054805Y-71192979D01*
X196050266Y-71198716D01*
X196019345Y-71264875D01*
X196017442Y-71268769D01*
X195984231Y-71333808D01*
X195982492Y-71340916D01*
X195980393Y-71346559D01*
X195978476Y-71352322D01*
X195975378Y-71358950D01*
X195973888Y-71366112D01*
X195973888Y-71366113D01*
X195960514Y-71430412D01*
X195959544Y-71434696D01*
X195942192Y-71505610D01*
X195941500Y-71516764D01*
X195941464Y-71516762D01*
X195941225Y-71520755D01*
X195940851Y-71524947D01*
X195939360Y-71532115D01*
X195939558Y-71539432D01*
X195941454Y-71609521D01*
X195941500Y-71612928D01*
X195941500Y-75830114D01*
X195921498Y-75898235D01*
X195896494Y-75926634D01*
X195892927Y-75929627D01*
X195888413Y-75932788D01*
X195732788Y-76088413D01*
X195729629Y-76092925D01*
X195726634Y-76096494D01*
X195667523Y-76135819D01*
X195630114Y-76141500D01*
X195357070Y-76141500D01*
X195338120Y-76140067D01*
X195323885Y-76137901D01*
X195323881Y-76137901D01*
X195316651Y-76136801D01*
X195309359Y-76137394D01*
X195309356Y-76137394D01*
X195263982Y-76141085D01*
X195253767Y-76141500D01*
X195245707Y-76141500D01*
X195242073Y-76141924D01*
X195242067Y-76141924D01*
X195229042Y-76143443D01*
X195217480Y-76144791D01*
X195213132Y-76145221D01*
X195191059Y-76147016D01*
X195147662Y-76150546D01*
X195147659Y-76150547D01*
X195140364Y-76151140D01*
X195133400Y-76153396D01*
X195127461Y-76154583D01*
X195121590Y-76155970D01*
X195114319Y-76156818D01*
X195107443Y-76159314D01*
X195107434Y-76159316D01*
X195101992Y-76161292D01*
X195031134Y-76165734D01*
X194969123Y-76131162D01*
X194935648Y-76068553D01*
X194932999Y-76042854D01*
X194932999Y-76030405D01*
X194932662Y-76023886D01*
X194922743Y-75928294D01*
X194919851Y-75914900D01*
X194868412Y-75760716D01*
X194862239Y-75747538D01*
X194776937Y-75609693D01*
X194767901Y-75598292D01*
X194653171Y-75483761D01*
X194641760Y-75474749D01*
X194503757Y-75389684D01*
X194490576Y-75383537D01*
X194336290Y-75332362D01*
X194322914Y-75329495D01*
X194228562Y-75319828D01*
X194222145Y-75319500D01*
X193972115Y-75319500D01*
X193956876Y-75323975D01*
X193955671Y-75325365D01*
X193954000Y-75333048D01*
X193954000Y-76543000D01*
X193933998Y-76611121D01*
X193880342Y-76657614D01*
X193828000Y-76669000D01*
X193572000Y-76669000D01*
X193503879Y-76648998D01*
X193457386Y-76595342D01*
X193446000Y-76543000D01*
X193446000Y-75337616D01*
X193441525Y-75322377D01*
X193440135Y-75321172D01*
X193432452Y-75319501D01*
X193177905Y-75319501D01*
X193171386Y-75319838D01*
X193075794Y-75329757D01*
X193062400Y-75332649D01*
X192908216Y-75384088D01*
X192895038Y-75390261D01*
X192757193Y-75475563D01*
X192745792Y-75484599D01*
X192699891Y-75530580D01*
X192637608Y-75564659D01*
X192566788Y-75559656D01*
X192511161Y-75518792D01*
X192508578Y-75515462D01*
X192504542Y-75508638D01*
X192490221Y-75494317D01*
X192477380Y-75479283D01*
X192470131Y-75469306D01*
X192465472Y-75462893D01*
X192431395Y-75434702D01*
X192422616Y-75426712D01*
X189945405Y-72949500D01*
X189911379Y-72887188D01*
X189908500Y-72860405D01*
X189908500Y-71926866D01*
X189901745Y-71864684D01*
X189850615Y-71728295D01*
X189763261Y-71611739D01*
X189646705Y-71524385D01*
X189510316Y-71473255D01*
X189448134Y-71466500D01*
X187651866Y-71466500D01*
X187589684Y-71473255D01*
X187453295Y-71524385D01*
X187336739Y-71611739D01*
X187249385Y-71728295D01*
X187246233Y-71736703D01*
X187204919Y-71846907D01*
X187162277Y-71903671D01*
X187095716Y-71928371D01*
X187026367Y-71913163D01*
X186993743Y-71887476D01*
X186943151Y-71831875D01*
X186943142Y-71831866D01*
X186939670Y-71828051D01*
X186935619Y-71824852D01*
X186935615Y-71824848D01*
X186768414Y-71692800D01*
X186768410Y-71692798D01*
X186764359Y-71689598D01*
X186568789Y-71581638D01*
X186563920Y-71579914D01*
X186563916Y-71579912D01*
X186363087Y-71508795D01*
X186363083Y-71508794D01*
X186358212Y-71507069D01*
X186353119Y-71506162D01*
X186353116Y-71506161D01*
X186143373Y-71468800D01*
X186143367Y-71468799D01*
X186138284Y-71467894D01*
X186064452Y-71466992D01*
X185920081Y-71465228D01*
X185920079Y-71465228D01*
X185914911Y-71465165D01*
X185694091Y-71498955D01*
X185481756Y-71568357D01*
X185283607Y-71671507D01*
X185279474Y-71674610D01*
X185279471Y-71674612D01*
X185155279Y-71767858D01*
X185104965Y-71805635D01*
X185065525Y-71846907D01*
X184964269Y-71952865D01*
X184950629Y-71967138D01*
X184824743Y-72151680D01*
X184730688Y-72354305D01*
X184670989Y-72569570D01*
X184647251Y-72791695D01*
X184647548Y-72796848D01*
X184647548Y-72796851D01*
X184658149Y-72980710D01*
X184660110Y-73014715D01*
X184661247Y-73019761D01*
X184661248Y-73019767D01*
X184693453Y-73162668D01*
X184688917Y-73233520D01*
X184659631Y-73279464D01*
X182107747Y-75831348D01*
X182099461Y-75838888D01*
X182092982Y-75843000D01*
X182087557Y-75848777D01*
X182046357Y-75892651D01*
X182043602Y-75895493D01*
X182023865Y-75915230D01*
X182021385Y-75918427D01*
X182013682Y-75927447D01*
X181983414Y-75959679D01*
X181979595Y-75966625D01*
X181979593Y-75966628D01*
X181973652Y-75977434D01*
X181962801Y-75993953D01*
X181950386Y-76009959D01*
X181947241Y-76017228D01*
X181947238Y-76017232D01*
X181932826Y-76050537D01*
X181927609Y-76061187D01*
X181906305Y-76099940D01*
X181904334Y-76107615D01*
X181904334Y-76107616D01*
X181901267Y-76119562D01*
X181894863Y-76138266D01*
X181886819Y-76156855D01*
X181885580Y-76164678D01*
X181885577Y-76164688D01*
X181879901Y-76200524D01*
X181877495Y-76212144D01*
X181869113Y-76244792D01*
X181866500Y-76254970D01*
X181866500Y-76275224D01*
X181864949Y-76294934D01*
X181861780Y-76314943D01*
X181862526Y-76322835D01*
X181865941Y-76358961D01*
X181866500Y-76370819D01*
X181866500Y-77960595D01*
X181865973Y-77971778D01*
X181864298Y-77979271D01*
X181864547Y-77987197D01*
X181864547Y-77987198D01*
X181866438Y-78047348D01*
X181866500Y-78051307D01*
X181866500Y-78079218D01*
X181866997Y-78083152D01*
X181866997Y-78083153D01*
X181867005Y-78083218D01*
X181867938Y-78095055D01*
X181868908Y-78125914D01*
X181869043Y-78130202D01*
X181869327Y-78139251D01*
X181874978Y-78158701D01*
X181878987Y-78178062D01*
X181881526Y-78198159D01*
X181884445Y-78205530D01*
X181884445Y-78205532D01*
X181897804Y-78239274D01*
X181901649Y-78250504D01*
X181913982Y-78292955D01*
X181918015Y-78299774D01*
X181918017Y-78299779D01*
X181924293Y-78310390D01*
X181932988Y-78328138D01*
X181940448Y-78346979D01*
X181945109Y-78353395D01*
X181945111Y-78353398D01*
X181958219Y-78371439D01*
X181982077Y-78438307D01*
X181965997Y-78507458D01*
X181915083Y-78556938D01*
X181856283Y-78571500D01*
X181848046Y-78571500D01*
X181779925Y-78551498D01*
X181740902Y-78511803D01*
X181671332Y-78399380D01*
X181667478Y-78393152D01*
X181542303Y-78268195D01*
X181513603Y-78250504D01*
X181397968Y-78179225D01*
X181397966Y-78179224D01*
X181391738Y-78175385D01*
X181291082Y-78141999D01*
X181230389Y-78121868D01*
X181230387Y-78121868D01*
X181223861Y-78119703D01*
X181217025Y-78119003D01*
X181217022Y-78119002D01*
X181173969Y-78114591D01*
X181119400Y-78109000D01*
X180446095Y-78109000D01*
X180377974Y-78088998D01*
X180357000Y-78072095D01*
X179996652Y-77711747D01*
X179989112Y-77703461D01*
X179985000Y-77696982D01*
X179935348Y-77650356D01*
X179932507Y-77647602D01*
X179912770Y-77627865D01*
X179909573Y-77625385D01*
X179900551Y-77617680D01*
X179896400Y-77613782D01*
X179868321Y-77587414D01*
X179861375Y-77583595D01*
X179861372Y-77583593D01*
X179850566Y-77577652D01*
X179834047Y-77566801D01*
X179832950Y-77565950D01*
X179818041Y-77554386D01*
X179810772Y-77551241D01*
X179810768Y-77551238D01*
X179777463Y-77536826D01*
X179766813Y-77531609D01*
X179728060Y-77510305D01*
X179718947Y-77507965D01*
X179711807Y-77506132D01*
X179708437Y-77505267D01*
X179689734Y-77498863D01*
X179678420Y-77493967D01*
X179678419Y-77493967D01*
X179671145Y-77490819D01*
X179663322Y-77489580D01*
X179663312Y-77489577D01*
X179627476Y-77483901D01*
X179615856Y-77481495D01*
X179580711Y-77472472D01*
X179580710Y-77472472D01*
X179573030Y-77470500D01*
X179552776Y-77470500D01*
X179533065Y-77468949D01*
X179530534Y-77468548D01*
X179513057Y-77465780D01*
X179505165Y-77466526D01*
X179469039Y-77469941D01*
X179457181Y-77470500D01*
X176672433Y-77470500D01*
X176604312Y-77450498D01*
X176565000Y-77408322D01*
X176564615Y-77407295D01*
X176477261Y-77290739D01*
X176360705Y-77203385D01*
X176224316Y-77152255D01*
X176162134Y-77145500D01*
X174865866Y-77145500D01*
X174803684Y-77152255D01*
X174667295Y-77203385D01*
X174550739Y-77290739D01*
X174463385Y-77407295D01*
X174463139Y-77407951D01*
X174415825Y-77455157D01*
X174355567Y-77470500D01*
X172630763Y-77470500D01*
X172619579Y-77469973D01*
X172612091Y-77468299D01*
X172604168Y-77468548D01*
X172544033Y-77470438D01*
X172540075Y-77470500D01*
X172512144Y-77470500D01*
X172508229Y-77470995D01*
X172508225Y-77470995D01*
X172508167Y-77471003D01*
X172508138Y-77471006D01*
X172496296Y-77471939D01*
X172452110Y-77473327D01*
X172434744Y-77478372D01*
X172432658Y-77478978D01*
X172413306Y-77482986D01*
X172406235Y-77483880D01*
X172393203Y-77485526D01*
X172385834Y-77488443D01*
X172385832Y-77488444D01*
X172352097Y-77501800D01*
X172340869Y-77505645D01*
X172298407Y-77517982D01*
X172291585Y-77522016D01*
X172291579Y-77522019D01*
X172280968Y-77528294D01*
X172263218Y-77536990D01*
X172251756Y-77541528D01*
X172251751Y-77541531D01*
X172244383Y-77544448D01*
X172226970Y-77557099D01*
X172208625Y-77570427D01*
X172198707Y-77576943D01*
X172184908Y-77585104D01*
X172160637Y-77599458D01*
X172146313Y-77613782D01*
X172131281Y-77626621D01*
X172114893Y-77638528D01*
X172091996Y-77666206D01*
X172086712Y-77672593D01*
X172078722Y-77681373D01*
X170826838Y-78933257D01*
X170764526Y-78967283D01*
X170714770Y-78965562D01*
X170714345Y-78967890D01*
X170708006Y-78966732D01*
X170701831Y-78964938D01*
X170695426Y-78964434D01*
X170695421Y-78964433D01*
X170666958Y-78962193D01*
X170666950Y-78962193D01*
X170664502Y-78962000D01*
X170231498Y-78962000D01*
X170229050Y-78962193D01*
X170229042Y-78962193D01*
X170200579Y-78964433D01*
X170200574Y-78964434D01*
X170194169Y-78964938D01*
X170108923Y-78989704D01*
X170042012Y-79009143D01*
X170042010Y-79009144D01*
X170034399Y-79011355D01*
X170027572Y-79015392D01*
X170027573Y-79015392D01*
X169898020Y-79092009D01*
X169898017Y-79092011D01*
X169891193Y-79096047D01*
X169773547Y-79213693D01*
X169769511Y-79220517D01*
X169769509Y-79220520D01*
X169765314Y-79227614D01*
X169688855Y-79356899D01*
X169686644Y-79364510D01*
X169686643Y-79364512D01*
X169671969Y-79415023D01*
X169642438Y-79516669D01*
X169641934Y-79523074D01*
X169641933Y-79523079D01*
X169640087Y-79546537D01*
X169639500Y-79553998D01*
X169639500Y-80862002D01*
X168910000Y-80862002D01*
X168910000Y-75298669D01*
X174406001Y-75298669D01*
X174406371Y-75305490D01*
X174411895Y-75356352D01*
X174415521Y-75371604D01*
X174460676Y-75492054D01*
X174469214Y-75507649D01*
X174545715Y-75609724D01*
X174558276Y-75622285D01*
X174660351Y-75698786D01*
X174675946Y-75707324D01*
X174796394Y-75752478D01*
X174811649Y-75756105D01*
X174862514Y-75761631D01*
X174869328Y-75762000D01*
X175241885Y-75762000D01*
X175257124Y-75757525D01*
X175258329Y-75756135D01*
X175260000Y-75748452D01*
X175260000Y-75743884D01*
X175768000Y-75743884D01*
X175772475Y-75759123D01*
X175773865Y-75760328D01*
X175781548Y-75761999D01*
X176158669Y-75761999D01*
X176165490Y-75761629D01*
X176216352Y-75756105D01*
X176231604Y-75752479D01*
X176352054Y-75707324D01*
X176367649Y-75698786D01*
X176469724Y-75622285D01*
X176482285Y-75609724D01*
X176558786Y-75507649D01*
X176567324Y-75492054D01*
X176612478Y-75371606D01*
X176616105Y-75356351D01*
X176621631Y-75305486D01*
X176622000Y-75298672D01*
X176622000Y-75076115D01*
X176617525Y-75060876D01*
X176616135Y-75059671D01*
X176608452Y-75058000D01*
X175786115Y-75058000D01*
X175770876Y-75062475D01*
X175769671Y-75063865D01*
X175768000Y-75071548D01*
X175768000Y-75743884D01*
X175260000Y-75743884D01*
X175260000Y-75076115D01*
X175255525Y-75060876D01*
X175254135Y-75059671D01*
X175246452Y-75058000D01*
X174424116Y-75058000D01*
X174408877Y-75062475D01*
X174407672Y-75063865D01*
X174406001Y-75071548D01*
X174406001Y-75298669D01*
X168910000Y-75298669D01*
X168910000Y-74531885D01*
X174406000Y-74531885D01*
X174410475Y-74547124D01*
X174411865Y-74548329D01*
X174419548Y-74550000D01*
X175241885Y-74550000D01*
X175257124Y-74545525D01*
X175258329Y-74544135D01*
X175260000Y-74536452D01*
X175260000Y-74531885D01*
X175768000Y-74531885D01*
X175772475Y-74547124D01*
X175773865Y-74548329D01*
X175781548Y-74550000D01*
X176603884Y-74550000D01*
X176619123Y-74545525D01*
X176620328Y-74544135D01*
X176621999Y-74536452D01*
X176621999Y-74309331D01*
X176621629Y-74302510D01*
X176616105Y-74251648D01*
X176612479Y-74236396D01*
X176567324Y-74115946D01*
X176558786Y-74100351D01*
X176482285Y-73998276D01*
X176469724Y-73985715D01*
X176367649Y-73909214D01*
X176352054Y-73900676D01*
X176231606Y-73855522D01*
X176216351Y-73851895D01*
X176165486Y-73846369D01*
X176158672Y-73846000D01*
X175786115Y-73846000D01*
X175770876Y-73850475D01*
X175769671Y-73851865D01*
X175768000Y-73859548D01*
X175768000Y-74531885D01*
X175260000Y-74531885D01*
X175260000Y-73864116D01*
X175255525Y-73848877D01*
X175254135Y-73847672D01*
X175246452Y-73846001D01*
X174869331Y-73846001D01*
X174862510Y-73846371D01*
X174811648Y-73851895D01*
X174796396Y-73855521D01*
X174675946Y-73900676D01*
X174660351Y-73909214D01*
X174558276Y-73985715D01*
X174545715Y-73998276D01*
X174469214Y-74100351D01*
X174460676Y-74115946D01*
X174415522Y-74236394D01*
X174411895Y-74251649D01*
X174406369Y-74302514D01*
X174406000Y-74309328D01*
X174406000Y-74531885D01*
X168910000Y-74531885D01*
X168910000Y-68706000D01*
X168930002Y-68637879D01*
X168983658Y-68591386D01*
X169036000Y-68580000D01*
X229550000Y-68580000D01*
X229618121Y-68600002D01*
G37*
G04 #@! TD.AperFunction*
G04 #@! TA.AperFunction,Conductor*
G36*
X190434348Y-80814062D02*
G01*
X190434399Y-80814237D01*
X190462764Y-80801283D01*
X190480697Y-80800000D01*
X191260866Y-80800000D01*
X191332249Y-80822171D01*
X191574506Y-80988723D01*
X191576947Y-80990401D01*
X191621749Y-81045476D01*
X191629664Y-81116030D01*
X191598178Y-81179663D01*
X191587453Y-81189613D01*
X191472637Y-81304629D01*
X191463625Y-81316040D01*
X191380088Y-81451563D01*
X191373944Y-81464741D01*
X191323685Y-81616266D01*
X191320819Y-81629632D01*
X191311328Y-81722270D01*
X191311000Y-81728685D01*
X191311000Y-81802885D01*
X191315475Y-81818124D01*
X191316865Y-81819329D01*
X191324548Y-81821000D01*
X192422000Y-81821000D01*
X192490121Y-81841002D01*
X192536614Y-81894658D01*
X192548000Y-81947000D01*
X192548000Y-82203000D01*
X192527998Y-82271121D01*
X192474342Y-82317614D01*
X192422000Y-82329000D01*
X191329115Y-82329000D01*
X191313876Y-82333475D01*
X191312671Y-82334865D01*
X191311000Y-82342548D01*
X191311000Y-82421266D01*
X191311337Y-82427782D01*
X191321075Y-82521632D01*
X191323968Y-82535028D01*
X191374488Y-82686453D01*
X191380653Y-82699615D01*
X191464426Y-82834992D01*
X191473460Y-82846390D01*
X191575591Y-82948343D01*
X191609670Y-83010625D01*
X191604667Y-83081446D01*
X191562170Y-83138318D01*
X191495671Y-83163187D01*
X191483894Y-83163487D01*
X191452081Y-83162810D01*
X191118113Y-83155704D01*
X191118112Y-83155704D01*
X191100000Y-83155319D01*
X190057140Y-83133131D01*
X190055724Y-83131715D01*
X189953649Y-83055214D01*
X189938054Y-83046676D01*
X189817606Y-83001522D01*
X189802351Y-82997895D01*
X189751486Y-82992369D01*
X189744672Y-82992000D01*
X188500000Y-82992000D01*
X188500000Y-81636960D01*
X188520002Y-81568839D01*
X188573658Y-81522346D01*
X188626000Y-81510960D01*
X189052335Y-81510960D01*
X189067574Y-81506485D01*
X189068779Y-81505095D01*
X189070450Y-81497412D01*
X189070450Y-81492844D01*
X189349850Y-81492844D01*
X189354325Y-81508083D01*
X189355715Y-81509288D01*
X189363398Y-81510959D01*
X189921569Y-81510959D01*
X189928390Y-81510589D01*
X189979252Y-81505065D01*
X189994504Y-81501439D01*
X190114954Y-81456284D01*
X190130549Y-81447746D01*
X190232624Y-81371245D01*
X190245185Y-81358684D01*
X190321686Y-81256609D01*
X190330224Y-81241014D01*
X190375378Y-81120566D01*
X190379005Y-81105311D01*
X190384531Y-81054446D01*
X190384900Y-81047632D01*
X190384900Y-81021075D01*
X190375401Y-80988723D01*
X190347036Y-81001677D01*
X190329103Y-81002960D01*
X189367965Y-81002960D01*
X189352726Y-81007435D01*
X189351521Y-81008825D01*
X189349850Y-81016508D01*
X189349850Y-81492844D01*
X189070450Y-81492844D01*
X189070450Y-80849560D01*
X189085002Y-80800000D01*
X190429104Y-80800000D01*
X190434348Y-80814062D01*
G37*
G04 #@! TD.AperFunction*
M02*
