G04 #@! TF.GenerationSoftware,KiCad,Pcbnew,(6.0.1)*
G04 #@! TF.CreationDate,2022-04-24T16:28:56-07:00*
G04 #@! TF.ProjectId,PS_controller,50535f63-6f6e-4747-926f-6c6c65722e6b,rev?*
G04 #@! TF.SameCoordinates,Original*
G04 #@! TF.FileFunction,Legend,Bot*
G04 #@! TF.FilePolarity,Positive*
%FSLAX46Y46*%
G04 Gerber Fmt 4.6, Leading zero omitted, Abs format (unit mm)*
G04 Created by KiCad (PCBNEW (6.0.1)) date 2022-04-24 16:28:56*
%MOMM*%
%LPD*%
G01*
G04 APERTURE LIST*
%ADD10R,1.700000X1.700000*%
%ADD11O,1.700000X1.700000*%
%ADD12C,2.500000*%
%ADD13C,2.200000*%
%ADD14C,1.750000*%
%ADD15C,1.498600*%
G04 APERTURE END LIST*
%LPC*%
D10*
X215335000Y-111635000D03*
D11*
X212795000Y-111635000D03*
X210255000Y-111635000D03*
D12*
X198882000Y-109982000D03*
D13*
X206215000Y-72905000D03*
X220115000Y-72905000D03*
D14*
X220615000Y-102505000D03*
X220615000Y-100005000D03*
X214315000Y-105405000D03*
X216915000Y-105405000D03*
X220615000Y-97505000D03*
X220615000Y-95005000D03*
X220615000Y-92505000D03*
X220615000Y-90005000D03*
X220615000Y-87505000D03*
X220615000Y-85005000D03*
X220615000Y-82505000D03*
X211715000Y-105405000D03*
X220615000Y-80005000D03*
X206515000Y-105405000D03*
X209115000Y-105405000D03*
X220615000Y-77505000D03*
X220615000Y-75105000D03*
X205715000Y-75105000D03*
X205715000Y-77605000D03*
X205715000Y-80105000D03*
X205715000Y-82605000D03*
X205715000Y-85105000D03*
X205715000Y-87605000D03*
X205715000Y-90105000D03*
X205715000Y-92605000D03*
X205715000Y-95105000D03*
X205715000Y-97605000D03*
X205715000Y-100105000D03*
X205715000Y-102605000D03*
X219515000Y-105405000D03*
D10*
X188550000Y-72825000D03*
D11*
X186010000Y-72825000D03*
D10*
X226543000Y-94976000D03*
D11*
X226543000Y-92436000D03*
D10*
X176555000Y-85598000D03*
D11*
X176555000Y-88138000D03*
X176555000Y-90678000D03*
D15*
X196685500Y-95895500D03*
X198485500Y-97795500D03*
X200285500Y-95895500D03*
X196700000Y-76900000D03*
X199200000Y-74400000D03*
X201700000Y-76900000D03*
D12*
X226060000Y-77470000D03*
M02*
