%FSLAX45Y45*%
G04 Gerber Fmt 4.5, Leading zero omitted, Abs format (unit mm)*
G04 Created by KiCad (PCBNEW (6.0.1)) date 2022-04-24 16:29:00*
%MOMM*%
%LPD*%
G01*
G04 APERTURE LIST*
%TA.AperFunction,Profile*%
%ADD10C,0.100000*%
%TD*%
%ADD11C,0.200000*%
%ADD12C,0.040000*%
%ADD13C,0.090000*%
%ADD14C,0.099060*%
%ADD15C,0.100000*%
G04 APERTURE END LIST*
D10*
X16840200Y-6807200D02*
X23018400Y-6807200D01*
X23018400Y-6807200D02*
X23018400Y-11455400D01*
X23018400Y-11455400D02*
X16840200Y-11455400D01*
X16840200Y-11455400D02*
X16840200Y-6807200D01*
D11*
D12*
X17531400Y-7219000D02*
X17571400Y-7259000D01*
X17571400Y-7219000D02*
X17531400Y-7259000D01*
X17607600Y-8057200D02*
X17647600Y-8097200D01*
X17647600Y-8057200D02*
X17607600Y-8097200D01*
X18445800Y-7727000D02*
X18485800Y-7767000D01*
X18485800Y-7727000D02*
X18445800Y-7767000D01*
X18680000Y-7950000D02*
X18720000Y-7990000D01*
X18720000Y-7950000D02*
X18680000Y-7990000D01*
X19089000Y-10070000D02*
X19129000Y-10110000D01*
X19129000Y-10070000D02*
X19089000Y-10110000D01*
X19350000Y-7300000D02*
X19390000Y-7340000D01*
X19390000Y-7300000D02*
X19350000Y-7340000D01*
D13*
X20696500Y-10540500D02*
G75*
G03*
X20696500Y-10540500I-45000J0D01*
G01*
X20956500Y-10540500D02*
G75*
G03*
X20956500Y-10540500I-45000J0D01*
G01*
X21216500Y-10540500D02*
G75*
G03*
X21216500Y-10540500I-45000J0D01*
G01*
X21476500Y-10540500D02*
G75*
G03*
X21476500Y-10540500I-45000J0D01*
G01*
X21736500Y-10540500D02*
G75*
G03*
X21736500Y-10540500I-45000J0D01*
G01*
X21996500Y-10540500D02*
G75*
G03*
X21996500Y-10540500I-45000J0D01*
G01*
D14*
X19668550Y-9540020D02*
X19668550Y-9639080D01*
X19619020Y-9589550D02*
X19718080Y-9589550D01*
X19670000Y-7640470D02*
X19670000Y-7739530D01*
X19620470Y-7690000D02*
X19719530Y-7690000D01*
X19848550Y-9730020D02*
X19848550Y-9829080D01*
X19799020Y-9779550D02*
X19898080Y-9779550D01*
X19920000Y-7390470D02*
X19920000Y-7489530D01*
X19870470Y-7440000D02*
X19969530Y-7440000D01*
X20028550Y-9540020D02*
X20028550Y-9639080D01*
X19979020Y-9589550D02*
X20078080Y-9589550D01*
X20170000Y-7640470D02*
X20170000Y-7739530D01*
X20120470Y-7690000D02*
X20219530Y-7690000D01*
D15*
X17690856Y-8595156D02*
X17690856Y-8524444D01*
X17620144Y-8524444D01*
X17620144Y-8595156D01*
X17690856Y-8595156D01*
X17690856Y-8849156D02*
X17690856Y-8778444D01*
X17620144Y-8778444D01*
X17620144Y-8849156D01*
X17690856Y-8849156D01*
X17690856Y-9103156D02*
X17690856Y-9032444D01*
X17620144Y-9032444D01*
X17620144Y-9103156D01*
X17690856Y-9103156D01*
X18636356Y-7317856D02*
X18636356Y-7247144D01*
X18565644Y-7247144D01*
X18565644Y-7317856D01*
X18636356Y-7317856D01*
X18890356Y-7317856D02*
X18890356Y-7247144D01*
X18819644Y-7247144D01*
X18819644Y-7317856D01*
X18890356Y-7317856D01*
X20606856Y-7545856D02*
X20606856Y-7475144D01*
X20536144Y-7475144D01*
X20536144Y-7545856D01*
X20606856Y-7545856D01*
X20606856Y-7795856D02*
X20606856Y-7725144D01*
X20536144Y-7725144D01*
X20536144Y-7795856D01*
X20606856Y-7795856D01*
X20606856Y-8045856D02*
X20606856Y-7975144D01*
X20536144Y-7975144D01*
X20536144Y-8045856D01*
X20606856Y-8045856D01*
X20606856Y-8295856D02*
X20606856Y-8225144D01*
X20536144Y-8225144D01*
X20536144Y-8295856D01*
X20606856Y-8295856D01*
X20606856Y-8545856D02*
X20606856Y-8475144D01*
X20536144Y-8475144D01*
X20536144Y-8545856D01*
X20606856Y-8545856D01*
X20606856Y-8795856D02*
X20606856Y-8725144D01*
X20536144Y-8725144D01*
X20536144Y-8795856D01*
X20606856Y-8795856D01*
X20606856Y-9045856D02*
X20606856Y-8975144D01*
X20536144Y-8975144D01*
X20536144Y-9045856D01*
X20606856Y-9045856D01*
X20606856Y-9295856D02*
X20606856Y-9225144D01*
X20536144Y-9225144D01*
X20536144Y-9295856D01*
X20606856Y-9295856D01*
X20606856Y-9545856D02*
X20606856Y-9475144D01*
X20536144Y-9475144D01*
X20536144Y-9545856D01*
X20606856Y-9545856D01*
X20606856Y-9795856D02*
X20606856Y-9725144D01*
X20536144Y-9725144D01*
X20536144Y-9795856D01*
X20606856Y-9795856D01*
X20606856Y-10045856D02*
X20606856Y-9975144D01*
X20536144Y-9975144D01*
X20536144Y-10045856D01*
X20606856Y-10045856D01*
X20606856Y-10295856D02*
X20606856Y-10225144D01*
X20536144Y-10225144D01*
X20536144Y-10295856D01*
X20606856Y-10295856D01*
X21060856Y-11198856D02*
X21060856Y-11128144D01*
X20990144Y-11128144D01*
X20990144Y-11198856D01*
X21060856Y-11198856D01*
X21314856Y-11198856D02*
X21314856Y-11128144D01*
X21244144Y-11128144D01*
X21244144Y-11198856D01*
X21314856Y-11198856D01*
X21568856Y-11198856D02*
X21568856Y-11128144D01*
X21498144Y-11128144D01*
X21498144Y-11198856D01*
X21568856Y-11198856D01*
X22096856Y-7545856D02*
X22096856Y-7475144D01*
X22026144Y-7475144D01*
X22026144Y-7545856D01*
X22096856Y-7545856D01*
X22096856Y-7785856D02*
X22096856Y-7715144D01*
X22026144Y-7715144D01*
X22026144Y-7785856D01*
X22096856Y-7785856D01*
X22096856Y-8035856D02*
X22096856Y-7965144D01*
X22026144Y-7965144D01*
X22026144Y-8035856D01*
X22096856Y-8035856D01*
X22096856Y-8285856D02*
X22096856Y-8215144D01*
X22026144Y-8215144D01*
X22026144Y-8285856D01*
X22096856Y-8285856D01*
X22096856Y-8535856D02*
X22096856Y-8465144D01*
X22026144Y-8465144D01*
X22026144Y-8535856D01*
X22096856Y-8535856D01*
X22096856Y-8785856D02*
X22096856Y-8715144D01*
X22026144Y-8715144D01*
X22026144Y-8785856D01*
X22096856Y-8785856D01*
X22096856Y-9035856D02*
X22096856Y-8965144D01*
X22026144Y-8965144D01*
X22026144Y-9035856D01*
X22096856Y-9035856D01*
X22096856Y-9285856D02*
X22096856Y-9215144D01*
X22026144Y-9215144D01*
X22026144Y-9285856D01*
X22096856Y-9285856D01*
X22096856Y-9535856D02*
X22096856Y-9465144D01*
X22026144Y-9465144D01*
X22026144Y-9535856D01*
X22096856Y-9535856D01*
X22096856Y-9785856D02*
X22096856Y-9715144D01*
X22026144Y-9715144D01*
X22026144Y-9785856D01*
X22096856Y-9785856D01*
X22096856Y-10035856D02*
X22096856Y-9965144D01*
X22026144Y-9965144D01*
X22026144Y-10035856D01*
X22096856Y-10035856D01*
X22096856Y-10285856D02*
X22096856Y-10215144D01*
X22026144Y-10215144D01*
X22026144Y-10285856D01*
X22096856Y-10285856D01*
X22689656Y-9278956D02*
X22689656Y-9208244D01*
X22618944Y-9208244D01*
X22618944Y-9278956D01*
X22689656Y-9278956D01*
X22689656Y-9532956D02*
X22689656Y-9462244D01*
X22618944Y-9462244D01*
X22618944Y-9532956D01*
X22689656Y-9532956D01*
D11*
X17092819Y-11770876D02*
X17092819Y-11570876D01*
X17140438Y-11570876D01*
X17169010Y-11580400D01*
X17188057Y-11599448D01*
X17197581Y-11618495D01*
X17207105Y-11656590D01*
X17207105Y-11685162D01*
X17197581Y-11723257D01*
X17188057Y-11742305D01*
X17169010Y-11761352D01*
X17140438Y-11770876D01*
X17092819Y-11770876D01*
X17292819Y-11770876D02*
X17292819Y-11637543D01*
X17292819Y-11675638D02*
X17302343Y-11656590D01*
X17311867Y-11647067D01*
X17330914Y-11637543D01*
X17349962Y-11637543D01*
X17416629Y-11770876D02*
X17416629Y-11637543D01*
X17416629Y-11570876D02*
X17407105Y-11580400D01*
X17416629Y-11589924D01*
X17426152Y-11580400D01*
X17416629Y-11570876D01*
X17416629Y-11589924D01*
X17540438Y-11770876D02*
X17521390Y-11761352D01*
X17511867Y-11742305D01*
X17511867Y-11570876D01*
X17645200Y-11770876D02*
X17626152Y-11761352D01*
X17616629Y-11742305D01*
X17616629Y-11570876D01*
X17873771Y-11770876D02*
X17873771Y-11570876D01*
X17940438Y-11713733D01*
X18007105Y-11570876D01*
X18007105Y-11770876D01*
X18188057Y-11770876D02*
X18188057Y-11666114D01*
X18178533Y-11647067D01*
X18159486Y-11637543D01*
X18121390Y-11637543D01*
X18102343Y-11647067D01*
X18188057Y-11761352D02*
X18169010Y-11770876D01*
X18121390Y-11770876D01*
X18102343Y-11761352D01*
X18092819Y-11742305D01*
X18092819Y-11723257D01*
X18102343Y-11704209D01*
X18121390Y-11694686D01*
X18169010Y-11694686D01*
X18188057Y-11685162D01*
X18283295Y-11637543D02*
X18283295Y-11837543D01*
X18283295Y-11647067D02*
X18302343Y-11637543D01*
X18340438Y-11637543D01*
X18359486Y-11647067D01*
X18369010Y-11656590D01*
X18378533Y-11675638D01*
X18378533Y-11732781D01*
X18369010Y-11751828D01*
X18359486Y-11761352D01*
X18340438Y-11770876D01*
X18302343Y-11770876D01*
X18283295Y-11761352D01*
X18464248Y-11751828D02*
X18473771Y-11761352D01*
X18464248Y-11770876D01*
X18454724Y-11761352D01*
X18464248Y-11751828D01*
X18464248Y-11770876D01*
X18464248Y-11647067D02*
X18473771Y-11656590D01*
X18464248Y-11666114D01*
X18454724Y-11656590D01*
X18464248Y-11647067D01*
X18464248Y-11666114D01*
D12*
X16795200Y-12080400D02*
X16835200Y-12120400D01*
X16835200Y-12080400D02*
X16795200Y-12120400D01*
D11*
X17130914Y-11990876D02*
X17149962Y-11990876D01*
X17169010Y-12000400D01*
X17178533Y-12009924D01*
X17188057Y-12028971D01*
X17197581Y-12067067D01*
X17197581Y-12114686D01*
X17188057Y-12152781D01*
X17178533Y-12171828D01*
X17169010Y-12181352D01*
X17149962Y-12190876D01*
X17130914Y-12190876D01*
X17111867Y-12181352D01*
X17102343Y-12171828D01*
X17092819Y-12152781D01*
X17083295Y-12114686D01*
X17083295Y-12067067D01*
X17092819Y-12028971D01*
X17102343Y-12009924D01*
X17111867Y-12000400D01*
X17130914Y-11990876D01*
X17283295Y-12171828D02*
X17292819Y-12181352D01*
X17283295Y-12190876D01*
X17273771Y-12181352D01*
X17283295Y-12171828D01*
X17283295Y-12190876D01*
X17464248Y-12057543D02*
X17464248Y-12190876D01*
X17416629Y-11981352D02*
X17369010Y-12124209D01*
X17492819Y-12124209D01*
X17607105Y-11990876D02*
X17626152Y-11990876D01*
X17645200Y-12000400D01*
X17654724Y-12009924D01*
X17664248Y-12028971D01*
X17673771Y-12067067D01*
X17673771Y-12114686D01*
X17664248Y-12152781D01*
X17654724Y-12171828D01*
X17645200Y-12181352D01*
X17626152Y-12190876D01*
X17607105Y-12190876D01*
X17588057Y-12181352D01*
X17578533Y-12171828D01*
X17569010Y-12152781D01*
X17559486Y-12114686D01*
X17559486Y-12067067D01*
X17569010Y-12028971D01*
X17578533Y-12009924D01*
X17588057Y-12000400D01*
X17607105Y-11990876D01*
X17797581Y-11990876D02*
X17816629Y-11990876D01*
X17835676Y-12000400D01*
X17845200Y-12009924D01*
X17854724Y-12028971D01*
X17864248Y-12067067D01*
X17864248Y-12114686D01*
X17854724Y-12152781D01*
X17845200Y-12171828D01*
X17835676Y-12181352D01*
X17816629Y-12190876D01*
X17797581Y-12190876D01*
X17778533Y-12181352D01*
X17769010Y-12171828D01*
X17759486Y-12152781D01*
X17749962Y-12114686D01*
X17749962Y-12067067D01*
X17759486Y-12028971D01*
X17769010Y-12009924D01*
X17778533Y-12000400D01*
X17797581Y-11990876D01*
X17949962Y-12190876D02*
X17949962Y-12057543D01*
X17949962Y-12076590D02*
X17959486Y-12067067D01*
X17978533Y-12057543D01*
X18007105Y-12057543D01*
X18026152Y-12067067D01*
X18035676Y-12086114D01*
X18035676Y-12190876D01*
X18035676Y-12086114D02*
X18045200Y-12067067D01*
X18064248Y-12057543D01*
X18092819Y-12057543D01*
X18111867Y-12067067D01*
X18121390Y-12086114D01*
X18121390Y-12190876D01*
X18216629Y-12190876D02*
X18216629Y-12057543D01*
X18216629Y-12076590D02*
X18226152Y-12067067D01*
X18245200Y-12057543D01*
X18273771Y-12057543D01*
X18292819Y-12067067D01*
X18302343Y-12086114D01*
X18302343Y-12190876D01*
X18302343Y-12086114D02*
X18311867Y-12067067D01*
X18330914Y-12057543D01*
X18359486Y-12057543D01*
X18378533Y-12067067D01*
X18388057Y-12086114D01*
X18388057Y-12190876D01*
X18778533Y-11981352D02*
X18607105Y-12238495D01*
X19035676Y-11990876D02*
X19054724Y-11990876D01*
X19073771Y-12000400D01*
X19083295Y-12009924D01*
X19092819Y-12028971D01*
X19102343Y-12067067D01*
X19102343Y-12114686D01*
X19092819Y-12152781D01*
X19083295Y-12171828D01*
X19073771Y-12181352D01*
X19054724Y-12190876D01*
X19035676Y-12190876D01*
X19016629Y-12181352D01*
X19007105Y-12171828D01*
X18997581Y-12152781D01*
X18988057Y-12114686D01*
X18988057Y-12067067D01*
X18997581Y-12028971D01*
X19007105Y-12009924D01*
X19016629Y-12000400D01*
X19035676Y-11990876D01*
X19188057Y-12171828D02*
X19197581Y-12181352D01*
X19188057Y-12190876D01*
X19178533Y-12181352D01*
X19188057Y-12171828D01*
X19188057Y-12190876D01*
X19321390Y-11990876D02*
X19340438Y-11990876D01*
X19359486Y-12000400D01*
X19369010Y-12009924D01*
X19378533Y-12028971D01*
X19388057Y-12067067D01*
X19388057Y-12114686D01*
X19378533Y-12152781D01*
X19369010Y-12171828D01*
X19359486Y-12181352D01*
X19340438Y-12190876D01*
X19321390Y-12190876D01*
X19302343Y-12181352D01*
X19292819Y-12171828D01*
X19283295Y-12152781D01*
X19273771Y-12114686D01*
X19273771Y-12067067D01*
X19283295Y-12028971D01*
X19292819Y-12009924D01*
X19302343Y-12000400D01*
X19321390Y-11990876D01*
X19578533Y-12190876D02*
X19464248Y-12190876D01*
X19521390Y-12190876D02*
X19521390Y-11990876D01*
X19502343Y-12019448D01*
X19483295Y-12038495D01*
X19464248Y-12048019D01*
X19759486Y-11990876D02*
X19664248Y-11990876D01*
X19654724Y-12086114D01*
X19664248Y-12076590D01*
X19683295Y-12067067D01*
X19730914Y-12067067D01*
X19749962Y-12076590D01*
X19759486Y-12086114D01*
X19769010Y-12105162D01*
X19769010Y-12152781D01*
X19759486Y-12171828D01*
X19749962Y-12181352D01*
X19730914Y-12190876D01*
X19683295Y-12190876D01*
X19664248Y-12181352D01*
X19654724Y-12171828D01*
X19835676Y-11990876D02*
X19969010Y-11990876D01*
X19883295Y-12190876D01*
X20035676Y-11990876D02*
X20035676Y-12028971D01*
X20111867Y-11990876D02*
X20111867Y-12028971D01*
X20407105Y-12267067D02*
X20397581Y-12257543D01*
X20378533Y-12228971D01*
X20369010Y-12209924D01*
X20359486Y-12181352D01*
X20349962Y-12133733D01*
X20349962Y-12095638D01*
X20359486Y-12048019D01*
X20369010Y-12019448D01*
X20378533Y-12000400D01*
X20397581Y-11971828D01*
X20407105Y-11962305D01*
X20569010Y-11990876D02*
X20530914Y-11990876D01*
X20511867Y-12000400D01*
X20502343Y-12009924D01*
X20483295Y-12038495D01*
X20473771Y-12076590D01*
X20473771Y-12152781D01*
X20483295Y-12171828D01*
X20492819Y-12181352D01*
X20511867Y-12190876D01*
X20549962Y-12190876D01*
X20569010Y-12181352D01*
X20578533Y-12171828D01*
X20588057Y-12152781D01*
X20588057Y-12105162D01*
X20578533Y-12086114D01*
X20569010Y-12076590D01*
X20549962Y-12067067D01*
X20511867Y-12067067D01*
X20492819Y-12076590D01*
X20483295Y-12086114D01*
X20473771Y-12105162D01*
X20826152Y-12190876D02*
X20826152Y-11990876D01*
X20911867Y-12190876D02*
X20911867Y-12086114D01*
X20902343Y-12067067D01*
X20883295Y-12057543D01*
X20854724Y-12057543D01*
X20835676Y-12067067D01*
X20826152Y-12076590D01*
X21035676Y-12190876D02*
X21016629Y-12181352D01*
X21007105Y-12171828D01*
X20997581Y-12152781D01*
X20997581Y-12095638D01*
X21007105Y-12076590D01*
X21016629Y-12067067D01*
X21035676Y-12057543D01*
X21064248Y-12057543D01*
X21083295Y-12067067D01*
X21092819Y-12076590D01*
X21102343Y-12095638D01*
X21102343Y-12152781D01*
X21092819Y-12171828D01*
X21083295Y-12181352D01*
X21064248Y-12190876D01*
X21035676Y-12190876D01*
X21216629Y-12190876D02*
X21197581Y-12181352D01*
X21188057Y-12162305D01*
X21188057Y-11990876D01*
X21369010Y-12181352D02*
X21349962Y-12190876D01*
X21311867Y-12190876D01*
X21292819Y-12181352D01*
X21283295Y-12162305D01*
X21283295Y-12086114D01*
X21292819Y-12067067D01*
X21311867Y-12057543D01*
X21349962Y-12057543D01*
X21369010Y-12067067D01*
X21378533Y-12086114D01*
X21378533Y-12105162D01*
X21283295Y-12124209D01*
X21454724Y-12181352D02*
X21473771Y-12190876D01*
X21511867Y-12190876D01*
X21530914Y-12181352D01*
X21540438Y-12162305D01*
X21540438Y-12152781D01*
X21530914Y-12133733D01*
X21511867Y-12124209D01*
X21483295Y-12124209D01*
X21464248Y-12114686D01*
X21454724Y-12095638D01*
X21454724Y-12086114D01*
X21464248Y-12067067D01*
X21483295Y-12057543D01*
X21511867Y-12057543D01*
X21530914Y-12067067D01*
X21607105Y-12267067D02*
X21616629Y-12257543D01*
X21635676Y-12228971D01*
X21645200Y-12209924D01*
X21654724Y-12181352D01*
X21664248Y-12133733D01*
X21664248Y-12095638D01*
X21654724Y-12048019D01*
X21645200Y-12019448D01*
X21635676Y-12000400D01*
X21616629Y-11971828D01*
X21607105Y-11962305D01*
D13*
X16835200Y-12364400D02*
G75*
G03*
X16835200Y-12364400I-45000J0D01*
G01*
D11*
X17130914Y-12254876D02*
X17149962Y-12254876D01*
X17169010Y-12264400D01*
X17178533Y-12273924D01*
X17188057Y-12292971D01*
X17197581Y-12331067D01*
X17197581Y-12378686D01*
X17188057Y-12416781D01*
X17178533Y-12435828D01*
X17169010Y-12445352D01*
X17149962Y-12454876D01*
X17130914Y-12454876D01*
X17111867Y-12445352D01*
X17102343Y-12435828D01*
X17092819Y-12416781D01*
X17083295Y-12378686D01*
X17083295Y-12331067D01*
X17092819Y-12292971D01*
X17102343Y-12273924D01*
X17111867Y-12264400D01*
X17130914Y-12254876D01*
X17283295Y-12435828D02*
X17292819Y-12445352D01*
X17283295Y-12454876D01*
X17273771Y-12445352D01*
X17283295Y-12435828D01*
X17283295Y-12454876D01*
X17388057Y-12454876D02*
X17426152Y-12454876D01*
X17445200Y-12445352D01*
X17454724Y-12435828D01*
X17473771Y-12407257D01*
X17483295Y-12369162D01*
X17483295Y-12292971D01*
X17473771Y-12273924D01*
X17464248Y-12264400D01*
X17445200Y-12254876D01*
X17407105Y-12254876D01*
X17388057Y-12264400D01*
X17378533Y-12273924D01*
X17369010Y-12292971D01*
X17369010Y-12340590D01*
X17378533Y-12359638D01*
X17388057Y-12369162D01*
X17407105Y-12378686D01*
X17445200Y-12378686D01*
X17464248Y-12369162D01*
X17473771Y-12359638D01*
X17483295Y-12340590D01*
X17607105Y-12254876D02*
X17626152Y-12254876D01*
X17645200Y-12264400D01*
X17654724Y-12273924D01*
X17664248Y-12292971D01*
X17673771Y-12331067D01*
X17673771Y-12378686D01*
X17664248Y-12416781D01*
X17654724Y-12435828D01*
X17645200Y-12445352D01*
X17626152Y-12454876D01*
X17607105Y-12454876D01*
X17588057Y-12445352D01*
X17578533Y-12435828D01*
X17569010Y-12416781D01*
X17559486Y-12378686D01*
X17559486Y-12331067D01*
X17569010Y-12292971D01*
X17578533Y-12273924D01*
X17588057Y-12264400D01*
X17607105Y-12254876D01*
X17797581Y-12254876D02*
X17816629Y-12254876D01*
X17835676Y-12264400D01*
X17845200Y-12273924D01*
X17854724Y-12292971D01*
X17864248Y-12331067D01*
X17864248Y-12378686D01*
X17854724Y-12416781D01*
X17845200Y-12435828D01*
X17835676Y-12445352D01*
X17816629Y-12454876D01*
X17797581Y-12454876D01*
X17778533Y-12445352D01*
X17769010Y-12435828D01*
X17759486Y-12416781D01*
X17749962Y-12378686D01*
X17749962Y-12331067D01*
X17759486Y-12292971D01*
X17769010Y-12273924D01*
X17778533Y-12264400D01*
X17797581Y-12254876D01*
X17949962Y-12454876D02*
X17949962Y-12321543D01*
X17949962Y-12340590D02*
X17959486Y-12331067D01*
X17978533Y-12321543D01*
X18007105Y-12321543D01*
X18026152Y-12331067D01*
X18035676Y-12350114D01*
X18035676Y-12454876D01*
X18035676Y-12350114D02*
X18045200Y-12331067D01*
X18064248Y-12321543D01*
X18092819Y-12321543D01*
X18111867Y-12331067D01*
X18121390Y-12350114D01*
X18121390Y-12454876D01*
X18216629Y-12454876D02*
X18216629Y-12321543D01*
X18216629Y-12340590D02*
X18226152Y-12331067D01*
X18245200Y-12321543D01*
X18273771Y-12321543D01*
X18292819Y-12331067D01*
X18302343Y-12350114D01*
X18302343Y-12454876D01*
X18302343Y-12350114D02*
X18311867Y-12331067D01*
X18330914Y-12321543D01*
X18359486Y-12321543D01*
X18378533Y-12331067D01*
X18388057Y-12350114D01*
X18388057Y-12454876D01*
X18778533Y-12245352D02*
X18607105Y-12502495D01*
X19035676Y-12254876D02*
X19054724Y-12254876D01*
X19073771Y-12264400D01*
X19083295Y-12273924D01*
X19092819Y-12292971D01*
X19102343Y-12331067D01*
X19102343Y-12378686D01*
X19092819Y-12416781D01*
X19083295Y-12435828D01*
X19073771Y-12445352D01*
X19054724Y-12454876D01*
X19035676Y-12454876D01*
X19016629Y-12445352D01*
X19007105Y-12435828D01*
X18997581Y-12416781D01*
X18988057Y-12378686D01*
X18988057Y-12331067D01*
X18997581Y-12292971D01*
X19007105Y-12273924D01*
X19016629Y-12264400D01*
X19035676Y-12254876D01*
X19188057Y-12435828D02*
X19197581Y-12445352D01*
X19188057Y-12454876D01*
X19178533Y-12445352D01*
X19188057Y-12435828D01*
X19188057Y-12454876D01*
X19321390Y-12254876D02*
X19340438Y-12254876D01*
X19359486Y-12264400D01*
X19369010Y-12273924D01*
X19378533Y-12292971D01*
X19388057Y-12331067D01*
X19388057Y-12378686D01*
X19378533Y-12416781D01*
X19369010Y-12435828D01*
X19359486Y-12445352D01*
X19340438Y-12454876D01*
X19321390Y-12454876D01*
X19302343Y-12445352D01*
X19292819Y-12435828D01*
X19283295Y-12416781D01*
X19273771Y-12378686D01*
X19273771Y-12331067D01*
X19283295Y-12292971D01*
X19292819Y-12273924D01*
X19302343Y-12264400D01*
X19321390Y-12254876D01*
X19454724Y-12254876D02*
X19578533Y-12254876D01*
X19511867Y-12331067D01*
X19540438Y-12331067D01*
X19559486Y-12340590D01*
X19569010Y-12350114D01*
X19578533Y-12369162D01*
X19578533Y-12416781D01*
X19569010Y-12435828D01*
X19559486Y-12445352D01*
X19540438Y-12454876D01*
X19483295Y-12454876D01*
X19464248Y-12445352D01*
X19454724Y-12435828D01*
X19759486Y-12254876D02*
X19664248Y-12254876D01*
X19654724Y-12350114D01*
X19664248Y-12340590D01*
X19683295Y-12331067D01*
X19730914Y-12331067D01*
X19749962Y-12340590D01*
X19759486Y-12350114D01*
X19769010Y-12369162D01*
X19769010Y-12416781D01*
X19759486Y-12435828D01*
X19749962Y-12445352D01*
X19730914Y-12454876D01*
X19683295Y-12454876D01*
X19664248Y-12445352D01*
X19654724Y-12435828D01*
X19940438Y-12321543D02*
X19940438Y-12454876D01*
X19892819Y-12245352D02*
X19845200Y-12388209D01*
X19969010Y-12388209D01*
X20035676Y-12254876D02*
X20035676Y-12292971D01*
X20111867Y-12254876D02*
X20111867Y-12292971D01*
X20407105Y-12531067D02*
X20397581Y-12521543D01*
X20378533Y-12492971D01*
X20369010Y-12473924D01*
X20359486Y-12445352D01*
X20349962Y-12397733D01*
X20349962Y-12359638D01*
X20359486Y-12312019D01*
X20369010Y-12283448D01*
X20378533Y-12264400D01*
X20397581Y-12235828D01*
X20407105Y-12226305D01*
X20569010Y-12254876D02*
X20530914Y-12254876D01*
X20511867Y-12264400D01*
X20502343Y-12273924D01*
X20483295Y-12302495D01*
X20473771Y-12340590D01*
X20473771Y-12416781D01*
X20483295Y-12435828D01*
X20492819Y-12445352D01*
X20511867Y-12454876D01*
X20549962Y-12454876D01*
X20569010Y-12445352D01*
X20578533Y-12435828D01*
X20588057Y-12416781D01*
X20588057Y-12369162D01*
X20578533Y-12350114D01*
X20569010Y-12340590D01*
X20549962Y-12331067D01*
X20511867Y-12331067D01*
X20492819Y-12340590D01*
X20483295Y-12350114D01*
X20473771Y-12369162D01*
X20826152Y-12454876D02*
X20826152Y-12254876D01*
X20911867Y-12454876D02*
X20911867Y-12350114D01*
X20902343Y-12331067D01*
X20883295Y-12321543D01*
X20854724Y-12321543D01*
X20835676Y-12331067D01*
X20826152Y-12340590D01*
X21035676Y-12454876D02*
X21016629Y-12445352D01*
X21007105Y-12435828D01*
X20997581Y-12416781D01*
X20997581Y-12359638D01*
X21007105Y-12340590D01*
X21016629Y-12331067D01*
X21035676Y-12321543D01*
X21064248Y-12321543D01*
X21083295Y-12331067D01*
X21092819Y-12340590D01*
X21102343Y-12359638D01*
X21102343Y-12416781D01*
X21092819Y-12435828D01*
X21083295Y-12445352D01*
X21064248Y-12454876D01*
X21035676Y-12454876D01*
X21216629Y-12454876D02*
X21197581Y-12445352D01*
X21188057Y-12426305D01*
X21188057Y-12254876D01*
X21369010Y-12445352D02*
X21349962Y-12454876D01*
X21311867Y-12454876D01*
X21292819Y-12445352D01*
X21283295Y-12426305D01*
X21283295Y-12350114D01*
X21292819Y-12331067D01*
X21311867Y-12321543D01*
X21349962Y-12321543D01*
X21369010Y-12331067D01*
X21378533Y-12350114D01*
X21378533Y-12369162D01*
X21283295Y-12388209D01*
X21454724Y-12445352D02*
X21473771Y-12454876D01*
X21511867Y-12454876D01*
X21530914Y-12445352D01*
X21540438Y-12426305D01*
X21540438Y-12416781D01*
X21530914Y-12397733D01*
X21511867Y-12388209D01*
X21483295Y-12388209D01*
X21464248Y-12378686D01*
X21454724Y-12359638D01*
X21454724Y-12350114D01*
X21464248Y-12331067D01*
X21483295Y-12321543D01*
X21511867Y-12321543D01*
X21530914Y-12331067D01*
X21607105Y-12531067D02*
X21616629Y-12521543D01*
X21635676Y-12492971D01*
X21645200Y-12473924D01*
X21654724Y-12445352D01*
X21664248Y-12397733D01*
X21664248Y-12359638D01*
X21654724Y-12312019D01*
X21645200Y-12283448D01*
X21635676Y-12264400D01*
X21616629Y-12235828D01*
X21607105Y-12226305D01*
D14*
X16785670Y-12578870D02*
X16785670Y-12677930D01*
X16736140Y-12628400D02*
X16835200Y-12628400D01*
D11*
X17130914Y-12518876D02*
X17149962Y-12518876D01*
X17169010Y-12528400D01*
X17178533Y-12537924D01*
X17188057Y-12556971D01*
X17197581Y-12595067D01*
X17197581Y-12642686D01*
X17188057Y-12680781D01*
X17178533Y-12699828D01*
X17169010Y-12709352D01*
X17149962Y-12718876D01*
X17130914Y-12718876D01*
X17111867Y-12709352D01*
X17102343Y-12699828D01*
X17092819Y-12680781D01*
X17083295Y-12642686D01*
X17083295Y-12595067D01*
X17092819Y-12556971D01*
X17102343Y-12537924D01*
X17111867Y-12528400D01*
X17130914Y-12518876D01*
X17283295Y-12699828D02*
X17292819Y-12709352D01*
X17283295Y-12718876D01*
X17273771Y-12709352D01*
X17283295Y-12699828D01*
X17283295Y-12718876D01*
X17388057Y-12718876D02*
X17426152Y-12718876D01*
X17445200Y-12709352D01*
X17454724Y-12699828D01*
X17473771Y-12671257D01*
X17483295Y-12633162D01*
X17483295Y-12556971D01*
X17473771Y-12537924D01*
X17464248Y-12528400D01*
X17445200Y-12518876D01*
X17407105Y-12518876D01*
X17388057Y-12528400D01*
X17378533Y-12537924D01*
X17369010Y-12556971D01*
X17369010Y-12604590D01*
X17378533Y-12623638D01*
X17388057Y-12633162D01*
X17407105Y-12642686D01*
X17445200Y-12642686D01*
X17464248Y-12633162D01*
X17473771Y-12623638D01*
X17483295Y-12604590D01*
X17578533Y-12718876D02*
X17616629Y-12718876D01*
X17635676Y-12709352D01*
X17645200Y-12699828D01*
X17664248Y-12671257D01*
X17673771Y-12633162D01*
X17673771Y-12556971D01*
X17664248Y-12537924D01*
X17654724Y-12528400D01*
X17635676Y-12518876D01*
X17597581Y-12518876D01*
X17578533Y-12528400D01*
X17569010Y-12537924D01*
X17559486Y-12556971D01*
X17559486Y-12604590D01*
X17569010Y-12623638D01*
X17578533Y-12633162D01*
X17597581Y-12642686D01*
X17635676Y-12642686D01*
X17654724Y-12633162D01*
X17664248Y-12623638D01*
X17673771Y-12604590D01*
X17864248Y-12718876D02*
X17749962Y-12718876D01*
X17807105Y-12718876D02*
X17807105Y-12518876D01*
X17788057Y-12547448D01*
X17769010Y-12566495D01*
X17749962Y-12576019D01*
X17949962Y-12718876D02*
X17949962Y-12585543D01*
X17949962Y-12604590D02*
X17959486Y-12595067D01*
X17978533Y-12585543D01*
X18007105Y-12585543D01*
X18026152Y-12595067D01*
X18035676Y-12614114D01*
X18035676Y-12718876D01*
X18035676Y-12614114D02*
X18045200Y-12595067D01*
X18064248Y-12585543D01*
X18092819Y-12585543D01*
X18111867Y-12595067D01*
X18121390Y-12614114D01*
X18121390Y-12718876D01*
X18216629Y-12718876D02*
X18216629Y-12585543D01*
X18216629Y-12604590D02*
X18226152Y-12595067D01*
X18245200Y-12585543D01*
X18273771Y-12585543D01*
X18292819Y-12595067D01*
X18302343Y-12614114D01*
X18302343Y-12718876D01*
X18302343Y-12614114D02*
X18311867Y-12595067D01*
X18330914Y-12585543D01*
X18359486Y-12585543D01*
X18378533Y-12595067D01*
X18388057Y-12614114D01*
X18388057Y-12718876D01*
X18778533Y-12509352D02*
X18607105Y-12766495D01*
X19035676Y-12518876D02*
X19054724Y-12518876D01*
X19073771Y-12528400D01*
X19083295Y-12537924D01*
X19092819Y-12556971D01*
X19102343Y-12595067D01*
X19102343Y-12642686D01*
X19092819Y-12680781D01*
X19083295Y-12699828D01*
X19073771Y-12709352D01*
X19054724Y-12718876D01*
X19035676Y-12718876D01*
X19016629Y-12709352D01*
X19007105Y-12699828D01*
X18997581Y-12680781D01*
X18988057Y-12642686D01*
X18988057Y-12595067D01*
X18997581Y-12556971D01*
X19007105Y-12537924D01*
X19016629Y-12528400D01*
X19035676Y-12518876D01*
X19188057Y-12699828D02*
X19197581Y-12709352D01*
X19188057Y-12718876D01*
X19178533Y-12709352D01*
X19188057Y-12699828D01*
X19188057Y-12718876D01*
X19321390Y-12518876D02*
X19340438Y-12518876D01*
X19359486Y-12528400D01*
X19369010Y-12537924D01*
X19378533Y-12556971D01*
X19388057Y-12595067D01*
X19388057Y-12642686D01*
X19378533Y-12680781D01*
X19369010Y-12699828D01*
X19359486Y-12709352D01*
X19340438Y-12718876D01*
X19321390Y-12718876D01*
X19302343Y-12709352D01*
X19292819Y-12699828D01*
X19283295Y-12680781D01*
X19273771Y-12642686D01*
X19273771Y-12595067D01*
X19283295Y-12556971D01*
X19292819Y-12537924D01*
X19302343Y-12528400D01*
X19321390Y-12518876D01*
X19454724Y-12518876D02*
X19578533Y-12518876D01*
X19511867Y-12595067D01*
X19540438Y-12595067D01*
X19559486Y-12604590D01*
X19569010Y-12614114D01*
X19578533Y-12633162D01*
X19578533Y-12680781D01*
X19569010Y-12699828D01*
X19559486Y-12709352D01*
X19540438Y-12718876D01*
X19483295Y-12718876D01*
X19464248Y-12709352D01*
X19454724Y-12699828D01*
X19673771Y-12718876D02*
X19711867Y-12718876D01*
X19730914Y-12709352D01*
X19740438Y-12699828D01*
X19759486Y-12671257D01*
X19769010Y-12633162D01*
X19769010Y-12556971D01*
X19759486Y-12537924D01*
X19749962Y-12528400D01*
X19730914Y-12518876D01*
X19692819Y-12518876D01*
X19673771Y-12528400D01*
X19664248Y-12537924D01*
X19654724Y-12556971D01*
X19654724Y-12604590D01*
X19664248Y-12623638D01*
X19673771Y-12633162D01*
X19692819Y-12642686D01*
X19730914Y-12642686D01*
X19749962Y-12633162D01*
X19759486Y-12623638D01*
X19769010Y-12604590D01*
X19892819Y-12518876D02*
X19911867Y-12518876D01*
X19930914Y-12528400D01*
X19940438Y-12537924D01*
X19949962Y-12556971D01*
X19959486Y-12595067D01*
X19959486Y-12642686D01*
X19949962Y-12680781D01*
X19940438Y-12699828D01*
X19930914Y-12709352D01*
X19911867Y-12718876D01*
X19892819Y-12718876D01*
X19873771Y-12709352D01*
X19864248Y-12699828D01*
X19854724Y-12680781D01*
X19845200Y-12642686D01*
X19845200Y-12595067D01*
X19854724Y-12556971D01*
X19864248Y-12537924D01*
X19873771Y-12528400D01*
X19892819Y-12518876D01*
X20035676Y-12518876D02*
X20035676Y-12556971D01*
X20111867Y-12518876D02*
X20111867Y-12556971D01*
X20407105Y-12795067D02*
X20397581Y-12785543D01*
X20378533Y-12756971D01*
X20369010Y-12737924D01*
X20359486Y-12709352D01*
X20349962Y-12661733D01*
X20349962Y-12623638D01*
X20359486Y-12576019D01*
X20369010Y-12547448D01*
X20378533Y-12528400D01*
X20397581Y-12499828D01*
X20407105Y-12490305D01*
X20569010Y-12518876D02*
X20530914Y-12518876D01*
X20511867Y-12528400D01*
X20502343Y-12537924D01*
X20483295Y-12566495D01*
X20473771Y-12604590D01*
X20473771Y-12680781D01*
X20483295Y-12699828D01*
X20492819Y-12709352D01*
X20511867Y-12718876D01*
X20549962Y-12718876D01*
X20569010Y-12709352D01*
X20578533Y-12699828D01*
X20588057Y-12680781D01*
X20588057Y-12633162D01*
X20578533Y-12614114D01*
X20569010Y-12604590D01*
X20549962Y-12595067D01*
X20511867Y-12595067D01*
X20492819Y-12604590D01*
X20483295Y-12614114D01*
X20473771Y-12633162D01*
X20826152Y-12718876D02*
X20826152Y-12518876D01*
X20911867Y-12718876D02*
X20911867Y-12614114D01*
X20902343Y-12595067D01*
X20883295Y-12585543D01*
X20854724Y-12585543D01*
X20835676Y-12595067D01*
X20826152Y-12604590D01*
X21035676Y-12718876D02*
X21016629Y-12709352D01*
X21007105Y-12699828D01*
X20997581Y-12680781D01*
X20997581Y-12623638D01*
X21007105Y-12604590D01*
X21016629Y-12595067D01*
X21035676Y-12585543D01*
X21064248Y-12585543D01*
X21083295Y-12595067D01*
X21092819Y-12604590D01*
X21102343Y-12623638D01*
X21102343Y-12680781D01*
X21092819Y-12699828D01*
X21083295Y-12709352D01*
X21064248Y-12718876D01*
X21035676Y-12718876D01*
X21216629Y-12718876D02*
X21197581Y-12709352D01*
X21188057Y-12690305D01*
X21188057Y-12518876D01*
X21369010Y-12709352D02*
X21349962Y-12718876D01*
X21311867Y-12718876D01*
X21292819Y-12709352D01*
X21283295Y-12690305D01*
X21283295Y-12614114D01*
X21292819Y-12595067D01*
X21311867Y-12585543D01*
X21349962Y-12585543D01*
X21369010Y-12595067D01*
X21378533Y-12614114D01*
X21378533Y-12633162D01*
X21283295Y-12652209D01*
X21454724Y-12709352D02*
X21473771Y-12718876D01*
X21511867Y-12718876D01*
X21530914Y-12709352D01*
X21540438Y-12690305D01*
X21540438Y-12680781D01*
X21530914Y-12661733D01*
X21511867Y-12652209D01*
X21483295Y-12652209D01*
X21464248Y-12642686D01*
X21454724Y-12623638D01*
X21454724Y-12614114D01*
X21464248Y-12595067D01*
X21483295Y-12585543D01*
X21511867Y-12585543D01*
X21530914Y-12595067D01*
X21607105Y-12795067D02*
X21616629Y-12785543D01*
X21635676Y-12756971D01*
X21645200Y-12737924D01*
X21654724Y-12709352D01*
X21664248Y-12661733D01*
X21664248Y-12623638D01*
X21654724Y-12576019D01*
X21645200Y-12547448D01*
X21635676Y-12528400D01*
X21616629Y-12499828D01*
X21607105Y-12490305D01*
D15*
X16820556Y-12927756D02*
X16820556Y-12857044D01*
X16749844Y-12857044D01*
X16749844Y-12927756D01*
X16820556Y-12927756D01*
D11*
X17197581Y-12982876D02*
X17083295Y-12982876D01*
X17140438Y-12982876D02*
X17140438Y-12782876D01*
X17121390Y-12811448D01*
X17102343Y-12830495D01*
X17083295Y-12840019D01*
X17283295Y-12963828D02*
X17292819Y-12973352D01*
X17283295Y-12982876D01*
X17273771Y-12973352D01*
X17283295Y-12963828D01*
X17283295Y-12982876D01*
X17416629Y-12782876D02*
X17435676Y-12782876D01*
X17454724Y-12792400D01*
X17464248Y-12801924D01*
X17473771Y-12820971D01*
X17483295Y-12859067D01*
X17483295Y-12906686D01*
X17473771Y-12944781D01*
X17464248Y-12963828D01*
X17454724Y-12973352D01*
X17435676Y-12982876D01*
X17416629Y-12982876D01*
X17397581Y-12973352D01*
X17388057Y-12963828D01*
X17378533Y-12944781D01*
X17369010Y-12906686D01*
X17369010Y-12859067D01*
X17378533Y-12820971D01*
X17388057Y-12801924D01*
X17397581Y-12792400D01*
X17416629Y-12782876D01*
X17607105Y-12782876D02*
X17626152Y-12782876D01*
X17645200Y-12792400D01*
X17654724Y-12801924D01*
X17664248Y-12820971D01*
X17673771Y-12859067D01*
X17673771Y-12906686D01*
X17664248Y-12944781D01*
X17654724Y-12963828D01*
X17645200Y-12973352D01*
X17626152Y-12982876D01*
X17607105Y-12982876D01*
X17588057Y-12973352D01*
X17578533Y-12963828D01*
X17569010Y-12944781D01*
X17559486Y-12906686D01*
X17559486Y-12859067D01*
X17569010Y-12820971D01*
X17578533Y-12801924D01*
X17588057Y-12792400D01*
X17607105Y-12782876D01*
X17797581Y-12782876D02*
X17816629Y-12782876D01*
X17835676Y-12792400D01*
X17845200Y-12801924D01*
X17854724Y-12820971D01*
X17864248Y-12859067D01*
X17864248Y-12906686D01*
X17854724Y-12944781D01*
X17845200Y-12963828D01*
X17835676Y-12973352D01*
X17816629Y-12982876D01*
X17797581Y-12982876D01*
X17778533Y-12973352D01*
X17769010Y-12963828D01*
X17759486Y-12944781D01*
X17749962Y-12906686D01*
X17749962Y-12859067D01*
X17759486Y-12820971D01*
X17769010Y-12801924D01*
X17778533Y-12792400D01*
X17797581Y-12782876D01*
X17949962Y-12982876D02*
X17949962Y-12849543D01*
X17949962Y-12868590D02*
X17959486Y-12859067D01*
X17978533Y-12849543D01*
X18007105Y-12849543D01*
X18026152Y-12859067D01*
X18035676Y-12878114D01*
X18035676Y-12982876D01*
X18035676Y-12878114D02*
X18045200Y-12859067D01*
X18064248Y-12849543D01*
X18092819Y-12849543D01*
X18111867Y-12859067D01*
X18121390Y-12878114D01*
X18121390Y-12982876D01*
X18216629Y-12982876D02*
X18216629Y-12849543D01*
X18216629Y-12868590D02*
X18226152Y-12859067D01*
X18245200Y-12849543D01*
X18273771Y-12849543D01*
X18292819Y-12859067D01*
X18302343Y-12878114D01*
X18302343Y-12982876D01*
X18302343Y-12878114D02*
X18311867Y-12859067D01*
X18330914Y-12849543D01*
X18359486Y-12849543D01*
X18378533Y-12859067D01*
X18388057Y-12878114D01*
X18388057Y-12982876D01*
X18778533Y-12773352D02*
X18607105Y-13030495D01*
X19035676Y-12782876D02*
X19054724Y-12782876D01*
X19073771Y-12792400D01*
X19083295Y-12801924D01*
X19092819Y-12820971D01*
X19102343Y-12859067D01*
X19102343Y-12906686D01*
X19092819Y-12944781D01*
X19083295Y-12963828D01*
X19073771Y-12973352D01*
X19054724Y-12982876D01*
X19035676Y-12982876D01*
X19016629Y-12973352D01*
X19007105Y-12963828D01*
X18997581Y-12944781D01*
X18988057Y-12906686D01*
X18988057Y-12859067D01*
X18997581Y-12820971D01*
X19007105Y-12801924D01*
X19016629Y-12792400D01*
X19035676Y-12782876D01*
X19188057Y-12963828D02*
X19197581Y-12973352D01*
X19188057Y-12982876D01*
X19178533Y-12973352D01*
X19188057Y-12963828D01*
X19188057Y-12982876D01*
X19321390Y-12782876D02*
X19340438Y-12782876D01*
X19359486Y-12792400D01*
X19369010Y-12801924D01*
X19378533Y-12820971D01*
X19388057Y-12859067D01*
X19388057Y-12906686D01*
X19378533Y-12944781D01*
X19369010Y-12963828D01*
X19359486Y-12973352D01*
X19340438Y-12982876D01*
X19321390Y-12982876D01*
X19302343Y-12973352D01*
X19292819Y-12963828D01*
X19283295Y-12944781D01*
X19273771Y-12906686D01*
X19273771Y-12859067D01*
X19283295Y-12820971D01*
X19292819Y-12801924D01*
X19302343Y-12792400D01*
X19321390Y-12782876D01*
X19454724Y-12782876D02*
X19578533Y-12782876D01*
X19511867Y-12859067D01*
X19540438Y-12859067D01*
X19559486Y-12868590D01*
X19569010Y-12878114D01*
X19578533Y-12897162D01*
X19578533Y-12944781D01*
X19569010Y-12963828D01*
X19559486Y-12973352D01*
X19540438Y-12982876D01*
X19483295Y-12982876D01*
X19464248Y-12973352D01*
X19454724Y-12963828D01*
X19673771Y-12982876D02*
X19711867Y-12982876D01*
X19730914Y-12973352D01*
X19740438Y-12963828D01*
X19759486Y-12935257D01*
X19769010Y-12897162D01*
X19769010Y-12820971D01*
X19759486Y-12801924D01*
X19749962Y-12792400D01*
X19730914Y-12782876D01*
X19692819Y-12782876D01*
X19673771Y-12792400D01*
X19664248Y-12801924D01*
X19654724Y-12820971D01*
X19654724Y-12868590D01*
X19664248Y-12887638D01*
X19673771Y-12897162D01*
X19692819Y-12906686D01*
X19730914Y-12906686D01*
X19749962Y-12897162D01*
X19759486Y-12887638D01*
X19769010Y-12868590D01*
X19940438Y-12849543D02*
X19940438Y-12982876D01*
X19892819Y-12773352D02*
X19845200Y-12916209D01*
X19969010Y-12916209D01*
X20035676Y-12782876D02*
X20035676Y-12820971D01*
X20111867Y-12782876D02*
X20111867Y-12820971D01*
X20407105Y-13059067D02*
X20397581Y-13049543D01*
X20378533Y-13020971D01*
X20369010Y-13001924D01*
X20359486Y-12973352D01*
X20349962Y-12925733D01*
X20349962Y-12887638D01*
X20359486Y-12840019D01*
X20369010Y-12811448D01*
X20378533Y-12792400D01*
X20397581Y-12763828D01*
X20407105Y-12754305D01*
X20464248Y-12782876D02*
X20588057Y-12782876D01*
X20521390Y-12859067D01*
X20549962Y-12859067D01*
X20569010Y-12868590D01*
X20578533Y-12878114D01*
X20588057Y-12897162D01*
X20588057Y-12944781D01*
X20578533Y-12963828D01*
X20569010Y-12973352D01*
X20549962Y-12982876D01*
X20492819Y-12982876D01*
X20473771Y-12973352D01*
X20464248Y-12963828D01*
X20759486Y-12849543D02*
X20759486Y-12982876D01*
X20711867Y-12773352D02*
X20664248Y-12916209D01*
X20788057Y-12916209D01*
X21016629Y-12982876D02*
X21016629Y-12782876D01*
X21102343Y-12982876D02*
X21102343Y-12878114D01*
X21092819Y-12859067D01*
X21073771Y-12849543D01*
X21045200Y-12849543D01*
X21026152Y-12859067D01*
X21016629Y-12868590D01*
X21226152Y-12982876D02*
X21207105Y-12973352D01*
X21197581Y-12963828D01*
X21188057Y-12944781D01*
X21188057Y-12887638D01*
X21197581Y-12868590D01*
X21207105Y-12859067D01*
X21226152Y-12849543D01*
X21254724Y-12849543D01*
X21273771Y-12859067D01*
X21283295Y-12868590D01*
X21292819Y-12887638D01*
X21292819Y-12944781D01*
X21283295Y-12963828D01*
X21273771Y-12973352D01*
X21254724Y-12982876D01*
X21226152Y-12982876D01*
X21407105Y-12982876D02*
X21388057Y-12973352D01*
X21378533Y-12954305D01*
X21378533Y-12782876D01*
X21559486Y-12973352D02*
X21540438Y-12982876D01*
X21502343Y-12982876D01*
X21483295Y-12973352D01*
X21473771Y-12954305D01*
X21473771Y-12878114D01*
X21483295Y-12859067D01*
X21502343Y-12849543D01*
X21540438Y-12849543D01*
X21559486Y-12859067D01*
X21569010Y-12878114D01*
X21569010Y-12897162D01*
X21473771Y-12916209D01*
X21645200Y-12973352D02*
X21664248Y-12982876D01*
X21702343Y-12982876D01*
X21721390Y-12973352D01*
X21730914Y-12954305D01*
X21730914Y-12944781D01*
X21721390Y-12925733D01*
X21702343Y-12916209D01*
X21673771Y-12916209D01*
X21654724Y-12906686D01*
X21645200Y-12887638D01*
X21645200Y-12878114D01*
X21654724Y-12859067D01*
X21673771Y-12849543D01*
X21702343Y-12849543D01*
X21721390Y-12859067D01*
X21797581Y-13059067D02*
X21807105Y-13049543D01*
X21826152Y-13020971D01*
X21835676Y-13001924D01*
X21845200Y-12973352D01*
X21854724Y-12925733D01*
X21854724Y-12887638D01*
X21845200Y-12840019D01*
X21835676Y-12811448D01*
X21826152Y-12792400D01*
X21807105Y-12763828D01*
X21797581Y-12754305D01*
M02*
