G04 #@! TF.GenerationSoftware,KiCad,Pcbnew,(6.0.1)*
G04 #@! TF.CreationDate,2022-06-09T11:36:19-07:00*
G04 #@! TF.ProjectId,PS_controller_rev1_2,50535f63-6f6e-4747-926f-6c6c65725f72,rev?*
G04 #@! TF.SameCoordinates,Original*
G04 #@! TF.FileFunction,Soldermask,Top*
G04 #@! TF.FilePolarity,Negative*
%FSLAX46Y46*%
G04 Gerber Fmt 4.6, Leading zero omitted, Abs format (unit mm)*
G04 Created by KiCad (PCBNEW (6.0.1)) date 2022-06-09 11:36:19*
%MOMM*%
%LPD*%
G01*
G04 APERTURE LIST*
G04 Aperture macros list*
%AMRoundRect*
0 Rectangle with rounded corners*
0 $1 Rounding radius*
0 $2 $3 $4 $5 $6 $7 $8 $9 X,Y pos of 4 corners*
0 Add a 4 corners polygon primitive as box body*
4,1,4,$2,$3,$4,$5,$6,$7,$8,$9,$2,$3,0*
0 Add four circle primitives for the rounded corners*
1,1,$1+$1,$2,$3*
1,1,$1+$1,$4,$5*
1,1,$1+$1,$6,$7*
1,1,$1+$1,$8,$9*
0 Add four rect primitives between the rounded corners*
20,1,$1+$1,$2,$3,$4,$5,0*
20,1,$1+$1,$4,$5,$6,$7,0*
20,1,$1+$1,$6,$7,$8,$9,0*
20,1,$1+$1,$8,$9,$2,$3,0*%
G04 Aperture macros list end*
%ADD10RoundRect,0.250000X-0.350000X-0.450000X0.350000X-0.450000X0.350000X0.450000X-0.350000X0.450000X0*%
%ADD11RoundRect,0.250000X-0.400000X-0.625000X0.400000X-0.625000X0.400000X0.625000X-0.400000X0.625000X0*%
%ADD12RoundRect,0.150000X0.587500X0.150000X-0.587500X0.150000X-0.587500X-0.150000X0.587500X-0.150000X0*%
%ADD13RoundRect,0.250000X0.350000X0.450000X-0.350000X0.450000X-0.350000X-0.450000X0.350000X-0.450000X0*%
%ADD14C,2.500000*%
%ADD15C,2.300000*%
%ADD16C,1.750000*%
%ADD17RoundRect,0.237500X0.237500X-0.300000X0.237500X0.300000X-0.237500X0.300000X-0.237500X-0.300000X0*%
%ADD18R,1.333500X0.279400*%
%ADD19C,1.498600*%
%ADD20RoundRect,0.250000X0.475000X-0.337500X0.475000X0.337500X-0.475000X0.337500X-0.475000X-0.337500X0*%
%ADD21RoundRect,0.250000X0.450000X-0.350000X0.450000X0.350000X-0.450000X0.350000X-0.450000X-0.350000X0*%
%ADD22R,2.900000X5.400000*%
%ADD23R,1.700000X1.700000*%
%ADD24O,1.700000X1.700000*%
G04 APERTURE END LIST*
D10*
X150700000Y-81700000D03*
X152700000Y-81700000D03*
D11*
X147591384Y-84088276D03*
X150691384Y-84088276D03*
D12*
X153537500Y-98950000D03*
X153537500Y-97050000D03*
X151662500Y-98000000D03*
D13*
X147100000Y-96000000D03*
X145100000Y-96000000D03*
D14*
X160800000Y-112600000D03*
D15*
X142729000Y-78655000D03*
X157659000Y-78655000D03*
D16*
X157659000Y-108655000D03*
X160659000Y-108655000D03*
X160659000Y-106155000D03*
X157659000Y-106155000D03*
X157659000Y-103655000D03*
X160659000Y-103655000D03*
X157659000Y-101155000D03*
X160659000Y-101155000D03*
X157659000Y-98655000D03*
X160559000Y-98655000D03*
X157659000Y-96155000D03*
X160659000Y-96155000D03*
X157659000Y-93655000D03*
X160659000Y-93655000D03*
X160659000Y-91155000D03*
X157659000Y-91155000D03*
X157659000Y-88655000D03*
X160659000Y-88655000D03*
X160659000Y-86155000D03*
X157659000Y-86155000D03*
X143559000Y-111555000D03*
X146159000Y-111555000D03*
X146259000Y-114055000D03*
X160659000Y-83655000D03*
X157659000Y-83655000D03*
X143559000Y-114055000D03*
X160659000Y-81255000D03*
X157659000Y-81255000D03*
X142759000Y-81255000D03*
X139859000Y-81255000D03*
X139859000Y-83755000D03*
X142759000Y-83755000D03*
X139859000Y-86255000D03*
X142759000Y-86255000D03*
X142759000Y-88655000D03*
X139859000Y-88655000D03*
X142759000Y-91255000D03*
X139859000Y-91255000D03*
X142759000Y-93755000D03*
X139859000Y-93755000D03*
X142759000Y-96255000D03*
X139859000Y-96255000D03*
X142759000Y-98755000D03*
X139859000Y-98755000D03*
X139859000Y-101155000D03*
X142759000Y-101155000D03*
X142759000Y-103655000D03*
X139859000Y-103655000D03*
X139859000Y-106255000D03*
X142759000Y-106255000D03*
X142759000Y-108655000D03*
X139849000Y-108655000D03*
X148759000Y-114055000D03*
X148759000Y-111555000D03*
X151359000Y-111555000D03*
X151359000Y-114055000D03*
X153959000Y-111555000D03*
X153959000Y-114055000D03*
X156559000Y-111555000D03*
X156559000Y-114055000D03*
D14*
X139700000Y-112600000D03*
D17*
X145800000Y-92762500D03*
X145800000Y-91037500D03*
D14*
X150500000Y-70600000D03*
D18*
X152116150Y-94500760D03*
X152116150Y-94000380D03*
X152116150Y-93500000D03*
X152116150Y-92999620D03*
X152116150Y-92499240D03*
X147683850Y-92499240D03*
X147683850Y-92999620D03*
X147683850Y-93500000D03*
X147683850Y-94000380D03*
X147683850Y-94500760D03*
D19*
X149690000Y-107130000D03*
X147890000Y-105230000D03*
X146090000Y-107130000D03*
D20*
X154300000Y-94537500D03*
X154300000Y-92462500D03*
D19*
X147719000Y-86274500D03*
X150219000Y-88774500D03*
X152719000Y-86274500D03*
D21*
X155600000Y-98900000D03*
X155600000Y-96900000D03*
D22*
X145290000Y-73700000D03*
X155190000Y-73700000D03*
D23*
X146250000Y-100285000D03*
D24*
X148790000Y-100285000D03*
D23*
X154025000Y-103075000D03*
D24*
X154025000Y-105615000D03*
X154025000Y-108155000D03*
M02*
