G04 #@! TF.GenerationSoftware,KiCad,Pcbnew,(6.0.1)*
G04 #@! TF.CreationDate,2022-06-09T11:36:19-07:00*
G04 #@! TF.ProjectId,PS_controller_rev1_2,50535f63-6f6e-4747-926f-6c6c65725f72,rev?*
G04 #@! TF.SameCoordinates,Original*
G04 #@! TF.FileFunction,Copper,L2,Bot*
G04 #@! TF.FilePolarity,Positive*
%FSLAX46Y46*%
G04 Gerber Fmt 4.6, Leading zero omitted, Abs format (unit mm)*
G04 Created by KiCad (PCBNEW (6.0.1)) date 2022-06-09 11:36:19*
%MOMM*%
%LPD*%
G01*
G04 APERTURE LIST*
G04 Aperture macros list*
%AMRoundRect*
0 Rectangle with rounded corners*
0 $1 Rounding radius*
0 $2 $3 $4 $5 $6 $7 $8 $9 X,Y pos of 4 corners*
0 Add a 4 corners polygon primitive as box body*
4,1,4,$2,$3,$4,$5,$6,$7,$8,$9,$2,$3,0*
0 Add four circle primitives for the rounded corners*
1,1,$1+$1,$2,$3*
1,1,$1+$1,$4,$5*
1,1,$1+$1,$6,$7*
1,1,$1+$1,$8,$9*
0 Add four rect primitives between the rounded corners*
20,1,$1+$1,$2,$3,$4,$5,0*
20,1,$1+$1,$4,$5,$6,$7,0*
20,1,$1+$1,$6,$7,$8,$9,0*
20,1,$1+$1,$8,$9,$2,$3,0*%
G04 Aperture macros list end*
G04 #@! TA.AperFunction,WasherPad*
%ADD10C,2.300000*%
G04 #@! TD*
G04 #@! TA.AperFunction,ComponentPad*
%ADD11C,1.750000*%
G04 #@! TD*
G04 #@! TA.AperFunction,ComponentPad*
%ADD12C,1.498600*%
G04 #@! TD*
G04 #@! TA.AperFunction,SMDPad,CuDef*
%ADD13R,1.200000X0.900000*%
G04 #@! TD*
G04 #@! TA.AperFunction,SMDPad,CuDef*
%ADD14RoundRect,0.187500X0.187500X-0.562500X0.187500X0.562500X-0.187500X0.562500X-0.187500X-0.562500X0*%
G04 #@! TD*
G04 #@! TA.AperFunction,ComponentPad*
%ADD15R,1.700000X1.700000*%
G04 #@! TD*
G04 #@! TA.AperFunction,ComponentPad*
%ADD16O,1.700000X1.700000*%
G04 #@! TD*
G04 #@! TA.AperFunction,SMDPad,CuDef*
%ADD17RoundRect,0.250000X-0.625000X0.400000X-0.625000X-0.400000X0.625000X-0.400000X0.625000X0.400000X0*%
G04 #@! TD*
G04 #@! TA.AperFunction,SMDPad,CuDef*
%ADD18RoundRect,0.250000X-0.350000X-0.450000X0.350000X-0.450000X0.350000X0.450000X-0.350000X0.450000X0*%
G04 #@! TD*
G04 #@! TA.AperFunction,SMDPad,CuDef*
%ADD19RoundRect,0.250000X0.337500X0.475000X-0.337500X0.475000X-0.337500X-0.475000X0.337500X-0.475000X0*%
G04 #@! TD*
G04 #@! TA.AperFunction,SMDPad,CuDef*
%ADD20RoundRect,0.250000X0.412500X0.650000X-0.412500X0.650000X-0.412500X-0.650000X0.412500X-0.650000X0*%
G04 #@! TD*
G04 #@! TA.AperFunction,SMDPad,CuDef*
%ADD21RoundRect,0.237500X0.237500X-0.250000X0.237500X0.250000X-0.237500X0.250000X-0.237500X-0.250000X0*%
G04 #@! TD*
G04 #@! TA.AperFunction,ViaPad*
%ADD22C,0.800000*%
G04 #@! TD*
G04 #@! TA.AperFunction,Conductor*
%ADD23C,1.000000*%
G04 #@! TD*
G04 #@! TA.AperFunction,Conductor*
%ADD24C,0.250000*%
G04 #@! TD*
G04 #@! TA.AperFunction,Conductor*
%ADD25C,0.500000*%
G04 #@! TD*
G04 APERTURE END LIST*
D10*
X142729000Y-78655000D03*
X157659000Y-78655000D03*
D11*
X157659000Y-108655000D03*
X160659000Y-108655000D03*
X160659000Y-106155000D03*
X157659000Y-106155000D03*
X157659000Y-103655000D03*
X160659000Y-103655000D03*
X157659000Y-101155000D03*
X160659000Y-101155000D03*
X157659000Y-98655000D03*
X160559000Y-98655000D03*
X157659000Y-96155000D03*
X160659000Y-96155000D03*
X157659000Y-93655000D03*
X160659000Y-93655000D03*
X160659000Y-91155000D03*
X157659000Y-91155000D03*
X157659000Y-88655000D03*
X160659000Y-88655000D03*
X160659000Y-86155000D03*
X157659000Y-86155000D03*
X143559000Y-111555000D03*
X146159000Y-111555000D03*
X146259000Y-114055000D03*
X160659000Y-83655000D03*
X157659000Y-83655000D03*
X143559000Y-114055000D03*
X160659000Y-81255000D03*
X157659000Y-81255000D03*
X142759000Y-81255000D03*
X139859000Y-81255000D03*
X139859000Y-83755000D03*
X142759000Y-83755000D03*
X139859000Y-86255000D03*
X142759000Y-86255000D03*
X142759000Y-88655000D03*
X139859000Y-88655000D03*
X142759000Y-91255000D03*
X139859000Y-91255000D03*
X142759000Y-93755000D03*
X139859000Y-93755000D03*
X142759000Y-96255000D03*
X139859000Y-96255000D03*
X142759000Y-98755000D03*
X139859000Y-98755000D03*
X139859000Y-101155000D03*
X142759000Y-101155000D03*
X142759000Y-103655000D03*
X139859000Y-103655000D03*
X139859000Y-106255000D03*
X142759000Y-106255000D03*
X142759000Y-108655000D03*
X139849000Y-108655000D03*
X148759000Y-114055000D03*
X148759000Y-111555000D03*
X151359000Y-111555000D03*
X151359000Y-114055000D03*
X153959000Y-111555000D03*
X153959000Y-114055000D03*
X156559000Y-111555000D03*
X156559000Y-114055000D03*
D12*
X149690000Y-107130000D03*
X147890000Y-105230000D03*
X146090000Y-107130000D03*
X147719000Y-86274500D03*
X150219000Y-88774500D03*
X152719000Y-86274500D03*
D13*
X154300000Y-94450000D03*
X154300000Y-91150000D03*
D14*
X145500000Y-93700000D03*
X145500000Y-91700000D03*
D15*
X146250000Y-100285000D03*
D16*
X148790000Y-100285000D03*
D17*
X147500000Y-90600000D03*
X147500000Y-93700000D03*
D18*
X150500000Y-96900000D03*
X152500000Y-96900000D03*
D19*
X154738000Y-81670000D03*
X152663000Y-81670000D03*
D15*
X154025000Y-103075000D03*
D16*
X154025000Y-105615000D03*
X154025000Y-108155000D03*
D17*
X155300000Y-86250000D03*
X155300000Y-89350000D03*
D20*
X154763000Y-84050000D03*
X151638000Y-84050000D03*
D19*
X151375000Y-103100000D03*
X149300000Y-103100000D03*
D21*
X149400000Y-94212500D03*
X149400000Y-92387500D03*
D22*
X154300000Y-94500000D03*
X152600000Y-79000000D03*
X150240000Y-79000000D03*
X155300000Y-86300000D03*
X140000000Y-78500000D03*
X144400000Y-92500000D03*
X153500000Y-89800000D03*
X147900000Y-79000000D03*
X160500000Y-79000000D03*
X149400000Y-103100000D03*
X150254156Y-76000000D03*
X149400000Y-92400000D03*
X154800000Y-81700000D03*
X152400000Y-95400000D03*
X150470000Y-97030000D03*
X153600000Y-99000000D03*
D23*
X154300000Y-95300000D02*
X154300000Y-94500000D01*
X154300000Y-95300000D02*
X152700000Y-96900000D01*
X152700000Y-96900000D02*
X152500000Y-96900000D01*
D24*
X154300000Y-94450000D02*
X154300000Y-95100000D01*
X147500000Y-90600000D02*
X146600000Y-90600000D01*
X146600000Y-90600000D02*
X145500000Y-91700000D01*
D25*
X144945000Y-93755000D02*
X139859000Y-93755000D01*
D24*
X147205000Y-93755000D02*
X147210000Y-93760000D01*
D25*
X144945000Y-93755000D02*
X147205000Y-93755000D01*
D24*
X148887500Y-93700000D02*
X149400000Y-94212500D01*
X147500000Y-93700000D02*
X148887500Y-93700000D01*
X154738000Y-81670000D02*
X154738000Y-84025000D01*
X152400000Y-92055500D02*
X150219000Y-89874500D01*
X150219000Y-89874500D02*
X150219000Y-88774500D01*
X152400000Y-95400000D02*
X152400000Y-92055500D01*
D23*
X151200000Y-103275000D02*
X151375000Y-103100000D01*
X151200000Y-104687500D02*
X151200000Y-103275000D01*
X149690000Y-107130000D02*
X151200000Y-105620000D01*
X152127500Y-105615000D02*
X151200000Y-104687500D01*
X154025000Y-105615000D02*
X152127500Y-105615000D01*
X151200000Y-105620000D02*
X151200000Y-104687500D01*
D25*
X140293000Y-96255000D02*
X142759000Y-96255000D01*
D24*
X153600000Y-99000000D02*
X153600000Y-98500000D01*
X155300000Y-90150000D02*
X154300000Y-91150000D01*
X155400000Y-96700000D02*
X155400000Y-92250000D01*
X155400000Y-92250000D02*
X154300000Y-91150000D01*
X155300000Y-89350000D02*
X155300000Y-90150000D01*
X153600000Y-98500000D02*
X155400000Y-96700000D01*
G04 #@! TA.AperFunction,Conductor*
G36*
X156772987Y-80143571D02*
G01*
X156744885Y-80208769D01*
X156737173Y-80216744D01*
X156737310Y-80216875D01*
X156580133Y-80381351D01*
X156451931Y-80569289D01*
X156449758Y-80573971D01*
X156449756Y-80573974D01*
X156360239Y-80766824D01*
X156356145Y-80775643D01*
X156295348Y-80994869D01*
X156294799Y-81000006D01*
X156273333Y-81200863D01*
X156271172Y-81221082D01*
X156271469Y-81226234D01*
X156271469Y-81226238D01*
X156276696Y-81316888D01*
X156284268Y-81448206D01*
X156285405Y-81453252D01*
X156285406Y-81453258D01*
X156305686Y-81543244D01*
X156334283Y-81670141D01*
X156419875Y-81880927D01*
X156538744Y-82074904D01*
X156687698Y-82246861D01*
X156691673Y-82250161D01*
X156691677Y-82250165D01*
X156838739Y-82372258D01*
X156878374Y-82431161D01*
X156879357Y-82477747D01*
X156883904Y-82478066D01*
X156881524Y-82512031D01*
X156889111Y-82525901D01*
X157646188Y-83282978D01*
X157660132Y-83290592D01*
X157661965Y-83290461D01*
X157668580Y-83286210D01*
X158430190Y-82524600D01*
X158437804Y-82510656D01*
X158435379Y-82476745D01*
X158435383Y-82476745D01*
X158434344Y-82473846D01*
X158450331Y-82404672D01*
X158486961Y-82363902D01*
X158550847Y-82318333D01*
X158550849Y-82318331D01*
X158555051Y-82315334D01*
X158716199Y-82154747D01*
X158770764Y-82078812D01*
X158845938Y-81974198D01*
X158845942Y-81974192D01*
X158848956Y-81969997D01*
X158949755Y-81766046D01*
X159015890Y-81548370D01*
X159029758Y-81443037D01*
X159032560Y-81421751D01*
X159061283Y-81356824D01*
X159120548Y-81317733D01*
X159191540Y-81316888D01*
X159251718Y-81354559D01*
X159281977Y-81418784D01*
X159283273Y-81430944D01*
X159284268Y-81448206D01*
X159285405Y-81453252D01*
X159285406Y-81453258D01*
X159305686Y-81543244D01*
X159334283Y-81670141D01*
X159419875Y-81880927D01*
X159538744Y-82074904D01*
X159687698Y-82246861D01*
X159691673Y-82250161D01*
X159691677Y-82250165D01*
X159838739Y-82372258D01*
X159878374Y-82431161D01*
X159879357Y-82477747D01*
X159883904Y-82478066D01*
X159881524Y-82512031D01*
X159889111Y-82525901D01*
X160646188Y-83282978D01*
X160660132Y-83290592D01*
X160661965Y-83290461D01*
X160668580Y-83286210D01*
X161430190Y-82524600D01*
X161437804Y-82510656D01*
X161435379Y-82476745D01*
X161435383Y-82476745D01*
X161434344Y-82473846D01*
X161450331Y-82404672D01*
X161486961Y-82363902D01*
X161550847Y-82318333D01*
X161550849Y-82318331D01*
X161555051Y-82315334D01*
X161558714Y-82311684D01*
X161577061Y-82293402D01*
X161639433Y-82259486D01*
X161710239Y-82264675D01*
X161767000Y-82307321D01*
X161791695Y-82373885D01*
X161792000Y-82382653D01*
X161792000Y-82829020D01*
X161771998Y-82897141D01*
X161755095Y-82918115D01*
X161031022Y-83642188D01*
X161023408Y-83656132D01*
X161023539Y-83657965D01*
X161027790Y-83664580D01*
X161755095Y-84391885D01*
X161789121Y-84454197D01*
X161792000Y-84480980D01*
X161792000Y-85026708D01*
X161771998Y-85094829D01*
X161718342Y-85141322D01*
X161648068Y-85151426D01*
X161587909Y-85125590D01*
X161430655Y-85001400D01*
X161389591Y-84943484D01*
X161386359Y-84872561D01*
X161415907Y-84821625D01*
X161414983Y-84820899D01*
X161420134Y-84814339D01*
X161421984Y-84811149D01*
X161423839Y-84809619D01*
X161434572Y-84795948D01*
X161427585Y-84782795D01*
X160671812Y-84027022D01*
X160657868Y-84019408D01*
X160656035Y-84019539D01*
X160649420Y-84023790D01*
X159887460Y-84785750D01*
X159880700Y-84798130D01*
X159900007Y-84823921D01*
X159898658Y-84824931D01*
X159924019Y-84855072D01*
X159933101Y-84925485D01*
X159902673Y-84989630D01*
X159884310Y-85006504D01*
X159741445Y-85113770D01*
X159737310Y-85116875D01*
X159681203Y-85175587D01*
X159594980Y-85265815D01*
X159580133Y-85281351D01*
X159568450Y-85298478D01*
X159459856Y-85457672D01*
X159451931Y-85469289D01*
X159449758Y-85473971D01*
X159449756Y-85473974D01*
X159369439Y-85647004D01*
X159356145Y-85675643D01*
X159295348Y-85894869D01*
X159294799Y-85900006D01*
X159284676Y-85994726D01*
X159257548Y-86060335D01*
X159199255Y-86100863D01*
X159128305Y-86103442D01*
X159067224Y-86067253D01*
X159035405Y-86003786D01*
X159033813Y-85991660D01*
X159028601Y-85928264D01*
X158973178Y-85707617D01*
X158911176Y-85565023D01*
X158884522Y-85503722D01*
X158884520Y-85503719D01*
X158882462Y-85498985D01*
X158790455Y-85356763D01*
X158761698Y-85312311D01*
X158761696Y-85312308D01*
X158758890Y-85307971D01*
X158605779Y-85139704D01*
X158430653Y-85001399D01*
X158389591Y-84943483D01*
X158386359Y-84872560D01*
X158415907Y-84821625D01*
X158414983Y-84820899D01*
X158420134Y-84814339D01*
X158421984Y-84811149D01*
X158423839Y-84809619D01*
X158434572Y-84795948D01*
X158427585Y-84782795D01*
X157671812Y-84027022D01*
X157657868Y-84019408D01*
X157656035Y-84019539D01*
X157649420Y-84023790D01*
X156887460Y-84785750D01*
X156880700Y-84798130D01*
X156900007Y-84823921D01*
X156898658Y-84824931D01*
X156924019Y-84855072D01*
X156933101Y-84925485D01*
X156902673Y-84989630D01*
X156884310Y-85006504D01*
X156741445Y-85113770D01*
X156737310Y-85116875D01*
X156733738Y-85120613D01*
X156594979Y-85265815D01*
X156533454Y-85301245D01*
X156462542Y-85297788D01*
X156414866Y-85267936D01*
X156403171Y-85256261D01*
X156391760Y-85247249D01*
X156253757Y-85162184D01*
X156240576Y-85156037D01*
X156086290Y-85104862D01*
X156072914Y-85101995D01*
X156005113Y-85095048D01*
X155939385Y-85068207D01*
X155898603Y-85010092D01*
X155895715Y-84939154D01*
X155898357Y-84930053D01*
X155923297Y-84854861D01*
X155934000Y-84750400D01*
X155934000Y-83626250D01*
X156271971Y-83626250D01*
X156284467Y-83842967D01*
X156285903Y-83853188D01*
X156333627Y-84064948D01*
X156336706Y-84074777D01*
X156418379Y-84275914D01*
X156423022Y-84285105D01*
X156507279Y-84422601D01*
X156517735Y-84432061D01*
X156526513Y-84428277D01*
X157286978Y-83667812D01*
X157293356Y-83656132D01*
X158023408Y-83656132D01*
X158023539Y-83657965D01*
X158027790Y-83664580D01*
X158787388Y-84424178D01*
X158799398Y-84430736D01*
X158811138Y-84421768D01*
X158845507Y-84373940D01*
X158850816Y-84365103D01*
X158946994Y-84170503D01*
X158950792Y-84160910D01*
X159013897Y-83953208D01*
X159016074Y-83943138D01*
X159032754Y-83816437D01*
X159061476Y-83751510D01*
X159120741Y-83712418D01*
X159191733Y-83711573D01*
X159251912Y-83749243D01*
X159282171Y-83813468D01*
X159283467Y-83825628D01*
X159284467Y-83842968D01*
X159285903Y-83853188D01*
X159333627Y-84064948D01*
X159336706Y-84074777D01*
X159418379Y-84275914D01*
X159423022Y-84285105D01*
X159507279Y-84422601D01*
X159517735Y-84432061D01*
X159526513Y-84428277D01*
X160286978Y-83667812D01*
X160294592Y-83653868D01*
X160294461Y-83652035D01*
X160290210Y-83645420D01*
X159530858Y-82886068D01*
X159519322Y-82879768D01*
X159507039Y-82889391D01*
X159455279Y-82965268D01*
X159450191Y-82974224D01*
X159358795Y-83171121D01*
X159355232Y-83180808D01*
X159297223Y-83389979D01*
X159295292Y-83400100D01*
X159284611Y-83500041D01*
X159257483Y-83565650D01*
X159199190Y-83606178D01*
X159128240Y-83608757D01*
X159067159Y-83572568D01*
X159035340Y-83509101D01*
X159033748Y-83496975D01*
X159028530Y-83433506D01*
X159026845Y-83423327D01*
X158973962Y-83212791D01*
X158970642Y-83203040D01*
X158884080Y-83003959D01*
X158879213Y-82994884D01*
X158810144Y-82888118D01*
X158799458Y-82878915D01*
X158789891Y-82883319D01*
X158031022Y-83642188D01*
X158023408Y-83656132D01*
X157293356Y-83656132D01*
X157294592Y-83653868D01*
X157294461Y-83652035D01*
X157290210Y-83645420D01*
X156530858Y-82886068D01*
X156519322Y-82879768D01*
X156507039Y-82889391D01*
X156455279Y-82965268D01*
X156450191Y-82974224D01*
X156358795Y-83171121D01*
X156355232Y-83180808D01*
X156297223Y-83389979D01*
X156295292Y-83400100D01*
X156272222Y-83615962D01*
X156271971Y-83626250D01*
X155934000Y-83626250D01*
X155934000Y-83349600D01*
X155929644Y-83307617D01*
X155923738Y-83250692D01*
X155923737Y-83250688D01*
X155923026Y-83243834D01*
X155867050Y-83076054D01*
X155773978Y-82925652D01*
X155659804Y-82811677D01*
X155625725Y-82749395D01*
X155630728Y-82678575D01*
X155659647Y-82633488D01*
X155669633Y-82623484D01*
X155674805Y-82618303D01*
X155695590Y-82584584D01*
X155763775Y-82473968D01*
X155763776Y-82473966D01*
X155767615Y-82467738D01*
X155795836Y-82382653D01*
X155821132Y-82306389D01*
X155821132Y-82306387D01*
X155823297Y-82299861D01*
X155834000Y-82195400D01*
X155834000Y-81144600D01*
X155833663Y-81141350D01*
X155823738Y-81045692D01*
X155823737Y-81045688D01*
X155823026Y-81038834D01*
X155767050Y-80871054D01*
X155673978Y-80720652D01*
X155548803Y-80595695D01*
X155499044Y-80565023D01*
X155404468Y-80506725D01*
X155404466Y-80506724D01*
X155398238Y-80502885D01*
X155318495Y-80476436D01*
X155236889Y-80449368D01*
X155236887Y-80449368D01*
X155230361Y-80447203D01*
X155223525Y-80446503D01*
X155223522Y-80446502D01*
X155180469Y-80442091D01*
X155125900Y-80436500D01*
X154350100Y-80436500D01*
X154346854Y-80436837D01*
X154346850Y-80436837D01*
X154251192Y-80446762D01*
X154251188Y-80446763D01*
X154244334Y-80447474D01*
X154237798Y-80449655D01*
X154237796Y-80449655D01*
X154125576Y-80487095D01*
X154076554Y-80503450D01*
X153926152Y-80596522D01*
X153801195Y-80721697D01*
X153798398Y-80726235D01*
X153741147Y-80766824D01*
X153670224Y-80770054D01*
X153608813Y-80734428D01*
X153601438Y-80725932D01*
X153593402Y-80715793D01*
X153478671Y-80601261D01*
X153467260Y-80592249D01*
X153329257Y-80507184D01*
X153316076Y-80501037D01*
X153161790Y-80449862D01*
X153148414Y-80446995D01*
X153054062Y-80437328D01*
X153047645Y-80437000D01*
X152935115Y-80437000D01*
X152919876Y-80441475D01*
X152918671Y-80442865D01*
X152917000Y-80450548D01*
X152917000Y-81798000D01*
X152896998Y-81866121D01*
X152843342Y-81912614D01*
X152791000Y-81924000D01*
X151585616Y-81924000D01*
X151570377Y-81928475D01*
X151569172Y-81929865D01*
X151567501Y-81937548D01*
X151567501Y-82192095D01*
X151567838Y-82198614D01*
X151577757Y-82294206D01*
X151580649Y-82307600D01*
X151632089Y-82461787D01*
X151632445Y-82462547D01*
X151632533Y-82463116D01*
X151634406Y-82468732D01*
X151633445Y-82469053D01*
X151643231Y-82532719D01*
X151614367Y-82597583D01*
X151555016Y-82636546D01*
X151518345Y-82642000D01*
X151178405Y-82642001D01*
X151171886Y-82642338D01*
X151076294Y-82652257D01*
X151062900Y-82655149D01*
X150908716Y-82706588D01*
X150895538Y-82712761D01*
X150757693Y-82798063D01*
X150746292Y-82807099D01*
X150631761Y-82921829D01*
X150622749Y-82933240D01*
X150537684Y-83071243D01*
X150531537Y-83084424D01*
X150480362Y-83238710D01*
X150477495Y-83252086D01*
X150467828Y-83346438D01*
X150467500Y-83352855D01*
X150467500Y-83777885D01*
X150471975Y-83793124D01*
X150473365Y-83794329D01*
X150481048Y-83796000D01*
X152790384Y-83796000D01*
X152805623Y-83791525D01*
X152806828Y-83790135D01*
X152808499Y-83782452D01*
X152808499Y-83352905D01*
X152808162Y-83346386D01*
X152798243Y-83250794D01*
X152795351Y-83237400D01*
X152743908Y-83083204D01*
X152743553Y-83082446D01*
X152743466Y-83081879D01*
X152741594Y-83076268D01*
X152742554Y-83075948D01*
X152732770Y-83012273D01*
X152761638Y-82947411D01*
X152820990Y-82908452D01*
X152857655Y-82902999D01*
X153047595Y-82902999D01*
X153054114Y-82902662D01*
X153149706Y-82892743D01*
X153163100Y-82889851D01*
X153317284Y-82838412D01*
X153330462Y-82832239D01*
X153468307Y-82746937D01*
X153479708Y-82737901D01*
X153594238Y-82623172D01*
X153601294Y-82614238D01*
X153659212Y-82573177D01*
X153730135Y-82569947D01*
X153791546Y-82605574D01*
X153798346Y-82613407D01*
X153802022Y-82619348D01*
X153807204Y-82624521D01*
X153841065Y-82658323D01*
X153875144Y-82720605D01*
X153870141Y-82791426D01*
X153841221Y-82836513D01*
X153775188Y-82902662D01*
X153751195Y-82926697D01*
X153747355Y-82932927D01*
X153747354Y-82932928D01*
X153663300Y-83069289D01*
X153658385Y-83077262D01*
X153652619Y-83094647D01*
X153616667Y-83203040D01*
X153602703Y-83245139D01*
X153602003Y-83251975D01*
X153602002Y-83251978D01*
X153599066Y-83280632D01*
X153592000Y-83349600D01*
X153592000Y-84750400D01*
X153592337Y-84753646D01*
X153592337Y-84753650D01*
X153602252Y-84849206D01*
X153602974Y-84856166D01*
X153605155Y-84862702D01*
X153605155Y-84862704D01*
X153616728Y-84897391D01*
X153658950Y-85023946D01*
X153752022Y-85174348D01*
X153754644Y-85176965D01*
X153780722Y-85241398D01*
X153776891Y-85261687D01*
X153786664Y-85258985D01*
X153854458Y-85280066D01*
X153866206Y-85289679D01*
X153866271Y-85289596D01*
X153872017Y-85294134D01*
X153877197Y-85299305D01*
X153883427Y-85303145D01*
X153883428Y-85303146D01*
X153948776Y-85343427D01*
X153996269Y-85396199D01*
X154007693Y-85466271D01*
X153989921Y-85516801D01*
X153987185Y-85521240D01*
X153977944Y-85541057D01*
X153976577Y-85540419D01*
X153940884Y-85591934D01*
X153875318Y-85619167D01*
X153805437Y-85606629D01*
X153758516Y-85566175D01*
X153686212Y-85462913D01*
X153686668Y-85462593D01*
X153659678Y-85400919D01*
X153663613Y-85376328D01*
X153649821Y-85379729D01*
X153582641Y-85356763D01*
X153566244Y-85342945D01*
X153530587Y-85307288D01*
X153526079Y-85304131D01*
X153526076Y-85304129D01*
X153354812Y-85184209D01*
X153354810Y-85184208D01*
X153350303Y-85181052D01*
X153345321Y-85178729D01*
X153345316Y-85178726D01*
X153155818Y-85090362D01*
X153155817Y-85090361D01*
X153150836Y-85088039D01*
X153145528Y-85086617D01*
X153145526Y-85086616D01*
X152943564Y-85032501D01*
X152943563Y-85032501D01*
X152938249Y-85031077D01*
X152932773Y-85030598D01*
X152932768Y-85030597D01*
X152915381Y-85029076D01*
X152903726Y-85028057D01*
X152837608Y-85002194D01*
X152795968Y-84944691D01*
X152792027Y-84873804D01*
X152795116Y-84862864D01*
X152795637Y-84861294D01*
X152798505Y-84847914D01*
X152808172Y-84753562D01*
X152808500Y-84747146D01*
X152808500Y-84322115D01*
X152804025Y-84306876D01*
X152802635Y-84305671D01*
X152794952Y-84304000D01*
X150485616Y-84304000D01*
X150470377Y-84308475D01*
X150469172Y-84309865D01*
X150467501Y-84317548D01*
X150467501Y-84747095D01*
X150467838Y-84753614D01*
X150477757Y-84849206D01*
X150480649Y-84862600D01*
X150532088Y-85016784D01*
X150538261Y-85029962D01*
X150623563Y-85167807D01*
X150632599Y-85179208D01*
X150747329Y-85293739D01*
X150758740Y-85302751D01*
X150896743Y-85387816D01*
X150909924Y-85393963D01*
X151064210Y-85445138D01*
X151077586Y-85448005D01*
X151171938Y-85457672D01*
X151178354Y-85458000D01*
X151514792Y-85457999D01*
X151582912Y-85478001D01*
X151629405Y-85531656D01*
X151639510Y-85601930D01*
X151625271Y-85643067D01*
X151625552Y-85643198D01*
X151623230Y-85648178D01*
X151623228Y-85648181D01*
X151546544Y-85812631D01*
X151532539Y-85842664D01*
X151531117Y-85847972D01*
X151531116Y-85847974D01*
X151484153Y-86023245D01*
X151475577Y-86055251D01*
X151456395Y-86274500D01*
X151475577Y-86493749D01*
X151477001Y-86499063D01*
X151477001Y-86499064D01*
X151522841Y-86670141D01*
X151532539Y-86706336D01*
X151534861Y-86711316D01*
X151534862Y-86711318D01*
X151616005Y-86885328D01*
X151625552Y-86905802D01*
X151751788Y-87086087D01*
X151907413Y-87241712D01*
X151911921Y-87244869D01*
X151911924Y-87244871D01*
X152082080Y-87364015D01*
X152087697Y-87367948D01*
X152092679Y-87370271D01*
X152092684Y-87370274D01*
X152281170Y-87458166D01*
X152287164Y-87460961D01*
X152292472Y-87462383D01*
X152292474Y-87462384D01*
X152494436Y-87516499D01*
X152494437Y-87516499D01*
X152499751Y-87517923D01*
X152719000Y-87537105D01*
X152938249Y-87517923D01*
X152943563Y-87516499D01*
X152943564Y-87516499D01*
X153145526Y-87462384D01*
X153145528Y-87462383D01*
X153150836Y-87460961D01*
X153156830Y-87458166D01*
X153345316Y-87370274D01*
X153345321Y-87370271D01*
X153350303Y-87367948D01*
X153355920Y-87364015D01*
X153526076Y-87244871D01*
X153526079Y-87244869D01*
X153530587Y-87241712D01*
X153686212Y-87086087D01*
X153771750Y-86963925D01*
X153827207Y-86919596D01*
X153897826Y-86912287D01*
X153961186Y-86944317D01*
X153982954Y-86974321D01*
X153983906Y-86973732D01*
X154073063Y-87117807D01*
X154082099Y-87129208D01*
X154196829Y-87243739D01*
X154208240Y-87252751D01*
X154346243Y-87337816D01*
X154359424Y-87343963D01*
X154513710Y-87395138D01*
X154527086Y-87398005D01*
X154621438Y-87407672D01*
X154627854Y-87408000D01*
X155027885Y-87408000D01*
X155043124Y-87403525D01*
X155044329Y-87402135D01*
X155046000Y-87394452D01*
X155046000Y-86122000D01*
X155066002Y-86053879D01*
X155119658Y-86007386D01*
X155172000Y-85996000D01*
X155428000Y-85996000D01*
X155496121Y-86016002D01*
X155542614Y-86069658D01*
X155554000Y-86122000D01*
X155554000Y-87389884D01*
X155558475Y-87405123D01*
X155559865Y-87406328D01*
X155567548Y-87407999D01*
X155972095Y-87407999D01*
X155978614Y-87407662D01*
X156074206Y-87397743D01*
X156087600Y-87394851D01*
X156241784Y-87343412D01*
X156254962Y-87337239D01*
X156392807Y-87251937D01*
X156404208Y-87242901D01*
X156504958Y-87141976D01*
X156567241Y-87107897D01*
X156638061Y-87112900D01*
X156682289Y-87140971D01*
X156684309Y-87142949D01*
X156687698Y-87146861D01*
X156691673Y-87150161D01*
X156691676Y-87150164D01*
X156812127Y-87250164D01*
X156862737Y-87292181D01*
X156867192Y-87294784D01*
X156867203Y-87294792D01*
X156871651Y-87297391D01*
X156920374Y-87349029D01*
X156933445Y-87418812D01*
X156906713Y-87484584D01*
X156883735Y-87506936D01*
X156820462Y-87554443D01*
X156766673Y-87594829D01*
X156737310Y-87616875D01*
X156580133Y-87781351D01*
X156451931Y-87969289D01*
X156449758Y-87973971D01*
X156449756Y-87973974D01*
X156435948Y-88003722D01*
X156356145Y-88175643D01*
X156353978Y-88174637D01*
X156317602Y-88223665D01*
X156251189Y-88248759D01*
X156201996Y-88242713D01*
X156086389Y-88204368D01*
X156086387Y-88204368D01*
X156079861Y-88202203D01*
X156073025Y-88201503D01*
X156073022Y-88201502D01*
X156029969Y-88197091D01*
X155975400Y-88191500D01*
X154624600Y-88191500D01*
X154621354Y-88191837D01*
X154621350Y-88191837D01*
X154525692Y-88201762D01*
X154525688Y-88201763D01*
X154518834Y-88202474D01*
X154512298Y-88204655D01*
X154512296Y-88204655D01*
X154455317Y-88223665D01*
X154351054Y-88258450D01*
X154200652Y-88351522D01*
X154075695Y-88476697D01*
X154071855Y-88482927D01*
X154071854Y-88482928D01*
X153999158Y-88600863D01*
X153982885Y-88627262D01*
X153980581Y-88634209D01*
X153932233Y-88779975D01*
X153927203Y-88795139D01*
X153916500Y-88899600D01*
X153916500Y-89800400D01*
X153916837Y-89803646D01*
X153916837Y-89803650D01*
X153926480Y-89896583D01*
X153927474Y-89906166D01*
X153929655Y-89912702D01*
X153929655Y-89912704D01*
X153967328Y-90025624D01*
X153969912Y-90096574D01*
X153933728Y-90157658D01*
X153870264Y-90189482D01*
X153847804Y-90191500D01*
X153651866Y-90191500D01*
X153589684Y-90198255D01*
X153453295Y-90249385D01*
X153336739Y-90336739D01*
X153249385Y-90453295D01*
X153198255Y-90589684D01*
X153191500Y-90651866D01*
X153191500Y-91648134D01*
X153191869Y-91651531D01*
X153194305Y-91673955D01*
X153181777Y-91743838D01*
X153133456Y-91795853D01*
X153064684Y-91813488D01*
X152997296Y-91791142D01*
X152960544Y-91750387D01*
X152959552Y-91747883D01*
X152954894Y-91741472D01*
X152954892Y-91741468D01*
X152933564Y-91712113D01*
X152927048Y-91702193D01*
X152908580Y-91670965D01*
X152908578Y-91670962D01*
X152904542Y-91664138D01*
X152890221Y-91649817D01*
X152877380Y-91634783D01*
X152870131Y-91624806D01*
X152865472Y-91618393D01*
X152831395Y-91590202D01*
X152822616Y-91582212D01*
X151095447Y-89855042D01*
X151061421Y-89792730D01*
X151066486Y-89721914D01*
X151095447Y-89676852D01*
X151186212Y-89586087D01*
X151312448Y-89405802D01*
X151327186Y-89374198D01*
X151403138Y-89211318D01*
X151403139Y-89211316D01*
X151405461Y-89206336D01*
X151440670Y-89074935D01*
X151460999Y-88999064D01*
X151460999Y-88999063D01*
X151462423Y-88993749D01*
X151481605Y-88774500D01*
X151462423Y-88555251D01*
X151428397Y-88428264D01*
X151406884Y-88347974D01*
X151406883Y-88347972D01*
X151405461Y-88342664D01*
X151370039Y-88266702D01*
X151314771Y-88148179D01*
X151314769Y-88148176D01*
X151312448Y-88143198D01*
X151186212Y-87962913D01*
X151030587Y-87807288D01*
X151026079Y-87804131D01*
X151026076Y-87804129D01*
X150854812Y-87684209D01*
X150854809Y-87684207D01*
X150850303Y-87681052D01*
X150845321Y-87678729D01*
X150845316Y-87678726D01*
X150655818Y-87590362D01*
X150655817Y-87590361D01*
X150650836Y-87588039D01*
X150645528Y-87586617D01*
X150645526Y-87586616D01*
X150443564Y-87532501D01*
X150443563Y-87532501D01*
X150438249Y-87531077D01*
X150219000Y-87511895D01*
X149999751Y-87531077D01*
X149994437Y-87532501D01*
X149994436Y-87532501D01*
X149792474Y-87586616D01*
X149792472Y-87586617D01*
X149787164Y-87588039D01*
X149782184Y-87590361D01*
X149782182Y-87590362D01*
X149592679Y-87678729D01*
X149592676Y-87678731D01*
X149587698Y-87681052D01*
X149407413Y-87807288D01*
X149251788Y-87962913D01*
X149125552Y-88143198D01*
X149123231Y-88148176D01*
X149123229Y-88148179D01*
X149067961Y-88266702D01*
X149032539Y-88342664D01*
X149031117Y-88347972D01*
X149031116Y-88347974D01*
X149009603Y-88428264D01*
X148975577Y-88555251D01*
X148956395Y-88774500D01*
X148975577Y-88993749D01*
X148977001Y-88999063D01*
X148977001Y-88999064D01*
X148997331Y-89074935D01*
X149032539Y-89206336D01*
X149034861Y-89211316D01*
X149034862Y-89211318D01*
X149110815Y-89374198D01*
X149125552Y-89405802D01*
X149251788Y-89586087D01*
X149407413Y-89741712D01*
X149533118Y-89829731D01*
X149577445Y-89885187D01*
X149585844Y-89917087D01*
X149585998Y-89918301D01*
X149586938Y-89930193D01*
X149588327Y-89974389D01*
X149593978Y-89993839D01*
X149597987Y-90013200D01*
X149600526Y-90033297D01*
X149603445Y-90040668D01*
X149603445Y-90040670D01*
X149616804Y-90074412D01*
X149620649Y-90085642D01*
X149632982Y-90128093D01*
X149637015Y-90134912D01*
X149637017Y-90134917D01*
X149643293Y-90145528D01*
X149651988Y-90163276D01*
X149659448Y-90182117D01*
X149664110Y-90188533D01*
X149664110Y-90188534D01*
X149685436Y-90217887D01*
X149691952Y-90227807D01*
X149707899Y-90254771D01*
X149714458Y-90265862D01*
X149728779Y-90280183D01*
X149741619Y-90295216D01*
X149753528Y-90311607D01*
X149759634Y-90316658D01*
X149787605Y-90339798D01*
X149796384Y-90347788D01*
X151729595Y-92281000D01*
X151763621Y-92343312D01*
X151766500Y-92370095D01*
X151766500Y-94697476D01*
X151746498Y-94765597D01*
X151734142Y-94781779D01*
X151660960Y-94863056D01*
X151611840Y-94948134D01*
X151577890Y-95006938D01*
X151565473Y-95028444D01*
X151506458Y-95210072D01*
X151505768Y-95216633D01*
X151505768Y-95216635D01*
X151495712Y-95312311D01*
X151486496Y-95400000D01*
X151506458Y-95589928D01*
X151508498Y-95596206D01*
X151557918Y-95748306D01*
X151559945Y-95819274D01*
X151523283Y-95880071D01*
X151459571Y-95911397D01*
X151389037Y-95903304D01*
X151349069Y-95876416D01*
X151323303Y-95850695D01*
X151245730Y-95802878D01*
X151178968Y-95761725D01*
X151178966Y-95761724D01*
X151172738Y-95757885D01*
X151012254Y-95704655D01*
X151011389Y-95704368D01*
X151011387Y-95704368D01*
X151004861Y-95702203D01*
X150998025Y-95701503D01*
X150998022Y-95701502D01*
X150954969Y-95697091D01*
X150900400Y-95691500D01*
X150099600Y-95691500D01*
X150096354Y-95691837D01*
X150096350Y-95691837D01*
X150000692Y-95701762D01*
X150000688Y-95701763D01*
X149993834Y-95702474D01*
X149987298Y-95704655D01*
X149987296Y-95704655D01*
X149856459Y-95748306D01*
X149826054Y-95758450D01*
X149675652Y-95851522D01*
X149550695Y-95976697D01*
X149546855Y-95982927D01*
X149546854Y-95982928D01*
X149474158Y-96100863D01*
X149457885Y-96127262D01*
X149402203Y-96295139D01*
X149391500Y-96399600D01*
X149391500Y-97400400D01*
X149391837Y-97403646D01*
X149391837Y-97403650D01*
X149401700Y-97498704D01*
X149402474Y-97506166D01*
X149404655Y-97512702D01*
X149404655Y-97512704D01*
X149440657Y-97620613D01*
X149458450Y-97673946D01*
X149551522Y-97824348D01*
X149676697Y-97949305D01*
X149682927Y-97953145D01*
X149682928Y-97953146D01*
X149820090Y-98037694D01*
X149827262Y-98042115D01*
X149878407Y-98059079D01*
X149988611Y-98095632D01*
X149988613Y-98095632D01*
X149995139Y-98097797D01*
X150001975Y-98098497D01*
X150001978Y-98098498D01*
X150045031Y-98102909D01*
X150099600Y-98108500D01*
X150900400Y-98108500D01*
X150903646Y-98108163D01*
X150903650Y-98108163D01*
X150999308Y-98098238D01*
X150999312Y-98098237D01*
X151006166Y-98097526D01*
X151012702Y-98095345D01*
X151012704Y-98095345D01*
X151155788Y-98047608D01*
X151173946Y-98041550D01*
X151324348Y-97948478D01*
X151410784Y-97861891D01*
X151473066Y-97827812D01*
X151543886Y-97832815D01*
X151588976Y-97861736D01*
X151676697Y-97949305D01*
X151682927Y-97953145D01*
X151682928Y-97953146D01*
X151820090Y-98037694D01*
X151827262Y-98042115D01*
X151878407Y-98059079D01*
X151988611Y-98095632D01*
X151988613Y-98095632D01*
X151995139Y-98097797D01*
X152001975Y-98098497D01*
X152001978Y-98098498D01*
X152045031Y-98102909D01*
X152099600Y-98108500D01*
X152884034Y-98108500D01*
X152952155Y-98128502D01*
X152998648Y-98182158D01*
X153008752Y-98252432D01*
X153006079Y-98265821D01*
X153001265Y-98284571D01*
X152994862Y-98303269D01*
X152993829Y-98305656D01*
X152971829Y-98339923D01*
X152860960Y-98463056D01*
X152765473Y-98628444D01*
X152706458Y-98810072D01*
X152705768Y-98816633D01*
X152705768Y-98816635D01*
X152691940Y-98948206D01*
X152686496Y-99000000D01*
X152687186Y-99006565D01*
X152703849Y-99165100D01*
X152706458Y-99189928D01*
X152765473Y-99371556D01*
X152860960Y-99536944D01*
X152865378Y-99541851D01*
X152865379Y-99541852D01*
X152962904Y-99650164D01*
X152988747Y-99678866D01*
X153076949Y-99742949D01*
X153110799Y-99767542D01*
X153143248Y-99791118D01*
X153149276Y-99793802D01*
X153149278Y-99793803D01*
X153306978Y-99864015D01*
X153317712Y-99868794D01*
X153411112Y-99888647D01*
X153498056Y-99907128D01*
X153498061Y-99907128D01*
X153504513Y-99908500D01*
X153695487Y-99908500D01*
X153701939Y-99907128D01*
X153701944Y-99907128D01*
X153788888Y-99888647D01*
X153882288Y-99868794D01*
X153893022Y-99864015D01*
X154050722Y-99793803D01*
X154050724Y-99793802D01*
X154056752Y-99791118D01*
X154089202Y-99767542D01*
X154123051Y-99742949D01*
X154211253Y-99678866D01*
X154237096Y-99650164D01*
X154334621Y-99541852D01*
X154334622Y-99541851D01*
X154339040Y-99536944D01*
X154434527Y-99371556D01*
X154493542Y-99189928D01*
X154496152Y-99165100D01*
X154512814Y-99006565D01*
X154513504Y-99000000D01*
X154508060Y-98948206D01*
X154494232Y-98816635D01*
X154494232Y-98816633D01*
X154493542Y-98810072D01*
X154443156Y-98655000D01*
X154441940Y-98651257D01*
X154439913Y-98580289D01*
X154472678Y-98523226D01*
X155792247Y-97203657D01*
X155800537Y-97196113D01*
X155807018Y-97192000D01*
X155853659Y-97142332D01*
X155856413Y-97139491D01*
X155876134Y-97119770D01*
X155878612Y-97116575D01*
X155886318Y-97107553D01*
X155911158Y-97081101D01*
X155916586Y-97075321D01*
X155926346Y-97057568D01*
X155937199Y-97041045D01*
X155944753Y-97031306D01*
X155949613Y-97025041D01*
X155967176Y-96984457D01*
X155972383Y-96973827D01*
X155993695Y-96935060D01*
X155995666Y-96927383D01*
X155995668Y-96927378D01*
X155998732Y-96915442D01*
X156005138Y-96896730D01*
X156010034Y-96885417D01*
X156013181Y-96878145D01*
X156020097Y-96834481D01*
X156022504Y-96822860D01*
X156031528Y-96787711D01*
X156031528Y-96787710D01*
X156033500Y-96780030D01*
X156033500Y-96759769D01*
X156035051Y-96740058D01*
X156036979Y-96727885D01*
X156038219Y-96720057D01*
X156034059Y-96676046D01*
X156033500Y-96664189D01*
X156033500Y-96362737D01*
X156053502Y-96294616D01*
X156107158Y-96248123D01*
X156177432Y-96238019D01*
X156242012Y-96267513D01*
X156280396Y-96327239D01*
X156284029Y-96344067D01*
X156284268Y-96348206D01*
X156334283Y-96570141D01*
X156419875Y-96780927D01*
X156538744Y-96974904D01*
X156687698Y-97146861D01*
X156862737Y-97292181D01*
X156867192Y-97294784D01*
X156867203Y-97294792D01*
X156871651Y-97297391D01*
X156920374Y-97349029D01*
X156933445Y-97418812D01*
X156906713Y-97484584D01*
X156883735Y-97506936D01*
X156876053Y-97512704D01*
X156750545Y-97606938D01*
X156737310Y-97616875D01*
X156580133Y-97781351D01*
X156451931Y-97969289D01*
X156449758Y-97973971D01*
X156449756Y-97973974D01*
X156367530Y-98151117D01*
X156356145Y-98175643D01*
X156295348Y-98394869D01*
X156294799Y-98400006D01*
X156275532Y-98580289D01*
X156271172Y-98621082D01*
X156271469Y-98626234D01*
X156271469Y-98626238D01*
X156276938Y-98721082D01*
X156284268Y-98848206D01*
X156285405Y-98853252D01*
X156285406Y-98853258D01*
X156304060Y-98936029D01*
X156334283Y-99070141D01*
X156419875Y-99280927D01*
X156538744Y-99474904D01*
X156687698Y-99646861D01*
X156862737Y-99792181D01*
X156867192Y-99794784D01*
X156867203Y-99794792D01*
X156871651Y-99797391D01*
X156920374Y-99849029D01*
X156933445Y-99918812D01*
X156906713Y-99984584D01*
X156883735Y-100006936D01*
X156820462Y-100054443D01*
X156766673Y-100094829D01*
X156737310Y-100116875D01*
X156580133Y-100281351D01*
X156451931Y-100469289D01*
X156449758Y-100473971D01*
X156449756Y-100473974D01*
X156401459Y-100578023D01*
X156356145Y-100675643D01*
X156295348Y-100894869D01*
X156294799Y-100900006D01*
X156273333Y-101100863D01*
X156271172Y-101121082D01*
X156271469Y-101126234D01*
X156271469Y-101126238D01*
X156278999Y-101256824D01*
X156284268Y-101348206D01*
X156285405Y-101353252D01*
X156285406Y-101353258D01*
X156295563Y-101398327D01*
X156334283Y-101570141D01*
X156419875Y-101780927D01*
X156538744Y-101974904D01*
X156542128Y-101978810D01*
X156542129Y-101978812D01*
X156576675Y-102018693D01*
X156687698Y-102146861D01*
X156862737Y-102292181D01*
X156867192Y-102294784D01*
X156867203Y-102294792D01*
X156871651Y-102297391D01*
X156920374Y-102349029D01*
X156933445Y-102418812D01*
X156906713Y-102484584D01*
X156883735Y-102506936D01*
X156836226Y-102542607D01*
X156766673Y-102594829D01*
X156737310Y-102616875D01*
X156580133Y-102781351D01*
X156451931Y-102969289D01*
X156449758Y-102973971D01*
X156449756Y-102973974D01*
X156359766Y-103167843D01*
X156356145Y-103175643D01*
X156342879Y-103223479D01*
X156305056Y-103359865D01*
X156295348Y-103394869D01*
X156294799Y-103400006D01*
X156273333Y-103600863D01*
X156271172Y-103621082D01*
X156271469Y-103626234D01*
X156271469Y-103626238D01*
X156278868Y-103754559D01*
X156284268Y-103848206D01*
X156285405Y-103853252D01*
X156285406Y-103853258D01*
X156308464Y-103955574D01*
X156334283Y-104070141D01*
X156419875Y-104280927D01*
X156538744Y-104474904D01*
X156687698Y-104646861D01*
X156862737Y-104792181D01*
X156867192Y-104794784D01*
X156867203Y-104794792D01*
X156871651Y-104797391D01*
X156920374Y-104849029D01*
X156933445Y-104918812D01*
X156906713Y-104984584D01*
X156883735Y-105006936D01*
X156850169Y-105032138D01*
X156757246Y-105101907D01*
X156737310Y-105116875D01*
X156580133Y-105281351D01*
X156451931Y-105469289D01*
X156449758Y-105473971D01*
X156449756Y-105473974D01*
X156365019Y-105656526D01*
X156356145Y-105675643D01*
X156319545Y-105807617D01*
X156297116Y-105888495D01*
X156295348Y-105894869D01*
X156294799Y-105900006D01*
X156272158Y-106111857D01*
X156271172Y-106121082D01*
X156271469Y-106126234D01*
X156271469Y-106126238D01*
X156276696Y-106216888D01*
X156284268Y-106348206D01*
X156285405Y-106353252D01*
X156285406Y-106353258D01*
X156305686Y-106443245D01*
X156334283Y-106570141D01*
X156419875Y-106780927D01*
X156538744Y-106974904D01*
X156542128Y-106978810D01*
X156542129Y-106978812D01*
X156564845Y-107005036D01*
X156687698Y-107146861D01*
X156862737Y-107292181D01*
X156867192Y-107294784D01*
X156867203Y-107294792D01*
X156871651Y-107297391D01*
X156920374Y-107349029D01*
X156933445Y-107418812D01*
X156906713Y-107484584D01*
X156883735Y-107506936D01*
X156817915Y-107556355D01*
X156766673Y-107594829D01*
X156737310Y-107616875D01*
X156733738Y-107620613D01*
X156647244Y-107711124D01*
X156580133Y-107781351D01*
X156451931Y-107969289D01*
X156449758Y-107973971D01*
X156449756Y-107973974D01*
X156359747Y-108167884D01*
X156356145Y-108175643D01*
X156326470Y-108282646D01*
X156300475Y-108376383D01*
X156295348Y-108394869D01*
X156294799Y-108400006D01*
X156273333Y-108600863D01*
X156271172Y-108621082D01*
X156271469Y-108626234D01*
X156271469Y-108626238D01*
X156273489Y-108661267D01*
X156284268Y-108848206D01*
X156285405Y-108853252D01*
X156285406Y-108853258D01*
X156304206Y-108936677D01*
X156334283Y-109070141D01*
X156419875Y-109280927D01*
X156538744Y-109474904D01*
X156687698Y-109646861D01*
X156862737Y-109792181D01*
X156867189Y-109794783D01*
X156867194Y-109794786D01*
X156961199Y-109849718D01*
X157059160Y-109906962D01*
X157271693Y-109988120D01*
X157276759Y-109989151D01*
X157276760Y-109989151D01*
X157331329Y-110000253D01*
X157494627Y-110033476D01*
X157622437Y-110038163D01*
X157716811Y-110041624D01*
X157716815Y-110041624D01*
X157721975Y-110041813D01*
X157727095Y-110041157D01*
X157727097Y-110041157D01*
X157942504Y-110013563D01*
X157942505Y-110013563D01*
X157947632Y-110012906D01*
X157952582Y-110011421D01*
X158160591Y-109949015D01*
X158160592Y-109949014D01*
X158165537Y-109947531D01*
X158369839Y-109847444D01*
X158374043Y-109844446D01*
X158374047Y-109844443D01*
X158550847Y-109718333D01*
X158550849Y-109718331D01*
X158555051Y-109715334D01*
X158716199Y-109554747D01*
X158763778Y-109488534D01*
X158845938Y-109374198D01*
X158845942Y-109374192D01*
X158848956Y-109369997D01*
X158949755Y-109166046D01*
X159015890Y-108948370D01*
X159017430Y-108936677D01*
X159032560Y-108821751D01*
X159061283Y-108756824D01*
X159120548Y-108717733D01*
X159191540Y-108716888D01*
X159251718Y-108754559D01*
X159281977Y-108818784D01*
X159283273Y-108830944D01*
X159284268Y-108848206D01*
X159285405Y-108853252D01*
X159285406Y-108853258D01*
X159304206Y-108936677D01*
X159334283Y-109070141D01*
X159419875Y-109280927D01*
X159538744Y-109474904D01*
X159687698Y-109646861D01*
X159862737Y-109792181D01*
X159867189Y-109794783D01*
X159867194Y-109794786D01*
X159961199Y-109849718D01*
X160059160Y-109906962D01*
X160271693Y-109988120D01*
X160276759Y-109989151D01*
X160276760Y-109989151D01*
X160331329Y-110000253D01*
X160494627Y-110033476D01*
X160622437Y-110038163D01*
X160716811Y-110041624D01*
X160716815Y-110041624D01*
X160721975Y-110041813D01*
X160727095Y-110041157D01*
X160727097Y-110041157D01*
X160942504Y-110013563D01*
X160942505Y-110013563D01*
X160947632Y-110012906D01*
X160952582Y-110011421D01*
X161160591Y-109949015D01*
X161160592Y-109949014D01*
X161165537Y-109947531D01*
X161369839Y-109847444D01*
X161374043Y-109844446D01*
X161374047Y-109844443D01*
X161550847Y-109718333D01*
X161550849Y-109718331D01*
X161555051Y-109715334D01*
X161558714Y-109711684D01*
X161577061Y-109693402D01*
X161639433Y-109659486D01*
X161710239Y-109664675D01*
X161767000Y-109707321D01*
X161791695Y-109773885D01*
X161792000Y-109782653D01*
X161792000Y-110674000D01*
X161771998Y-110742121D01*
X161718342Y-110788614D01*
X161666000Y-110800000D01*
X157800000Y-110800000D01*
X157800000Y-110798109D01*
X157753565Y-110798110D01*
X157693838Y-110759729D01*
X157683272Y-110745660D01*
X157658890Y-110707971D01*
X157505779Y-110539704D01*
X157327241Y-110398704D01*
X157289537Y-110377890D01*
X157274869Y-110369793D01*
X157128072Y-110288757D01*
X157123203Y-110287033D01*
X157123199Y-110287031D01*
X156918496Y-110214541D01*
X156918492Y-110214540D01*
X156913621Y-110212815D01*
X156908528Y-110211908D01*
X156908525Y-110211907D01*
X156694734Y-110173825D01*
X156694728Y-110173824D01*
X156689645Y-110172919D01*
X156616196Y-110172022D01*
X156467331Y-110170203D01*
X156467329Y-110170203D01*
X156462161Y-110170140D01*
X156237278Y-110204552D01*
X156021035Y-110275231D01*
X156016447Y-110277619D01*
X156016443Y-110277621D01*
X155989369Y-110291715D01*
X155819239Y-110380279D01*
X155815106Y-110383382D01*
X155815103Y-110383384D01*
X155758476Y-110425901D01*
X155637310Y-110516875D01*
X155480133Y-110681351D01*
X155477221Y-110685620D01*
X155477215Y-110685628D01*
X155361960Y-110854585D01*
X155307049Y-110899588D01*
X155236524Y-110907759D01*
X155172777Y-110876505D01*
X155152080Y-110852021D01*
X155061698Y-110712311D01*
X155061696Y-110712308D01*
X155058890Y-110707971D01*
X154905779Y-110539704D01*
X154727241Y-110398704D01*
X154689537Y-110377890D01*
X154674869Y-110369793D01*
X154528072Y-110288757D01*
X154523203Y-110287033D01*
X154523199Y-110287031D01*
X154318496Y-110214541D01*
X154318492Y-110214540D01*
X154313621Y-110212815D01*
X154308528Y-110211908D01*
X154308525Y-110211907D01*
X154094734Y-110173825D01*
X154094728Y-110173824D01*
X154089645Y-110172919D01*
X154016196Y-110172022D01*
X153867331Y-110170203D01*
X153867329Y-110170203D01*
X153862161Y-110170140D01*
X153637278Y-110204552D01*
X153421035Y-110275231D01*
X153416447Y-110277619D01*
X153416443Y-110277621D01*
X153389369Y-110291715D01*
X153219239Y-110380279D01*
X153215106Y-110383382D01*
X153215103Y-110383384D01*
X153158476Y-110425901D01*
X153037310Y-110516875D01*
X152880133Y-110681351D01*
X152877221Y-110685620D01*
X152877215Y-110685628D01*
X152761960Y-110854585D01*
X152707049Y-110899588D01*
X152636524Y-110907759D01*
X152572777Y-110876505D01*
X152552080Y-110852021D01*
X152461698Y-110712311D01*
X152461696Y-110712308D01*
X152458890Y-110707971D01*
X152305779Y-110539704D01*
X152127241Y-110398704D01*
X152089537Y-110377890D01*
X152074869Y-110369793D01*
X151928072Y-110288757D01*
X151923203Y-110287033D01*
X151923199Y-110287031D01*
X151718496Y-110214541D01*
X151718492Y-110214540D01*
X151713621Y-110212815D01*
X151708528Y-110211908D01*
X151708525Y-110211907D01*
X151494734Y-110173825D01*
X151494728Y-110173824D01*
X151489645Y-110172919D01*
X151416196Y-110172022D01*
X151267331Y-110170203D01*
X151267329Y-110170203D01*
X151262161Y-110170140D01*
X151037278Y-110204552D01*
X150821035Y-110275231D01*
X150816447Y-110277619D01*
X150816443Y-110277621D01*
X150789369Y-110291715D01*
X150619239Y-110380279D01*
X150615106Y-110383382D01*
X150615103Y-110383384D01*
X150558476Y-110425901D01*
X150437310Y-110516875D01*
X150280133Y-110681351D01*
X150277221Y-110685620D01*
X150277215Y-110685628D01*
X150161960Y-110854585D01*
X150107049Y-110899588D01*
X150036524Y-110907759D01*
X149972777Y-110876505D01*
X149952080Y-110852021D01*
X149861698Y-110712311D01*
X149861696Y-110712308D01*
X149858890Y-110707971D01*
X149705779Y-110539704D01*
X149527241Y-110398704D01*
X149489537Y-110377890D01*
X149474869Y-110369793D01*
X149328072Y-110288757D01*
X149323203Y-110287033D01*
X149323199Y-110287031D01*
X149118496Y-110214541D01*
X149118492Y-110214540D01*
X149113621Y-110212815D01*
X149108528Y-110211908D01*
X149108525Y-110211907D01*
X148894734Y-110173825D01*
X148894728Y-110173824D01*
X148889645Y-110172919D01*
X148816196Y-110172022D01*
X148667331Y-110170203D01*
X148667329Y-110170203D01*
X148662161Y-110170140D01*
X148437278Y-110204552D01*
X148221035Y-110275231D01*
X148216447Y-110277619D01*
X148216443Y-110277621D01*
X148189369Y-110291715D01*
X148019239Y-110380279D01*
X148015106Y-110383382D01*
X148015103Y-110383384D01*
X147958476Y-110425901D01*
X147837310Y-110516875D01*
X147680133Y-110681351D01*
X147664580Y-110704151D01*
X147561655Y-110855034D01*
X147506743Y-110900037D01*
X147436218Y-110908208D01*
X147372471Y-110876954D01*
X147351774Y-110852469D01*
X147310145Y-110788119D01*
X147299458Y-110778915D01*
X147289891Y-110783319D01*
X146531022Y-111542188D01*
X146523408Y-111556132D01*
X146523539Y-111557965D01*
X146527790Y-111564580D01*
X147287388Y-112324178D01*
X147299398Y-112330736D01*
X147311138Y-112321768D01*
X147345504Y-112273944D01*
X147353108Y-112261288D01*
X147405338Y-112213199D01*
X147475276Y-112200982D01*
X147540716Y-112228515D01*
X147568544Y-112260348D01*
X147574457Y-112269997D01*
X147638744Y-112374904D01*
X147787698Y-112546861D01*
X147962737Y-112692181D01*
X147967192Y-112694784D01*
X147967203Y-112694792D01*
X147971651Y-112697391D01*
X148020374Y-112749029D01*
X148033445Y-112818812D01*
X148006713Y-112884584D01*
X147983735Y-112906936D01*
X147837310Y-113016875D01*
X147833738Y-113020613D01*
X147698553Y-113162076D01*
X147680133Y-113181351D01*
X147664580Y-113204151D01*
X147612980Y-113279794D01*
X147558068Y-113324797D01*
X147487543Y-113332968D01*
X147423796Y-113301714D01*
X147418086Y-113294959D01*
X147399458Y-113278915D01*
X147389891Y-113283319D01*
X146631022Y-114042188D01*
X146623408Y-114056132D01*
X146623539Y-114057965D01*
X146627790Y-114064580D01*
X147387388Y-114824178D01*
X147399398Y-114830736D01*
X147426032Y-114810390D01*
X147427502Y-114812315D01*
X147461733Y-114785630D01*
X147532436Y-114779183D01*
X147595401Y-114811983D01*
X147615497Y-114836969D01*
X147636042Y-114870496D01*
X147636046Y-114870501D01*
X147638744Y-114874904D01*
X147642128Y-114878810D01*
X147642129Y-114878812D01*
X147656425Y-114895316D01*
X147787698Y-115046861D01*
X147962737Y-115192181D01*
X147967189Y-115194783D01*
X147967194Y-115194786D01*
X148061199Y-115249718D01*
X148159160Y-115306962D01*
X148371693Y-115388120D01*
X148376759Y-115389151D01*
X148376760Y-115389151D01*
X148475861Y-115409313D01*
X148594627Y-115433476D01*
X148722437Y-115438163D01*
X148816811Y-115441624D01*
X148816815Y-115441624D01*
X148821975Y-115441813D01*
X148827095Y-115441157D01*
X148827097Y-115441157D01*
X149042504Y-115413563D01*
X149042505Y-115413563D01*
X149047632Y-115412906D01*
X149052582Y-115411421D01*
X149260591Y-115349015D01*
X149260592Y-115349014D01*
X149265537Y-115347531D01*
X149469839Y-115247444D01*
X149474043Y-115244446D01*
X149474047Y-115244443D01*
X149650847Y-115118333D01*
X149650849Y-115118331D01*
X149655051Y-115115334D01*
X149816199Y-114954747D01*
X149948956Y-114769997D01*
X149951248Y-114765360D01*
X149953405Y-114761770D01*
X150005635Y-114713681D01*
X150075573Y-114701465D01*
X150141013Y-114728999D01*
X150168840Y-114760831D01*
X150171458Y-114765103D01*
X150238744Y-114874904D01*
X150242128Y-114878810D01*
X150242129Y-114878812D01*
X150256425Y-114895316D01*
X150387698Y-115046861D01*
X150562737Y-115192181D01*
X150567189Y-115194783D01*
X150567194Y-115194786D01*
X150661199Y-115249718D01*
X150759160Y-115306962D01*
X150971693Y-115388120D01*
X150976759Y-115389151D01*
X150976760Y-115389151D01*
X151075861Y-115409313D01*
X151194627Y-115433476D01*
X151322437Y-115438163D01*
X151416811Y-115441624D01*
X151416815Y-115441624D01*
X151421975Y-115441813D01*
X151427095Y-115441157D01*
X151427097Y-115441157D01*
X151642504Y-115413563D01*
X151642505Y-115413563D01*
X151647632Y-115412906D01*
X151652582Y-115411421D01*
X151860591Y-115349015D01*
X151860592Y-115349014D01*
X151865537Y-115347531D01*
X152069839Y-115247444D01*
X152074043Y-115244446D01*
X152074047Y-115244443D01*
X152250847Y-115118333D01*
X152250849Y-115118331D01*
X152255051Y-115115334D01*
X152416199Y-114954747D01*
X152548956Y-114769997D01*
X152551248Y-114765360D01*
X152553405Y-114761770D01*
X152605635Y-114713681D01*
X152675573Y-114701465D01*
X152741013Y-114728999D01*
X152768840Y-114760831D01*
X152771458Y-114765103D01*
X152838744Y-114874904D01*
X152842128Y-114878810D01*
X152842129Y-114878812D01*
X152856425Y-114895316D01*
X152987698Y-115046861D01*
X153162737Y-115192181D01*
X153167189Y-115194783D01*
X153167194Y-115194786D01*
X153261199Y-115249718D01*
X153359160Y-115306962D01*
X153571693Y-115388120D01*
X153576759Y-115389151D01*
X153576760Y-115389151D01*
X153675861Y-115409313D01*
X153794627Y-115433476D01*
X153922437Y-115438163D01*
X154016811Y-115441624D01*
X154016815Y-115441624D01*
X154021975Y-115441813D01*
X154027095Y-115441157D01*
X154027097Y-115441157D01*
X154242504Y-115413563D01*
X154242505Y-115413563D01*
X154247632Y-115412906D01*
X154252582Y-115411421D01*
X154460591Y-115349015D01*
X154460592Y-115349014D01*
X154465537Y-115347531D01*
X154669839Y-115247444D01*
X154674043Y-115244446D01*
X154674047Y-115244443D01*
X154850847Y-115118333D01*
X154850849Y-115118331D01*
X154855051Y-115115334D01*
X155016199Y-114954747D01*
X155148956Y-114769997D01*
X155151248Y-114765360D01*
X155153405Y-114761770D01*
X155205635Y-114713681D01*
X155275573Y-114701465D01*
X155341013Y-114728999D01*
X155368840Y-114760831D01*
X155371458Y-114765103D01*
X155438744Y-114874904D01*
X155442128Y-114878810D01*
X155442129Y-114878812D01*
X155456425Y-114895316D01*
X155587698Y-115046861D01*
X155762737Y-115192181D01*
X155767189Y-115194783D01*
X155767194Y-115194786D01*
X155861199Y-115249718D01*
X155959160Y-115306962D01*
X156171693Y-115388120D01*
X156176759Y-115389151D01*
X156176760Y-115389151D01*
X156275861Y-115409313D01*
X156394627Y-115433476D01*
X156522437Y-115438163D01*
X156616811Y-115441624D01*
X156616815Y-115441624D01*
X156621975Y-115441813D01*
X156627095Y-115441157D01*
X156627097Y-115441157D01*
X156842504Y-115413563D01*
X156842505Y-115413563D01*
X156847632Y-115412906D01*
X156852582Y-115411421D01*
X157060591Y-115349015D01*
X157060592Y-115349014D01*
X157065537Y-115347531D01*
X157269839Y-115247444D01*
X157274043Y-115244446D01*
X157274047Y-115244443D01*
X157450847Y-115118333D01*
X157450849Y-115118331D01*
X157455051Y-115115334D01*
X157579980Y-114990840D01*
X157585060Y-114985778D01*
X157647432Y-114951862D01*
X157718238Y-114957050D01*
X157775000Y-114999696D01*
X157799694Y-115066260D01*
X157800000Y-115075029D01*
X157800000Y-115200000D01*
X157811397Y-115196483D01*
X160547737Y-114352055D01*
X160597515Y-114347086D01*
X160701149Y-114357521D01*
X160710867Y-114358500D01*
X160866354Y-114358500D01*
X160866354Y-114359334D01*
X160932006Y-114375993D01*
X160980457Y-114427887D01*
X160993160Y-114497738D01*
X160966082Y-114563368D01*
X160914188Y-114601619D01*
X157925547Y-115783175D01*
X157879222Y-115792000D01*
X142620777Y-115792000D01*
X142574452Y-115783175D01*
X141466777Y-115345257D01*
X139585951Y-114601675D01*
X139529955Y-114558029D01*
X139506446Y-114491038D01*
X139522886Y-114421971D01*
X139574057Y-114372757D01*
X139632276Y-114358500D01*
X139717907Y-114358500D01*
X139755876Y-114364357D01*
X139938178Y-114421971D01*
X142382725Y-115194541D01*
X142382727Y-115194541D01*
X142400000Y-115200000D01*
X142400000Y-115198130D01*
X142780700Y-115198130D01*
X142785981Y-115205184D01*
X142954919Y-115303904D01*
X142964202Y-115308351D01*
X143167002Y-115385793D01*
X143176900Y-115388669D01*
X143389625Y-115431948D01*
X143399853Y-115433167D01*
X143616788Y-115441122D01*
X143627074Y-115440655D01*
X143842400Y-115413072D01*
X143852477Y-115410930D01*
X144060401Y-115348549D01*
X144069999Y-115344788D01*
X144264947Y-115249284D01*
X144273785Y-115244015D01*
X144326172Y-115206648D01*
X144332859Y-115198130D01*
X145480700Y-115198130D01*
X145485981Y-115205184D01*
X145654919Y-115303904D01*
X145664202Y-115308351D01*
X145867002Y-115385793D01*
X145876900Y-115388669D01*
X146089625Y-115431948D01*
X146099853Y-115433167D01*
X146316788Y-115441122D01*
X146327074Y-115440655D01*
X146542400Y-115413072D01*
X146552477Y-115410930D01*
X146760401Y-115348549D01*
X146769999Y-115344788D01*
X146964947Y-115249284D01*
X146973785Y-115244015D01*
X147026172Y-115206648D01*
X147034572Y-115195948D01*
X147027585Y-115182795D01*
X146271812Y-114427022D01*
X146257868Y-114419408D01*
X146256035Y-114419539D01*
X146249420Y-114423790D01*
X145487460Y-115185750D01*
X145480700Y-115198130D01*
X144332859Y-115198130D01*
X144334572Y-115195948D01*
X144327585Y-115182795D01*
X143571812Y-114427022D01*
X143557868Y-114419408D01*
X143556035Y-114419539D01*
X143549420Y-114423790D01*
X142787460Y-115185750D01*
X142780700Y-115198130D01*
X142400000Y-115198130D01*
X142400000Y-114906980D01*
X142420002Y-114838859D01*
X142436905Y-114817885D01*
X143186978Y-114067812D01*
X143193356Y-114056132D01*
X143923408Y-114056132D01*
X143923539Y-114057965D01*
X143927790Y-114064580D01*
X144687388Y-114824178D01*
X144699398Y-114830736D01*
X144711138Y-114821768D01*
X144745507Y-114773940D01*
X144750816Y-114765103D01*
X144793691Y-114678352D01*
X144841804Y-114626145D01*
X144910506Y-114608238D01*
X144977982Y-114630316D01*
X145019114Y-114677368D01*
X145023025Y-114685110D01*
X145107279Y-114822601D01*
X145117735Y-114832061D01*
X145126513Y-114828277D01*
X145886978Y-114067812D01*
X145894592Y-114053868D01*
X145894461Y-114052035D01*
X145890210Y-114045420D01*
X145130858Y-113286068D01*
X145119322Y-113279768D01*
X145107039Y-113289391D01*
X145055279Y-113365268D01*
X145050191Y-113374224D01*
X145024156Y-113430313D01*
X144977332Y-113483680D01*
X144909089Y-113503261D01*
X144841093Y-113482838D01*
X144794319Y-113427506D01*
X144784083Y-113403965D01*
X144779213Y-113394884D01*
X144710144Y-113288118D01*
X144699458Y-113278915D01*
X144689891Y-113283319D01*
X143931022Y-114042188D01*
X143923408Y-114056132D01*
X143193356Y-114056132D01*
X143194592Y-114053868D01*
X143194461Y-114052035D01*
X143190210Y-114045420D01*
X142436905Y-113292115D01*
X142402879Y-113229803D01*
X142400000Y-113203020D01*
X142400000Y-112698130D01*
X142780700Y-112698130D01*
X142800007Y-112723921D01*
X142798778Y-112724841D01*
X142824463Y-112755372D01*
X142833542Y-112825786D01*
X142803111Y-112889930D01*
X142793239Y-112899001D01*
X142782365Y-112913569D01*
X142789111Y-112925901D01*
X143546188Y-113682978D01*
X143560132Y-113690592D01*
X143561965Y-113690461D01*
X143568580Y-113686210D01*
X144330190Y-112924600D01*
X144337211Y-112911744D01*
X144319258Y-112887104D01*
X144319668Y-112886805D01*
X144289168Y-112843784D01*
X144285936Y-112772861D01*
X144315737Y-112721491D01*
X144314983Y-112720899D01*
X144319186Y-112715546D01*
X144321562Y-112711450D01*
X144323944Y-112709486D01*
X144332859Y-112698130D01*
X145380700Y-112698130D01*
X145385982Y-112705186D01*
X145439642Y-112736543D01*
X145488365Y-112788181D01*
X145501436Y-112857964D01*
X145481768Y-112908553D01*
X145481524Y-112912031D01*
X145489111Y-112925901D01*
X146246188Y-113682978D01*
X146260132Y-113690592D01*
X146261965Y-113690461D01*
X146268580Y-113686210D01*
X147030190Y-112924600D01*
X147037211Y-112911744D01*
X147029718Y-112901461D01*
X147022435Y-112896622D01*
X146980918Y-112873703D01*
X146930948Y-112823270D01*
X146916176Y-112753828D01*
X146934885Y-112705707D01*
X146935622Y-112697924D01*
X146927585Y-112682795D01*
X146171812Y-111927022D01*
X146157868Y-111919408D01*
X146156035Y-111919539D01*
X146149420Y-111923790D01*
X145387460Y-112685750D01*
X145380700Y-112698130D01*
X144332859Y-112698130D01*
X144334572Y-112695948D01*
X144327585Y-112682795D01*
X143571812Y-111927022D01*
X143557868Y-111919408D01*
X143556035Y-111919539D01*
X143549420Y-111923790D01*
X142787460Y-112685750D01*
X142780700Y-112698130D01*
X142400000Y-112698130D01*
X142400000Y-112406980D01*
X142420002Y-112338859D01*
X142436905Y-112317885D01*
X143186978Y-111567812D01*
X143193356Y-111556132D01*
X143923408Y-111556132D01*
X143923539Y-111557965D01*
X143927790Y-111564580D01*
X144687388Y-112324178D01*
X144699398Y-112330736D01*
X144711138Y-112321768D01*
X144745502Y-112273945D01*
X144753401Y-112260801D01*
X144805633Y-112212714D01*
X144875571Y-112200499D01*
X144941010Y-112228035D01*
X144968835Y-112259866D01*
X145007278Y-112322600D01*
X145017735Y-112332061D01*
X145026513Y-112328277D01*
X145786978Y-111567812D01*
X145794592Y-111553868D01*
X145794461Y-111552035D01*
X145790210Y-111545420D01*
X145030858Y-110786068D01*
X145019322Y-110779768D01*
X145007039Y-110789391D01*
X144961949Y-110855490D01*
X144907037Y-110900492D01*
X144836512Y-110908663D01*
X144772766Y-110877408D01*
X144752069Y-110852925D01*
X144710144Y-110788118D01*
X144699458Y-110778915D01*
X144689891Y-110783319D01*
X143931022Y-111542188D01*
X143923408Y-111556132D01*
X143193356Y-111556132D01*
X143194592Y-111553868D01*
X143194461Y-111552035D01*
X143190210Y-111545420D01*
X142430858Y-110786068D01*
X142416914Y-110778454D01*
X142413964Y-110778665D01*
X142361763Y-110799451D01*
X142350017Y-110800000D01*
X138834000Y-110800000D01*
X138765879Y-110779998D01*
X138719386Y-110726342D01*
X138708000Y-110674000D01*
X138708000Y-109774346D01*
X138728002Y-109706225D01*
X138781658Y-109659732D01*
X138851932Y-109649628D01*
X138914485Y-109677402D01*
X139052737Y-109792181D01*
X139057189Y-109794783D01*
X139057194Y-109794786D01*
X139151199Y-109849718D01*
X139249160Y-109906962D01*
X139461693Y-109988120D01*
X139466759Y-109989151D01*
X139466760Y-109989151D01*
X139521329Y-110000253D01*
X139684627Y-110033476D01*
X139812437Y-110038163D01*
X139906811Y-110041624D01*
X139906815Y-110041624D01*
X139911975Y-110041813D01*
X139917095Y-110041157D01*
X139917097Y-110041157D01*
X140132504Y-110013563D01*
X140132505Y-110013563D01*
X140137632Y-110012906D01*
X140142582Y-110011421D01*
X140350591Y-109949015D01*
X140350592Y-109949014D01*
X140355537Y-109947531D01*
X140559839Y-109847444D01*
X140564043Y-109844446D01*
X140564047Y-109844443D01*
X140740847Y-109718333D01*
X140740849Y-109718331D01*
X140745051Y-109715334D01*
X140906199Y-109554747D01*
X140953778Y-109488534D01*
X141035938Y-109374198D01*
X141035942Y-109374192D01*
X141038956Y-109369997D01*
X141139755Y-109166046D01*
X141167437Y-109074935D01*
X141182631Y-109024928D01*
X141221572Y-108965564D01*
X141286426Y-108936677D01*
X141356602Y-108947439D01*
X141409820Y-108994432D01*
X141426106Y-109033857D01*
X141434283Y-109070141D01*
X141519875Y-109280927D01*
X141638744Y-109474904D01*
X141787698Y-109646861D01*
X141962737Y-109792181D01*
X141967189Y-109794783D01*
X141967194Y-109794786D01*
X142061199Y-109849718D01*
X142159160Y-109906962D01*
X142371693Y-109988120D01*
X142376759Y-109989151D01*
X142376760Y-109989151D01*
X142431329Y-110000253D01*
X142594627Y-110033476D01*
X142722437Y-110038163D01*
X142816811Y-110041624D01*
X142816815Y-110041624D01*
X142821975Y-110041813D01*
X142827095Y-110041157D01*
X142827097Y-110041157D01*
X143004294Y-110018458D01*
X143074404Y-110029643D01*
X143127338Y-110076956D01*
X143146289Y-110145377D01*
X143125241Y-110213181D01*
X143070876Y-110258843D01*
X143059449Y-110263202D01*
X143026147Y-110274087D01*
X143016637Y-110278084D01*
X142824095Y-110378315D01*
X142815370Y-110383809D01*
X142790819Y-110402243D01*
X142782365Y-110413569D01*
X142789111Y-110425901D01*
X143546188Y-111182978D01*
X143560132Y-111190592D01*
X143561965Y-111190461D01*
X143568580Y-111186210D01*
X144330190Y-110424600D01*
X144336214Y-110413569D01*
X145382365Y-110413569D01*
X145389111Y-110425901D01*
X146146188Y-111182978D01*
X146160132Y-111190592D01*
X146161965Y-111190461D01*
X146168580Y-111186210D01*
X146930190Y-110424600D01*
X146937211Y-110411744D01*
X146929718Y-110401461D01*
X146922435Y-110396622D01*
X146732398Y-110291715D01*
X146722989Y-110287487D01*
X146518364Y-110215026D01*
X146508401Y-110212394D01*
X146294687Y-110174326D01*
X146284434Y-110173356D01*
X146067366Y-110170703D01*
X146057082Y-110171423D01*
X145842507Y-110204258D01*
X145832479Y-110206647D01*
X145626147Y-110274087D01*
X145616637Y-110278084D01*
X145424095Y-110378315D01*
X145415370Y-110383809D01*
X145390819Y-110402243D01*
X145382365Y-110413569D01*
X144336214Y-110413569D01*
X144337211Y-110411744D01*
X144329718Y-110401461D01*
X144322435Y-110396622D01*
X144132398Y-110291715D01*
X144122989Y-110287487D01*
X143918364Y-110215026D01*
X143908401Y-110212394D01*
X143694687Y-110174326D01*
X143684434Y-110173356D01*
X143467366Y-110170703D01*
X143457082Y-110171423D01*
X143322858Y-110191962D01*
X143252496Y-110182494D01*
X143198422Y-110136489D01*
X143177804Y-110068552D01*
X143197189Y-110000253D01*
X143250422Y-109953277D01*
X143257820Y-109950101D01*
X143260591Y-109949015D01*
X143265537Y-109947531D01*
X143469839Y-109847444D01*
X143474043Y-109844446D01*
X143474047Y-109844443D01*
X143650847Y-109718333D01*
X143650849Y-109718331D01*
X143655051Y-109715334D01*
X143816199Y-109554747D01*
X143863778Y-109488534D01*
X143945938Y-109374198D01*
X143945942Y-109374192D01*
X143948956Y-109369997D01*
X144049755Y-109166046D01*
X144115890Y-108948370D01*
X144116565Y-108943244D01*
X144145148Y-108726136D01*
X144145148Y-108726132D01*
X144145585Y-108722815D01*
X144147242Y-108655000D01*
X144128601Y-108428264D01*
X144127270Y-108422966D01*
X152693257Y-108422966D01*
X152723565Y-108557446D01*
X152726645Y-108567275D01*
X152806770Y-108764603D01*
X152811413Y-108773794D01*
X152922694Y-108955388D01*
X152928777Y-108963699D01*
X153068213Y-109124667D01*
X153075580Y-109131883D01*
X153239434Y-109267916D01*
X153247881Y-109273831D01*
X153431756Y-109381279D01*
X153441042Y-109385729D01*
X153640001Y-109461703D01*
X153649899Y-109464579D01*
X153753250Y-109485606D01*
X153767299Y-109484410D01*
X153771000Y-109474065D01*
X153771000Y-109473517D01*
X154279000Y-109473517D01*
X154283064Y-109487359D01*
X154296478Y-109489393D01*
X154303184Y-109488534D01*
X154313262Y-109486392D01*
X154517255Y-109425191D01*
X154526842Y-109421433D01*
X154718095Y-109327739D01*
X154726945Y-109322464D01*
X154900328Y-109198792D01*
X154908200Y-109192139D01*
X155059052Y-109041812D01*
X155065730Y-109033965D01*
X155190003Y-108861020D01*
X155195313Y-108852183D01*
X155289670Y-108661267D01*
X155293469Y-108651672D01*
X155355377Y-108447910D01*
X155357555Y-108437837D01*
X155358986Y-108426962D01*
X155356775Y-108412778D01*
X155343617Y-108409000D01*
X154297115Y-108409000D01*
X154281876Y-108413475D01*
X154280671Y-108414865D01*
X154279000Y-108422548D01*
X154279000Y-109473517D01*
X153771000Y-109473517D01*
X153771000Y-108427115D01*
X153766525Y-108411876D01*
X153765135Y-108410671D01*
X153757452Y-108409000D01*
X152708225Y-108409000D01*
X152694694Y-108412973D01*
X152693257Y-108422966D01*
X144127270Y-108422966D01*
X144077739Y-108225774D01*
X144074437Y-108212629D01*
X144074437Y-108212628D01*
X144073178Y-108207617D01*
X144061021Y-108179659D01*
X145404896Y-108179659D01*
X145414192Y-108191674D01*
X145454440Y-108219856D01*
X145463935Y-108225339D01*
X145653353Y-108313666D01*
X145663645Y-108317412D01*
X145865523Y-108371505D01*
X145876318Y-108373408D01*
X146084525Y-108391624D01*
X146095475Y-108391624D01*
X146303682Y-108373408D01*
X146314477Y-108371505D01*
X146516355Y-108317412D01*
X146526647Y-108313666D01*
X146716065Y-108225339D01*
X146725560Y-108219856D01*
X146766646Y-108191087D01*
X146775021Y-108180610D01*
X146767953Y-108167163D01*
X146102812Y-107502022D01*
X146088868Y-107494408D01*
X146087035Y-107494539D01*
X146080420Y-107498790D01*
X145411326Y-108167884D01*
X145404896Y-108179659D01*
X144061021Y-108179659D01*
X143982462Y-107998985D01*
X143858890Y-107807971D01*
X143705779Y-107639704D01*
X143597595Y-107554266D01*
X143556532Y-107496349D01*
X143553300Y-107425426D01*
X143588925Y-107364015D01*
X143602518Y-107352806D01*
X143650845Y-107318335D01*
X143650852Y-107318329D01*
X143655051Y-107315334D01*
X143816199Y-107154747D01*
X143830047Y-107135475D01*
X144828376Y-107135475D01*
X144846592Y-107343682D01*
X144848495Y-107354477D01*
X144902588Y-107556355D01*
X144906334Y-107566647D01*
X144994661Y-107756064D01*
X145000144Y-107765560D01*
X145028913Y-107806646D01*
X145039390Y-107815021D01*
X145052838Y-107807952D01*
X145717978Y-107142812D01*
X145725592Y-107128868D01*
X145725461Y-107127035D01*
X145721210Y-107120420D01*
X145052116Y-106451326D01*
X145040341Y-106444896D01*
X145028326Y-106454192D01*
X145000144Y-106494440D01*
X144994661Y-106503936D01*
X144906334Y-106693353D01*
X144902588Y-106703645D01*
X144848495Y-106905523D01*
X144846592Y-106916318D01*
X144828376Y-107124525D01*
X144828376Y-107135475D01*
X143830047Y-107135475D01*
X143870764Y-107078812D01*
X143945938Y-106974198D01*
X143945942Y-106974192D01*
X143948956Y-106969997D01*
X144040767Y-106784232D01*
X144047461Y-106770688D01*
X144047462Y-106770686D01*
X144049755Y-106766046D01*
X144107819Y-106574935D01*
X144114388Y-106553314D01*
X144114388Y-106553313D01*
X144115890Y-106548370D01*
X144116565Y-106543244D01*
X144145148Y-106326136D01*
X144145148Y-106326132D01*
X144145585Y-106322815D01*
X144145667Y-106319463D01*
X144147160Y-106258365D01*
X144147160Y-106258361D01*
X144147242Y-106255000D01*
X144132804Y-106079390D01*
X145404979Y-106079390D01*
X145412048Y-106092838D01*
X147127884Y-107808674D01*
X147139659Y-107815104D01*
X147151674Y-107805808D01*
X147179856Y-107765560D01*
X147185339Y-107756064D01*
X147273666Y-107566647D01*
X147277412Y-107556355D01*
X147331505Y-107354477D01*
X147333408Y-107343682D01*
X147351624Y-107135475D01*
X147351624Y-107124525D01*
X147333408Y-106916318D01*
X147331505Y-106905523D01*
X147277412Y-106703645D01*
X147273666Y-106693353D01*
X147203710Y-106543333D01*
X147193049Y-106473142D01*
X147222029Y-106408329D01*
X147281448Y-106369472D01*
X147352443Y-106368909D01*
X147371155Y-106375888D01*
X147458164Y-106416461D01*
X147463472Y-106417883D01*
X147463474Y-106417884D01*
X147665436Y-106471999D01*
X147665437Y-106471999D01*
X147670751Y-106473423D01*
X147890000Y-106492605D01*
X148109249Y-106473423D01*
X148114563Y-106471999D01*
X148114564Y-106471999D01*
X148316526Y-106417884D01*
X148316528Y-106417883D01*
X148321836Y-106416461D01*
X148339275Y-106408329D01*
X148408140Y-106376217D01*
X148478332Y-106365556D01*
X148543145Y-106394536D01*
X148582001Y-106453956D01*
X148582564Y-106524950D01*
X148575586Y-106543660D01*
X148503539Y-106698164D01*
X148502117Y-106703472D01*
X148502116Y-106703474D01*
X148455555Y-106877245D01*
X148446577Y-106910751D01*
X148427395Y-107130000D01*
X148446577Y-107349249D01*
X148448001Y-107354563D01*
X148448001Y-107354564D01*
X148501511Y-107554266D01*
X148503539Y-107561836D01*
X148505861Y-107566816D01*
X148505862Y-107566818D01*
X148545316Y-107651426D01*
X148596552Y-107761302D01*
X148722788Y-107941587D01*
X148878413Y-108097212D01*
X148882921Y-108100369D01*
X148882924Y-108100371D01*
X149053567Y-108219856D01*
X149058697Y-108223448D01*
X149063679Y-108225771D01*
X149063684Y-108225774D01*
X149252170Y-108313666D01*
X149258164Y-108316461D01*
X149263472Y-108317883D01*
X149263474Y-108317884D01*
X149465436Y-108371999D01*
X149465437Y-108371999D01*
X149470751Y-108373423D01*
X149690000Y-108392605D01*
X149909249Y-108373423D01*
X149914563Y-108371999D01*
X149914564Y-108371999D01*
X150116526Y-108317884D01*
X150116528Y-108317883D01*
X150121836Y-108316461D01*
X150127830Y-108313666D01*
X150316316Y-108225774D01*
X150316321Y-108225771D01*
X150321303Y-108223448D01*
X150326433Y-108219856D01*
X150497076Y-108100371D01*
X150497079Y-108100369D01*
X150501587Y-108097212D01*
X150657212Y-107941587D01*
X150783448Y-107761302D01*
X150834685Y-107651426D01*
X150874138Y-107566818D01*
X150874139Y-107566816D01*
X150876461Y-107561836D01*
X150877930Y-107556355D01*
X150931999Y-107354565D01*
X150932000Y-107354561D01*
X150933423Y-107349249D01*
X150933836Y-107344533D01*
X150968724Y-107277511D01*
X151652065Y-106594170D01*
X151714377Y-106560144D01*
X151777997Y-106562771D01*
X151826913Y-106577726D01*
X151828066Y-106578085D01*
X151916806Y-106606235D01*
X151922102Y-106606829D01*
X151927198Y-106608387D01*
X152019757Y-106617790D01*
X152020893Y-106617911D01*
X152054508Y-106621681D01*
X152067230Y-106623108D01*
X152067234Y-106623108D01*
X152070727Y-106623500D01*
X152074254Y-106623500D01*
X152075239Y-106623555D01*
X152080919Y-106624002D01*
X152110325Y-106626989D01*
X152117837Y-106627752D01*
X152117839Y-106627752D01*
X152123962Y-106628374D01*
X152169608Y-106624059D01*
X152181467Y-106623500D01*
X153067393Y-106623500D01*
X153135514Y-106643502D01*
X153147877Y-106652555D01*
X153243126Y-106731632D01*
X153293546Y-106761095D01*
X153316955Y-106774774D01*
X153365679Y-106826412D01*
X153378750Y-106896195D01*
X153352019Y-106961967D01*
X153311562Y-106995327D01*
X153303457Y-106999546D01*
X153294738Y-107005036D01*
X153124433Y-107132905D01*
X153116726Y-107139748D01*
X152969590Y-107293717D01*
X152963104Y-107301727D01*
X152843098Y-107477649D01*
X152838000Y-107486623D01*
X152748338Y-107679783D01*
X152744775Y-107689470D01*
X152689389Y-107889183D01*
X152690912Y-107897607D01*
X152703292Y-107901000D01*
X155343344Y-107901000D01*
X155356875Y-107897027D01*
X155358180Y-107887947D01*
X155316214Y-107720875D01*
X155312894Y-107711124D01*
X155227972Y-107515814D01*
X155223105Y-107506739D01*
X155107426Y-107327926D01*
X155101136Y-107319757D01*
X154957806Y-107162240D01*
X154950273Y-107155215D01*
X154783139Y-107023222D01*
X154774556Y-107017520D01*
X154737602Y-106997120D01*
X154687631Y-106946687D01*
X154672859Y-106877245D01*
X154697975Y-106810839D01*
X154725327Y-106784232D01*
X154757764Y-106761095D01*
X154904860Y-106656173D01*
X154917576Y-106643502D01*
X155013040Y-106548370D01*
X155063096Y-106498489D01*
X155080764Y-106473902D01*
X155190435Y-106321277D01*
X155193453Y-106317077D01*
X155240897Y-106221082D01*
X155290136Y-106121453D01*
X155290137Y-106121451D01*
X155292430Y-106116811D01*
X155344225Y-105946334D01*
X155355865Y-105908023D01*
X155355865Y-105908021D01*
X155357370Y-105903069D01*
X155386529Y-105681590D01*
X155387012Y-105661836D01*
X155388074Y-105618365D01*
X155388074Y-105618361D01*
X155388156Y-105615000D01*
X155369852Y-105392361D01*
X155315431Y-105175702D01*
X155226354Y-104970840D01*
X155118080Y-104803474D01*
X155107822Y-104787617D01*
X155107820Y-104787614D01*
X155105014Y-104783277D01*
X155096468Y-104773885D01*
X154957798Y-104621488D01*
X154926746Y-104557642D01*
X154935141Y-104487143D01*
X154980317Y-104432375D01*
X155006761Y-104418706D01*
X155113297Y-104378767D01*
X155121705Y-104375615D01*
X155238261Y-104288261D01*
X155325615Y-104171705D01*
X155376745Y-104035316D01*
X155383500Y-103973134D01*
X155383500Y-102176866D01*
X155376745Y-102114684D01*
X155325615Y-101978295D01*
X155238261Y-101861739D01*
X155121705Y-101774385D01*
X154985316Y-101723255D01*
X154923134Y-101716500D01*
X153126866Y-101716500D01*
X153064684Y-101723255D01*
X152928295Y-101774385D01*
X152811739Y-101861739D01*
X152724385Y-101978295D01*
X152673255Y-102114684D01*
X152666500Y-102176866D01*
X152666500Y-102311911D01*
X152646498Y-102380032D01*
X152592842Y-102426525D01*
X152522568Y-102436629D01*
X152457988Y-102407135D01*
X152420977Y-102351788D01*
X152406370Y-102308007D01*
X152406369Y-102308005D01*
X152404050Y-102301054D01*
X152310978Y-102150652D01*
X152185803Y-102025695D01*
X152109745Y-101978812D01*
X152041468Y-101936725D01*
X152041466Y-101936724D01*
X152035238Y-101932885D01*
X151900272Y-101888119D01*
X151873889Y-101879368D01*
X151873887Y-101879368D01*
X151867361Y-101877203D01*
X151860525Y-101876503D01*
X151860522Y-101876502D01*
X151817469Y-101872091D01*
X151762900Y-101866500D01*
X150987100Y-101866500D01*
X150983854Y-101866837D01*
X150983850Y-101866837D01*
X150888192Y-101876762D01*
X150888188Y-101876763D01*
X150881334Y-101877474D01*
X150874798Y-101879655D01*
X150874796Y-101879655D01*
X150858428Y-101885116D01*
X150713554Y-101933450D01*
X150563152Y-102026522D01*
X150557979Y-102031704D01*
X150502620Y-102087160D01*
X150438195Y-102151697D01*
X150435398Y-102156235D01*
X150378147Y-102196824D01*
X150307224Y-102200054D01*
X150245813Y-102164428D01*
X150238438Y-102155932D01*
X150230402Y-102145793D01*
X150115671Y-102031261D01*
X150104260Y-102022249D01*
X149966257Y-101937184D01*
X149953076Y-101931037D01*
X149798790Y-101879862D01*
X149785414Y-101876995D01*
X149691062Y-101867328D01*
X149684645Y-101867000D01*
X149572115Y-101867000D01*
X149556876Y-101871475D01*
X149555671Y-101872865D01*
X149554000Y-101880548D01*
X149554000Y-104314884D01*
X149558475Y-104330123D01*
X149559865Y-104331328D01*
X149567548Y-104332999D01*
X149684595Y-104332999D01*
X149691114Y-104332662D01*
X149786706Y-104322743D01*
X149800100Y-104319851D01*
X149954284Y-104268412D01*
X149967458Y-104262241D01*
X149999196Y-104242600D01*
X150067648Y-104223762D01*
X150135418Y-104244923D01*
X150180989Y-104299363D01*
X150191500Y-104349744D01*
X150191500Y-104625657D01*
X150190763Y-104639264D01*
X150188003Y-104664675D01*
X150186676Y-104676888D01*
X150189720Y-104711684D01*
X150191021Y-104726553D01*
X150191500Y-104737534D01*
X150191500Y-105150076D01*
X150171498Y-105218197D01*
X150154595Y-105239171D01*
X149542491Y-105851275D01*
X149475471Y-105886164D01*
X149470751Y-105886577D01*
X149465443Y-105887999D01*
X149465439Y-105888000D01*
X149263474Y-105942116D01*
X149263472Y-105942117D01*
X149258164Y-105943539D01*
X149253184Y-105945861D01*
X149253182Y-105945862D01*
X149171860Y-105983783D01*
X149101668Y-105994444D01*
X149036855Y-105965464D01*
X148997999Y-105906044D01*
X148997436Y-105835050D01*
X149004415Y-105816338D01*
X149074138Y-105666818D01*
X149074139Y-105666816D01*
X149076461Y-105661836D01*
X149092033Y-105603722D01*
X149131999Y-105454564D01*
X149131999Y-105454563D01*
X149133423Y-105449249D01*
X149152605Y-105230000D01*
X149133423Y-105010751D01*
X149118389Y-104954643D01*
X149077884Y-104803474D01*
X149077883Y-104803472D01*
X149076461Y-104798164D01*
X149069228Y-104782653D01*
X148985771Y-104603679D01*
X148985769Y-104603676D01*
X148983448Y-104598698D01*
X148936233Y-104531268D01*
X148913547Y-104463996D01*
X148930832Y-104395136D01*
X148982602Y-104346552D01*
X149010995Y-104339783D01*
X149010502Y-104338104D01*
X149043124Y-104328525D01*
X149044329Y-104327135D01*
X149046000Y-104319452D01*
X149046000Y-103372115D01*
X149041525Y-103356876D01*
X149040135Y-103355671D01*
X149032452Y-103354000D01*
X148222616Y-103354000D01*
X148207377Y-103358475D01*
X148206172Y-103359865D01*
X148204501Y-103367548D01*
X148204501Y-103622095D01*
X148204838Y-103628614D01*
X148214757Y-103724206D01*
X148217650Y-103737603D01*
X148245894Y-103822264D01*
X148248478Y-103893213D01*
X148212294Y-103954297D01*
X148148829Y-103986121D01*
X148109281Y-103986212D01*
X148109249Y-103986577D01*
X148105184Y-103986221D01*
X148105180Y-103986221D01*
X147890000Y-103967395D01*
X147670751Y-103986577D01*
X147665437Y-103988001D01*
X147665436Y-103988001D01*
X147463474Y-104042116D01*
X147463472Y-104042117D01*
X147458164Y-104043539D01*
X147453184Y-104045861D01*
X147453182Y-104045862D01*
X147263679Y-104134229D01*
X147263676Y-104134231D01*
X147258698Y-104136552D01*
X147078413Y-104262788D01*
X146922788Y-104418413D01*
X146796552Y-104598698D01*
X146794231Y-104603676D01*
X146794229Y-104603679D01*
X146710772Y-104782653D01*
X146703539Y-104798164D01*
X146702117Y-104803472D01*
X146702116Y-104803474D01*
X146661611Y-104954643D01*
X146646577Y-105010751D01*
X146627395Y-105230000D01*
X146646577Y-105449249D01*
X146648001Y-105454563D01*
X146648001Y-105454564D01*
X146687968Y-105603722D01*
X146703539Y-105661836D01*
X146773857Y-105812631D01*
X146775914Y-105817043D01*
X146786575Y-105887234D01*
X146757595Y-105952047D01*
X146698176Y-105990904D01*
X146627181Y-105991467D01*
X146608469Y-105984488D01*
X146526648Y-105946334D01*
X146516355Y-105942588D01*
X146314477Y-105888495D01*
X146303682Y-105886592D01*
X146095475Y-105868376D01*
X146084525Y-105868376D01*
X145876318Y-105886592D01*
X145865523Y-105888495D01*
X145663645Y-105942588D01*
X145653353Y-105946334D01*
X145463936Y-106034661D01*
X145454440Y-106040144D01*
X145413354Y-106068913D01*
X145404979Y-106079390D01*
X144132804Y-106079390D01*
X144128601Y-106028264D01*
X144075369Y-105816338D01*
X144074437Y-105812629D01*
X144074437Y-105812628D01*
X144073178Y-105807617D01*
X144015794Y-105675643D01*
X143984522Y-105603722D01*
X143984520Y-105603719D01*
X143982462Y-105598985D01*
X143898558Y-105469289D01*
X143861698Y-105412311D01*
X143861696Y-105412308D01*
X143858890Y-105407971D01*
X143705779Y-105239704D01*
X143527241Y-105098704D01*
X143520222Y-105094829D01*
X143489547Y-105077896D01*
X143470389Y-105067320D01*
X143420419Y-105016889D01*
X143405647Y-104947446D01*
X143430763Y-104881040D01*
X143466354Y-104849151D01*
X143469839Y-104847444D01*
X143474048Y-104844442D01*
X143474051Y-104844440D01*
X143650847Y-104718333D01*
X143650849Y-104718331D01*
X143655051Y-104715334D01*
X143816199Y-104554747D01*
X143864778Y-104487143D01*
X143945938Y-104374198D01*
X143945942Y-104374192D01*
X143948956Y-104369997D01*
X144049755Y-104166046D01*
X144115890Y-103948370D01*
X144129077Y-103848206D01*
X144145148Y-103726136D01*
X144145148Y-103726132D01*
X144145585Y-103722815D01*
X144147242Y-103655000D01*
X144128601Y-103428264D01*
X144075843Y-103218227D01*
X144074437Y-103212629D01*
X144074437Y-103212628D01*
X144073178Y-103207617D01*
X144013167Y-103069602D01*
X143984522Y-103003722D01*
X143984520Y-103003719D01*
X143982462Y-102998985D01*
X143882411Y-102844329D01*
X143861698Y-102812311D01*
X143861696Y-102812308D01*
X143858890Y-102807971D01*
X143705779Y-102639704D01*
X143582832Y-102542607D01*
X143531063Y-102501722D01*
X143490000Y-102443805D01*
X143486768Y-102372882D01*
X143522393Y-102311470D01*
X143535987Y-102300261D01*
X143541620Y-102296243D01*
X143655051Y-102215334D01*
X143816199Y-102054747D01*
X143832757Y-102031704D01*
X143945938Y-101874198D01*
X143945942Y-101874192D01*
X143948956Y-101869997D01*
X144049755Y-101666046D01*
X144112912Y-101458173D01*
X144114388Y-101453314D01*
X144114388Y-101453313D01*
X144115890Y-101448370D01*
X144129077Y-101348206D01*
X144145148Y-101226136D01*
X144145148Y-101226132D01*
X144145585Y-101222815D01*
X144146554Y-101183134D01*
X144891500Y-101183134D01*
X144898255Y-101245316D01*
X144949385Y-101381705D01*
X145036739Y-101498261D01*
X145153295Y-101585615D01*
X145289684Y-101636745D01*
X145351866Y-101643500D01*
X147148134Y-101643500D01*
X147210316Y-101636745D01*
X147346705Y-101585615D01*
X147463261Y-101498261D01*
X147550615Y-101381705D01*
X147565111Y-101343037D01*
X147594598Y-101264382D01*
X147637240Y-101207618D01*
X147703802Y-101182918D01*
X147773150Y-101198126D01*
X147807817Y-101226114D01*
X147836250Y-101258938D01*
X148008126Y-101401632D01*
X148201000Y-101514338D01*
X148409692Y-101594030D01*
X148414760Y-101595061D01*
X148414763Y-101595062D01*
X148522017Y-101616883D01*
X148628597Y-101638567D01*
X148633771Y-101638757D01*
X148633773Y-101638757D01*
X148740753Y-101642680D01*
X148808095Y-101665165D01*
X148852590Y-101720488D01*
X148860112Y-101791085D01*
X148828272Y-101854542D01*
X148776011Y-101888119D01*
X148645716Y-101931588D01*
X148632538Y-101937761D01*
X148494693Y-102023063D01*
X148483292Y-102032099D01*
X148368761Y-102146829D01*
X148359749Y-102158240D01*
X148274684Y-102296243D01*
X148268537Y-102309424D01*
X148217362Y-102463710D01*
X148214495Y-102477086D01*
X148204828Y-102571438D01*
X148204500Y-102577855D01*
X148204500Y-102827885D01*
X148208975Y-102843124D01*
X148210365Y-102844329D01*
X148218048Y-102846000D01*
X149027885Y-102846000D01*
X149043124Y-102841525D01*
X149044329Y-102840135D01*
X149046000Y-102832452D01*
X149046000Y-101885116D01*
X149041525Y-101869877D01*
X149038120Y-101866926D01*
X148979789Y-101835076D01*
X148945763Y-101772764D01*
X148950827Y-101701948D01*
X148993373Y-101645112D01*
X149052871Y-101621001D01*
X149068278Y-101619027D01*
X149068288Y-101619025D01*
X149073416Y-101618368D01*
X149078366Y-101616883D01*
X149282429Y-101555661D01*
X149282434Y-101555659D01*
X149287384Y-101554174D01*
X149487994Y-101455896D01*
X149669860Y-101326173D01*
X149674298Y-101321751D01*
X149773580Y-101222815D01*
X149828096Y-101168489D01*
X149958453Y-100987077D01*
X149984970Y-100933425D01*
X150055136Y-100791453D01*
X150055137Y-100791451D01*
X150057430Y-100786811D01*
X150122370Y-100573069D01*
X150151529Y-100351590D01*
X150153156Y-100285000D01*
X150134852Y-100062361D01*
X150080431Y-99845702D01*
X149991354Y-99640840D01*
X149924141Y-99536944D01*
X149872822Y-99457617D01*
X149872820Y-99457614D01*
X149870014Y-99453277D01*
X149719670Y-99288051D01*
X149715619Y-99284852D01*
X149715615Y-99284848D01*
X149548414Y-99152800D01*
X149548410Y-99152798D01*
X149544359Y-99149598D01*
X149348789Y-99041638D01*
X149343920Y-99039914D01*
X149343916Y-99039912D01*
X149143087Y-98968795D01*
X149143083Y-98968794D01*
X149138212Y-98967069D01*
X149133119Y-98966162D01*
X149133116Y-98966161D01*
X148923373Y-98928800D01*
X148923367Y-98928799D01*
X148918284Y-98927894D01*
X148844452Y-98926992D01*
X148700081Y-98925228D01*
X148700079Y-98925228D01*
X148694911Y-98925165D01*
X148474091Y-98958955D01*
X148261756Y-99028357D01*
X148063607Y-99131507D01*
X148059474Y-99134610D01*
X148059471Y-99134612D01*
X147889100Y-99262530D01*
X147884965Y-99265635D01*
X147828537Y-99324684D01*
X147804283Y-99350064D01*
X147742759Y-99385494D01*
X147671846Y-99382037D01*
X147614060Y-99340791D01*
X147595207Y-99307243D01*
X147553767Y-99196703D01*
X147550615Y-99188295D01*
X147463261Y-99071739D01*
X147346705Y-98984385D01*
X147210316Y-98933255D01*
X147148134Y-98926500D01*
X145351866Y-98926500D01*
X145289684Y-98933255D01*
X145153295Y-98984385D01*
X145036739Y-99071739D01*
X144949385Y-99188295D01*
X144898255Y-99324684D01*
X144891500Y-99386866D01*
X144891500Y-101183134D01*
X144146554Y-101183134D01*
X144146823Y-101172137D01*
X144147160Y-101158365D01*
X144147160Y-101158361D01*
X144147242Y-101155000D01*
X144128601Y-100928264D01*
X144083753Y-100749716D01*
X144074437Y-100712629D01*
X144074437Y-100712628D01*
X144073178Y-100707617D01*
X143982462Y-100498985D01*
X143858890Y-100307971D01*
X143705779Y-100139704D01*
X143597595Y-100054266D01*
X143556532Y-99996349D01*
X143553300Y-99925426D01*
X143588925Y-99864015D01*
X143602518Y-99852806D01*
X143650845Y-99818335D01*
X143650852Y-99818329D01*
X143655051Y-99815334D01*
X143816199Y-99654747D01*
X143870764Y-99578812D01*
X143945938Y-99474198D01*
X143945942Y-99474192D01*
X143948956Y-99469997D01*
X144036992Y-99291870D01*
X144047461Y-99270688D01*
X144047462Y-99270686D01*
X144049755Y-99266046D01*
X144108790Y-99071739D01*
X144114388Y-99053314D01*
X144114388Y-99053313D01*
X144115890Y-99048370D01*
X144118736Y-99026750D01*
X144145148Y-98826136D01*
X144145148Y-98826132D01*
X144145585Y-98822815D01*
X144147242Y-98755000D01*
X144128601Y-98528264D01*
X144076754Y-98321855D01*
X144074437Y-98312629D01*
X144074437Y-98312628D01*
X144073178Y-98307617D01*
X144015497Y-98174959D01*
X143984522Y-98103722D01*
X143984520Y-98103719D01*
X143982462Y-98098985D01*
X143898558Y-97969289D01*
X143861698Y-97912311D01*
X143861696Y-97912308D01*
X143858890Y-97907971D01*
X143705779Y-97739704D01*
X143582832Y-97642607D01*
X143531063Y-97601722D01*
X143490000Y-97543805D01*
X143486768Y-97472882D01*
X143522393Y-97411470D01*
X143535987Y-97400261D01*
X143540371Y-97397134D01*
X143655051Y-97315334D01*
X143816199Y-97154747D01*
X143846998Y-97111886D01*
X143945938Y-96974198D01*
X143945942Y-96974192D01*
X143948956Y-96969997D01*
X144021676Y-96822860D01*
X144047461Y-96770688D01*
X144047462Y-96770686D01*
X144049755Y-96766046D01*
X144107819Y-96574935D01*
X144114388Y-96553314D01*
X144114388Y-96553313D01*
X144115890Y-96548370D01*
X144116565Y-96543244D01*
X144145148Y-96326136D01*
X144145148Y-96326132D01*
X144145585Y-96322815D01*
X144145667Y-96319463D01*
X144147160Y-96258365D01*
X144147160Y-96258361D01*
X144147242Y-96255000D01*
X144128601Y-96028264D01*
X144073178Y-95807617D01*
X144015794Y-95675643D01*
X143984522Y-95603722D01*
X143984520Y-95603719D01*
X143982462Y-95598985D01*
X143898558Y-95469289D01*
X143861698Y-95412311D01*
X143861694Y-95412306D01*
X143858890Y-95407971D01*
X143705779Y-95239704D01*
X143583992Y-95143523D01*
X143531063Y-95101722D01*
X143490000Y-95043805D01*
X143486768Y-94972882D01*
X143522393Y-94911470D01*
X143535987Y-94900261D01*
X143540011Y-94897391D01*
X143655051Y-94815334D01*
X143816199Y-94654747D01*
X143879990Y-94565973D01*
X143935984Y-94522326D01*
X143982312Y-94513500D01*
X144579785Y-94513500D01*
X144647906Y-94533502D01*
X144687561Y-94574229D01*
X144756833Y-94688612D01*
X144756838Y-94688618D01*
X144760770Y-94695111D01*
X144879889Y-94814230D01*
X145023982Y-94901496D01*
X145031229Y-94903767D01*
X145031231Y-94903768D01*
X145079237Y-94918812D01*
X145184732Y-94951872D01*
X145256865Y-94958500D01*
X145259763Y-94958500D01*
X145500630Y-94958499D01*
X145743134Y-94958499D01*
X145745992Y-94958236D01*
X145746001Y-94958236D01*
X145781137Y-94955008D01*
X145815268Y-94951872D01*
X145871647Y-94934204D01*
X145968769Y-94903768D01*
X145968771Y-94903767D01*
X145976018Y-94901496D01*
X146120111Y-94814230D01*
X146229939Y-94704402D01*
X146292251Y-94670376D01*
X146363066Y-94675441D01*
X146396834Y-94694451D01*
X146401697Y-94699305D01*
X146407927Y-94703145D01*
X146407928Y-94703146D01*
X146536912Y-94782653D01*
X146552262Y-94792115D01*
X146610616Y-94811470D01*
X146713611Y-94845632D01*
X146713613Y-94845632D01*
X146720139Y-94847797D01*
X146726975Y-94848497D01*
X146726978Y-94848498D01*
X146770031Y-94852909D01*
X146824600Y-94858500D01*
X148175400Y-94858500D01*
X148178646Y-94858163D01*
X148178650Y-94858163D01*
X148274308Y-94848238D01*
X148274312Y-94848237D01*
X148281166Y-94847526D01*
X148287708Y-94845343D01*
X148287710Y-94845343D01*
X148387423Y-94812076D01*
X148458373Y-94809491D01*
X148519457Y-94845674D01*
X148534441Y-94865292D01*
X148573884Y-94929031D01*
X148579066Y-94934204D01*
X148691816Y-95046758D01*
X148691821Y-95046762D01*
X148696997Y-95051929D01*
X148703227Y-95055769D01*
X148703228Y-95055770D01*
X148816497Y-95125590D01*
X148845080Y-95143209D01*
X149010191Y-95197974D01*
X149017027Y-95198674D01*
X149017030Y-95198675D01*
X149066996Y-95203794D01*
X149112928Y-95208500D01*
X149687072Y-95208500D01*
X149690318Y-95208163D01*
X149690322Y-95208163D01*
X149784235Y-95198419D01*
X149784239Y-95198418D01*
X149791093Y-95197707D01*
X149797629Y-95195526D01*
X149797631Y-95195526D01*
X149930395Y-95151232D01*
X149956107Y-95142654D01*
X150104031Y-95051116D01*
X150111329Y-95043805D01*
X150221758Y-94933184D01*
X150221762Y-94933179D01*
X150226929Y-94928003D01*
X150230770Y-94921772D01*
X150314369Y-94786150D01*
X150314370Y-94786148D01*
X150318209Y-94779920D01*
X150372974Y-94614809D01*
X150377063Y-94574904D01*
X150383172Y-94515271D01*
X150383500Y-94512072D01*
X150383500Y-93912928D01*
X150383163Y-93909678D01*
X150373419Y-93815765D01*
X150373418Y-93815761D01*
X150372707Y-93808907D01*
X150354154Y-93753295D01*
X150319972Y-93650841D01*
X150317654Y-93643893D01*
X150226116Y-93495969D01*
X150153265Y-93423245D01*
X150119214Y-93389253D01*
X150085135Y-93326970D01*
X150090138Y-93256150D01*
X150119059Y-93211063D01*
X150221754Y-93108188D01*
X150221758Y-93108183D01*
X150226929Y-93103003D01*
X150298376Y-92987095D01*
X150314369Y-92961150D01*
X150314370Y-92961148D01*
X150318209Y-92954920D01*
X150372974Y-92789809D01*
X150374224Y-92777614D01*
X150380063Y-92720614D01*
X150383500Y-92687072D01*
X150383500Y-92087928D01*
X150379956Y-92053767D01*
X150373419Y-91990765D01*
X150373418Y-91990761D01*
X150372707Y-91983907D01*
X150369704Y-91974904D01*
X150319972Y-91825841D01*
X150317654Y-91818893D01*
X150226116Y-91670969D01*
X150189867Y-91634783D01*
X150108184Y-91553242D01*
X150108179Y-91553238D01*
X150103003Y-91548071D01*
X149954920Y-91456791D01*
X149789809Y-91402026D01*
X149782973Y-91401326D01*
X149782970Y-91401325D01*
X149731474Y-91396049D01*
X149687072Y-91391500D01*
X149112928Y-91391500D01*
X149109682Y-91391837D01*
X149109678Y-91391837D01*
X149015765Y-91401581D01*
X149015761Y-91401582D01*
X149008907Y-91402293D01*
X149002367Y-91404475D01*
X149002362Y-91404476D01*
X149001663Y-91404709D01*
X149001205Y-91404726D01*
X148995628Y-91405930D01*
X148995413Y-91404936D01*
X148930714Y-91407290D01*
X148869632Y-91371102D01*
X148837811Y-91307636D01*
X148842201Y-91245515D01*
X148870138Y-91161290D01*
X148873005Y-91147914D01*
X148882672Y-91053562D01*
X148883000Y-91047146D01*
X148883000Y-90872115D01*
X148878525Y-90856876D01*
X148877135Y-90855671D01*
X148869452Y-90854000D01*
X147772115Y-90854000D01*
X147756876Y-90858475D01*
X147755671Y-90859865D01*
X147754000Y-90867548D01*
X147754000Y-91739884D01*
X147758475Y-91755123D01*
X147759865Y-91756328D01*
X147767548Y-91757999D01*
X148172095Y-91757999D01*
X148178614Y-91757662D01*
X148274206Y-91747743D01*
X148287603Y-91744850D01*
X148295329Y-91742273D01*
X148366279Y-91739689D01*
X148427362Y-91775873D01*
X148459186Y-91839338D01*
X148454797Y-91901464D01*
X148427026Y-91985191D01*
X148426326Y-91992027D01*
X148426325Y-91992030D01*
X148421527Y-92038865D01*
X148416500Y-92087928D01*
X148416500Y-92426633D01*
X148396498Y-92494754D01*
X148342842Y-92541247D01*
X148277658Y-92551977D01*
X148209887Y-92545033D01*
X148175400Y-92541500D01*
X146824600Y-92541500D01*
X146821354Y-92541837D01*
X146821350Y-92541837D01*
X146725692Y-92551762D01*
X146725688Y-92551763D01*
X146718834Y-92552474D01*
X146712298Y-92554655D01*
X146712296Y-92554655D01*
X146622589Y-92584584D01*
X146551054Y-92608450D01*
X146544826Y-92612304D01*
X146544824Y-92612305D01*
X146537210Y-92617017D01*
X146468758Y-92635855D01*
X146400989Y-92614694D01*
X146355417Y-92560253D01*
X146346513Y-92489817D01*
X146350673Y-92472194D01*
X146374375Y-92396560D01*
X146376988Y-92383513D01*
X146382734Y-92320980D01*
X146383000Y-92315191D01*
X146382999Y-91809475D01*
X146403001Y-91741354D01*
X146456656Y-91694861D01*
X146526930Y-91684757D01*
X146552260Y-91692305D01*
X146552475Y-91691658D01*
X146713710Y-91745138D01*
X146727086Y-91748005D01*
X146821438Y-91757672D01*
X146827854Y-91758000D01*
X147227885Y-91758000D01*
X147243124Y-91753525D01*
X147244329Y-91752135D01*
X147246000Y-91744452D01*
X147246000Y-90327885D01*
X147754000Y-90327885D01*
X147758475Y-90343124D01*
X147759865Y-90344329D01*
X147767548Y-90346000D01*
X148864884Y-90346000D01*
X148880123Y-90341525D01*
X148881328Y-90340135D01*
X148882999Y-90332452D01*
X148882999Y-90152905D01*
X148882662Y-90146386D01*
X148872743Y-90050794D01*
X148869851Y-90037400D01*
X148818412Y-89883216D01*
X148812239Y-89870038D01*
X148726937Y-89732193D01*
X148717901Y-89720792D01*
X148603171Y-89606261D01*
X148591760Y-89597249D01*
X148453757Y-89512184D01*
X148440576Y-89506037D01*
X148286290Y-89454862D01*
X148272914Y-89451995D01*
X148178562Y-89442328D01*
X148172145Y-89442000D01*
X147772115Y-89442000D01*
X147756876Y-89446475D01*
X147755671Y-89447865D01*
X147754000Y-89455548D01*
X147754000Y-90327885D01*
X147246000Y-90327885D01*
X147246000Y-89460116D01*
X147241525Y-89444877D01*
X147240135Y-89443672D01*
X147232452Y-89442001D01*
X146827905Y-89442001D01*
X146821386Y-89442338D01*
X146725794Y-89452257D01*
X146712400Y-89455149D01*
X146558216Y-89506588D01*
X146545038Y-89512761D01*
X146407193Y-89598063D01*
X146395792Y-89607099D01*
X146281261Y-89721829D01*
X146272249Y-89733240D01*
X146187184Y-89871243D01*
X146181037Y-89884424D01*
X146129862Y-90038710D01*
X146126995Y-90052086D01*
X146117328Y-90146438D01*
X146117000Y-90152855D01*
X146117000Y-90371682D01*
X146096998Y-90439803D01*
X146043342Y-90486296D01*
X145973068Y-90496400D01*
X145953321Y-90491916D01*
X145821560Y-90450625D01*
X145808513Y-90448012D01*
X145772041Y-90444661D01*
X145757164Y-90447583D01*
X145754000Y-90459477D01*
X145754000Y-91828000D01*
X145733998Y-91896121D01*
X145680342Y-91942614D01*
X145628000Y-91954000D01*
X144635116Y-91954000D01*
X144619877Y-91958475D01*
X144618672Y-91959865D01*
X144617001Y-91967548D01*
X144617001Y-92315205D01*
X144617264Y-92320954D01*
X144623013Y-92383521D01*
X144625624Y-92396557D01*
X144671692Y-92543561D01*
X144677899Y-92557307D01*
X144724494Y-92634245D01*
X144742673Y-92702874D01*
X144724494Y-92764787D01*
X144673504Y-92848982D01*
X144671233Y-92856229D01*
X144671232Y-92856231D01*
X144654953Y-92908179D01*
X144615496Y-92967201D01*
X144550392Y-92995521D01*
X144534719Y-92996500D01*
X143984717Y-92996500D01*
X143916596Y-92976498D01*
X143878925Y-92938941D01*
X143861694Y-92912306D01*
X143858890Y-92907971D01*
X143705779Y-92739704D01*
X143581205Y-92641322D01*
X143531063Y-92601722D01*
X143490000Y-92543805D01*
X143486768Y-92472882D01*
X143522393Y-92411470D01*
X143535987Y-92400261D01*
X143541180Y-92396557D01*
X143655051Y-92315334D01*
X143816199Y-92154747D01*
X143854285Y-92101745D01*
X143945938Y-91974198D01*
X143945942Y-91974192D01*
X143948956Y-91969997D01*
X144019135Y-91828000D01*
X144047461Y-91770688D01*
X144047462Y-91770686D01*
X144049755Y-91766046D01*
X144096154Y-91613328D01*
X144114388Y-91553314D01*
X144114388Y-91553313D01*
X144115890Y-91548370D01*
X144128250Y-91454487D01*
X144131752Y-91427885D01*
X144617000Y-91427885D01*
X144621475Y-91443124D01*
X144622865Y-91444329D01*
X144630548Y-91446000D01*
X145227885Y-91446000D01*
X145243124Y-91441525D01*
X145244329Y-91440135D01*
X145246000Y-91432452D01*
X145246000Y-90461119D01*
X145241729Y-90446574D01*
X145229596Y-90444511D01*
X145191478Y-90448013D01*
X145178445Y-90450623D01*
X145031439Y-90496692D01*
X145017693Y-90502899D01*
X144886701Y-90582230D01*
X144874824Y-90591543D01*
X144766543Y-90699824D01*
X144757230Y-90711701D01*
X144677899Y-90842693D01*
X144671692Y-90856439D01*
X144625625Y-91003440D01*
X144623012Y-91016487D01*
X144617266Y-91079020D01*
X144617000Y-91084809D01*
X144617000Y-91427885D01*
X144131752Y-91427885D01*
X144145148Y-91326136D01*
X144145148Y-91326132D01*
X144145585Y-91322815D01*
X144145667Y-91319463D01*
X144147160Y-91258365D01*
X144147160Y-91258361D01*
X144147242Y-91255000D01*
X144128601Y-91028264D01*
X144081989Y-90842693D01*
X144074437Y-90812629D01*
X144074437Y-90812628D01*
X144073178Y-90807617D01*
X144015794Y-90675643D01*
X143984522Y-90603722D01*
X143984520Y-90603719D01*
X143982462Y-90598985D01*
X143898558Y-90469289D01*
X143861698Y-90412311D01*
X143861696Y-90412308D01*
X143858890Y-90407971D01*
X143705779Y-90239704D01*
X143527241Y-90098704D01*
X143520222Y-90094829D01*
X143493864Y-90080279D01*
X143470389Y-90067320D01*
X143420419Y-90016889D01*
X143405647Y-89947446D01*
X143430763Y-89881040D01*
X143466354Y-89849151D01*
X143469839Y-89847444D01*
X143474048Y-89844442D01*
X143474051Y-89844440D01*
X143650847Y-89718333D01*
X143650849Y-89718331D01*
X143655051Y-89715334D01*
X143816199Y-89554747D01*
X143870764Y-89478812D01*
X143945938Y-89374198D01*
X143945942Y-89374192D01*
X143948956Y-89369997D01*
X144027380Y-89211318D01*
X144047461Y-89170688D01*
X144047462Y-89170686D01*
X144049755Y-89166046D01*
X144115890Y-88948370D01*
X144129077Y-88848206D01*
X144145148Y-88726136D01*
X144145148Y-88726132D01*
X144145585Y-88722815D01*
X144147242Y-88655000D01*
X144128601Y-88428264D01*
X144077209Y-88223665D01*
X144074437Y-88212629D01*
X144074437Y-88212628D01*
X144073178Y-88207617D01*
X143982462Y-87998985D01*
X143858890Y-87807971D01*
X143705779Y-87639704D01*
X143597595Y-87554266D01*
X143556532Y-87496349D01*
X143553300Y-87425426D01*
X143588925Y-87364015D01*
X143602518Y-87352806D01*
X143642680Y-87324159D01*
X147033896Y-87324159D01*
X147043192Y-87336174D01*
X147083440Y-87364356D01*
X147092935Y-87369839D01*
X147282353Y-87458166D01*
X147292645Y-87461912D01*
X147494523Y-87516005D01*
X147505318Y-87517908D01*
X147713525Y-87536124D01*
X147724475Y-87536124D01*
X147932682Y-87517908D01*
X147943477Y-87516005D01*
X148145355Y-87461912D01*
X148155647Y-87458166D01*
X148345065Y-87369839D01*
X148354560Y-87364356D01*
X148395646Y-87335587D01*
X148404021Y-87325110D01*
X148396953Y-87311663D01*
X147731812Y-86646522D01*
X147717868Y-86638908D01*
X147716035Y-86639039D01*
X147709420Y-86643290D01*
X147040326Y-87312384D01*
X147033896Y-87324159D01*
X143642680Y-87324159D01*
X143650845Y-87318335D01*
X143650852Y-87318329D01*
X143655051Y-87315334D01*
X143816199Y-87154747D01*
X143862738Y-87089982D01*
X143945938Y-86974198D01*
X143945942Y-86974192D01*
X143948956Y-86969997D01*
X144040225Y-86785328D01*
X144047461Y-86770688D01*
X144047462Y-86770686D01*
X144049755Y-86766046D01*
X144107819Y-86574935D01*
X144114388Y-86553314D01*
X144114388Y-86553313D01*
X144115890Y-86548370D01*
X144123081Y-86493749D01*
X144145148Y-86326136D01*
X144145148Y-86326132D01*
X144145585Y-86322815D01*
X144145667Y-86319463D01*
X144146632Y-86279975D01*
X146457376Y-86279975D01*
X146475592Y-86488182D01*
X146477495Y-86498977D01*
X146531588Y-86700855D01*
X146535334Y-86711147D01*
X146623661Y-86900564D01*
X146629144Y-86910060D01*
X146657913Y-86951146D01*
X146668390Y-86959521D01*
X146681838Y-86952452D01*
X147346978Y-86287312D01*
X147353356Y-86275632D01*
X148083408Y-86275632D01*
X148083539Y-86277465D01*
X148087790Y-86284080D01*
X148756884Y-86953174D01*
X148768659Y-86959604D01*
X148780674Y-86950308D01*
X148808856Y-86910060D01*
X148814339Y-86900564D01*
X148902666Y-86711147D01*
X148906412Y-86700855D01*
X148960505Y-86498977D01*
X148962408Y-86488182D01*
X148980624Y-86279975D01*
X148980624Y-86269025D01*
X148962408Y-86060818D01*
X148960505Y-86050023D01*
X148906412Y-85848145D01*
X148902666Y-85837853D01*
X148814339Y-85648436D01*
X148808856Y-85638940D01*
X148780087Y-85597854D01*
X148769610Y-85589479D01*
X148756162Y-85596548D01*
X148091022Y-86261688D01*
X148083408Y-86275632D01*
X147353356Y-86275632D01*
X147354592Y-86273368D01*
X147354461Y-86271535D01*
X147350210Y-86264920D01*
X146681116Y-85595826D01*
X146669341Y-85589396D01*
X146657326Y-85598692D01*
X146629144Y-85638940D01*
X146623661Y-85648436D01*
X146535334Y-85837853D01*
X146531588Y-85848145D01*
X146477495Y-86050023D01*
X146475592Y-86060818D01*
X146457376Y-86269025D01*
X146457376Y-86279975D01*
X144146632Y-86279975D01*
X144147160Y-86258365D01*
X144147160Y-86258361D01*
X144147242Y-86255000D01*
X144128601Y-86028264D01*
X144080730Y-85837682D01*
X144074437Y-85812629D01*
X144074437Y-85812628D01*
X144073178Y-85807617D01*
X144015794Y-85675643D01*
X143984522Y-85603722D01*
X143984520Y-85603719D01*
X143982462Y-85598985D01*
X143895906Y-85465189D01*
X143861698Y-85412311D01*
X143861696Y-85412308D01*
X143858890Y-85407971D01*
X143705779Y-85239704D01*
X143685755Y-85223890D01*
X147033979Y-85223890D01*
X147041048Y-85237338D01*
X147706188Y-85902478D01*
X147720132Y-85910092D01*
X147721965Y-85909961D01*
X147728580Y-85905710D01*
X148397674Y-85236616D01*
X148404104Y-85224841D01*
X148394808Y-85212826D01*
X148354560Y-85184644D01*
X148345065Y-85179161D01*
X148155647Y-85090834D01*
X148145355Y-85087088D01*
X147943477Y-85032995D01*
X147932682Y-85031092D01*
X147724475Y-85012876D01*
X147713525Y-85012876D01*
X147505318Y-85031092D01*
X147494523Y-85032995D01*
X147292645Y-85087088D01*
X147282353Y-85090834D01*
X147092936Y-85179161D01*
X147083440Y-85184644D01*
X147042354Y-85213413D01*
X147033979Y-85223890D01*
X143685755Y-85223890D01*
X143581205Y-85141322D01*
X143531063Y-85101722D01*
X143490000Y-85043805D01*
X143486768Y-84972882D01*
X143522393Y-84911470D01*
X143535987Y-84900261D01*
X143540011Y-84897391D01*
X143655051Y-84815334D01*
X143816199Y-84654747D01*
X143870764Y-84578812D01*
X143945938Y-84474198D01*
X143945942Y-84474192D01*
X143948956Y-84469997D01*
X144030997Y-84304000D01*
X144047461Y-84270688D01*
X144047462Y-84270686D01*
X144049755Y-84266046D01*
X144115890Y-84048370D01*
X144119703Y-84019408D01*
X144145148Y-83826136D01*
X144145148Y-83826132D01*
X144145585Y-83822815D01*
X144146281Y-83794329D01*
X144147160Y-83758365D01*
X144147160Y-83758361D01*
X144147242Y-83755000D01*
X144128601Y-83528264D01*
X144082907Y-83346350D01*
X144074437Y-83312629D01*
X144074437Y-83312628D01*
X144073178Y-83307617D01*
X143982462Y-83098985D01*
X143875237Y-82933240D01*
X143861698Y-82912311D01*
X143861696Y-82912308D01*
X143858890Y-82907971D01*
X143705779Y-82739704D01*
X143575158Y-82636546D01*
X143531063Y-82601722D01*
X143490000Y-82543805D01*
X143486768Y-82472882D01*
X143522393Y-82411470D01*
X143535987Y-82400261D01*
X143540011Y-82397391D01*
X143655051Y-82315334D01*
X143816199Y-82154747D01*
X143870764Y-82078812D01*
X143945938Y-81974198D01*
X143945942Y-81974192D01*
X143948956Y-81969997D01*
X144049755Y-81766046D01*
X144115890Y-81548370D01*
X144129077Y-81448206D01*
X144135702Y-81397885D01*
X151567500Y-81397885D01*
X151571975Y-81413124D01*
X151573365Y-81414329D01*
X151581048Y-81416000D01*
X152390885Y-81416000D01*
X152406124Y-81411525D01*
X152407329Y-81410135D01*
X152409000Y-81402452D01*
X152409000Y-80455116D01*
X152404525Y-80439877D01*
X152403135Y-80438672D01*
X152395452Y-80437001D01*
X152278405Y-80437001D01*
X152271886Y-80437338D01*
X152176294Y-80447257D01*
X152162900Y-80450149D01*
X152008716Y-80501588D01*
X151995538Y-80507761D01*
X151857693Y-80593063D01*
X151846292Y-80602099D01*
X151731761Y-80716829D01*
X151722749Y-80728240D01*
X151637684Y-80866243D01*
X151631537Y-80879424D01*
X151580362Y-81033710D01*
X151577495Y-81047086D01*
X151567828Y-81141438D01*
X151567500Y-81147855D01*
X151567500Y-81397885D01*
X144135702Y-81397885D01*
X144145148Y-81326136D01*
X144145148Y-81326132D01*
X144145585Y-81322815D01*
X144147242Y-81255000D01*
X144128601Y-81028264D01*
X144083753Y-80849716D01*
X144074437Y-80812629D01*
X144074437Y-80812628D01*
X144073178Y-80807617D01*
X143982462Y-80598985D01*
X143886176Y-80450149D01*
X143861698Y-80412311D01*
X143861696Y-80412308D01*
X143858890Y-80407971D01*
X143705779Y-80239704D01*
X143677732Y-80217554D01*
X143636669Y-80159637D01*
X143636037Y-80145766D01*
X156770049Y-80125841D01*
X156772987Y-80143571D01*
G37*
G04 #@! TD.AperFunction*
G04 #@! TA.AperFunction,Conductor*
G36*
X159742558Y-80212935D02*
G01*
X159737310Y-80216875D01*
X159580133Y-80381351D01*
X159451931Y-80569289D01*
X159449758Y-80573971D01*
X159449756Y-80573974D01*
X159360239Y-80766824D01*
X159356145Y-80775643D01*
X159295348Y-80994869D01*
X159294799Y-81000006D01*
X159284676Y-81094726D01*
X159257548Y-81160335D01*
X159199255Y-81200863D01*
X159128305Y-81203442D01*
X159067224Y-81167253D01*
X159035405Y-81103786D01*
X159033813Y-81091660D01*
X159029470Y-81038834D01*
X159028601Y-81028264D01*
X158983753Y-80849716D01*
X158974437Y-80812629D01*
X158974437Y-80812628D01*
X158973178Y-80807617D01*
X158882462Y-80598985D01*
X158786176Y-80450149D01*
X158761698Y-80412311D01*
X158761696Y-80412308D01*
X158758890Y-80407971D01*
X158605779Y-80239704D01*
X158590840Y-80227906D01*
X158549777Y-80169989D01*
X158547642Y-80123144D01*
X159864809Y-80121146D01*
X159742558Y-80212935D01*
G37*
G04 #@! TD.AperFunction*
G04 #@! TA.AperFunction,Conductor*
G36*
X141861745Y-80155067D02*
G01*
X141833642Y-80220265D01*
X141827766Y-80226862D01*
X141757198Y-80300707D01*
X141680133Y-80381351D01*
X141551931Y-80569289D01*
X141549758Y-80573971D01*
X141549756Y-80573974D01*
X141460239Y-80766824D01*
X141456145Y-80775643D01*
X141431718Y-80863724D01*
X141430892Y-80866702D01*
X141393413Y-80926999D01*
X141329284Y-80957462D01*
X141258866Y-80948418D01*
X141204516Y-80902739D01*
X141187271Y-80863724D01*
X141174438Y-80812631D01*
X141174436Y-80812625D01*
X141173178Y-80807617D01*
X141082462Y-80598985D01*
X140986176Y-80450149D01*
X140961698Y-80412311D01*
X140961696Y-80412308D01*
X140958890Y-80407971D01*
X140805779Y-80239704D01*
X140695974Y-80152986D01*
X140692486Y-80150231D01*
X141860650Y-80148459D01*
X141861745Y-80155067D01*
G37*
G04 #@! TD.AperFunction*
G04 #@! TA.AperFunction,Conductor*
G36*
X139022556Y-80152870D02*
G01*
X138956071Y-80177776D01*
X138886675Y-80162784D01*
X138876849Y-80152986D01*
X139022697Y-80152764D01*
X139022556Y-80152870D01*
G37*
G04 #@! TD.AperFunction*
G04 #@! TA.AperFunction,Conductor*
G36*
X161575181Y-80152625D02*
G01*
X161504233Y-80150000D01*
X161466087Y-80129382D01*
X161452608Y-80118737D01*
X161632926Y-80118464D01*
X161575181Y-80152625D01*
G37*
G04 #@! TD.AperFunction*
G04 #@! TA.AperFunction,Conductor*
G36*
X156743903Y-68128002D02*
G01*
X156792253Y-68185933D01*
X161660649Y-79982434D01*
X161668147Y-80053031D01*
X161636286Y-80116477D01*
X161575181Y-80152625D01*
X161504233Y-80149999D01*
X161466087Y-80129382D01*
X161434125Y-80104141D01*
X161427241Y-80098704D01*
X161402462Y-80085025D01*
X161344504Y-80053031D01*
X161228072Y-79988757D01*
X161223203Y-79987033D01*
X161223199Y-79987031D01*
X161018496Y-79914541D01*
X161018492Y-79914540D01*
X161013621Y-79912815D01*
X161008528Y-79911908D01*
X161008525Y-79911907D01*
X160794734Y-79873825D01*
X160794728Y-79873824D01*
X160789645Y-79872919D01*
X160716196Y-79872022D01*
X160567331Y-79870203D01*
X160567329Y-79870203D01*
X160562161Y-79870140D01*
X160337278Y-79904552D01*
X160121035Y-79975231D01*
X160116447Y-79977619D01*
X160116443Y-79977621D01*
X159923828Y-80077890D01*
X159919239Y-80080279D01*
X159915106Y-80083382D01*
X159915103Y-80083384D01*
X159741445Y-80213770D01*
X159737310Y-80216875D01*
X159733738Y-80220613D01*
X159731606Y-80222844D01*
X158588623Y-80224779D01*
X158549777Y-80169989D01*
X158546545Y-80099066D01*
X158582170Y-80037655D01*
X158603096Y-80021592D01*
X158632635Y-80003490D01*
X158632638Y-80003488D01*
X158636856Y-80000903D01*
X158835363Y-79831363D01*
X159004903Y-79632856D01*
X159141303Y-79410271D01*
X159241204Y-79169089D01*
X159262576Y-79080069D01*
X159300991Y-78920062D01*
X159300992Y-78920056D01*
X159302146Y-78915249D01*
X159322628Y-78655000D01*
X159302146Y-78394751D01*
X159300992Y-78389944D01*
X159300991Y-78389938D01*
X159242359Y-78145723D01*
X159241204Y-78140911D01*
X159141303Y-77899729D01*
X159004903Y-77677144D01*
X158835363Y-77478637D01*
X158636856Y-77309097D01*
X158414271Y-77172697D01*
X158409701Y-77170804D01*
X158409697Y-77170802D01*
X158177662Y-77074690D01*
X158177660Y-77074689D01*
X158173089Y-77072796D01*
X158084069Y-77051424D01*
X157924062Y-77013009D01*
X157924056Y-77013008D01*
X157919249Y-77011854D01*
X157659000Y-76991372D01*
X157398751Y-77011854D01*
X157393944Y-77013008D01*
X157393938Y-77013009D01*
X157233931Y-77051424D01*
X157144911Y-77072796D01*
X157140340Y-77074689D01*
X157140338Y-77074690D01*
X156908303Y-77170802D01*
X156908299Y-77170804D01*
X156903729Y-77172697D01*
X156681144Y-77309097D01*
X156482637Y-77478637D01*
X156313097Y-77677144D01*
X156176697Y-77899729D01*
X156076796Y-78140911D01*
X156075641Y-78145723D01*
X156017009Y-78389938D01*
X156017008Y-78389944D01*
X156015854Y-78394751D01*
X155995372Y-78655000D01*
X156015854Y-78915249D01*
X156017008Y-78920056D01*
X156017009Y-78920062D01*
X156055424Y-79080069D01*
X156076796Y-79169089D01*
X156176697Y-79410271D01*
X156313097Y-79632856D01*
X156482637Y-79831363D01*
X156681144Y-80000903D01*
X156685359Y-80003486D01*
X156685366Y-80003491D01*
X156713748Y-80020883D01*
X156761380Y-80073530D01*
X156772987Y-80143571D01*
X156744885Y-80208769D01*
X156737173Y-80216744D01*
X156737310Y-80216875D01*
X156726743Y-80227932D01*
X143715119Y-80249968D01*
X143705779Y-80239704D01*
X143677732Y-80217554D01*
X143636669Y-80159637D01*
X143633437Y-80088714D01*
X143669062Y-80027303D01*
X143689990Y-80011239D01*
X143702634Y-80003491D01*
X143702641Y-80003486D01*
X143706856Y-80000903D01*
X143905363Y-79831363D01*
X144074903Y-79632856D01*
X144211303Y-79410271D01*
X144311204Y-79169089D01*
X144332576Y-79080069D01*
X144370991Y-78920062D01*
X144370992Y-78920056D01*
X144372146Y-78915249D01*
X144392628Y-78655000D01*
X144372146Y-78394751D01*
X144370992Y-78389944D01*
X144370991Y-78389938D01*
X144312359Y-78145723D01*
X144311204Y-78140911D01*
X144211303Y-77899729D01*
X144074903Y-77677144D01*
X143905363Y-77478637D01*
X143706856Y-77309097D01*
X143484271Y-77172697D01*
X143479701Y-77170804D01*
X143479697Y-77170802D01*
X143247662Y-77074690D01*
X143247660Y-77074689D01*
X143243089Y-77072796D01*
X143154069Y-77051424D01*
X142994062Y-77013009D01*
X142994056Y-77013008D01*
X142989249Y-77011854D01*
X142729000Y-76991372D01*
X142468751Y-77011854D01*
X142463944Y-77013008D01*
X142463938Y-77013009D01*
X142303931Y-77051424D01*
X142214911Y-77072796D01*
X142210340Y-77074689D01*
X142210338Y-77074690D01*
X141978303Y-77170802D01*
X141978299Y-77170804D01*
X141973729Y-77172697D01*
X141751144Y-77309097D01*
X141552637Y-77478637D01*
X141383097Y-77677144D01*
X141246697Y-77899729D01*
X141146796Y-78140911D01*
X141145641Y-78145723D01*
X141087009Y-78389938D01*
X141087008Y-78389944D01*
X141085854Y-78394751D01*
X141065372Y-78655000D01*
X141085854Y-78915249D01*
X141087008Y-78920056D01*
X141087009Y-78920062D01*
X141125424Y-79080069D01*
X141146796Y-79169089D01*
X141246697Y-79410271D01*
X141383097Y-79632856D01*
X141552637Y-79831363D01*
X141751144Y-80000903D01*
X141755359Y-80003486D01*
X141755366Y-80003491D01*
X141802506Y-80032378D01*
X141850138Y-80085025D01*
X141861745Y-80155067D01*
X141833642Y-80220265D01*
X141827766Y-80226862D01*
X141802591Y-80253206D01*
X140819580Y-80254871D01*
X140809254Y-80243523D01*
X140805779Y-80239704D01*
X140627241Y-80098704D01*
X140602462Y-80085025D01*
X140544504Y-80053031D01*
X140428072Y-79988757D01*
X140423203Y-79987033D01*
X140423199Y-79987031D01*
X140218496Y-79914541D01*
X140218492Y-79914540D01*
X140213621Y-79912815D01*
X140208528Y-79911908D01*
X140208525Y-79911907D01*
X139994734Y-79873825D01*
X139994728Y-79873824D01*
X139989645Y-79872919D01*
X139916196Y-79872022D01*
X139767331Y-79870203D01*
X139767329Y-79870203D01*
X139762161Y-79870140D01*
X139537278Y-79904552D01*
X139321035Y-79975231D01*
X139316447Y-79977619D01*
X139316443Y-79977621D01*
X139123828Y-80077890D01*
X139119239Y-80080279D01*
X139115106Y-80083382D01*
X139115103Y-80083384D01*
X139085500Y-80105611D01*
X139024422Y-80151470D01*
X139022557Y-80152870D01*
X138956072Y-80177776D01*
X138886677Y-80162784D01*
X138836403Y-80112653D01*
X138821212Y-80043301D01*
X138830433Y-80004043D01*
X142118981Y-72035637D01*
X142667037Y-70707655D01*
X148739858Y-70707655D01*
X148775104Y-70966638D01*
X148776412Y-70971124D01*
X148776412Y-70971126D01*
X148796098Y-71038664D01*
X148848243Y-71217567D01*
X148957668Y-71454928D01*
X148960231Y-71458837D01*
X149098410Y-71669596D01*
X149098414Y-71669601D01*
X149100976Y-71673509D01*
X149275018Y-71868506D01*
X149475970Y-72035637D01*
X149479973Y-72038066D01*
X149695422Y-72168804D01*
X149695426Y-72168806D01*
X149699419Y-72171229D01*
X149940455Y-72272303D01*
X150193783Y-72336641D01*
X150198434Y-72337109D01*
X150198438Y-72337110D01*
X150391308Y-72356531D01*
X150410867Y-72358500D01*
X150566354Y-72358500D01*
X150568679Y-72358327D01*
X150568685Y-72358327D01*
X150756000Y-72344407D01*
X150756004Y-72344406D01*
X150760652Y-72344061D01*
X150765200Y-72343032D01*
X150765206Y-72343031D01*
X150951601Y-72300853D01*
X151015577Y-72286377D01*
X151051769Y-72272303D01*
X151254824Y-72193340D01*
X151254827Y-72193339D01*
X151259177Y-72191647D01*
X151486098Y-72061951D01*
X151691357Y-71900138D01*
X151870443Y-71709763D01*
X152019424Y-71495009D01*
X152135025Y-71260593D01*
X152214707Y-71011665D01*
X152256721Y-70753693D01*
X152260142Y-70492345D01*
X152224896Y-70233362D01*
X152210473Y-70183877D01*
X152153068Y-69986932D01*
X152151757Y-69982433D01*
X152042332Y-69745072D01*
X152009519Y-69695024D01*
X151901590Y-69530404D01*
X151901586Y-69530399D01*
X151899024Y-69526491D01*
X151724982Y-69331494D01*
X151524030Y-69164363D01*
X151476844Y-69135730D01*
X151304578Y-69031196D01*
X151304574Y-69031194D01*
X151300581Y-69028771D01*
X151059545Y-68927697D01*
X150806217Y-68863359D01*
X150801566Y-68862891D01*
X150801562Y-68862890D01*
X150592271Y-68841816D01*
X150589133Y-68841500D01*
X150433646Y-68841500D01*
X150431321Y-68841673D01*
X150431315Y-68841673D01*
X150244000Y-68855593D01*
X150243996Y-68855594D01*
X150239348Y-68855939D01*
X150234800Y-68856968D01*
X150234794Y-68856969D01*
X150048399Y-68899147D01*
X149984423Y-68913623D01*
X149980071Y-68915315D01*
X149980069Y-68915316D01*
X149745176Y-69006660D01*
X149745173Y-69006661D01*
X149740823Y-69008353D01*
X149513902Y-69138049D01*
X149308643Y-69299862D01*
X149129557Y-69490237D01*
X148980576Y-69704991D01*
X148864975Y-69939407D01*
X148785293Y-70188335D01*
X148743279Y-70446307D01*
X148739858Y-70707655D01*
X142667037Y-70707655D01*
X143707747Y-68185933D01*
X143752223Y-68130594D01*
X143824218Y-68108000D01*
X156675782Y-68108000D01*
X156743903Y-68128002D01*
G37*
G04 #@! TD.AperFunction*
M02*
