G04 #@! TF.GenerationSoftware,KiCad,Pcbnew,(6.0.1)*
G04 #@! TF.CreationDate,2022-06-09T11:36:19-07:00*
G04 #@! TF.ProjectId,PS_controller_rev1_2,50535f63-6f6e-4747-926f-6c6c65725f72,rev?*
G04 #@! TF.SameCoordinates,Original*
G04 #@! TF.FileFunction,Legend,Top*
G04 #@! TF.FilePolarity,Positive*
%FSLAX46Y46*%
G04 Gerber Fmt 4.6, Leading zero omitted, Abs format (unit mm)*
G04 Created by KiCad (PCBNEW (6.0.1)) date 2022-06-09 11:36:19*
%MOMM*%
%LPD*%
G01*
G04 APERTURE LIST*
G04 Aperture macros list*
%AMRoundRect*
0 Rectangle with rounded corners*
0 $1 Rounding radius*
0 $2 $3 $4 $5 $6 $7 $8 $9 X,Y pos of 4 corners*
0 Add a 4 corners polygon primitive as box body*
4,1,4,$2,$3,$4,$5,$6,$7,$8,$9,$2,$3,0*
0 Add four circle primitives for the rounded corners*
1,1,$1+$1,$2,$3*
1,1,$1+$1,$4,$5*
1,1,$1+$1,$6,$7*
1,1,$1+$1,$8,$9*
0 Add four rect primitives between the rounded corners*
20,1,$1+$1,$2,$3,$4,$5,0*
20,1,$1+$1,$4,$5,$6,$7,0*
20,1,$1+$1,$6,$7,$8,$9,0*
20,1,$1+$1,$8,$9,$2,$3,0*%
G04 Aperture macros list end*
%ADD10C,0.150000*%
%ADD11C,0.125000*%
%ADD12C,0.120000*%
%ADD13C,0.100000*%
%ADD14RoundRect,0.250000X-0.350000X-0.450000X0.350000X-0.450000X0.350000X0.450000X-0.350000X0.450000X0*%
%ADD15RoundRect,0.250000X-0.400000X-0.625000X0.400000X-0.625000X0.400000X0.625000X-0.400000X0.625000X0*%
%ADD16RoundRect,0.150000X0.587500X0.150000X-0.587500X0.150000X-0.587500X-0.150000X0.587500X-0.150000X0*%
%ADD17RoundRect,0.250000X0.350000X0.450000X-0.350000X0.450000X-0.350000X-0.450000X0.350000X-0.450000X0*%
%ADD18C,2.500000*%
%ADD19C,2.300000*%
%ADD20C,1.750000*%
%ADD21RoundRect,0.237500X0.237500X-0.300000X0.237500X0.300000X-0.237500X0.300000X-0.237500X-0.300000X0*%
%ADD22R,1.333500X0.279400*%
%ADD23C,1.498600*%
%ADD24RoundRect,0.250000X0.475000X-0.337500X0.475000X0.337500X-0.475000X0.337500X-0.475000X-0.337500X0*%
%ADD25RoundRect,0.250000X0.450000X-0.350000X0.450000X0.350000X-0.450000X0.350000X-0.450000X-0.350000X0*%
%ADD26R,2.900000X5.400000*%
%ADD27R,1.700000X1.700000*%
%ADD28O,1.700000X1.700000*%
G04 APERTURE END LIST*
D10*
X149887857Y-104509285D02*
X150137857Y-105259285D01*
X150387857Y-104509285D01*
X150959285Y-105259285D02*
X150959285Y-104866428D01*
X150923571Y-104795000D01*
X150852142Y-104759285D01*
X150709285Y-104759285D01*
X150637857Y-104795000D01*
X150959285Y-105223571D02*
X150887857Y-105259285D01*
X150709285Y-105259285D01*
X150637857Y-105223571D01*
X150602142Y-105152142D01*
X150602142Y-105080714D01*
X150637857Y-105009285D01*
X150709285Y-104973571D01*
X150887857Y-104973571D01*
X150959285Y-104937857D01*
X151637857Y-105223571D02*
X151566428Y-105259285D01*
X151423571Y-105259285D01*
X151352142Y-105223571D01*
X151316428Y-105187857D01*
X151280714Y-105116428D01*
X151280714Y-104902142D01*
X151316428Y-104830714D01*
X151352142Y-104795000D01*
X151423571Y-104759285D01*
X151566428Y-104759285D01*
X151637857Y-104795000D01*
X152280714Y-105223571D02*
X152209285Y-105259285D01*
X152066428Y-105259285D01*
X151995000Y-105223571D01*
X151959285Y-105187857D01*
X151923571Y-105116428D01*
X151923571Y-104902142D01*
X151959285Y-104830714D01*
X151995000Y-104795000D01*
X152066428Y-104759285D01*
X152209285Y-104759285D01*
X152280714Y-104795000D01*
X150212857Y-101489285D02*
X150462857Y-102239285D01*
X150712857Y-101489285D01*
X150927142Y-102203571D02*
X150998571Y-102239285D01*
X151141428Y-102239285D01*
X151212857Y-102203571D01*
X151248571Y-102132142D01*
X151248571Y-102096428D01*
X151212857Y-102025000D01*
X151141428Y-101989285D01*
X151034285Y-101989285D01*
X150962857Y-101953571D01*
X150927142Y-101882142D01*
X150927142Y-101846428D01*
X150962857Y-101775000D01*
X151034285Y-101739285D01*
X151141428Y-101739285D01*
X151212857Y-101775000D01*
X151570000Y-102239285D02*
X151570000Y-101739285D01*
X151570000Y-101882142D02*
X151605714Y-101810714D01*
X151641428Y-101775000D01*
X151712857Y-101739285D01*
X151784285Y-101739285D01*
X152355714Y-102203571D02*
X152284285Y-102239285D01*
X152141428Y-102239285D01*
X152070000Y-102203571D01*
X152034285Y-102167857D01*
X151998571Y-102096428D01*
X151998571Y-101882142D01*
X152034285Y-101810714D01*
X152070000Y-101775000D01*
X152141428Y-101739285D01*
X152284285Y-101739285D01*
X152355714Y-101775000D01*
X153428571Y-109425000D02*
X153357142Y-109389285D01*
X153250000Y-109389285D01*
X153142857Y-109425000D01*
X153071428Y-109496428D01*
X153035714Y-109567857D01*
X153000000Y-109710714D01*
X153000000Y-109817857D01*
X153035714Y-109960714D01*
X153071428Y-110032142D01*
X153142857Y-110103571D01*
X153250000Y-110139285D01*
X153321428Y-110139285D01*
X153428571Y-110103571D01*
X153464285Y-110067857D01*
X153464285Y-109817857D01*
X153321428Y-109817857D01*
X153785714Y-110139285D02*
X153785714Y-109389285D01*
X154214285Y-110139285D01*
X154214285Y-109389285D01*
X154571428Y-110139285D02*
X154571428Y-109389285D01*
X154750000Y-109389285D01*
X154857142Y-109425000D01*
X154928571Y-109496428D01*
X154964285Y-109567857D01*
X155000000Y-109710714D01*
X155000000Y-109817857D01*
X154964285Y-109960714D01*
X154928571Y-110032142D01*
X154857142Y-110103571D01*
X154750000Y-110139285D01*
X154571428Y-110139285D01*
X143128571Y-115325000D02*
X143057142Y-115289285D01*
X142950000Y-115289285D01*
X142842857Y-115325000D01*
X142771428Y-115396428D01*
X142735714Y-115467857D01*
X142700000Y-115610714D01*
X142700000Y-115717857D01*
X142735714Y-115860714D01*
X142771428Y-115932142D01*
X142842857Y-116003571D01*
X142950000Y-116039285D01*
X143021428Y-116039285D01*
X143128571Y-116003571D01*
X143164285Y-115967857D01*
X143164285Y-115717857D01*
X143021428Y-115717857D01*
X143485714Y-116039285D02*
X143485714Y-115289285D01*
X143914285Y-116039285D01*
X143914285Y-115289285D01*
X144271428Y-116039285D02*
X144271428Y-115289285D01*
X144450000Y-115289285D01*
X144557142Y-115325000D01*
X144628571Y-115396428D01*
X144664285Y-115467857D01*
X144700000Y-115610714D01*
X144700000Y-115717857D01*
X144664285Y-115860714D01*
X144628571Y-115932142D01*
X144557142Y-116003571D01*
X144450000Y-116039285D01*
X144271428Y-116039285D01*
X148033333Y-81752380D02*
X147700000Y-81276190D01*
X147461904Y-81752380D02*
X147461904Y-80752380D01*
X147842857Y-80752380D01*
X147938095Y-80800000D01*
X147985714Y-80847619D01*
X148033333Y-80942857D01*
X148033333Y-81085714D01*
X147985714Y-81180952D01*
X147938095Y-81228571D01*
X147842857Y-81276190D01*
X147461904Y-81276190D01*
X148938095Y-80752380D02*
X148461904Y-80752380D01*
X148414285Y-81228571D01*
X148461904Y-81180952D01*
X148557142Y-81133333D01*
X148795238Y-81133333D01*
X148890476Y-81180952D01*
X148938095Y-81228571D01*
X148985714Y-81323809D01*
X148985714Y-81561904D01*
X148938095Y-81657142D01*
X148890476Y-81704761D01*
X148795238Y-81752380D01*
X148557142Y-81752380D01*
X148461904Y-81704761D01*
X148414285Y-81657142D01*
X145133333Y-84752380D02*
X144800000Y-84276190D01*
X144561904Y-84752380D02*
X144561904Y-83752380D01*
X144942857Y-83752380D01*
X145038095Y-83800000D01*
X145085714Y-83847619D01*
X145133333Y-83942857D01*
X145133333Y-84085714D01*
X145085714Y-84180952D01*
X145038095Y-84228571D01*
X144942857Y-84276190D01*
X144561904Y-84276190D01*
X145704761Y-84180952D02*
X145609523Y-84133333D01*
X145561904Y-84085714D01*
X145514285Y-83990476D01*
X145514285Y-83942857D01*
X145561904Y-83847619D01*
X145609523Y-83800000D01*
X145704761Y-83752380D01*
X145895238Y-83752380D01*
X145990476Y-83800000D01*
X146038095Y-83847619D01*
X146085714Y-83942857D01*
X146085714Y-83990476D01*
X146038095Y-84085714D01*
X145990476Y-84133333D01*
X145895238Y-84180952D01*
X145704761Y-84180952D01*
X145609523Y-84228571D01*
X145561904Y-84276190D01*
X145514285Y-84371428D01*
X145514285Y-84561904D01*
X145561904Y-84657142D01*
X145609523Y-84704761D01*
X145704761Y-84752380D01*
X145895238Y-84752380D01*
X145990476Y-84704761D01*
X146038095Y-84657142D01*
X146085714Y-84561904D01*
X146085714Y-84371428D01*
X146038095Y-84276190D01*
X145990476Y-84228571D01*
X145895238Y-84180952D01*
D11*
X153473809Y-98047619D02*
X153450000Y-98095238D01*
X153402380Y-98142857D01*
X153330952Y-98214285D01*
X153307142Y-98261904D01*
X153307142Y-98309523D01*
X153426190Y-98285714D02*
X153402380Y-98333333D01*
X153354761Y-98380952D01*
X153259523Y-98404761D01*
X153092857Y-98404761D01*
X152997619Y-98380952D01*
X152950000Y-98333333D01*
X152926190Y-98285714D01*
X152926190Y-98190476D01*
X152950000Y-98142857D01*
X152997619Y-98095238D01*
X153092857Y-98071428D01*
X153259523Y-98071428D01*
X153354761Y-98095238D01*
X153402380Y-98142857D01*
X153426190Y-98190476D01*
X153426190Y-98285714D01*
X153426190Y-97595238D02*
X153426190Y-97880952D01*
X153426190Y-97738095D02*
X152926190Y-97738095D01*
X152997619Y-97785714D01*
X153045238Y-97833333D01*
X153069047Y-97880952D01*
D10*
X145647619Y-98102380D02*
X145314285Y-97626190D01*
X145076190Y-98102380D02*
X145076190Y-97102380D01*
X145457142Y-97102380D01*
X145552380Y-97150000D01*
X145600000Y-97197619D01*
X145647619Y-97292857D01*
X145647619Y-97435714D01*
X145600000Y-97530952D01*
X145552380Y-97578571D01*
X145457142Y-97626190D01*
X145076190Y-97626190D01*
X145933333Y-97435714D02*
X146314285Y-97435714D01*
X146076190Y-97102380D02*
X146076190Y-97959523D01*
X146123809Y-98054761D01*
X146219047Y-98102380D01*
X146314285Y-98102380D01*
X147171428Y-98102380D02*
X146600000Y-98102380D01*
X146885714Y-98102380D02*
X146885714Y-97102380D01*
X146790476Y-97245238D01*
X146695238Y-97340476D01*
X146600000Y-97388095D01*
X145333333Y-89157142D02*
X145285714Y-89204761D01*
X145142857Y-89252380D01*
X145047619Y-89252380D01*
X144904761Y-89204761D01*
X144809523Y-89109523D01*
X144761904Y-89014285D01*
X144714285Y-88823809D01*
X144714285Y-88680952D01*
X144761904Y-88490476D01*
X144809523Y-88395238D01*
X144904761Y-88300000D01*
X145047619Y-88252380D01*
X145142857Y-88252380D01*
X145285714Y-88300000D01*
X145333333Y-88347619D01*
X145666666Y-88252380D02*
X146285714Y-88252380D01*
X145952380Y-88633333D01*
X146095238Y-88633333D01*
X146190476Y-88680952D01*
X146238095Y-88728571D01*
X146285714Y-88823809D01*
X146285714Y-89061904D01*
X146238095Y-89157142D01*
X146190476Y-89204761D01*
X146095238Y-89252380D01*
X145809523Y-89252380D01*
X145714285Y-89204761D01*
X145666666Y-89157142D01*
X149900000Y-94442380D02*
X149900000Y-94680476D01*
X149661904Y-94585238D02*
X149900000Y-94680476D01*
X150138095Y-94585238D01*
X149757142Y-94870952D02*
X149900000Y-94680476D01*
X150042857Y-94870952D01*
X145443333Y-104482380D02*
X145110000Y-104006190D01*
X144871904Y-104482380D02*
X144871904Y-103482380D01*
X145252857Y-103482380D01*
X145348095Y-103530000D01*
X145395714Y-103577619D01*
X145443333Y-103672857D01*
X145443333Y-103815714D01*
X145395714Y-103910952D01*
X145348095Y-103958571D01*
X145252857Y-104006190D01*
X144871904Y-104006190D01*
X146300476Y-103815714D02*
X146300476Y-104482380D01*
X146062380Y-103434761D02*
X145824285Y-104149047D01*
X146443333Y-104149047D01*
X155333333Y-91357142D02*
X155285714Y-91404761D01*
X155142857Y-91452380D01*
X155047619Y-91452380D01*
X154904761Y-91404761D01*
X154809523Y-91309523D01*
X154761904Y-91214285D01*
X154714285Y-91023809D01*
X154714285Y-90880952D01*
X154761904Y-90690476D01*
X154809523Y-90595238D01*
X154904761Y-90500000D01*
X155047619Y-90452380D01*
X155142857Y-90452380D01*
X155285714Y-90500000D01*
X155333333Y-90547619D01*
X156285714Y-91452380D02*
X155714285Y-91452380D01*
X156000000Y-91452380D02*
X156000000Y-90452380D01*
X155904761Y-90595238D01*
X155809523Y-90690476D01*
X155714285Y-90738095D01*
X150091833Y-84950880D02*
X149758500Y-84474690D01*
X149520404Y-84950880D02*
X149520404Y-83950880D01*
X149901357Y-83950880D01*
X149996595Y-83998500D01*
X150044214Y-84046119D01*
X150091833Y-84141357D01*
X150091833Y-84284214D01*
X150044214Y-84379452D01*
X149996595Y-84427071D01*
X149901357Y-84474690D01*
X149520404Y-84474690D01*
X150472785Y-84046119D02*
X150520404Y-83998500D01*
X150615642Y-83950880D01*
X150853738Y-83950880D01*
X150948976Y-83998500D01*
X150996595Y-84046119D01*
X151044214Y-84141357D01*
X151044214Y-84236595D01*
X150996595Y-84379452D01*
X150425166Y-84950880D01*
X151044214Y-84950880D01*
X150206000Y-85299880D02*
X150206000Y-85537976D01*
X149967904Y-85442738D02*
X150206000Y-85537976D01*
X150444095Y-85442738D01*
X150063142Y-85728452D02*
X150206000Y-85537976D01*
X150348857Y-85728452D01*
D11*
X155516666Y-96126190D02*
X155350000Y-95888095D01*
X155230952Y-96126190D02*
X155230952Y-95626190D01*
X155421428Y-95626190D01*
X155469047Y-95650000D01*
X155492857Y-95673809D01*
X155516666Y-95721428D01*
X155516666Y-95792857D01*
X155492857Y-95840476D01*
X155469047Y-95864285D01*
X155421428Y-95888095D01*
X155230952Y-95888095D01*
X155992857Y-96126190D02*
X155707142Y-96126190D01*
X155850000Y-96126190D02*
X155850000Y-95626190D01*
X155802380Y-95697619D01*
X155754761Y-95745238D01*
X155707142Y-95769047D01*
D10*
X150073333Y-66752380D02*
X149597142Y-66752380D01*
X149597142Y-65752380D01*
X150930476Y-66752380D02*
X150359047Y-66752380D01*
X150644761Y-66752380D02*
X150644761Y-65752380D01*
X150549523Y-65895238D01*
X150454285Y-65990476D01*
X150359047Y-66038095D01*
D12*
X151472936Y-80965000D02*
X151927064Y-80965000D01*
X151472936Y-82435000D02*
X151927064Y-82435000D01*
X148414320Y-83178276D02*
X149868448Y-83178276D01*
X148414320Y-84998276D02*
X149868448Y-84998276D01*
X152600000Y-99560000D02*
X154275000Y-99560000D01*
X152600000Y-96440000D02*
X151950000Y-96440000D01*
X152600000Y-96440000D02*
X153250000Y-96440000D01*
X152600000Y-99560000D02*
X151950000Y-99560000D01*
X146327064Y-95265000D02*
X145872936Y-95265000D01*
X146327064Y-96735000D02*
X145872936Y-96735000D01*
X141259000Y-77155000D02*
X159159000Y-77155000D01*
X159159000Y-77155000D02*
X159159000Y-112775000D01*
X159159000Y-112775000D02*
X141259000Y-112775000D01*
X141259000Y-112775000D02*
X141259000Y-77155000D01*
X146310000Y-92046267D02*
X146310000Y-91753733D01*
X145290000Y-92046267D02*
X145290000Y-91753733D01*
X148223600Y-94973200D02*
X148223600Y-95176400D01*
X151576400Y-92026800D02*
X151576400Y-91823600D01*
X148223600Y-91823600D02*
X148223600Y-92026800D01*
X151576400Y-95176400D02*
X151576400Y-94973200D01*
X151576400Y-91823600D02*
X148223600Y-91823600D01*
X148223600Y-95176400D02*
X151576400Y-95176400D01*
D13*
X146509100Y-94691260D02*
X146509100Y-94310260D01*
X146509100Y-94310260D02*
X146763100Y-94310260D01*
X146763100Y-94310260D02*
X146763100Y-94691260D01*
X146763100Y-94691260D02*
X146509100Y-94691260D01*
G36*
X146763100Y-94691260D02*
G01*
X146509100Y-94691260D01*
X146509100Y-94310260D01*
X146763100Y-94310260D01*
X146763100Y-94691260D01*
G37*
X146763100Y-94691260D02*
X146509100Y-94691260D01*
X146509100Y-94310260D01*
X146763100Y-94310260D01*
X146763100Y-94691260D01*
D12*
X151517000Y-102603000D02*
X151517000Y-110055360D01*
X151517000Y-110055360D02*
X144151000Y-110055360D01*
X151517000Y-102603000D02*
X144151000Y-102603000D01*
X144151000Y-102603000D02*
X144151000Y-110055360D01*
X153565000Y-93761252D02*
X153565000Y-93238748D01*
X155035000Y-93761252D02*
X155035000Y-93238748D01*
X146536000Y-82349320D02*
X146536000Y-89801680D01*
X153902000Y-82349320D02*
X146536000Y-82349320D01*
X153902000Y-82349320D02*
X153902000Y-89801680D01*
X153902000Y-89801680D02*
X146536000Y-89801680D01*
X154865000Y-98127064D02*
X154865000Y-97672936D01*
X156335000Y-98127064D02*
X156335000Y-97672936D01*
X156540000Y-80000000D02*
X143940000Y-80000000D01*
X143940000Y-70400000D02*
X143940000Y-67400000D01*
X143940000Y-67400000D02*
X156540000Y-67400000D01*
X143940000Y-80000000D02*
X143940000Y-77000000D01*
X156540000Y-67400000D02*
X156540000Y-70400000D01*
X156540000Y-77000000D02*
X156540000Y-80000000D01*
%LPC*%
D14*
X150700000Y-81700000D03*
X152700000Y-81700000D03*
D15*
X147591384Y-84088276D03*
X150691384Y-84088276D03*
D16*
X153537500Y-98950000D03*
X153537500Y-97050000D03*
X151662500Y-98000000D03*
D17*
X147100000Y-96000000D03*
X145100000Y-96000000D03*
D18*
X160800000Y-112600000D03*
D19*
X142729000Y-78655000D03*
X157659000Y-78655000D03*
D20*
X157659000Y-108655000D03*
X160659000Y-108655000D03*
X160659000Y-106155000D03*
X157659000Y-106155000D03*
X157659000Y-103655000D03*
X160659000Y-103655000D03*
X157659000Y-101155000D03*
X160659000Y-101155000D03*
X157659000Y-98655000D03*
X160559000Y-98655000D03*
X157659000Y-96155000D03*
X160659000Y-96155000D03*
X157659000Y-93655000D03*
X160659000Y-93655000D03*
X160659000Y-91155000D03*
X157659000Y-91155000D03*
X157659000Y-88655000D03*
X160659000Y-88655000D03*
X160659000Y-86155000D03*
X157659000Y-86155000D03*
X143559000Y-111555000D03*
X146159000Y-111555000D03*
X146259000Y-114055000D03*
X160659000Y-83655000D03*
X157659000Y-83655000D03*
X143559000Y-114055000D03*
X160659000Y-81255000D03*
X157659000Y-81255000D03*
X142759000Y-81255000D03*
X139859000Y-81255000D03*
X139859000Y-83755000D03*
X142759000Y-83755000D03*
X139859000Y-86255000D03*
X142759000Y-86255000D03*
X142759000Y-88655000D03*
X139859000Y-88655000D03*
X142759000Y-91255000D03*
X139859000Y-91255000D03*
X142759000Y-93755000D03*
X139859000Y-93755000D03*
X142759000Y-96255000D03*
X139859000Y-96255000D03*
X142759000Y-98755000D03*
X139859000Y-98755000D03*
X139859000Y-101155000D03*
X142759000Y-101155000D03*
X142759000Y-103655000D03*
X139859000Y-103655000D03*
X139859000Y-106255000D03*
X142759000Y-106255000D03*
X142759000Y-108655000D03*
X139849000Y-108655000D03*
X148759000Y-114055000D03*
X148759000Y-111555000D03*
X151359000Y-111555000D03*
X151359000Y-114055000D03*
X153959000Y-111555000D03*
X153959000Y-114055000D03*
X156559000Y-111555000D03*
X156559000Y-114055000D03*
D18*
X139700000Y-112600000D03*
D21*
X145800000Y-92762500D03*
X145800000Y-91037500D03*
D18*
X150500000Y-70600000D03*
D22*
X152116150Y-94500760D03*
X152116150Y-94000380D03*
X152116150Y-93500000D03*
X152116150Y-92999620D03*
X152116150Y-92499240D03*
X147683850Y-92499240D03*
X147683850Y-92999620D03*
X147683850Y-93500000D03*
X147683850Y-94000380D03*
X147683850Y-94500760D03*
D23*
X149690000Y-107130000D03*
X147890000Y-105230000D03*
X146090000Y-107130000D03*
D24*
X154300000Y-94537500D03*
X154300000Y-92462500D03*
D23*
X147719000Y-86274500D03*
X150219000Y-88774500D03*
X152719000Y-86274500D03*
D25*
X155600000Y-98900000D03*
X155600000Y-96900000D03*
D26*
X145290000Y-73700000D03*
X155190000Y-73700000D03*
D27*
X146250000Y-100285000D03*
D28*
X148790000Y-100285000D03*
D27*
X154025000Y-103075000D03*
D28*
X154025000Y-105615000D03*
X154025000Y-108155000D03*
M02*
