G04 #@! TF.GenerationSoftware,KiCad,Pcbnew,(6.0.1)*
G04 #@! TF.CreationDate,2022-04-24T16:28:56-07:00*
G04 #@! TF.ProjectId,PS_controller,50535f63-6f6e-4747-926f-6c6c65722e6b,rev?*
G04 #@! TF.SameCoordinates,Original*
G04 #@! TF.FileFunction,Legend,Top*
G04 #@! TF.FilePolarity,Positive*
%FSLAX46Y46*%
G04 Gerber Fmt 4.6, Leading zero omitted, Abs format (unit mm)*
G04 Created by KiCad (PCBNEW (6.0.1)) date 2022-04-24 16:28:56*
%MOMM*%
%LPD*%
G01*
G04 APERTURE LIST*
G04 Aperture macros list*
%AMRoundRect*
0 Rectangle with rounded corners*
0 $1 Rounding radius*
0 $2 $3 $4 $5 $6 $7 $8 $9 X,Y pos of 4 corners*
0 Add a 4 corners polygon primitive as box body*
4,1,4,$2,$3,$4,$5,$6,$7,$8,$9,$2,$3,0*
0 Add four circle primitives for the rounded corners*
1,1,$1+$1,$2,$3*
1,1,$1+$1,$4,$5*
1,1,$1+$1,$6,$7*
1,1,$1+$1,$8,$9*
0 Add four rect primitives between the rounded corners*
20,1,$1+$1,$2,$3,$4,$5,0*
20,1,$1+$1,$4,$5,$6,$7,0*
20,1,$1+$1,$6,$7,$8,$9,0*
20,1,$1+$1,$8,$9,$2,$3,0*%
G04 Aperture macros list end*
%ADD10C,0.150000*%
%ADD11C,0.120000*%
%ADD12C,0.100000*%
%ADD13R,1.700000X1.700000*%
%ADD14O,1.700000X1.700000*%
%ADD15R,1.200000X0.900000*%
%ADD16RoundRect,0.160000X0.197500X0.160000X-0.197500X0.160000X-0.197500X-0.160000X0.197500X-0.160000X0*%
%ADD17C,2.500000*%
%ADD18RoundRect,0.150000X-0.150000X0.587500X-0.150000X-0.587500X0.150000X-0.587500X0.150000X0.587500X0*%
%ADD19C,2.200000*%
%ADD20C,1.750000*%
%ADD21RoundRect,0.132750X0.888750X0.132750X-0.888750X0.132750X-0.888750X-0.132750X0.888750X-0.132750X0*%
%ADD22RoundRect,0.125000X0.996500X0.125000X-0.996500X0.125000X-0.996500X-0.125000X0.996500X-0.125000X0*%
%ADD23RoundRect,0.250000X-0.400000X-0.625000X0.400000X-0.625000X0.400000X0.625000X-0.400000X0.625000X0*%
%ADD24RoundRect,0.237500X-0.237500X0.300000X-0.237500X-0.300000X0.237500X-0.300000X0.237500X0.300000X0*%
%ADD25RoundRect,0.250000X0.475000X-0.337500X0.475000X0.337500X-0.475000X0.337500X-0.475000X-0.337500X0*%
%ADD26R,1.333500X0.279400*%
%ADD27C,1.498600*%
%ADD28RoundRect,0.250000X-0.475000X0.337500X-0.475000X-0.337500X0.475000X-0.337500X0.475000X0.337500X0*%
%ADD29RoundRect,0.250000X-0.412500X-0.650000X0.412500X-0.650000X0.412500X0.650000X-0.412500X0.650000X0*%
%ADD30R,5.400000X2.900000*%
%ADD31RoundRect,0.250000X-0.337500X-0.475000X0.337500X-0.475000X0.337500X0.475000X-0.337500X0.475000X0*%
%ADD32RoundRect,0.237500X0.250000X0.237500X-0.250000X0.237500X-0.250000X-0.237500X0.250000X-0.237500X0*%
G04 APERTURE END LIST*
D10*
X217557380Y-111968333D02*
X218271666Y-111968333D01*
X218414523Y-112015952D01*
X218509761Y-112111190D01*
X218557380Y-112254047D01*
X218557380Y-112349285D01*
X217652619Y-111539761D02*
X217605000Y-111492142D01*
X217557380Y-111396904D01*
X217557380Y-111158809D01*
X217605000Y-111063571D01*
X217652619Y-111015952D01*
X217747857Y-110968333D01*
X217843095Y-110968333D01*
X217985952Y-111015952D01*
X218557380Y-111587380D01*
X218557380Y-110968333D01*
X173966380Y-77192095D02*
X172966380Y-77192095D01*
X172966380Y-76954000D01*
X173014000Y-76811142D01*
X173109238Y-76715904D01*
X173204476Y-76668285D01*
X173394952Y-76620666D01*
X173537809Y-76620666D01*
X173728285Y-76668285D01*
X173823523Y-76715904D01*
X173918761Y-76811142D01*
X173966380Y-76954000D01*
X173966380Y-77192095D01*
X173966380Y-75668285D02*
X173966380Y-76239714D01*
X173966380Y-75954000D02*
X172966380Y-75954000D01*
X173109238Y-76049238D01*
X173204476Y-76144476D01*
X173252095Y-76239714D01*
X186999619Y-77834880D02*
X186666285Y-77358690D01*
X186428190Y-77834880D02*
X186428190Y-76834880D01*
X186809142Y-76834880D01*
X186904380Y-76882500D01*
X186952000Y-76930119D01*
X186999619Y-77025357D01*
X186999619Y-77168214D01*
X186952000Y-77263452D01*
X186904380Y-77311071D01*
X186809142Y-77358690D01*
X186428190Y-77358690D01*
X187285333Y-77168214D02*
X187666285Y-77168214D01*
X187428190Y-76834880D02*
X187428190Y-77692023D01*
X187475809Y-77787261D01*
X187571047Y-77834880D01*
X187666285Y-77834880D01*
X188523428Y-77834880D02*
X187952000Y-77834880D01*
X188237714Y-77834880D02*
X188237714Y-76834880D01*
X188142476Y-76977738D01*
X188047238Y-77072976D01*
X187952000Y-77120595D01*
X198120095Y-106934380D02*
X198120095Y-105934380D01*
X198120095Y-106410571D02*
X198691523Y-106410571D01*
X198691523Y-106934380D02*
X198691523Y-105934380D01*
X199691523Y-106934380D02*
X199120095Y-106934380D01*
X199405809Y-106934380D02*
X199405809Y-105934380D01*
X199310571Y-106077238D01*
X199215333Y-106172476D01*
X199120095Y-106220095D01*
X174345619Y-81240738D02*
X174298000Y-81335976D01*
X174202761Y-81431214D01*
X174059904Y-81574071D01*
X174012285Y-81669309D01*
X174012285Y-81764547D01*
X174250380Y-81716928D02*
X174202761Y-81812166D01*
X174107523Y-81907404D01*
X173917047Y-81955023D01*
X173583714Y-81955023D01*
X173393238Y-81907404D01*
X173298000Y-81812166D01*
X173250380Y-81716928D01*
X173250380Y-81526452D01*
X173298000Y-81431214D01*
X173393238Y-81335976D01*
X173583714Y-81288357D01*
X173917047Y-81288357D01*
X174107523Y-81335976D01*
X174202761Y-81431214D01*
X174250380Y-81526452D01*
X174250380Y-81716928D01*
X174250380Y-80335976D02*
X174250380Y-80907404D01*
X174250380Y-80621690D02*
X173250380Y-80621690D01*
X173393238Y-80716928D01*
X173488476Y-80812166D01*
X173536095Y-80907404D01*
X213653095Y-81957380D02*
X214224523Y-81957380D01*
X213938809Y-82957380D02*
X213938809Y-81957380D01*
X215081666Y-82957380D02*
X214510238Y-82957380D01*
X214795952Y-82957380D02*
X214795952Y-81957380D01*
X214700714Y-82100238D01*
X214605476Y-82195476D01*
X214510238Y-82243095D01*
X198053333Y-88577142D02*
X198005714Y-88624761D01*
X197862857Y-88672380D01*
X197767619Y-88672380D01*
X197624761Y-88624761D01*
X197529523Y-88529523D01*
X197481904Y-88434285D01*
X197434285Y-88243809D01*
X197434285Y-88100952D01*
X197481904Y-87910476D01*
X197529523Y-87815238D01*
X197624761Y-87720000D01*
X197767619Y-87672380D01*
X197862857Y-87672380D01*
X198005714Y-87720000D01*
X198053333Y-87767619D01*
X198910476Y-87672380D02*
X198720000Y-87672380D01*
X198624761Y-87720000D01*
X198577142Y-87767619D01*
X198481904Y-87910476D01*
X198434285Y-88100952D01*
X198434285Y-88481904D01*
X198481904Y-88577142D01*
X198529523Y-88624761D01*
X198624761Y-88672380D01*
X198815238Y-88672380D01*
X198910476Y-88624761D01*
X198958095Y-88577142D01*
X199005714Y-88481904D01*
X199005714Y-88243809D01*
X198958095Y-88148571D01*
X198910476Y-88100952D01*
X198815238Y-88053333D01*
X198624761Y-88053333D01*
X198529523Y-88100952D01*
X198481904Y-88148571D01*
X198434285Y-88243809D01*
X190772380Y-73158333D02*
X191486666Y-73158333D01*
X191629523Y-73205952D01*
X191724761Y-73301190D01*
X191772380Y-73444047D01*
X191772380Y-73539285D01*
X191105714Y-72253571D02*
X191772380Y-72253571D01*
X190724761Y-72491666D02*
X191439047Y-72729761D01*
X191439047Y-72110714D01*
X201413333Y-86822380D02*
X201080000Y-86346190D01*
X200841904Y-86822380D02*
X200841904Y-85822380D01*
X201222857Y-85822380D01*
X201318095Y-85870000D01*
X201365714Y-85917619D01*
X201413333Y-86012857D01*
X201413333Y-86155714D01*
X201365714Y-86250952D01*
X201318095Y-86298571D01*
X201222857Y-86346190D01*
X200841904Y-86346190D01*
X201746666Y-85822380D02*
X202413333Y-85822380D01*
X201984761Y-86822380D01*
X194081142Y-81379166D02*
X194128761Y-81426785D01*
X194176380Y-81569642D01*
X194176380Y-81664880D01*
X194128761Y-81807738D01*
X194033523Y-81902976D01*
X193938285Y-81950595D01*
X193747809Y-81998214D01*
X193604952Y-81998214D01*
X193414476Y-81950595D01*
X193319238Y-81902976D01*
X193224000Y-81807738D01*
X193176380Y-81664880D01*
X193176380Y-81569642D01*
X193224000Y-81426785D01*
X193271619Y-81379166D01*
X193176380Y-81045833D02*
X193176380Y-80426785D01*
X193557333Y-80760119D01*
X193557333Y-80617261D01*
X193604952Y-80522023D01*
X193652571Y-80474404D01*
X193747809Y-80426785D01*
X193985904Y-80426785D01*
X194081142Y-80474404D01*
X194128761Y-80522023D01*
X194176380Y-80617261D01*
X194176380Y-80902976D01*
X194128761Y-80998214D01*
X194081142Y-81045833D01*
X192377142Y-77619166D02*
X192424761Y-77666785D01*
X192472380Y-77809642D01*
X192472380Y-77904880D01*
X192424761Y-78047738D01*
X192329523Y-78142976D01*
X192234285Y-78190595D01*
X192043809Y-78238214D01*
X191900952Y-78238214D01*
X191710476Y-78190595D01*
X191615238Y-78142976D01*
X191520000Y-78047738D01*
X191472380Y-77904880D01*
X191472380Y-77809642D01*
X191520000Y-77666785D01*
X191567619Y-77619166D01*
X191805714Y-76762023D02*
X192472380Y-76762023D01*
X191424761Y-77000119D02*
X192139047Y-77238214D01*
X192139047Y-76619166D01*
X226209666Y-97198380D02*
X226209666Y-97912666D01*
X226162047Y-98055523D01*
X226066809Y-98150761D01*
X225923952Y-98198380D01*
X225828714Y-98198380D01*
X226590619Y-97198380D02*
X227209666Y-97198380D01*
X226876333Y-97579333D01*
X227019190Y-97579333D01*
X227114428Y-97626952D01*
X227162047Y-97674571D01*
X227209666Y-97769809D01*
X227209666Y-98007904D01*
X227162047Y-98103142D01*
X227114428Y-98150761D01*
X227019190Y-98198380D01*
X226733476Y-98198380D01*
X226638238Y-98150761D01*
X226590619Y-98103142D01*
X186292095Y-79214880D02*
X186292095Y-80024404D01*
X186339714Y-80119642D01*
X186387333Y-80167261D01*
X186482571Y-80214880D01*
X186673047Y-80214880D01*
X186768285Y-80167261D01*
X186815904Y-80119642D01*
X186863523Y-80024404D01*
X186863523Y-79214880D01*
X187863523Y-80214880D02*
X187292095Y-80214880D01*
X187577809Y-80214880D02*
X187577809Y-79214880D01*
X187482571Y-79357738D01*
X187387333Y-79452976D01*
X187292095Y-79500595D01*
X186994000Y-78514880D02*
X186994000Y-78752976D01*
X186755904Y-78657738D02*
X186994000Y-78752976D01*
X187232095Y-78657738D01*
X186851142Y-78943452D02*
X186994000Y-78752976D01*
X187136857Y-78943452D01*
X176221666Y-82280380D02*
X176221666Y-82994666D01*
X176174047Y-83137523D01*
X176078809Y-83232761D01*
X175935952Y-83280380D01*
X175840714Y-83280380D01*
X177221666Y-83280380D02*
X176650238Y-83280380D01*
X176935952Y-83280380D02*
X176935952Y-82280380D01*
X176840714Y-82423238D01*
X176745476Y-82518476D01*
X176650238Y-82566095D01*
X198118833Y-101847880D02*
X197785500Y-101371690D01*
X197547404Y-101847880D02*
X197547404Y-100847880D01*
X197928357Y-100847880D01*
X198023595Y-100895500D01*
X198071214Y-100943119D01*
X198118833Y-101038357D01*
X198118833Y-101181214D01*
X198071214Y-101276452D01*
X198023595Y-101324071D01*
X197928357Y-101371690D01*
X197547404Y-101371690D01*
X198975976Y-101181214D02*
X198975976Y-101847880D01*
X198737880Y-100800261D02*
X198499785Y-101514547D01*
X199118833Y-101514547D01*
X182631142Y-80409166D02*
X182678761Y-80456785D01*
X182726380Y-80599642D01*
X182726380Y-80694880D01*
X182678761Y-80837738D01*
X182583523Y-80932976D01*
X182488285Y-80980595D01*
X182297809Y-81028214D01*
X182154952Y-81028214D01*
X181964476Y-80980595D01*
X181869238Y-80932976D01*
X181774000Y-80837738D01*
X181726380Y-80694880D01*
X181726380Y-80599642D01*
X181774000Y-80456785D01*
X181821619Y-80409166D01*
X182726380Y-79456785D02*
X182726380Y-80028214D01*
X182726380Y-79742500D02*
X181726380Y-79742500D01*
X181869238Y-79837738D01*
X181964476Y-79932976D01*
X182012095Y-80028214D01*
X198433333Y-79652380D02*
X198100000Y-79176190D01*
X197861904Y-79652380D02*
X197861904Y-78652380D01*
X198242857Y-78652380D01*
X198338095Y-78700000D01*
X198385714Y-78747619D01*
X198433333Y-78842857D01*
X198433333Y-78985714D01*
X198385714Y-79080952D01*
X198338095Y-79128571D01*
X198242857Y-79176190D01*
X197861904Y-79176190D01*
X198814285Y-78747619D02*
X198861904Y-78700000D01*
X198957142Y-78652380D01*
X199195238Y-78652380D01*
X199290476Y-78700000D01*
X199338095Y-78747619D01*
X199385714Y-78842857D01*
X199385714Y-78938095D01*
X199338095Y-79080952D01*
X198766666Y-79652380D01*
X199385714Y-79652380D01*
X199213000Y-76779380D02*
X199213000Y-77017476D01*
X198974904Y-76922238D02*
X199213000Y-77017476D01*
X199451095Y-76922238D01*
X199070142Y-77207952D02*
X199213000Y-77017476D01*
X199355857Y-77207952D01*
X225298095Y-74422380D02*
X225298095Y-73422380D01*
X225298095Y-73898571D02*
X225869523Y-73898571D01*
X225869523Y-74422380D02*
X225869523Y-73422380D01*
X226298095Y-73517619D02*
X226345714Y-73470000D01*
X226440952Y-73422380D01*
X226679047Y-73422380D01*
X226774285Y-73470000D01*
X226821904Y-73517619D01*
X226869523Y-73612857D01*
X226869523Y-73708095D01*
X226821904Y-73850952D01*
X226250476Y-74422380D01*
X226869523Y-74422380D01*
X189233333Y-100657142D02*
X189185714Y-100704761D01*
X189042857Y-100752380D01*
X188947619Y-100752380D01*
X188804761Y-100704761D01*
X188709523Y-100609523D01*
X188661904Y-100514285D01*
X188614285Y-100323809D01*
X188614285Y-100180952D01*
X188661904Y-99990476D01*
X188709523Y-99895238D01*
X188804761Y-99800000D01*
X188947619Y-99752380D01*
X189042857Y-99752380D01*
X189185714Y-99800000D01*
X189233333Y-99847619D01*
X189614285Y-99847619D02*
X189661904Y-99800000D01*
X189757142Y-99752380D01*
X189995238Y-99752380D01*
X190090476Y-99800000D01*
X190138095Y-99847619D01*
X190185714Y-99942857D01*
X190185714Y-100038095D01*
X190138095Y-100180952D01*
X189566666Y-100752380D01*
X190185714Y-100752380D01*
X189566380Y-90134666D02*
X189566380Y-90610857D01*
X188566380Y-90610857D01*
X189566380Y-89277523D02*
X189566380Y-89848952D01*
X189566380Y-89563238D02*
X188566380Y-89563238D01*
X188709238Y-89658476D01*
X188804476Y-89753714D01*
X188852095Y-89848952D01*
X200023333Y-92157142D02*
X199975714Y-92204761D01*
X199832857Y-92252380D01*
X199737619Y-92252380D01*
X199594761Y-92204761D01*
X199499523Y-92109523D01*
X199451904Y-92014285D01*
X199404285Y-91823809D01*
X199404285Y-91680952D01*
X199451904Y-91490476D01*
X199499523Y-91395238D01*
X199594761Y-91300000D01*
X199737619Y-91252380D01*
X199832857Y-91252380D01*
X199975714Y-91300000D01*
X200023333Y-91347619D01*
X200928095Y-91252380D02*
X200451904Y-91252380D01*
X200404285Y-91728571D01*
X200451904Y-91680952D01*
X200547142Y-91633333D01*
X200785238Y-91633333D01*
X200880476Y-91680952D01*
X200928095Y-91728571D01*
X200975714Y-91823809D01*
X200975714Y-92061904D01*
X200928095Y-92157142D01*
X200880476Y-92204761D01*
X200785238Y-92252380D01*
X200547142Y-92252380D01*
X200451904Y-92204761D01*
X200404285Y-92157142D01*
D11*
X216665000Y-111635000D02*
X216665000Y-112965000D01*
X214065000Y-110305000D02*
X208925000Y-110305000D01*
X214065000Y-110305000D02*
X214065000Y-112965000D01*
X216665000Y-112965000D02*
X215335000Y-112965000D01*
X208925000Y-110305000D02*
X208925000Y-112965000D01*
X214065000Y-112965000D02*
X208925000Y-112965000D01*
X176514000Y-78704000D02*
X176514000Y-74804000D01*
X174514000Y-78704000D02*
X174514000Y-74804000D01*
X174514000Y-78704000D02*
X176514000Y-78704000D01*
X187619621Y-76592500D02*
X187284379Y-76592500D01*
X187619621Y-75832500D02*
X187284379Y-75832500D01*
X172958000Y-81145500D02*
X172958000Y-79470500D01*
X169838000Y-81145500D02*
X169838000Y-81795500D01*
X169838000Y-81145500D02*
X169838000Y-80495500D01*
X172958000Y-81145500D02*
X172958000Y-81795500D01*
X204215000Y-71005000D02*
X222115000Y-71005000D01*
X222115000Y-71005000D02*
X222115000Y-107205000D01*
X222115000Y-107205000D02*
X204215000Y-107205000D01*
X204215000Y-107205000D02*
X204215000Y-71005000D01*
X184680000Y-71495000D02*
X184680000Y-74155000D01*
X189880000Y-72825000D02*
X189880000Y-74155000D01*
X187280000Y-71495000D02*
X187280000Y-74155000D01*
X189880000Y-74155000D02*
X188550000Y-74155000D01*
X187280000Y-71495000D02*
X184680000Y-71495000D01*
X187280000Y-74155000D02*
X184680000Y-74155000D01*
X197382936Y-85412000D02*
X198837064Y-85412000D01*
X197382936Y-87232000D02*
X198837064Y-87232000D01*
X191784000Y-81066233D02*
X191784000Y-81358767D01*
X192804000Y-81066233D02*
X192804000Y-81358767D01*
X194435000Y-77713752D02*
X194435000Y-77191248D01*
X192965000Y-77713752D02*
X192965000Y-77191248D01*
X227873000Y-93706000D02*
X225213000Y-93706000D01*
X225213000Y-96306000D02*
X225213000Y-94976000D01*
X226543000Y-96306000D02*
X225213000Y-96306000D01*
X227873000Y-93706000D02*
X227873000Y-91106000D01*
X227873000Y-91106000D02*
X225213000Y-91106000D01*
X225213000Y-93706000D02*
X225213000Y-91106000D01*
X188670400Y-78389300D02*
X188670400Y-78186100D01*
X185317600Y-81335700D02*
X185317600Y-81538900D01*
X188670400Y-81538900D02*
X188670400Y-81335700D01*
X185317600Y-78186100D02*
X185317600Y-78389300D01*
X185317600Y-81538900D02*
X188670400Y-81538900D01*
X188670400Y-78186100D02*
X185317600Y-78186100D01*
D12*
X190384900Y-78671240D02*
X190384900Y-79052240D01*
X190384900Y-79052240D02*
X190130900Y-79052240D01*
X190130900Y-79052240D02*
X190130900Y-78671240D01*
X190130900Y-78671240D02*
X190384900Y-78671240D01*
G36*
X190384900Y-79052240D02*
G01*
X190130900Y-79052240D01*
X190130900Y-78671240D01*
X190384900Y-78671240D01*
X190384900Y-79052240D01*
G37*
X190384900Y-79052240D02*
X190130900Y-79052240D01*
X190130900Y-78671240D01*
X190384900Y-78671240D01*
X190384900Y-79052240D01*
D11*
X175225000Y-86868000D02*
X175225000Y-92008000D01*
X175225000Y-92008000D02*
X177885000Y-92008000D01*
X176555000Y-84268000D02*
X177885000Y-84268000D01*
X177885000Y-86868000D02*
X177885000Y-92008000D01*
X175225000Y-86868000D02*
X177885000Y-86868000D01*
X177885000Y-84268000D02*
X177885000Y-85598000D01*
X194858500Y-100422500D02*
X194858500Y-92970140D01*
X194858500Y-92970140D02*
X202224500Y-92970140D01*
X194858500Y-100422500D02*
X202224500Y-100422500D01*
X202224500Y-100422500D02*
X202224500Y-92970140D01*
X181329000Y-79981248D02*
X181329000Y-80503752D01*
X179859000Y-79981248D02*
X179859000Y-80503752D01*
X195517000Y-73372820D02*
X202883000Y-73372820D01*
X195517000Y-80825180D02*
X195517000Y-73372820D01*
X195517000Y-80825180D02*
X202883000Y-80825180D01*
X202883000Y-80825180D02*
X202883000Y-73372820D01*
X188688748Y-97390000D02*
X190111252Y-97390000D01*
X188688748Y-99210000D02*
X190111252Y-99210000D01*
X193300000Y-83600000D02*
X193300000Y-96200000D01*
X183700000Y-96200000D02*
X180700000Y-96200000D01*
X190300000Y-83600000D02*
X193300000Y-83600000D01*
X180700000Y-83600000D02*
X183700000Y-83600000D01*
X180700000Y-96200000D02*
X180700000Y-83600000D01*
X193300000Y-96200000D02*
X190300000Y-96200000D01*
X196748748Y-90965000D02*
X197271252Y-90965000D01*
X196748748Y-92435000D02*
X197271252Y-92435000D01*
X198974724Y-84642500D02*
X198465276Y-84642500D01*
X198974724Y-83597500D02*
X198465276Y-83597500D01*
%LPC*%
D13*
X215335000Y-111635000D03*
D14*
X212795000Y-111635000D03*
X210255000Y-111635000D03*
D15*
X175514000Y-78104000D03*
X175514000Y-74804000D03*
D16*
X188049500Y-76212500D03*
X186854500Y-76212500D03*
D17*
X198882000Y-109982000D03*
D18*
X172348000Y-80208000D03*
X170448000Y-80208000D03*
X171398000Y-82083000D03*
D19*
X206215000Y-72905000D03*
X220115000Y-72905000D03*
D20*
X220615000Y-102505000D03*
X220615000Y-100005000D03*
X214315000Y-105405000D03*
X216915000Y-105405000D03*
X220615000Y-97505000D03*
X220615000Y-95005000D03*
X220615000Y-92505000D03*
X220615000Y-90005000D03*
X220615000Y-87505000D03*
X220615000Y-85005000D03*
X220615000Y-82505000D03*
X211715000Y-105405000D03*
X220615000Y-80005000D03*
X206515000Y-105405000D03*
X209115000Y-105405000D03*
X220615000Y-77505000D03*
X220615000Y-75105000D03*
X205715000Y-75105000D03*
X205715000Y-77605000D03*
X205715000Y-80105000D03*
X205715000Y-82605000D03*
X205715000Y-85105000D03*
X205715000Y-87605000D03*
X205715000Y-90105000D03*
X205715000Y-92605000D03*
X205715000Y-95105000D03*
X205715000Y-97605000D03*
X205715000Y-100105000D03*
X205715000Y-102605000D03*
X219515000Y-105405000D03*
D21*
X199570000Y-89280000D03*
D22*
X196870000Y-89280000D03*
D13*
X188550000Y-72825000D03*
D14*
X186010000Y-72825000D03*
D23*
X196560000Y-86322000D03*
X199660000Y-86322000D03*
D24*
X192294000Y-80350000D03*
X192294000Y-82075000D03*
D25*
X193700000Y-78490000D03*
X193700000Y-76415000D03*
D13*
X226543000Y-94976000D03*
D14*
X226543000Y-92436000D03*
D26*
X184777850Y-78861740D03*
X184777850Y-79362120D03*
X184777850Y-79862500D03*
X184777850Y-80362880D03*
X184777850Y-80863260D03*
X189210150Y-80863260D03*
X189210150Y-80362880D03*
X189210150Y-79862500D03*
X189210150Y-79362120D03*
X189210150Y-78861740D03*
D13*
X176555000Y-85598000D03*
D14*
X176555000Y-88138000D03*
X176555000Y-90678000D03*
D27*
X196685500Y-95895500D03*
X198485500Y-97795500D03*
X200285500Y-95895500D03*
D28*
X180594000Y-79205000D03*
X180594000Y-81280000D03*
D27*
X196700000Y-76900000D03*
X199200000Y-74400000D03*
X201700000Y-76900000D03*
D17*
X226060000Y-77470000D03*
D29*
X187837500Y-98300000D03*
X190962500Y-98300000D03*
D30*
X187000000Y-84950000D03*
X187000000Y-94850000D03*
D31*
X195972500Y-91700000D03*
X198047500Y-91700000D03*
D32*
X199632500Y-84120000D03*
X197807500Y-84120000D03*
M02*
