M48
; DRILL file {KiCad (6.0.1)} date Sun Apr 24 16:28:58 2022
; FORMAT={-:-/ absolute / metric / decimal}
; #@! TF.CreationDate,2022-04-24T16:28:58-07:00
; #@! TF.GenerationSoftware,Kicad,Pcbnew,(6.0.1)
; #@! TF.FileFunction,Plated,1,2,PTH
FMAT,2
METRIC
; #@! TA.AperFunction,Plated,PTH,ViaDrill
T1C0.400
; #@! TA.AperFunction,Plated,PTH,ComponentDrill
T2C0.900
; #@! TA.AperFunction,Plated,PTH,ComponentDrill
T3C0.991
; #@! TA.AperFunction,Plated,PTH,ComponentDrill
T4C1.000
%
G90
G05
T1
X175.514Y-72.39
X176.276Y-80.772
X184.658Y-77.47
X187.0Y-79.7
X191.09Y-100.9
X193.7Y-73.2
T2
X206.515Y-105.405
X209.115Y-105.405
X211.715Y-105.405
X214.315Y-105.405
X216.915Y-105.405
X219.515Y-105.405
T3
X196.685Y-95.895
X196.7Y-76.9
X198.486Y-97.795
X199.2Y-74.4
X200.285Y-95.895
X201.7Y-76.9
T4
X176.555Y-85.598
X176.555Y-88.138
X176.555Y-90.678
X186.01Y-72.825
X188.55Y-72.825
X205.715Y-75.105
X205.715Y-77.605
X205.715Y-80.105
X205.715Y-82.605
X205.715Y-85.105
X205.715Y-87.605
X205.715Y-90.105
X205.715Y-92.605
X205.715Y-95.105
X205.715Y-97.605
X205.715Y-100.105
X205.715Y-102.605
X210.255Y-111.635
X212.795Y-111.635
X215.335Y-111.635
X220.615Y-75.105
X220.615Y-77.505
X220.615Y-80.005
X220.615Y-82.505
X220.615Y-85.005
X220.615Y-87.505
X220.615Y-90.005
X220.615Y-92.505
X220.615Y-95.005
X220.615Y-97.505
X220.615Y-100.005
X220.615Y-102.505
X226.543Y-92.436
X226.543Y-94.976
T0
M30
