G04 #@! TF.GenerationSoftware,KiCad,Pcbnew,(6.0.1)*
G04 #@! TF.CreationDate,2022-06-09T11:36:19-07:00*
G04 #@! TF.ProjectId,PS_controller_rev1_2,50535f63-6f6e-4747-926f-6c6c65725f72,rev?*
G04 #@! TF.SameCoordinates,Original*
G04 #@! TF.FileFunction,Legend,Bot*
G04 #@! TF.FilePolarity,Positive*
%FSLAX46Y46*%
G04 Gerber Fmt 4.6, Leading zero omitted, Abs format (unit mm)*
G04 Created by KiCad (PCBNEW (6.0.1)) date 2022-06-09 11:36:19*
%MOMM*%
%LPD*%
G01*
G04 APERTURE LIST*
G04 Aperture macros list*
%AMRoundRect*
0 Rectangle with rounded corners*
0 $1 Rounding radius*
0 $2 $3 $4 $5 $6 $7 $8 $9 X,Y pos of 4 corners*
0 Add a 4 corners polygon primitive as box body*
4,1,4,$2,$3,$4,$5,$6,$7,$8,$9,$2,$3,0*
0 Add four circle primitives for the rounded corners*
1,1,$1+$1,$2,$3*
1,1,$1+$1,$4,$5*
1,1,$1+$1,$6,$7*
1,1,$1+$1,$8,$9*
0 Add four rect primitives between the rounded corners*
20,1,$1+$1,$2,$3,$4,$5,0*
20,1,$1+$1,$4,$5,$6,$7,0*
20,1,$1+$1,$6,$7,$8,$9,0*
20,1,$1+$1,$8,$9,$2,$3,0*%
G04 Aperture macros list end*
%ADD10C,0.150000*%
%ADD11C,0.125000*%
%ADD12C,0.120000*%
%ADD13C,2.500000*%
%ADD14C,2.300000*%
%ADD15C,1.750000*%
%ADD16C,1.498600*%
%ADD17R,1.200000X0.900000*%
%ADD18RoundRect,0.187500X0.187500X-0.562500X0.187500X0.562500X-0.187500X0.562500X-0.187500X-0.562500X0*%
%ADD19R,1.700000X1.700000*%
%ADD20O,1.700000X1.700000*%
%ADD21RoundRect,0.250000X-0.625000X0.400000X-0.625000X-0.400000X0.625000X-0.400000X0.625000X0.400000X0*%
%ADD22RoundRect,0.250000X-0.350000X-0.450000X0.350000X-0.450000X0.350000X0.450000X-0.350000X0.450000X0*%
%ADD23RoundRect,0.250000X0.337500X0.475000X-0.337500X0.475000X-0.337500X-0.475000X0.337500X-0.475000X0*%
%ADD24RoundRect,0.250000X0.412500X0.650000X-0.412500X0.650000X-0.412500X-0.650000X0.412500X-0.650000X0*%
%ADD25RoundRect,0.237500X0.237500X-0.250000X0.237500X0.250000X-0.237500X0.250000X-0.237500X-0.250000X0*%
G04 APERTURE END LIST*
D10*
X154873571Y-93249285D02*
X154873571Y-92499285D01*
X154695000Y-92499285D01*
X154587857Y-92535000D01*
X154516428Y-92606428D01*
X154480714Y-92677857D01*
X154445000Y-92820714D01*
X154445000Y-92927857D01*
X154480714Y-93070714D01*
X154516428Y-93142142D01*
X154587857Y-93213571D01*
X154695000Y-93249285D01*
X154873571Y-93249285D01*
X153730714Y-93249285D02*
X154159285Y-93249285D01*
X153945000Y-93249285D02*
X153945000Y-92499285D01*
X154016428Y-92606428D01*
X154087857Y-92677857D01*
X154159285Y-92713571D01*
X145869142Y-88293333D02*
X145916761Y-88245714D01*
X145964380Y-88102857D01*
X145964380Y-88007619D01*
X145916761Y-87864761D01*
X145821523Y-87769523D01*
X145726285Y-87721904D01*
X145535809Y-87674285D01*
X145392952Y-87674285D01*
X145202476Y-87721904D01*
X145107238Y-87769523D01*
X145012000Y-87864761D01*
X144964380Y-88007619D01*
X144964380Y-88102857D01*
X145012000Y-88245714D01*
X145059619Y-88293333D01*
X144964380Y-89150476D02*
X144964380Y-88960000D01*
X145012000Y-88864761D01*
X145059619Y-88817142D01*
X145202476Y-88721904D01*
X145392952Y-88674285D01*
X145773904Y-88674285D01*
X145869142Y-88721904D01*
X145916761Y-88769523D01*
X145964380Y-88864761D01*
X145964380Y-89055238D01*
X145916761Y-89150476D01*
X145869142Y-89198095D01*
X145773904Y-89245714D01*
X145535809Y-89245714D01*
X145440571Y-89198095D01*
X145392952Y-89150476D01*
X145345333Y-89055238D01*
X145345333Y-88864761D01*
X145392952Y-88769523D01*
X145440571Y-88721904D01*
X145535809Y-88674285D01*
X147725000Y-92539285D02*
X147975000Y-92182142D01*
X148153571Y-92539285D02*
X148153571Y-91789285D01*
X147867857Y-91789285D01*
X147796428Y-91825000D01*
X147760714Y-91860714D01*
X147725000Y-91932142D01*
X147725000Y-92039285D01*
X147760714Y-92110714D01*
X147796428Y-92146428D01*
X147867857Y-92182142D01*
X148153571Y-92182142D01*
X147475000Y-91789285D02*
X146975000Y-91789285D01*
X147296428Y-92539285D01*
X149665000Y-98739285D02*
X149915000Y-98382142D01*
X150093571Y-98739285D02*
X150093571Y-97989285D01*
X149807857Y-97989285D01*
X149736428Y-98025000D01*
X149700714Y-98060714D01*
X149665000Y-98132142D01*
X149665000Y-98239285D01*
X149700714Y-98310714D01*
X149736428Y-98346428D01*
X149807857Y-98382142D01*
X150093571Y-98382142D01*
X149415000Y-97989285D02*
X148950714Y-97989285D01*
X149200714Y-98275000D01*
X149093571Y-98275000D01*
X149022142Y-98310714D01*
X148986428Y-98346428D01*
X148950714Y-98417857D01*
X148950714Y-98596428D01*
X148986428Y-98667857D01*
X149022142Y-98703571D01*
X149093571Y-98739285D01*
X149307857Y-98739285D01*
X149379285Y-98703571D01*
X149415000Y-98667857D01*
X154207642Y-79261333D02*
X154255261Y-79213714D01*
X154302880Y-79070857D01*
X154302880Y-78975619D01*
X154255261Y-78832761D01*
X154160023Y-78737523D01*
X154064785Y-78689904D01*
X153874309Y-78642285D01*
X153731452Y-78642285D01*
X153540976Y-78689904D01*
X153445738Y-78737523D01*
X153350500Y-78832761D01*
X153302880Y-78975619D01*
X153302880Y-79070857D01*
X153350500Y-79213714D01*
X153398119Y-79261333D01*
X153636214Y-80118476D02*
X154302880Y-80118476D01*
X153255261Y-79880380D02*
X153969547Y-79642285D01*
X153969547Y-80261333D01*
D11*
X155621428Y-88126190D02*
X155788095Y-87888095D01*
X155907142Y-88126190D02*
X155907142Y-87626190D01*
X155716666Y-87626190D01*
X155669047Y-87650000D01*
X155645238Y-87673809D01*
X155621428Y-87721428D01*
X155621428Y-87792857D01*
X155645238Y-87840476D01*
X155669047Y-87864285D01*
X155716666Y-87888095D01*
X155907142Y-87888095D01*
X155145238Y-88126190D02*
X155430952Y-88126190D01*
X155288095Y-88126190D02*
X155288095Y-87626190D01*
X155335714Y-87697619D01*
X155383333Y-87745238D01*
X155430952Y-87769047D01*
X154835714Y-87626190D02*
X154788095Y-87626190D01*
X154740476Y-87650000D01*
X154716666Y-87673809D01*
X154692857Y-87721428D01*
X154669047Y-87816666D01*
X154669047Y-87935714D01*
X154692857Y-88030952D01*
X154716666Y-88078571D01*
X154740476Y-88102380D01*
X154788095Y-88126190D01*
X154835714Y-88126190D01*
X154883333Y-88102380D01*
X154907142Y-88078571D01*
X154930952Y-88030952D01*
X154954761Y-87935714D01*
X154954761Y-87816666D01*
X154930952Y-87721428D01*
X154907142Y-87673809D01*
X154883333Y-87650000D01*
X154835714Y-87626190D01*
D10*
X153467857Y-83875000D02*
X153503571Y-83839285D01*
X153539285Y-83732142D01*
X153539285Y-83660714D01*
X153503571Y-83553571D01*
X153432142Y-83482142D01*
X153360714Y-83446428D01*
X153217857Y-83410714D01*
X153110714Y-83410714D01*
X152967857Y-83446428D01*
X152896428Y-83482142D01*
X152825000Y-83553571D01*
X152789285Y-83660714D01*
X152789285Y-83732142D01*
X152825000Y-83839285D01*
X152860714Y-83875000D01*
X152860714Y-84160714D02*
X152825000Y-84196428D01*
X152789285Y-84267857D01*
X152789285Y-84446428D01*
X152825000Y-84517857D01*
X152860714Y-84553571D01*
X152932142Y-84589285D01*
X153003571Y-84589285D01*
X153110714Y-84553571D01*
X153539285Y-84125000D01*
X153539285Y-84589285D01*
X150154166Y-105257142D02*
X150201785Y-105304761D01*
X150344642Y-105352380D01*
X150439880Y-105352380D01*
X150582738Y-105304761D01*
X150677976Y-105209523D01*
X150725595Y-105114285D01*
X150773214Y-104923809D01*
X150773214Y-104780952D01*
X150725595Y-104590476D01*
X150677976Y-104495238D01*
X150582738Y-104400000D01*
X150439880Y-104352380D01*
X150344642Y-104352380D01*
X150201785Y-104400000D01*
X150154166Y-104447619D01*
X149249404Y-104352380D02*
X149725595Y-104352380D01*
X149773214Y-104828571D01*
X149725595Y-104780952D01*
X149630357Y-104733333D01*
X149392261Y-104733333D01*
X149297023Y-104780952D01*
X149249404Y-104828571D01*
X149201785Y-104923809D01*
X149201785Y-105161904D01*
X149249404Y-105257142D01*
X149297023Y-105304761D01*
X149392261Y-105352380D01*
X149630357Y-105352380D01*
X149725595Y-105304761D01*
X149773214Y-105257142D01*
X151125000Y-93639285D02*
X151375000Y-93282142D01*
X151553571Y-93639285D02*
X151553571Y-92889285D01*
X151267857Y-92889285D01*
X151196428Y-92925000D01*
X151160714Y-92960714D01*
X151125000Y-93032142D01*
X151125000Y-93139285D01*
X151160714Y-93210714D01*
X151196428Y-93246428D01*
X151267857Y-93282142D01*
X151553571Y-93282142D01*
X150482142Y-92889285D02*
X150625000Y-92889285D01*
X150696428Y-92925000D01*
X150732142Y-92960714D01*
X150803571Y-93067857D01*
X150839285Y-93210714D01*
X150839285Y-93496428D01*
X150803571Y-93567857D01*
X150767857Y-93603571D01*
X150696428Y-93639285D01*
X150553571Y-93639285D01*
X150482142Y-93603571D01*
X150446428Y-93567857D01*
X150410714Y-93496428D01*
X150410714Y-93317857D01*
X150446428Y-93246428D01*
X150482142Y-93210714D01*
X150553571Y-93175000D01*
X150696428Y-93175000D01*
X150767857Y-93210714D01*
X150803571Y-93246428D01*
X150839285Y-93317857D01*
D12*
X153300000Y-95050000D02*
X153300000Y-91150000D01*
X155300000Y-95050000D02*
X155300000Y-91150000D01*
X155300000Y-95050000D02*
X153300000Y-95050000D01*
X150120000Y-98955000D02*
X150120000Y-101615000D01*
X144920000Y-100285000D02*
X144920000Y-101615000D01*
X147520000Y-98955000D02*
X147520000Y-101615000D01*
X144920000Y-101615000D02*
X146250000Y-101615000D01*
X147520000Y-98955000D02*
X150120000Y-98955000D01*
X147520000Y-101615000D02*
X150120000Y-101615000D01*
X146590000Y-91422936D02*
X146590000Y-92877064D01*
X148410000Y-91422936D02*
X148410000Y-92877064D01*
X151272936Y-97635000D02*
X151727064Y-97635000D01*
X151272936Y-96165000D02*
X151727064Y-96165000D01*
X153961752Y-82405000D02*
X153439248Y-82405000D01*
X153961752Y-80935000D02*
X153439248Y-80935000D01*
X155355000Y-104345000D02*
X155355000Y-109485000D01*
X155355000Y-109485000D02*
X152695000Y-109485000D01*
X154025000Y-101745000D02*
X152695000Y-101745000D01*
X152695000Y-104345000D02*
X152695000Y-109485000D01*
X155355000Y-104345000D02*
X152695000Y-104345000D01*
X152695000Y-101745000D02*
X152695000Y-103075000D01*
X154390000Y-87072936D02*
X154390000Y-88527064D01*
X156210000Y-87072936D02*
X156210000Y-88527064D01*
X153911752Y-83140000D02*
X152489248Y-83140000D01*
X153911752Y-84960000D02*
X152489248Y-84960000D01*
X150598752Y-102365000D02*
X150076248Y-102365000D01*
X150598752Y-103835000D02*
X150076248Y-103835000D01*
X149922500Y-93554724D02*
X149922500Y-93045276D01*
X148877500Y-93554724D02*
X148877500Y-93045276D01*
%LPC*%
D13*
X160800000Y-112600000D03*
D14*
X142729000Y-78655000D03*
X157659000Y-78655000D03*
D15*
X157659000Y-108655000D03*
X160659000Y-108655000D03*
X160659000Y-106155000D03*
X157659000Y-106155000D03*
X157659000Y-103655000D03*
X160659000Y-103655000D03*
X157659000Y-101155000D03*
X160659000Y-101155000D03*
X157659000Y-98655000D03*
X160559000Y-98655000D03*
X157659000Y-96155000D03*
X160659000Y-96155000D03*
X157659000Y-93655000D03*
X160659000Y-93655000D03*
X160659000Y-91155000D03*
X157659000Y-91155000D03*
X157659000Y-88655000D03*
X160659000Y-88655000D03*
X160659000Y-86155000D03*
X157659000Y-86155000D03*
X143559000Y-111555000D03*
X146159000Y-111555000D03*
X146259000Y-114055000D03*
X160659000Y-83655000D03*
X157659000Y-83655000D03*
X143559000Y-114055000D03*
X160659000Y-81255000D03*
X157659000Y-81255000D03*
X142759000Y-81255000D03*
X139859000Y-81255000D03*
X139859000Y-83755000D03*
X142759000Y-83755000D03*
X139859000Y-86255000D03*
X142759000Y-86255000D03*
X142759000Y-88655000D03*
X139859000Y-88655000D03*
X142759000Y-91255000D03*
X139859000Y-91255000D03*
X142759000Y-93755000D03*
X139859000Y-93755000D03*
X142759000Y-96255000D03*
X139859000Y-96255000D03*
X142759000Y-98755000D03*
X139859000Y-98755000D03*
X139859000Y-101155000D03*
X142759000Y-101155000D03*
X142759000Y-103655000D03*
X139859000Y-103655000D03*
X139859000Y-106255000D03*
X142759000Y-106255000D03*
X142759000Y-108655000D03*
X139849000Y-108655000D03*
X148759000Y-114055000D03*
X148759000Y-111555000D03*
X151359000Y-111555000D03*
X151359000Y-114055000D03*
X153959000Y-111555000D03*
X153959000Y-114055000D03*
X156559000Y-111555000D03*
X156559000Y-114055000D03*
D13*
X139700000Y-112600000D03*
X150500000Y-70600000D03*
D16*
X149690000Y-107130000D03*
X147890000Y-105230000D03*
X146090000Y-107130000D03*
X147719000Y-86274500D03*
X150219000Y-88774500D03*
X152719000Y-86274500D03*
D17*
X154300000Y-94450000D03*
X154300000Y-91150000D03*
D18*
X145500000Y-93700000D03*
X145500000Y-91700000D03*
D19*
X146250000Y-100285000D03*
D20*
X148790000Y-100285000D03*
D21*
X147500000Y-90600000D03*
X147500000Y-93700000D03*
D22*
X150500000Y-96900000D03*
X152500000Y-96900000D03*
D23*
X154738000Y-81670000D03*
X152663000Y-81670000D03*
D19*
X154025000Y-103075000D03*
D20*
X154025000Y-105615000D03*
X154025000Y-108155000D03*
D21*
X155300000Y-86250000D03*
X155300000Y-89350000D03*
D24*
X154763000Y-84050000D03*
X151638000Y-84050000D03*
D23*
X151375000Y-103100000D03*
X149300000Y-103100000D03*
D25*
X149400000Y-94212500D03*
X149400000Y-92387500D03*
M02*
