G04 #@! TF.GenerationSoftware,KiCad,Pcbnew,(6.0.1)*
G04 #@! TF.CreationDate,2022-04-24T16:28:56-07:00*
G04 #@! TF.ProjectId,PS_controller,50535f63-6f6e-4747-926f-6c6c65722e6b,rev?*
G04 #@! TF.SameCoordinates,Original*
G04 #@! TF.FileFunction,Soldermask,Top*
G04 #@! TF.FilePolarity,Negative*
%FSLAX46Y46*%
G04 Gerber Fmt 4.6, Leading zero omitted, Abs format (unit mm)*
G04 Created by KiCad (PCBNEW (6.0.1)) date 2022-04-24 16:28:56*
%MOMM*%
%LPD*%
G01*
G04 APERTURE LIST*
G04 Aperture macros list*
%AMRoundRect*
0 Rectangle with rounded corners*
0 $1 Rounding radius*
0 $2 $3 $4 $5 $6 $7 $8 $9 X,Y pos of 4 corners*
0 Add a 4 corners polygon primitive as box body*
4,1,4,$2,$3,$4,$5,$6,$7,$8,$9,$2,$3,0*
0 Add four circle primitives for the rounded corners*
1,1,$1+$1,$2,$3*
1,1,$1+$1,$4,$5*
1,1,$1+$1,$6,$7*
1,1,$1+$1,$8,$9*
0 Add four rect primitives between the rounded corners*
20,1,$1+$1,$2,$3,$4,$5,0*
20,1,$1+$1,$4,$5,$6,$7,0*
20,1,$1+$1,$6,$7,$8,$9,0*
20,1,$1+$1,$8,$9,$2,$3,0*%
G04 Aperture macros list end*
%ADD10R,1.700000X1.700000*%
%ADD11O,1.700000X1.700000*%
%ADD12R,1.200000X0.900000*%
%ADD13RoundRect,0.160000X0.197500X0.160000X-0.197500X0.160000X-0.197500X-0.160000X0.197500X-0.160000X0*%
%ADD14C,2.500000*%
%ADD15RoundRect,0.150000X-0.150000X0.587500X-0.150000X-0.587500X0.150000X-0.587500X0.150000X0.587500X0*%
%ADD16C,2.200000*%
%ADD17C,1.750000*%
%ADD18RoundRect,0.132750X0.888750X0.132750X-0.888750X0.132750X-0.888750X-0.132750X0.888750X-0.132750X0*%
%ADD19RoundRect,0.125000X0.996500X0.125000X-0.996500X0.125000X-0.996500X-0.125000X0.996500X-0.125000X0*%
%ADD20RoundRect,0.250000X-0.400000X-0.625000X0.400000X-0.625000X0.400000X0.625000X-0.400000X0.625000X0*%
%ADD21RoundRect,0.237500X-0.237500X0.300000X-0.237500X-0.300000X0.237500X-0.300000X0.237500X0.300000X0*%
%ADD22RoundRect,0.250000X0.475000X-0.337500X0.475000X0.337500X-0.475000X0.337500X-0.475000X-0.337500X0*%
%ADD23R,1.333500X0.279400*%
%ADD24C,1.498600*%
%ADD25RoundRect,0.250000X-0.475000X0.337500X-0.475000X-0.337500X0.475000X-0.337500X0.475000X0.337500X0*%
%ADD26RoundRect,0.250000X-0.412500X-0.650000X0.412500X-0.650000X0.412500X0.650000X-0.412500X0.650000X0*%
%ADD27R,5.400000X2.900000*%
%ADD28RoundRect,0.250000X-0.337500X-0.475000X0.337500X-0.475000X0.337500X0.475000X-0.337500X0.475000X0*%
%ADD29RoundRect,0.237500X0.250000X0.237500X-0.250000X0.237500X-0.250000X-0.237500X0.250000X-0.237500X0*%
G04 APERTURE END LIST*
D10*
X215335000Y-111635000D03*
D11*
X212795000Y-111635000D03*
X210255000Y-111635000D03*
D12*
X175514000Y-78104000D03*
X175514000Y-74804000D03*
D13*
X188049500Y-76212500D03*
X186854500Y-76212500D03*
D14*
X198882000Y-109982000D03*
D15*
X172348000Y-80208000D03*
X170448000Y-80208000D03*
X171398000Y-82083000D03*
D16*
X206215000Y-72905000D03*
X220115000Y-72905000D03*
D17*
X220615000Y-102505000D03*
X220615000Y-100005000D03*
X214315000Y-105405000D03*
X216915000Y-105405000D03*
X220615000Y-97505000D03*
X220615000Y-95005000D03*
X220615000Y-92505000D03*
X220615000Y-90005000D03*
X220615000Y-87505000D03*
X220615000Y-85005000D03*
X220615000Y-82505000D03*
X211715000Y-105405000D03*
X220615000Y-80005000D03*
X206515000Y-105405000D03*
X209115000Y-105405000D03*
X220615000Y-77505000D03*
X220615000Y-75105000D03*
X205715000Y-75105000D03*
X205715000Y-77605000D03*
X205715000Y-80105000D03*
X205715000Y-82605000D03*
X205715000Y-85105000D03*
X205715000Y-87605000D03*
X205715000Y-90105000D03*
X205715000Y-92605000D03*
X205715000Y-95105000D03*
X205715000Y-97605000D03*
X205715000Y-100105000D03*
X205715000Y-102605000D03*
X219515000Y-105405000D03*
D18*
X199570000Y-89280000D03*
D19*
X196870000Y-89280000D03*
D10*
X188550000Y-72825000D03*
D11*
X186010000Y-72825000D03*
D20*
X196560000Y-86322000D03*
X199660000Y-86322000D03*
D21*
X192294000Y-80350000D03*
X192294000Y-82075000D03*
D22*
X193700000Y-78490000D03*
X193700000Y-76415000D03*
D10*
X226543000Y-94976000D03*
D11*
X226543000Y-92436000D03*
D23*
X184777850Y-78861740D03*
X184777850Y-79362120D03*
X184777850Y-79862500D03*
X184777850Y-80362880D03*
X184777850Y-80863260D03*
X189210150Y-80863260D03*
X189210150Y-80362880D03*
X189210150Y-79862500D03*
X189210150Y-79362120D03*
X189210150Y-78861740D03*
D10*
X176555000Y-85598000D03*
D11*
X176555000Y-88138000D03*
X176555000Y-90678000D03*
D24*
X196685500Y-95895500D03*
X198485500Y-97795500D03*
X200285500Y-95895500D03*
D25*
X180594000Y-79205000D03*
X180594000Y-81280000D03*
D24*
X196700000Y-76900000D03*
X199200000Y-74400000D03*
X201700000Y-76900000D03*
D14*
X226060000Y-77470000D03*
D26*
X187837500Y-98300000D03*
X190962500Y-98300000D03*
D27*
X187000000Y-84950000D03*
X187000000Y-94850000D03*
D28*
X195972500Y-91700000D03*
X198047500Y-91700000D03*
D29*
X199632500Y-84120000D03*
X197807500Y-84120000D03*
M02*
