M48
; DRILL file {KiCad (6.0.1)} date Sun Apr 24 16:28:37 2022
; FORMAT={-:-/ absolute / metric / decimal}
; #@! TF.CreationDate,2022-04-24T16:28:37-07:00
; #@! TF.GenerationSoftware,Kicad,Pcbnew,(6.0.1)
; #@! TF.FileFunction,Plated,1,2,PTH
FMAT,2
METRIC
; #@! TA.AperFunction,Plated,PTH,ViaDrill
T1C0.400
; #@! TA.AperFunction,Plated,PTH,ComponentDrill
T2C0.800
; #@! TA.AperFunction,Plated,PTH,ComponentDrill
T3C0.991
; #@! TA.AperFunction,Plated,PTH,ComponentDrill
T4C1.000
; #@! TA.AperFunction,Plated,PTH,ComponentDrill
T5C1.100
; #@! TA.AperFunction,Plated,PTH,ComponentDrill
T6C1.199
; #@! TA.AperFunction,Plated,PTH,ComponentDrill
T7C1.200
%
G90
G05
T1
X136.1Y-92.3
X145.8Y-90.8
X145.8Y-92.6
X146.7Y-95.6
X148.3Y-87.8
X148.3Y-90.8
X148.8Y-95.6
X153.416Y-84.328
X153.924Y-96.012
X155.702Y-90.932
X156.2Y-87.3
X157.6Y-80.9
T2
X114.993Y-112.268
X118.493Y-112.268
T3
X143.356Y-99.445
X145.155Y-101.346
X146.956Y-99.445
T4
X128.17Y-121.02
X128.27Y-109.636
X128.27Y-114.636
X130.71Y-121.02
X169.03Y-120.825
X171.57Y-120.825
X174.11Y-120.825
T5
X127.33Y-85.59
X127.33Y-88.13
X127.33Y-90.67
X127.45Y-97.44
X127.45Y-99.98
X127.45Y-102.52
X170.094Y-104.14
X170.094Y-106.68
X170.094Y-109.22
X176.56Y-88.35
X176.56Y-90.89
X176.56Y-93.43
T6
X133.68Y-94.84
X133.68Y-104.84
X157.5Y-95.6
X157.5Y-105.6
T7
X135.68Y-114.1
X138.08Y-108.3
X150.92Y-114.1
X153.32Y-108.3
T0
M30
