M48
; DRILL file {KiCad (6.0.1)} date Thu Jun  9 14:03:23 2022
; FORMAT={-:-/ absolute / metric / decimal}
; #@! TF.CreationDate,2022-06-09T14:03:23-07:00
; #@! TF.GenerationSoftware,Kicad,Pcbnew,(6.0.1)
; #@! TF.FileFunction,Plated,1,4,PTH
FMAT,2
METRIC
; #@! TA.AperFunction,Plated,PTH,ViaDrill
T1C0.400
; #@! TA.AperFunction,Plated,PTH,ComponentDrill
T2C0.762
; #@! TA.AperFunction,Plated,PTH,ComponentDrill
T3C0.800
; #@! TA.AperFunction,Plated,PTH,ComponentDrill
T4C0.991
; #@! TA.AperFunction,Plated,PTH,ComponentDrill
T5C1.000
; #@! TA.AperFunction,Plated,PTH,ComponentDrill
T6C1.100
%
G90
G05
T1
X110.4Y-100.3
X111.3Y-102.4
X111.8Y-86.2
X112.6Y-104.1
X113.9Y-104.5
X114.5Y-100.5
X114.802Y-98.602
X114.9Y-104.1
X115.7Y-100.1
X117.0Y-96.6
X117.3Y-90.8
X117.334Y-92.671
X117.8Y-100.5
X118.3Y-104.4
X119.7Y-100.5
X119.837Y-104.4
X121.0Y-93.2
X129.1Y-100.6
X134.7Y-100.5
X136.6Y-100.5
X137.7Y-92.3
X145.7Y-92.2
T2
X124.2Y-110.8
X124.2Y-113.8
X124.2Y-116.8
X127.2Y-110.8
X127.2Y-113.8
X127.2Y-116.8
X128.9Y-77.1
X128.9Y-83.1
X128.915Y-80.089
X130.185Y-113.811
X130.2Y-110.8
X130.2Y-116.8
X131.9Y-77.1
X131.9Y-80.1
X131.9Y-83.1
X134.9Y-77.1
X134.9Y-80.1
X134.9Y-83.1
X139.8Y-77.1
X139.8Y-83.1
X139.815Y-80.089
X142.56Y-110.87
X142.56Y-113.87
X142.56Y-116.87
X142.8Y-77.1
X142.8Y-80.1
X142.8Y-83.1
X145.56Y-110.87
X145.56Y-113.87
X145.56Y-116.87
X145.8Y-77.1
X145.8Y-80.1
X145.8Y-83.1
X148.545Y-113.881
X148.56Y-110.87
X148.56Y-116.87
T3
X159.747Y-95.9
X163.247Y-95.9
T4
X120.0Y-80.8
X120.0Y-84.4
X121.9Y-82.6
T5
X106.4Y-89.675
X108.9Y-107.3
X108.94Y-89.675
X111.48Y-89.675
X112.46Y-113.5
X114.02Y-89.675
X115.0Y-113.5
X124.1Y-92.1
X134.955Y-113.475
X137.495Y-113.475
X156.93Y-113.5
X159.432Y-106.0
X159.47Y-113.5
X164.432Y-106.0
T6
X124.7Y-105.3
X127.24Y-105.3
X129.32Y-88.6
X129.78Y-105.3
X131.86Y-88.6
X134.4Y-88.6
X140.22Y-88.6
X142.76Y-88.6
X143.06Y-105.37
X145.3Y-88.6
X145.6Y-105.37
X148.14Y-105.37
T0
M30
