G04 #@! TF.GenerationSoftware,KiCad,Pcbnew,(6.0.1)*
G04 #@! TF.CreationDate,2022-06-09T14:03:21-07:00*
G04 #@! TF.ProjectId,StereoPSRev1_2,53746572-656f-4505-9352-6576315f322e,rev?*
G04 #@! TF.SameCoordinates,Original*
G04 #@! TF.FileFunction,Profile,NP*
%FSLAX46Y46*%
G04 Gerber Fmt 4.6, Leading zero omitted, Abs format (unit mm)*
G04 Created by KiCad (PCBNEW (6.0.1)) date 2022-06-09 14:03:21*
%MOMM*%
%LPD*%
G01*
G04 APERTURE LIST*
G04 #@! TA.AperFunction,Profile*
%ADD10C,0.100000*%
G04 #@! TD*
G04 APERTURE END LIST*
D10*
X159866666Y-69800000D02*
G75*
G03*
X159866666Y-69800000I-1666666J0D01*
G01*
X155700000Y-69800000D02*
X160700000Y-69800000D01*
X158200000Y-67300000D02*
X158200000Y-72300000D01*
X150600000Y-125500000D02*
X150600000Y-122800000D01*
X110700000Y-122800000D02*
X113000000Y-122800000D01*
X120400000Y-125500000D02*
X120400000Y-122800000D01*
X117700000Y-122800000D02*
X117700000Y-125500000D01*
X122700000Y-125500000D02*
X130500000Y-125500000D01*
X122700000Y-122800000D02*
X122700000Y-125500000D01*
X135600000Y-122800000D02*
X137900000Y-122800000D01*
X113000000Y-125500000D02*
X115400000Y-125500000D01*
X115400000Y-122800000D02*
X117700000Y-122800000D01*
X155600000Y-125500000D02*
X155600000Y-122800000D01*
X160600000Y-125500000D02*
X160600000Y-122800000D01*
X169078000Y-66968000D02*
X169078000Y-125500000D01*
X137900000Y-125500000D02*
X140600000Y-125500000D01*
X115400000Y-125500000D02*
X115400000Y-122800000D01*
X120400000Y-122800000D02*
X122700000Y-122800000D01*
X137900000Y-122800000D02*
X137900000Y-125500000D01*
X140600000Y-122800000D02*
X142900000Y-122800000D01*
X152900000Y-125500000D02*
X155600000Y-125500000D01*
X104200000Y-125500000D02*
X104200000Y-66968000D01*
X110700000Y-125500000D02*
X110700000Y-122800000D01*
X157900000Y-122800000D02*
X157900000Y-125500000D01*
X132800000Y-122800000D02*
X132800000Y-125500000D01*
X130500000Y-125500000D02*
X130500000Y-122800000D01*
X162900000Y-122800000D02*
X162900000Y-125500000D01*
X113000000Y-122800000D02*
X113000000Y-125500000D01*
X135600000Y-125500000D02*
X135600000Y-122800000D01*
X130500000Y-122800000D02*
X132800000Y-122800000D01*
X155600000Y-122800000D02*
X157900000Y-122800000D01*
X150600000Y-122800000D02*
X152900000Y-122800000D01*
X162900000Y-125500000D02*
X169078000Y-125500000D01*
X142900000Y-125500000D02*
X150600000Y-125500000D01*
X160600000Y-122800000D02*
X162900000Y-122800000D01*
X140600000Y-125500000D02*
X140600000Y-122800000D01*
X157900000Y-125500000D02*
X160600000Y-125500000D01*
X132800000Y-125500000D02*
X135600000Y-125500000D01*
X142900000Y-122800000D02*
X142900000Y-125500000D01*
X104200000Y-66968000D02*
X169078000Y-66968000D01*
X152900000Y-122800000D02*
X152900000Y-125500000D01*
X110700000Y-125500000D02*
X104200000Y-125500000D01*
X117700000Y-125500000D02*
X120400000Y-125500000D01*
M02*
