G04 #@! TF.GenerationSoftware,KiCad,Pcbnew,(6.0.1)*
G04 #@! TF.CreationDate,2022-06-09T14:03:21-07:00*
G04 #@! TF.ProjectId,StereoPSRev1_2,53746572-656f-4505-9352-6576315f322e,rev?*
G04 #@! TF.SameCoordinates,Original*
G04 #@! TF.FileFunction,Soldermask,Top*
G04 #@! TF.FilePolarity,Negative*
%FSLAX46Y46*%
G04 Gerber Fmt 4.6, Leading zero omitted, Abs format (unit mm)*
G04 Created by KiCad (PCBNEW (6.0.1)) date 2022-06-09 14:03:21*
%MOMM*%
%LPD*%
G01*
G04 APERTURE LIST*
G04 Aperture macros list*
%AMRoundRect*
0 Rectangle with rounded corners*
0 $1 Rounding radius*
0 $2 $3 $4 $5 $6 $7 $8 $9 X,Y pos of 4 corners*
0 Add a 4 corners polygon primitive as box body*
4,1,4,$2,$3,$4,$5,$6,$7,$8,$9,$2,$3,0*
0 Add four circle primitives for the rounded corners*
1,1,$1+$1,$2,$3*
1,1,$1+$1,$4,$5*
1,1,$1+$1,$6,$7*
1,1,$1+$1,$8,$9*
0 Add four rect primitives between the rounded corners*
20,1,$1+$1,$2,$3,$4,$5,0*
20,1,$1+$1,$4,$5,$6,$7,0*
20,1,$1+$1,$6,$7,$8,$9,0*
20,1,$1+$1,$8,$9,$2,$3,0*%
G04 Aperture macros list end*
%ADD10C,0.120000*%
%ADD11R,1.700000X1.700000*%
%ADD12O,1.700000X1.700000*%
%ADD13RoundRect,0.250000X0.350000X0.450000X-0.350000X0.450000X-0.350000X-0.450000X0.350000X-0.450000X0*%
%ADD14RoundRect,0.250000X-0.350000X-0.450000X0.350000X-0.450000X0.350000X0.450000X-0.350000X0.450000X0*%
%ADD15RoundRect,0.237500X0.237500X-0.300000X0.237500X0.300000X-0.237500X0.300000X-0.237500X-0.300000X0*%
%ADD16C,2.500000*%
%ADD17RoundRect,0.250000X0.400000X0.625000X-0.400000X0.625000X-0.400000X-0.625000X0.400000X-0.625000X0*%
%ADD18RoundRect,0.237500X0.300000X0.237500X-0.300000X0.237500X-0.300000X-0.237500X0.300000X-0.237500X0*%
%ADD19R,0.431000X1.639799*%
%ADD20RoundRect,0.250000X0.450000X-0.350000X0.450000X0.350000X-0.450000X0.350000X-0.450000X-0.350000X0*%
%ADD21C,1.498600*%
%ADD22R,6.400000X4.900000*%
%ADD23R,6.400000X4.800000*%
%ADD24RoundRect,0.160000X0.160000X-0.197500X0.160000X0.197500X-0.160000X0.197500X-0.160000X-0.197500X0*%
%ADD25R,1.600000X1.600000*%
%ADD26C,1.600000*%
%ADD27O,3.500000X3.500000*%
%ADD28R,1.905000X2.000000*%
%ADD29O,1.905000X2.000000*%
%ADD30C,1.524000*%
%ADD31R,2.000000X2.000000*%
%ADD32C,2.000000*%
G04 APERTURE END LIST*
D10*
X120175840Y-95967800D02*
X112175840Y-95967800D01*
X112175840Y-95967800D02*
X112175840Y-101067800D01*
X112175840Y-101067800D02*
X120175840Y-101067800D01*
X120175840Y-101067800D02*
X120175840Y-95967800D01*
G36*
X120175840Y-95967800D02*
G01*
X112175840Y-95967800D01*
X112175840Y-101067800D01*
X120175840Y-101067800D01*
X120175840Y-95967800D01*
G37*
X147700000Y-75700000D02*
X137700000Y-75700000D01*
X137700000Y-75700000D02*
X137700000Y-84500000D01*
X137700000Y-84500000D02*
X147700000Y-84500000D01*
X147700000Y-84500000D02*
X147700000Y-75700000D01*
G36*
X147700000Y-75700000D02*
G01*
X137700000Y-75700000D01*
X137700000Y-84500000D01*
X147700000Y-84500000D01*
X147700000Y-75700000D01*
G37*
X140660000Y-118270000D02*
X150660000Y-118270000D01*
X150660000Y-118270000D02*
X150660000Y-109470000D01*
X150660000Y-109470000D02*
X140660000Y-109470000D01*
X140660000Y-109470000D02*
X140660000Y-118270000D01*
G36*
X140660000Y-118270000D02*
G01*
X150660000Y-118270000D01*
X150660000Y-109470000D01*
X140660000Y-109470000D01*
X140660000Y-118270000D01*
G37*
X136800000Y-75700000D02*
X126800000Y-75700000D01*
X126800000Y-75700000D02*
X126800000Y-84500000D01*
X126800000Y-84500000D02*
X136800000Y-84500000D01*
X136800000Y-84500000D02*
X136800000Y-75700000D01*
G36*
X136800000Y-75700000D02*
G01*
X126800000Y-75700000D01*
X126800000Y-84500000D01*
X136800000Y-84500000D01*
X136800000Y-75700000D01*
G37*
X122300000Y-118200000D02*
X132300000Y-118200000D01*
X132300000Y-118200000D02*
X132300000Y-109400000D01*
X132300000Y-109400000D02*
X122300000Y-109400000D01*
X122300000Y-109400000D02*
X122300000Y-118200000D01*
G36*
X122300000Y-118200000D02*
G01*
X132300000Y-118200000D01*
X132300000Y-109400000D01*
X122300000Y-109400000D01*
X122300000Y-118200000D01*
G37*
D11*
X115000000Y-113500000D03*
D12*
X112460000Y-113500000D03*
D13*
X123600000Y-94900000D03*
X121600000Y-94900000D03*
D14*
X108700000Y-96300000D03*
X110700000Y-96300000D03*
D11*
X159470000Y-113500000D03*
D12*
X156930000Y-113500000D03*
D15*
X117333840Y-92483050D03*
X117333840Y-90758050D03*
D16*
X166200000Y-74500000D03*
D17*
X120650000Y-87700000D03*
X117550000Y-87700000D03*
D18*
X111162500Y-94400000D03*
X109437500Y-94400000D03*
D19*
X119752160Y-94835600D03*
X119101920Y-94835600D03*
X118451680Y-94835600D03*
X117801440Y-94835600D03*
X117151200Y-94835600D03*
X116500960Y-94835600D03*
X115850720Y-94835600D03*
X115200480Y-94835600D03*
X114550240Y-94835600D03*
X113900000Y-94835600D03*
X113249760Y-94835600D03*
X112599520Y-94835600D03*
X112599520Y-102100000D03*
X113249760Y-102100000D03*
X113900000Y-102100000D03*
X114550240Y-102100000D03*
X115200480Y-102100000D03*
X115850720Y-102100000D03*
X116500960Y-102100000D03*
X117151200Y-102100000D03*
X117801440Y-102100000D03*
X118451680Y-102100000D03*
X119101920Y-102100000D03*
X119752160Y-102100000D03*
D20*
X111800000Y-86200000D03*
X111800000Y-84200000D03*
D11*
X106400000Y-89675000D03*
D12*
X108940000Y-89675000D03*
X111480000Y-89675000D03*
X114020000Y-89675000D03*
D16*
X107200000Y-117500000D03*
D21*
X120000000Y-84400000D03*
X121900000Y-82600000D03*
X120000000Y-80800000D03*
D16*
X166200000Y-117500000D03*
D22*
X134950000Y-92950000D03*
D23*
X134700000Y-102250000D03*
D20*
X114000000Y-86200000D03*
X114000000Y-84200000D03*
D11*
X108900000Y-107300000D03*
D20*
X108300000Y-100300000D03*
X108300000Y-98300000D03*
X112200000Y-109300000D03*
X112200000Y-107300000D03*
D11*
X137495000Y-113475000D03*
D12*
X134955000Y-113475000D03*
D11*
X124100000Y-92100000D03*
D24*
X119183840Y-92468050D03*
X119183840Y-91273050D03*
D16*
X107200000Y-74500000D03*
D20*
X110400000Y-100300000D03*
X110400000Y-98300000D03*
D25*
X159747349Y-95900000D03*
D26*
X163247349Y-95900000D03*
D27*
X142760000Y-71940000D03*
D28*
X145300000Y-88600000D03*
D29*
X142760000Y-88600000D03*
X140220000Y-88600000D03*
D30*
X145800000Y-83100000D03*
X139800000Y-83100000D03*
X145800000Y-80100000D03*
X139815284Y-80088651D03*
X142800000Y-83100000D03*
X145800000Y-77100000D03*
X142800000Y-80100000D03*
X139800000Y-77100000D03*
X142800000Y-77100000D03*
D31*
X159432323Y-106000000D03*
D32*
X164432323Y-106000000D03*
D27*
X145600000Y-122030000D03*
D28*
X143060000Y-105370000D03*
D29*
X145600000Y-105370000D03*
X148140000Y-105370000D03*
D30*
X148560000Y-116870000D03*
X145560000Y-116870000D03*
X142560000Y-113870000D03*
X142560000Y-110870000D03*
X145560000Y-110870000D03*
X148544716Y-113881349D03*
X148560000Y-110870000D03*
X145560000Y-113870000D03*
X142560000Y-116870000D03*
D27*
X131860000Y-71940000D03*
D28*
X134400000Y-88600000D03*
D29*
X131860000Y-88600000D03*
X129320000Y-88600000D03*
D30*
X134900000Y-80100000D03*
X128900000Y-77100000D03*
X128900000Y-83100000D03*
X128915284Y-80088651D03*
X134900000Y-77100000D03*
X131900000Y-80100000D03*
X131900000Y-83100000D03*
X131900000Y-77100000D03*
X134900000Y-83100000D03*
D27*
X127240000Y-121960000D03*
D28*
X124700000Y-105300000D03*
D29*
X127240000Y-105300000D03*
X129780000Y-105300000D03*
D30*
X130200000Y-110800000D03*
X127200000Y-116800000D03*
X130200000Y-116800000D03*
X124200000Y-113800000D03*
X124200000Y-116800000D03*
X127200000Y-110800000D03*
X124200000Y-110800000D03*
X130184716Y-113811349D03*
X127200000Y-113800000D03*
M02*
