G04 #@! TF.GenerationSoftware,KiCad,Pcbnew,(6.0.1)*
G04 #@! TF.CreationDate,2022-04-24T16:28:33-07:00*
G04 #@! TF.ProjectId,StereoPS,53746572-656f-4505-932e-6b696361645f,rev?*
G04 #@! TF.SameCoordinates,Original*
G04 #@! TF.FileFunction,Copper,L1,Top*
G04 #@! TF.FilePolarity,Positive*
%FSLAX46Y46*%
G04 Gerber Fmt 4.6, Leading zero omitted, Abs format (unit mm)*
G04 Created by KiCad (PCBNEW (6.0.1)) date 2022-04-24 16:28:33*
%MOMM*%
%LPD*%
G01*
G04 APERTURE LIST*
G04 Aperture macros list*
%AMRoundRect*
0 Rectangle with rounded corners*
0 $1 Rounding radius*
0 $2 $3 $4 $5 $6 $7 $8 $9 X,Y pos of 4 corners*
0 Add a 4 corners polygon primitive as box body*
4,1,4,$2,$3,$4,$5,$6,$7,$8,$9,$2,$3,0*
0 Add four circle primitives for the rounded corners*
1,1,$1+$1,$2,$3*
1,1,$1+$1,$4,$5*
1,1,$1+$1,$6,$7*
1,1,$1+$1,$8,$9*
0 Add four rect primitives between the rounded corners*
20,1,$1+$1,$2,$3,$4,$5,0*
20,1,$1+$1,$4,$5,$6,$7,0*
20,1,$1+$1,$6,$7,$8,$9,0*
20,1,$1+$1,$8,$9,$2,$3,0*%
G04 Aperture macros list end*
G04 #@! TA.AperFunction,SMDPad,CuDef*
%ADD10RoundRect,0.250000X-0.650000X0.412500X-0.650000X-0.412500X0.650000X-0.412500X0.650000X0.412500X0*%
G04 #@! TD*
G04 #@! TA.AperFunction,SMDPad,CuDef*
%ADD11R,1.200000X0.900000*%
G04 #@! TD*
G04 #@! TA.AperFunction,ComponentPad*
%ADD12R,1.600000X1.600000*%
G04 #@! TD*
G04 #@! TA.AperFunction,ComponentPad*
%ADD13C,1.600000*%
G04 #@! TD*
G04 #@! TA.AperFunction,SMDPad,CuDef*
%ADD14RoundRect,0.160000X-0.160000X0.197500X-0.160000X-0.197500X0.160000X-0.197500X0.160000X0.197500X0*%
G04 #@! TD*
G04 #@! TA.AperFunction,ComponentPad*
%ADD15R,2.700000X4.500000*%
G04 #@! TD*
G04 #@! TA.AperFunction,ComponentPad*
%ADD16C,2.400000*%
G04 #@! TD*
G04 #@! TA.AperFunction,ComponentPad*
%ADD17O,2.400000X2.400000*%
G04 #@! TD*
G04 #@! TA.AperFunction,SMDPad,CuDef*
%ADD18R,1.639799X0.431000*%
G04 #@! TD*
G04 #@! TA.AperFunction,ComponentPad*
%ADD19R,2.000000X1.905000*%
G04 #@! TD*
G04 #@! TA.AperFunction,ComponentPad*
%ADD20O,2.000000X1.905000*%
G04 #@! TD*
G04 #@! TA.AperFunction,ComponentPad*
%ADD21R,1.700000X1.700000*%
G04 #@! TD*
G04 #@! TA.AperFunction,ComponentPad*
%ADD22O,1.700000X1.700000*%
G04 #@! TD*
G04 #@! TA.AperFunction,SMDPad,CuDef*
%ADD23RoundRect,0.237500X0.237500X-0.300000X0.237500X0.300000X-0.237500X0.300000X-0.237500X-0.300000X0*%
G04 #@! TD*
G04 #@! TA.AperFunction,ComponentPad*
%ADD24C,1.498600*%
G04 #@! TD*
G04 #@! TA.AperFunction,ComponentPad*
%ADD25R,2.000000X2.000000*%
G04 #@! TD*
G04 #@! TA.AperFunction,ComponentPad*
%ADD26C,2.000000*%
G04 #@! TD*
G04 #@! TA.AperFunction,SMDPad,CuDef*
%ADD27RoundRect,0.250000X-0.475000X0.337500X-0.475000X-0.337500X0.475000X-0.337500X0.475000X0.337500X0*%
G04 #@! TD*
G04 #@! TA.AperFunction,SMDPad,CuDef*
%ADD28R,5.400000X2.900000*%
G04 #@! TD*
G04 #@! TA.AperFunction,SMDPad,CuDef*
%ADD29RoundRect,0.237500X-0.237500X0.300000X-0.237500X-0.300000X0.237500X-0.300000X0.237500X0.300000X0*%
G04 #@! TD*
G04 #@! TA.AperFunction,ViaPad*
%ADD30C,0.800000*%
G04 #@! TD*
G04 #@! TA.AperFunction,Conductor*
%ADD31C,0.250000*%
G04 #@! TD*
G04 #@! TA.AperFunction,Conductor*
%ADD32C,0.500000*%
G04 #@! TD*
G04 #@! TA.AperFunction,Conductor*
%ADD33C,1.000000*%
G04 #@! TD*
G04 APERTURE END LIST*
D10*
X144600000Y-81017500D03*
X144600000Y-84142500D03*
D11*
X151010000Y-84200000D03*
X151010000Y-80900000D03*
D12*
X118492651Y-112268000D03*
D13*
X114992651Y-112268000D03*
D14*
X137700000Y-91105000D03*
X137700000Y-92300000D03*
D15*
X133680000Y-103740000D03*
X133680000Y-95940000D03*
D16*
X138080000Y-108300000D03*
D17*
X153320000Y-108300000D03*
D18*
X143460550Y-87116180D03*
X143460550Y-87766420D03*
X143460550Y-88416660D03*
X143460550Y-89066900D03*
X143460550Y-89717140D03*
X143460550Y-90367380D03*
X143460550Y-91017620D03*
X143460550Y-91667860D03*
X143460550Y-92318100D03*
X143460550Y-92968340D03*
X143460550Y-93618580D03*
X143460550Y-94268820D03*
X150724950Y-94268820D03*
X150724950Y-93618580D03*
X150724950Y-92968340D03*
X150724950Y-92318100D03*
X150724950Y-91667860D03*
X150724950Y-91017620D03*
X150724950Y-90367380D03*
X150724950Y-89717140D03*
X150724950Y-89066900D03*
X150724950Y-88416660D03*
X150724950Y-87766420D03*
X150724950Y-87116180D03*
D19*
X170094000Y-104140000D03*
D20*
X170094000Y-106680000D03*
X170094000Y-109220000D03*
D16*
X150920000Y-114100000D03*
D17*
X135680000Y-114100000D03*
D19*
X127450000Y-102520000D03*
D20*
X127450000Y-99980000D03*
X127450000Y-97440000D03*
D19*
X176560000Y-88350000D03*
D20*
X176560000Y-90890000D03*
X176560000Y-93430000D03*
D21*
X174110000Y-120825000D03*
D22*
X171570000Y-120825000D03*
X169030000Y-120825000D03*
D23*
X140970000Y-87730500D03*
X140970000Y-86005500D03*
D24*
X143355500Y-99445500D03*
X145155500Y-101345500D03*
X146955500Y-99445500D03*
D25*
X128270000Y-114635677D03*
D26*
X128270000Y-109635677D03*
D27*
X139954000Y-91672500D03*
X139954000Y-93747500D03*
D28*
X167600000Y-82950000D03*
X167600000Y-92850000D03*
D23*
X153924000Y-88492500D03*
X153924000Y-86767500D03*
D14*
X138780000Y-88002500D03*
X138780000Y-89197500D03*
D21*
X130710000Y-121020000D03*
D22*
X128170000Y-121020000D03*
D15*
X157500000Y-104500000D03*
X157500000Y-96700000D03*
D10*
X159258000Y-88353500D03*
X159258000Y-91478500D03*
D27*
X147620000Y-80972500D03*
X147620000Y-83047500D03*
D29*
X153924000Y-92863500D03*
X153924000Y-94588500D03*
D19*
X127330000Y-90670000D03*
D20*
X127330000Y-88130000D03*
X127330000Y-85590000D03*
D11*
X155702000Y-84200000D03*
X155702000Y-80900000D03*
D30*
X136100000Y-92300000D03*
X145800000Y-92600000D03*
X148800000Y-95600000D03*
X145800000Y-90800000D03*
X156200000Y-87300000D03*
X148300000Y-90800000D03*
X146700000Y-95600000D03*
X148300000Y-87800000D03*
X153416000Y-84328000D03*
X153924000Y-96012000D03*
X155702000Y-90932000D03*
X157600000Y-80900000D03*
D31*
X143355500Y-99445500D02*
X141732000Y-97822000D01*
D32*
X143355500Y-103024500D02*
X143355500Y-99445500D01*
D31*
X141732000Y-97822000D02*
X141732000Y-91186000D01*
X142550620Y-90367380D02*
X143460550Y-90367380D01*
X141732000Y-91186000D02*
X142550620Y-90367380D01*
D32*
X138080000Y-108300000D02*
X143355500Y-103024500D01*
D33*
X141175000Y-121025000D02*
X141170000Y-121020000D01*
X156020000Y-105600000D02*
X157500000Y-105600000D01*
X128270000Y-120920000D02*
X128170000Y-121020000D01*
X141170000Y-121020000D02*
X128170000Y-121020000D01*
X128270000Y-114635677D02*
X128270000Y-120920000D01*
X153320000Y-108300000D02*
X150300000Y-108300000D01*
D31*
X158960000Y-104140000D02*
X157500000Y-105600000D01*
D33*
X170094000Y-104140000D02*
X158960000Y-104140000D01*
X125902323Y-112268000D02*
X128270000Y-114635677D01*
X146500000Y-115700000D02*
X141175000Y-121025000D01*
X150300000Y-108300000D02*
X146500000Y-112100000D01*
X118492651Y-112268000D02*
X125902323Y-112268000D01*
X146500000Y-115700000D02*
X146500000Y-112100000D01*
X153320000Y-108300000D02*
X156020000Y-105600000D01*
D31*
X136100000Y-92300000D02*
X137700000Y-92300000D01*
X143460550Y-92318100D02*
X145518100Y-92318100D01*
X145518100Y-92318100D02*
X145800000Y-92600000D01*
D32*
X139954000Y-93747500D02*
X139954000Y-101715022D01*
X135680000Y-105989022D02*
X135680000Y-114100000D01*
X139954000Y-101715022D02*
X135680000Y-105989022D01*
X138780000Y-88002500D02*
X136375500Y-85598000D01*
D31*
X142440720Y-88416660D02*
X142240000Y-88617380D01*
D32*
X127450000Y-97440000D02*
X131080000Y-97440000D01*
X133680000Y-94840000D02*
X133680000Y-88293500D01*
X133680000Y-88293500D02*
X136375500Y-85598000D01*
X136375500Y-85598000D02*
X136367500Y-85590000D01*
D31*
X142240000Y-88617380D02*
X139394880Y-88617380D01*
X143460550Y-88416660D02*
X142440720Y-88416660D01*
D32*
X131080000Y-97440000D02*
X133680000Y-94840000D01*
D31*
X139394880Y-88617380D02*
X138780000Y-88002500D01*
D32*
X136367500Y-85590000D02*
X127330000Y-85590000D01*
D33*
X171570000Y-120825000D02*
X169030000Y-120825000D01*
X181870000Y-88350000D02*
X183890000Y-90370000D01*
X159261500Y-88350000D02*
X176560000Y-88350000D01*
D31*
X157811500Y-89800000D02*
X159258000Y-88353500D01*
D33*
X176560000Y-88350000D02*
X181870000Y-88350000D01*
D31*
X151759131Y-89066900D02*
X152492231Y-89800000D01*
D33*
X183890000Y-102930000D02*
X171570000Y-115250000D01*
D31*
X150724950Y-89066900D02*
X151759131Y-89066900D01*
D33*
X171570000Y-115250000D02*
X171570000Y-120825000D01*
X183890000Y-90370000D02*
X183890000Y-102930000D01*
D31*
X159258000Y-88353500D02*
X159261500Y-88350000D01*
X152492231Y-89800000D02*
X157811500Y-89800000D01*
X150831890Y-93725520D02*
X150724950Y-93618580D01*
X163700000Y-97400000D02*
X178100000Y-97400000D01*
X178490000Y-90890000D02*
X176560000Y-90890000D01*
X160025520Y-93725520D02*
X163700000Y-97400000D01*
X160025520Y-93725520D02*
X150831890Y-93725520D01*
X178100000Y-97400000D02*
X180300000Y-95200000D01*
X180300000Y-92700000D02*
X178490000Y-90890000D01*
X180300000Y-95200000D02*
X180300000Y-92700000D01*
X150724950Y-92968340D02*
X149690769Y-92968340D01*
D33*
X175980000Y-92850000D02*
X176560000Y-93430000D01*
D31*
X153924000Y-92863500D02*
X153937500Y-92850000D01*
X148800000Y-93859109D02*
X148800000Y-95600000D01*
D32*
X127450000Y-102520000D02*
X131360000Y-102520000D01*
D31*
X150724950Y-92968340D02*
X153819160Y-92968340D01*
D33*
X167600000Y-92850000D02*
X175980000Y-92850000D01*
D31*
X149690769Y-92968340D02*
X148800000Y-93859109D01*
D32*
X131360000Y-102520000D02*
X133680000Y-104840000D01*
D31*
X153937500Y-92850000D02*
X167600000Y-92850000D01*
D32*
X162150000Y-82950000D02*
X167600000Y-82950000D01*
D31*
X155007500Y-88492500D02*
X153924000Y-88492500D01*
X150724950Y-88416660D02*
X149655051Y-88416660D01*
X153924000Y-88492500D02*
X153848160Y-88416660D01*
X147200000Y-89200000D02*
X145800000Y-90600000D01*
D32*
X153931500Y-88500000D02*
X156600000Y-88500000D01*
X156600000Y-88500000D02*
X162150000Y-82950000D01*
D31*
X153848160Y-88416660D02*
X150724950Y-88416660D01*
X153924000Y-88492500D02*
X153931500Y-88500000D01*
D32*
X145800000Y-90600000D02*
X145800000Y-90800000D01*
D31*
X148871711Y-89200000D02*
X147200000Y-89200000D01*
X149655051Y-88416660D02*
X148871711Y-89200000D01*
X156200000Y-87300000D02*
X155007500Y-88492500D01*
X148517620Y-91017620D02*
X148300000Y-90800000D01*
X150724950Y-91017620D02*
X148517620Y-91017620D01*
X146700000Y-95273151D02*
X146700000Y-95600000D01*
X149655051Y-92318100D02*
X146700000Y-95273151D01*
X150724950Y-92318100D02*
X149655051Y-92318100D01*
X150691370Y-87800000D02*
X150724950Y-87766420D01*
X148300000Y-87800000D02*
X150691370Y-87800000D01*
X141005920Y-87766420D02*
X143460550Y-87766420D01*
X140970000Y-87730500D02*
X141005920Y-87766420D01*
X141909360Y-89717140D02*
X143460550Y-89717140D01*
X139954000Y-91672500D02*
X141909360Y-89717140D01*
X153924000Y-94588500D02*
X153924000Y-96012000D01*
X155574000Y-84328000D02*
X155702000Y-84200000D01*
X153604320Y-94268820D02*
X153924000Y-94588500D01*
X153416000Y-84328000D02*
X155574000Y-84328000D01*
X150724950Y-94268820D02*
X153604320Y-94268820D01*
X147620000Y-80972500D02*
X147692500Y-80900000D01*
X144600000Y-81017500D02*
X147575000Y-81017500D01*
X155702000Y-80900000D02*
X157600000Y-80900000D01*
X147692500Y-80900000D02*
X151010000Y-80900000D01*
X150724950Y-90367380D02*
X155137380Y-90367380D01*
X155137380Y-90367380D02*
X155702000Y-90932000D01*
X151010000Y-80900000D02*
X155702000Y-80900000D01*
X147575000Y-81017500D02*
X147620000Y-80972500D01*
X150724950Y-87116180D02*
X153575320Y-87116180D01*
X151010000Y-84200000D02*
X151010000Y-86831130D01*
X151010000Y-86831130D02*
X150724950Y-87116180D01*
X153575320Y-87116180D02*
X153924000Y-86767500D01*
X160020000Y-123200000D02*
X150920000Y-114100000D01*
X144604960Y-90795040D02*
X144382380Y-91017620D01*
X150724950Y-91667860D02*
X159068640Y-91667860D01*
X144604960Y-90795040D02*
X145477780Y-91667860D01*
X142833000Y-84142500D02*
X140970000Y-86005500D01*
X173600000Y-123200000D02*
X160020000Y-123200000D01*
X138780000Y-89197500D02*
X138780000Y-90222500D01*
X138780000Y-89197500D02*
X138910600Y-89066900D01*
X145477780Y-91667860D02*
X150724950Y-91667860D01*
X138910600Y-89066900D02*
X143460550Y-89066900D01*
X145155500Y-101345500D02*
X146955500Y-99545500D01*
X147620000Y-83047500D02*
X145695000Y-83047500D01*
X144530449Y-89066900D02*
X144604960Y-89141411D01*
X144382380Y-91017620D02*
X143460550Y-91017620D01*
X174110000Y-122690000D02*
X174110000Y-120825000D01*
X144604960Y-89141411D02*
X144604960Y-90795040D01*
X173600000Y-123200000D02*
X174110000Y-122690000D01*
X145695000Y-83047500D02*
X144600000Y-84142500D01*
X144800000Y-84342500D02*
X144600000Y-84142500D01*
X144600000Y-84142500D02*
X142833000Y-84142500D01*
X146955500Y-99545500D02*
X146955500Y-99445500D01*
X143460550Y-89066900D02*
X144530449Y-89066900D01*
X138780000Y-90222500D02*
X137700000Y-91302500D01*
X159068640Y-91667860D02*
X159258000Y-91478500D01*
G04 #@! TA.AperFunction,Conductor*
G36*
X203912121Y-74696002D02*
G01*
X203958614Y-74749658D01*
X203970000Y-74802000D01*
X203970000Y-124842000D01*
X203949998Y-124910121D01*
X203896342Y-124956614D01*
X203844000Y-124968000D01*
X106634000Y-124968000D01*
X106565879Y-124947998D01*
X106519386Y-124894342D01*
X106508000Y-124842000D01*
X106508000Y-120503655D01*
X109999858Y-120503655D01*
X110035104Y-120762638D01*
X110036412Y-120767124D01*
X110036412Y-120767126D01*
X110053281Y-120825000D01*
X110108243Y-121013567D01*
X110217668Y-121250928D01*
X110230362Y-121270289D01*
X110358410Y-121465596D01*
X110358414Y-121465601D01*
X110360976Y-121469509D01*
X110535018Y-121664506D01*
X110735970Y-121831637D01*
X110772002Y-121853502D01*
X110955422Y-121964804D01*
X110955426Y-121964806D01*
X110959419Y-121967229D01*
X111200455Y-122068303D01*
X111453783Y-122132641D01*
X111458434Y-122133109D01*
X111458438Y-122133110D01*
X111651308Y-122152531D01*
X111670867Y-122154500D01*
X111826354Y-122154500D01*
X111828679Y-122154327D01*
X111828685Y-122154327D01*
X112016000Y-122140407D01*
X112016004Y-122140406D01*
X112020652Y-122140061D01*
X112025200Y-122139032D01*
X112025206Y-122139031D01*
X112211601Y-122096853D01*
X112275577Y-122082377D01*
X112311769Y-122068303D01*
X112514824Y-121989340D01*
X112514827Y-121989339D01*
X112519177Y-121987647D01*
X112554956Y-121967198D01*
X112639305Y-121918988D01*
X112746098Y-121857951D01*
X112951357Y-121696138D01*
X113130443Y-121505763D01*
X113254587Y-121326811D01*
X113276759Y-121294851D01*
X113276761Y-121294848D01*
X113279424Y-121291009D01*
X113310696Y-121227596D01*
X113392960Y-121060781D01*
X113392961Y-121060778D01*
X113395025Y-121056593D01*
X113410085Y-121009547D01*
X113473280Y-120812123D01*
X113474707Y-120807665D01*
X113516721Y-120549693D01*
X113519340Y-120349610D01*
X113520081Y-120293022D01*
X113520081Y-120293019D01*
X113520142Y-120288345D01*
X113484896Y-120029362D01*
X113470473Y-119979877D01*
X113451470Y-119914684D01*
X113411757Y-119778433D01*
X113302332Y-119541072D01*
X113254948Y-119468800D01*
X113161590Y-119326404D01*
X113161586Y-119326399D01*
X113159024Y-119322491D01*
X112984982Y-119127494D01*
X112784030Y-118960363D01*
X112736844Y-118931730D01*
X112564578Y-118827196D01*
X112564574Y-118827194D01*
X112560581Y-118824771D01*
X112319545Y-118723697D01*
X112066217Y-118659359D01*
X112061566Y-118658891D01*
X112061562Y-118658890D01*
X111852271Y-118637816D01*
X111849133Y-118637500D01*
X111693646Y-118637500D01*
X111691321Y-118637673D01*
X111691315Y-118637673D01*
X111504000Y-118651593D01*
X111503996Y-118651594D01*
X111499348Y-118651939D01*
X111494800Y-118652968D01*
X111494794Y-118652969D01*
X111308399Y-118695147D01*
X111244423Y-118709623D01*
X111240071Y-118711315D01*
X111240069Y-118711316D01*
X111005176Y-118802660D01*
X111005173Y-118802661D01*
X111000823Y-118804353D01*
X110773902Y-118934049D01*
X110568643Y-119095862D01*
X110389557Y-119286237D01*
X110300252Y-119414969D01*
X110257552Y-119476521D01*
X110240576Y-119500991D01*
X110238510Y-119505181D01*
X110238508Y-119505184D01*
X110131408Y-119722363D01*
X110124975Y-119735407D01*
X110123553Y-119739850D01*
X110123552Y-119739852D01*
X110060175Y-119937842D01*
X110045293Y-119984335D01*
X110003279Y-120242307D01*
X110002737Y-120283711D01*
X109999995Y-120493219D01*
X109999858Y-120503655D01*
X106508000Y-120503655D01*
X106508000Y-113354062D01*
X114271144Y-113354062D01*
X114280440Y-113366077D01*
X114331645Y-113401931D01*
X114341140Y-113407414D01*
X114538598Y-113499490D01*
X114548890Y-113503236D01*
X114759339Y-113559625D01*
X114770132Y-113561528D01*
X114987176Y-113580517D01*
X114998126Y-113580517D01*
X115215170Y-113561528D01*
X115225963Y-113559625D01*
X115436412Y-113503236D01*
X115446704Y-113499490D01*
X115644162Y-113407414D01*
X115653657Y-113401931D01*
X115705699Y-113365491D01*
X115714075Y-113355012D01*
X115707007Y-113341566D01*
X115481575Y-113116134D01*
X117184151Y-113116134D01*
X117190906Y-113178316D01*
X117242036Y-113314705D01*
X117329390Y-113431261D01*
X117445946Y-113518615D01*
X117582335Y-113569745D01*
X117644517Y-113576500D01*
X119340785Y-113576500D01*
X119402967Y-113569745D01*
X119539356Y-113518615D01*
X119655912Y-113431261D01*
X119734100Y-113326935D01*
X119790959Y-113284420D01*
X119834926Y-113276500D01*
X125432398Y-113276500D01*
X125500519Y-113296502D01*
X125521493Y-113313405D01*
X126724595Y-114516506D01*
X126758620Y-114578818D01*
X126761500Y-114605601D01*
X126761500Y-115683811D01*
X126768255Y-115745993D01*
X126819385Y-115882382D01*
X126906739Y-115998938D01*
X127023295Y-116086292D01*
X127031703Y-116089444D01*
X127152286Y-116134649D01*
X127152289Y-116134650D01*
X127159684Y-116137422D01*
X127165453Y-116138049D01*
X127226291Y-116172803D01*
X127259113Y-116235758D01*
X127261500Y-116260170D01*
X127261500Y-119953737D01*
X127241498Y-120021858D01*
X127226594Y-120040788D01*
X127110629Y-120162138D01*
X127107715Y-120166410D01*
X127107714Y-120166411D01*
X127055941Y-120242307D01*
X126984743Y-120346680D01*
X126890688Y-120549305D01*
X126830989Y-120764570D01*
X126807251Y-120986695D01*
X126807548Y-120991848D01*
X126807548Y-120991851D01*
X126819812Y-121204547D01*
X126820110Y-121209715D01*
X126821247Y-121214761D01*
X126821248Y-121214767D01*
X126842039Y-121307020D01*
X126869222Y-121427639D01*
X126953266Y-121634616D01*
X126955965Y-121639020D01*
X127061603Y-121811406D01*
X127069987Y-121825088D01*
X127216250Y-121993938D01*
X127324017Y-122083408D01*
X127382770Y-122132185D01*
X127388126Y-122136632D01*
X127581000Y-122249338D01*
X127789692Y-122329030D01*
X127794760Y-122330061D01*
X127794763Y-122330062D01*
X127902017Y-122351883D01*
X128008597Y-122373567D01*
X128013772Y-122373757D01*
X128013774Y-122373757D01*
X128226673Y-122381564D01*
X128226677Y-122381564D01*
X128231837Y-122381753D01*
X128236957Y-122381097D01*
X128236959Y-122381097D01*
X128448288Y-122354025D01*
X128448289Y-122354025D01*
X128453416Y-122353368D01*
X128458366Y-122351883D01*
X128662429Y-122290661D01*
X128662434Y-122290659D01*
X128667384Y-122289174D01*
X128867994Y-122190896D01*
X129049860Y-122061173D01*
X129052886Y-122058157D01*
X129117588Y-122029570D01*
X129133976Y-122028500D01*
X129288991Y-122028500D01*
X129357112Y-122048502D01*
X129403605Y-122102158D01*
X129405903Y-122107694D01*
X129406232Y-122108296D01*
X129409385Y-122116705D01*
X129496739Y-122233261D01*
X129613295Y-122320615D01*
X129749684Y-122371745D01*
X129811866Y-122378500D01*
X131608134Y-122378500D01*
X131670316Y-122371745D01*
X131806705Y-122320615D01*
X131923261Y-122233261D01*
X132010615Y-122116705D01*
X132013767Y-122108296D01*
X132018077Y-122100425D01*
X132019741Y-122101336D01*
X132055663Y-122053510D01*
X132122224Y-122028807D01*
X132131009Y-122028500D01*
X141067130Y-122028500D01*
X141080737Y-122029237D01*
X141158265Y-122037659D01*
X141158266Y-122037659D01*
X141164388Y-122038324D01*
X141167924Y-122038015D01*
X141171462Y-122038374D01*
X141177587Y-122037795D01*
X141177588Y-122037795D01*
X141265970Y-122029440D01*
X141266847Y-122029360D01*
X141355279Y-122021624D01*
X141355283Y-122021623D01*
X141361413Y-122021087D01*
X141364827Y-122020095D01*
X141368362Y-122019761D01*
X141378171Y-122016837D01*
X141459304Y-121992651D01*
X141460146Y-121992403D01*
X141496206Y-121981926D01*
X141551336Y-121965909D01*
X141554489Y-121964275D01*
X141557896Y-121963259D01*
X141563350Y-121960383D01*
X141563356Y-121960381D01*
X141641865Y-121918988D01*
X141642590Y-121918608D01*
X141726926Y-121874892D01*
X141729703Y-121872675D01*
X141732846Y-121871018D01*
X141806652Y-121811251D01*
X141807146Y-121810854D01*
X141845215Y-121780464D01*
X141845218Y-121780461D01*
X141847973Y-121778262D01*
X141849793Y-121776442D01*
X141852839Y-121773850D01*
X141881752Y-121750436D01*
X141886547Y-121746553D01*
X141917176Y-121709791D01*
X141924884Y-121701351D01*
X147169379Y-116456855D01*
X147179522Y-116447753D01*
X147204218Y-116427897D01*
X147209025Y-116424032D01*
X147241292Y-116385578D01*
X147244472Y-116381931D01*
X147246115Y-116380119D01*
X147248309Y-116377925D01*
X147275642Y-116344651D01*
X147276348Y-116343800D01*
X147332195Y-116277244D01*
X147336154Y-116272526D01*
X147338722Y-116267856D01*
X147342103Y-116263739D01*
X147373140Y-116205855D01*
X147385977Y-116181914D01*
X147386606Y-116180755D01*
X147428462Y-116104619D01*
X147428465Y-116104611D01*
X147431433Y-116099213D01*
X147433045Y-116094131D01*
X147435562Y-116089437D01*
X147462762Y-116000469D01*
X147463108Y-115999358D01*
X147463242Y-115998938D01*
X147491235Y-115910694D01*
X147491829Y-115905398D01*
X147493387Y-115900302D01*
X147502790Y-115807743D01*
X147502911Y-115806607D01*
X147508500Y-115756773D01*
X147508500Y-115753246D01*
X147508555Y-115752261D01*
X147509002Y-115746581D01*
X147513374Y-115703538D01*
X147509059Y-115657891D01*
X147508500Y-115646033D01*
X147508500Y-115473359D01*
X149911386Y-115473359D01*
X149920099Y-115484879D01*
X150008586Y-115549760D01*
X150016505Y-115554708D01*
X150232877Y-115668547D01*
X150241451Y-115672275D01*
X150472282Y-115752885D01*
X150481291Y-115755299D01*
X150721518Y-115800908D01*
X150730775Y-115801962D01*
X150975107Y-115811563D01*
X150984420Y-115811237D01*
X151227478Y-115784618D01*
X151236655Y-115782917D01*
X151473107Y-115720665D01*
X151481926Y-115717628D01*
X151706584Y-115621107D01*
X151714856Y-115616800D01*
X151922777Y-115488135D01*
X151924620Y-115486796D01*
X151932038Y-115475541D01*
X151925974Y-115465184D01*
X150932812Y-114472022D01*
X150918868Y-114464408D01*
X150917035Y-114464539D01*
X150910420Y-114468790D01*
X149918044Y-115461166D01*
X149911386Y-115473359D01*
X147508500Y-115473359D01*
X147508500Y-114059835D01*
X149208022Y-114059835D01*
X149219754Y-114304064D01*
X149220891Y-114313324D01*
X149268593Y-114553143D01*
X149271082Y-114562118D01*
X149353708Y-114792250D01*
X149357505Y-114800778D01*
X149473234Y-115016160D01*
X149478245Y-115024027D01*
X149535173Y-115100263D01*
X149546431Y-115108712D01*
X149558850Y-115101940D01*
X150547978Y-114112812D01*
X150554356Y-114101132D01*
X151284408Y-114101132D01*
X151284539Y-114102965D01*
X151288790Y-114109580D01*
X152283732Y-115104522D01*
X152296112Y-115111282D01*
X152304453Y-115105038D01*
X152422700Y-114921202D01*
X152427147Y-114913011D01*
X152527572Y-114690076D01*
X152530767Y-114681298D01*
X152597135Y-114445973D01*
X152598993Y-114436844D01*
X152630044Y-114192770D01*
X152630525Y-114186483D01*
X152632706Y-114103160D01*
X152632555Y-114096851D01*
X152614321Y-113851486D01*
X152612944Y-113842280D01*
X152558979Y-113603786D01*
X152556255Y-113594875D01*
X152467633Y-113366983D01*
X152463619Y-113358567D01*
X152342284Y-113146276D01*
X152337074Y-113138553D01*
X152305787Y-113098865D01*
X152293863Y-113090395D01*
X152282328Y-113096882D01*
X151292022Y-114087188D01*
X151284408Y-114101132D01*
X150554356Y-114101132D01*
X150555592Y-114098868D01*
X150555461Y-114097035D01*
X150551210Y-114090420D01*
X149556828Y-113096038D01*
X149543520Y-113088771D01*
X149533481Y-113095893D01*
X149528581Y-113101784D01*
X149523168Y-113109373D01*
X149396322Y-113318409D01*
X149392084Y-113326726D01*
X149297529Y-113552214D01*
X149294573Y-113561049D01*
X149234384Y-113798042D01*
X149232763Y-113807232D01*
X149208267Y-114050510D01*
X149208022Y-114059835D01*
X147508500Y-114059835D01*
X147508500Y-112724917D01*
X149909330Y-112724917D01*
X149913903Y-112734693D01*
X150907188Y-113727978D01*
X150921132Y-113735592D01*
X150922965Y-113735461D01*
X150929580Y-113731210D01*
X151922488Y-112738302D01*
X151928872Y-112726612D01*
X151919460Y-112714502D01*
X151793144Y-112626873D01*
X151785116Y-112622145D01*
X151565810Y-112513995D01*
X151557177Y-112510507D01*
X151324288Y-112435958D01*
X151315238Y-112433785D01*
X151073891Y-112394480D01*
X151064602Y-112393668D01*
X150820114Y-112390467D01*
X150810803Y-112391037D01*
X150568522Y-112424010D01*
X150559403Y-112425948D01*
X150324668Y-112494367D01*
X150315915Y-112497639D01*
X150093869Y-112600004D01*
X150085714Y-112604524D01*
X149918468Y-112714175D01*
X149909330Y-112724917D01*
X147508500Y-112724917D01*
X147508500Y-112569925D01*
X147528502Y-112501804D01*
X147545405Y-112480830D01*
X150680830Y-109345405D01*
X150743142Y-109311379D01*
X150769925Y-109308500D01*
X151877535Y-109308500D01*
X151945656Y-109328502D01*
X151978493Y-109359111D01*
X152024171Y-109420282D01*
X152024176Y-109420288D01*
X152026963Y-109424020D01*
X152030272Y-109427300D01*
X152030277Y-109427306D01*
X152193781Y-109589389D01*
X152207307Y-109602797D01*
X152211069Y-109605555D01*
X152211072Y-109605558D01*
X152256193Y-109638642D01*
X152412094Y-109752953D01*
X152416229Y-109755129D01*
X152416233Y-109755131D01*
X152478899Y-109788101D01*
X152636827Y-109871191D01*
X152876568Y-109954912D01*
X153126050Y-110002278D01*
X153246532Y-110007011D01*
X153375125Y-110012064D01*
X153375130Y-110012064D01*
X153379793Y-110012247D01*
X153478774Y-110001407D01*
X153627569Y-109985112D01*
X153627575Y-109985111D01*
X153632222Y-109984602D01*
X153741680Y-109955784D01*
X153873273Y-109921138D01*
X153877793Y-109919948D01*
X154000159Y-109867376D01*
X154106807Y-109821557D01*
X154106810Y-109821555D01*
X154111110Y-109819708D01*
X154115090Y-109817245D01*
X154115094Y-109817243D01*
X154323064Y-109688547D01*
X154323066Y-109688545D01*
X154327047Y-109686082D01*
X154375272Y-109645257D01*
X154517289Y-109525031D01*
X154517291Y-109525029D01*
X154520862Y-109522006D01*
X154688295Y-109331084D01*
X154697295Y-109317093D01*
X154823141Y-109121442D01*
X154825669Y-109117512D01*
X154929967Y-108885980D01*
X154932968Y-108875341D01*
X154962004Y-108772385D01*
X154998896Y-108641575D01*
X155020007Y-108475633D01*
X155030545Y-108392798D01*
X155030545Y-108392792D01*
X155030943Y-108389667D01*
X155033291Y-108300000D01*
X155032038Y-108283136D01*
X155017715Y-108090394D01*
X155032614Y-108020979D01*
X155054273Y-107991962D01*
X155425393Y-107620842D01*
X155803981Y-107242253D01*
X155866294Y-107208228D01*
X155937306Y-107213366D01*
X156032282Y-107248971D01*
X156032288Y-107248973D01*
X156039684Y-107251745D01*
X156101866Y-107258500D01*
X158898134Y-107258500D01*
X158960316Y-107251745D01*
X159096705Y-107200615D01*
X159213261Y-107113261D01*
X159300615Y-106996705D01*
X159351745Y-106860316D01*
X159358500Y-106798134D01*
X159358500Y-105274500D01*
X159378502Y-105206379D01*
X159432158Y-105159886D01*
X159484500Y-105148500D01*
X168484565Y-105148500D01*
X168552686Y-105168502D01*
X168599179Y-105222158D01*
X168602547Y-105230270D01*
X168643385Y-105339205D01*
X168730739Y-105455761D01*
X168847295Y-105543115D01*
X168867189Y-105550573D01*
X168923953Y-105593213D01*
X168948654Y-105659774D01*
X168933447Y-105729123D01*
X168921842Y-105746647D01*
X168828633Y-105864670D01*
X168828630Y-105864675D01*
X168825432Y-105868724D01*
X168822939Y-105873240D01*
X168822937Y-105873243D01*
X168711823Y-106074526D01*
X168709326Y-106079050D01*
X168707602Y-106083919D01*
X168707600Y-106083923D01*
X168635590Y-106287272D01*
X168629130Y-106305515D01*
X168628223Y-106310608D01*
X168628222Y-106310611D01*
X168594820Y-106498131D01*
X168586999Y-106542037D01*
X168584064Y-106782263D01*
X168620404Y-107019744D01*
X168648623Y-107106081D01*
X168693434Y-107243183D01*
X168693437Y-107243189D01*
X168695042Y-107248101D01*
X168697429Y-107252687D01*
X168697431Y-107252691D01*
X168752820Y-107359091D01*
X168805975Y-107461200D01*
X168809085Y-107465342D01*
X168929000Y-107625053D01*
X168950223Y-107653320D01*
X169123912Y-107819301D01*
X169160903Y-107844535D01*
X169205904Y-107899444D01*
X169214075Y-107969968D01*
X169182821Y-108033716D01*
X169158340Y-108054411D01*
X169156707Y-108055468D01*
X169152023Y-108058498D01*
X168974330Y-108220186D01*
X168950141Y-108250815D01*
X168828633Y-108404670D01*
X168828630Y-108404675D01*
X168825432Y-108408724D01*
X168822939Y-108413240D01*
X168822937Y-108413243D01*
X168711823Y-108614526D01*
X168709326Y-108619050D01*
X168707602Y-108623919D01*
X168707600Y-108623923D01*
X168653310Y-108777232D01*
X168629130Y-108845515D01*
X168628223Y-108850608D01*
X168628222Y-108850611D01*
X168602172Y-108996858D01*
X168586999Y-109082037D01*
X168586936Y-109087201D01*
X168584741Y-109266887D01*
X168584064Y-109322263D01*
X168620404Y-109559744D01*
X168644853Y-109634545D01*
X168693434Y-109783183D01*
X168693437Y-109783189D01*
X168695042Y-109788101D01*
X168697429Y-109792687D01*
X168697431Y-109792691D01*
X168764297Y-109921138D01*
X168805975Y-110001200D01*
X168950223Y-110193320D01*
X169123912Y-110359301D01*
X169322378Y-110494686D01*
X169327061Y-110496860D01*
X169327065Y-110496862D01*
X169535595Y-110593658D01*
X169535599Y-110593659D01*
X169540290Y-110595837D01*
X169771798Y-110660040D01*
X169776935Y-110660589D01*
X169964593Y-110680644D01*
X169964601Y-110680644D01*
X169967928Y-110681000D01*
X170202402Y-110681000D01*
X170204975Y-110680788D01*
X170204986Y-110680788D01*
X170305946Y-110672487D01*
X170380937Y-110666322D01*
X170613944Y-110607794D01*
X170742771Y-110551779D01*
X170829526Y-110514057D01*
X170829529Y-110514055D01*
X170834263Y-110511997D01*
X171035977Y-110381502D01*
X171213670Y-110219814D01*
X171309633Y-110098304D01*
X171359367Y-110035330D01*
X171359370Y-110035325D01*
X171362568Y-110031276D01*
X171375584Y-110007699D01*
X171476177Y-109825474D01*
X171476179Y-109825470D01*
X171478674Y-109820950D01*
X171502754Y-109752953D01*
X171557144Y-109599360D01*
X171557145Y-109599356D01*
X171558870Y-109594485D01*
X171564183Y-109564659D01*
X171600095Y-109363052D01*
X171600096Y-109363046D01*
X171601001Y-109357963D01*
X171603936Y-109117737D01*
X171567596Y-108880256D01*
X171530830Y-108767770D01*
X171494566Y-108656817D01*
X171494563Y-108656811D01*
X171492958Y-108651899D01*
X171489926Y-108646073D01*
X171384416Y-108443393D01*
X171382025Y-108438800D01*
X171345135Y-108389667D01*
X171240882Y-108250815D01*
X171240880Y-108250812D01*
X171237777Y-108246680D01*
X171064088Y-108080699D01*
X171027097Y-108055465D01*
X170982096Y-108000556D01*
X170973925Y-107930032D01*
X171005179Y-107866284D01*
X171029660Y-107845589D01*
X171031635Y-107844311D01*
X171035977Y-107841502D01*
X171213670Y-107679814D01*
X171294831Y-107577046D01*
X171359367Y-107495330D01*
X171359370Y-107495325D01*
X171362568Y-107491276D01*
X171376885Y-107465342D01*
X171476177Y-107285474D01*
X171476179Y-107285470D01*
X171478674Y-107280950D01*
X171482655Y-107269710D01*
X171557144Y-107059360D01*
X171557145Y-107059356D01*
X171558870Y-107054485D01*
X171564183Y-107024659D01*
X171600095Y-106823052D01*
X171600096Y-106823046D01*
X171601001Y-106817963D01*
X171603747Y-106593229D01*
X171603873Y-106582907D01*
X171603873Y-106582905D01*
X171603936Y-106577737D01*
X171567596Y-106340256D01*
X171530906Y-106228003D01*
X171494566Y-106116817D01*
X171494563Y-106116811D01*
X171492958Y-106111899D01*
X171486929Y-106100316D01*
X171384416Y-105903393D01*
X171382025Y-105898800D01*
X171265585Y-105743717D01*
X171240680Y-105677235D01*
X171255672Y-105607839D01*
X171305802Y-105557565D01*
X171322115Y-105550085D01*
X171332293Y-105546269D01*
X171332296Y-105546267D01*
X171340705Y-105543115D01*
X171457261Y-105455761D01*
X171544615Y-105339205D01*
X171595745Y-105202816D01*
X171602500Y-105140634D01*
X171602500Y-103139366D01*
X171595745Y-103077184D01*
X171544615Y-102940795D01*
X171457261Y-102824239D01*
X171340705Y-102736885D01*
X171204316Y-102685755D01*
X171142134Y-102679000D01*
X169045866Y-102679000D01*
X168983684Y-102685755D01*
X168847295Y-102736885D01*
X168730739Y-102824239D01*
X168643385Y-102940795D01*
X168640233Y-102949203D01*
X168602547Y-103049730D01*
X168559905Y-103106494D01*
X168493344Y-103131194D01*
X168484565Y-103131500D01*
X159484500Y-103131500D01*
X159416379Y-103111498D01*
X159369886Y-103057842D01*
X159358500Y-103005500D01*
X159358500Y-102201866D01*
X159351745Y-102139684D01*
X159300615Y-102003295D01*
X159213261Y-101886739D01*
X159096705Y-101799385D01*
X158960316Y-101748255D01*
X158898134Y-101741500D01*
X156101866Y-101741500D01*
X156039684Y-101748255D01*
X155903295Y-101799385D01*
X155786739Y-101886739D01*
X155699385Y-102003295D01*
X155648255Y-102139684D01*
X155641500Y-102201866D01*
X155641500Y-104583297D01*
X155621498Y-104651418D01*
X155574651Y-104694549D01*
X155551739Y-104706731D01*
X155550574Y-104707343D01*
X155473547Y-104747271D01*
X155468074Y-104750108D01*
X155463911Y-104753431D01*
X155459204Y-104755934D01*
X155454429Y-104759828D01*
X155454428Y-104759829D01*
X155387102Y-104814739D01*
X155386075Y-104815567D01*
X155349792Y-104844531D01*
X155349787Y-104844536D01*
X155347028Y-104846738D01*
X155344527Y-104849239D01*
X155343809Y-104849881D01*
X155339461Y-104853594D01*
X155305938Y-104880935D01*
X155302015Y-104885677D01*
X155302013Y-104885679D01*
X155276703Y-104916273D01*
X155268713Y-104925053D01*
X153627803Y-106565963D01*
X153565491Y-106599989D01*
X153518456Y-106601230D01*
X153473938Y-106593980D01*
X153473930Y-106593979D01*
X153469323Y-106593229D01*
X153342364Y-106591567D01*
X153220083Y-106589966D01*
X153220080Y-106589966D01*
X153215406Y-106589905D01*
X152963787Y-106624149D01*
X152959301Y-106625457D01*
X152959299Y-106625457D01*
X152932401Y-106633297D01*
X152719993Y-106695208D01*
X152489380Y-106801522D01*
X152485471Y-106804085D01*
X152280928Y-106938189D01*
X152280923Y-106938193D01*
X152277015Y-106940755D01*
X152087562Y-107109848D01*
X152084573Y-107113442D01*
X152084568Y-107113447D01*
X151974267Y-107246069D01*
X151915329Y-107285653D01*
X151877393Y-107291500D01*
X150361850Y-107291500D01*
X150348242Y-107290763D01*
X150316737Y-107287340D01*
X150316733Y-107287340D01*
X150310612Y-107286675D01*
X150304473Y-107287212D01*
X150304469Y-107287212D01*
X150260589Y-107291051D01*
X150255752Y-107291381D01*
X150253314Y-107291500D01*
X150250231Y-107291500D01*
X150247174Y-107291800D01*
X150247169Y-107291800D01*
X150207580Y-107295682D01*
X150206265Y-107295804D01*
X150119723Y-107303375D01*
X150119721Y-107303375D01*
X150113587Y-107303912D01*
X150108463Y-107305401D01*
X150103167Y-107305920D01*
X150014172Y-107332789D01*
X150013085Y-107333111D01*
X149923664Y-107359091D01*
X149918932Y-107361544D01*
X149913831Y-107363084D01*
X149908388Y-107365978D01*
X149831740Y-107406731D01*
X149830574Y-107407343D01*
X149753547Y-107447271D01*
X149748074Y-107450108D01*
X149743911Y-107453431D01*
X149739204Y-107455934D01*
X149734429Y-107459828D01*
X149734428Y-107459829D01*
X149667102Y-107514739D01*
X149666075Y-107515567D01*
X149629792Y-107544531D01*
X149629787Y-107544536D01*
X149627028Y-107546738D01*
X149624527Y-107549239D01*
X149623809Y-107549881D01*
X149619461Y-107553594D01*
X149585938Y-107580935D01*
X149582015Y-107585677D01*
X149582013Y-107585679D01*
X149556703Y-107616273D01*
X149548713Y-107625053D01*
X145830621Y-111343145D01*
X145820478Y-111352247D01*
X145790975Y-111375968D01*
X145758709Y-111414421D01*
X145755528Y-111418069D01*
X145753885Y-111419881D01*
X145751691Y-111422075D01*
X145724358Y-111455349D01*
X145723696Y-111456147D01*
X145663846Y-111527474D01*
X145661278Y-111532144D01*
X145657897Y-111536261D01*
X145645718Y-111558975D01*
X145614023Y-111618086D01*
X145613394Y-111619245D01*
X145571538Y-111695381D01*
X145571535Y-111695389D01*
X145568567Y-111700787D01*
X145566955Y-111705869D01*
X145564438Y-111710563D01*
X145537238Y-111799531D01*
X145536918Y-111800559D01*
X145508765Y-111889306D01*
X145508171Y-111894602D01*
X145506613Y-111899698D01*
X145505990Y-111905834D01*
X145497218Y-111992187D01*
X145497089Y-111993393D01*
X145491500Y-112043227D01*
X145491500Y-112046754D01*
X145491445Y-112047739D01*
X145490998Y-112053419D01*
X145486626Y-112096462D01*
X145487206Y-112102593D01*
X145490941Y-112142109D01*
X145491500Y-112153967D01*
X145491500Y-115230075D01*
X145471498Y-115298196D01*
X145454595Y-115319170D01*
X140799171Y-119974595D01*
X140736859Y-120008621D01*
X140710076Y-120011500D01*
X132131009Y-120011500D01*
X132062888Y-119991498D01*
X132016395Y-119937842D01*
X132014097Y-119932306D01*
X132013768Y-119931704D01*
X132010615Y-119923295D01*
X131923261Y-119806739D01*
X131806705Y-119719385D01*
X131670316Y-119668255D01*
X131608134Y-119661500D01*
X129811866Y-119661500D01*
X129749684Y-119668255D01*
X129613295Y-119719385D01*
X129496739Y-119806739D01*
X129492646Y-119812200D01*
X129431283Y-119845708D01*
X129360468Y-119840643D01*
X129303632Y-119798096D01*
X129278821Y-119731576D01*
X129278500Y-119722587D01*
X129278500Y-116260170D01*
X129298502Y-116192049D01*
X129352158Y-116145556D01*
X129373763Y-116138134D01*
X129380316Y-116137422D01*
X129387711Y-116134650D01*
X129387714Y-116134649D01*
X129508297Y-116089444D01*
X129516705Y-116086292D01*
X129633261Y-115998938D01*
X129720615Y-115882382D01*
X129771745Y-115745993D01*
X129778500Y-115683811D01*
X129778500Y-113587543D01*
X129771745Y-113525361D01*
X129720615Y-113388972D01*
X129633261Y-113272416D01*
X129516705Y-113185062D01*
X129380316Y-113133932D01*
X129318134Y-113127177D01*
X128239925Y-113127177D01*
X128171804Y-113107175D01*
X128150830Y-113090272D01*
X126659178Y-111598621D01*
X126650076Y-111588478D01*
X126630220Y-111563782D01*
X126626355Y-111558975D01*
X126587901Y-111526708D01*
X126584254Y-111523528D01*
X126582442Y-111521885D01*
X126580248Y-111519691D01*
X126546974Y-111492358D01*
X126546176Y-111491696D01*
X126474849Y-111431846D01*
X126470179Y-111429278D01*
X126466062Y-111425897D01*
X126384237Y-111382023D01*
X126383078Y-111381394D01*
X126306942Y-111339538D01*
X126306934Y-111339535D01*
X126301536Y-111336567D01*
X126296454Y-111334955D01*
X126291760Y-111332438D01*
X126202792Y-111305238D01*
X126201764Y-111304918D01*
X126113017Y-111276765D01*
X126107721Y-111276171D01*
X126102625Y-111274613D01*
X126010066Y-111265210D01*
X126008930Y-111265089D01*
X125975315Y-111261319D01*
X125962593Y-111259892D01*
X125962589Y-111259892D01*
X125959096Y-111259500D01*
X125955569Y-111259500D01*
X125954584Y-111259445D01*
X125948904Y-111258998D01*
X125919498Y-111256011D01*
X125911986Y-111255248D01*
X125911984Y-111255248D01*
X125905861Y-111254626D01*
X125863582Y-111258623D01*
X125860214Y-111258941D01*
X125848356Y-111259500D01*
X119834926Y-111259500D01*
X119766805Y-111239498D01*
X119734100Y-111209065D01*
X119722594Y-111193713D01*
X119655912Y-111104739D01*
X119539356Y-111017385D01*
X119402967Y-110966255D01*
X119340785Y-110959500D01*
X117644517Y-110959500D01*
X117582335Y-110966255D01*
X117445946Y-111017385D01*
X117329390Y-111104739D01*
X117242036Y-111221295D01*
X117190906Y-111357684D01*
X117188262Y-111382023D01*
X117184743Y-111414421D01*
X117184151Y-111419866D01*
X117184151Y-113116134D01*
X115481575Y-113116134D01*
X115005463Y-112640022D01*
X114991519Y-112632408D01*
X114989686Y-112632539D01*
X114983071Y-112636790D01*
X114277574Y-113342287D01*
X114271144Y-113354062D01*
X106508000Y-113354062D01*
X106508000Y-112273475D01*
X113680134Y-112273475D01*
X113699123Y-112490519D01*
X113701026Y-112501312D01*
X113757415Y-112711761D01*
X113761161Y-112722053D01*
X113853237Y-112919511D01*
X113858720Y-112929006D01*
X113895160Y-112981048D01*
X113905639Y-112989424D01*
X113919085Y-112982356D01*
X114620629Y-112280812D01*
X114627007Y-112269132D01*
X115357059Y-112269132D01*
X115357190Y-112270965D01*
X115361441Y-112277580D01*
X116066938Y-112983077D01*
X116078713Y-112989507D01*
X116090728Y-112980211D01*
X116126582Y-112929006D01*
X116132065Y-112919511D01*
X116224141Y-112722053D01*
X116227887Y-112711761D01*
X116284276Y-112501312D01*
X116286179Y-112490519D01*
X116305168Y-112273475D01*
X116305168Y-112262525D01*
X116286179Y-112045481D01*
X116284276Y-112034688D01*
X116227887Y-111824239D01*
X116224141Y-111813947D01*
X116132065Y-111616489D01*
X116126582Y-111606994D01*
X116090142Y-111554952D01*
X116079663Y-111546576D01*
X116066217Y-111553644D01*
X115364673Y-112255188D01*
X115357059Y-112269132D01*
X114627007Y-112269132D01*
X114628243Y-112266868D01*
X114628112Y-112265035D01*
X114623861Y-112258420D01*
X113918364Y-111552923D01*
X113906589Y-111546493D01*
X113894574Y-111555789D01*
X113858720Y-111606994D01*
X113853237Y-111616489D01*
X113761161Y-111813947D01*
X113757415Y-111824239D01*
X113701026Y-112034688D01*
X113699123Y-112045481D01*
X113680134Y-112262525D01*
X113680134Y-112273475D01*
X106508000Y-112273475D01*
X106508000Y-111180988D01*
X114271227Y-111180988D01*
X114278295Y-111194434D01*
X114979839Y-111895978D01*
X114993783Y-111903592D01*
X114995616Y-111903461D01*
X115002231Y-111899210D01*
X115707728Y-111193713D01*
X115714158Y-111181938D01*
X115704862Y-111169923D01*
X115653657Y-111134069D01*
X115644162Y-111128586D01*
X115446704Y-111036510D01*
X115436412Y-111032764D01*
X115225963Y-110976375D01*
X115215170Y-110974472D01*
X114998126Y-110955483D01*
X114987176Y-110955483D01*
X114770132Y-110974472D01*
X114759339Y-110976375D01*
X114548890Y-111032764D01*
X114538598Y-111036510D01*
X114341140Y-111128586D01*
X114331645Y-111134069D01*
X114279603Y-111170509D01*
X114271227Y-111180988D01*
X106508000Y-111180988D01*
X106508000Y-110868347D01*
X127402160Y-110868347D01*
X127407887Y-110875997D01*
X127579042Y-110980882D01*
X127587837Y-110985364D01*
X127797988Y-111072411D01*
X127807373Y-111075460D01*
X128028554Y-111128562D01*
X128038301Y-111130105D01*
X128265070Y-111147952D01*
X128274930Y-111147952D01*
X128501699Y-111130105D01*
X128511446Y-111128562D01*
X128732627Y-111075460D01*
X128742012Y-111072411D01*
X128952163Y-110985364D01*
X128960958Y-110980882D01*
X129128445Y-110878245D01*
X129137907Y-110867787D01*
X129134124Y-110859011D01*
X128282812Y-110007699D01*
X128268868Y-110000085D01*
X128267035Y-110000216D01*
X128260420Y-110004467D01*
X127408920Y-110855967D01*
X127402160Y-110868347D01*
X106508000Y-110868347D01*
X106508000Y-109640607D01*
X126757725Y-109640607D01*
X126775572Y-109867376D01*
X126777115Y-109877123D01*
X126830217Y-110098304D01*
X126833266Y-110107689D01*
X126920313Y-110317840D01*
X126924795Y-110326635D01*
X127027432Y-110494122D01*
X127037890Y-110503584D01*
X127046666Y-110499801D01*
X127897978Y-109648489D01*
X127904356Y-109636809D01*
X128634408Y-109636809D01*
X128634539Y-109638642D01*
X128638790Y-109645257D01*
X129490290Y-110496757D01*
X129502670Y-110503517D01*
X129510320Y-110497790D01*
X129615205Y-110326635D01*
X129619687Y-110317840D01*
X129706734Y-110107689D01*
X129709783Y-110098304D01*
X129762885Y-109877123D01*
X129764428Y-109867376D01*
X129782275Y-109640607D01*
X129782275Y-109630747D01*
X129764428Y-109403978D01*
X129762885Y-109394231D01*
X129709783Y-109173050D01*
X129706734Y-109163665D01*
X129619687Y-108953514D01*
X129615205Y-108944719D01*
X129512568Y-108777232D01*
X129502110Y-108767770D01*
X129493334Y-108771553D01*
X128642022Y-109622865D01*
X128634408Y-109636809D01*
X127904356Y-109636809D01*
X127905592Y-109634545D01*
X127905461Y-109632712D01*
X127901210Y-109626097D01*
X127049710Y-108774597D01*
X127037330Y-108767837D01*
X127029680Y-108773564D01*
X126924795Y-108944719D01*
X126920313Y-108953514D01*
X126833266Y-109163665D01*
X126830217Y-109173050D01*
X126777115Y-109394231D01*
X126775572Y-109403978D01*
X126757725Y-109630747D01*
X126757725Y-109640607D01*
X106508000Y-109640607D01*
X106508000Y-108403567D01*
X127402093Y-108403567D01*
X127405876Y-108412343D01*
X128257188Y-109263655D01*
X128271132Y-109271269D01*
X128272965Y-109271138D01*
X128279580Y-109266887D01*
X129131080Y-108415387D01*
X129137840Y-108403007D01*
X129132113Y-108395357D01*
X128960958Y-108290472D01*
X128952163Y-108285990D01*
X128742012Y-108198943D01*
X128732627Y-108195894D01*
X128511446Y-108142792D01*
X128501699Y-108141249D01*
X128274930Y-108123402D01*
X128265070Y-108123402D01*
X128038301Y-108141249D01*
X128028554Y-108142792D01*
X127807373Y-108195894D01*
X127797988Y-108198943D01*
X127587837Y-108285990D01*
X127579042Y-108290472D01*
X127411555Y-108393109D01*
X127402093Y-108403567D01*
X106508000Y-108403567D01*
X106508000Y-99980000D01*
X108526654Y-99980000D01*
X108526924Y-99984119D01*
X108541552Y-100207296D01*
X108546017Y-100275426D01*
X108546819Y-100279459D01*
X108546820Y-100279465D01*
X108600256Y-100548101D01*
X108603776Y-100565797D01*
X108605103Y-100569706D01*
X108605104Y-100569710D01*
X108681692Y-100795330D01*
X108698941Y-100846145D01*
X108733528Y-100916281D01*
X108811990Y-101075385D01*
X108829885Y-101111673D01*
X108844749Y-101133919D01*
X108982465Y-101340025D01*
X108994367Y-101357838D01*
X108997081Y-101360932D01*
X108997085Y-101360938D01*
X109136024Y-101519366D01*
X109189573Y-101580427D01*
X109192662Y-101583136D01*
X109409062Y-101772915D01*
X109409068Y-101772919D01*
X109412162Y-101775633D01*
X109415588Y-101777922D01*
X109415593Y-101777926D01*
X109575232Y-101884593D01*
X109658327Y-101940115D01*
X109662026Y-101941939D01*
X109662031Y-101941942D01*
X109786443Y-102003295D01*
X109923855Y-102071059D01*
X109927760Y-102072384D01*
X109927761Y-102072385D01*
X110200290Y-102164896D01*
X110200294Y-102164897D01*
X110204203Y-102166224D01*
X110208247Y-102167028D01*
X110208253Y-102167030D01*
X110490535Y-102223180D01*
X110490541Y-102223181D01*
X110494574Y-102223983D01*
X110498679Y-102224252D01*
X110498686Y-102224253D01*
X110785881Y-102243076D01*
X110790000Y-102243346D01*
X110794119Y-102243076D01*
X111081314Y-102224253D01*
X111081321Y-102224252D01*
X111085426Y-102223983D01*
X111089459Y-102223181D01*
X111089465Y-102223180D01*
X111371747Y-102167030D01*
X111371753Y-102167028D01*
X111375797Y-102166224D01*
X111379706Y-102164897D01*
X111379710Y-102164896D01*
X111652239Y-102072385D01*
X111652240Y-102072384D01*
X111656145Y-102071059D01*
X111793557Y-102003295D01*
X111917969Y-101941942D01*
X111917974Y-101941939D01*
X111921673Y-101940115D01*
X112004768Y-101884593D01*
X112164407Y-101777926D01*
X112164412Y-101777922D01*
X112167838Y-101775633D01*
X112170932Y-101772919D01*
X112170938Y-101772915D01*
X112387338Y-101583136D01*
X112390427Y-101580427D01*
X112443976Y-101519366D01*
X112582915Y-101360938D01*
X112582919Y-101360932D01*
X112585633Y-101357838D01*
X112597536Y-101340025D01*
X112735251Y-101133919D01*
X112750115Y-101111673D01*
X112768011Y-101075385D01*
X112846472Y-100916281D01*
X112881059Y-100846145D01*
X112898308Y-100795330D01*
X112974896Y-100569710D01*
X112974897Y-100569706D01*
X112976224Y-100565797D01*
X112979744Y-100548101D01*
X113033180Y-100279465D01*
X113033181Y-100279459D01*
X113033983Y-100275426D01*
X113038449Y-100207296D01*
X113053076Y-99984119D01*
X113053346Y-99980000D01*
X113046944Y-99882318D01*
X113034253Y-99688686D01*
X113034252Y-99688679D01*
X113033983Y-99684574D01*
X113031080Y-99669977D01*
X112977030Y-99398253D01*
X112977028Y-99398247D01*
X112976224Y-99394203D01*
X112972735Y-99383923D01*
X112882385Y-99117761D01*
X112882384Y-99117760D01*
X112881059Y-99113855D01*
X112750115Y-98848327D01*
X112691417Y-98760479D01*
X112587926Y-98605593D01*
X112587922Y-98605588D01*
X112585633Y-98602162D01*
X112582919Y-98599068D01*
X112582915Y-98599062D01*
X112393136Y-98382662D01*
X112390427Y-98379573D01*
X112362645Y-98355209D01*
X112170938Y-98187085D01*
X112170932Y-98187081D01*
X112167838Y-98184367D01*
X112164412Y-98182078D01*
X112164407Y-98182074D01*
X111944589Y-98035197D01*
X111921673Y-98019885D01*
X111917974Y-98018061D01*
X111917969Y-98018058D01*
X111769320Y-97944753D01*
X111656145Y-97888941D01*
X111623027Y-97877699D01*
X111379710Y-97795104D01*
X111379706Y-97795103D01*
X111375797Y-97793776D01*
X111371753Y-97792972D01*
X111371747Y-97792970D01*
X111089465Y-97736820D01*
X111089459Y-97736819D01*
X111085426Y-97736017D01*
X111081321Y-97735748D01*
X111081314Y-97735747D01*
X110794119Y-97716924D01*
X110790000Y-97716654D01*
X110785881Y-97716924D01*
X110498686Y-97735747D01*
X110498679Y-97735748D01*
X110494574Y-97736017D01*
X110490541Y-97736819D01*
X110490535Y-97736820D01*
X110208253Y-97792970D01*
X110208247Y-97792972D01*
X110204203Y-97793776D01*
X110200294Y-97795103D01*
X110200290Y-97795104D01*
X109956973Y-97877699D01*
X109923855Y-97888941D01*
X109810680Y-97944753D01*
X109662031Y-98018058D01*
X109662026Y-98018061D01*
X109658327Y-98019885D01*
X109635411Y-98035197D01*
X109415593Y-98182074D01*
X109415588Y-98182078D01*
X109412162Y-98184367D01*
X109409068Y-98187081D01*
X109409062Y-98187085D01*
X109217355Y-98355209D01*
X109189573Y-98379573D01*
X109186864Y-98382662D01*
X108997085Y-98599062D01*
X108997081Y-98599068D01*
X108994367Y-98602162D01*
X108992078Y-98605588D01*
X108992074Y-98605593D01*
X108888583Y-98760479D01*
X108829885Y-98848327D01*
X108698941Y-99113855D01*
X108697616Y-99117760D01*
X108697615Y-99117761D01*
X108607266Y-99383923D01*
X108603776Y-99394203D01*
X108602972Y-99398247D01*
X108602970Y-99398253D01*
X108548921Y-99669977D01*
X108546017Y-99684574D01*
X108545748Y-99688679D01*
X108545747Y-99688686D01*
X108533056Y-99882318D01*
X108526654Y-99980000D01*
X106508000Y-99980000D01*
X106508000Y-88130000D01*
X108406654Y-88130000D01*
X108406924Y-88134119D01*
X108420218Y-88336944D01*
X108426017Y-88425426D01*
X108426819Y-88429459D01*
X108426820Y-88429465D01*
X108481649Y-88705104D01*
X108483776Y-88715797D01*
X108485103Y-88719706D01*
X108485104Y-88719710D01*
X108561070Y-88943500D01*
X108578941Y-88996145D01*
X108628180Y-89095992D01*
X108687750Y-89216787D01*
X108709885Y-89261673D01*
X108712179Y-89265106D01*
X108855234Y-89479203D01*
X108874367Y-89507838D01*
X108877081Y-89510932D01*
X108877085Y-89510938D01*
X109037460Y-89693809D01*
X109069573Y-89730427D01*
X109072662Y-89733136D01*
X109289062Y-89922915D01*
X109289068Y-89922919D01*
X109292162Y-89925633D01*
X109295588Y-89927922D01*
X109295593Y-89927926D01*
X109473903Y-90047068D01*
X109538327Y-90090115D01*
X109542026Y-90091939D01*
X109542031Y-90091942D01*
X109678313Y-90159148D01*
X109803855Y-90221059D01*
X109807760Y-90222384D01*
X109807761Y-90222385D01*
X110080290Y-90314896D01*
X110080294Y-90314897D01*
X110084203Y-90316224D01*
X110088247Y-90317028D01*
X110088253Y-90317030D01*
X110370535Y-90373180D01*
X110370541Y-90373181D01*
X110374574Y-90373983D01*
X110378679Y-90374252D01*
X110378686Y-90374253D01*
X110665881Y-90393076D01*
X110670000Y-90393346D01*
X110674119Y-90393076D01*
X110961314Y-90374253D01*
X110961321Y-90374252D01*
X110965426Y-90373983D01*
X110969459Y-90373181D01*
X110969465Y-90373180D01*
X111251747Y-90317030D01*
X111251753Y-90317028D01*
X111255797Y-90316224D01*
X111259706Y-90314897D01*
X111259710Y-90314896D01*
X111532239Y-90222385D01*
X111532240Y-90222384D01*
X111536145Y-90221059D01*
X111661687Y-90159148D01*
X111797969Y-90091942D01*
X111797974Y-90091939D01*
X111801673Y-90090115D01*
X111866097Y-90047068D01*
X112044407Y-89927926D01*
X112044412Y-89927922D01*
X112047838Y-89925633D01*
X112050932Y-89922919D01*
X112050938Y-89922915D01*
X112267338Y-89733136D01*
X112270427Y-89730427D01*
X112302540Y-89693809D01*
X112462915Y-89510938D01*
X112462919Y-89510932D01*
X112465633Y-89507838D01*
X112484767Y-89479203D01*
X112627821Y-89265106D01*
X112630115Y-89261673D01*
X112652251Y-89216787D01*
X112711820Y-89095992D01*
X112761059Y-88996145D01*
X112778930Y-88943500D01*
X112854896Y-88719710D01*
X112854897Y-88719706D01*
X112856224Y-88715797D01*
X112858351Y-88705104D01*
X112913180Y-88429465D01*
X112913181Y-88429459D01*
X112913983Y-88425426D01*
X112919783Y-88336944D01*
X112926644Y-88232263D01*
X125820064Y-88232263D01*
X125856404Y-88469744D01*
X125889426Y-88570776D01*
X125929434Y-88693183D01*
X125929437Y-88693189D01*
X125931042Y-88698101D01*
X125933429Y-88702687D01*
X125933431Y-88702691D01*
X125991244Y-88813748D01*
X126041975Y-88911200D01*
X126158415Y-89066283D01*
X126183320Y-89132765D01*
X126168328Y-89202161D01*
X126118198Y-89252435D01*
X126101885Y-89259915D01*
X126091707Y-89263731D01*
X126091704Y-89263733D01*
X126083295Y-89266885D01*
X125966739Y-89354239D01*
X125879385Y-89470795D01*
X125828255Y-89607184D01*
X125821500Y-89669366D01*
X125821500Y-91670634D01*
X125828255Y-91732816D01*
X125879385Y-91869205D01*
X125966739Y-91985761D01*
X126083295Y-92073115D01*
X126219684Y-92124245D01*
X126281866Y-92131000D01*
X128378134Y-92131000D01*
X128440316Y-92124245D01*
X128576705Y-92073115D01*
X128693261Y-91985761D01*
X128780615Y-91869205D01*
X128831745Y-91732816D01*
X128838500Y-91670634D01*
X128838500Y-89669366D01*
X128831745Y-89607184D01*
X128780615Y-89470795D01*
X128693261Y-89354239D01*
X128576705Y-89266885D01*
X128556811Y-89259427D01*
X128500047Y-89216787D01*
X128475346Y-89150226D01*
X128490553Y-89080877D01*
X128502158Y-89063353D01*
X128595367Y-88945330D01*
X128595370Y-88945325D01*
X128598568Y-88941276D01*
X128604857Y-88929885D01*
X128712177Y-88735474D01*
X128712179Y-88735470D01*
X128714674Y-88730950D01*
X128718655Y-88719710D01*
X128793144Y-88509360D01*
X128793145Y-88509356D01*
X128794870Y-88504485D01*
X128798587Y-88483620D01*
X128836095Y-88273052D01*
X128836096Y-88273046D01*
X128837001Y-88267963D01*
X128838990Y-88105147D01*
X128839873Y-88032907D01*
X128839873Y-88032905D01*
X128839936Y-88027737D01*
X128803596Y-87790256D01*
X128751237Y-87630061D01*
X128730566Y-87566817D01*
X128730563Y-87566811D01*
X128728958Y-87561899D01*
X128721855Y-87548253D01*
X128620416Y-87353393D01*
X128618025Y-87348800D01*
X128554246Y-87263855D01*
X128476882Y-87160815D01*
X128476880Y-87160812D01*
X128473777Y-87156680D01*
X128323177Y-87012763D01*
X128303825Y-86994270D01*
X128303824Y-86994269D01*
X128300088Y-86990699D01*
X128263097Y-86965465D01*
X128218096Y-86910556D01*
X128209925Y-86840032D01*
X128241179Y-86776284D01*
X128265660Y-86755589D01*
X128267635Y-86754311D01*
X128271977Y-86751502D01*
X128449670Y-86589814D01*
X128554162Y-86457504D01*
X128595362Y-86405336D01*
X128595364Y-86405333D01*
X128598568Y-86401276D01*
X128599254Y-86401818D01*
X128650089Y-86359105D01*
X128700684Y-86348500D01*
X134248129Y-86348500D01*
X134316250Y-86368502D01*
X134362743Y-86422158D01*
X134372847Y-86492432D01*
X134343353Y-86557012D01*
X134337224Y-86563595D01*
X133191089Y-87709730D01*
X133176677Y-87722116D01*
X133165082Y-87730649D01*
X133165077Y-87730654D01*
X133159182Y-87734992D01*
X133154443Y-87740570D01*
X133154440Y-87740573D01*
X133124965Y-87775268D01*
X133118035Y-87782784D01*
X133112340Y-87788479D01*
X133110060Y-87791361D01*
X133094719Y-87810751D01*
X133091928Y-87814155D01*
X133054781Y-87857880D01*
X133044667Y-87869785D01*
X133041339Y-87876301D01*
X133037972Y-87881350D01*
X133034805Y-87886479D01*
X133030266Y-87892216D01*
X132999345Y-87958375D01*
X132997442Y-87962269D01*
X132964231Y-88027308D01*
X132962492Y-88034416D01*
X132960393Y-88040059D01*
X132958476Y-88045822D01*
X132955378Y-88052450D01*
X132953888Y-88059612D01*
X132953888Y-88059613D01*
X132940514Y-88123912D01*
X132939544Y-88128196D01*
X132922192Y-88199110D01*
X132921500Y-88210264D01*
X132921464Y-88210262D01*
X132921225Y-88214255D01*
X132920851Y-88218447D01*
X132919360Y-88225615D01*
X132921151Y-88291825D01*
X132921454Y-88303021D01*
X132921500Y-88306428D01*
X132921500Y-93055500D01*
X132901498Y-93123621D01*
X132847842Y-93170114D01*
X132795500Y-93181500D01*
X132281866Y-93181500D01*
X132219684Y-93188255D01*
X132083295Y-93239385D01*
X131966739Y-93326739D01*
X131879385Y-93443295D01*
X131828255Y-93579684D01*
X131821500Y-93641866D01*
X131821500Y-95573629D01*
X131801498Y-95641750D01*
X131784595Y-95662724D01*
X130802724Y-96644595D01*
X130740412Y-96678621D01*
X130713629Y-96681500D01*
X128818027Y-96681500D01*
X128749906Y-96661498D01*
X128717267Y-96631153D01*
X128596882Y-96470815D01*
X128596880Y-96470812D01*
X128593777Y-96466680D01*
X128420088Y-96300699D01*
X128221622Y-96165314D01*
X128216939Y-96163140D01*
X128216935Y-96163138D01*
X128008405Y-96066342D01*
X128008401Y-96066341D01*
X128003710Y-96064163D01*
X127772202Y-95999960D01*
X127767065Y-95999411D01*
X127579407Y-95979356D01*
X127579399Y-95979356D01*
X127576072Y-95979000D01*
X127341598Y-95979000D01*
X127339025Y-95979212D01*
X127339014Y-95979212D01*
X127238054Y-95987513D01*
X127163063Y-95993678D01*
X126930056Y-96052206D01*
X126801229Y-96108221D01*
X126714474Y-96145943D01*
X126714471Y-96145945D01*
X126709737Y-96148003D01*
X126508023Y-96278498D01*
X126330330Y-96440186D01*
X126306141Y-96470815D01*
X126184633Y-96624670D01*
X126184630Y-96624675D01*
X126181432Y-96628724D01*
X126178939Y-96633240D01*
X126178937Y-96633243D01*
X126087304Y-96799237D01*
X126065326Y-96839050D01*
X126063602Y-96843919D01*
X126063600Y-96843923D01*
X125986856Y-97060640D01*
X125985130Y-97065515D01*
X125942999Y-97302037D01*
X125942936Y-97307201D01*
X125940163Y-97534188D01*
X125940064Y-97542263D01*
X125976404Y-97779744D01*
X126011661Y-97887615D01*
X126049434Y-98003183D01*
X126049437Y-98003189D01*
X126051042Y-98008101D01*
X126053429Y-98012687D01*
X126053431Y-98012691D01*
X126152604Y-98203199D01*
X126161975Y-98221200D01*
X126165085Y-98225342D01*
X126262919Y-98355644D01*
X126306223Y-98413320D01*
X126309961Y-98416892D01*
X126458294Y-98558642D01*
X126479912Y-98579301D01*
X126516903Y-98604535D01*
X126561904Y-98659444D01*
X126570075Y-98729968D01*
X126538821Y-98793716D01*
X126514340Y-98814411D01*
X126512707Y-98815468D01*
X126508023Y-98818498D01*
X126330330Y-98980186D01*
X126306141Y-99010815D01*
X126184633Y-99164670D01*
X126184630Y-99164675D01*
X126181432Y-99168724D01*
X126178939Y-99173240D01*
X126178937Y-99173243D01*
X126152609Y-99220936D01*
X126065326Y-99379050D01*
X126063602Y-99383919D01*
X126063600Y-99383923D01*
X126037191Y-99458500D01*
X125985130Y-99605515D01*
X125984223Y-99610608D01*
X125984222Y-99610611D01*
X125973648Y-99669977D01*
X125942999Y-99842037D01*
X125942936Y-99847201D01*
X125940192Y-100071821D01*
X125940064Y-100082263D01*
X125976404Y-100319744D01*
X126005516Y-100408813D01*
X126049434Y-100543183D01*
X126049437Y-100543189D01*
X126051042Y-100548101D01*
X126053429Y-100552687D01*
X126053431Y-100552691D01*
X126093242Y-100629166D01*
X126161975Y-100761200D01*
X126278415Y-100916283D01*
X126303320Y-100982765D01*
X126288328Y-101052161D01*
X126238198Y-101102435D01*
X126221885Y-101109915D01*
X126211707Y-101113731D01*
X126211704Y-101113733D01*
X126203295Y-101116885D01*
X126086739Y-101204239D01*
X125999385Y-101320795D01*
X125948255Y-101457184D01*
X125941500Y-101519366D01*
X125941500Y-103520634D01*
X125948255Y-103582816D01*
X125999385Y-103719205D01*
X126086739Y-103835761D01*
X126203295Y-103923115D01*
X126339684Y-103974245D01*
X126401866Y-103981000D01*
X128498134Y-103981000D01*
X128560316Y-103974245D01*
X128696705Y-103923115D01*
X128813261Y-103835761D01*
X128900615Y-103719205D01*
X128951745Y-103582816D01*
X128958500Y-103520634D01*
X128958500Y-103404500D01*
X128978502Y-103336379D01*
X129032158Y-103289886D01*
X129084500Y-103278500D01*
X130993629Y-103278500D01*
X131061750Y-103298502D01*
X131082724Y-103315405D01*
X131784595Y-104017276D01*
X131818621Y-104079588D01*
X131821500Y-104106371D01*
X131821500Y-106038134D01*
X131828255Y-106100316D01*
X131879385Y-106236705D01*
X131966739Y-106353261D01*
X132083295Y-106440615D01*
X132219684Y-106491745D01*
X132281866Y-106498500D01*
X134795500Y-106498500D01*
X134863621Y-106518502D01*
X134910114Y-106572158D01*
X134921500Y-106624500D01*
X134921500Y-112487722D01*
X134901498Y-112555843D01*
X134856585Y-112597925D01*
X134853632Y-112599562D01*
X134849380Y-112601522D01*
X134845467Y-112604087D01*
X134845466Y-112604088D01*
X134640928Y-112738189D01*
X134640923Y-112738193D01*
X134637015Y-112740755D01*
X134447562Y-112909848D01*
X134285183Y-113105087D01*
X134153447Y-113322182D01*
X134151638Y-113326496D01*
X134151637Y-113326498D01*
X134064953Y-113533217D01*
X134055246Y-113556365D01*
X134054095Y-113560897D01*
X134054094Y-113560900D01*
X134023017Y-113683267D01*
X133992738Y-113802490D01*
X133967296Y-114055151D01*
X133967520Y-114059817D01*
X133967520Y-114059822D01*
X133970066Y-114112812D01*
X133979480Y-114308798D01*
X133980393Y-114313386D01*
X134020796Y-114516506D01*
X134029021Y-114557857D01*
X134030600Y-114562255D01*
X134030602Y-114562262D01*
X134076492Y-114690076D01*
X134114831Y-114796858D01*
X134117048Y-114800984D01*
X134232666Y-115016160D01*
X134235025Y-115020551D01*
X134237820Y-115024294D01*
X134237822Y-115024297D01*
X134384171Y-115220282D01*
X134384176Y-115220288D01*
X134386963Y-115224020D01*
X134390272Y-115227300D01*
X134390277Y-115227306D01*
X134488859Y-115325031D01*
X134567307Y-115402797D01*
X134571069Y-115405555D01*
X134571072Y-115405558D01*
X134646912Y-115461166D01*
X134772094Y-115552953D01*
X134776229Y-115555129D01*
X134776233Y-115555131D01*
X134893447Y-115616800D01*
X134996827Y-115671191D01*
X135089455Y-115703538D01*
X135230764Y-115752885D01*
X135236568Y-115754912D01*
X135486050Y-115802278D01*
X135606532Y-115807011D01*
X135735125Y-115812064D01*
X135735130Y-115812064D01*
X135739793Y-115812247D01*
X135830821Y-115802278D01*
X135987569Y-115785112D01*
X135987575Y-115785111D01*
X135992222Y-115784602D01*
X136101680Y-115755784D01*
X136233273Y-115721138D01*
X136237793Y-115719948D01*
X136396404Y-115651804D01*
X136466807Y-115621557D01*
X136466810Y-115621555D01*
X136471110Y-115619708D01*
X136475090Y-115617245D01*
X136475094Y-115617243D01*
X136683064Y-115488547D01*
X136683066Y-115488545D01*
X136687047Y-115486082D01*
X136785428Y-115402797D01*
X136877289Y-115325031D01*
X136877291Y-115325029D01*
X136880862Y-115322006D01*
X137048295Y-115131084D01*
X137062686Y-115108712D01*
X137183141Y-114921442D01*
X137185669Y-114917512D01*
X137289967Y-114685980D01*
X137291288Y-114681298D01*
X137324859Y-114562262D01*
X137358896Y-114441575D01*
X137390943Y-114189667D01*
X137391027Y-114186483D01*
X137392264Y-114139233D01*
X137393291Y-114100000D01*
X137389612Y-114050497D01*
X137374818Y-113851411D01*
X137374817Y-113851407D01*
X137374472Y-113846759D01*
X137363449Y-113798042D01*
X137319459Y-113603639D01*
X137318428Y-113599082D01*
X137312620Y-113584146D01*
X137228084Y-113366762D01*
X137228083Y-113366760D01*
X137226391Y-113362409D01*
X137222163Y-113355012D01*
X137102702Y-113145997D01*
X137102700Y-113145995D01*
X137100383Y-113141940D01*
X136943171Y-112942517D01*
X136758209Y-112768523D01*
X136709443Y-112734693D01*
X136553393Y-112626437D01*
X136553390Y-112626435D01*
X136549561Y-112623779D01*
X136545378Y-112621716D01*
X136545371Y-112621712D01*
X136508770Y-112603662D01*
X136456522Y-112555593D01*
X136438500Y-112490657D01*
X136438500Y-109336695D01*
X136458502Y-109268574D01*
X136512158Y-109222081D01*
X136582432Y-109211977D01*
X136647012Y-109241471D01*
X136665458Y-109261306D01*
X136784171Y-109420282D01*
X136784176Y-109420288D01*
X136786963Y-109424020D01*
X136790272Y-109427300D01*
X136790277Y-109427306D01*
X136953781Y-109589389D01*
X136967307Y-109602797D01*
X136971069Y-109605555D01*
X136971072Y-109605558D01*
X137016193Y-109638642D01*
X137172094Y-109752953D01*
X137176229Y-109755129D01*
X137176233Y-109755131D01*
X137238899Y-109788101D01*
X137396827Y-109871191D01*
X137636568Y-109954912D01*
X137886050Y-110002278D01*
X138006532Y-110007011D01*
X138135125Y-110012064D01*
X138135130Y-110012064D01*
X138139793Y-110012247D01*
X138238774Y-110001407D01*
X138387569Y-109985112D01*
X138387575Y-109985111D01*
X138392222Y-109984602D01*
X138501680Y-109955784D01*
X138633273Y-109921138D01*
X138637793Y-109919948D01*
X138760159Y-109867376D01*
X138866807Y-109821557D01*
X138866810Y-109821555D01*
X138871110Y-109819708D01*
X138875090Y-109817245D01*
X138875094Y-109817243D01*
X139083064Y-109688547D01*
X139083066Y-109688545D01*
X139087047Y-109686082D01*
X139135272Y-109645257D01*
X139277289Y-109525031D01*
X139277291Y-109525029D01*
X139280862Y-109522006D01*
X139448295Y-109331084D01*
X139457295Y-109317093D01*
X139583141Y-109121442D01*
X139585669Y-109117512D01*
X139689967Y-108885980D01*
X139692968Y-108875341D01*
X139722004Y-108772385D01*
X139758896Y-108641575D01*
X139780007Y-108475633D01*
X139790545Y-108392798D01*
X139790545Y-108392792D01*
X139790943Y-108389667D01*
X139793291Y-108300000D01*
X139792038Y-108283136D01*
X139774818Y-108051411D01*
X139774817Y-108051407D01*
X139774472Y-108046759D01*
X139764018Y-108000556D01*
X139733634Y-107866284D01*
X139721800Y-107813984D01*
X139726274Y-107743131D01*
X139755598Y-107697083D01*
X143844411Y-103608270D01*
X143858823Y-103595884D01*
X143870418Y-103587351D01*
X143870423Y-103587346D01*
X143876318Y-103583008D01*
X143881057Y-103577430D01*
X143881060Y-103577427D01*
X143910535Y-103542732D01*
X143917465Y-103535216D01*
X143923161Y-103529520D01*
X143925424Y-103526659D01*
X143925429Y-103526654D01*
X143940785Y-103507244D01*
X143943574Y-103503842D01*
X143986096Y-103453791D01*
X143986097Y-103453790D01*
X143990833Y-103448215D01*
X143994161Y-103441698D01*
X143997527Y-103436650D01*
X144000690Y-103431528D01*
X144005235Y-103425784D01*
X144036164Y-103359605D01*
X144038063Y-103355721D01*
X144071269Y-103290692D01*
X144073010Y-103283577D01*
X144075113Y-103277922D01*
X144077022Y-103272183D01*
X144080122Y-103265550D01*
X144094991Y-103194065D01*
X144095961Y-103189782D01*
X144113308Y-103118890D01*
X144114000Y-103107736D01*
X144114035Y-103107738D01*
X144114275Y-103103766D01*
X144114652Y-103099545D01*
X144116141Y-103092385D01*
X144114046Y-103014958D01*
X144114000Y-103011550D01*
X144114000Y-102395159D01*
X144470396Y-102395159D01*
X144479692Y-102407174D01*
X144519940Y-102435356D01*
X144529435Y-102440839D01*
X144718853Y-102529166D01*
X144729145Y-102532912D01*
X144931023Y-102587005D01*
X144941818Y-102588908D01*
X145150025Y-102607124D01*
X145160975Y-102607124D01*
X145369182Y-102588908D01*
X145379977Y-102587005D01*
X145581855Y-102532912D01*
X145592147Y-102529166D01*
X145781565Y-102440839D01*
X145791060Y-102435356D01*
X145832146Y-102406587D01*
X145840521Y-102396110D01*
X145833453Y-102382663D01*
X145168312Y-101717522D01*
X145154368Y-101709908D01*
X145152535Y-101710039D01*
X145145920Y-101714290D01*
X144476826Y-102383384D01*
X144470396Y-102395159D01*
X144114000Y-102395159D01*
X144114000Y-102079980D01*
X144134002Y-102011859D01*
X144150905Y-101990885D01*
X145066405Y-101075385D01*
X145128717Y-101041359D01*
X145199532Y-101046424D01*
X145244595Y-101075385D01*
X146193384Y-102024174D01*
X146205159Y-102030604D01*
X146217174Y-102021308D01*
X146245356Y-101981060D01*
X146250839Y-101971564D01*
X146339166Y-101782147D01*
X146342912Y-101771855D01*
X146397005Y-101569977D01*
X146398908Y-101559182D01*
X146417124Y-101350975D01*
X146417124Y-101340025D01*
X146398908Y-101131818D01*
X146397005Y-101121023D01*
X146342912Y-100919145D01*
X146339166Y-100908853D01*
X146268881Y-100758128D01*
X146258220Y-100687937D01*
X146287200Y-100623124D01*
X146346619Y-100584267D01*
X146417614Y-100583704D01*
X146436326Y-100590683D01*
X146518853Y-100629166D01*
X146529145Y-100632912D01*
X146731023Y-100687005D01*
X146741818Y-100688908D01*
X146950025Y-100707124D01*
X146960975Y-100707124D01*
X147169182Y-100688908D01*
X147179977Y-100687005D01*
X147381855Y-100632912D01*
X147392147Y-100629166D01*
X147581565Y-100540839D01*
X147591060Y-100535356D01*
X147632146Y-100506587D01*
X147640521Y-100496110D01*
X147633453Y-100482663D01*
X146597422Y-99446632D01*
X147319908Y-99446632D01*
X147320039Y-99448465D01*
X147324290Y-99455080D01*
X147993384Y-100124174D01*
X148005159Y-100130604D01*
X148017174Y-100121308D01*
X148045356Y-100081060D01*
X148050839Y-100071564D01*
X148139166Y-99882147D01*
X148142912Y-99871855D01*
X148197005Y-99669977D01*
X148198908Y-99659182D01*
X148217124Y-99450975D01*
X148217124Y-99440025D01*
X148198908Y-99231818D01*
X148197005Y-99221023D01*
X148142912Y-99019145D01*
X148139166Y-99008853D01*
X148050839Y-98819436D01*
X148045356Y-98809940D01*
X148016587Y-98768854D01*
X148006110Y-98760479D01*
X147992662Y-98767548D01*
X147327522Y-99432688D01*
X147319908Y-99446632D01*
X146597422Y-99446632D01*
X145917616Y-98766826D01*
X145905841Y-98760396D01*
X145893826Y-98769692D01*
X145865644Y-98809940D01*
X145860161Y-98819436D01*
X145771834Y-99008853D01*
X145768088Y-99019145D01*
X145713995Y-99221023D01*
X145712092Y-99231818D01*
X145693876Y-99440025D01*
X145693876Y-99450975D01*
X145712092Y-99659182D01*
X145713995Y-99669977D01*
X145768088Y-99871855D01*
X145771834Y-99882147D01*
X145842119Y-100032872D01*
X145852780Y-100103063D01*
X145823800Y-100167876D01*
X145764381Y-100206733D01*
X145693386Y-100207296D01*
X145674674Y-100200317D01*
X145592147Y-100161834D01*
X145581855Y-100158088D01*
X145379977Y-100103995D01*
X145369182Y-100102092D01*
X145160975Y-100083876D01*
X145150025Y-100083876D01*
X144941818Y-100102092D01*
X144931023Y-100103995D01*
X144729145Y-100158088D01*
X144718848Y-100161836D01*
X144637032Y-100199988D01*
X144566840Y-100210650D01*
X144502027Y-100181671D01*
X144463171Y-100122251D01*
X144462607Y-100051257D01*
X144469586Y-100032544D01*
X144539638Y-99882318D01*
X144539639Y-99882316D01*
X144541961Y-99877336D01*
X144598923Y-99664749D01*
X144618105Y-99445500D01*
X144598923Y-99226251D01*
X144574730Y-99135960D01*
X144543384Y-99018974D01*
X144543383Y-99018972D01*
X144541961Y-99013664D01*
X144526350Y-98980186D01*
X144451271Y-98819179D01*
X144451269Y-98819176D01*
X144448948Y-98814198D01*
X144322712Y-98633913D01*
X144167087Y-98478288D01*
X144162579Y-98475131D01*
X144162576Y-98475129D01*
X144047983Y-98394890D01*
X146270479Y-98394890D01*
X146277548Y-98408338D01*
X146942688Y-99073478D01*
X146956632Y-99081092D01*
X146958465Y-99080961D01*
X146965080Y-99076710D01*
X147634174Y-98407616D01*
X147640604Y-98395841D01*
X147631308Y-98383826D01*
X147591060Y-98355644D01*
X147581565Y-98350161D01*
X147392147Y-98261834D01*
X147381855Y-98258088D01*
X147179977Y-98203995D01*
X147169182Y-98202092D01*
X146960975Y-98183876D01*
X146950025Y-98183876D01*
X146741818Y-98202092D01*
X146731023Y-98203995D01*
X146529145Y-98258088D01*
X146518853Y-98261834D01*
X146329436Y-98350161D01*
X146319940Y-98355644D01*
X146278854Y-98384413D01*
X146270479Y-98394890D01*
X144047983Y-98394890D01*
X143991312Y-98355209D01*
X143991310Y-98355208D01*
X143986803Y-98352052D01*
X143981821Y-98349729D01*
X143981816Y-98349726D01*
X143792318Y-98261362D01*
X143792317Y-98261361D01*
X143787336Y-98259039D01*
X143782028Y-98257617D01*
X143782026Y-98257616D01*
X143580064Y-98203501D01*
X143580063Y-98203501D01*
X143574749Y-98202077D01*
X143355500Y-98182895D01*
X143136251Y-98202077D01*
X143130934Y-98203502D01*
X143130932Y-98203502D01*
X143119613Y-98206535D01*
X143105357Y-98210355D01*
X143034380Y-98208667D01*
X142983649Y-98177744D01*
X142402405Y-97596500D01*
X142368379Y-97534188D01*
X142365500Y-97507405D01*
X142365500Y-95105330D01*
X142385502Y-95037209D01*
X142439158Y-94990716D01*
X142509432Y-94980612D01*
X142520645Y-94982747D01*
X142522939Y-94983293D01*
X142530335Y-94986065D01*
X142592517Y-94992820D01*
X144328583Y-94992820D01*
X144390765Y-94986065D01*
X144527154Y-94934935D01*
X144643710Y-94847581D01*
X144731064Y-94731025D01*
X144782194Y-94594636D01*
X144788949Y-94532454D01*
X144788949Y-94005186D01*
X144788180Y-93998101D01*
X144783748Y-93957307D01*
X144783748Y-93930093D01*
X144788580Y-93885613D01*
X144788580Y-93885609D01*
X144788949Y-93882214D01*
X144788949Y-93354946D01*
X144783748Y-93307066D01*
X144783748Y-93279853D01*
X144788580Y-93235373D01*
X144788580Y-93235369D01*
X144788949Y-93231974D01*
X144788949Y-93136045D01*
X144808951Y-93067924D01*
X144862607Y-93021431D01*
X144932881Y-93011327D01*
X144997461Y-93040821D01*
X145024067Y-93073044D01*
X145060960Y-93136944D01*
X145065378Y-93141851D01*
X145065379Y-93141852D01*
X145109658Y-93191029D01*
X145188747Y-93278866D01*
X145343248Y-93391118D01*
X145349276Y-93393802D01*
X145349278Y-93393803D01*
X145511681Y-93466109D01*
X145517712Y-93468794D01*
X145611113Y-93488647D01*
X145698056Y-93507128D01*
X145698061Y-93507128D01*
X145704513Y-93508500D01*
X145895487Y-93508500D01*
X145901939Y-93507128D01*
X145901944Y-93507128D01*
X145988887Y-93488647D01*
X146082288Y-93468794D01*
X146088319Y-93466109D01*
X146250722Y-93393803D01*
X146250724Y-93393802D01*
X146256752Y-93391118D01*
X146411253Y-93278866D01*
X146490342Y-93191029D01*
X146534621Y-93141852D01*
X146534622Y-93141851D01*
X146539040Y-93136944D01*
X146628275Y-92982385D01*
X146631223Y-92977279D01*
X146631224Y-92977278D01*
X146634527Y-92971556D01*
X146693542Y-92789928D01*
X146695643Y-92769943D01*
X146712814Y-92606565D01*
X146713504Y-92600000D01*
X146707324Y-92541203D01*
X146694232Y-92416635D01*
X146694232Y-92416633D01*
X146693542Y-92410072D01*
X146634527Y-92228444D01*
X146621058Y-92205114D01*
X146593164Y-92156802D01*
X146539040Y-92063056D01*
X146517303Y-92038914D01*
X146415675Y-91926045D01*
X146415674Y-91926044D01*
X146411253Y-91921134D01*
X146283469Y-91828293D01*
X146262090Y-91812760D01*
X146262088Y-91812759D01*
X146256752Y-91808882D01*
X146254674Y-91807957D01*
X146206788Y-91757733D01*
X146193354Y-91688019D01*
X146219743Y-91622109D01*
X146254195Y-91592256D01*
X146256752Y-91591118D01*
X146263918Y-91585912D01*
X146349820Y-91523500D01*
X146411253Y-91478866D01*
X146434378Y-91453183D01*
X146534621Y-91341852D01*
X146534622Y-91341851D01*
X146539040Y-91336944D01*
X146603960Y-91224500D01*
X146631223Y-91177279D01*
X146631224Y-91177278D01*
X146634527Y-91171556D01*
X146693542Y-90989928D01*
X146698135Y-90946233D01*
X146712814Y-90806565D01*
X146713504Y-90800000D01*
X146708336Y-90750829D01*
X146699091Y-90662864D01*
X146711863Y-90593026D01*
X146735306Y-90560598D01*
X147425501Y-89870404D01*
X147487813Y-89836379D01*
X147514596Y-89833500D01*
X147696853Y-89833500D01*
X147764974Y-89853502D01*
X147811467Y-89907158D01*
X147821571Y-89977432D01*
X147792077Y-90042012D01*
X147770914Y-90061436D01*
X147696835Y-90115258D01*
X147688747Y-90121134D01*
X147684326Y-90126044D01*
X147684325Y-90126045D01*
X147568260Y-90254949D01*
X147560960Y-90263056D01*
X147529798Y-90317030D01*
X147469046Y-90422256D01*
X147465473Y-90428444D01*
X147406458Y-90610072D01*
X147405768Y-90616633D01*
X147405768Y-90616635D01*
X147391707Y-90750424D01*
X147386496Y-90800000D01*
X147387186Y-90806565D01*
X147401866Y-90946233D01*
X147406458Y-90989928D01*
X147465473Y-91171556D01*
X147468776Y-91177278D01*
X147468777Y-91177279D01*
X147496040Y-91224500D01*
X147560960Y-91336944D01*
X147565378Y-91341851D01*
X147565379Y-91341852D01*
X147665622Y-91453183D01*
X147688747Y-91478866D01*
X147777783Y-91543555D01*
X147836083Y-91585912D01*
X147843248Y-91591118D01*
X147849276Y-91593802D01*
X147849278Y-91593803D01*
X148011679Y-91666108D01*
X148017712Y-91668794D01*
X148105373Y-91687427D01*
X148198056Y-91707128D01*
X148198061Y-91707128D01*
X148204513Y-91708500D01*
X148395487Y-91708500D01*
X148401939Y-91707128D01*
X148401944Y-91707128D01*
X148557650Y-91674031D01*
X148582288Y-91668794D01*
X148597522Y-91662012D01*
X148648767Y-91651120D01*
X149116882Y-91651120D01*
X149185003Y-91671122D01*
X149231496Y-91724778D01*
X149241600Y-91795052D01*
X149213967Y-91857435D01*
X149189763Y-91886693D01*
X149181773Y-91895473D01*
X146307748Y-94769498D01*
X146299457Y-94777042D01*
X146292982Y-94781151D01*
X146291036Y-94783223D01*
X146265965Y-94798767D01*
X146249280Y-94806196D01*
X146249277Y-94806198D01*
X146243248Y-94808882D01*
X146237907Y-94812762D01*
X146237906Y-94812763D01*
X146229249Y-94819053D01*
X146088747Y-94921134D01*
X146084326Y-94926044D01*
X146084325Y-94926045D01*
X146070616Y-94941271D01*
X145960960Y-95063056D01*
X145865473Y-95228444D01*
X145806458Y-95410072D01*
X145805768Y-95416633D01*
X145805768Y-95416635D01*
X145790956Y-95557566D01*
X145786496Y-95600000D01*
X145806458Y-95789928D01*
X145865473Y-95971556D01*
X145960960Y-96136944D01*
X145965378Y-96141851D01*
X145965379Y-96141852D01*
X146084325Y-96273955D01*
X146088747Y-96278866D01*
X146243248Y-96391118D01*
X146249276Y-96393802D01*
X146249278Y-96393803D01*
X146404941Y-96463108D01*
X146417712Y-96468794D01*
X146511113Y-96488647D01*
X146598056Y-96507128D01*
X146598061Y-96507128D01*
X146604513Y-96508500D01*
X146795487Y-96508500D01*
X146801939Y-96507128D01*
X146801944Y-96507128D01*
X146888887Y-96488647D01*
X146982288Y-96468794D01*
X146995059Y-96463108D01*
X147150722Y-96393803D01*
X147150724Y-96393802D01*
X147156752Y-96391118D01*
X147311253Y-96278866D01*
X147315675Y-96273955D01*
X147434621Y-96141852D01*
X147434622Y-96141851D01*
X147439040Y-96136944D01*
X147534527Y-95971556D01*
X147593542Y-95789928D01*
X147613504Y-95600000D01*
X147609044Y-95557566D01*
X147594232Y-95416635D01*
X147594232Y-95416633D01*
X147593542Y-95410072D01*
X147584403Y-95381945D01*
X147582376Y-95310977D01*
X147615141Y-95253914D01*
X147750723Y-95118332D01*
X147813035Y-95084306D01*
X147883850Y-95089371D01*
X147940686Y-95131918D01*
X147965497Y-95198438D01*
X147959651Y-95246361D01*
X147906458Y-95410072D01*
X147905768Y-95416633D01*
X147905768Y-95416635D01*
X147890956Y-95557566D01*
X147886496Y-95600000D01*
X147906458Y-95789928D01*
X147965473Y-95971556D01*
X148060960Y-96136944D01*
X148065378Y-96141851D01*
X148065379Y-96141852D01*
X148184325Y-96273955D01*
X148188747Y-96278866D01*
X148343248Y-96391118D01*
X148349276Y-96393802D01*
X148349278Y-96393803D01*
X148504941Y-96463108D01*
X148517712Y-96468794D01*
X148611113Y-96488647D01*
X148698056Y-96507128D01*
X148698061Y-96507128D01*
X148704513Y-96508500D01*
X148895487Y-96508500D01*
X148901939Y-96507128D01*
X148901944Y-96507128D01*
X148988887Y-96488647D01*
X149082288Y-96468794D01*
X149095059Y-96463108D01*
X149250722Y-96393803D01*
X149250724Y-96393802D01*
X149256752Y-96391118D01*
X149411253Y-96278866D01*
X149415675Y-96273955D01*
X149534621Y-96141852D01*
X149534622Y-96141851D01*
X149539040Y-96136944D01*
X149634527Y-95971556D01*
X149693542Y-95789928D01*
X149713504Y-95600000D01*
X149709044Y-95557566D01*
X149694232Y-95416635D01*
X149694232Y-95416633D01*
X149693542Y-95410072D01*
X149634527Y-95228444D01*
X149587393Y-95146805D01*
X149570655Y-95077811D01*
X149593875Y-95010719D01*
X149649682Y-94966832D01*
X149720357Y-94960083D01*
X149740741Y-94965824D01*
X149787333Y-94983291D01*
X149787339Y-94983293D01*
X149794735Y-94986065D01*
X149856917Y-94992820D01*
X151592983Y-94992820D01*
X151655165Y-94986065D01*
X151791554Y-94934935D01*
X151801480Y-94927496D01*
X151804662Y-94926307D01*
X151806609Y-94925241D01*
X151806763Y-94925522D01*
X151867985Y-94902646D01*
X151877047Y-94902320D01*
X152823188Y-94902320D01*
X152891309Y-94922322D01*
X152937802Y-94975978D01*
X152948515Y-95015317D01*
X152951293Y-95042093D01*
X152953474Y-95048629D01*
X152953474Y-95048631D01*
X152976728Y-95118332D01*
X153006346Y-95207107D01*
X153097884Y-95355031D01*
X153103066Y-95360204D01*
X153103070Y-95360209D01*
X153128597Y-95385692D01*
X153162676Y-95447974D01*
X153157673Y-95518795D01*
X153148699Y-95537861D01*
X153089473Y-95640444D01*
X153030458Y-95822072D01*
X153010496Y-96012000D01*
X153011186Y-96018565D01*
X153016208Y-96066342D01*
X153030458Y-96201928D01*
X153089473Y-96383556D01*
X153184960Y-96548944D01*
X153189378Y-96553851D01*
X153189379Y-96553852D01*
X153304314Y-96681500D01*
X153312747Y-96690866D01*
X153467248Y-96803118D01*
X153473276Y-96805802D01*
X153473278Y-96805803D01*
X153635681Y-96878109D01*
X153641712Y-96880794D01*
X153735112Y-96900647D01*
X153822056Y-96919128D01*
X153822061Y-96919128D01*
X153828513Y-96920500D01*
X154019487Y-96920500D01*
X154025939Y-96919128D01*
X154025944Y-96919128D01*
X154112888Y-96900647D01*
X154206288Y-96880794D01*
X154212319Y-96878109D01*
X154374722Y-96805803D01*
X154374724Y-96805802D01*
X154380752Y-96803118D01*
X154535253Y-96690866D01*
X154543686Y-96681500D01*
X154658621Y-96553852D01*
X154658622Y-96553851D01*
X154663040Y-96548944D01*
X154758527Y-96383556D01*
X154817542Y-96201928D01*
X154831793Y-96066342D01*
X154836814Y-96018565D01*
X154837504Y-96012000D01*
X154817542Y-95822072D01*
X154758527Y-95640444D01*
X154699263Y-95537796D01*
X154682525Y-95468801D01*
X154705745Y-95401709D01*
X154719209Y-95385778D01*
X154719567Y-95385420D01*
X154750929Y-95354003D01*
X154766581Y-95328611D01*
X154838369Y-95212150D01*
X154838370Y-95212148D01*
X154842209Y-95205920D01*
X154896974Y-95040809D01*
X154907500Y-94938072D01*
X154907500Y-94485020D01*
X154927502Y-94416899D01*
X154981158Y-94370406D01*
X155033500Y-94359020D01*
X155515500Y-94359020D01*
X155583621Y-94379022D01*
X155630114Y-94432678D01*
X155641500Y-94485020D01*
X155641500Y-98998134D01*
X155648255Y-99060316D01*
X155699385Y-99196705D01*
X155786739Y-99313261D01*
X155903295Y-99400615D01*
X156039684Y-99451745D01*
X156101866Y-99458500D01*
X158898134Y-99458500D01*
X158960316Y-99451745D01*
X159096705Y-99400615D01*
X159213261Y-99313261D01*
X159300615Y-99196705D01*
X159351745Y-99060316D01*
X159358500Y-98998134D01*
X159358500Y-94485020D01*
X159378502Y-94416899D01*
X159432158Y-94370406D01*
X159484500Y-94359020D01*
X159710926Y-94359020D01*
X159779047Y-94379022D01*
X159800021Y-94395925D01*
X163196343Y-97792247D01*
X163203887Y-97800537D01*
X163208000Y-97807018D01*
X163213777Y-97812443D01*
X163257667Y-97853658D01*
X163260509Y-97856413D01*
X163280230Y-97876134D01*
X163283425Y-97878612D01*
X163292447Y-97886318D01*
X163324679Y-97916586D01*
X163331628Y-97920406D01*
X163342432Y-97926346D01*
X163358956Y-97937199D01*
X163374959Y-97949613D01*
X163415543Y-97967176D01*
X163426173Y-97972383D01*
X163464940Y-97993695D01*
X163472617Y-97995666D01*
X163472622Y-97995668D01*
X163484558Y-97998732D01*
X163503266Y-98005137D01*
X163521855Y-98013181D01*
X163529680Y-98014420D01*
X163529682Y-98014421D01*
X163565519Y-98020097D01*
X163577140Y-98022504D01*
X163608959Y-98030673D01*
X163619970Y-98033500D01*
X163640231Y-98033500D01*
X163659940Y-98035051D01*
X163679943Y-98038219D01*
X163687835Y-98037473D01*
X163693062Y-98036979D01*
X163723954Y-98034059D01*
X163735811Y-98033500D01*
X178021233Y-98033500D01*
X178032416Y-98034027D01*
X178039909Y-98035702D01*
X178047835Y-98035453D01*
X178047836Y-98035453D01*
X178107986Y-98033562D01*
X178111945Y-98033500D01*
X178139856Y-98033500D01*
X178143791Y-98033003D01*
X178143856Y-98032995D01*
X178155693Y-98032062D01*
X178187951Y-98031048D01*
X178191970Y-98030922D01*
X178199889Y-98030673D01*
X178219343Y-98025021D01*
X178238700Y-98021013D01*
X178250930Y-98019468D01*
X178250931Y-98019468D01*
X178258797Y-98018474D01*
X178266168Y-98015555D01*
X178266170Y-98015555D01*
X178299912Y-98002196D01*
X178311142Y-97998351D01*
X178345983Y-97988229D01*
X178345984Y-97988229D01*
X178353593Y-97986018D01*
X178360412Y-97981985D01*
X178360417Y-97981983D01*
X178371028Y-97975707D01*
X178388776Y-97967012D01*
X178407617Y-97959552D01*
X178427987Y-97944753D01*
X178443387Y-97933564D01*
X178453307Y-97927048D01*
X178484535Y-97908580D01*
X178484538Y-97908578D01*
X178491362Y-97904542D01*
X178505683Y-97890221D01*
X178520717Y-97877380D01*
X178522432Y-97876134D01*
X178537107Y-97865472D01*
X178565298Y-97831395D01*
X178573288Y-97822616D01*
X180692253Y-95703652D01*
X180700539Y-95696112D01*
X180707018Y-95692000D01*
X180753644Y-95642348D01*
X180756398Y-95639507D01*
X180776135Y-95619770D01*
X180778615Y-95616573D01*
X180786320Y-95607551D01*
X180811159Y-95581100D01*
X180816586Y-95575321D01*
X180820405Y-95568375D01*
X180820407Y-95568372D01*
X180826348Y-95557566D01*
X180837199Y-95541047D01*
X180839668Y-95537864D01*
X180849614Y-95525041D01*
X180852759Y-95517772D01*
X180852762Y-95517768D01*
X180867174Y-95484463D01*
X180872391Y-95473813D01*
X180893695Y-95435060D01*
X180898733Y-95415437D01*
X180905137Y-95396734D01*
X180910033Y-95385420D01*
X180910033Y-95385419D01*
X180913181Y-95378145D01*
X180914420Y-95370322D01*
X180914423Y-95370312D01*
X180920099Y-95334476D01*
X180922505Y-95322856D01*
X180931528Y-95287711D01*
X180931528Y-95287710D01*
X180933500Y-95280030D01*
X180933500Y-95259776D01*
X180935051Y-95240065D01*
X180936980Y-95227886D01*
X180938220Y-95220057D01*
X180934059Y-95176038D01*
X180933500Y-95164181D01*
X180933500Y-92778768D01*
X180934027Y-92767585D01*
X180935702Y-92760092D01*
X180934376Y-92717885D01*
X180933562Y-92692002D01*
X180933500Y-92688044D01*
X180933500Y-92660144D01*
X180932996Y-92656153D01*
X180932063Y-92644311D01*
X180931507Y-92626603D01*
X180930674Y-92600111D01*
X180925021Y-92580652D01*
X180921012Y-92561293D01*
X180920069Y-92553828D01*
X180918474Y-92541203D01*
X180915558Y-92533837D01*
X180915556Y-92533831D01*
X180902200Y-92500098D01*
X180898355Y-92488868D01*
X180888230Y-92454017D01*
X180888230Y-92454016D01*
X180886019Y-92446407D01*
X180875705Y-92428966D01*
X180867008Y-92411213D01*
X180862472Y-92399758D01*
X180859552Y-92392383D01*
X180833563Y-92356612D01*
X180827047Y-92346692D01*
X180804542Y-92308638D01*
X180790221Y-92294317D01*
X180777380Y-92279283D01*
X180770131Y-92269306D01*
X180765472Y-92262893D01*
X180731395Y-92234702D01*
X180722616Y-92226712D01*
X178993652Y-90497747D01*
X178986112Y-90489461D01*
X178982000Y-90482982D01*
X178932348Y-90436356D01*
X178929507Y-90433602D01*
X178909770Y-90413865D01*
X178906573Y-90411385D01*
X178897551Y-90403680D01*
X178893643Y-90400010D01*
X178865321Y-90373414D01*
X178858375Y-90369595D01*
X178858372Y-90369593D01*
X178847566Y-90363652D01*
X178831047Y-90352801D01*
X178830583Y-90352441D01*
X178815041Y-90340386D01*
X178807772Y-90337241D01*
X178807768Y-90337238D01*
X178774463Y-90322826D01*
X178763813Y-90317609D01*
X178725060Y-90296305D01*
X178705437Y-90291267D01*
X178686734Y-90284863D01*
X178675420Y-90279967D01*
X178675419Y-90279967D01*
X178668145Y-90276819D01*
X178660322Y-90275580D01*
X178660312Y-90275577D01*
X178624476Y-90269901D01*
X178612856Y-90267495D01*
X178577711Y-90258472D01*
X178577710Y-90258472D01*
X178570030Y-90256500D01*
X178549776Y-90256500D01*
X178530065Y-90254949D01*
X178517886Y-90253020D01*
X178510057Y-90251780D01*
X178502165Y-90252526D01*
X178466039Y-90255941D01*
X178454181Y-90256500D01*
X178001371Y-90256500D01*
X177933250Y-90236498D01*
X177889608Y-90188680D01*
X177850414Y-90113389D01*
X177850413Y-90113388D01*
X177848025Y-90108800D01*
X177844231Y-90103746D01*
X177797234Y-90041153D01*
X177731585Y-89953717D01*
X177706680Y-89887235D01*
X177721672Y-89817839D01*
X177771802Y-89767565D01*
X177788115Y-89760085D01*
X177798293Y-89756269D01*
X177798296Y-89756267D01*
X177806705Y-89753115D01*
X177923261Y-89665761D01*
X178010615Y-89549205D01*
X178051453Y-89440270D01*
X178094095Y-89383506D01*
X178160656Y-89358806D01*
X178169435Y-89358500D01*
X181400075Y-89358500D01*
X181468196Y-89378502D01*
X181489170Y-89395405D01*
X182844595Y-90750829D01*
X182878620Y-90813141D01*
X182881500Y-90839924D01*
X182881500Y-102460075D01*
X182861498Y-102528196D01*
X182844595Y-102549170D01*
X170900621Y-114493145D01*
X170890478Y-114502247D01*
X170860975Y-114525968D01*
X170834217Y-114557857D01*
X170828709Y-114564421D01*
X170825528Y-114568069D01*
X170823885Y-114569881D01*
X170821691Y-114572075D01*
X170794358Y-114605349D01*
X170793696Y-114606147D01*
X170733846Y-114677474D01*
X170731278Y-114682144D01*
X170727897Y-114686261D01*
X170696860Y-114744145D01*
X170684023Y-114768086D01*
X170683394Y-114769245D01*
X170641538Y-114845381D01*
X170641535Y-114845389D01*
X170638567Y-114850787D01*
X170636955Y-114855869D01*
X170634438Y-114860563D01*
X170607238Y-114949531D01*
X170606918Y-114950559D01*
X170578765Y-115039306D01*
X170578171Y-115044602D01*
X170576613Y-115049698D01*
X170570992Y-115105038D01*
X170567218Y-115142187D01*
X170567089Y-115143393D01*
X170561500Y-115193227D01*
X170561500Y-115196754D01*
X170561445Y-115197739D01*
X170560998Y-115203419D01*
X170556626Y-115246462D01*
X170560623Y-115288741D01*
X170560941Y-115292109D01*
X170561500Y-115303967D01*
X170561500Y-119690500D01*
X170541498Y-119758621D01*
X170487842Y-119805114D01*
X170435500Y-119816500D01*
X169988799Y-119816500D01*
X169920678Y-119796498D01*
X169910707Y-119789382D01*
X169788414Y-119692800D01*
X169788410Y-119692798D01*
X169784359Y-119689598D01*
X169588789Y-119581638D01*
X169583920Y-119579914D01*
X169583916Y-119579912D01*
X169383087Y-119508795D01*
X169383083Y-119508794D01*
X169378212Y-119507069D01*
X169373119Y-119506162D01*
X169373116Y-119506161D01*
X169163373Y-119468800D01*
X169163367Y-119468799D01*
X169158284Y-119467894D01*
X169084452Y-119466992D01*
X168940081Y-119465228D01*
X168940079Y-119465228D01*
X168934911Y-119465165D01*
X168714091Y-119498955D01*
X168501756Y-119568357D01*
X168471443Y-119584137D01*
X168311493Y-119667402D01*
X168303607Y-119671507D01*
X168299474Y-119674610D01*
X168299471Y-119674612D01*
X168149964Y-119786865D01*
X168124965Y-119805635D01*
X167970629Y-119967138D01*
X167967715Y-119971410D01*
X167967714Y-119971411D01*
X167931244Y-120024874D01*
X167844743Y-120151680D01*
X167804818Y-120237692D01*
X167756214Y-120342401D01*
X167750688Y-120354305D01*
X167690989Y-120569570D01*
X167667251Y-120791695D01*
X167680110Y-121014715D01*
X167681247Y-121019761D01*
X167681248Y-121019767D01*
X167695606Y-121083475D01*
X167729222Y-121232639D01*
X167763196Y-121316308D01*
X167808403Y-121427639D01*
X167813266Y-121439616D01*
X167929987Y-121630088D01*
X168076250Y-121798938D01*
X168248126Y-121941632D01*
X168441000Y-122054338D01*
X168445825Y-122056180D01*
X168445826Y-122056181D01*
X168509993Y-122080684D01*
X168649692Y-122134030D01*
X168654760Y-122135061D01*
X168654763Y-122135062D01*
X168762017Y-122156883D01*
X168868597Y-122178567D01*
X168873772Y-122178757D01*
X168873774Y-122178757D01*
X169086673Y-122186564D01*
X169086677Y-122186564D01*
X169091837Y-122186753D01*
X169096957Y-122186097D01*
X169096959Y-122186097D01*
X169308288Y-122159025D01*
X169308289Y-122159025D01*
X169313416Y-122158368D01*
X169326309Y-122154500D01*
X169522429Y-122095661D01*
X169522434Y-122095659D01*
X169527384Y-122094174D01*
X169727994Y-121995896D01*
X169909860Y-121866173D01*
X169912886Y-121863157D01*
X169977588Y-121834570D01*
X169993976Y-121833500D01*
X170612393Y-121833500D01*
X170680514Y-121853502D01*
X170692877Y-121862555D01*
X170788126Y-121941632D01*
X170981000Y-122054338D01*
X170985825Y-122056180D01*
X170985826Y-122056181D01*
X171049993Y-122080684D01*
X171189692Y-122134030D01*
X171194760Y-122135061D01*
X171194763Y-122135062D01*
X171302017Y-122156883D01*
X171408597Y-122178567D01*
X171413772Y-122178757D01*
X171413774Y-122178757D01*
X171626673Y-122186564D01*
X171626677Y-122186564D01*
X171631837Y-122186753D01*
X171636957Y-122186097D01*
X171636959Y-122186097D01*
X171848288Y-122159025D01*
X171848289Y-122159025D01*
X171853416Y-122158368D01*
X171866309Y-122154500D01*
X172062429Y-122095661D01*
X172062434Y-122095659D01*
X172067384Y-122094174D01*
X172267994Y-121995896D01*
X172449860Y-121866173D01*
X172462576Y-121853502D01*
X172558479Y-121757933D01*
X172620851Y-121724017D01*
X172691658Y-121729205D01*
X172748419Y-121771851D01*
X172765401Y-121802954D01*
X172806676Y-121913054D01*
X172815214Y-121928649D01*
X172891715Y-122030724D01*
X172904276Y-122043285D01*
X173006351Y-122119786D01*
X173021946Y-122128324D01*
X173142394Y-122173478D01*
X173157649Y-122177105D01*
X173208514Y-122182631D01*
X173215328Y-122183000D01*
X173837885Y-122183000D01*
X173853124Y-122178525D01*
X173854329Y-122177135D01*
X173856000Y-122169452D01*
X173856000Y-122164884D01*
X174364000Y-122164884D01*
X174368475Y-122180123D01*
X174369865Y-122181328D01*
X174377548Y-122182999D01*
X175004669Y-122182999D01*
X175011490Y-122182629D01*
X175062352Y-122177105D01*
X175077604Y-122173479D01*
X175198054Y-122128324D01*
X175213649Y-122119786D01*
X175315724Y-122043285D01*
X175328285Y-122030724D01*
X175404786Y-121928649D01*
X175413324Y-121913054D01*
X175458478Y-121792606D01*
X175462105Y-121777351D01*
X175467631Y-121726486D01*
X175468000Y-121719672D01*
X175468000Y-121265655D01*
X199407858Y-121265655D01*
X199443104Y-121524638D01*
X199444412Y-121529124D01*
X199444412Y-121529126D01*
X199464098Y-121596664D01*
X199516243Y-121775567D01*
X199518203Y-121779820D01*
X199518204Y-121779821D01*
X199540712Y-121828645D01*
X199625668Y-122012928D01*
X199636079Y-122028807D01*
X199766410Y-122227596D01*
X199766414Y-122227601D01*
X199768976Y-122231509D01*
X199943018Y-122426506D01*
X200143970Y-122593637D01*
X200147973Y-122596066D01*
X200363422Y-122726804D01*
X200363426Y-122726806D01*
X200367419Y-122729229D01*
X200608455Y-122830303D01*
X200861783Y-122894641D01*
X200866434Y-122895109D01*
X200866438Y-122895110D01*
X201059308Y-122914531D01*
X201078867Y-122916500D01*
X201234354Y-122916500D01*
X201236679Y-122916327D01*
X201236685Y-122916327D01*
X201424000Y-122902407D01*
X201424004Y-122902406D01*
X201428652Y-122902061D01*
X201433200Y-122901032D01*
X201433206Y-122901031D01*
X201619601Y-122858853D01*
X201683577Y-122844377D01*
X201719769Y-122830303D01*
X201922824Y-122751340D01*
X201922827Y-122751339D01*
X201927177Y-122749647D01*
X202154098Y-122619951D01*
X202359357Y-122458138D01*
X202538443Y-122267763D01*
X202660448Y-122091895D01*
X202684759Y-122056851D01*
X202684761Y-122056848D01*
X202687424Y-122053009D01*
X202689647Y-122048502D01*
X202800960Y-121822781D01*
X202800961Y-121822778D01*
X202803025Y-121818593D01*
X202811344Y-121792606D01*
X202881280Y-121574123D01*
X202882707Y-121569665D01*
X202924721Y-121311693D01*
X202927690Y-121084865D01*
X202928081Y-121055022D01*
X202928081Y-121055019D01*
X202928142Y-121050345D01*
X202892896Y-120791362D01*
X202878473Y-120741877D01*
X202828666Y-120571000D01*
X202819757Y-120540433D01*
X202710332Y-120303072D01*
X202615482Y-120158401D01*
X202569590Y-120088404D01*
X202569586Y-120088399D01*
X202567024Y-120084491D01*
X202392982Y-119889494D01*
X202192030Y-119722363D01*
X202001448Y-119606715D01*
X201972578Y-119589196D01*
X201972574Y-119589194D01*
X201968581Y-119586771D01*
X201727545Y-119485697D01*
X201474217Y-119421359D01*
X201469566Y-119420891D01*
X201469562Y-119420890D01*
X201260271Y-119399816D01*
X201257133Y-119399500D01*
X201101646Y-119399500D01*
X201099321Y-119399673D01*
X201099315Y-119399673D01*
X200912000Y-119413593D01*
X200911996Y-119413594D01*
X200907348Y-119413939D01*
X200902800Y-119414968D01*
X200902794Y-119414969D01*
X200716399Y-119457147D01*
X200652423Y-119471623D01*
X200648071Y-119473315D01*
X200648069Y-119473316D01*
X200413176Y-119564660D01*
X200413173Y-119564661D01*
X200408823Y-119566353D01*
X200404769Y-119568670D01*
X200404767Y-119568671D01*
X200382080Y-119581638D01*
X200181902Y-119696049D01*
X199976643Y-119857862D01*
X199797557Y-120048237D01*
X199728764Y-120147401D01*
X199666127Y-120237692D01*
X199648576Y-120262991D01*
X199646510Y-120267181D01*
X199646508Y-120267184D01*
X199588062Y-120385702D01*
X199532975Y-120497407D01*
X199531553Y-120501850D01*
X199531552Y-120501852D01*
X199509418Y-120571000D01*
X199453293Y-120746335D01*
X199411279Y-121004307D01*
X199411158Y-121013567D01*
X199408000Y-121254837D01*
X199407858Y-121265655D01*
X175468000Y-121265655D01*
X175468000Y-121097115D01*
X175463525Y-121081876D01*
X175462135Y-121080671D01*
X175454452Y-121079000D01*
X174382115Y-121079000D01*
X174366876Y-121083475D01*
X174365671Y-121084865D01*
X174364000Y-121092548D01*
X174364000Y-122164884D01*
X173856000Y-122164884D01*
X173856000Y-120552885D01*
X174364000Y-120552885D01*
X174368475Y-120568124D01*
X174369865Y-120569329D01*
X174377548Y-120571000D01*
X175449884Y-120571000D01*
X175465123Y-120566525D01*
X175466328Y-120565135D01*
X175467999Y-120557452D01*
X175467999Y-119930331D01*
X175467629Y-119923510D01*
X175462105Y-119872648D01*
X175458479Y-119857396D01*
X175413324Y-119736946D01*
X175404786Y-119721351D01*
X175328285Y-119619276D01*
X175315724Y-119606715D01*
X175213649Y-119530214D01*
X175198054Y-119521676D01*
X175077606Y-119476522D01*
X175062351Y-119472895D01*
X175011486Y-119467369D01*
X175004672Y-119467000D01*
X174382115Y-119467000D01*
X174366876Y-119471475D01*
X174365671Y-119472865D01*
X174364000Y-119480548D01*
X174364000Y-120552885D01*
X173856000Y-120552885D01*
X173856000Y-119485116D01*
X173851525Y-119469877D01*
X173850135Y-119468672D01*
X173842452Y-119467001D01*
X173215331Y-119467001D01*
X173208510Y-119467371D01*
X173157648Y-119472895D01*
X173142396Y-119476521D01*
X173021946Y-119521676D01*
X173006351Y-119530214D01*
X172904276Y-119606715D01*
X172891715Y-119619276D01*
X172815212Y-119721354D01*
X172815020Y-119721705D01*
X172814739Y-119721986D01*
X172809828Y-119728538D01*
X172808882Y-119727829D01*
X172764762Y-119771851D01*
X172695371Y-119786865D01*
X172628879Y-119761980D01*
X172586395Y-119705097D01*
X172578500Y-119661196D01*
X172578500Y-115719925D01*
X172598502Y-115651804D01*
X172615405Y-115630830D01*
X181566234Y-106680000D01*
X184490654Y-106680000D01*
X184490924Y-106684119D01*
X184507949Y-106943872D01*
X184510017Y-106975426D01*
X184510819Y-106979459D01*
X184510820Y-106979465D01*
X184566839Y-107261086D01*
X184567776Y-107265797D01*
X184569103Y-107269706D01*
X184569104Y-107269710D01*
X184645692Y-107495330D01*
X184662941Y-107546145D01*
X184678180Y-107577046D01*
X184787676Y-107799082D01*
X184793885Y-107811673D01*
X184813816Y-107841502D01*
X184954073Y-108051411D01*
X184958367Y-108057838D01*
X184961081Y-108060932D01*
X184961085Y-108060938D01*
X185127604Y-108250815D01*
X185153573Y-108280427D01*
X185156662Y-108283136D01*
X185373062Y-108472915D01*
X185373068Y-108472919D01*
X185376162Y-108475633D01*
X185379588Y-108477922D01*
X185379593Y-108477926D01*
X185563405Y-108600744D01*
X185622327Y-108640115D01*
X185626026Y-108641939D01*
X185626031Y-108641942D01*
X185656195Y-108656817D01*
X185887855Y-108771059D01*
X185891760Y-108772384D01*
X185891761Y-108772385D01*
X186164290Y-108864896D01*
X186164294Y-108864897D01*
X186168203Y-108866224D01*
X186172247Y-108867028D01*
X186172253Y-108867030D01*
X186454535Y-108923180D01*
X186454541Y-108923181D01*
X186458574Y-108923983D01*
X186462679Y-108924252D01*
X186462686Y-108924253D01*
X186749881Y-108943076D01*
X186754000Y-108943346D01*
X186758119Y-108943076D01*
X187045314Y-108924253D01*
X187045321Y-108924252D01*
X187049426Y-108923983D01*
X187053459Y-108923181D01*
X187053465Y-108923180D01*
X187335747Y-108867030D01*
X187335753Y-108867028D01*
X187339797Y-108866224D01*
X187343706Y-108864897D01*
X187343710Y-108864896D01*
X187616239Y-108772385D01*
X187616240Y-108772384D01*
X187620145Y-108771059D01*
X187851805Y-108656817D01*
X187881969Y-108641942D01*
X187881974Y-108641939D01*
X187885673Y-108640115D01*
X187944595Y-108600744D01*
X188128407Y-108477926D01*
X188128412Y-108477922D01*
X188131838Y-108475633D01*
X188134932Y-108472919D01*
X188134938Y-108472915D01*
X188351338Y-108283136D01*
X188354427Y-108280427D01*
X188380396Y-108250815D01*
X188546915Y-108060938D01*
X188546919Y-108060932D01*
X188549633Y-108057838D01*
X188553928Y-108051411D01*
X188694184Y-107841502D01*
X188714115Y-107811673D01*
X188720325Y-107799082D01*
X188829820Y-107577046D01*
X188845059Y-107546145D01*
X188862308Y-107495330D01*
X188938896Y-107269710D01*
X188938897Y-107269706D01*
X188940224Y-107265797D01*
X188941161Y-107261086D01*
X188997180Y-106979465D01*
X188997181Y-106979459D01*
X188997983Y-106975426D01*
X189000052Y-106943872D01*
X189017076Y-106684119D01*
X189017346Y-106680000D01*
X189010982Y-106582907D01*
X188998253Y-106388686D01*
X188998252Y-106388679D01*
X188997983Y-106384574D01*
X188992179Y-106355393D01*
X188941030Y-106098253D01*
X188941028Y-106098247D01*
X188940224Y-106094203D01*
X188936735Y-106083923D01*
X188846385Y-105817761D01*
X188846384Y-105817760D01*
X188845059Y-105813855D01*
X188743463Y-105607839D01*
X188715942Y-105552031D01*
X188715939Y-105552026D01*
X188714115Y-105548327D01*
X188655860Y-105461142D01*
X188551926Y-105305593D01*
X188551922Y-105305588D01*
X188549633Y-105302162D01*
X188546919Y-105299068D01*
X188546915Y-105299062D01*
X188357136Y-105082662D01*
X188354427Y-105079573D01*
X188351338Y-105076864D01*
X188134938Y-104887085D01*
X188134932Y-104887081D01*
X188131838Y-104884367D01*
X188128412Y-104882078D01*
X188128407Y-104882074D01*
X187889106Y-104722179D01*
X187885673Y-104719885D01*
X187881974Y-104718061D01*
X187881969Y-104718058D01*
X187745687Y-104650852D01*
X187620145Y-104588941D01*
X187616239Y-104587615D01*
X187343710Y-104495104D01*
X187343706Y-104495103D01*
X187339797Y-104493776D01*
X187335753Y-104492972D01*
X187335747Y-104492970D01*
X187053465Y-104436820D01*
X187053459Y-104436819D01*
X187049426Y-104436017D01*
X187045321Y-104435748D01*
X187045314Y-104435747D01*
X186758119Y-104416924D01*
X186754000Y-104416654D01*
X186749881Y-104416924D01*
X186462686Y-104435747D01*
X186462679Y-104435748D01*
X186458574Y-104436017D01*
X186454541Y-104436819D01*
X186454535Y-104436820D01*
X186172253Y-104492970D01*
X186172247Y-104492972D01*
X186168203Y-104493776D01*
X186164294Y-104495103D01*
X186164290Y-104495104D01*
X185891761Y-104587615D01*
X185887855Y-104588941D01*
X185762313Y-104650852D01*
X185626031Y-104718058D01*
X185626026Y-104718061D01*
X185622327Y-104719885D01*
X185618894Y-104722179D01*
X185379593Y-104882074D01*
X185379588Y-104882078D01*
X185376162Y-104884367D01*
X185373068Y-104887081D01*
X185373062Y-104887085D01*
X185156662Y-105076864D01*
X185153573Y-105079573D01*
X185150864Y-105082662D01*
X184961085Y-105299062D01*
X184961081Y-105299068D01*
X184958367Y-105302162D01*
X184956078Y-105305588D01*
X184956074Y-105305593D01*
X184852140Y-105461142D01*
X184793885Y-105548327D01*
X184792061Y-105552026D01*
X184792058Y-105552031D01*
X184764537Y-105607839D01*
X184662941Y-105813855D01*
X184661616Y-105817760D01*
X184661615Y-105817761D01*
X184571266Y-106083923D01*
X184567776Y-106094203D01*
X184566972Y-106098247D01*
X184566970Y-106098253D01*
X184515822Y-106355393D01*
X184510017Y-106384574D01*
X184509748Y-106388679D01*
X184509747Y-106388686D01*
X184497018Y-106582907D01*
X184490654Y-106680000D01*
X181566234Y-106680000D01*
X184559379Y-103686855D01*
X184569522Y-103677753D01*
X184594218Y-103657897D01*
X184599025Y-103654032D01*
X184631292Y-103615578D01*
X184634472Y-103611931D01*
X184636115Y-103610119D01*
X184638309Y-103607925D01*
X184665642Y-103574651D01*
X184666348Y-103573800D01*
X184695686Y-103538837D01*
X184726154Y-103502526D01*
X184728722Y-103497856D01*
X184732103Y-103493739D01*
X184775977Y-103411914D01*
X184776606Y-103410755D01*
X184818462Y-103334619D01*
X184818465Y-103334611D01*
X184821433Y-103329213D01*
X184823045Y-103324131D01*
X184825562Y-103319437D01*
X184852762Y-103230469D01*
X184853108Y-103229358D01*
X184879373Y-103146563D01*
X184881235Y-103140694D01*
X184881829Y-103135398D01*
X184883387Y-103130302D01*
X184892790Y-103037743D01*
X184892911Y-103036607D01*
X184898500Y-102986773D01*
X184898500Y-102983246D01*
X184898555Y-102982261D01*
X184899002Y-102976581D01*
X184903374Y-102933538D01*
X184899059Y-102887891D01*
X184898500Y-102876033D01*
X184898500Y-90890000D01*
X190956654Y-90890000D01*
X190956924Y-90894119D01*
X190975243Y-91173611D01*
X190976017Y-91185426D01*
X190976819Y-91189459D01*
X190976820Y-91189465D01*
X191032970Y-91471747D01*
X191033776Y-91475797D01*
X191035103Y-91479706D01*
X191035104Y-91479710D01*
X191125986Y-91747441D01*
X191128941Y-91756145D01*
X191180550Y-91860797D01*
X191251301Y-92004266D01*
X191259885Y-92021673D01*
X191287536Y-92063056D01*
X191421063Y-92262893D01*
X191424367Y-92267838D01*
X191427081Y-92270932D01*
X191427085Y-92270938D01*
X191593604Y-92460815D01*
X191619573Y-92490427D01*
X191622662Y-92493136D01*
X191839062Y-92682915D01*
X191839068Y-92682919D01*
X191842162Y-92685633D01*
X191845588Y-92687922D01*
X191845593Y-92687926D01*
X191985061Y-92781115D01*
X192088327Y-92850115D01*
X192092026Y-92851939D01*
X192092031Y-92851942D01*
X192122195Y-92866817D01*
X192353855Y-92981059D01*
X192357760Y-92982384D01*
X192357761Y-92982385D01*
X192630290Y-93074896D01*
X192630294Y-93074897D01*
X192634203Y-93076224D01*
X192638247Y-93077028D01*
X192638253Y-93077030D01*
X192920535Y-93133180D01*
X192920541Y-93133181D01*
X192924574Y-93133983D01*
X192928679Y-93134252D01*
X192928686Y-93134253D01*
X193215881Y-93153076D01*
X193220000Y-93153346D01*
X193224119Y-93153076D01*
X193511314Y-93134253D01*
X193511321Y-93134252D01*
X193515426Y-93133983D01*
X193519459Y-93133181D01*
X193519465Y-93133180D01*
X193801747Y-93077030D01*
X193801753Y-93077028D01*
X193805797Y-93076224D01*
X193809706Y-93074897D01*
X193809710Y-93074896D01*
X194082239Y-92982385D01*
X194082240Y-92982384D01*
X194086145Y-92981059D01*
X194317805Y-92866817D01*
X194347969Y-92851942D01*
X194347974Y-92851939D01*
X194351673Y-92850115D01*
X194454939Y-92781115D01*
X194594407Y-92687926D01*
X194594412Y-92687922D01*
X194597838Y-92685633D01*
X194600932Y-92682919D01*
X194600938Y-92682915D01*
X194817338Y-92493136D01*
X194820427Y-92490427D01*
X194846396Y-92460815D01*
X195012915Y-92270938D01*
X195012919Y-92270932D01*
X195015633Y-92267838D01*
X195018938Y-92262893D01*
X195152464Y-92063056D01*
X195180115Y-92021673D01*
X195188700Y-92004266D01*
X195259450Y-91860797D01*
X195311059Y-91756145D01*
X195314014Y-91747441D01*
X195404896Y-91479710D01*
X195404897Y-91479706D01*
X195406224Y-91475797D01*
X195407030Y-91471747D01*
X195463180Y-91189465D01*
X195463181Y-91189459D01*
X195463983Y-91185426D01*
X195464758Y-91173611D01*
X195483076Y-90894119D01*
X195483346Y-90890000D01*
X195479386Y-90829585D01*
X195464253Y-90598686D01*
X195464252Y-90598679D01*
X195463983Y-90594574D01*
X195459816Y-90573621D01*
X195407030Y-90308253D01*
X195407028Y-90308247D01*
X195406224Y-90304203D01*
X195404839Y-90300121D01*
X195312385Y-90027761D01*
X195312384Y-90027760D01*
X195311059Y-90023855D01*
X195216937Y-89832995D01*
X195181942Y-89762031D01*
X195181939Y-89762026D01*
X195180115Y-89758327D01*
X195134102Y-89689463D01*
X195017926Y-89515593D01*
X195017922Y-89515588D01*
X195015633Y-89512162D01*
X195012919Y-89509068D01*
X195012915Y-89509062D01*
X194823136Y-89292662D01*
X194820427Y-89289573D01*
X194790960Y-89263731D01*
X194600938Y-89097085D01*
X194600932Y-89097081D01*
X194597838Y-89094367D01*
X194594412Y-89092078D01*
X194594407Y-89092074D01*
X194367314Y-88940336D01*
X194351673Y-88929885D01*
X194347974Y-88928061D01*
X194347969Y-88928058D01*
X194180628Y-88845535D01*
X194086145Y-88798941D01*
X193964688Y-88757712D01*
X193809710Y-88705104D01*
X193809706Y-88705103D01*
X193805797Y-88703776D01*
X193801753Y-88702972D01*
X193801747Y-88702970D01*
X193519465Y-88646820D01*
X193519459Y-88646819D01*
X193515426Y-88646017D01*
X193511321Y-88645748D01*
X193511314Y-88645747D01*
X193224119Y-88626924D01*
X193220000Y-88626654D01*
X193215881Y-88626924D01*
X192928686Y-88645747D01*
X192928679Y-88645748D01*
X192924574Y-88646017D01*
X192920541Y-88646819D01*
X192920535Y-88646820D01*
X192638253Y-88702970D01*
X192638247Y-88702972D01*
X192634203Y-88703776D01*
X192630294Y-88705103D01*
X192630290Y-88705104D01*
X192475312Y-88757712D01*
X192353855Y-88798941D01*
X192259372Y-88845535D01*
X192092031Y-88928058D01*
X192092026Y-88928061D01*
X192088327Y-88929885D01*
X192072686Y-88940336D01*
X191845593Y-89092074D01*
X191845588Y-89092078D01*
X191842162Y-89094367D01*
X191839068Y-89097081D01*
X191839062Y-89097085D01*
X191649040Y-89263731D01*
X191619573Y-89289573D01*
X191616864Y-89292662D01*
X191427085Y-89509062D01*
X191427081Y-89509068D01*
X191424367Y-89512162D01*
X191422078Y-89515588D01*
X191422074Y-89515593D01*
X191305898Y-89689463D01*
X191259885Y-89758327D01*
X191258061Y-89762026D01*
X191258058Y-89762031D01*
X191223063Y-89832995D01*
X191128941Y-90023855D01*
X191127616Y-90027760D01*
X191127615Y-90027761D01*
X191035162Y-90300121D01*
X191033776Y-90304203D01*
X191032972Y-90308247D01*
X191032970Y-90308253D01*
X190980185Y-90573621D01*
X190976017Y-90594574D01*
X190975748Y-90598679D01*
X190975747Y-90598686D01*
X190960614Y-90829585D01*
X190956654Y-90890000D01*
X184898500Y-90890000D01*
X184898500Y-90431840D01*
X184899237Y-90418232D01*
X184902659Y-90386736D01*
X184902659Y-90386732D01*
X184903324Y-90380611D01*
X184899805Y-90340386D01*
X184898950Y-90330609D01*
X184898621Y-90325784D01*
X184898500Y-90323313D01*
X184898500Y-90320231D01*
X184896154Y-90296305D01*
X184894309Y-90277489D01*
X184894187Y-90276174D01*
X184889365Y-90221059D01*
X184886087Y-90183587D01*
X184884600Y-90178468D01*
X184884080Y-90173167D01*
X184857218Y-90084194D01*
X184856862Y-90082994D01*
X184830909Y-89993663D01*
X184828455Y-89988929D01*
X184826916Y-89983831D01*
X184804139Y-89940993D01*
X184783316Y-89901831D01*
X184782702Y-89900663D01*
X184742726Y-89823541D01*
X184742725Y-89823540D01*
X184739892Y-89818074D01*
X184736569Y-89813911D01*
X184734066Y-89809204D01*
X184730022Y-89804245D01*
X184675263Y-89737105D01*
X184674500Y-89736160D01*
X184643261Y-89697027D01*
X184640770Y-89694536D01*
X184640120Y-89693809D01*
X184636408Y-89689463D01*
X184612955Y-89660708D01*
X184609065Y-89655938D01*
X184604323Y-89652015D01*
X184604321Y-89652013D01*
X184573727Y-89626703D01*
X184564947Y-89618713D01*
X182626855Y-87680621D01*
X182617753Y-87670478D01*
X182597897Y-87645782D01*
X182594032Y-87640975D01*
X182555578Y-87608708D01*
X182551931Y-87605528D01*
X182550119Y-87603885D01*
X182547925Y-87601691D01*
X182514651Y-87574358D01*
X182513853Y-87573696D01*
X182442526Y-87513846D01*
X182437856Y-87511278D01*
X182433739Y-87507897D01*
X182351914Y-87464023D01*
X182350755Y-87463394D01*
X182274619Y-87421538D01*
X182274611Y-87421535D01*
X182269213Y-87418567D01*
X182264131Y-87416955D01*
X182259437Y-87414438D01*
X182170469Y-87387238D01*
X182169441Y-87386918D01*
X182080694Y-87358765D01*
X182075398Y-87358171D01*
X182070302Y-87356613D01*
X181977743Y-87347210D01*
X181976607Y-87347089D01*
X181942992Y-87343319D01*
X181930270Y-87341892D01*
X181930266Y-87341892D01*
X181926773Y-87341500D01*
X181923246Y-87341500D01*
X181922261Y-87341445D01*
X181916581Y-87340998D01*
X181887175Y-87338011D01*
X181879663Y-87337248D01*
X181879661Y-87337248D01*
X181873538Y-87336626D01*
X181831259Y-87340623D01*
X181827891Y-87340941D01*
X181816033Y-87341500D01*
X178169435Y-87341500D01*
X178101314Y-87321498D01*
X178054821Y-87267842D01*
X178051453Y-87259730D01*
X178013767Y-87159203D01*
X178010615Y-87150795D01*
X177923261Y-87034239D01*
X177806705Y-86946885D01*
X177670316Y-86895755D01*
X177608134Y-86889000D01*
X175511866Y-86889000D01*
X175449684Y-86895755D01*
X175313295Y-86946885D01*
X175196739Y-87034239D01*
X175109385Y-87150795D01*
X175106233Y-87159203D01*
X175068547Y-87259730D01*
X175025905Y-87316494D01*
X174959344Y-87341194D01*
X174950565Y-87341500D01*
X160416701Y-87341500D01*
X160350585Y-87322760D01*
X160344038Y-87318724D01*
X160261492Y-87267842D01*
X160236968Y-87252725D01*
X160236966Y-87252724D01*
X160230738Y-87248885D01*
X160122457Y-87212970D01*
X160069389Y-87195368D01*
X160069387Y-87195368D01*
X160062861Y-87193203D01*
X160056025Y-87192503D01*
X160056022Y-87192502D01*
X160012969Y-87188091D01*
X159958400Y-87182500D01*
X159294371Y-87182500D01*
X159226250Y-87162498D01*
X159179757Y-87108842D01*
X159169653Y-87038568D01*
X159199147Y-86973988D01*
X159205276Y-86967405D01*
X162427276Y-83745405D01*
X162489588Y-83711379D01*
X162516371Y-83708500D01*
X164265500Y-83708500D01*
X164333621Y-83728502D01*
X164380114Y-83782158D01*
X164391500Y-83834500D01*
X164391500Y-84448134D01*
X164398255Y-84510316D01*
X164449385Y-84646705D01*
X164536739Y-84763261D01*
X164653295Y-84850615D01*
X164789684Y-84901745D01*
X164851866Y-84908500D01*
X170348134Y-84908500D01*
X170410316Y-84901745D01*
X170546705Y-84850615D01*
X170663261Y-84763261D01*
X170750615Y-84646705D01*
X170801745Y-84510316D01*
X170808500Y-84448134D01*
X170808500Y-81451866D01*
X170801745Y-81389684D01*
X170750615Y-81253295D01*
X170663261Y-81136739D01*
X170546705Y-81049385D01*
X170410316Y-80998255D01*
X170348134Y-80991500D01*
X164851866Y-80991500D01*
X164789684Y-80998255D01*
X164653295Y-81049385D01*
X164536739Y-81136739D01*
X164449385Y-81253295D01*
X164398255Y-81389684D01*
X164391500Y-81451866D01*
X164391500Y-82065500D01*
X164371498Y-82133621D01*
X164317842Y-82180114D01*
X164265500Y-82191500D01*
X162217069Y-82191500D01*
X162198121Y-82190067D01*
X162190780Y-82188950D01*
X162183883Y-82187901D01*
X162183881Y-82187901D01*
X162176651Y-82186801D01*
X162169359Y-82187394D01*
X162169356Y-82187394D01*
X162123982Y-82191085D01*
X162113767Y-82191500D01*
X162105707Y-82191500D01*
X162092417Y-82193049D01*
X162077493Y-82194789D01*
X162073118Y-82195222D01*
X162007661Y-82200546D01*
X162007658Y-82200547D01*
X162000363Y-82201140D01*
X161993399Y-82203396D01*
X161987440Y-82204587D01*
X161981585Y-82205971D01*
X161974319Y-82206818D01*
X161905673Y-82231735D01*
X161901545Y-82233152D01*
X161839064Y-82253393D01*
X161839062Y-82253394D01*
X161832101Y-82255649D01*
X161825846Y-82259445D01*
X161820372Y-82261951D01*
X161814942Y-82264670D01*
X161808063Y-82267167D01*
X161747016Y-82307191D01*
X161743327Y-82309518D01*
X161723135Y-82321771D01*
X161685693Y-82344491D01*
X161685688Y-82344495D01*
X161680892Y-82347405D01*
X161672516Y-82354803D01*
X161672493Y-82354777D01*
X161669503Y-82357426D01*
X161666264Y-82360134D01*
X161660148Y-82364144D01*
X161655121Y-82369451D01*
X161655117Y-82369454D01*
X161606872Y-82420383D01*
X161604494Y-82422825D01*
X157174191Y-86853128D01*
X157111879Y-86887154D01*
X157041064Y-86882089D01*
X156984228Y-86839542D01*
X156975977Y-86827033D01*
X156939040Y-86763056D01*
X156811253Y-86621134D01*
X156689482Y-86532662D01*
X156662094Y-86512763D01*
X156662093Y-86512762D01*
X156656752Y-86508882D01*
X156650724Y-86506198D01*
X156650722Y-86506197D01*
X156488319Y-86433891D01*
X156488318Y-86433891D01*
X156482288Y-86431206D01*
X156388887Y-86411353D01*
X156301944Y-86392872D01*
X156301939Y-86392872D01*
X156295487Y-86391500D01*
X156104513Y-86391500D01*
X156098061Y-86392872D01*
X156098056Y-86392872D01*
X156011113Y-86411353D01*
X155917712Y-86431206D01*
X155911682Y-86433891D01*
X155911681Y-86433891D01*
X155749278Y-86506197D01*
X155749276Y-86506198D01*
X155743248Y-86508882D01*
X155737907Y-86512762D01*
X155737906Y-86512763D01*
X155710518Y-86532662D01*
X155588747Y-86621134D01*
X155460960Y-86763056D01*
X155424023Y-86827033D01*
X155384839Y-86894902D01*
X155365473Y-86928444D01*
X155306458Y-87110072D01*
X155305768Y-87116633D01*
X155305768Y-87116635D01*
X155297926Y-87191252D01*
X155289885Y-87267761D01*
X155289093Y-87275292D01*
X155262080Y-87340949D01*
X155252878Y-87351218D01*
X154997748Y-87606347D01*
X154935436Y-87640372D01*
X154864620Y-87635307D01*
X154807785Y-87592760D01*
X154782974Y-87526239D01*
X154801392Y-87451137D01*
X154842209Y-87384920D01*
X154896974Y-87219809D01*
X154907500Y-87117072D01*
X154907500Y-86417928D01*
X154907163Y-86414678D01*
X154897419Y-86320765D01*
X154897418Y-86320761D01*
X154896707Y-86313907D01*
X154883076Y-86273048D01*
X154843972Y-86155841D01*
X154841654Y-86148893D01*
X154750116Y-86000969D01*
X154744934Y-85995796D01*
X154632184Y-85883242D01*
X154632179Y-85883238D01*
X154627003Y-85878071D01*
X154620772Y-85874230D01*
X154485150Y-85790631D01*
X154485148Y-85790630D01*
X154478920Y-85786791D01*
X154313809Y-85732026D01*
X154306973Y-85731326D01*
X154306970Y-85731325D01*
X154255474Y-85726049D01*
X154211072Y-85721500D01*
X153636928Y-85721500D01*
X153633682Y-85721837D01*
X153633678Y-85721837D01*
X153539765Y-85731581D01*
X153539761Y-85731582D01*
X153532907Y-85732293D01*
X153526371Y-85734474D01*
X153526369Y-85734474D01*
X153393605Y-85778768D01*
X153367893Y-85787346D01*
X153219969Y-85878884D01*
X153214796Y-85884066D01*
X153102242Y-85996816D01*
X153102238Y-85996821D01*
X153097071Y-86001997D01*
X153093231Y-86008227D01*
X153093230Y-86008228D01*
X153010364Y-86142662D01*
X153005791Y-86150080D01*
X152951026Y-86315191D01*
X152950326Y-86322025D01*
X152950325Y-86322029D01*
X152945459Y-86369523D01*
X152918617Y-86435250D01*
X152860502Y-86476032D01*
X152820115Y-86482680D01*
X151877047Y-86482680D01*
X151808926Y-86462678D01*
X151801480Y-86457504D01*
X151798742Y-86455452D01*
X151798741Y-86455452D01*
X151791554Y-86450065D01*
X151737588Y-86429834D01*
X151725270Y-86425216D01*
X151668506Y-86382574D01*
X151643806Y-86316013D01*
X151643500Y-86307234D01*
X151643500Y-85267870D01*
X151663502Y-85199749D01*
X151717158Y-85153256D01*
X151725270Y-85149888D01*
X151848297Y-85103767D01*
X151856705Y-85100615D01*
X151973261Y-85013261D01*
X152060615Y-84896705D01*
X152111745Y-84760316D01*
X152118500Y-84698134D01*
X152118500Y-84328000D01*
X152502496Y-84328000D01*
X152503186Y-84334565D01*
X152515768Y-84454272D01*
X152522458Y-84517928D01*
X152581473Y-84699556D01*
X152676960Y-84864944D01*
X152681378Y-84869851D01*
X152681379Y-84869852D01*
X152800325Y-85001955D01*
X152804747Y-85006866D01*
X152840953Y-85033171D01*
X152951414Y-85113426D01*
X152959248Y-85119118D01*
X152965276Y-85121802D01*
X152965278Y-85121803D01*
X153127681Y-85194109D01*
X153133712Y-85196794D01*
X153221787Y-85215515D01*
X153314056Y-85235128D01*
X153314061Y-85235128D01*
X153320513Y-85236500D01*
X153511487Y-85236500D01*
X153517939Y-85235128D01*
X153517944Y-85235128D01*
X153610213Y-85215515D01*
X153698288Y-85196794D01*
X153704319Y-85194109D01*
X153866722Y-85121803D01*
X153866724Y-85121802D01*
X153872752Y-85119118D01*
X153880587Y-85113426D01*
X154018451Y-85013261D01*
X154027253Y-85006866D01*
X154031668Y-85001963D01*
X154036580Y-84997540D01*
X154037705Y-84998789D01*
X154091014Y-84965949D01*
X154124200Y-84961500D01*
X154636919Y-84961500D01*
X154705040Y-84981502D01*
X154725863Y-85000876D01*
X154727008Y-84999731D01*
X154733357Y-85006080D01*
X154738739Y-85013261D01*
X154855295Y-85100615D01*
X154991684Y-85151745D01*
X155053866Y-85158500D01*
X156350134Y-85158500D01*
X156412316Y-85151745D01*
X156548705Y-85100615D01*
X156665261Y-85013261D01*
X156752615Y-84896705D01*
X156803745Y-84760316D01*
X156810500Y-84698134D01*
X156810500Y-83701866D01*
X156803745Y-83639684D01*
X156752615Y-83503295D01*
X156665261Y-83386739D01*
X156548705Y-83299385D01*
X156412316Y-83248255D01*
X156350134Y-83241500D01*
X155053866Y-83241500D01*
X154991684Y-83248255D01*
X154855295Y-83299385D01*
X154738739Y-83386739D01*
X154651385Y-83503295D01*
X154648233Y-83511703D01*
X154648232Y-83511705D01*
X154610360Y-83612729D01*
X154567719Y-83669494D01*
X154501157Y-83694194D01*
X154492378Y-83694500D01*
X154124200Y-83694500D01*
X154056079Y-83674498D01*
X154036853Y-83658157D01*
X154036580Y-83658460D01*
X154031668Y-83654037D01*
X154027253Y-83649134D01*
X153934970Y-83582086D01*
X153878094Y-83540763D01*
X153878093Y-83540762D01*
X153872752Y-83536882D01*
X153866724Y-83534198D01*
X153866722Y-83534197D01*
X153704319Y-83461891D01*
X153704318Y-83461891D01*
X153698288Y-83459206D01*
X153601166Y-83438562D01*
X153517944Y-83420872D01*
X153517939Y-83420872D01*
X153511487Y-83419500D01*
X153320513Y-83419500D01*
X153314061Y-83420872D01*
X153314056Y-83420872D01*
X153230834Y-83438562D01*
X153133712Y-83459206D01*
X153127682Y-83461891D01*
X153127681Y-83461891D01*
X152965278Y-83534197D01*
X152965276Y-83534198D01*
X152959248Y-83536882D01*
X152804747Y-83649134D01*
X152800326Y-83654044D01*
X152800325Y-83654045D01*
X152760326Y-83698469D01*
X152676960Y-83791056D01*
X152581473Y-83956444D01*
X152522458Y-84138072D01*
X152521768Y-84144633D01*
X152521768Y-84144635D01*
X152505865Y-84295943D01*
X152502496Y-84328000D01*
X152118500Y-84328000D01*
X152118500Y-83701866D01*
X152111745Y-83639684D01*
X152060615Y-83503295D01*
X151973261Y-83386739D01*
X151856705Y-83299385D01*
X151720316Y-83248255D01*
X151658134Y-83241500D01*
X150361866Y-83241500D01*
X150299684Y-83248255D01*
X150163295Y-83299385D01*
X150046739Y-83386739D01*
X149959385Y-83503295D01*
X149908255Y-83639684D01*
X149901500Y-83701866D01*
X149901500Y-84698134D01*
X149908255Y-84760316D01*
X149959385Y-84896705D01*
X150046739Y-85013261D01*
X150163295Y-85100615D01*
X150171703Y-85103767D01*
X150294730Y-85149888D01*
X150351494Y-85192530D01*
X150376194Y-85259091D01*
X150376500Y-85267870D01*
X150376500Y-86266180D01*
X150356498Y-86334301D01*
X150302842Y-86380794D01*
X150250500Y-86392180D01*
X149856917Y-86392180D01*
X149794735Y-86398935D01*
X149658346Y-86450065D01*
X149541790Y-86537419D01*
X149454436Y-86653975D01*
X149403306Y-86790364D01*
X149396551Y-86852546D01*
X149396551Y-87040500D01*
X149376549Y-87108621D01*
X149322893Y-87155114D01*
X149270551Y-87166500D01*
X149008200Y-87166500D01*
X148940079Y-87146498D01*
X148920853Y-87130157D01*
X148920580Y-87130460D01*
X148915668Y-87126037D01*
X148911253Y-87121134D01*
X148847812Y-87075041D01*
X148762094Y-87012763D01*
X148762093Y-87012762D01*
X148756752Y-87008882D01*
X148750724Y-87006198D01*
X148750722Y-87006197D01*
X148588319Y-86933891D01*
X148588318Y-86933891D01*
X148582288Y-86931206D01*
X148485138Y-86910556D01*
X148401944Y-86892872D01*
X148401939Y-86892872D01*
X148395487Y-86891500D01*
X148204513Y-86891500D01*
X148198061Y-86892872D01*
X148198056Y-86892872D01*
X148114862Y-86910556D01*
X148017712Y-86931206D01*
X148011682Y-86933891D01*
X148011681Y-86933891D01*
X147849278Y-87006197D01*
X147849276Y-87006198D01*
X147843248Y-87008882D01*
X147837907Y-87012762D01*
X147837906Y-87012763D01*
X147808347Y-87034239D01*
X147688747Y-87121134D01*
X147684326Y-87126044D01*
X147684325Y-87126045D01*
X147573720Y-87248885D01*
X147560960Y-87263056D01*
X147526490Y-87322760D01*
X147471176Y-87418567D01*
X147465473Y-87428444D01*
X147406458Y-87610072D01*
X147405768Y-87616633D01*
X147405768Y-87616635D01*
X147390636Y-87760611D01*
X147386496Y-87800000D01*
X147387186Y-87806565D01*
X147404626Y-87972494D01*
X147406458Y-87989928D01*
X147465473Y-88171556D01*
X147560960Y-88336944D01*
X147578291Y-88356192D01*
X147609007Y-88420198D01*
X147600242Y-88490651D01*
X147554779Y-88545182D01*
X147484653Y-88566500D01*
X147278767Y-88566500D01*
X147267584Y-88565973D01*
X147260091Y-88564298D01*
X147252165Y-88564547D01*
X147252164Y-88564547D01*
X147192014Y-88566438D01*
X147188055Y-88566500D01*
X147160144Y-88566500D01*
X147156210Y-88566997D01*
X147156209Y-88566997D01*
X147156144Y-88567005D01*
X147144307Y-88567938D01*
X147112049Y-88568952D01*
X147108030Y-88569078D01*
X147100111Y-88569327D01*
X147080657Y-88574979D01*
X147061300Y-88578987D01*
X147049070Y-88580532D01*
X147049069Y-88580532D01*
X147041203Y-88581526D01*
X147033832Y-88584445D01*
X147033830Y-88584445D01*
X147000088Y-88597804D01*
X146988858Y-88601649D01*
X146954017Y-88611771D01*
X146954016Y-88611771D01*
X146946407Y-88613982D01*
X146939588Y-88618015D01*
X146939583Y-88618017D01*
X146928972Y-88624293D01*
X146911224Y-88632988D01*
X146892383Y-88640448D01*
X146885967Y-88645110D01*
X146885966Y-88645110D01*
X146856613Y-88666436D01*
X146846693Y-88672952D01*
X146815465Y-88691420D01*
X146815462Y-88691422D01*
X146808638Y-88695458D01*
X146794317Y-88709779D01*
X146779284Y-88722619D01*
X146762893Y-88734528D01*
X146734702Y-88768605D01*
X146726712Y-88777384D01*
X145675847Y-89828248D01*
X145608090Y-89863333D01*
X145603675Y-89864092D01*
X145591601Y-89866166D01*
X145591599Y-89866167D01*
X145584386Y-89867406D01*
X145421636Y-89936657D01*
X145415748Y-89940990D01*
X145415743Y-89940993D01*
X145336140Y-89999575D01*
X145279182Y-90041492D01*
X145258008Y-90066416D01*
X145236049Y-90086767D01*
X145231441Y-90090115D01*
X145196835Y-90115258D01*
X145188747Y-90121134D01*
X145184326Y-90126044D01*
X145184325Y-90126045D01*
X145068260Y-90254949D01*
X145060960Y-90263056D01*
X145029798Y-90317030D01*
X145024068Y-90326955D01*
X144972686Y-90375948D01*
X144902972Y-90389384D01*
X144837061Y-90362998D01*
X144795879Y-90305166D01*
X144788949Y-90263955D01*
X144788949Y-90103746D01*
X144783748Y-90055866D01*
X144783748Y-90028653D01*
X144788580Y-89984173D01*
X144788580Y-89984169D01*
X144788949Y-89980774D01*
X144788949Y-89453506D01*
X144783495Y-89403300D01*
X144783495Y-89376089D01*
X144788080Y-89333885D01*
X144788449Y-89327071D01*
X144788449Y-89300515D01*
X144783974Y-89285276D01*
X144771905Y-89274818D01*
X144730688Y-89252311D01*
X144718957Y-89238781D01*
X144718677Y-89238407D01*
X144646772Y-89142464D01*
X144621924Y-89075959D01*
X144636977Y-89006576D01*
X144646772Y-88991335D01*
X144671765Y-88957988D01*
X144721249Y-88891961D01*
X144778108Y-88849446D01*
X144785524Y-88846980D01*
X144786777Y-88845535D01*
X144788448Y-88837852D01*
X144788448Y-88806731D01*
X144788079Y-88799912D01*
X144783495Y-88757712D01*
X144783495Y-88730498D01*
X144783564Y-88729869D01*
X144788949Y-88680294D01*
X144788949Y-88153026D01*
X144783748Y-88105146D01*
X144783748Y-88077933D01*
X144788580Y-88033453D01*
X144788580Y-88033449D01*
X144788949Y-88030054D01*
X144788949Y-87502786D01*
X144783748Y-87454906D01*
X144783748Y-87427693D01*
X144788580Y-87383213D01*
X144788580Y-87383209D01*
X144788949Y-87379814D01*
X144788949Y-86852546D01*
X144782194Y-86790364D01*
X144731064Y-86653975D01*
X144643710Y-86537419D01*
X144527154Y-86450065D01*
X144390765Y-86398935D01*
X144328583Y-86392180D01*
X142592517Y-86392180D01*
X142530335Y-86398935D01*
X142393946Y-86450065D01*
X142277390Y-86537419D01*
X142190036Y-86653975D01*
X142138906Y-86790364D01*
X142132151Y-86852546D01*
X142132151Y-87006920D01*
X142112149Y-87075041D01*
X142058493Y-87121534D01*
X142006151Y-87132920D01*
X141970868Y-87132920D01*
X141902747Y-87112918D01*
X141863727Y-87073227D01*
X141796116Y-86963969D01*
X141788861Y-86956726D01*
X141787895Y-86954962D01*
X141786387Y-86953059D01*
X141786713Y-86952801D01*
X141754781Y-86894446D01*
X141759782Y-86823625D01*
X141788708Y-86778530D01*
X141791364Y-86775869D01*
X141800375Y-86764460D01*
X141883912Y-86628937D01*
X141890056Y-86615759D01*
X141940315Y-86464234D01*
X141943181Y-86450868D01*
X141952672Y-86358230D01*
X141953000Y-86351815D01*
X141953000Y-86277615D01*
X141948525Y-86262376D01*
X141947135Y-86261171D01*
X141939452Y-86259500D01*
X140005115Y-86259500D01*
X139989876Y-86263975D01*
X139988671Y-86265365D01*
X139987000Y-86273048D01*
X139987000Y-86351766D01*
X139987337Y-86358282D01*
X139997075Y-86452132D01*
X139999968Y-86465528D01*
X140050488Y-86616953D01*
X140056653Y-86630115D01*
X140140426Y-86765492D01*
X140149464Y-86776894D01*
X140151139Y-86778567D01*
X140151919Y-86779993D01*
X140154007Y-86782627D01*
X140153556Y-86782984D01*
X140185219Y-86840849D01*
X140180216Y-86911669D01*
X140151299Y-86956754D01*
X140149260Y-86958797D01*
X140143071Y-86964997D01*
X140139231Y-86971227D01*
X140139230Y-86971228D01*
X140057630Y-87103608D01*
X140051791Y-87113080D01*
X139997026Y-87278191D01*
X139996326Y-87285027D01*
X139996325Y-87285030D01*
X139993160Y-87315926D01*
X139986500Y-87380928D01*
X139986500Y-87857880D01*
X139966498Y-87926001D01*
X139912842Y-87972494D01*
X139860500Y-87983880D01*
X139734499Y-87983880D01*
X139666378Y-87963878D01*
X139619885Y-87910222D01*
X139608499Y-87857880D01*
X139608499Y-87751564D01*
X139607575Y-87741500D01*
X139602745Y-87688935D01*
X139602134Y-87682281D01*
X139590696Y-87645782D01*
X139556020Y-87535131D01*
X139556019Y-87535129D01*
X139553748Y-87527882D01*
X139469930Y-87389482D01*
X139355518Y-87275070D01*
X139217118Y-87191252D01*
X139209871Y-87188981D01*
X139209869Y-87188980D01*
X139101802Y-87155114D01*
X139062719Y-87142866D01*
X139039214Y-87140706D01*
X139031355Y-87139984D01*
X138965350Y-87113833D01*
X138953789Y-87103608D01*
X137583566Y-85733385D01*
X139987000Y-85733385D01*
X139991475Y-85748624D01*
X139992865Y-85749829D01*
X140000548Y-85751500D01*
X140697885Y-85751500D01*
X140713124Y-85747025D01*
X140714329Y-85745635D01*
X140716000Y-85737952D01*
X140716000Y-85733385D01*
X141224000Y-85733385D01*
X141228475Y-85748624D01*
X141229865Y-85749829D01*
X141237548Y-85751500D01*
X141934885Y-85751500D01*
X141950124Y-85747025D01*
X141951329Y-85745635D01*
X141953000Y-85737952D01*
X141953000Y-85659234D01*
X141952663Y-85652718D01*
X141942925Y-85558868D01*
X141940032Y-85545472D01*
X141889512Y-85394047D01*
X141883347Y-85380885D01*
X141799574Y-85245508D01*
X141790540Y-85234110D01*
X141677871Y-85121637D01*
X141666460Y-85112625D01*
X141530937Y-85029088D01*
X141517759Y-85022944D01*
X141366234Y-84972685D01*
X141352868Y-84969819D01*
X141260230Y-84960328D01*
X141253815Y-84960000D01*
X141242115Y-84960000D01*
X141226876Y-84964475D01*
X141225671Y-84965865D01*
X141224000Y-84973548D01*
X141224000Y-85733385D01*
X140716000Y-85733385D01*
X140716000Y-84978115D01*
X140711525Y-84962876D01*
X140710135Y-84961671D01*
X140702452Y-84960000D01*
X140686234Y-84960000D01*
X140679718Y-84960337D01*
X140585868Y-84970075D01*
X140572472Y-84972968D01*
X140421047Y-85023488D01*
X140407885Y-85029653D01*
X140272508Y-85113426D01*
X140261110Y-85122460D01*
X140148637Y-85235129D01*
X140139625Y-85246540D01*
X140056088Y-85382063D01*
X140049944Y-85395241D01*
X139999685Y-85546766D01*
X139996819Y-85560132D01*
X139987328Y-85652770D01*
X139987000Y-85659185D01*
X139987000Y-85733385D01*
X137583566Y-85733385D01*
X136951270Y-85101089D01*
X136938884Y-85086677D01*
X136930351Y-85075082D01*
X136930346Y-85075077D01*
X136926008Y-85069182D01*
X136920429Y-85064443D01*
X136920426Y-85064439D01*
X136910677Y-85056157D01*
X136897816Y-85043541D01*
X136890350Y-85035088D01*
X136885500Y-85029596D01*
X136853850Y-85007227D01*
X136845011Y-85000370D01*
X136796797Y-84959409D01*
X136796795Y-84959408D01*
X136791215Y-84954667D01*
X136784699Y-84951339D01*
X136779650Y-84947972D01*
X136774521Y-84944805D01*
X136768784Y-84940266D01*
X136702625Y-84909345D01*
X136698725Y-84907439D01*
X136691777Y-84903891D01*
X136633692Y-84874231D01*
X136626584Y-84872492D01*
X136620941Y-84870393D01*
X136615178Y-84868476D01*
X136608550Y-84865378D01*
X136537083Y-84850513D01*
X136532799Y-84849543D01*
X136515169Y-84845229D01*
X136461890Y-84832192D01*
X136456288Y-84831844D01*
X136456285Y-84831844D01*
X136450736Y-84831500D01*
X136450738Y-84831464D01*
X136446745Y-84831225D01*
X136442553Y-84830851D01*
X136435385Y-84829360D01*
X136369175Y-84831151D01*
X136357979Y-84831454D01*
X136354572Y-84831500D01*
X128698027Y-84831500D01*
X128629906Y-84811498D01*
X128597267Y-84781153D01*
X128476882Y-84620815D01*
X128476880Y-84620812D01*
X128473777Y-84616680D01*
X128458515Y-84602095D01*
X143192001Y-84602095D01*
X143192338Y-84608614D01*
X143202257Y-84704206D01*
X143205149Y-84717600D01*
X143256588Y-84871784D01*
X143262761Y-84884962D01*
X143348063Y-85022807D01*
X143357099Y-85034208D01*
X143471829Y-85148739D01*
X143483240Y-85157751D01*
X143621243Y-85242816D01*
X143634424Y-85248963D01*
X143788710Y-85300138D01*
X143802086Y-85303005D01*
X143896438Y-85312672D01*
X143902854Y-85313000D01*
X144327885Y-85313000D01*
X144343124Y-85308525D01*
X144344329Y-85307135D01*
X144346000Y-85299452D01*
X144346000Y-85294884D01*
X144854000Y-85294884D01*
X144858475Y-85310123D01*
X144859865Y-85311328D01*
X144867548Y-85312999D01*
X145297095Y-85312999D01*
X145303614Y-85312662D01*
X145399206Y-85302743D01*
X145412600Y-85299851D01*
X145566784Y-85248412D01*
X145579962Y-85242239D01*
X145717807Y-85156937D01*
X145729208Y-85147901D01*
X145843739Y-85033171D01*
X145852751Y-85021760D01*
X145937816Y-84883757D01*
X145943963Y-84870576D01*
X145995138Y-84716290D01*
X145998005Y-84702914D01*
X146007672Y-84608562D01*
X146008000Y-84602146D01*
X146008000Y-84414615D01*
X146003525Y-84399376D01*
X146002135Y-84398171D01*
X145994452Y-84396500D01*
X144872115Y-84396500D01*
X144856876Y-84400975D01*
X144855671Y-84402365D01*
X144854000Y-84410048D01*
X144854000Y-85294884D01*
X144346000Y-85294884D01*
X144346000Y-84414615D01*
X144341525Y-84399376D01*
X144340135Y-84398171D01*
X144332452Y-84396500D01*
X143210116Y-84396500D01*
X143194877Y-84400975D01*
X143193672Y-84402365D01*
X143192001Y-84410048D01*
X143192001Y-84602095D01*
X128458515Y-84602095D01*
X128300088Y-84450699D01*
X128101622Y-84315314D01*
X128096939Y-84313140D01*
X128096935Y-84313138D01*
X127888405Y-84216342D01*
X127888401Y-84216341D01*
X127883710Y-84214163D01*
X127652202Y-84149960D01*
X127647065Y-84149411D01*
X127459407Y-84129356D01*
X127459399Y-84129356D01*
X127456072Y-84129000D01*
X127221598Y-84129000D01*
X127219025Y-84129212D01*
X127219014Y-84129212D01*
X127122648Y-84137135D01*
X127043063Y-84143678D01*
X126810056Y-84202206D01*
X126681229Y-84258221D01*
X126594474Y-84295943D01*
X126594471Y-84295945D01*
X126589737Y-84298003D01*
X126553517Y-84321435D01*
X126409483Y-84414615D01*
X126388023Y-84428498D01*
X126210330Y-84590186D01*
X126186141Y-84620815D01*
X126064633Y-84774670D01*
X126064630Y-84774675D01*
X126061432Y-84778724D01*
X126058939Y-84783240D01*
X126058937Y-84783243D01*
X125947823Y-84984526D01*
X125945326Y-84989050D01*
X125943602Y-84993919D01*
X125943600Y-84993923D01*
X125870713Y-85199749D01*
X125865130Y-85215515D01*
X125864223Y-85220608D01*
X125864222Y-85220611D01*
X125833116Y-85395241D01*
X125822999Y-85452037D01*
X125822936Y-85457201D01*
X125820468Y-85659234D01*
X125820064Y-85692263D01*
X125856404Y-85929744D01*
X125882056Y-86008228D01*
X125929434Y-86153183D01*
X125929437Y-86153189D01*
X125931042Y-86158101D01*
X125933429Y-86162687D01*
X125933431Y-86162691D01*
X125990880Y-86273048D01*
X126041975Y-86371200D01*
X126045085Y-86375342D01*
X126181487Y-86557012D01*
X126186223Y-86563320D01*
X126359912Y-86729301D01*
X126396903Y-86754535D01*
X126441904Y-86809444D01*
X126450075Y-86879968D01*
X126418821Y-86943716D01*
X126394340Y-86964411D01*
X126392707Y-86965468D01*
X126388023Y-86968498D01*
X126210330Y-87130186D01*
X126149653Y-87207017D01*
X126064633Y-87314670D01*
X126064630Y-87314675D01*
X126061432Y-87318724D01*
X126058939Y-87323240D01*
X126058937Y-87323243D01*
X125949557Y-87521385D01*
X125945326Y-87529050D01*
X125943602Y-87533919D01*
X125943600Y-87533923D01*
X125870421Y-87740573D01*
X125865130Y-87755515D01*
X125864223Y-87760608D01*
X125864222Y-87760611D01*
X125824452Y-87983880D01*
X125822999Y-87992037D01*
X125822936Y-87997201D01*
X125820401Y-88204715D01*
X125820064Y-88232263D01*
X112926644Y-88232263D01*
X112933076Y-88134119D01*
X112933346Y-88130000D01*
X112926795Y-88030054D01*
X112914253Y-87838686D01*
X112914252Y-87838679D01*
X112913983Y-87834574D01*
X112909922Y-87814155D01*
X112857030Y-87548253D01*
X112857028Y-87548247D01*
X112856224Y-87544203D01*
X112853145Y-87535131D01*
X112762385Y-87267761D01*
X112762384Y-87267760D01*
X112761059Y-87263855D01*
X112651366Y-87041419D01*
X112631942Y-87002031D01*
X112631939Y-87002026D01*
X112630115Y-86998327D01*
X112585266Y-86931206D01*
X112467926Y-86755593D01*
X112467922Y-86755588D01*
X112465633Y-86752162D01*
X112462919Y-86749068D01*
X112462915Y-86749062D01*
X112273136Y-86532662D01*
X112270427Y-86529573D01*
X112216956Y-86482680D01*
X112050938Y-86337085D01*
X112050932Y-86337081D01*
X112047838Y-86334367D01*
X112044412Y-86332078D01*
X112044407Y-86332074D01*
X111805106Y-86172179D01*
X111801673Y-86169885D01*
X111797974Y-86168061D01*
X111797969Y-86168058D01*
X111661687Y-86100852D01*
X111536145Y-86038941D01*
X111532239Y-86037615D01*
X111259710Y-85945104D01*
X111259706Y-85945103D01*
X111255797Y-85943776D01*
X111251753Y-85942972D01*
X111251747Y-85942970D01*
X110969465Y-85886820D01*
X110969459Y-85886819D01*
X110965426Y-85886017D01*
X110961321Y-85885748D01*
X110961314Y-85885747D01*
X110674119Y-85866924D01*
X110670000Y-85866654D01*
X110665881Y-85866924D01*
X110378686Y-85885747D01*
X110378679Y-85885748D01*
X110374574Y-85886017D01*
X110370541Y-85886819D01*
X110370535Y-85886820D01*
X110088253Y-85942970D01*
X110088247Y-85942972D01*
X110084203Y-85943776D01*
X110080294Y-85945103D01*
X110080290Y-85945104D01*
X109807761Y-86037615D01*
X109803855Y-86038941D01*
X109678313Y-86100852D01*
X109542031Y-86168058D01*
X109542026Y-86168061D01*
X109538327Y-86169885D01*
X109534894Y-86172179D01*
X109295593Y-86332074D01*
X109295588Y-86332078D01*
X109292162Y-86334367D01*
X109289068Y-86337081D01*
X109289062Y-86337085D01*
X109123044Y-86482680D01*
X109069573Y-86529573D01*
X109066864Y-86532662D01*
X108877085Y-86749062D01*
X108877081Y-86749068D01*
X108874367Y-86752162D01*
X108872078Y-86755588D01*
X108872074Y-86755593D01*
X108754734Y-86931206D01*
X108709885Y-86998327D01*
X108708061Y-87002026D01*
X108708058Y-87002031D01*
X108688634Y-87041419D01*
X108578941Y-87263855D01*
X108577616Y-87267760D01*
X108577615Y-87267761D01*
X108486856Y-87535131D01*
X108483776Y-87544203D01*
X108482972Y-87548247D01*
X108482970Y-87548253D01*
X108430079Y-87814155D01*
X108426017Y-87834574D01*
X108425748Y-87838679D01*
X108425747Y-87838686D01*
X108413205Y-88030054D01*
X108406654Y-88130000D01*
X106508000Y-88130000D01*
X106508000Y-83870385D01*
X143192000Y-83870385D01*
X143196475Y-83885624D01*
X143197865Y-83886829D01*
X143205548Y-83888500D01*
X144327885Y-83888500D01*
X144343124Y-83884025D01*
X144344329Y-83882635D01*
X144346000Y-83874952D01*
X144346000Y-83870385D01*
X144854000Y-83870385D01*
X144858475Y-83885624D01*
X144859865Y-83886829D01*
X144867548Y-83888500D01*
X145989884Y-83888500D01*
X146005123Y-83884025D01*
X146006328Y-83882635D01*
X146007999Y-83874952D01*
X146007999Y-83682905D01*
X146007662Y-83676386D01*
X145997743Y-83580794D01*
X145994851Y-83567400D01*
X145949710Y-83432095D01*
X146387001Y-83432095D01*
X146387338Y-83438614D01*
X146397257Y-83534206D01*
X146400149Y-83547600D01*
X146451588Y-83701784D01*
X146457761Y-83714962D01*
X146543063Y-83852807D01*
X146552099Y-83864208D01*
X146666829Y-83978739D01*
X146678240Y-83987751D01*
X146816243Y-84072816D01*
X146829424Y-84078963D01*
X146983710Y-84130138D01*
X146997086Y-84133005D01*
X147091438Y-84142672D01*
X147097854Y-84143000D01*
X147347885Y-84143000D01*
X147363124Y-84138525D01*
X147364329Y-84137135D01*
X147366000Y-84129452D01*
X147366000Y-84124884D01*
X147874000Y-84124884D01*
X147878475Y-84140123D01*
X147879865Y-84141328D01*
X147887548Y-84142999D01*
X148142095Y-84142999D01*
X148148614Y-84142662D01*
X148244206Y-84132743D01*
X148257600Y-84129851D01*
X148411784Y-84078412D01*
X148424962Y-84072239D01*
X148562807Y-83986937D01*
X148574208Y-83977901D01*
X148688739Y-83863171D01*
X148697751Y-83851760D01*
X148782816Y-83713757D01*
X148788963Y-83700576D01*
X148840138Y-83546290D01*
X148843005Y-83532914D01*
X148852672Y-83438562D01*
X148853000Y-83432146D01*
X148853000Y-83319615D01*
X148848525Y-83304376D01*
X148847135Y-83303171D01*
X148839452Y-83301500D01*
X147892115Y-83301500D01*
X147876876Y-83305975D01*
X147875671Y-83307365D01*
X147874000Y-83315048D01*
X147874000Y-84124884D01*
X147366000Y-84124884D01*
X147366000Y-83319615D01*
X147361525Y-83304376D01*
X147360135Y-83303171D01*
X147352452Y-83301500D01*
X146405116Y-83301500D01*
X146389877Y-83305975D01*
X146388672Y-83307365D01*
X146387001Y-83315048D01*
X146387001Y-83432095D01*
X145949710Y-83432095D01*
X145943412Y-83413216D01*
X145937239Y-83400038D01*
X145851937Y-83262193D01*
X145842901Y-83250792D01*
X145728171Y-83136261D01*
X145716760Y-83127249D01*
X145578757Y-83042184D01*
X145565576Y-83036037D01*
X145411290Y-82984862D01*
X145397914Y-82981995D01*
X145303562Y-82972328D01*
X145297145Y-82972000D01*
X144872115Y-82972000D01*
X144856876Y-82976475D01*
X144855671Y-82977865D01*
X144854000Y-82985548D01*
X144854000Y-83870385D01*
X144346000Y-83870385D01*
X144346000Y-82990116D01*
X144341525Y-82974877D01*
X144340135Y-82973672D01*
X144332452Y-82972001D01*
X143902905Y-82972001D01*
X143896386Y-82972338D01*
X143800794Y-82982257D01*
X143787400Y-82985149D01*
X143633216Y-83036588D01*
X143620038Y-83042761D01*
X143482193Y-83128063D01*
X143470792Y-83137099D01*
X143356261Y-83251829D01*
X143347249Y-83263240D01*
X143262184Y-83401243D01*
X143256037Y-83414424D01*
X143204862Y-83568710D01*
X143201995Y-83582086D01*
X143192328Y-83676438D01*
X143192000Y-83682855D01*
X143192000Y-83870385D01*
X106508000Y-83870385D01*
X106508000Y-81480400D01*
X143191500Y-81480400D01*
X143191837Y-81483646D01*
X143191837Y-81483650D01*
X143201717Y-81578866D01*
X143202474Y-81586166D01*
X143258450Y-81753946D01*
X143351522Y-81904348D01*
X143476697Y-82029305D01*
X143482927Y-82033145D01*
X143482928Y-82033146D01*
X143620090Y-82117694D01*
X143627262Y-82122115D01*
X143661952Y-82133621D01*
X143788611Y-82175632D01*
X143788613Y-82175632D01*
X143795139Y-82177797D01*
X143801975Y-82178497D01*
X143801978Y-82178498D01*
X143845031Y-82182909D01*
X143899600Y-82188500D01*
X145300400Y-82188500D01*
X145303646Y-82188163D01*
X145303650Y-82188163D01*
X145399308Y-82178238D01*
X145399312Y-82178237D01*
X145406166Y-82177526D01*
X145412702Y-82175345D01*
X145412704Y-82175345D01*
X145544806Y-82131272D01*
X145573946Y-82121550D01*
X145724348Y-82028478D01*
X145849305Y-81903303D01*
X145907743Y-81808500D01*
X145938275Y-81758968D01*
X145938276Y-81758966D01*
X145942115Y-81752738D01*
X145947226Y-81737330D01*
X145987658Y-81678971D01*
X146053223Y-81651736D01*
X146066818Y-81651000D01*
X146393801Y-81651000D01*
X146461922Y-81671002D01*
X146500945Y-81710697D01*
X146546522Y-81784348D01*
X146671697Y-81909305D01*
X146676235Y-81912102D01*
X146716824Y-81969353D01*
X146720054Y-82040276D01*
X146684428Y-82101687D01*
X146675932Y-82109062D01*
X146665793Y-82117098D01*
X146551261Y-82231829D01*
X146542249Y-82243240D01*
X146457184Y-82381243D01*
X146451037Y-82394424D01*
X146399862Y-82548710D01*
X146396995Y-82562086D01*
X146387328Y-82656438D01*
X146387000Y-82662855D01*
X146387000Y-82775385D01*
X146391475Y-82790624D01*
X146392865Y-82791829D01*
X146400548Y-82793500D01*
X148834884Y-82793500D01*
X148850123Y-82789025D01*
X148851328Y-82787635D01*
X148852999Y-82779952D01*
X148852999Y-82662905D01*
X148852662Y-82656386D01*
X148842743Y-82560794D01*
X148839851Y-82547400D01*
X148788412Y-82393216D01*
X148782239Y-82380038D01*
X148696937Y-82242193D01*
X148687901Y-82230792D01*
X148573172Y-82116262D01*
X148564238Y-82109206D01*
X148523177Y-82051288D01*
X148519947Y-81980365D01*
X148555574Y-81918954D01*
X148563407Y-81912154D01*
X148569348Y-81908478D01*
X148694305Y-81783303D01*
X148787115Y-81632738D01*
X148789421Y-81625786D01*
X148791397Y-81619830D01*
X148831828Y-81561471D01*
X148897393Y-81534236D01*
X148910989Y-81533500D01*
X149851567Y-81533500D01*
X149919688Y-81553502D01*
X149959000Y-81595678D01*
X149959385Y-81596705D01*
X150046739Y-81713261D01*
X150163295Y-81800615D01*
X150299684Y-81851745D01*
X150361866Y-81858500D01*
X151658134Y-81858500D01*
X151720316Y-81851745D01*
X151856705Y-81800615D01*
X151973261Y-81713261D01*
X152060615Y-81596705D01*
X152060861Y-81596049D01*
X152108175Y-81548843D01*
X152168433Y-81533500D01*
X154543567Y-81533500D01*
X154611688Y-81553502D01*
X154651000Y-81595678D01*
X154651385Y-81596705D01*
X154738739Y-81713261D01*
X154855295Y-81800615D01*
X154991684Y-81851745D01*
X155053866Y-81858500D01*
X156350134Y-81858500D01*
X156412316Y-81851745D01*
X156548705Y-81800615D01*
X156665261Y-81713261D01*
X156752615Y-81596705D01*
X156752861Y-81596049D01*
X156800175Y-81548843D01*
X156860433Y-81533500D01*
X156891800Y-81533500D01*
X156959921Y-81553502D01*
X156979147Y-81569843D01*
X156979420Y-81569540D01*
X156984332Y-81573963D01*
X156988747Y-81578866D01*
X156998795Y-81586166D01*
X157089044Y-81651736D01*
X157143248Y-81691118D01*
X157149276Y-81693802D01*
X157149278Y-81693803D01*
X157311681Y-81766109D01*
X157317712Y-81768794D01*
X157410341Y-81788483D01*
X157498056Y-81807128D01*
X157498061Y-81807128D01*
X157504513Y-81808500D01*
X157695487Y-81808500D01*
X157701939Y-81807128D01*
X157701944Y-81807128D01*
X157789659Y-81788483D01*
X157882288Y-81768794D01*
X157888319Y-81766109D01*
X158050722Y-81693803D01*
X158050724Y-81693802D01*
X158056752Y-81691118D01*
X158211253Y-81578866D01*
X158339040Y-81436944D01*
X158434527Y-81271556D01*
X158493542Y-81089928D01*
X158498135Y-81046233D01*
X158512814Y-80906565D01*
X158513504Y-80900000D01*
X158493542Y-80710072D01*
X158434527Y-80528444D01*
X158339040Y-80363056D01*
X158280355Y-80297879D01*
X158215675Y-80226045D01*
X158215674Y-80226044D01*
X158211253Y-80221134D01*
X158086716Y-80130652D01*
X158062094Y-80112763D01*
X158062093Y-80112762D01*
X158056752Y-80108882D01*
X158050724Y-80106198D01*
X158050722Y-80106197D01*
X157888319Y-80033891D01*
X157888318Y-80033891D01*
X157882288Y-80031206D01*
X157766160Y-80006522D01*
X157701944Y-79992872D01*
X157701939Y-79992872D01*
X157695487Y-79991500D01*
X157504513Y-79991500D01*
X157498061Y-79992872D01*
X157498056Y-79992872D01*
X157433840Y-80006522D01*
X157317712Y-80031206D01*
X157311682Y-80033891D01*
X157311681Y-80033891D01*
X157149278Y-80106197D01*
X157149276Y-80106198D01*
X157143248Y-80108882D01*
X157137907Y-80112762D01*
X157137906Y-80112763D01*
X157113284Y-80130652D01*
X156988747Y-80221134D01*
X156984332Y-80226037D01*
X156979420Y-80230460D01*
X156978295Y-80229211D01*
X156924986Y-80262051D01*
X156891800Y-80266500D01*
X156860433Y-80266500D01*
X156792312Y-80246498D01*
X156753000Y-80204322D01*
X156752615Y-80203295D01*
X156665261Y-80086739D01*
X156548705Y-79999385D01*
X156412316Y-79948255D01*
X156350134Y-79941500D01*
X155053866Y-79941500D01*
X154991684Y-79948255D01*
X154855295Y-79999385D01*
X154738739Y-80086739D01*
X154651385Y-80203295D01*
X154651139Y-80203951D01*
X154603825Y-80251157D01*
X154543567Y-80266500D01*
X152168433Y-80266500D01*
X152100312Y-80246498D01*
X152061000Y-80204322D01*
X152060615Y-80203295D01*
X151973261Y-80086739D01*
X151856705Y-79999385D01*
X151720316Y-79948255D01*
X151658134Y-79941500D01*
X150361866Y-79941500D01*
X150299684Y-79948255D01*
X150163295Y-79999385D01*
X150046739Y-80086739D01*
X149959385Y-80203295D01*
X149959139Y-80203951D01*
X149911825Y-80251157D01*
X149851567Y-80266500D01*
X148829181Y-80266500D01*
X148761060Y-80246498D01*
X148722037Y-80206803D01*
X148718454Y-80201012D01*
X148693478Y-80160652D01*
X148664473Y-80131697D01*
X148573483Y-80040866D01*
X148568303Y-80035695D01*
X148496606Y-79991500D01*
X148423968Y-79946725D01*
X148423966Y-79946724D01*
X148417738Y-79942885D01*
X148320344Y-79910581D01*
X148256389Y-79889368D01*
X148256387Y-79889368D01*
X148249861Y-79887203D01*
X148243025Y-79886503D01*
X148243022Y-79886502D01*
X148199969Y-79882091D01*
X148145400Y-79876500D01*
X147094600Y-79876500D01*
X147091354Y-79876837D01*
X147091350Y-79876837D01*
X146995692Y-79886762D01*
X146995688Y-79886763D01*
X146988834Y-79887474D01*
X146982298Y-79889655D01*
X146982296Y-79889655D01*
X146895403Y-79918645D01*
X146821054Y-79943450D01*
X146670652Y-80036522D01*
X146545695Y-80161697D01*
X146452885Y-80312262D01*
X146452574Y-80313200D01*
X146407380Y-80364532D01*
X146340098Y-80384000D01*
X146066686Y-80384000D01*
X145998565Y-80363998D01*
X145952072Y-80310342D01*
X145947163Y-80297879D01*
X145941550Y-80281054D01*
X145909995Y-80230061D01*
X145852332Y-80136880D01*
X145848478Y-80130652D01*
X145723303Y-80005695D01*
X145717072Y-80001854D01*
X145578968Y-79916725D01*
X145578966Y-79916724D01*
X145572738Y-79912885D01*
X145412254Y-79859655D01*
X145411389Y-79859368D01*
X145411387Y-79859368D01*
X145404861Y-79857203D01*
X145398025Y-79856503D01*
X145398022Y-79856502D01*
X145354969Y-79852091D01*
X145300400Y-79846500D01*
X143899600Y-79846500D01*
X143896354Y-79846837D01*
X143896350Y-79846837D01*
X143800692Y-79856762D01*
X143800688Y-79856763D01*
X143793834Y-79857474D01*
X143787298Y-79859655D01*
X143787296Y-79859655D01*
X143703913Y-79887474D01*
X143626054Y-79913450D01*
X143475652Y-80006522D01*
X143350695Y-80131697D01*
X143346855Y-80137927D01*
X143346854Y-80137928D01*
X143281269Y-80244327D01*
X143257885Y-80282262D01*
X143202203Y-80450139D01*
X143191500Y-80554600D01*
X143191500Y-81480400D01*
X106508000Y-81480400D01*
X106508000Y-78339655D01*
X109237858Y-78339655D01*
X109273104Y-78598638D01*
X109274412Y-78603124D01*
X109274412Y-78603126D01*
X109294098Y-78670664D01*
X109346243Y-78849567D01*
X109455668Y-79086928D01*
X109458231Y-79090837D01*
X109596410Y-79301596D01*
X109596414Y-79301601D01*
X109598976Y-79305509D01*
X109773018Y-79500506D01*
X109973970Y-79667637D01*
X109977973Y-79670066D01*
X110193422Y-79800804D01*
X110193426Y-79800806D01*
X110197419Y-79803229D01*
X110438455Y-79904303D01*
X110691783Y-79968641D01*
X110696434Y-79969109D01*
X110696438Y-79969110D01*
X110889308Y-79988531D01*
X110908867Y-79990500D01*
X111064354Y-79990500D01*
X111066679Y-79990327D01*
X111066685Y-79990327D01*
X111254000Y-79976407D01*
X111254004Y-79976406D01*
X111258652Y-79976061D01*
X111263200Y-79975032D01*
X111263206Y-79975031D01*
X111488435Y-79924066D01*
X111513577Y-79918377D01*
X111549769Y-79904303D01*
X111752824Y-79825340D01*
X111752827Y-79825339D01*
X111757177Y-79823647D01*
X111984098Y-79693951D01*
X112189357Y-79532138D01*
X112368443Y-79341763D01*
X112517424Y-79127009D01*
X112519492Y-79122816D01*
X112630960Y-78896781D01*
X112630961Y-78896778D01*
X112633025Y-78892593D01*
X112712707Y-78643665D01*
X112720852Y-78593655D01*
X199661858Y-78593655D01*
X199697104Y-78852638D01*
X199698412Y-78857124D01*
X199698412Y-78857126D01*
X199718098Y-78924664D01*
X199770243Y-79103567D01*
X199879668Y-79340928D01*
X199882231Y-79344837D01*
X200020410Y-79555596D01*
X200020414Y-79555601D01*
X200022976Y-79559509D01*
X200197018Y-79754506D01*
X200397970Y-79921637D01*
X200401973Y-79924066D01*
X200617422Y-80054804D01*
X200617426Y-80054806D01*
X200621419Y-80057229D01*
X200862455Y-80158303D01*
X201115783Y-80222641D01*
X201120434Y-80223109D01*
X201120438Y-80223110D01*
X201313308Y-80242531D01*
X201332867Y-80244500D01*
X201488354Y-80244500D01*
X201490679Y-80244327D01*
X201490685Y-80244327D01*
X201678000Y-80230407D01*
X201678004Y-80230406D01*
X201682652Y-80230061D01*
X201687200Y-80229032D01*
X201687206Y-80229031D01*
X201873601Y-80186853D01*
X201937577Y-80172377D01*
X201973769Y-80158303D01*
X202176824Y-80079340D01*
X202176827Y-80079339D01*
X202181177Y-80077647D01*
X202245531Y-80040866D01*
X202296553Y-80011704D01*
X202408098Y-79947951D01*
X202613357Y-79786138D01*
X202792443Y-79595763D01*
X202941424Y-79381009D01*
X202943492Y-79376816D01*
X203054960Y-79150781D01*
X203054961Y-79150778D01*
X203057025Y-79146593D01*
X203136707Y-78897665D01*
X203178721Y-78639693D01*
X203180210Y-78525942D01*
X203182081Y-78383022D01*
X203182081Y-78383019D01*
X203182142Y-78378345D01*
X203146896Y-78119362D01*
X203132473Y-78069877D01*
X203075068Y-77872932D01*
X203073757Y-77868433D01*
X202964332Y-77631072D01*
X202922468Y-77567219D01*
X202823590Y-77416404D01*
X202823586Y-77416399D01*
X202821024Y-77412491D01*
X202646982Y-77217494D01*
X202446030Y-77050363D01*
X202398844Y-77021730D01*
X202226578Y-76917196D01*
X202226574Y-76917194D01*
X202222581Y-76914771D01*
X201981545Y-76813697D01*
X201728217Y-76749359D01*
X201723566Y-76748891D01*
X201723562Y-76748890D01*
X201514271Y-76727816D01*
X201511133Y-76727500D01*
X201355646Y-76727500D01*
X201353321Y-76727673D01*
X201353315Y-76727673D01*
X201166000Y-76741593D01*
X201165996Y-76741594D01*
X201161348Y-76741939D01*
X201156800Y-76742968D01*
X201156794Y-76742969D01*
X200970399Y-76785147D01*
X200906423Y-76799623D01*
X200902071Y-76801315D01*
X200902069Y-76801316D01*
X200667176Y-76892660D01*
X200667173Y-76892661D01*
X200662823Y-76894353D01*
X200435902Y-77024049D01*
X200230643Y-77185862D01*
X200051557Y-77376237D01*
X199902576Y-77590991D01*
X199900510Y-77595181D01*
X199900508Y-77595184D01*
X199791675Y-77815877D01*
X199786975Y-77825407D01*
X199707293Y-78074335D01*
X199665279Y-78332307D01*
X199661858Y-78593655D01*
X112720852Y-78593655D01*
X112754721Y-78385693D01*
X112758142Y-78124345D01*
X112722896Y-77865362D01*
X112708473Y-77815877D01*
X112651068Y-77618932D01*
X112649757Y-77614433D01*
X112540332Y-77377072D01*
X112507519Y-77327024D01*
X112399590Y-77162404D01*
X112399586Y-77162399D01*
X112397024Y-77158491D01*
X112222982Y-76963494D01*
X112022030Y-76796363D01*
X111909068Y-76727816D01*
X111802578Y-76663196D01*
X111802574Y-76663194D01*
X111798581Y-76660771D01*
X111557545Y-76559697D01*
X111304217Y-76495359D01*
X111299566Y-76494891D01*
X111299562Y-76494890D01*
X111090271Y-76473816D01*
X111087133Y-76473500D01*
X110931646Y-76473500D01*
X110929321Y-76473673D01*
X110929315Y-76473673D01*
X110742000Y-76487593D01*
X110741996Y-76487594D01*
X110737348Y-76487939D01*
X110732800Y-76488968D01*
X110732794Y-76488969D01*
X110546399Y-76531147D01*
X110482423Y-76545623D01*
X110478071Y-76547315D01*
X110478069Y-76547316D01*
X110243176Y-76638660D01*
X110243173Y-76638661D01*
X110238823Y-76640353D01*
X110011902Y-76770049D01*
X109806643Y-76931862D01*
X109627557Y-77122237D01*
X109478576Y-77336991D01*
X109476510Y-77341181D01*
X109476508Y-77341184D01*
X109441344Y-77412491D01*
X109362975Y-77571407D01*
X109283293Y-77820335D01*
X109241279Y-78078307D01*
X109241218Y-78082980D01*
X109238015Y-78327692D01*
X109237858Y-78339655D01*
X106508000Y-78339655D01*
X106508000Y-74802000D01*
X106528002Y-74733879D01*
X106581658Y-74687386D01*
X106634000Y-74676000D01*
X203844000Y-74676000D01*
X203912121Y-74696002D01*
G37*
G04 #@! TD.AperFunction*
G04 #@! TA.AperFunction,Conductor*
G36*
X136419532Y-86730815D02*
G01*
X136464595Y-86759776D01*
X137918608Y-88213789D01*
X137952634Y-88276101D01*
X137954985Y-88291356D01*
X137957866Y-88322719D01*
X137959865Y-88329097D01*
X137959865Y-88329098D01*
X137990053Y-88425426D01*
X138006252Y-88477118D01*
X138010187Y-88483615D01*
X138010189Y-88483620D01*
X138041434Y-88535211D01*
X138059614Y-88603840D01*
X138041434Y-88665755D01*
X138010648Y-88716588D01*
X138004439Y-88730339D01*
X137960363Y-88870989D01*
X137957750Y-88884036D01*
X137953944Y-88925459D01*
X137956866Y-88940336D01*
X137968760Y-88943500D01*
X138772906Y-88943500D01*
X138841027Y-88963502D01*
X138862001Y-88980405D01*
X138891223Y-89009627D01*
X138898767Y-89017917D01*
X138902880Y-89024398D01*
X138908657Y-89029823D01*
X138952547Y-89071038D01*
X138955389Y-89073793D01*
X138975111Y-89093515D01*
X138978235Y-89095938D01*
X138978239Y-89095942D01*
X138978304Y-89095992D01*
X138987327Y-89103699D01*
X138994254Y-89110204D01*
X139030219Y-89171417D01*
X139034000Y-89202053D01*
X139034000Y-90041153D01*
X139038271Y-90055698D01*
X139050404Y-90057761D01*
X139055973Y-90057249D01*
X139069006Y-90054639D01*
X139209661Y-90010561D01*
X139223406Y-90004355D01*
X139348711Y-89928467D01*
X139360580Y-89919160D01*
X139464160Y-89815580D01*
X139473467Y-89803711D01*
X139549355Y-89678406D01*
X139555561Y-89664661D01*
X139599637Y-89524011D01*
X139602250Y-89510964D01*
X139607734Y-89451282D01*
X139608000Y-89445493D01*
X139608000Y-89376880D01*
X139628002Y-89308759D01*
X139681658Y-89262266D01*
X139734000Y-89250880D01*
X141175526Y-89250880D01*
X141243647Y-89270882D01*
X141290140Y-89324538D01*
X141300244Y-89394812D01*
X141270750Y-89459392D01*
X141264623Y-89465973D01*
X140726240Y-90004355D01*
X140191000Y-90539595D01*
X140128688Y-90573621D01*
X140101905Y-90576500D01*
X139428600Y-90576500D01*
X139425354Y-90576837D01*
X139425350Y-90576837D01*
X139329692Y-90586762D01*
X139329688Y-90586763D01*
X139322834Y-90587474D01*
X139316298Y-90589655D01*
X139316296Y-90589655D01*
X139235428Y-90616635D01*
X139155054Y-90643450D01*
X139004652Y-90736522D01*
X138879695Y-90861697D01*
X138875855Y-90867927D01*
X138875854Y-90867928D01*
X138799213Y-90992263D01*
X138786885Y-91012262D01*
X138731203Y-91180139D01*
X138730502Y-91186977D01*
X138730502Y-91186979D01*
X138722080Y-91269176D01*
X138695238Y-91334903D01*
X138637123Y-91375685D01*
X138566185Y-91378573D01*
X138550378Y-91369412D01*
X138511240Y-91359000D01*
X136890402Y-91359000D01*
X136875857Y-91363271D01*
X136873794Y-91375404D01*
X136877751Y-91418473D01*
X136880360Y-91431501D01*
X136893230Y-91472570D01*
X136894513Y-91543555D01*
X136857216Y-91603965D01*
X136793178Y-91634621D01*
X136722733Y-91625789D01*
X136698934Y-91612184D01*
X136677184Y-91596381D01*
X136556752Y-91508882D01*
X136550724Y-91506198D01*
X136550722Y-91506197D01*
X136388319Y-91433891D01*
X136388318Y-91433891D01*
X136382288Y-91431206D01*
X136288887Y-91411353D01*
X136201944Y-91392872D01*
X136201939Y-91392872D01*
X136195487Y-91391500D01*
X136004513Y-91391500D01*
X135998061Y-91392872D01*
X135998056Y-91392872D01*
X135911113Y-91411353D01*
X135817712Y-91431206D01*
X135811682Y-91433891D01*
X135811681Y-91433891D01*
X135649278Y-91506197D01*
X135649276Y-91506198D01*
X135643248Y-91508882D01*
X135488747Y-91621134D01*
X135484326Y-91626044D01*
X135484325Y-91626045D01*
X135370700Y-91752239D01*
X135360960Y-91763056D01*
X135308874Y-91853271D01*
X135273770Y-91914074D01*
X135265473Y-91928444D01*
X135206458Y-92110072D01*
X135205768Y-92116633D01*
X135205768Y-92116635D01*
X135188673Y-92279283D01*
X135186496Y-92300000D01*
X135187186Y-92306565D01*
X135205762Y-92483303D01*
X135206458Y-92489928D01*
X135265473Y-92671556D01*
X135268776Y-92677278D01*
X135268777Y-92677279D01*
X135282790Y-92701550D01*
X135360960Y-92836944D01*
X135365378Y-92841851D01*
X135365379Y-92841852D01*
X135476506Y-92965271D01*
X135488747Y-92978866D01*
X135561008Y-93031367D01*
X135635297Y-93085341D01*
X135643248Y-93091118D01*
X135649276Y-93093802D01*
X135649278Y-93093803D01*
X135811681Y-93166109D01*
X135817712Y-93168794D01*
X135905255Y-93187402D01*
X135998056Y-93207128D01*
X135998061Y-93207128D01*
X136004513Y-93208500D01*
X136195487Y-93208500D01*
X136201939Y-93207128D01*
X136201944Y-93207128D01*
X136294745Y-93187402D01*
X136382288Y-93168794D01*
X136388319Y-93166109D01*
X136550722Y-93093803D01*
X136550724Y-93093802D01*
X136556752Y-93091118D01*
X136564704Y-93085341D01*
X136698941Y-92987811D01*
X136711253Y-92978866D01*
X136715668Y-92973963D01*
X136720580Y-92969540D01*
X136721705Y-92970789D01*
X136775014Y-92937949D01*
X136808200Y-92933500D01*
X136978362Y-92933500D01*
X137046483Y-92953502D01*
X137067457Y-92970405D01*
X137124482Y-93027430D01*
X137262882Y-93111248D01*
X137270129Y-93113519D01*
X137270131Y-93113520D01*
X137302364Y-93123621D01*
X137417281Y-93159634D01*
X137486563Y-93166000D01*
X137489461Y-93166000D01*
X137700553Y-93165999D01*
X137913436Y-93165999D01*
X137916295Y-93165736D01*
X137916303Y-93165736D01*
X137950076Y-93162633D01*
X137982719Y-93159634D01*
X138002784Y-93153346D01*
X138129869Y-93113520D01*
X138129871Y-93113519D01*
X138137118Y-93111248D01*
X138275518Y-93027430D01*
X138389930Y-92913018D01*
X138473748Y-92774618D01*
X138480785Y-92752165D01*
X138509622Y-92660144D01*
X138522134Y-92620219D01*
X138528500Y-92550937D01*
X138528500Y-92333578D01*
X138548502Y-92265457D01*
X138602158Y-92218964D01*
X138672432Y-92208860D01*
X138737012Y-92238354D01*
X138774024Y-92293703D01*
X138781284Y-92315463D01*
X138787450Y-92333946D01*
X138880522Y-92484348D01*
X139005697Y-92609305D01*
X139009916Y-92611906D01*
X139050417Y-92669030D01*
X139053649Y-92739953D01*
X139018024Y-92801365D01*
X139010470Y-92807922D01*
X139004652Y-92811522D01*
X138879695Y-92936697D01*
X138875855Y-92942927D01*
X138875854Y-92942928D01*
X138794508Y-93074896D01*
X138786885Y-93087262D01*
X138731203Y-93255139D01*
X138720500Y-93359600D01*
X138720500Y-94135400D01*
X138720837Y-94138646D01*
X138720837Y-94138650D01*
X138728795Y-94215342D01*
X138731474Y-94241166D01*
X138787450Y-94408946D01*
X138880522Y-94559348D01*
X139005697Y-94684305D01*
X139011927Y-94688145D01*
X139011928Y-94688146D01*
X139135616Y-94764389D01*
X139183110Y-94817162D01*
X139195500Y-94871649D01*
X139195500Y-101348651D01*
X139175498Y-101416772D01*
X139158595Y-101437746D01*
X135753595Y-104842746D01*
X135691283Y-104876772D01*
X135620468Y-104871707D01*
X135563632Y-104829160D01*
X135538821Y-104762640D01*
X135538500Y-104753651D01*
X135538500Y-101441866D01*
X135531745Y-101379684D01*
X135480615Y-101243295D01*
X135393261Y-101126739D01*
X135276705Y-101039385D01*
X135140316Y-100988255D01*
X135078134Y-100981500D01*
X132281866Y-100981500D01*
X132219684Y-100988255D01*
X132083295Y-101039385D01*
X131966739Y-101126739D01*
X131879385Y-101243295D01*
X131828255Y-101379684D01*
X131821500Y-101441866D01*
X131821500Y-101698145D01*
X131801498Y-101766266D01*
X131747842Y-101812759D01*
X131677568Y-101822863D01*
X131638200Y-101810362D01*
X131632715Y-101807561D01*
X131632709Y-101807559D01*
X131626192Y-101804231D01*
X131619086Y-101802492D01*
X131613441Y-101800393D01*
X131607678Y-101798476D01*
X131601050Y-101795378D01*
X131529583Y-101780513D01*
X131525299Y-101779543D01*
X131509320Y-101775633D01*
X131454390Y-101762192D01*
X131448788Y-101761844D01*
X131448785Y-101761844D01*
X131443236Y-101761500D01*
X131443238Y-101761464D01*
X131439245Y-101761225D01*
X131435053Y-101760851D01*
X131427885Y-101759360D01*
X131361675Y-101761151D01*
X131350479Y-101761454D01*
X131347072Y-101761500D01*
X129084500Y-101761500D01*
X129016379Y-101741498D01*
X128969886Y-101687842D01*
X128958500Y-101635500D01*
X128958500Y-101519366D01*
X128951745Y-101457184D01*
X128900615Y-101320795D01*
X128813261Y-101204239D01*
X128696705Y-101116885D01*
X128676811Y-101109427D01*
X128620047Y-101066787D01*
X128595346Y-101000226D01*
X128610553Y-100930877D01*
X128622158Y-100913353D01*
X128715367Y-100795330D01*
X128715370Y-100795325D01*
X128718568Y-100791276D01*
X128732885Y-100765342D01*
X128832177Y-100585474D01*
X128832179Y-100585470D01*
X128834674Y-100580950D01*
X128838655Y-100569710D01*
X128913144Y-100359360D01*
X128913145Y-100359356D01*
X128914870Y-100354485D01*
X128920183Y-100324659D01*
X128956095Y-100123052D01*
X128956096Y-100123046D01*
X128957001Y-100117963D01*
X128959936Y-99877737D01*
X128923596Y-99640256D01*
X128886906Y-99528003D01*
X128850566Y-99416817D01*
X128850563Y-99416811D01*
X128848958Y-99411899D01*
X128841855Y-99398253D01*
X128740416Y-99203393D01*
X128738025Y-99198800D01*
X128644058Y-99073648D01*
X128596882Y-99010815D01*
X128596880Y-99010812D01*
X128593777Y-99006680D01*
X128420088Y-98840699D01*
X128383097Y-98815465D01*
X128338096Y-98760556D01*
X128329925Y-98690032D01*
X128361179Y-98626284D01*
X128385660Y-98605589D01*
X128387635Y-98604311D01*
X128391977Y-98601502D01*
X128569670Y-98439814D01*
X128679839Y-98300316D01*
X128715362Y-98255336D01*
X128715364Y-98255333D01*
X128718568Y-98251276D01*
X128719254Y-98251818D01*
X128770089Y-98209105D01*
X128820684Y-98198500D01*
X131012930Y-98198500D01*
X131031880Y-98199933D01*
X131046115Y-98202099D01*
X131046119Y-98202099D01*
X131053349Y-98203199D01*
X131060641Y-98202606D01*
X131060644Y-98202606D01*
X131106018Y-98198915D01*
X131116233Y-98198500D01*
X131124293Y-98198500D01*
X131137583Y-98196951D01*
X131152507Y-98195211D01*
X131156882Y-98194778D01*
X131222339Y-98189454D01*
X131222342Y-98189453D01*
X131229637Y-98188860D01*
X131236601Y-98186604D01*
X131242560Y-98185413D01*
X131248415Y-98184029D01*
X131255681Y-98183182D01*
X131324327Y-98158265D01*
X131328455Y-98156848D01*
X131390936Y-98136607D01*
X131390938Y-98136606D01*
X131397899Y-98134351D01*
X131404154Y-98130555D01*
X131409628Y-98128049D01*
X131415058Y-98125330D01*
X131421937Y-98122833D01*
X131482976Y-98082814D01*
X131486680Y-98080477D01*
X131549107Y-98042595D01*
X131557484Y-98035197D01*
X131557508Y-98035224D01*
X131560500Y-98032571D01*
X131563734Y-98029867D01*
X131569852Y-98025856D01*
X131574880Y-98020548D01*
X131574884Y-98020545D01*
X131596029Y-97998223D01*
X131604028Y-97989780D01*
X131665396Y-97954082D01*
X131736323Y-97957229D01*
X131794289Y-97998223D01*
X131820890Y-98064048D01*
X131821500Y-98076433D01*
X131821500Y-98238134D01*
X131828255Y-98300316D01*
X131879385Y-98436705D01*
X131966739Y-98553261D01*
X132083295Y-98640615D01*
X132219684Y-98691745D01*
X132281866Y-98698500D01*
X135078134Y-98698500D01*
X135140316Y-98691745D01*
X135276705Y-98640615D01*
X135393261Y-98553261D01*
X135480615Y-98436705D01*
X135531745Y-98300316D01*
X135538500Y-98238134D01*
X135538500Y-93641866D01*
X135531745Y-93579684D01*
X135480615Y-93443295D01*
X135393261Y-93326739D01*
X135276705Y-93239385D01*
X135140316Y-93188255D01*
X135078134Y-93181500D01*
X134564500Y-93181500D01*
X134496379Y-93161498D01*
X134449886Y-93107842D01*
X134438500Y-93055500D01*
X134438500Y-90832959D01*
X136873944Y-90832959D01*
X136876866Y-90847836D01*
X136888760Y-90851000D01*
X137427885Y-90851000D01*
X137443124Y-90846525D01*
X137444329Y-90845135D01*
X137446000Y-90837452D01*
X137446000Y-90832885D01*
X137954000Y-90832885D01*
X137958475Y-90848124D01*
X137959865Y-90849329D01*
X137967548Y-90851000D01*
X138509598Y-90851000D01*
X138524143Y-90846729D01*
X138526206Y-90834596D01*
X138522249Y-90791527D01*
X138519639Y-90778494D01*
X138475561Y-90637839D01*
X138469355Y-90624094D01*
X138393467Y-90498789D01*
X138384160Y-90486920D01*
X138280580Y-90383340D01*
X138268711Y-90374033D01*
X138143406Y-90298145D01*
X138129661Y-90291939D01*
X137989006Y-90247861D01*
X137975973Y-90245251D01*
X137972039Y-90244889D01*
X137957165Y-90247812D01*
X137954000Y-90259707D01*
X137954000Y-90832885D01*
X137446000Y-90832885D01*
X137446000Y-90261347D01*
X137441729Y-90246802D01*
X137429596Y-90244739D01*
X137424027Y-90245251D01*
X137410994Y-90247861D01*
X137270339Y-90291939D01*
X137256594Y-90298145D01*
X137131289Y-90374033D01*
X137119420Y-90383340D01*
X137015840Y-90486920D01*
X137006533Y-90498789D01*
X136930645Y-90624094D01*
X136924439Y-90637839D01*
X136880363Y-90778489D01*
X136877750Y-90791536D01*
X136873944Y-90832959D01*
X134438500Y-90832959D01*
X134438500Y-89467904D01*
X137953794Y-89467904D01*
X137957751Y-89510973D01*
X137960361Y-89524006D01*
X138004439Y-89664661D01*
X138010645Y-89678406D01*
X138086533Y-89803711D01*
X138095840Y-89815580D01*
X138199420Y-89919160D01*
X138211289Y-89928467D01*
X138336594Y-90004355D01*
X138350339Y-90010561D01*
X138490994Y-90054639D01*
X138504027Y-90057249D01*
X138507961Y-90057611D01*
X138522835Y-90054688D01*
X138526000Y-90042793D01*
X138526000Y-89469615D01*
X138521525Y-89454376D01*
X138520135Y-89453171D01*
X138512452Y-89451500D01*
X137970402Y-89451500D01*
X137955857Y-89455771D01*
X137953794Y-89467904D01*
X134438500Y-89467904D01*
X134438500Y-88659871D01*
X134458502Y-88591750D01*
X134475405Y-88570776D01*
X136286405Y-86759776D01*
X136348717Y-86725750D01*
X136419532Y-86730815D01*
G37*
G04 #@! TD.AperFunction*
G04 #@! TA.AperFunction,Conductor*
G36*
X175018686Y-89378502D02*
G01*
X175065179Y-89432158D01*
X175068547Y-89440270D01*
X175109385Y-89549205D01*
X175196739Y-89665761D01*
X175313295Y-89753115D01*
X175333189Y-89760573D01*
X175389953Y-89803213D01*
X175414654Y-89869774D01*
X175399447Y-89939123D01*
X175387842Y-89956647D01*
X175294633Y-90074670D01*
X175294630Y-90074675D01*
X175291432Y-90078724D01*
X175288939Y-90083240D01*
X175288937Y-90083243D01*
X175177823Y-90284526D01*
X175175326Y-90289050D01*
X175173602Y-90293919D01*
X175173600Y-90293923D01*
X175101422Y-90497747D01*
X175095130Y-90515515D01*
X175094223Y-90520608D01*
X175094222Y-90520611D01*
X175054840Y-90741704D01*
X175052999Y-90752037D01*
X175052936Y-90757201D01*
X175050628Y-90946141D01*
X175050064Y-90992263D01*
X175086404Y-91229744D01*
X175108475Y-91297271D01*
X175159434Y-91453183D01*
X175159437Y-91453189D01*
X175161042Y-91458101D01*
X175163429Y-91462687D01*
X175163431Y-91462691D01*
X175264749Y-91657319D01*
X175278462Y-91726979D01*
X175252337Y-91792994D01*
X175194669Y-91834406D01*
X175152986Y-91841500D01*
X170934500Y-91841500D01*
X170866379Y-91821498D01*
X170819886Y-91767842D01*
X170808500Y-91715500D01*
X170808500Y-91351866D01*
X170801745Y-91289684D01*
X170750615Y-91153295D01*
X170663261Y-91036739D01*
X170546705Y-90949385D01*
X170410316Y-90898255D01*
X170348134Y-90891500D01*
X164851866Y-90891500D01*
X164789684Y-90898255D01*
X164653295Y-90949385D01*
X164536739Y-91036739D01*
X164449385Y-91153295D01*
X164398255Y-91289684D01*
X164391500Y-91351866D01*
X164391500Y-92090500D01*
X164371498Y-92158621D01*
X164317842Y-92205114D01*
X164265500Y-92216500D01*
X160773214Y-92216500D01*
X160705093Y-92196498D01*
X160658600Y-92142842D01*
X160648496Y-92072568D01*
X160651738Y-92058819D01*
X160656005Y-92038914D01*
X160665672Y-91944562D01*
X160666000Y-91938146D01*
X160666000Y-91750615D01*
X160661525Y-91735376D01*
X160660135Y-91734171D01*
X160652452Y-91732500D01*
X157868116Y-91732500D01*
X157852877Y-91736975D01*
X157851672Y-91738365D01*
X157850001Y-91746048D01*
X157850001Y-91938095D01*
X157850338Y-91944614D01*
X157860257Y-92040206D01*
X157864605Y-92060343D01*
X157862526Y-92060792D01*
X157864740Y-92121575D01*
X157828556Y-92182658D01*
X157765091Y-92214482D01*
X157742632Y-92216500D01*
X154894286Y-92216500D01*
X154826165Y-92196498D01*
X154787143Y-92156804D01*
X154750116Y-92096969D01*
X154726220Y-92073115D01*
X154632184Y-91979242D01*
X154632179Y-91979238D01*
X154627003Y-91974071D01*
X154568722Y-91938146D01*
X154485150Y-91886631D01*
X154485148Y-91886630D01*
X154478920Y-91882791D01*
X154313809Y-91828026D01*
X154306973Y-91827326D01*
X154306970Y-91827325D01*
X154255474Y-91822049D01*
X154211072Y-91817500D01*
X153636928Y-91817500D01*
X153633682Y-91817837D01*
X153633678Y-91817837D01*
X153539765Y-91827581D01*
X153539761Y-91827582D01*
X153532907Y-91828293D01*
X153526371Y-91830474D01*
X153526369Y-91830474D01*
X153410279Y-91869205D01*
X153367893Y-91883346D01*
X153219969Y-91974884D01*
X153214796Y-91980066D01*
X153102242Y-92092816D01*
X153102238Y-92092821D01*
X153097071Y-92097997D01*
X153093231Y-92104227D01*
X153093230Y-92104228D01*
X153012805Y-92234702D01*
X153005791Y-92246080D01*
X153003487Y-92253027D01*
X153000393Y-92259662D01*
X152998023Y-92258557D01*
X152964555Y-92306867D01*
X152898991Y-92334104D01*
X152885393Y-92334840D01*
X152179349Y-92334840D01*
X152111228Y-92314838D01*
X152064735Y-92261182D01*
X152053349Y-92208840D01*
X152053349Y-92054466D01*
X152047895Y-92004260D01*
X152047895Y-91977049D01*
X152052480Y-91934845D01*
X152052849Y-91928031D01*
X152052849Y-91901475D01*
X152048374Y-91886236D01*
X152036305Y-91875778D01*
X151995088Y-91853271D01*
X151983357Y-91839741D01*
X151966934Y-91817828D01*
X151911172Y-91743424D01*
X151886324Y-91676919D01*
X151901377Y-91607536D01*
X151911172Y-91592295D01*
X151912231Y-91590883D01*
X151985649Y-91492921D01*
X152042508Y-91450406D01*
X152049924Y-91447940D01*
X152051177Y-91446495D01*
X152052848Y-91438812D01*
X152052848Y-91407691D01*
X152052479Y-91400872D01*
X152047895Y-91358672D01*
X152047895Y-91331458D01*
X152050305Y-91309279D01*
X152053349Y-91281254D01*
X152053349Y-91126880D01*
X152073351Y-91058759D01*
X152127007Y-91012266D01*
X152179349Y-91000880D01*
X154682284Y-91000880D01*
X154750405Y-91020882D01*
X154796898Y-91074538D01*
X154806288Y-91108923D01*
X154806394Y-91108900D01*
X154806790Y-91110762D01*
X154807594Y-91113706D01*
X154808458Y-91121928D01*
X154810498Y-91128205D01*
X154810498Y-91128207D01*
X154842234Y-91225880D01*
X154867473Y-91303556D01*
X154962960Y-91468944D01*
X154967378Y-91473851D01*
X154967379Y-91473852D01*
X155075383Y-91593803D01*
X155090747Y-91610866D01*
X155173010Y-91670634D01*
X155211585Y-91698660D01*
X155245248Y-91723118D01*
X155251276Y-91725802D01*
X155251278Y-91725803D01*
X155406815Y-91795052D01*
X155419712Y-91800794D01*
X155513112Y-91820647D01*
X155600056Y-91839128D01*
X155600061Y-91839128D01*
X155606513Y-91840500D01*
X155797487Y-91840500D01*
X155803939Y-91839128D01*
X155803944Y-91839128D01*
X155890887Y-91820647D01*
X155984288Y-91800794D01*
X155997185Y-91795052D01*
X156152722Y-91725803D01*
X156152724Y-91725802D01*
X156158752Y-91723118D01*
X156192416Y-91698660D01*
X156230990Y-91670634D01*
X156313253Y-91610866D01*
X156328617Y-91593803D01*
X156436621Y-91473852D01*
X156436622Y-91473851D01*
X156441040Y-91468944D01*
X156536527Y-91303556D01*
X156595542Y-91121928D01*
X156598993Y-91089099D01*
X156614814Y-90938565D01*
X156615504Y-90932000D01*
X156605267Y-90834596D01*
X156596232Y-90748635D01*
X156596232Y-90748633D01*
X156595542Y-90742072D01*
X156548871Y-90598434D01*
X156546843Y-90527469D01*
X156583505Y-90466671D01*
X156647218Y-90435346D01*
X156668704Y-90433500D01*
X157732733Y-90433500D01*
X157743916Y-90434027D01*
X157751409Y-90435702D01*
X157759335Y-90435453D01*
X157759336Y-90435453D01*
X157819486Y-90433562D01*
X157823445Y-90433500D01*
X157851356Y-90433500D01*
X157855291Y-90433003D01*
X157855356Y-90432995D01*
X157867203Y-90432062D01*
X157868927Y-90432008D01*
X157878931Y-90431694D01*
X157947645Y-90449549D01*
X157995798Y-90501720D01*
X158008102Y-90571643D01*
X157990143Y-90623748D01*
X157920184Y-90737243D01*
X157914037Y-90750424D01*
X157862862Y-90904710D01*
X157859995Y-90918086D01*
X157850328Y-91012438D01*
X157850000Y-91018855D01*
X157850000Y-91206385D01*
X157854475Y-91221624D01*
X157855865Y-91222829D01*
X157863548Y-91224500D01*
X158985885Y-91224500D01*
X159001124Y-91220025D01*
X159002329Y-91218635D01*
X159004000Y-91210952D01*
X159004000Y-91206385D01*
X159512000Y-91206385D01*
X159516475Y-91221624D01*
X159517865Y-91222829D01*
X159525548Y-91224500D01*
X160647884Y-91224500D01*
X160663123Y-91220025D01*
X160664328Y-91218635D01*
X160665999Y-91210952D01*
X160665999Y-91018905D01*
X160665662Y-91012386D01*
X160655743Y-90916794D01*
X160652851Y-90903400D01*
X160601412Y-90749216D01*
X160595239Y-90736038D01*
X160509937Y-90598193D01*
X160500901Y-90586792D01*
X160386171Y-90472261D01*
X160374760Y-90463249D01*
X160236757Y-90378184D01*
X160223576Y-90372037D01*
X160069290Y-90320862D01*
X160055914Y-90317995D01*
X159961562Y-90308328D01*
X159955145Y-90308000D01*
X159530115Y-90308000D01*
X159514876Y-90312475D01*
X159513671Y-90313865D01*
X159512000Y-90321548D01*
X159512000Y-91206385D01*
X159004000Y-91206385D01*
X159004000Y-90326116D01*
X158999525Y-90310877D01*
X158998135Y-90309672D01*
X158990452Y-90308001D01*
X158560905Y-90308001D01*
X158554386Y-90308338D01*
X158511095Y-90312830D01*
X158441274Y-90299965D01*
X158389492Y-90251394D01*
X158372190Y-90182538D01*
X158394861Y-90115258D01*
X158408997Y-90098407D01*
X158635719Y-89871686D01*
X158946001Y-89561404D01*
X159008313Y-89527379D01*
X159035096Y-89524500D01*
X159958400Y-89524500D01*
X159961646Y-89524163D01*
X159961650Y-89524163D01*
X160057308Y-89514238D01*
X160057312Y-89514237D01*
X160064166Y-89513526D01*
X160070702Y-89511345D01*
X160070704Y-89511345D01*
X160224998Y-89459868D01*
X160231946Y-89457550D01*
X160239023Y-89453171D01*
X160319603Y-89403306D01*
X160361538Y-89377356D01*
X160427840Y-89358500D01*
X174950565Y-89358500D01*
X175018686Y-89378502D01*
G37*
G04 #@! TD.AperFunction*
M02*
