G04 #@! TF.GenerationSoftware,KiCad,Pcbnew,(6.0.1)*
G04 #@! TF.CreationDate,2022-06-09T14:03:21-07:00*
G04 #@! TF.ProjectId,StereoPSRev1_2,53746572-656f-4505-9352-6576315f322e,rev?*
G04 #@! TF.SameCoordinates,Original*
G04 #@! TF.FileFunction,Soldermask,Bot*
G04 #@! TF.FilePolarity,Negative*
%FSLAX46Y46*%
G04 Gerber Fmt 4.6, Leading zero omitted, Abs format (unit mm)*
G04 Created by KiCad (PCBNEW (6.0.1)) date 2022-06-09 14:03:21*
%MOMM*%
%LPD*%
G01*
G04 APERTURE LIST*
G04 Aperture macros list*
%AMRoundRect*
0 Rectangle with rounded corners*
0 $1 Rounding radius*
0 $2 $3 $4 $5 $6 $7 $8 $9 X,Y pos of 4 corners*
0 Add a 4 corners polygon primitive as box body*
4,1,4,$2,$3,$4,$5,$6,$7,$8,$9,$2,$3,0*
0 Add four circle primitives for the rounded corners*
1,1,$1+$1,$2,$3*
1,1,$1+$1,$4,$5*
1,1,$1+$1,$6,$7*
1,1,$1+$1,$8,$9*
0 Add four rect primitives between the rounded corners*
20,1,$1+$1,$2,$3,$4,$5,0*
20,1,$1+$1,$4,$5,$6,$7,0*
20,1,$1+$1,$6,$7,$8,$9,0*
20,1,$1+$1,$8,$9,$2,$3,0*%
G04 Aperture macros list end*
%ADD10R,1.700000X1.700000*%
%ADD11O,1.700000X1.700000*%
%ADD12C,2.500000*%
%ADD13C,1.498600*%
%ADD14RoundRect,0.250000X0.650000X-0.412500X0.650000X0.412500X-0.650000X0.412500X-0.650000X-0.412500X0*%
%ADD15R,0.900000X1.200000*%
%ADD16R,1.600000X1.600000*%
%ADD17C,1.600000*%
%ADD18R,3.500000X2.700000*%
%ADD19O,3.500000X3.500000*%
%ADD20R,1.905000X2.000000*%
%ADD21O,1.905000X2.000000*%
%ADD22C,1.524000*%
%ADD23R,9.881000X8.881000*%
%ADD24RoundRect,0.250000X-0.400000X-0.625000X0.400000X-0.625000X0.400000X0.625000X-0.400000X0.625000X0*%
%ADD25RoundRect,0.237500X-0.300000X-0.237500X0.300000X-0.237500X0.300000X0.237500X-0.300000X0.237500X0*%
%ADD26R,2.000000X2.000000*%
%ADD27C,2.000000*%
%ADD28RoundRect,0.250000X-0.337500X-0.475000X0.337500X-0.475000X0.337500X0.475000X-0.337500X0.475000X0*%
%ADD29RoundRect,0.250000X-0.412500X-0.650000X0.412500X-0.650000X0.412500X0.650000X-0.412500X0.650000X0*%
%ADD30RoundRect,0.250000X0.475000X-0.337500X0.475000X0.337500X-0.475000X0.337500X-0.475000X-0.337500X0*%
%ADD31RoundRect,0.237500X0.237500X-0.300000X0.237500X0.300000X-0.237500X0.300000X-0.237500X-0.300000X0*%
%ADD32RoundRect,0.237500X-0.237500X0.300000X-0.237500X-0.300000X0.237500X-0.300000X0.237500X0.300000X0*%
G04 APERTURE END LIST*
D10*
X115000000Y-113500000D03*
D11*
X112460000Y-113500000D03*
D10*
X159470000Y-113500000D03*
D11*
X156930000Y-113500000D03*
D12*
X166200000Y-74500000D03*
D10*
X106400000Y-89675000D03*
D11*
X108940000Y-89675000D03*
X111480000Y-89675000D03*
X114020000Y-89675000D03*
D12*
X107200000Y-117500000D03*
D13*
X120000000Y-84400000D03*
X121900000Y-82600000D03*
X120000000Y-80800000D03*
D12*
X166200000Y-117500000D03*
D10*
X108900000Y-107300000D03*
X137495000Y-113475000D03*
D11*
X134955000Y-113475000D03*
D10*
X124100000Y-92100000D03*
D12*
X107200000Y-74500000D03*
D14*
X114688340Y-96507550D03*
X114688340Y-93382550D03*
D15*
X121938340Y-98545050D03*
X118638340Y-98545050D03*
D16*
X159747349Y-95900000D03*
D17*
X163247349Y-95900000D03*
D18*
X135900000Y-100600000D03*
X129100000Y-100600000D03*
D19*
X142760000Y-71940000D03*
D20*
X145300000Y-88600000D03*
D21*
X142760000Y-88600000D03*
X140220000Y-88600000D03*
D22*
X145800000Y-83100000D03*
X139800000Y-83100000D03*
D23*
X142740500Y-80159500D03*
D22*
X145800000Y-80100000D03*
X139815284Y-80088651D03*
X142800000Y-83100000D03*
X145800000Y-77100000D03*
X142800000Y-80100000D03*
X139800000Y-77100000D03*
X142800000Y-77100000D03*
D24*
X117450000Y-90500000D03*
X120550000Y-90500000D03*
D25*
X117937500Y-100500000D03*
X119662500Y-100500000D03*
D26*
X159432323Y-106000000D03*
D27*
X164432323Y-106000000D03*
D28*
X117308840Y-92670550D03*
X119383840Y-92670550D03*
D19*
X145600000Y-122030000D03*
D20*
X143060000Y-105370000D03*
D21*
X145600000Y-105370000D03*
X148140000Y-105370000D03*
D22*
X148560000Y-116870000D03*
X145560000Y-116870000D03*
X142560000Y-113870000D03*
X142560000Y-110870000D03*
X145560000Y-110870000D03*
D23*
X145619500Y-113810500D03*
D22*
X148544716Y-113881349D03*
X148560000Y-110870000D03*
X145560000Y-113870000D03*
X142560000Y-116870000D03*
D18*
X145600000Y-92300000D03*
X138800000Y-92300000D03*
D29*
X118275000Y-104400000D03*
X121400000Y-104400000D03*
D19*
X131860000Y-71940000D03*
D20*
X134400000Y-88600000D03*
D21*
X131860000Y-88600000D03*
X129320000Y-88600000D03*
D22*
X134900000Y-80100000D03*
X128900000Y-77100000D03*
X128900000Y-83100000D03*
X128915284Y-80088651D03*
X134900000Y-77100000D03*
D23*
X131840500Y-80159500D03*
D22*
X131900000Y-80100000D03*
X131900000Y-83100000D03*
X131900000Y-77100000D03*
X134900000Y-83100000D03*
D30*
X116888340Y-98582550D03*
X116888340Y-96507550D03*
D31*
X111300000Y-104125000D03*
X111300000Y-102400000D03*
D32*
X121101920Y-93237500D03*
X121101920Y-94962500D03*
D19*
X127240000Y-121960000D03*
D20*
X124700000Y-105300000D03*
D21*
X127240000Y-105300000D03*
X129780000Y-105300000D03*
D22*
X130200000Y-110800000D03*
D23*
X127259500Y-113740500D03*
D22*
X127200000Y-116800000D03*
X130200000Y-116800000D03*
X124200000Y-113800000D03*
X124200000Y-116800000D03*
X127200000Y-110800000D03*
X124200000Y-110800000D03*
X130184716Y-113811349D03*
X127200000Y-113800000D03*
D15*
X111458340Y-98645050D03*
X114758340Y-98645050D03*
M02*
