G04 #@! TF.GenerationSoftware,KiCad,Pcbnew,(6.0.1)*
G04 #@! TF.CreationDate,2022-06-09T14:03:20-07:00*
G04 #@! TF.ProjectId,StereoPSRev1_2,53746572-656f-4505-9352-6576315f322e,rev?*
G04 #@! TF.SameCoordinates,Original*
G04 #@! TF.FileFunction,Copper,L4,Bot*
G04 #@! TF.FilePolarity,Positive*
%FSLAX46Y46*%
G04 Gerber Fmt 4.6, Leading zero omitted, Abs format (unit mm)*
G04 Created by KiCad (PCBNEW (6.0.1)) date 2022-06-09 14:03:20*
%MOMM*%
%LPD*%
G01*
G04 APERTURE LIST*
G04 Aperture macros list*
%AMRoundRect*
0 Rectangle with rounded corners*
0 $1 Rounding radius*
0 $2 $3 $4 $5 $6 $7 $8 $9 X,Y pos of 4 corners*
0 Add a 4 corners polygon primitive as box body*
4,1,4,$2,$3,$4,$5,$6,$7,$8,$9,$2,$3,0*
0 Add four circle primitives for the rounded corners*
1,1,$1+$1,$2,$3*
1,1,$1+$1,$4,$5*
1,1,$1+$1,$6,$7*
1,1,$1+$1,$8,$9*
0 Add four rect primitives between the rounded corners*
20,1,$1+$1,$2,$3,$4,$5,0*
20,1,$1+$1,$4,$5,$6,$7,0*
20,1,$1+$1,$6,$7,$8,$9,0*
20,1,$1+$1,$8,$9,$2,$3,0*%
G04 Aperture macros list end*
G04 #@! TA.AperFunction,ComponentPad*
%ADD10R,1.700000X1.700000*%
G04 #@! TD*
G04 #@! TA.AperFunction,ComponentPad*
%ADD11O,1.700000X1.700000*%
G04 #@! TD*
G04 #@! TA.AperFunction,ComponentPad*
%ADD12C,1.498600*%
G04 #@! TD*
G04 #@! TA.AperFunction,SMDPad,CuDef*
%ADD13RoundRect,0.250000X0.650000X-0.412500X0.650000X0.412500X-0.650000X0.412500X-0.650000X-0.412500X0*%
G04 #@! TD*
G04 #@! TA.AperFunction,SMDPad,CuDef*
%ADD14R,0.900000X1.200000*%
G04 #@! TD*
G04 #@! TA.AperFunction,ComponentPad*
%ADD15R,1.600000X1.600000*%
G04 #@! TD*
G04 #@! TA.AperFunction,ComponentPad*
%ADD16C,1.600000*%
G04 #@! TD*
G04 #@! TA.AperFunction,SMDPad,CuDef*
%ADD17R,3.500000X2.700000*%
G04 #@! TD*
G04 #@! TA.AperFunction,ComponentPad*
%ADD18R,1.905000X2.000000*%
G04 #@! TD*
G04 #@! TA.AperFunction,ComponentPad*
%ADD19O,1.905000X2.000000*%
G04 #@! TD*
G04 #@! TA.AperFunction,ComponentPad*
%ADD20C,1.524000*%
G04 #@! TD*
G04 #@! TA.AperFunction,SMDPad,CuDef*
%ADD21R,9.881000X8.881000*%
G04 #@! TD*
G04 #@! TA.AperFunction,SMDPad,CuDef*
%ADD22RoundRect,0.250000X-0.400000X-0.625000X0.400000X-0.625000X0.400000X0.625000X-0.400000X0.625000X0*%
G04 #@! TD*
G04 #@! TA.AperFunction,SMDPad,CuDef*
%ADD23RoundRect,0.237500X-0.300000X-0.237500X0.300000X-0.237500X0.300000X0.237500X-0.300000X0.237500X0*%
G04 #@! TD*
G04 #@! TA.AperFunction,ComponentPad*
%ADD24R,2.000000X2.000000*%
G04 #@! TD*
G04 #@! TA.AperFunction,ComponentPad*
%ADD25C,2.000000*%
G04 #@! TD*
G04 #@! TA.AperFunction,SMDPad,CuDef*
%ADD26RoundRect,0.250000X-0.337500X-0.475000X0.337500X-0.475000X0.337500X0.475000X-0.337500X0.475000X0*%
G04 #@! TD*
G04 #@! TA.AperFunction,SMDPad,CuDef*
%ADD27RoundRect,0.250000X-0.412500X-0.650000X0.412500X-0.650000X0.412500X0.650000X-0.412500X0.650000X0*%
G04 #@! TD*
G04 #@! TA.AperFunction,SMDPad,CuDef*
%ADD28RoundRect,0.250000X0.475000X-0.337500X0.475000X0.337500X-0.475000X0.337500X-0.475000X-0.337500X0*%
G04 #@! TD*
G04 #@! TA.AperFunction,SMDPad,CuDef*
%ADD29RoundRect,0.237500X0.237500X-0.300000X0.237500X0.300000X-0.237500X0.300000X-0.237500X-0.300000X0*%
G04 #@! TD*
G04 #@! TA.AperFunction,SMDPad,CuDef*
%ADD30RoundRect,0.237500X-0.237500X0.300000X-0.237500X-0.300000X0.237500X-0.300000X0.237500X0.300000X0*%
G04 #@! TD*
G04 #@! TA.AperFunction,ViaPad*
%ADD31C,0.800000*%
G04 #@! TD*
G04 #@! TA.AperFunction,Conductor*
%ADD32C,0.250000*%
G04 #@! TD*
G04 #@! TA.AperFunction,Conductor*
%ADD33C,1.000000*%
G04 #@! TD*
G04 #@! TA.AperFunction,Conductor*
%ADD34C,0.500000*%
G04 #@! TD*
G04 APERTURE END LIST*
D10*
X115000000Y-113500000D03*
D11*
X112460000Y-113500000D03*
D10*
X159470000Y-113500000D03*
D11*
X156930000Y-113500000D03*
D10*
X106400000Y-89675000D03*
D11*
X108940000Y-89675000D03*
X111480000Y-89675000D03*
X114020000Y-89675000D03*
D12*
X120000000Y-84400000D03*
X121900000Y-82600000D03*
X120000000Y-80800000D03*
D10*
X108900000Y-107300000D03*
X137495000Y-113475000D03*
D11*
X134955000Y-113475000D03*
D10*
X124100000Y-92100000D03*
D13*
X114688340Y-96507550D03*
X114688340Y-93382550D03*
D14*
X121938340Y-98545050D03*
X118638340Y-98545050D03*
D15*
X159747349Y-95900000D03*
D16*
X163247349Y-95900000D03*
D17*
X135900000Y-100600000D03*
X129100000Y-100600000D03*
D18*
X145300000Y-88600000D03*
D19*
X142760000Y-88600000D03*
X140220000Y-88600000D03*
D20*
X145800000Y-83100000D03*
X139800000Y-83100000D03*
D21*
X142740500Y-80159500D03*
D20*
X145800000Y-80100000D03*
X139815284Y-80088651D03*
X142800000Y-83100000D03*
X145800000Y-77100000D03*
X142800000Y-80100000D03*
X139800000Y-77100000D03*
X142800000Y-77100000D03*
D22*
X117450000Y-90500000D03*
X120550000Y-90500000D03*
D23*
X117937500Y-100500000D03*
X119662500Y-100500000D03*
D24*
X159432323Y-106000000D03*
D25*
X164432323Y-106000000D03*
D26*
X117308840Y-92670550D03*
X119383840Y-92670550D03*
D18*
X143060000Y-105370000D03*
D19*
X145600000Y-105370000D03*
X148140000Y-105370000D03*
D20*
X148560000Y-116870000D03*
X145560000Y-116870000D03*
X142560000Y-113870000D03*
X142560000Y-110870000D03*
X145560000Y-110870000D03*
D21*
X145619500Y-113810500D03*
D20*
X148544716Y-113881349D03*
X148560000Y-110870000D03*
X145560000Y-113870000D03*
X142560000Y-116870000D03*
D17*
X145600000Y-92300000D03*
X138800000Y-92300000D03*
D27*
X118275000Y-104400000D03*
X121400000Y-104400000D03*
D18*
X134400000Y-88600000D03*
D19*
X131860000Y-88600000D03*
X129320000Y-88600000D03*
D20*
X134900000Y-80100000D03*
X128900000Y-77100000D03*
X128900000Y-83100000D03*
X128915284Y-80088651D03*
X134900000Y-77100000D03*
D21*
X131840500Y-80159500D03*
D20*
X131900000Y-80100000D03*
X131900000Y-83100000D03*
X131900000Y-77100000D03*
X134900000Y-83100000D03*
D28*
X116888340Y-98582550D03*
X116888340Y-96507550D03*
D29*
X111300000Y-104125000D03*
X111300000Y-102400000D03*
D30*
X121101920Y-93237500D03*
X121101920Y-94962500D03*
D18*
X124700000Y-105300000D03*
D19*
X127240000Y-105300000D03*
X129780000Y-105300000D03*
D20*
X130200000Y-110800000D03*
D21*
X127259500Y-113740500D03*
D20*
X127200000Y-116800000D03*
X130200000Y-116800000D03*
X124200000Y-113800000D03*
X124200000Y-116800000D03*
X127200000Y-110800000D03*
X124200000Y-110800000D03*
X130184716Y-113811349D03*
X127200000Y-113800000D03*
D14*
X111458340Y-98645050D03*
X114758340Y-98645050D03*
D31*
X145700000Y-92200000D03*
X129100000Y-100600000D03*
X118300000Y-104400000D03*
X111800000Y-86200000D03*
X112600000Y-104100000D03*
X136600000Y-100500000D03*
X134700000Y-100500000D03*
X113900000Y-104500000D03*
X117800000Y-100500000D03*
X137700000Y-92300000D03*
X115700000Y-100100000D03*
X114900000Y-104100000D03*
X119837500Y-104400000D03*
X117300000Y-90800000D03*
X114500000Y-100500000D03*
X117000000Y-96600000D03*
X121000000Y-93200000D03*
X117333840Y-92670550D03*
X111300000Y-102400000D03*
X110400000Y-100300000D03*
X114801695Y-98601695D03*
X119700000Y-100500000D03*
D32*
X120550000Y-90500000D02*
X120550000Y-91504390D01*
X120550000Y-91504390D02*
X119383840Y-92670550D01*
D33*
X129780000Y-105300000D02*
X129780000Y-101280000D01*
X129780000Y-101280000D02*
X129100000Y-100600000D01*
X143170000Y-100400000D02*
X137700000Y-100400000D01*
D34*
X111600000Y-105300000D02*
X114000000Y-105300000D01*
X126400000Y-107000000D02*
X127240000Y-106160000D01*
X111300000Y-105000000D02*
X111600000Y-105300000D01*
X115700000Y-107000000D02*
X126400000Y-107000000D01*
X113900000Y-104500000D02*
X113900000Y-105200000D01*
X111300000Y-104125000D02*
X111300000Y-105000000D01*
X114000000Y-105300000D02*
X115700000Y-107000000D01*
X113900000Y-105200000D02*
X114000000Y-105300000D01*
D33*
X143170000Y-100400000D02*
X148140000Y-105370000D01*
D34*
X127240000Y-106160000D02*
X127240000Y-105300000D01*
D33*
X137700000Y-100400000D02*
X137500000Y-100600000D01*
D32*
X111458340Y-102241660D02*
X111300000Y-102400000D01*
X111458340Y-98645050D02*
X111458340Y-102241660D01*
X116893725Y-98577165D02*
X116888340Y-98582550D01*
X116825840Y-98645050D02*
X116888340Y-98582550D01*
X116925840Y-98545050D02*
X116893725Y-98577165D01*
X114758340Y-98645050D02*
X114758340Y-96577550D01*
X114758340Y-96577550D02*
X114688340Y-96507550D01*
X114758340Y-98645050D02*
X116825840Y-98645050D01*
X118638340Y-98545050D02*
X116925840Y-98545050D01*
X121938340Y-98545050D02*
X119983390Y-100500000D01*
X119983390Y-100500000D02*
X119700000Y-100500000D01*
G04 #@! TA.AperFunction,Conductor*
G36*
X168342121Y-67496002D02*
G01*
X168388614Y-67549658D01*
X168400000Y-67602000D01*
X168400003Y-95178493D01*
X168400005Y-117137993D01*
X168400005Y-122574000D01*
X168380003Y-122642121D01*
X168326347Y-122688614D01*
X168274006Y-122700000D01*
X166098857Y-122699995D01*
X163494834Y-122699989D01*
X163426713Y-122679987D01*
X163380220Y-122626331D01*
X163373686Y-122608619D01*
X163370954Y-122599062D01*
X163370953Y-122599061D01*
X163368488Y-122590435D01*
X163352726Y-122565452D01*
X163344596Y-122550386D01*
X163332367Y-122523490D01*
X163315626Y-122504061D01*
X163304521Y-122489053D01*
X163295630Y-122474961D01*
X163290840Y-122467369D01*
X163268703Y-122447818D01*
X163256659Y-122435626D01*
X163243239Y-122420051D01*
X163243237Y-122420050D01*
X163237381Y-122413253D01*
X163229853Y-122408374D01*
X163229850Y-122408371D01*
X163215861Y-122399304D01*
X163200987Y-122388014D01*
X163196640Y-122384175D01*
X163181772Y-122371044D01*
X163173646Y-122367229D01*
X163173645Y-122367228D01*
X163167979Y-122364568D01*
X163155034Y-122358490D01*
X163140065Y-122350176D01*
X163115273Y-122334107D01*
X163090709Y-122326761D01*
X163073264Y-122320099D01*
X163068827Y-122318016D01*
X163050052Y-122309201D01*
X163020870Y-122304657D01*
X163004151Y-122300874D01*
X162984464Y-122294986D01*
X162984461Y-122294985D01*
X162975859Y-122292413D01*
X162966884Y-122292358D01*
X162966883Y-122292358D01*
X162960190Y-122292317D01*
X162941444Y-122292203D01*
X162940672Y-122292170D01*
X162939577Y-122292000D01*
X162908702Y-122292000D01*
X162907932Y-122291998D01*
X162834284Y-122291548D01*
X162834283Y-122291548D01*
X162830348Y-122291524D01*
X162829004Y-122291908D01*
X162827659Y-122292000D01*
X160608702Y-122292000D01*
X160607932Y-122291998D01*
X160607078Y-122291993D01*
X160530348Y-122291524D01*
X160521719Y-122293990D01*
X160521714Y-122293991D01*
X160501952Y-122299639D01*
X160485191Y-122303217D01*
X160464848Y-122306130D01*
X160464838Y-122306133D01*
X160455955Y-122307405D01*
X160432605Y-122318021D01*
X160415093Y-122324464D01*
X160407057Y-122326761D01*
X160390435Y-122331512D01*
X160365452Y-122347274D01*
X160350386Y-122355404D01*
X160323490Y-122367633D01*
X160304061Y-122384374D01*
X160289053Y-122395479D01*
X160267369Y-122409160D01*
X160261427Y-122415888D01*
X160247819Y-122431296D01*
X160235627Y-122443340D01*
X160213253Y-122462619D01*
X160208374Y-122470147D01*
X160208371Y-122470150D01*
X160199304Y-122484139D01*
X160188014Y-122499013D01*
X160171044Y-122518228D01*
X160158490Y-122544966D01*
X160150176Y-122559935D01*
X160134107Y-122584727D01*
X160131535Y-122593327D01*
X160126761Y-122609290D01*
X160120113Y-122626706D01*
X160119987Y-122626975D01*
X160119746Y-122627489D01*
X160119740Y-122627501D01*
X160072697Y-122680675D01*
X160005672Y-122699982D01*
X159448489Y-122699981D01*
X158494830Y-122699978D01*
X158426709Y-122679976D01*
X158380216Y-122626320D01*
X158373681Y-122608603D01*
X158370954Y-122599062D01*
X158370953Y-122599061D01*
X158368488Y-122590435D01*
X158352726Y-122565452D01*
X158344596Y-122550386D01*
X158332367Y-122523490D01*
X158315626Y-122504061D01*
X158304521Y-122489053D01*
X158295630Y-122474961D01*
X158290840Y-122467369D01*
X158268703Y-122447818D01*
X158256659Y-122435626D01*
X158243239Y-122420051D01*
X158243237Y-122420050D01*
X158237381Y-122413253D01*
X158229853Y-122408374D01*
X158229850Y-122408371D01*
X158215861Y-122399304D01*
X158200987Y-122388014D01*
X158196640Y-122384175D01*
X158181772Y-122371044D01*
X158173646Y-122367229D01*
X158173645Y-122367228D01*
X158167979Y-122364568D01*
X158155034Y-122358490D01*
X158140065Y-122350176D01*
X158115273Y-122334107D01*
X158090709Y-122326761D01*
X158073264Y-122320099D01*
X158068827Y-122318016D01*
X158050052Y-122309201D01*
X158020870Y-122304657D01*
X158004151Y-122300874D01*
X157984464Y-122294986D01*
X157984461Y-122294985D01*
X157975859Y-122292413D01*
X157966884Y-122292358D01*
X157966883Y-122292358D01*
X157960190Y-122292317D01*
X157941444Y-122292203D01*
X157940672Y-122292170D01*
X157939577Y-122292000D01*
X157908702Y-122292000D01*
X157907932Y-122291998D01*
X157834284Y-122291548D01*
X157834283Y-122291548D01*
X157830348Y-122291524D01*
X157829004Y-122291908D01*
X157827659Y-122292000D01*
X155608702Y-122292000D01*
X155607932Y-122291998D01*
X155607078Y-122291993D01*
X155530348Y-122291524D01*
X155521719Y-122293990D01*
X155521714Y-122293991D01*
X155501952Y-122299639D01*
X155485191Y-122303217D01*
X155464848Y-122306130D01*
X155464838Y-122306133D01*
X155455955Y-122307405D01*
X155432605Y-122318021D01*
X155415093Y-122324464D01*
X155407057Y-122326761D01*
X155390435Y-122331512D01*
X155365452Y-122347274D01*
X155350386Y-122355404D01*
X155323490Y-122367633D01*
X155304061Y-122384374D01*
X155289053Y-122395479D01*
X155267369Y-122409160D01*
X155261427Y-122415888D01*
X155247819Y-122431296D01*
X155235627Y-122443340D01*
X155213253Y-122462619D01*
X155208374Y-122470147D01*
X155208371Y-122470150D01*
X155199304Y-122484139D01*
X155188014Y-122499013D01*
X155171044Y-122518228D01*
X155158490Y-122544966D01*
X155150176Y-122559935D01*
X155134107Y-122584727D01*
X155131535Y-122593327D01*
X155126761Y-122609290D01*
X155120104Y-122626725D01*
X155119736Y-122627509D01*
X155072684Y-122680676D01*
X155005676Y-122699971D01*
X154706752Y-122699970D01*
X153494827Y-122699967D01*
X153426706Y-122679965D01*
X153380213Y-122626309D01*
X153373678Y-122608592D01*
X153370954Y-122599063D01*
X153370953Y-122599061D01*
X153368488Y-122590435D01*
X153352726Y-122565452D01*
X153344596Y-122550386D01*
X153332367Y-122523490D01*
X153315626Y-122504061D01*
X153304521Y-122489053D01*
X153295630Y-122474961D01*
X153290840Y-122467369D01*
X153268703Y-122447818D01*
X153256659Y-122435626D01*
X153243239Y-122420051D01*
X153243237Y-122420050D01*
X153237381Y-122413253D01*
X153229853Y-122408374D01*
X153229850Y-122408371D01*
X153215861Y-122399304D01*
X153200987Y-122388014D01*
X153196640Y-122384175D01*
X153181772Y-122371044D01*
X153173646Y-122367229D01*
X153173645Y-122367228D01*
X153167979Y-122364568D01*
X153155034Y-122358490D01*
X153140065Y-122350176D01*
X153115273Y-122334107D01*
X153090709Y-122326761D01*
X153073264Y-122320099D01*
X153068827Y-122318016D01*
X153050052Y-122309201D01*
X153020870Y-122304657D01*
X153004151Y-122300874D01*
X152984464Y-122294986D01*
X152984461Y-122294985D01*
X152975859Y-122292413D01*
X152966884Y-122292358D01*
X152966883Y-122292358D01*
X152960190Y-122292317D01*
X152941444Y-122292203D01*
X152940672Y-122292170D01*
X152939577Y-122292000D01*
X152908702Y-122292000D01*
X152907932Y-122291998D01*
X152834284Y-122291548D01*
X152834283Y-122291548D01*
X152830348Y-122291524D01*
X152829004Y-122291908D01*
X152827659Y-122292000D01*
X150608702Y-122292000D01*
X150607932Y-122291998D01*
X150607078Y-122291993D01*
X150530348Y-122291524D01*
X150521719Y-122293990D01*
X150521714Y-122293991D01*
X150501952Y-122299639D01*
X150485191Y-122303217D01*
X150464848Y-122306130D01*
X150464838Y-122306133D01*
X150455955Y-122307405D01*
X150432605Y-122318021D01*
X150415093Y-122324464D01*
X150407057Y-122326761D01*
X150390435Y-122331512D01*
X150365452Y-122347274D01*
X150350386Y-122355404D01*
X150323490Y-122367633D01*
X150304061Y-122384374D01*
X150289053Y-122395479D01*
X150267369Y-122409160D01*
X150261427Y-122415888D01*
X150247819Y-122431296D01*
X150235627Y-122443340D01*
X150213253Y-122462619D01*
X150208374Y-122470147D01*
X150208371Y-122470150D01*
X150199304Y-122484139D01*
X150188014Y-122499013D01*
X150171044Y-122518228D01*
X150158490Y-122544966D01*
X150150176Y-122559935D01*
X150134107Y-122584727D01*
X150131535Y-122593327D01*
X150126761Y-122609290D01*
X150120096Y-122626742D01*
X150119740Y-122627501D01*
X150119732Y-122627518D01*
X150072671Y-122680676D01*
X150005681Y-122699960D01*
X149920482Y-122699960D01*
X147923016Y-122699955D01*
X147854895Y-122679953D01*
X147808402Y-122626297D01*
X147799437Y-122549374D01*
X147843179Y-122329468D01*
X147843983Y-122325426D01*
X147844333Y-122320099D01*
X147863076Y-122034119D01*
X147863346Y-122030000D01*
X147843983Y-121734574D01*
X147786224Y-121444203D01*
X147762463Y-121374203D01*
X147692385Y-121167761D01*
X147692384Y-121167760D01*
X147691059Y-121163855D01*
X147560115Y-120898327D01*
X147520744Y-120839405D01*
X147397926Y-120655593D01*
X147397922Y-120655588D01*
X147395633Y-120652162D01*
X147392919Y-120649068D01*
X147392915Y-120649062D01*
X147203136Y-120432662D01*
X147200427Y-120429573D01*
X147117519Y-120356864D01*
X146980938Y-120237085D01*
X146980932Y-120237081D01*
X146977838Y-120234367D01*
X146974412Y-120232078D01*
X146974407Y-120232074D01*
X146735106Y-120072179D01*
X146731673Y-120069885D01*
X146727974Y-120068061D01*
X146727969Y-120068058D01*
X146586022Y-119998058D01*
X146466145Y-119938941D01*
X146462239Y-119937615D01*
X146189710Y-119845104D01*
X146189706Y-119845103D01*
X146185797Y-119843776D01*
X146181753Y-119842972D01*
X146181747Y-119842970D01*
X145899465Y-119786820D01*
X145899459Y-119786819D01*
X145895426Y-119786017D01*
X145891321Y-119785748D01*
X145891314Y-119785747D01*
X145604119Y-119766924D01*
X145600000Y-119766654D01*
X145595881Y-119766924D01*
X145308686Y-119785747D01*
X145308679Y-119785748D01*
X145304574Y-119786017D01*
X145300541Y-119786819D01*
X145300535Y-119786820D01*
X145018253Y-119842970D01*
X145018247Y-119842972D01*
X145014203Y-119843776D01*
X145010294Y-119845103D01*
X145010290Y-119845104D01*
X144737761Y-119937615D01*
X144733855Y-119938941D01*
X144613978Y-119998058D01*
X144472031Y-120068058D01*
X144472026Y-120068061D01*
X144468327Y-120069885D01*
X144464894Y-120072179D01*
X144225593Y-120232074D01*
X144225588Y-120232078D01*
X144222162Y-120234367D01*
X144219068Y-120237081D01*
X144219062Y-120237085D01*
X144082481Y-120356864D01*
X143999573Y-120429573D01*
X143996864Y-120432662D01*
X143807085Y-120649062D01*
X143807081Y-120649068D01*
X143804367Y-120652162D01*
X143802078Y-120655588D01*
X143802074Y-120655593D01*
X143679256Y-120839405D01*
X143639885Y-120898327D01*
X143508941Y-121163855D01*
X143507616Y-121167760D01*
X143507615Y-121167761D01*
X143437538Y-121374203D01*
X143413776Y-121444203D01*
X143356017Y-121734574D01*
X143336654Y-122030000D01*
X143336924Y-122034119D01*
X143350672Y-122243875D01*
X143335168Y-122313158D01*
X143284668Y-122363061D01*
X143215206Y-122377739D01*
X143171397Y-122366173D01*
X143155030Y-122358488D01*
X143140065Y-122350176D01*
X143115273Y-122334107D01*
X143090709Y-122326761D01*
X143073264Y-122320099D01*
X143068827Y-122318016D01*
X143050052Y-122309201D01*
X143020870Y-122304657D01*
X143004151Y-122300874D01*
X142984464Y-122294986D01*
X142984461Y-122294985D01*
X142975859Y-122292413D01*
X142966884Y-122292358D01*
X142966883Y-122292358D01*
X142960190Y-122292317D01*
X142941444Y-122292203D01*
X142940672Y-122292170D01*
X142939577Y-122292000D01*
X142908702Y-122292000D01*
X142907932Y-122291998D01*
X142834284Y-122291548D01*
X142834283Y-122291548D01*
X142830348Y-122291524D01*
X142829004Y-122291908D01*
X142827659Y-122292000D01*
X140608702Y-122292000D01*
X140607932Y-122291998D01*
X140607078Y-122291993D01*
X140530348Y-122291524D01*
X140521719Y-122293990D01*
X140521714Y-122293991D01*
X140501952Y-122299639D01*
X140485191Y-122303217D01*
X140464848Y-122306130D01*
X140464838Y-122306133D01*
X140455955Y-122307405D01*
X140432605Y-122318021D01*
X140415093Y-122324464D01*
X140407057Y-122326761D01*
X140390435Y-122331512D01*
X140365452Y-122347274D01*
X140350386Y-122355404D01*
X140323490Y-122367633D01*
X140304061Y-122384374D01*
X140289053Y-122395479D01*
X140267369Y-122409160D01*
X140261427Y-122415888D01*
X140247819Y-122431296D01*
X140235627Y-122443340D01*
X140213253Y-122462619D01*
X140208374Y-122470147D01*
X140208371Y-122470150D01*
X140199304Y-122484139D01*
X140188014Y-122499013D01*
X140171044Y-122518228D01*
X140158490Y-122544966D01*
X140150176Y-122559935D01*
X140134107Y-122584727D01*
X140131535Y-122593327D01*
X140126761Y-122609290D01*
X140120075Y-122626786D01*
X140119722Y-122627537D01*
X140072642Y-122680678D01*
X140005691Y-122699938D01*
X138823850Y-122699936D01*
X138494818Y-122699935D01*
X138426697Y-122679933D01*
X138380204Y-122626277D01*
X138373669Y-122608561D01*
X138370954Y-122599061D01*
X138370953Y-122599058D01*
X138368488Y-122590435D01*
X138352726Y-122565452D01*
X138344596Y-122550386D01*
X138332367Y-122523490D01*
X138315626Y-122504061D01*
X138304521Y-122489053D01*
X138295630Y-122474961D01*
X138290840Y-122467369D01*
X138268703Y-122447818D01*
X138256659Y-122435626D01*
X138243239Y-122420051D01*
X138243237Y-122420050D01*
X138237381Y-122413253D01*
X138229853Y-122408374D01*
X138229850Y-122408371D01*
X138215861Y-122399304D01*
X138200987Y-122388014D01*
X138196640Y-122384175D01*
X138181772Y-122371044D01*
X138173646Y-122367229D01*
X138173645Y-122367228D01*
X138167979Y-122364568D01*
X138155034Y-122358490D01*
X138140065Y-122350176D01*
X138115273Y-122334107D01*
X138090709Y-122326761D01*
X138073264Y-122320099D01*
X138068827Y-122318016D01*
X138050052Y-122309201D01*
X138020870Y-122304657D01*
X138004151Y-122300874D01*
X137984464Y-122294986D01*
X137984461Y-122294985D01*
X137975859Y-122292413D01*
X137966884Y-122292358D01*
X137966883Y-122292358D01*
X137960190Y-122292317D01*
X137941444Y-122292203D01*
X137940672Y-122292170D01*
X137939577Y-122292000D01*
X137908702Y-122292000D01*
X137907932Y-122291998D01*
X137834284Y-122291548D01*
X137834283Y-122291548D01*
X137830348Y-122291524D01*
X137829004Y-122291908D01*
X137827659Y-122292000D01*
X135608702Y-122292000D01*
X135607932Y-122291998D01*
X135607078Y-122291993D01*
X135530348Y-122291524D01*
X135521719Y-122293990D01*
X135521714Y-122293991D01*
X135501952Y-122299639D01*
X135485191Y-122303217D01*
X135464848Y-122306130D01*
X135464838Y-122306133D01*
X135455955Y-122307405D01*
X135432605Y-122318021D01*
X135415093Y-122324464D01*
X135407057Y-122326761D01*
X135390435Y-122331512D01*
X135365452Y-122347274D01*
X135350386Y-122355404D01*
X135323490Y-122367633D01*
X135304061Y-122384374D01*
X135289053Y-122395479D01*
X135267369Y-122409160D01*
X135261427Y-122415888D01*
X135247819Y-122431296D01*
X135235627Y-122443340D01*
X135213253Y-122462619D01*
X135208374Y-122470147D01*
X135208371Y-122470150D01*
X135199304Y-122484139D01*
X135188014Y-122499013D01*
X135171044Y-122518228D01*
X135158490Y-122544966D01*
X135150176Y-122559935D01*
X135134107Y-122584727D01*
X135131535Y-122593327D01*
X135126761Y-122609290D01*
X135120093Y-122626748D01*
X135119745Y-122627489D01*
X135072683Y-122680646D01*
X135005698Y-122699927D01*
X133394814Y-122699924D01*
X133326694Y-122679922D01*
X133280201Y-122626266D01*
X133273667Y-122608551D01*
X133270956Y-122599066D01*
X133270953Y-122599059D01*
X133268488Y-122590435D01*
X133252726Y-122565452D01*
X133244596Y-122550386D01*
X133232367Y-122523490D01*
X133215626Y-122504061D01*
X133204521Y-122489053D01*
X133195630Y-122474961D01*
X133190840Y-122467369D01*
X133168703Y-122447818D01*
X133156659Y-122435626D01*
X133143239Y-122420051D01*
X133143237Y-122420050D01*
X133137381Y-122413253D01*
X133129853Y-122408374D01*
X133129850Y-122408371D01*
X133115861Y-122399304D01*
X133100987Y-122388014D01*
X133096640Y-122384175D01*
X133081772Y-122371044D01*
X133073646Y-122367229D01*
X133073645Y-122367228D01*
X133067979Y-122364568D01*
X133055034Y-122358490D01*
X133040065Y-122350176D01*
X133015273Y-122334107D01*
X132990709Y-122326761D01*
X132973264Y-122320099D01*
X132968827Y-122318016D01*
X132950052Y-122309201D01*
X132920870Y-122304657D01*
X132904151Y-122300874D01*
X132884464Y-122294986D01*
X132884461Y-122294985D01*
X132875859Y-122292413D01*
X132866884Y-122292358D01*
X132866883Y-122292358D01*
X132860190Y-122292317D01*
X132841444Y-122292203D01*
X132840672Y-122292170D01*
X132839577Y-122292000D01*
X132808702Y-122292000D01*
X132807932Y-122291998D01*
X132734284Y-122291548D01*
X132734283Y-122291548D01*
X132730348Y-122291524D01*
X132729004Y-122291908D01*
X132727659Y-122292000D01*
X130508702Y-122292000D01*
X130507932Y-122291998D01*
X130507078Y-122291993D01*
X130430348Y-122291524D01*
X130421719Y-122293990D01*
X130421714Y-122293991D01*
X130401952Y-122299639D01*
X130385191Y-122303217D01*
X130364848Y-122306130D01*
X130364838Y-122306133D01*
X130355955Y-122307405D01*
X130332605Y-122318021D01*
X130315093Y-122324464D01*
X130307057Y-122326761D01*
X130290435Y-122331512D01*
X130265452Y-122347274D01*
X130250386Y-122355404D01*
X130223490Y-122367633D01*
X130204061Y-122384374D01*
X130189053Y-122395479D01*
X130167369Y-122409160D01*
X130161427Y-122415888D01*
X130147819Y-122431296D01*
X130135627Y-122443340D01*
X130113253Y-122462619D01*
X130108374Y-122470147D01*
X130108371Y-122470150D01*
X130099304Y-122484139D01*
X130088014Y-122499013D01*
X130071044Y-122518228D01*
X130058490Y-122544966D01*
X130050176Y-122559935D01*
X130034107Y-122584727D01*
X130031535Y-122593327D01*
X130026761Y-122609290D01*
X130020115Y-122626702D01*
X130019788Y-122627400D01*
X130019773Y-122627431D01*
X129972732Y-122680607D01*
X129905702Y-122699916D01*
X129548855Y-122699915D01*
X129480734Y-122679913D01*
X129434241Y-122626257D01*
X129424138Y-122555983D01*
X129426228Y-122545798D01*
X129426224Y-122545797D01*
X129483180Y-122259465D01*
X129483181Y-122259459D01*
X129483983Y-122255426D01*
X129484741Y-122243875D01*
X129503076Y-121964119D01*
X129503346Y-121960000D01*
X129501992Y-121939340D01*
X129484253Y-121668686D01*
X129484252Y-121668679D01*
X129483983Y-121664574D01*
X129426224Y-121374203D01*
X129353566Y-121160157D01*
X129332385Y-121097761D01*
X129332384Y-121097760D01*
X129331059Y-121093855D01*
X129200115Y-120828327D01*
X129084698Y-120655593D01*
X129037926Y-120585593D01*
X129037922Y-120585588D01*
X129035633Y-120582162D01*
X129032919Y-120579068D01*
X129032915Y-120579062D01*
X128843136Y-120362662D01*
X128840427Y-120359573D01*
X128700757Y-120237085D01*
X128620938Y-120167085D01*
X128620932Y-120167081D01*
X128617838Y-120164367D01*
X128614412Y-120162078D01*
X128614407Y-120162074D01*
X128375106Y-120002179D01*
X128371673Y-119999885D01*
X128367974Y-119998061D01*
X128367969Y-119998058D01*
X128231687Y-119930852D01*
X128106145Y-119868941D01*
X128102239Y-119867615D01*
X127829710Y-119775104D01*
X127829706Y-119775103D01*
X127825797Y-119773776D01*
X127821753Y-119772972D01*
X127821747Y-119772970D01*
X127539465Y-119716820D01*
X127539459Y-119716819D01*
X127535426Y-119716017D01*
X127531321Y-119715748D01*
X127531314Y-119715747D01*
X127244119Y-119696924D01*
X127240000Y-119696654D01*
X127235881Y-119696924D01*
X126948686Y-119715747D01*
X126948679Y-119715748D01*
X126944574Y-119716017D01*
X126940541Y-119716819D01*
X126940535Y-119716820D01*
X126658253Y-119772970D01*
X126658247Y-119772972D01*
X126654203Y-119773776D01*
X126650294Y-119775103D01*
X126650290Y-119775104D01*
X126377761Y-119867615D01*
X126373855Y-119868941D01*
X126248313Y-119930852D01*
X126112031Y-119998058D01*
X126112026Y-119998061D01*
X126108327Y-119999885D01*
X126104894Y-120002179D01*
X125865593Y-120162074D01*
X125865588Y-120162078D01*
X125862162Y-120164367D01*
X125859068Y-120167081D01*
X125859062Y-120167085D01*
X125779243Y-120237085D01*
X125639573Y-120359573D01*
X125636864Y-120362662D01*
X125447085Y-120579062D01*
X125447081Y-120579068D01*
X125444367Y-120582162D01*
X125442078Y-120585588D01*
X125442074Y-120585593D01*
X125395302Y-120655593D01*
X125279885Y-120828327D01*
X125148941Y-121093855D01*
X125147616Y-121097760D01*
X125147615Y-121097761D01*
X125126435Y-121160157D01*
X125053776Y-121374203D01*
X124996017Y-121664574D01*
X124995748Y-121668679D01*
X124995747Y-121668686D01*
X124978008Y-121939340D01*
X124976654Y-121960000D01*
X124976924Y-121964119D01*
X124995260Y-122243875D01*
X124996017Y-122255426D01*
X124996819Y-122259459D01*
X124996820Y-122259465D01*
X125053776Y-122545797D01*
X125052737Y-122546004D01*
X125051159Y-122612273D01*
X125011364Y-122671068D01*
X124946099Y-122699015D01*
X124931152Y-122699905D01*
X123294809Y-122699902D01*
X123226688Y-122679900D01*
X123180195Y-122626244D01*
X123173661Y-122608531D01*
X123170955Y-122599063D01*
X123170952Y-122599057D01*
X123168488Y-122590435D01*
X123152726Y-122565452D01*
X123144596Y-122550386D01*
X123132367Y-122523490D01*
X123115626Y-122504061D01*
X123104521Y-122489053D01*
X123095630Y-122474961D01*
X123090840Y-122467369D01*
X123068703Y-122447818D01*
X123056659Y-122435626D01*
X123043239Y-122420051D01*
X123043237Y-122420050D01*
X123037381Y-122413253D01*
X123029853Y-122408374D01*
X123029850Y-122408371D01*
X123015861Y-122399304D01*
X123000987Y-122388014D01*
X122996640Y-122384175D01*
X122981772Y-122371044D01*
X122973646Y-122367229D01*
X122973645Y-122367228D01*
X122967979Y-122364568D01*
X122955034Y-122358490D01*
X122940065Y-122350176D01*
X122915273Y-122334107D01*
X122890709Y-122326761D01*
X122873264Y-122320099D01*
X122868827Y-122318016D01*
X122850052Y-122309201D01*
X122820870Y-122304657D01*
X122804151Y-122300874D01*
X122784464Y-122294986D01*
X122784461Y-122294985D01*
X122775859Y-122292413D01*
X122766884Y-122292358D01*
X122766883Y-122292358D01*
X122760190Y-122292317D01*
X122741444Y-122292203D01*
X122740672Y-122292170D01*
X122739577Y-122292000D01*
X122708702Y-122292000D01*
X122707932Y-122291998D01*
X122634284Y-122291548D01*
X122634283Y-122291548D01*
X122630348Y-122291524D01*
X122629004Y-122291908D01*
X122627659Y-122292000D01*
X120408702Y-122292000D01*
X120407932Y-122291998D01*
X120407078Y-122291993D01*
X120330348Y-122291524D01*
X120321719Y-122293990D01*
X120321714Y-122293991D01*
X120301952Y-122299639D01*
X120285191Y-122303217D01*
X120264848Y-122306130D01*
X120264838Y-122306133D01*
X120255955Y-122307405D01*
X120232605Y-122318021D01*
X120215093Y-122324464D01*
X120207057Y-122326761D01*
X120190435Y-122331512D01*
X120165452Y-122347274D01*
X120150386Y-122355404D01*
X120123490Y-122367633D01*
X120104061Y-122384374D01*
X120089053Y-122395479D01*
X120067369Y-122409160D01*
X120061427Y-122415888D01*
X120047819Y-122431296D01*
X120035627Y-122443340D01*
X120013253Y-122462619D01*
X120008374Y-122470147D01*
X120008371Y-122470150D01*
X119999304Y-122484139D01*
X119988014Y-122499013D01*
X119971044Y-122518228D01*
X119958490Y-122544966D01*
X119950176Y-122559935D01*
X119934107Y-122584727D01*
X119931535Y-122593327D01*
X119926761Y-122609290D01*
X119920095Y-122626744D01*
X119919763Y-122627451D01*
X119872703Y-122680610D01*
X119805712Y-122699894D01*
X118348512Y-122699891D01*
X118294806Y-122699891D01*
X118226685Y-122679889D01*
X118180192Y-122626233D01*
X118173658Y-122608521D01*
X118170954Y-122599062D01*
X118170953Y-122599061D01*
X118168488Y-122590435D01*
X118152726Y-122565452D01*
X118144596Y-122550386D01*
X118132367Y-122523490D01*
X118115626Y-122504061D01*
X118104521Y-122489053D01*
X118095630Y-122474961D01*
X118090840Y-122467369D01*
X118068703Y-122447818D01*
X118056659Y-122435626D01*
X118043239Y-122420051D01*
X118043237Y-122420050D01*
X118037381Y-122413253D01*
X118029853Y-122408374D01*
X118029850Y-122408371D01*
X118015861Y-122399304D01*
X118000987Y-122388014D01*
X117996640Y-122384175D01*
X117981772Y-122371044D01*
X117973646Y-122367229D01*
X117973645Y-122367228D01*
X117967979Y-122364568D01*
X117955034Y-122358490D01*
X117940065Y-122350176D01*
X117915273Y-122334107D01*
X117890709Y-122326761D01*
X117873264Y-122320099D01*
X117868827Y-122318016D01*
X117850052Y-122309201D01*
X117820870Y-122304657D01*
X117804151Y-122300874D01*
X117784464Y-122294986D01*
X117784461Y-122294985D01*
X117775859Y-122292413D01*
X117766884Y-122292358D01*
X117766883Y-122292358D01*
X117760190Y-122292317D01*
X117741444Y-122292203D01*
X117740672Y-122292170D01*
X117739577Y-122292000D01*
X117708702Y-122292000D01*
X117707932Y-122291998D01*
X117634284Y-122291548D01*
X117634283Y-122291548D01*
X117630348Y-122291524D01*
X117629004Y-122291908D01*
X117627659Y-122292000D01*
X115408702Y-122292000D01*
X115407932Y-122291998D01*
X115407078Y-122291993D01*
X115330348Y-122291524D01*
X115321719Y-122293990D01*
X115321714Y-122293991D01*
X115301952Y-122299639D01*
X115285191Y-122303217D01*
X115264848Y-122306130D01*
X115264838Y-122306133D01*
X115255955Y-122307405D01*
X115232605Y-122318021D01*
X115215093Y-122324464D01*
X115207057Y-122326761D01*
X115190435Y-122331512D01*
X115165452Y-122347274D01*
X115150386Y-122355404D01*
X115123490Y-122367633D01*
X115104061Y-122384374D01*
X115089053Y-122395479D01*
X115067369Y-122409160D01*
X115061427Y-122415888D01*
X115047819Y-122431296D01*
X115035627Y-122443340D01*
X115013253Y-122462619D01*
X115008374Y-122470147D01*
X115008371Y-122470150D01*
X114999304Y-122484139D01*
X114988014Y-122499013D01*
X114971044Y-122518228D01*
X114958490Y-122544966D01*
X114950176Y-122559935D01*
X114934107Y-122584727D01*
X114931535Y-122593327D01*
X114926761Y-122609290D01*
X114920114Y-122626703D01*
X114919787Y-122627400D01*
X114872746Y-122680576D01*
X114805719Y-122699883D01*
X113594802Y-122699881D01*
X113526682Y-122679879D01*
X113480189Y-122626223D01*
X113473655Y-122608510D01*
X113470955Y-122599063D01*
X113470952Y-122599057D01*
X113468488Y-122590435D01*
X113452726Y-122565452D01*
X113444596Y-122550386D01*
X113432367Y-122523490D01*
X113415626Y-122504061D01*
X113404521Y-122489053D01*
X113395630Y-122474961D01*
X113390840Y-122467369D01*
X113368703Y-122447818D01*
X113356659Y-122435626D01*
X113343239Y-122420051D01*
X113343237Y-122420050D01*
X113337381Y-122413253D01*
X113329853Y-122408374D01*
X113329850Y-122408371D01*
X113315861Y-122399304D01*
X113300987Y-122388014D01*
X113296640Y-122384175D01*
X113281772Y-122371044D01*
X113273646Y-122367229D01*
X113273645Y-122367228D01*
X113267979Y-122364568D01*
X113255034Y-122358490D01*
X113240065Y-122350176D01*
X113215273Y-122334107D01*
X113190709Y-122326761D01*
X113173264Y-122320099D01*
X113168827Y-122318016D01*
X113150052Y-122309201D01*
X113120870Y-122304657D01*
X113104151Y-122300874D01*
X113084464Y-122294986D01*
X113084461Y-122294985D01*
X113075859Y-122292413D01*
X113066884Y-122292358D01*
X113066883Y-122292358D01*
X113060190Y-122292317D01*
X113041444Y-122292203D01*
X113040672Y-122292170D01*
X113039577Y-122292000D01*
X113008702Y-122292000D01*
X113007932Y-122291998D01*
X112934284Y-122291548D01*
X112934283Y-122291548D01*
X112930348Y-122291524D01*
X112929004Y-122291908D01*
X112927659Y-122292000D01*
X110708702Y-122292000D01*
X110707932Y-122291998D01*
X110707078Y-122291993D01*
X110630348Y-122291524D01*
X110621719Y-122293990D01*
X110621714Y-122293991D01*
X110601952Y-122299639D01*
X110585191Y-122303217D01*
X110564848Y-122306130D01*
X110564838Y-122306133D01*
X110555955Y-122307405D01*
X110532605Y-122318021D01*
X110515093Y-122324464D01*
X110507057Y-122326761D01*
X110490435Y-122331512D01*
X110465452Y-122347274D01*
X110450386Y-122355404D01*
X110423490Y-122367633D01*
X110404061Y-122384374D01*
X110389053Y-122395479D01*
X110367369Y-122409160D01*
X110361427Y-122415888D01*
X110347819Y-122431296D01*
X110335627Y-122443340D01*
X110313253Y-122462619D01*
X110308374Y-122470147D01*
X110308371Y-122470150D01*
X110299304Y-122484139D01*
X110288014Y-122499013D01*
X110271044Y-122518228D01*
X110258490Y-122544966D01*
X110250176Y-122559935D01*
X110234107Y-122584727D01*
X110231535Y-122593327D01*
X110226761Y-122609290D01*
X110220104Y-122626725D01*
X110219782Y-122627411D01*
X110172730Y-122680578D01*
X110105722Y-122699873D01*
X105096028Y-122699862D01*
X105027907Y-122679860D01*
X104981414Y-122626204D01*
X104970028Y-122573839D01*
X104970925Y-117607655D01*
X105439858Y-117607655D01*
X105475104Y-117866638D01*
X105476412Y-117871124D01*
X105476412Y-117871126D01*
X105496098Y-117938664D01*
X105548243Y-118117567D01*
X105657668Y-118354928D01*
X105660231Y-118358837D01*
X105798410Y-118569596D01*
X105798414Y-118569601D01*
X105800976Y-118573509D01*
X105975018Y-118768506D01*
X106175970Y-118935637D01*
X106179973Y-118938066D01*
X106395422Y-119068804D01*
X106395426Y-119068806D01*
X106399419Y-119071229D01*
X106640455Y-119172303D01*
X106893783Y-119236641D01*
X106898434Y-119237109D01*
X106898438Y-119237110D01*
X107091308Y-119256531D01*
X107110867Y-119258500D01*
X107266354Y-119258500D01*
X107268679Y-119258327D01*
X107268685Y-119258327D01*
X107456000Y-119244407D01*
X107456004Y-119244406D01*
X107460652Y-119244061D01*
X107465200Y-119243032D01*
X107465206Y-119243031D01*
X107651601Y-119200853D01*
X107715577Y-119186377D01*
X107751769Y-119172303D01*
X107954824Y-119093340D01*
X107954827Y-119093339D01*
X107959177Y-119091647D01*
X108186098Y-118961951D01*
X108391357Y-118800138D01*
X108570443Y-118609763D01*
X108719424Y-118395009D01*
X108721492Y-118390816D01*
X108802933Y-118225669D01*
X121811001Y-118225669D01*
X121811371Y-118232490D01*
X121816895Y-118283352D01*
X121820521Y-118298604D01*
X121865676Y-118419054D01*
X121874214Y-118434649D01*
X121950715Y-118536724D01*
X121963276Y-118549285D01*
X122065351Y-118625786D01*
X122080946Y-118634324D01*
X122201394Y-118679478D01*
X122216649Y-118683105D01*
X122267514Y-118688631D01*
X122274328Y-118689000D01*
X126987385Y-118689000D01*
X127002624Y-118684525D01*
X127003829Y-118683135D01*
X127005500Y-118675452D01*
X127005500Y-118670884D01*
X127513500Y-118670884D01*
X127517975Y-118686123D01*
X127519365Y-118687328D01*
X127527048Y-118688999D01*
X132244669Y-118688999D01*
X132251490Y-118688629D01*
X132302352Y-118683105D01*
X132317604Y-118679479D01*
X132438054Y-118634324D01*
X132453649Y-118625786D01*
X132555724Y-118549285D01*
X132568285Y-118536724D01*
X132644786Y-118434649D01*
X132653324Y-118419054D01*
X132698478Y-118298606D01*
X132699176Y-118295669D01*
X140171001Y-118295669D01*
X140171371Y-118302490D01*
X140176895Y-118353352D01*
X140180521Y-118368604D01*
X140225676Y-118489054D01*
X140234214Y-118504649D01*
X140310715Y-118606724D01*
X140323276Y-118619285D01*
X140425351Y-118695786D01*
X140440946Y-118704324D01*
X140561394Y-118749478D01*
X140576649Y-118753105D01*
X140627514Y-118758631D01*
X140634328Y-118759000D01*
X145347385Y-118759000D01*
X145362624Y-118754525D01*
X145363829Y-118753135D01*
X145365500Y-118745452D01*
X145365500Y-118740884D01*
X145873500Y-118740884D01*
X145877975Y-118756123D01*
X145879365Y-118757328D01*
X145887048Y-118758999D01*
X150604669Y-118758999D01*
X150611490Y-118758629D01*
X150662352Y-118753105D01*
X150677604Y-118749479D01*
X150798054Y-118704324D01*
X150813649Y-118695786D01*
X150915724Y-118619285D01*
X150928285Y-118606724D01*
X151004786Y-118504649D01*
X151013324Y-118489054D01*
X151058478Y-118368606D01*
X151062105Y-118353351D01*
X151067631Y-118302486D01*
X151068000Y-118295672D01*
X151068000Y-117607655D01*
X164439858Y-117607655D01*
X164475104Y-117866638D01*
X164476412Y-117871124D01*
X164476412Y-117871126D01*
X164496098Y-117938664D01*
X164548243Y-118117567D01*
X164657668Y-118354928D01*
X164660231Y-118358837D01*
X164798410Y-118569596D01*
X164798414Y-118569601D01*
X164800976Y-118573509D01*
X164975018Y-118768506D01*
X165175970Y-118935637D01*
X165179973Y-118938066D01*
X165395422Y-119068804D01*
X165395426Y-119068806D01*
X165399419Y-119071229D01*
X165640455Y-119172303D01*
X165893783Y-119236641D01*
X165898434Y-119237109D01*
X165898438Y-119237110D01*
X166091308Y-119256531D01*
X166110867Y-119258500D01*
X166266354Y-119258500D01*
X166268679Y-119258327D01*
X166268685Y-119258327D01*
X166456000Y-119244407D01*
X166456004Y-119244406D01*
X166460652Y-119244061D01*
X166465200Y-119243032D01*
X166465206Y-119243031D01*
X166651601Y-119200853D01*
X166715577Y-119186377D01*
X166751769Y-119172303D01*
X166954824Y-119093340D01*
X166954827Y-119093339D01*
X166959177Y-119091647D01*
X167186098Y-118961951D01*
X167391357Y-118800138D01*
X167570443Y-118609763D01*
X167719424Y-118395009D01*
X167721492Y-118390816D01*
X167832960Y-118164781D01*
X167832961Y-118164778D01*
X167835025Y-118160593D01*
X167914707Y-117911665D01*
X167956721Y-117653693D01*
X167960142Y-117392345D01*
X167924896Y-117133362D01*
X167910473Y-117083877D01*
X167853068Y-116886932D01*
X167851757Y-116882433D01*
X167742332Y-116645072D01*
X167709519Y-116595024D01*
X167601590Y-116430404D01*
X167601586Y-116430399D01*
X167599024Y-116426491D01*
X167424982Y-116231494D01*
X167224030Y-116064363D01*
X167176844Y-116035730D01*
X167004578Y-115931196D01*
X167004574Y-115931194D01*
X167000581Y-115928771D01*
X166759545Y-115827697D01*
X166506217Y-115763359D01*
X166501566Y-115762891D01*
X166501562Y-115762890D01*
X166292271Y-115741816D01*
X166289133Y-115741500D01*
X166133646Y-115741500D01*
X166131321Y-115741673D01*
X166131315Y-115741673D01*
X165944000Y-115755593D01*
X165943996Y-115755594D01*
X165939348Y-115755939D01*
X165934800Y-115756968D01*
X165934794Y-115756969D01*
X165748399Y-115799147D01*
X165684423Y-115813623D01*
X165680071Y-115815315D01*
X165680069Y-115815316D01*
X165445176Y-115906660D01*
X165445173Y-115906661D01*
X165440823Y-115908353D01*
X165213902Y-116038049D01*
X165008643Y-116199862D01*
X164829557Y-116390237D01*
X164680576Y-116604991D01*
X164564975Y-116839407D01*
X164485293Y-117088335D01*
X164443279Y-117346307D01*
X164439858Y-117607655D01*
X151068000Y-117607655D01*
X151068000Y-114082615D01*
X151063525Y-114067376D01*
X151062135Y-114066171D01*
X151054452Y-114064500D01*
X145891615Y-114064500D01*
X145876376Y-114068975D01*
X145875171Y-114070365D01*
X145873500Y-114078048D01*
X145873500Y-118740884D01*
X145365500Y-118740884D01*
X145365500Y-114082615D01*
X145361025Y-114067376D01*
X145359635Y-114066171D01*
X145351952Y-114064500D01*
X140189116Y-114064500D01*
X140173877Y-114068975D01*
X140172672Y-114070365D01*
X140171001Y-114078048D01*
X140171001Y-118295669D01*
X132699176Y-118295669D01*
X132702105Y-118283351D01*
X132707631Y-118232486D01*
X132708000Y-118225672D01*
X132708000Y-114012615D01*
X132703525Y-113997376D01*
X132702135Y-113996171D01*
X132694452Y-113994500D01*
X127531615Y-113994500D01*
X127516376Y-113998975D01*
X127515171Y-114000365D01*
X127513500Y-114008048D01*
X127513500Y-118670884D01*
X127005500Y-118670884D01*
X127005500Y-114012615D01*
X127001025Y-113997376D01*
X126999635Y-113996171D01*
X126991952Y-113994500D01*
X121829116Y-113994500D01*
X121813877Y-113998975D01*
X121812672Y-114000365D01*
X121811001Y-114008048D01*
X121811001Y-118225669D01*
X108802933Y-118225669D01*
X108832960Y-118164781D01*
X108832961Y-118164778D01*
X108835025Y-118160593D01*
X108914707Y-117911665D01*
X108956721Y-117653693D01*
X108960142Y-117392345D01*
X108924896Y-117133362D01*
X108910473Y-117083877D01*
X108853068Y-116886932D01*
X108851757Y-116882433D01*
X108742332Y-116645072D01*
X108709519Y-116595024D01*
X108601590Y-116430404D01*
X108601586Y-116430399D01*
X108599024Y-116426491D01*
X108424982Y-116231494D01*
X108224030Y-116064363D01*
X108176844Y-116035730D01*
X108004578Y-115931196D01*
X108004574Y-115931194D01*
X108000581Y-115928771D01*
X107759545Y-115827697D01*
X107506217Y-115763359D01*
X107501566Y-115762891D01*
X107501562Y-115762890D01*
X107292271Y-115741816D01*
X107289133Y-115741500D01*
X107133646Y-115741500D01*
X107131321Y-115741673D01*
X107131315Y-115741673D01*
X106944000Y-115755593D01*
X106943996Y-115755594D01*
X106939348Y-115755939D01*
X106934800Y-115756968D01*
X106934794Y-115756969D01*
X106748399Y-115799147D01*
X106684423Y-115813623D01*
X106680071Y-115815315D01*
X106680069Y-115815316D01*
X106445176Y-115906660D01*
X106445173Y-115906661D01*
X106440823Y-115908353D01*
X106213902Y-116038049D01*
X106008643Y-116199862D01*
X105829557Y-116390237D01*
X105680576Y-116604991D01*
X105564975Y-116839407D01*
X105485293Y-117088335D01*
X105443279Y-117346307D01*
X105439858Y-117607655D01*
X104970925Y-117607655D01*
X104971619Y-113767966D01*
X111128257Y-113767966D01*
X111158565Y-113902446D01*
X111161645Y-113912275D01*
X111241770Y-114109603D01*
X111246413Y-114118794D01*
X111357694Y-114300388D01*
X111363777Y-114308699D01*
X111503213Y-114469667D01*
X111510580Y-114476883D01*
X111674434Y-114612916D01*
X111682881Y-114618831D01*
X111866756Y-114726279D01*
X111876042Y-114730729D01*
X112075001Y-114806703D01*
X112084899Y-114809579D01*
X112188250Y-114830606D01*
X112202299Y-114829410D01*
X112206000Y-114819065D01*
X112206000Y-114818517D01*
X112714000Y-114818517D01*
X112718064Y-114832359D01*
X112731478Y-114834393D01*
X112738184Y-114833534D01*
X112748262Y-114831392D01*
X112952255Y-114770191D01*
X112961842Y-114766433D01*
X113153095Y-114672739D01*
X113161945Y-114667464D01*
X113335328Y-114543792D01*
X113343200Y-114537139D01*
X113448286Y-114432418D01*
X113510657Y-114398501D01*
X113581464Y-114403689D01*
X113638226Y-114446335D01*
X113655208Y-114477439D01*
X113696675Y-114588052D01*
X113705214Y-114603649D01*
X113781715Y-114705724D01*
X113794276Y-114718285D01*
X113896351Y-114794786D01*
X113911946Y-114803324D01*
X114032394Y-114848478D01*
X114047649Y-114852105D01*
X114098514Y-114857631D01*
X114105328Y-114858000D01*
X114727885Y-114858000D01*
X114743124Y-114853525D01*
X114744329Y-114852135D01*
X114746000Y-114844452D01*
X114746000Y-114839884D01*
X115254000Y-114839884D01*
X115258475Y-114855123D01*
X115259865Y-114856328D01*
X115267548Y-114857999D01*
X115894669Y-114857999D01*
X115901490Y-114857629D01*
X115952352Y-114852105D01*
X115967604Y-114848479D01*
X116088054Y-114803324D01*
X116103649Y-114794786D01*
X116205724Y-114718285D01*
X116218285Y-114705724D01*
X116294786Y-114603649D01*
X116303324Y-114588054D01*
X116348478Y-114467606D01*
X116352105Y-114452351D01*
X116357631Y-114401486D01*
X116358000Y-114394672D01*
X116358000Y-113772115D01*
X116353525Y-113756876D01*
X116352135Y-113755671D01*
X116344452Y-113754000D01*
X115272115Y-113754000D01*
X115256876Y-113758475D01*
X115255671Y-113759865D01*
X115254000Y-113767548D01*
X115254000Y-114839884D01*
X114746000Y-114839884D01*
X114746000Y-113772115D01*
X114741525Y-113756876D01*
X114740135Y-113755671D01*
X114732452Y-113754000D01*
X112732115Y-113754000D01*
X112716876Y-113758475D01*
X112715671Y-113759865D01*
X112714000Y-113767548D01*
X112714000Y-114818517D01*
X112206000Y-114818517D01*
X112206000Y-113772115D01*
X112201525Y-113756876D01*
X112200135Y-113755671D01*
X112192452Y-113754000D01*
X111143225Y-113754000D01*
X111129694Y-113757973D01*
X111128257Y-113767966D01*
X104971619Y-113767966D01*
X104971673Y-113468385D01*
X121811000Y-113468385D01*
X121815475Y-113483624D01*
X121816865Y-113484829D01*
X121824548Y-113486500D01*
X126987385Y-113486500D01*
X127002624Y-113482025D01*
X127003829Y-113480635D01*
X127005500Y-113472952D01*
X127005500Y-113468385D01*
X127513500Y-113468385D01*
X127517975Y-113483624D01*
X127519365Y-113484829D01*
X127527048Y-113486500D01*
X132689884Y-113486500D01*
X132705123Y-113482025D01*
X132706328Y-113480635D01*
X132707999Y-113472952D01*
X132707999Y-113441695D01*
X133592251Y-113441695D01*
X133592548Y-113446848D01*
X133592548Y-113446851D01*
X133594738Y-113484829D01*
X133605110Y-113664715D01*
X133606247Y-113669761D01*
X133606248Y-113669767D01*
X133625608Y-113755671D01*
X133654222Y-113882639D01*
X133666256Y-113912275D01*
X133729885Y-114068975D01*
X133738266Y-114089616D01*
X133854987Y-114280088D01*
X134001250Y-114448938D01*
X134173126Y-114591632D01*
X134366000Y-114704338D01*
X134574692Y-114784030D01*
X134579760Y-114785061D01*
X134579763Y-114785062D01*
X134656209Y-114800615D01*
X134793597Y-114828567D01*
X134798772Y-114828757D01*
X134798774Y-114828757D01*
X135011673Y-114836564D01*
X135011677Y-114836564D01*
X135016837Y-114836753D01*
X135021957Y-114836097D01*
X135021959Y-114836097D01*
X135233288Y-114809025D01*
X135233289Y-114809025D01*
X135238416Y-114808368D01*
X135253752Y-114803767D01*
X135447429Y-114745661D01*
X135447434Y-114745659D01*
X135452384Y-114744174D01*
X135652994Y-114645896D01*
X135834860Y-114516173D01*
X135943091Y-114408319D01*
X136005462Y-114374404D01*
X136076268Y-114379592D01*
X136133030Y-114422238D01*
X136150012Y-114453341D01*
X136159046Y-114477439D01*
X136194385Y-114571705D01*
X136281739Y-114688261D01*
X136398295Y-114775615D01*
X136534684Y-114826745D01*
X136596866Y-114833500D01*
X138393134Y-114833500D01*
X138455316Y-114826745D01*
X138591705Y-114775615D01*
X138708261Y-114688261D01*
X138795615Y-114571705D01*
X138846745Y-114435316D01*
X138853500Y-114373134D01*
X138853500Y-113538385D01*
X140171000Y-113538385D01*
X140175475Y-113553624D01*
X140176865Y-113554829D01*
X140184548Y-113556500D01*
X145347385Y-113556500D01*
X145362624Y-113552025D01*
X145363829Y-113550635D01*
X145365500Y-113542952D01*
X145365500Y-113538385D01*
X145873500Y-113538385D01*
X145877975Y-113553624D01*
X145879365Y-113554829D01*
X145887048Y-113556500D01*
X151049884Y-113556500D01*
X151065123Y-113552025D01*
X151066328Y-113550635D01*
X151067999Y-113542952D01*
X151067999Y-113466695D01*
X155567251Y-113466695D01*
X155567548Y-113471848D01*
X155567548Y-113471851D01*
X155578960Y-113669767D01*
X155580110Y-113689715D01*
X155581247Y-113694761D01*
X155581248Y-113694767D01*
X155595493Y-113757973D01*
X155629222Y-113907639D01*
X155713266Y-114114616D01*
X155829987Y-114305088D01*
X155976250Y-114473938D01*
X156148126Y-114616632D01*
X156341000Y-114729338D01*
X156345825Y-114731180D01*
X156345826Y-114731181D01*
X156418612Y-114758975D01*
X156549692Y-114809030D01*
X156554760Y-114810061D01*
X156554763Y-114810062D01*
X156649862Y-114829410D01*
X156768597Y-114853567D01*
X156773772Y-114853757D01*
X156773774Y-114853757D01*
X156986673Y-114861564D01*
X156986677Y-114861564D01*
X156991837Y-114861753D01*
X156996957Y-114861097D01*
X156996959Y-114861097D01*
X157208288Y-114834025D01*
X157208289Y-114834025D01*
X157213416Y-114833368D01*
X157218366Y-114831883D01*
X157422429Y-114770661D01*
X157422434Y-114770659D01*
X157427384Y-114769174D01*
X157627994Y-114670896D01*
X157809860Y-114541173D01*
X157918091Y-114433319D01*
X157980462Y-114399404D01*
X158051268Y-114404592D01*
X158108030Y-114447238D01*
X158125012Y-114478341D01*
X158169385Y-114596705D01*
X158256739Y-114713261D01*
X158373295Y-114800615D01*
X158509684Y-114851745D01*
X158571866Y-114858500D01*
X160368134Y-114858500D01*
X160430316Y-114851745D01*
X160566705Y-114800615D01*
X160683261Y-114713261D01*
X160770615Y-114596705D01*
X160821745Y-114460316D01*
X160828500Y-114398134D01*
X160828500Y-112601866D01*
X160821745Y-112539684D01*
X160770615Y-112403295D01*
X160683261Y-112286739D01*
X160566705Y-112199385D01*
X160430316Y-112148255D01*
X160368134Y-112141500D01*
X158571866Y-112141500D01*
X158509684Y-112148255D01*
X158373295Y-112199385D01*
X158256739Y-112286739D01*
X158169385Y-112403295D01*
X158166233Y-112411703D01*
X158124919Y-112521907D01*
X158082277Y-112578671D01*
X158015716Y-112603371D01*
X157946367Y-112588163D01*
X157913743Y-112562476D01*
X157863151Y-112506875D01*
X157863142Y-112506866D01*
X157859670Y-112503051D01*
X157855619Y-112499852D01*
X157855615Y-112499848D01*
X157688414Y-112367800D01*
X157688410Y-112367798D01*
X157684359Y-112364598D01*
X157648028Y-112344542D01*
X157556970Y-112294276D01*
X157488789Y-112256638D01*
X157483920Y-112254914D01*
X157483916Y-112254912D01*
X157283087Y-112183795D01*
X157283083Y-112183794D01*
X157278212Y-112182069D01*
X157273119Y-112181162D01*
X157273116Y-112181161D01*
X157063373Y-112143800D01*
X157063367Y-112143799D01*
X157058284Y-112142894D01*
X156984452Y-112141992D01*
X156840081Y-112140228D01*
X156840079Y-112140228D01*
X156834911Y-112140165D01*
X156614091Y-112173955D01*
X156401756Y-112243357D01*
X156203607Y-112346507D01*
X156199474Y-112349610D01*
X156199471Y-112349612D01*
X156029100Y-112477530D01*
X156024965Y-112480635D01*
X155999541Y-112507240D01*
X155894520Y-112617138D01*
X155870629Y-112642138D01*
X155867715Y-112646410D01*
X155867714Y-112646411D01*
X155852798Y-112668277D01*
X155744743Y-112826680D01*
X155742564Y-112831375D01*
X155662293Y-113004305D01*
X155650688Y-113029305D01*
X155590989Y-113244570D01*
X155567251Y-113466695D01*
X151067999Y-113466695D01*
X151067999Y-109325331D01*
X151067629Y-109318510D01*
X151062105Y-109267648D01*
X151058479Y-109252396D01*
X151013324Y-109131946D01*
X151004786Y-109116351D01*
X150928285Y-109014276D01*
X150915724Y-109001715D01*
X150813649Y-108925214D01*
X150798054Y-108916676D01*
X150677606Y-108871522D01*
X150662351Y-108867895D01*
X150611486Y-108862369D01*
X150604672Y-108862000D01*
X145891615Y-108862000D01*
X145876376Y-108866475D01*
X145875171Y-108867865D01*
X145873500Y-108875548D01*
X145873500Y-113538385D01*
X145365500Y-113538385D01*
X145365500Y-108880116D01*
X145361025Y-108864877D01*
X145359635Y-108863672D01*
X145351952Y-108862001D01*
X140634331Y-108862001D01*
X140627510Y-108862371D01*
X140576648Y-108867895D01*
X140561396Y-108871521D01*
X140440946Y-108916676D01*
X140425351Y-108925214D01*
X140323276Y-109001715D01*
X140310715Y-109014276D01*
X140234214Y-109116351D01*
X140225676Y-109131946D01*
X140180522Y-109252394D01*
X140176895Y-109267649D01*
X140171369Y-109318514D01*
X140171000Y-109325328D01*
X140171000Y-113538385D01*
X138853500Y-113538385D01*
X138853500Y-112576866D01*
X138846745Y-112514684D01*
X138795615Y-112378295D01*
X138708261Y-112261739D01*
X138591705Y-112174385D01*
X138455316Y-112123255D01*
X138393134Y-112116500D01*
X136596866Y-112116500D01*
X136534684Y-112123255D01*
X136398295Y-112174385D01*
X136281739Y-112261739D01*
X136194385Y-112378295D01*
X136191233Y-112386703D01*
X136149919Y-112496907D01*
X136107277Y-112553671D01*
X136040716Y-112578371D01*
X135971367Y-112563163D01*
X135938743Y-112537476D01*
X135888151Y-112481875D01*
X135888142Y-112481866D01*
X135884670Y-112478051D01*
X135880619Y-112474852D01*
X135880615Y-112474848D01*
X135713414Y-112342800D01*
X135713410Y-112342798D01*
X135709359Y-112339598D01*
X135513789Y-112231638D01*
X135508920Y-112229914D01*
X135508916Y-112229912D01*
X135308087Y-112158795D01*
X135308083Y-112158794D01*
X135303212Y-112157069D01*
X135298119Y-112156162D01*
X135298116Y-112156161D01*
X135088373Y-112118800D01*
X135088367Y-112118799D01*
X135083284Y-112117894D01*
X135009452Y-112116992D01*
X134865081Y-112115228D01*
X134865079Y-112115228D01*
X134859911Y-112115165D01*
X134639091Y-112148955D01*
X134426756Y-112218357D01*
X134228607Y-112321507D01*
X134224474Y-112324610D01*
X134224471Y-112324612D01*
X134119675Y-112403295D01*
X134049965Y-112455635D01*
X134022502Y-112484373D01*
X133913470Y-112598469D01*
X133895629Y-112617138D01*
X133769743Y-112801680D01*
X133675688Y-113004305D01*
X133615989Y-113219570D01*
X133592251Y-113441695D01*
X132707999Y-113441695D01*
X132707999Y-109255331D01*
X132707629Y-109248510D01*
X132702105Y-109197648D01*
X132698479Y-109182396D01*
X132653324Y-109061946D01*
X132644786Y-109046351D01*
X132568285Y-108944276D01*
X132555724Y-108931715D01*
X132453649Y-108855214D01*
X132438054Y-108846676D01*
X132317606Y-108801522D01*
X132302351Y-108797895D01*
X132251486Y-108792369D01*
X132244672Y-108792000D01*
X127531615Y-108792000D01*
X127516376Y-108796475D01*
X127515171Y-108797865D01*
X127513500Y-108805548D01*
X127513500Y-113468385D01*
X127005500Y-113468385D01*
X127005500Y-108810116D01*
X127001025Y-108794877D01*
X126999635Y-108793672D01*
X126991952Y-108792001D01*
X122274331Y-108792001D01*
X122267510Y-108792371D01*
X122216648Y-108797895D01*
X122201396Y-108801521D01*
X122080946Y-108846676D01*
X122065351Y-108855214D01*
X121963276Y-108931715D01*
X121950715Y-108944276D01*
X121874214Y-109046351D01*
X121865676Y-109061946D01*
X121820522Y-109182394D01*
X121816895Y-109197649D01*
X121811369Y-109248514D01*
X121811000Y-109255328D01*
X121811000Y-113468385D01*
X104971673Y-113468385D01*
X104971716Y-113234183D01*
X111124389Y-113234183D01*
X111125912Y-113242607D01*
X111138292Y-113246000D01*
X112187885Y-113246000D01*
X112203124Y-113241525D01*
X112204329Y-113240135D01*
X112206000Y-113232452D01*
X112206000Y-113227885D01*
X112714000Y-113227885D01*
X112718475Y-113243124D01*
X112719865Y-113244329D01*
X112727548Y-113246000D01*
X114727885Y-113246000D01*
X114743124Y-113241525D01*
X114744329Y-113240135D01*
X114746000Y-113232452D01*
X114746000Y-113227885D01*
X115254000Y-113227885D01*
X115258475Y-113243124D01*
X115259865Y-113244329D01*
X115267548Y-113246000D01*
X116339884Y-113246000D01*
X116355123Y-113241525D01*
X116356328Y-113240135D01*
X116357999Y-113232452D01*
X116357999Y-112605331D01*
X116357629Y-112598510D01*
X116352105Y-112547648D01*
X116348479Y-112532396D01*
X116303324Y-112411946D01*
X116294786Y-112396351D01*
X116218285Y-112294276D01*
X116205724Y-112281715D01*
X116103649Y-112205214D01*
X116088054Y-112196676D01*
X115967606Y-112151522D01*
X115952351Y-112147895D01*
X115901486Y-112142369D01*
X115894672Y-112142000D01*
X115272115Y-112142000D01*
X115256876Y-112146475D01*
X115255671Y-112147865D01*
X115254000Y-112155548D01*
X115254000Y-113227885D01*
X114746000Y-113227885D01*
X114746000Y-112160116D01*
X114741525Y-112144877D01*
X114740135Y-112143672D01*
X114732452Y-112142001D01*
X114105331Y-112142001D01*
X114098510Y-112142371D01*
X114047648Y-112147895D01*
X114032396Y-112151521D01*
X113911946Y-112196676D01*
X113896351Y-112205214D01*
X113794276Y-112281715D01*
X113781715Y-112294276D01*
X113705214Y-112396351D01*
X113696676Y-112411946D01*
X113655100Y-112522849D01*
X113612458Y-112579613D01*
X113545897Y-112604313D01*
X113476548Y-112589105D01*
X113443925Y-112563419D01*
X113392806Y-112507240D01*
X113385273Y-112500215D01*
X113218139Y-112368222D01*
X113209552Y-112362517D01*
X113023117Y-112259599D01*
X113013705Y-112255369D01*
X112812959Y-112184280D01*
X112802988Y-112181646D01*
X112731837Y-112168972D01*
X112718540Y-112170432D01*
X112714000Y-112184989D01*
X112714000Y-113227885D01*
X112206000Y-113227885D01*
X112206000Y-112183102D01*
X112202082Y-112169758D01*
X112187806Y-112167771D01*
X112149324Y-112173660D01*
X112139288Y-112176051D01*
X111936868Y-112242212D01*
X111927359Y-112246209D01*
X111738463Y-112344542D01*
X111729738Y-112350036D01*
X111559433Y-112477905D01*
X111551726Y-112484748D01*
X111404590Y-112638717D01*
X111398104Y-112646727D01*
X111278098Y-112822649D01*
X111273000Y-112831623D01*
X111183338Y-113024783D01*
X111179775Y-113034470D01*
X111124389Y-113234183D01*
X104971716Y-113234183D01*
X104972626Y-108198134D01*
X107541500Y-108198134D01*
X107548255Y-108260316D01*
X107599385Y-108396705D01*
X107686739Y-108513261D01*
X107803295Y-108600615D01*
X107939684Y-108651745D01*
X108001866Y-108658500D01*
X109798134Y-108658500D01*
X109860316Y-108651745D01*
X109996705Y-108600615D01*
X110113261Y-108513261D01*
X110200615Y-108396705D01*
X110251745Y-108260316D01*
X110258500Y-108198134D01*
X110258500Y-106401866D01*
X110251745Y-106339684D01*
X110200615Y-106203295D01*
X110113261Y-106086739D01*
X109996705Y-105999385D01*
X109860316Y-105948255D01*
X109804440Y-105942185D01*
X109801531Y-105941869D01*
X109798134Y-105941500D01*
X108001866Y-105941500D01*
X107998469Y-105941869D01*
X107995560Y-105942185D01*
X107939684Y-105948255D01*
X107803295Y-105999385D01*
X107686739Y-106086739D01*
X107599385Y-106203295D01*
X107548255Y-106339684D01*
X107541500Y-106401866D01*
X107541500Y-108198134D01*
X104972626Y-108198134D01*
X104973516Y-103271829D01*
X104974053Y-100300000D01*
X109486496Y-100300000D01*
X109487186Y-100306565D01*
X109505129Y-100477279D01*
X109506458Y-100489928D01*
X109565473Y-100671556D01*
X109660960Y-100836944D01*
X109665378Y-100841851D01*
X109665379Y-100841852D01*
X109779678Y-100968794D01*
X109788747Y-100978866D01*
X109943248Y-101091118D01*
X109949276Y-101093802D01*
X109949278Y-101093803D01*
X110111681Y-101166109D01*
X110117712Y-101168794D01*
X110211113Y-101188647D01*
X110298056Y-101207128D01*
X110298061Y-101207128D01*
X110304513Y-101208500D01*
X110495487Y-101208500D01*
X110501939Y-101207128D01*
X110501944Y-101207128D01*
X110647229Y-101176246D01*
X110672643Y-101170844D01*
X110743434Y-101176246D01*
X110800066Y-101219063D01*
X110824560Y-101285700D01*
X110824840Y-101294091D01*
X110824840Y-101302747D01*
X110804838Y-101370868D01*
X110752293Y-101416847D01*
X110750835Y-101417530D01*
X110743893Y-101419846D01*
X110737669Y-101423698D01*
X110737666Y-101423699D01*
X110658470Y-101472707D01*
X110595969Y-101511384D01*
X110590796Y-101516566D01*
X110478242Y-101629316D01*
X110478238Y-101629321D01*
X110473071Y-101634497D01*
X110469231Y-101640727D01*
X110469230Y-101640728D01*
X110386364Y-101775162D01*
X110381791Y-101782580D01*
X110327026Y-101947691D01*
X110316500Y-102050428D01*
X110316500Y-102749572D01*
X110327293Y-102853593D01*
X110382346Y-103018607D01*
X110386202Y-103024838D01*
X110462456Y-103148063D01*
X110473884Y-103166531D01*
X110480788Y-103173423D01*
X110481589Y-103174887D01*
X110483611Y-103177438D01*
X110483174Y-103177784D01*
X110514866Y-103235704D01*
X110509863Y-103306524D01*
X110480944Y-103351610D01*
X110473071Y-103359497D01*
X110469231Y-103365727D01*
X110469230Y-103365728D01*
X110432045Y-103426054D01*
X110381791Y-103507580D01*
X110327026Y-103672691D01*
X110326326Y-103679527D01*
X110326325Y-103679530D01*
X110324269Y-103699600D01*
X110316500Y-103775428D01*
X110316500Y-104474572D01*
X110316837Y-104477818D01*
X110316837Y-104477822D01*
X110325703Y-104563266D01*
X110327293Y-104578593D01*
X110329474Y-104585129D01*
X110329474Y-104585131D01*
X110342909Y-104625399D01*
X110382346Y-104743607D01*
X110473884Y-104891531D01*
X110479062Y-104896700D01*
X110479066Y-104896705D01*
X110502310Y-104919908D01*
X110536388Y-104982191D01*
X110538876Y-104998863D01*
X110541085Y-105026016D01*
X110541500Y-105036233D01*
X110541500Y-105044293D01*
X110541925Y-105047937D01*
X110544789Y-105072507D01*
X110545222Y-105076882D01*
X110550483Y-105141555D01*
X110551140Y-105149637D01*
X110553396Y-105156601D01*
X110554587Y-105162560D01*
X110555971Y-105168415D01*
X110556818Y-105175681D01*
X110581735Y-105244327D01*
X110583152Y-105248455D01*
X110602780Y-105309042D01*
X110605649Y-105317899D01*
X110609445Y-105324154D01*
X110611951Y-105329628D01*
X110614670Y-105335058D01*
X110617167Y-105341937D01*
X110621180Y-105348057D01*
X110621180Y-105348058D01*
X110657186Y-105402976D01*
X110659523Y-105406680D01*
X110697405Y-105469107D01*
X110701121Y-105473315D01*
X110701122Y-105473316D01*
X110704803Y-105477484D01*
X110704776Y-105477508D01*
X110707429Y-105480500D01*
X110710132Y-105483733D01*
X110714144Y-105489852D01*
X110755689Y-105529208D01*
X110770383Y-105543128D01*
X110772825Y-105545506D01*
X111016230Y-105788911D01*
X111028616Y-105803323D01*
X111037149Y-105814918D01*
X111037154Y-105814923D01*
X111041492Y-105820818D01*
X111047070Y-105825557D01*
X111047073Y-105825560D01*
X111081768Y-105855035D01*
X111089284Y-105861965D01*
X111094979Y-105867660D01*
X111097861Y-105869940D01*
X111117251Y-105885281D01*
X111120655Y-105888072D01*
X111156728Y-105918718D01*
X111176285Y-105935333D01*
X111182801Y-105938661D01*
X111187850Y-105942028D01*
X111192979Y-105945195D01*
X111198716Y-105949734D01*
X111264875Y-105980655D01*
X111268769Y-105982558D01*
X111333808Y-106015769D01*
X111340916Y-106017508D01*
X111346559Y-106019607D01*
X111352322Y-106021524D01*
X111358950Y-106024622D01*
X111366112Y-106026112D01*
X111366113Y-106026112D01*
X111430412Y-106039486D01*
X111434696Y-106040456D01*
X111505610Y-106057808D01*
X111511212Y-106058156D01*
X111511215Y-106058156D01*
X111516764Y-106058500D01*
X111516762Y-106058536D01*
X111520755Y-106058775D01*
X111524947Y-106059149D01*
X111532115Y-106060640D01*
X111609520Y-106058546D01*
X111612928Y-106058500D01*
X113633629Y-106058500D01*
X113701750Y-106078502D01*
X113722724Y-106095405D01*
X115116230Y-107488911D01*
X115128616Y-107503323D01*
X115137149Y-107514918D01*
X115137154Y-107514923D01*
X115141492Y-107520818D01*
X115147070Y-107525557D01*
X115147073Y-107525560D01*
X115181768Y-107555035D01*
X115189284Y-107561965D01*
X115194979Y-107567660D01*
X115197861Y-107569940D01*
X115217251Y-107585281D01*
X115220655Y-107588072D01*
X115270703Y-107630591D01*
X115276285Y-107635333D01*
X115282801Y-107638661D01*
X115287850Y-107642028D01*
X115292979Y-107645195D01*
X115298716Y-107649734D01*
X115364875Y-107680655D01*
X115368769Y-107682558D01*
X115433808Y-107715769D01*
X115440916Y-107717508D01*
X115446559Y-107719607D01*
X115452322Y-107721524D01*
X115458950Y-107724622D01*
X115466112Y-107726112D01*
X115466113Y-107726112D01*
X115530412Y-107739486D01*
X115534696Y-107740456D01*
X115605610Y-107757808D01*
X115611212Y-107758156D01*
X115611215Y-107758156D01*
X115616764Y-107758500D01*
X115616762Y-107758536D01*
X115620755Y-107758775D01*
X115624947Y-107759149D01*
X115632115Y-107760640D01*
X115709520Y-107758546D01*
X115712928Y-107758500D01*
X126332930Y-107758500D01*
X126351880Y-107759933D01*
X126366115Y-107762099D01*
X126366119Y-107762099D01*
X126373349Y-107763199D01*
X126380641Y-107762606D01*
X126380644Y-107762606D01*
X126426018Y-107758915D01*
X126436233Y-107758500D01*
X126444293Y-107758500D01*
X126461680Y-107756473D01*
X126472507Y-107755211D01*
X126476882Y-107754778D01*
X126542339Y-107749454D01*
X126542342Y-107749453D01*
X126549637Y-107748860D01*
X126556601Y-107746604D01*
X126562560Y-107745413D01*
X126568415Y-107744029D01*
X126575681Y-107743182D01*
X126644327Y-107718265D01*
X126648455Y-107716848D01*
X126710936Y-107696607D01*
X126710938Y-107696606D01*
X126717899Y-107694351D01*
X126724154Y-107690555D01*
X126729628Y-107688049D01*
X126735058Y-107685330D01*
X126741937Y-107682833D01*
X126748058Y-107678820D01*
X126802976Y-107642814D01*
X126806680Y-107640477D01*
X126869107Y-107602595D01*
X126877484Y-107595197D01*
X126877508Y-107595224D01*
X126880500Y-107592571D01*
X126883733Y-107589868D01*
X126889852Y-107585856D01*
X126943128Y-107529617D01*
X126945506Y-107527175D01*
X127424547Y-107048134D01*
X157923823Y-107048134D01*
X157930578Y-107110316D01*
X157981708Y-107246705D01*
X158069062Y-107363261D01*
X158185618Y-107450615D01*
X158322007Y-107501745D01*
X158384189Y-107508500D01*
X160480457Y-107508500D01*
X160542639Y-107501745D01*
X160679028Y-107450615D01*
X160795584Y-107363261D01*
X160882938Y-107246705D01*
X160888199Y-107232670D01*
X163564483Y-107232670D01*
X163570210Y-107240320D01*
X163741365Y-107345205D01*
X163750160Y-107349687D01*
X163960311Y-107436734D01*
X163969696Y-107439783D01*
X164190877Y-107492885D01*
X164200624Y-107494428D01*
X164427393Y-107512275D01*
X164437253Y-107512275D01*
X164664022Y-107494428D01*
X164673769Y-107492885D01*
X164894950Y-107439783D01*
X164904335Y-107436734D01*
X165114486Y-107349687D01*
X165123281Y-107345205D01*
X165290768Y-107242568D01*
X165300230Y-107232110D01*
X165296447Y-107223334D01*
X164445135Y-106372022D01*
X164431191Y-106364408D01*
X164429358Y-106364539D01*
X164422743Y-106368790D01*
X163571243Y-107220290D01*
X163564483Y-107232670D01*
X160888199Y-107232670D01*
X160934068Y-107110316D01*
X160940823Y-107048134D01*
X160940823Y-106004930D01*
X162920048Y-106004930D01*
X162937895Y-106231699D01*
X162939438Y-106241446D01*
X162992540Y-106462627D01*
X162995589Y-106472012D01*
X163082636Y-106682163D01*
X163087118Y-106690958D01*
X163189755Y-106858445D01*
X163200213Y-106867907D01*
X163208989Y-106864124D01*
X164060301Y-106012812D01*
X164066679Y-106001132D01*
X164796731Y-106001132D01*
X164796862Y-106002965D01*
X164801113Y-106009580D01*
X165652613Y-106861080D01*
X165664993Y-106867840D01*
X165672643Y-106862113D01*
X165777528Y-106690958D01*
X165782010Y-106682163D01*
X165869057Y-106472012D01*
X165872106Y-106462627D01*
X165925208Y-106241446D01*
X165926751Y-106231699D01*
X165944598Y-106004930D01*
X165944598Y-105995070D01*
X165926751Y-105768301D01*
X165925208Y-105758554D01*
X165872106Y-105537373D01*
X165869057Y-105527988D01*
X165782010Y-105317837D01*
X165777528Y-105309042D01*
X165674891Y-105141555D01*
X165664433Y-105132093D01*
X165655657Y-105135876D01*
X164804345Y-105987188D01*
X164796731Y-106001132D01*
X164066679Y-106001132D01*
X164067915Y-105998868D01*
X164067784Y-105997035D01*
X164063533Y-105990420D01*
X163212033Y-105138920D01*
X163199653Y-105132160D01*
X163192003Y-105137887D01*
X163087118Y-105309042D01*
X163082636Y-105317837D01*
X162995589Y-105527988D01*
X162992540Y-105537373D01*
X162939438Y-105758554D01*
X162937895Y-105768301D01*
X162920048Y-105995070D01*
X162920048Y-106004930D01*
X160940823Y-106004930D01*
X160940823Y-104951866D01*
X160934068Y-104889684D01*
X160888409Y-104767890D01*
X163564416Y-104767890D01*
X163568199Y-104776666D01*
X164419511Y-105627978D01*
X164433455Y-105635592D01*
X164435288Y-105635461D01*
X164441903Y-105631210D01*
X165293403Y-104779710D01*
X165300163Y-104767330D01*
X165294436Y-104759680D01*
X165123281Y-104654795D01*
X165114486Y-104650313D01*
X164904335Y-104563266D01*
X164894950Y-104560217D01*
X164673769Y-104507115D01*
X164664022Y-104505572D01*
X164437253Y-104487725D01*
X164427393Y-104487725D01*
X164200624Y-104505572D01*
X164190877Y-104507115D01*
X163969696Y-104560217D01*
X163960311Y-104563266D01*
X163750160Y-104650313D01*
X163741365Y-104654795D01*
X163573878Y-104757432D01*
X163564416Y-104767890D01*
X160888409Y-104767890D01*
X160882938Y-104753295D01*
X160795584Y-104636739D01*
X160679028Y-104549385D01*
X160542639Y-104498255D01*
X160480457Y-104491500D01*
X158384189Y-104491500D01*
X158322007Y-104498255D01*
X158185618Y-104549385D01*
X158069062Y-104636739D01*
X157981708Y-104753295D01*
X157930578Y-104889684D01*
X157923823Y-104951866D01*
X157923823Y-107048134D01*
X127424547Y-107048134D01*
X127728911Y-106743770D01*
X127743325Y-106731382D01*
X127754533Y-106723134D01*
X127790065Y-106704853D01*
X127808101Y-106698958D01*
X127812687Y-106696571D01*
X127812691Y-106696569D01*
X128016607Y-106590416D01*
X128021200Y-106588025D01*
X128085101Y-106540047D01*
X128209185Y-106446882D01*
X128209188Y-106446880D01*
X128213320Y-106443777D01*
X128308836Y-106343825D01*
X128375730Y-106273825D01*
X128375731Y-106273824D01*
X128379301Y-106270088D01*
X128404535Y-106233097D01*
X128459444Y-106188096D01*
X128529968Y-106179925D01*
X128593716Y-106211179D01*
X128614411Y-106235660D01*
X128618498Y-106241977D01*
X128780186Y-106419670D01*
X128834579Y-106462627D01*
X128964670Y-106565367D01*
X128964675Y-106565370D01*
X128968724Y-106568568D01*
X128973240Y-106571061D01*
X128973243Y-106571063D01*
X129174526Y-106682177D01*
X129174530Y-106682179D01*
X129179050Y-106684674D01*
X129183919Y-106686398D01*
X129183923Y-106686400D01*
X129400640Y-106763144D01*
X129400644Y-106763145D01*
X129405515Y-106764870D01*
X129410608Y-106765777D01*
X129410611Y-106765778D01*
X129636948Y-106806095D01*
X129636954Y-106806096D01*
X129642037Y-106807001D01*
X129729400Y-106808068D01*
X129877093Y-106809873D01*
X129877095Y-106809873D01*
X129882263Y-106809936D01*
X130119744Y-106773596D01*
X130248899Y-106731382D01*
X130343183Y-106700566D01*
X130343189Y-106700563D01*
X130348101Y-106698958D01*
X130352687Y-106696571D01*
X130352691Y-106696569D01*
X130556607Y-106590416D01*
X130561200Y-106588025D01*
X130625101Y-106540047D01*
X130749185Y-106446882D01*
X130749188Y-106446880D01*
X130753320Y-106443777D01*
X130859864Y-106332285D01*
X130915728Y-106273827D01*
X130915730Y-106273825D01*
X130919301Y-106270088D01*
X131049993Y-106078502D01*
X131051774Y-106075891D01*
X131051775Y-106075890D01*
X131054686Y-106071622D01*
X131060650Y-106058775D01*
X131153658Y-105858405D01*
X131153659Y-105858401D01*
X131155837Y-105853710D01*
X131220040Y-105622202D01*
X131220589Y-105617065D01*
X131240644Y-105429407D01*
X131240644Y-105429399D01*
X131241000Y-105426072D01*
X131241000Y-105191598D01*
X131240257Y-105182553D01*
X131229189Y-105047937D01*
X131226322Y-105013063D01*
X131167794Y-104780056D01*
X131100548Y-104625399D01*
X131074057Y-104564474D01*
X131074055Y-104564471D01*
X131071997Y-104559737D01*
X130961426Y-104388821D01*
X130944310Y-104362363D01*
X130944308Y-104362360D01*
X130941502Y-104358023D01*
X130938026Y-104354203D01*
X130938021Y-104354196D01*
X130821306Y-104225928D01*
X130790254Y-104162083D01*
X130788500Y-104141129D01*
X130788500Y-102583463D01*
X130808502Y-102515342D01*
X130862158Y-102468849D01*
X130900891Y-102458200D01*
X130960316Y-102451745D01*
X131096705Y-102400615D01*
X131213261Y-102313261D01*
X131300615Y-102196705D01*
X131351745Y-102060316D01*
X131358500Y-101998134D01*
X133641500Y-101998134D01*
X133648255Y-102060316D01*
X133699385Y-102196705D01*
X133786739Y-102313261D01*
X133903295Y-102400615D01*
X134039684Y-102451745D01*
X134101866Y-102458500D01*
X137698134Y-102458500D01*
X137760316Y-102451745D01*
X137896705Y-102400615D01*
X138013261Y-102313261D01*
X138100615Y-102196705D01*
X138151745Y-102060316D01*
X138158500Y-101998134D01*
X138158500Y-101534500D01*
X138178502Y-101466379D01*
X138232158Y-101419886D01*
X138284500Y-101408500D01*
X142700075Y-101408500D01*
X142768196Y-101428502D01*
X142789170Y-101445405D01*
X145100012Y-103756246D01*
X145134037Y-103818558D01*
X145128973Y-103889373D01*
X145086426Y-103946209D01*
X145050062Y-103965106D01*
X145031899Y-103971042D01*
X145027313Y-103973429D01*
X145027309Y-103973431D01*
X144823393Y-104079584D01*
X144818800Y-104081975D01*
X144663717Y-104198415D01*
X144597235Y-104223320D01*
X144527839Y-104208328D01*
X144477565Y-104158198D01*
X144470085Y-104141885D01*
X144466269Y-104131707D01*
X144466267Y-104131703D01*
X144463115Y-104123295D01*
X144375761Y-104006739D01*
X144259205Y-103919385D01*
X144122816Y-103868255D01*
X144060634Y-103861500D01*
X142059366Y-103861500D01*
X141997184Y-103868255D01*
X141860795Y-103919385D01*
X141744239Y-104006739D01*
X141656885Y-104123295D01*
X141605755Y-104259684D01*
X141599000Y-104321866D01*
X141599000Y-106418134D01*
X141605755Y-106480316D01*
X141656885Y-106616705D01*
X141744239Y-106733261D01*
X141860795Y-106820615D01*
X141997184Y-106871745D01*
X142059366Y-106878500D01*
X144060634Y-106878500D01*
X144122816Y-106871745D01*
X144259205Y-106820615D01*
X144375761Y-106733261D01*
X144463115Y-106616705D01*
X144470573Y-106596811D01*
X144513213Y-106540047D01*
X144579774Y-106515346D01*
X144649123Y-106530553D01*
X144666647Y-106542158D01*
X144784670Y-106635367D01*
X144784675Y-106635370D01*
X144788724Y-106638568D01*
X144793240Y-106641061D01*
X144793243Y-106641063D01*
X144994526Y-106752177D01*
X144994530Y-106752179D01*
X144999050Y-106754674D01*
X145003919Y-106756398D01*
X145003923Y-106756400D01*
X145220640Y-106833144D01*
X145220644Y-106833145D01*
X145225515Y-106834870D01*
X145230608Y-106835777D01*
X145230611Y-106835778D01*
X145456948Y-106876095D01*
X145456954Y-106876096D01*
X145462037Y-106877001D01*
X145549400Y-106878068D01*
X145697093Y-106879873D01*
X145697095Y-106879873D01*
X145702263Y-106879936D01*
X145939744Y-106843596D01*
X146054479Y-106806095D01*
X146163183Y-106770566D01*
X146163189Y-106770563D01*
X146168101Y-106768958D01*
X146172687Y-106766571D01*
X146172691Y-106766569D01*
X146376607Y-106660416D01*
X146381200Y-106658025D01*
X146478573Y-106584915D01*
X146569185Y-106516882D01*
X146569188Y-106516880D01*
X146573320Y-106513777D01*
X146739301Y-106340088D01*
X146764535Y-106303097D01*
X146819444Y-106258096D01*
X146889968Y-106249925D01*
X146953716Y-106281179D01*
X146974411Y-106305660D01*
X146978498Y-106311977D01*
X147140186Y-106489670D01*
X147217017Y-106550347D01*
X147324670Y-106635367D01*
X147324675Y-106635370D01*
X147328724Y-106638568D01*
X147333240Y-106641061D01*
X147333243Y-106641063D01*
X147534526Y-106752177D01*
X147534530Y-106752179D01*
X147539050Y-106754674D01*
X147543919Y-106756398D01*
X147543923Y-106756400D01*
X147760640Y-106833144D01*
X147760644Y-106833145D01*
X147765515Y-106834870D01*
X147770608Y-106835777D01*
X147770611Y-106835778D01*
X147996948Y-106876095D01*
X147996954Y-106876096D01*
X148002037Y-106877001D01*
X148089400Y-106878068D01*
X148237093Y-106879873D01*
X148237095Y-106879873D01*
X148242263Y-106879936D01*
X148479744Y-106843596D01*
X148594479Y-106806095D01*
X148703183Y-106770566D01*
X148703189Y-106770563D01*
X148708101Y-106768958D01*
X148712687Y-106766571D01*
X148712691Y-106766569D01*
X148916607Y-106660416D01*
X148921200Y-106658025D01*
X149018573Y-106584915D01*
X149109185Y-106516882D01*
X149109188Y-106516880D01*
X149113320Y-106513777D01*
X149279301Y-106340088D01*
X149388557Y-106179925D01*
X149411774Y-106145891D01*
X149411775Y-106145890D01*
X149414686Y-106141622D01*
X149426812Y-106115500D01*
X149513658Y-105928405D01*
X149513659Y-105928401D01*
X149515837Y-105923710D01*
X149580040Y-105692202D01*
X149585219Y-105643739D01*
X149600644Y-105499407D01*
X149600644Y-105499399D01*
X149601000Y-105496072D01*
X149601000Y-105261598D01*
X149599920Y-105248455D01*
X149590353Y-105132093D01*
X149586322Y-105083063D01*
X149527794Y-104850056D01*
X149471779Y-104721229D01*
X149434057Y-104634474D01*
X149434055Y-104634471D01*
X149431997Y-104629737D01*
X149301502Y-104428023D01*
X149139814Y-104250330D01*
X149053654Y-104182285D01*
X148955330Y-104104633D01*
X148955325Y-104104630D01*
X148951276Y-104101432D01*
X148946760Y-104098939D01*
X148946757Y-104098937D01*
X148745474Y-103987823D01*
X148745470Y-103987821D01*
X148740950Y-103985326D01*
X148736081Y-103983602D01*
X148736077Y-103983600D01*
X148519360Y-103906856D01*
X148519356Y-103906855D01*
X148514485Y-103905130D01*
X148509392Y-103904223D01*
X148509389Y-103904222D01*
X148283052Y-103863905D01*
X148283046Y-103863904D01*
X148277963Y-103862999D01*
X148107813Y-103860920D01*
X148039944Y-103840088D01*
X148020259Y-103824025D01*
X143926855Y-99730621D01*
X143917753Y-99720478D01*
X143897897Y-99695782D01*
X143894032Y-99690975D01*
X143855578Y-99658708D01*
X143851931Y-99655528D01*
X143850119Y-99653885D01*
X143847925Y-99651691D01*
X143814651Y-99624358D01*
X143813853Y-99623696D01*
X143742526Y-99563846D01*
X143737856Y-99561278D01*
X143733739Y-99557897D01*
X143666744Y-99521975D01*
X143651914Y-99514023D01*
X143650755Y-99513394D01*
X143574619Y-99471538D01*
X143574611Y-99471535D01*
X143569213Y-99468567D01*
X143564131Y-99466955D01*
X143559437Y-99464438D01*
X143470469Y-99437238D01*
X143469441Y-99436918D01*
X143380694Y-99408765D01*
X143375398Y-99408171D01*
X143370302Y-99406613D01*
X143277743Y-99397210D01*
X143276607Y-99397089D01*
X143239006Y-99392872D01*
X143230270Y-99391892D01*
X143230266Y-99391892D01*
X143226773Y-99391500D01*
X143223246Y-99391500D01*
X143222261Y-99391445D01*
X143216581Y-99390998D01*
X143187175Y-99388011D01*
X143179663Y-99387248D01*
X143179661Y-99387248D01*
X143173538Y-99386626D01*
X143131259Y-99390623D01*
X143127891Y-99390941D01*
X143116033Y-99391500D01*
X138284500Y-99391500D01*
X138216379Y-99371498D01*
X138169886Y-99317842D01*
X138158500Y-99265500D01*
X138158500Y-99201866D01*
X138151745Y-99139684D01*
X138100615Y-99003295D01*
X138013261Y-98886739D01*
X137896705Y-98799385D01*
X137760316Y-98748255D01*
X137698134Y-98741500D01*
X134101866Y-98741500D01*
X134039684Y-98748255D01*
X133903295Y-98799385D01*
X133786739Y-98886739D01*
X133699385Y-99003295D01*
X133648255Y-99139684D01*
X133641500Y-99201866D01*
X133641500Y-101998134D01*
X131358500Y-101998134D01*
X131358500Y-99201866D01*
X131351745Y-99139684D01*
X131300615Y-99003295D01*
X131213261Y-98886739D01*
X131096705Y-98799385D01*
X130960316Y-98748255D01*
X130898134Y-98741500D01*
X127301866Y-98741500D01*
X127239684Y-98748255D01*
X127103295Y-98799385D01*
X126986739Y-98886739D01*
X126899385Y-99003295D01*
X126848255Y-99139684D01*
X126841500Y-99201866D01*
X126841500Y-101998134D01*
X126848255Y-102060316D01*
X126899385Y-102196705D01*
X126986739Y-102313261D01*
X127103295Y-102400615D01*
X127239684Y-102451745D01*
X127301866Y-102458500D01*
X128645500Y-102458500D01*
X128713621Y-102478502D01*
X128760114Y-102532158D01*
X128771500Y-102584500D01*
X128771500Y-104142513D01*
X128751498Y-104210634D01*
X128736594Y-104229564D01*
X128645123Y-104325283D01*
X128640699Y-104329912D01*
X128615465Y-104366903D01*
X128560556Y-104411904D01*
X128490032Y-104420075D01*
X128426284Y-104388821D01*
X128405589Y-104364340D01*
X128404311Y-104362365D01*
X128401502Y-104358023D01*
X128239814Y-104180330D01*
X128139912Y-104101432D01*
X128055330Y-104034633D01*
X128055325Y-104034630D01*
X128051276Y-104031432D01*
X128046760Y-104028939D01*
X128046757Y-104028937D01*
X127845474Y-103917823D01*
X127845470Y-103917821D01*
X127840950Y-103915326D01*
X127836081Y-103913602D01*
X127836077Y-103913600D01*
X127619360Y-103836856D01*
X127619356Y-103836855D01*
X127614485Y-103835130D01*
X127609392Y-103834223D01*
X127609389Y-103834222D01*
X127383052Y-103793905D01*
X127383046Y-103793904D01*
X127377963Y-103792999D01*
X127285474Y-103791869D01*
X127142907Y-103790127D01*
X127142905Y-103790127D01*
X127137737Y-103790064D01*
X126900256Y-103826404D01*
X126796569Y-103860294D01*
X126676817Y-103899434D01*
X126676811Y-103899437D01*
X126671899Y-103901042D01*
X126667313Y-103903429D01*
X126667309Y-103903431D01*
X126509992Y-103985326D01*
X126458800Y-104011975D01*
X126303717Y-104128415D01*
X126237235Y-104153320D01*
X126167839Y-104138328D01*
X126117565Y-104088198D01*
X126110085Y-104071885D01*
X126106269Y-104061707D01*
X126106267Y-104061703D01*
X126103115Y-104053295D01*
X126015761Y-103936739D01*
X125899205Y-103849385D01*
X125762816Y-103798255D01*
X125700634Y-103791500D01*
X123699366Y-103791500D01*
X123637184Y-103798255D01*
X123500795Y-103849385D01*
X123384239Y-103936739D01*
X123296885Y-104053295D01*
X123245755Y-104189684D01*
X123239000Y-104251866D01*
X123239000Y-106115500D01*
X123218998Y-106183621D01*
X123165342Y-106230114D01*
X123113000Y-106241500D01*
X116066371Y-106241500D01*
X115998250Y-106221498D01*
X115977276Y-106204595D01*
X114982841Y-105210160D01*
X114948815Y-105147848D01*
X114952209Y-105100400D01*
X117104000Y-105100400D01*
X117104337Y-105103646D01*
X117104337Y-105103650D01*
X117114118Y-105197914D01*
X117114974Y-105206166D01*
X117117155Y-105212702D01*
X117117155Y-105212704D01*
X117152251Y-105317899D01*
X117170950Y-105373946D01*
X117264022Y-105524348D01*
X117389197Y-105649305D01*
X117395427Y-105653145D01*
X117395428Y-105653146D01*
X117532788Y-105737816D01*
X117539762Y-105742115D01*
X117618711Y-105768301D01*
X117701111Y-105795632D01*
X117701113Y-105795632D01*
X117707639Y-105797797D01*
X117714475Y-105798497D01*
X117714478Y-105798498D01*
X117757531Y-105802909D01*
X117812100Y-105808500D01*
X118737900Y-105808500D01*
X118741146Y-105808163D01*
X118741150Y-105808163D01*
X118836808Y-105798238D01*
X118836812Y-105798237D01*
X118843666Y-105797526D01*
X118850202Y-105795345D01*
X118850204Y-105795345D01*
X118982306Y-105751272D01*
X119011446Y-105741550D01*
X119161848Y-105648478D01*
X119286805Y-105523303D01*
X119315034Y-105477508D01*
X119375775Y-105378968D01*
X119375776Y-105378966D01*
X119379615Y-105372738D01*
X119388612Y-105345613D01*
X119429042Y-105287253D01*
X119494606Y-105260015D01*
X119547143Y-105265447D01*
X119549184Y-105266110D01*
X119555212Y-105268794D01*
X119642054Y-105287253D01*
X119735556Y-105307128D01*
X119735561Y-105307128D01*
X119742013Y-105308500D01*
X119932987Y-105308500D01*
X119939439Y-105307128D01*
X119939444Y-105307128D01*
X120113335Y-105270166D01*
X120113338Y-105270165D01*
X120119788Y-105268794D01*
X120125814Y-105266111D01*
X120128433Y-105265260D01*
X120199401Y-105263233D01*
X120260199Y-105299895D01*
X120286893Y-105345217D01*
X120294091Y-105366791D01*
X120300258Y-105379957D01*
X120385563Y-105517807D01*
X120394599Y-105529208D01*
X120509329Y-105643739D01*
X120520740Y-105652751D01*
X120658743Y-105737816D01*
X120671924Y-105743963D01*
X120826210Y-105795138D01*
X120839586Y-105798005D01*
X120933938Y-105807672D01*
X120940354Y-105808000D01*
X121127885Y-105808000D01*
X121143124Y-105803525D01*
X121144329Y-105802135D01*
X121146000Y-105794452D01*
X121146000Y-105789884D01*
X121654000Y-105789884D01*
X121658475Y-105805123D01*
X121659865Y-105806328D01*
X121667548Y-105807999D01*
X121859595Y-105807999D01*
X121866114Y-105807662D01*
X121961706Y-105797743D01*
X121975100Y-105794851D01*
X122129284Y-105743412D01*
X122142462Y-105737239D01*
X122280307Y-105651937D01*
X122291708Y-105642901D01*
X122406239Y-105528171D01*
X122415251Y-105516760D01*
X122500316Y-105378757D01*
X122506463Y-105365576D01*
X122557638Y-105211290D01*
X122560505Y-105197914D01*
X122570172Y-105103562D01*
X122570500Y-105097146D01*
X122570500Y-104672115D01*
X122566025Y-104656876D01*
X122564635Y-104655671D01*
X122556952Y-104654000D01*
X121672115Y-104654000D01*
X121656876Y-104658475D01*
X121655671Y-104659865D01*
X121654000Y-104667548D01*
X121654000Y-105789884D01*
X121146000Y-105789884D01*
X121146000Y-104127885D01*
X121654000Y-104127885D01*
X121658475Y-104143124D01*
X121659865Y-104144329D01*
X121667548Y-104146000D01*
X122552384Y-104146000D01*
X122567623Y-104141525D01*
X122568828Y-104140135D01*
X122570499Y-104132452D01*
X122570499Y-103702905D01*
X122570162Y-103696386D01*
X122560243Y-103600794D01*
X122557351Y-103587400D01*
X122505912Y-103433216D01*
X122499739Y-103420038D01*
X122414437Y-103282193D01*
X122405401Y-103270792D01*
X122290671Y-103156261D01*
X122279260Y-103147249D01*
X122141257Y-103062184D01*
X122128076Y-103056037D01*
X121973790Y-103004862D01*
X121960414Y-103001995D01*
X121866062Y-102992328D01*
X121859645Y-102992000D01*
X121672115Y-102992000D01*
X121656876Y-102996475D01*
X121655671Y-102997865D01*
X121654000Y-103005548D01*
X121654000Y-104127885D01*
X121146000Y-104127885D01*
X121146000Y-103010116D01*
X121141525Y-102994877D01*
X121140135Y-102993672D01*
X121132452Y-102992001D01*
X120940405Y-102992001D01*
X120933886Y-102992338D01*
X120838294Y-103002257D01*
X120824900Y-103005149D01*
X120670716Y-103056588D01*
X120657538Y-103062761D01*
X120519693Y-103148063D01*
X120508292Y-103157099D01*
X120393761Y-103271829D01*
X120384749Y-103283240D01*
X120299684Y-103421243D01*
X120293536Y-103434426D01*
X120286864Y-103454542D01*
X120246434Y-103512902D01*
X120180869Y-103540139D01*
X120128336Y-103534709D01*
X120125819Y-103533891D01*
X120119788Y-103531206D01*
X120113329Y-103529833D01*
X119939444Y-103492872D01*
X119939439Y-103492872D01*
X119932987Y-103491500D01*
X119742013Y-103491500D01*
X119735561Y-103492872D01*
X119735556Y-103492872D01*
X119633675Y-103514528D01*
X119555212Y-103531206D01*
X119549180Y-103533892D01*
X119547046Y-103534585D01*
X119476079Y-103536614D01*
X119415280Y-103499953D01*
X119388583Y-103454628D01*
X119381369Y-103433004D01*
X119381368Y-103433002D01*
X119379050Y-103426054D01*
X119285978Y-103275652D01*
X119160803Y-103150695D01*
X119097584Y-103111726D01*
X119016468Y-103061725D01*
X119016466Y-103061724D01*
X119010238Y-103057885D01*
X118888239Y-103017420D01*
X118848889Y-103004368D01*
X118848887Y-103004368D01*
X118842361Y-103002203D01*
X118835525Y-103001503D01*
X118835522Y-103001502D01*
X118792469Y-102997091D01*
X118737900Y-102991500D01*
X117812100Y-102991500D01*
X117808854Y-102991837D01*
X117808850Y-102991837D01*
X117713192Y-103001762D01*
X117713188Y-103001763D01*
X117706334Y-103002474D01*
X117699798Y-103004655D01*
X117699796Y-103004655D01*
X117642862Y-103023650D01*
X117538554Y-103058450D01*
X117388152Y-103151522D01*
X117263195Y-103276697D01*
X117259355Y-103282927D01*
X117259354Y-103282928D01*
X117226040Y-103336974D01*
X117170385Y-103427262D01*
X117168081Y-103434209D01*
X117125565Y-103562392D01*
X117114703Y-103595139D01*
X117114003Y-103601975D01*
X117114002Y-103601978D01*
X117111148Y-103629834D01*
X117104000Y-103699600D01*
X117104000Y-105100400D01*
X114952209Y-105100400D01*
X114953880Y-105077033D01*
X114996427Y-105020197D01*
X115045737Y-104997819D01*
X115182288Y-104968794D01*
X115209126Y-104956845D01*
X115350722Y-104893803D01*
X115350724Y-104893802D01*
X115356752Y-104891118D01*
X115511253Y-104778866D01*
X115618402Y-104659865D01*
X115634621Y-104641852D01*
X115634622Y-104641851D01*
X115639040Y-104636944D01*
X115734527Y-104471556D01*
X115793542Y-104289928D01*
X115797303Y-104254149D01*
X115812814Y-104106565D01*
X115813504Y-104100000D01*
X115803702Y-104006739D01*
X115794232Y-103916635D01*
X115794232Y-103916633D01*
X115793542Y-103910072D01*
X115734527Y-103728444D01*
X115639040Y-103563056D01*
X115618406Y-103540139D01*
X115515675Y-103426045D01*
X115515671Y-103426041D01*
X115511253Y-103421134D01*
X115356752Y-103308882D01*
X115350724Y-103306198D01*
X115350722Y-103306197D01*
X115188319Y-103233891D01*
X115188318Y-103233891D01*
X115182288Y-103231206D01*
X115088888Y-103211353D01*
X115001944Y-103192872D01*
X115001939Y-103192872D01*
X114995487Y-103191500D01*
X114804513Y-103191500D01*
X114798061Y-103192872D01*
X114798056Y-103192872D01*
X114711113Y-103211353D01*
X114617712Y-103231206D01*
X114611682Y-103233891D01*
X114611681Y-103233891D01*
X114449278Y-103306197D01*
X114449276Y-103306198D01*
X114443248Y-103308882D01*
X114288747Y-103421134D01*
X114181595Y-103540139D01*
X114161558Y-103562392D01*
X114101112Y-103599631D01*
X114041726Y-103601328D01*
X114001946Y-103592873D01*
X114001947Y-103592873D01*
X113995487Y-103591500D01*
X113804513Y-103591500D01*
X113798061Y-103592872D01*
X113798056Y-103592872D01*
X113711112Y-103611353D01*
X113617712Y-103631206D01*
X113530967Y-103669827D01*
X113460601Y-103679261D01*
X113396304Y-103649155D01*
X113370600Y-103617720D01*
X113365498Y-103608882D01*
X113339040Y-103563056D01*
X113318406Y-103540139D01*
X113215675Y-103426045D01*
X113215671Y-103426041D01*
X113211253Y-103421134D01*
X113056752Y-103308882D01*
X113050724Y-103306198D01*
X113050722Y-103306197D01*
X112888319Y-103233891D01*
X112888318Y-103233891D01*
X112882288Y-103231206D01*
X112788888Y-103211353D01*
X112701944Y-103192872D01*
X112701939Y-103192872D01*
X112695487Y-103191500D01*
X112504513Y-103191500D01*
X112498061Y-103192872D01*
X112498056Y-103192872D01*
X112339461Y-103226583D01*
X112268670Y-103221181D01*
X112212038Y-103178364D01*
X112187544Y-103111726D01*
X112206004Y-103037220D01*
X112214369Y-103023650D01*
X112214370Y-103023648D01*
X112218209Y-103017420D01*
X112272974Y-102852309D01*
X112283500Y-102749572D01*
X112283500Y-102050428D01*
X112272707Y-101946407D01*
X112217654Y-101781393D01*
X112126116Y-101633469D01*
X112120933Y-101628295D01*
X112119095Y-101625976D01*
X112092457Y-101560166D01*
X112091840Y-101547711D01*
X112091840Y-99803483D01*
X112111842Y-99735362D01*
X112154018Y-99696050D01*
X112155045Y-99695665D01*
X112271601Y-99608311D01*
X112358955Y-99491755D01*
X112410085Y-99355366D01*
X112416840Y-99293184D01*
X112416840Y-97996916D01*
X112410085Y-97934734D01*
X112358955Y-97798345D01*
X112271601Y-97681789D01*
X112155045Y-97594435D01*
X112018656Y-97543305D01*
X111956474Y-97536550D01*
X110960206Y-97536550D01*
X110898024Y-97543305D01*
X110761635Y-97594435D01*
X110645079Y-97681789D01*
X110557725Y-97798345D01*
X110506595Y-97934734D01*
X110499840Y-97996916D01*
X110499840Y-99265500D01*
X110479838Y-99333621D01*
X110426182Y-99380114D01*
X110373840Y-99391500D01*
X110304513Y-99391500D01*
X110298061Y-99392872D01*
X110298056Y-99392872D01*
X110219421Y-99409587D01*
X110117712Y-99431206D01*
X110111682Y-99433891D01*
X110111681Y-99433891D01*
X109949278Y-99506197D01*
X109949276Y-99506198D01*
X109943248Y-99508882D01*
X109937907Y-99512762D01*
X109937906Y-99512763D01*
X109936275Y-99513948D01*
X109788747Y-99621134D01*
X109784326Y-99626044D01*
X109784325Y-99626045D01*
X109670728Y-99752208D01*
X109660960Y-99763056D01*
X109565473Y-99928444D01*
X109506458Y-100110072D01*
X109505768Y-100116633D01*
X109505768Y-100116635D01*
X109495309Y-100216146D01*
X109486496Y-100300000D01*
X104974053Y-100300000D01*
X104974655Y-96970450D01*
X113279840Y-96970450D01*
X113280177Y-96973696D01*
X113280177Y-96973700D01*
X113289470Y-97063261D01*
X113290814Y-97076216D01*
X113292995Y-97082752D01*
X113292995Y-97082754D01*
X113316687Y-97153767D01*
X113346790Y-97243996D01*
X113439862Y-97394398D01*
X113565037Y-97519355D01*
X113571267Y-97523195D01*
X113571268Y-97523196D01*
X113686839Y-97594435D01*
X113715602Y-97612165D01*
X113741214Y-97620660D01*
X113779962Y-97633512D01*
X113838322Y-97673942D01*
X113865560Y-97739506D01*
X113854122Y-97796994D01*
X113857725Y-97798345D01*
X113806595Y-97934734D01*
X113799840Y-97996916D01*
X113799840Y-99293184D01*
X113806595Y-99355366D01*
X113857725Y-99491755D01*
X113945079Y-99608311D01*
X114061635Y-99695665D01*
X114198024Y-99746795D01*
X114260206Y-99753550D01*
X114684836Y-99753550D01*
X114752957Y-99773552D01*
X114799450Y-99827208D01*
X114809554Y-99897482D01*
X114808348Y-99904254D01*
X114806458Y-99910072D01*
X114786496Y-100100000D01*
X114806458Y-100289928D01*
X114865473Y-100471556D01*
X114960960Y-100636944D01*
X114965378Y-100641851D01*
X114965379Y-100641852D01*
X114992125Y-100671556D01*
X115088747Y-100778866D01*
X115243248Y-100891118D01*
X115249276Y-100893802D01*
X115249278Y-100893803D01*
X115411681Y-100966109D01*
X115417712Y-100968794D01*
X115483365Y-100982749D01*
X115598056Y-101007128D01*
X115598061Y-101007128D01*
X115604513Y-101008500D01*
X115795487Y-101008500D01*
X115801939Y-101007128D01*
X115801944Y-101007128D01*
X115916635Y-100982749D01*
X115982288Y-100968794D01*
X115988319Y-100966109D01*
X116150722Y-100893803D01*
X116150724Y-100893802D01*
X116156752Y-100891118D01*
X116311253Y-100778866D01*
X116407875Y-100671556D01*
X116434621Y-100641852D01*
X116434622Y-100641851D01*
X116439040Y-100636944D01*
X116534527Y-100471556D01*
X116593542Y-100289928D01*
X116613504Y-100100000D01*
X116597952Y-99952028D01*
X116594232Y-99916635D01*
X116594232Y-99916633D01*
X116593542Y-99910072D01*
X116585066Y-99883985D01*
X116571907Y-99843486D01*
X116569880Y-99772518D01*
X116606542Y-99711720D01*
X116670254Y-99680395D01*
X116691740Y-99678550D01*
X116895401Y-99678550D01*
X116963522Y-99698552D01*
X117010015Y-99752208D01*
X117020119Y-99822482D01*
X117002662Y-99870663D01*
X116956791Y-99945080D01*
X116902026Y-100110191D01*
X116891500Y-100212928D01*
X116891500Y-100445784D01*
X116890810Y-100458955D01*
X116886496Y-100500000D01*
X116887186Y-100506565D01*
X116890810Y-100541045D01*
X116891500Y-100554216D01*
X116891500Y-100787072D01*
X116891837Y-100790318D01*
X116891837Y-100790322D01*
X116896675Y-100836944D01*
X116902293Y-100891093D01*
X116957346Y-101056107D01*
X117048884Y-101204031D01*
X117054066Y-101209204D01*
X117166816Y-101321758D01*
X117166821Y-101321762D01*
X117171997Y-101326929D01*
X117320080Y-101418209D01*
X117485191Y-101472974D01*
X117492027Y-101473674D01*
X117492030Y-101473675D01*
X117543526Y-101478951D01*
X117587928Y-101483500D01*
X118287072Y-101483500D01*
X118290318Y-101483163D01*
X118290322Y-101483163D01*
X118384235Y-101473419D01*
X118384239Y-101473418D01*
X118391093Y-101472707D01*
X118397629Y-101470526D01*
X118397631Y-101470526D01*
X118537988Y-101423699D01*
X118556107Y-101417654D01*
X118613605Y-101382073D01*
X118697805Y-101329969D01*
X118697806Y-101329968D01*
X118704031Y-101326116D01*
X118710923Y-101319212D01*
X118712387Y-101318411D01*
X118714938Y-101316389D01*
X118715284Y-101316826D01*
X118773204Y-101285134D01*
X118844024Y-101290137D01*
X118889110Y-101319056D01*
X118891616Y-101321557D01*
X118896997Y-101326929D01*
X119045080Y-101418209D01*
X119210191Y-101472974D01*
X119217027Y-101473674D01*
X119217030Y-101473675D01*
X119268526Y-101478951D01*
X119312928Y-101483500D01*
X120012072Y-101483500D01*
X120015318Y-101483163D01*
X120015322Y-101483163D01*
X120109235Y-101473419D01*
X120109239Y-101473418D01*
X120116093Y-101472707D01*
X120122629Y-101470526D01*
X120122631Y-101470526D01*
X120262988Y-101423699D01*
X120281107Y-101417654D01*
X120429031Y-101326116D01*
X120464947Y-101290137D01*
X120546758Y-101208184D01*
X120546762Y-101208179D01*
X120551929Y-101203003D01*
X120620896Y-101091118D01*
X120639369Y-101061150D01*
X120639370Y-101061148D01*
X120643209Y-101054920D01*
X120697974Y-100889809D01*
X120702888Y-100841852D01*
X120708172Y-100790271D01*
X120708500Y-100787072D01*
X120708500Y-100722984D01*
X120728502Y-100654863D01*
X120745401Y-100633893D01*
X121688842Y-99690453D01*
X121751152Y-99656429D01*
X121777935Y-99653550D01*
X122436474Y-99653550D01*
X122498656Y-99646795D01*
X122635045Y-99595665D01*
X122751601Y-99508311D01*
X122838955Y-99391755D01*
X122890085Y-99255366D01*
X122896840Y-99193184D01*
X122896840Y-97896916D01*
X122890085Y-97834734D01*
X122838955Y-97698345D01*
X122751601Y-97581789D01*
X122635045Y-97494435D01*
X122498656Y-97443305D01*
X122436474Y-97436550D01*
X121440206Y-97436550D01*
X121378024Y-97443305D01*
X121241635Y-97494435D01*
X121125079Y-97581789D01*
X121037725Y-97698345D01*
X120986595Y-97834734D01*
X120979840Y-97896916D01*
X120979840Y-98555455D01*
X120959838Y-98623576D01*
X120942935Y-98644551D01*
X120107562Y-99479923D01*
X120045250Y-99513948D01*
X120012940Y-99516589D01*
X120012072Y-99516500D01*
X119673989Y-99516500D01*
X119605868Y-99496498D01*
X119559375Y-99442842D01*
X119549271Y-99372568D01*
X119556007Y-99346271D01*
X119587311Y-99262768D01*
X119587313Y-99262762D01*
X119590085Y-99255366D01*
X119596840Y-99193184D01*
X119596840Y-97896916D01*
X119590085Y-97834734D01*
X119538955Y-97698345D01*
X119451601Y-97581789D01*
X119335045Y-97494435D01*
X119198656Y-97443305D01*
X119136474Y-97436550D01*
X118140206Y-97436550D01*
X118127162Y-97437967D01*
X118057279Y-97425439D01*
X118005264Y-97377118D01*
X117987629Y-97308346D01*
X118006294Y-97246588D01*
X118051156Y-97173807D01*
X118057303Y-97160626D01*
X118108478Y-97006340D01*
X118111345Y-96992964D01*
X118121012Y-96898612D01*
X118121340Y-96892196D01*
X118121340Y-96779665D01*
X118116865Y-96764426D01*
X118115475Y-96763221D01*
X118107792Y-96761550D01*
X116760340Y-96761550D01*
X116714649Y-96748134D01*
X158438849Y-96748134D01*
X158445604Y-96810316D01*
X158496734Y-96946705D01*
X158584088Y-97063261D01*
X158700644Y-97150615D01*
X158837033Y-97201745D01*
X158899215Y-97208500D01*
X160595483Y-97208500D01*
X160657665Y-97201745D01*
X160794054Y-97150615D01*
X160910610Y-97063261D01*
X160968468Y-96986062D01*
X162525842Y-96986062D01*
X162535138Y-96998077D01*
X162586343Y-97033931D01*
X162595838Y-97039414D01*
X162793296Y-97131490D01*
X162803588Y-97135236D01*
X163014037Y-97191625D01*
X163024830Y-97193528D01*
X163241874Y-97212517D01*
X163252824Y-97212517D01*
X163469868Y-97193528D01*
X163480661Y-97191625D01*
X163691110Y-97135236D01*
X163701402Y-97131490D01*
X163898860Y-97039414D01*
X163908355Y-97033931D01*
X163960397Y-96997491D01*
X163968773Y-96987012D01*
X163961705Y-96973566D01*
X163260161Y-96272022D01*
X163246217Y-96264408D01*
X163244384Y-96264539D01*
X163237769Y-96268790D01*
X162532272Y-96974287D01*
X162525842Y-96986062D01*
X160968468Y-96986062D01*
X160997964Y-96946705D01*
X161049094Y-96810316D01*
X161055849Y-96748134D01*
X161055849Y-95905475D01*
X161934832Y-95905475D01*
X161953821Y-96122519D01*
X161955724Y-96133312D01*
X162012113Y-96343761D01*
X162015859Y-96354053D01*
X162107935Y-96551511D01*
X162113418Y-96561006D01*
X162149858Y-96613048D01*
X162160337Y-96621424D01*
X162173783Y-96614356D01*
X162875327Y-95912812D01*
X162881705Y-95901132D01*
X163611757Y-95901132D01*
X163611888Y-95902965D01*
X163616139Y-95909580D01*
X164321636Y-96615077D01*
X164333411Y-96621507D01*
X164345426Y-96612211D01*
X164381280Y-96561006D01*
X164386763Y-96551511D01*
X164478839Y-96354053D01*
X164482585Y-96343761D01*
X164538974Y-96133312D01*
X164540877Y-96122519D01*
X164559866Y-95905475D01*
X164559866Y-95894525D01*
X164540877Y-95677481D01*
X164538974Y-95666688D01*
X164482585Y-95456239D01*
X164478839Y-95445947D01*
X164386763Y-95248489D01*
X164381280Y-95238994D01*
X164344840Y-95186952D01*
X164334361Y-95178576D01*
X164320915Y-95185644D01*
X163619371Y-95887188D01*
X163611757Y-95901132D01*
X162881705Y-95901132D01*
X162882941Y-95898868D01*
X162882810Y-95897035D01*
X162878559Y-95890420D01*
X162173062Y-95184923D01*
X162161287Y-95178493D01*
X162149272Y-95187789D01*
X162113418Y-95238994D01*
X162107935Y-95248489D01*
X162015859Y-95445947D01*
X162012113Y-95456239D01*
X161955724Y-95666688D01*
X161953821Y-95677481D01*
X161934832Y-95894525D01*
X161934832Y-95905475D01*
X161055849Y-95905475D01*
X161055849Y-95051866D01*
X161049094Y-94989684D01*
X160997964Y-94853295D01*
X160967756Y-94812988D01*
X162525925Y-94812988D01*
X162532993Y-94826434D01*
X163234537Y-95527978D01*
X163248481Y-95535592D01*
X163250314Y-95535461D01*
X163256929Y-95531210D01*
X163962426Y-94825713D01*
X163968856Y-94813938D01*
X163959560Y-94801923D01*
X163908355Y-94766069D01*
X163898860Y-94760586D01*
X163701402Y-94668510D01*
X163691110Y-94664764D01*
X163480661Y-94608375D01*
X163469868Y-94606472D01*
X163252824Y-94587483D01*
X163241874Y-94587483D01*
X163024830Y-94606472D01*
X163014037Y-94608375D01*
X162803588Y-94664764D01*
X162793296Y-94668510D01*
X162595838Y-94760586D01*
X162586343Y-94766069D01*
X162534301Y-94802509D01*
X162525925Y-94812988D01*
X160967756Y-94812988D01*
X160910610Y-94736739D01*
X160794054Y-94649385D01*
X160657665Y-94598255D01*
X160595483Y-94591500D01*
X158899215Y-94591500D01*
X158837033Y-94598255D01*
X158700644Y-94649385D01*
X158584088Y-94736739D01*
X158496734Y-94853295D01*
X158445604Y-94989684D01*
X158438849Y-95051866D01*
X158438849Y-96748134D01*
X116714649Y-96748134D01*
X116692219Y-96741548D01*
X116645726Y-96687892D01*
X116634340Y-96635550D01*
X116634340Y-96235435D01*
X117142340Y-96235435D01*
X117146815Y-96250674D01*
X117148205Y-96251879D01*
X117155888Y-96253550D01*
X118103224Y-96253550D01*
X118118463Y-96249075D01*
X118119668Y-96247685D01*
X118121339Y-96240002D01*
X118121339Y-96122955D01*
X118121002Y-96116436D01*
X118111083Y-96020844D01*
X118108191Y-96007450D01*
X118056752Y-95853266D01*
X118050579Y-95840088D01*
X117965277Y-95702243D01*
X117956241Y-95690842D01*
X117841511Y-95576311D01*
X117830100Y-95567299D01*
X117692097Y-95482234D01*
X117678916Y-95476087D01*
X117524630Y-95424912D01*
X117511254Y-95422045D01*
X117416902Y-95412378D01*
X117410485Y-95412050D01*
X117160455Y-95412050D01*
X117145216Y-95416525D01*
X117144011Y-95417915D01*
X117142340Y-95425598D01*
X117142340Y-96235435D01*
X116634340Y-96235435D01*
X116634340Y-95430166D01*
X116629865Y-95414927D01*
X116628475Y-95413722D01*
X116620792Y-95412051D01*
X116366245Y-95412051D01*
X116359726Y-95412388D01*
X116264134Y-95422307D01*
X116250740Y-95425199D01*
X116096556Y-95476638D01*
X116083377Y-95482812D01*
X115992402Y-95539109D01*
X115923950Y-95557947D01*
X115856180Y-95536786D01*
X115837082Y-95521139D01*
X115816824Y-95500917D01*
X115811643Y-95495745D01*
X115692080Y-95422045D01*
X115667308Y-95406775D01*
X115667306Y-95406774D01*
X115661078Y-95402935D01*
X115500594Y-95349705D01*
X115499729Y-95349418D01*
X115499727Y-95349418D01*
X115493201Y-95347253D01*
X115486365Y-95346553D01*
X115486362Y-95346552D01*
X115443309Y-95342141D01*
X115388740Y-95336550D01*
X113987940Y-95336550D01*
X113984694Y-95336887D01*
X113984690Y-95336887D01*
X113889032Y-95346812D01*
X113889028Y-95346813D01*
X113882174Y-95347524D01*
X113875638Y-95349705D01*
X113875636Y-95349705D01*
X113743534Y-95393778D01*
X113714394Y-95403500D01*
X113563992Y-95496572D01*
X113439035Y-95621747D01*
X113435195Y-95627977D01*
X113435194Y-95627978D01*
X113376935Y-95722492D01*
X113346225Y-95772312D01*
X113321664Y-95846363D01*
X113302890Y-95902965D01*
X113290543Y-95940189D01*
X113279840Y-96044650D01*
X113279840Y-96970450D01*
X104974655Y-96970450D01*
X104974956Y-95308766D01*
X120118920Y-95308766D01*
X120119257Y-95315282D01*
X120128995Y-95409132D01*
X120131888Y-95422528D01*
X120182408Y-95573953D01*
X120188573Y-95587115D01*
X120272346Y-95722492D01*
X120281380Y-95733890D01*
X120394049Y-95846363D01*
X120405460Y-95855375D01*
X120540983Y-95938912D01*
X120554161Y-95945056D01*
X120705686Y-95995315D01*
X120719052Y-95998181D01*
X120811690Y-96007672D01*
X120818105Y-96008000D01*
X120829805Y-96008000D01*
X120845044Y-96003525D01*
X120846249Y-96002135D01*
X120847920Y-95994452D01*
X120847920Y-95989885D01*
X121355920Y-95989885D01*
X121360395Y-96005124D01*
X121361785Y-96006329D01*
X121369468Y-96008000D01*
X121385686Y-96008000D01*
X121392202Y-96007663D01*
X121486052Y-95997925D01*
X121499448Y-95995032D01*
X121650873Y-95944512D01*
X121664035Y-95938347D01*
X121799412Y-95854574D01*
X121810810Y-95845540D01*
X121923283Y-95732871D01*
X121932295Y-95721460D01*
X122015832Y-95585937D01*
X122021976Y-95572759D01*
X122072235Y-95421234D01*
X122075101Y-95407868D01*
X122084592Y-95315230D01*
X122084920Y-95308815D01*
X122084920Y-95234615D01*
X122080445Y-95219376D01*
X122079055Y-95218171D01*
X122071372Y-95216500D01*
X121374035Y-95216500D01*
X121358796Y-95220975D01*
X121357591Y-95222365D01*
X121355920Y-95230048D01*
X121355920Y-95989885D01*
X120847920Y-95989885D01*
X120847920Y-95234615D01*
X120843445Y-95219376D01*
X120842055Y-95218171D01*
X120834372Y-95216500D01*
X120137035Y-95216500D01*
X120121796Y-95220975D01*
X120120591Y-95222365D01*
X120118920Y-95230048D01*
X120118920Y-95308766D01*
X104974956Y-95308766D01*
X104975221Y-93842145D01*
X113280341Y-93842145D01*
X113280678Y-93848664D01*
X113290597Y-93944256D01*
X113293489Y-93957650D01*
X113344928Y-94111834D01*
X113351101Y-94125012D01*
X113436403Y-94262857D01*
X113445439Y-94274258D01*
X113560169Y-94388789D01*
X113571580Y-94397801D01*
X113709583Y-94482866D01*
X113722764Y-94489013D01*
X113877050Y-94540188D01*
X113890426Y-94543055D01*
X113984778Y-94552722D01*
X113991194Y-94553050D01*
X114416225Y-94553050D01*
X114431464Y-94548575D01*
X114432669Y-94547185D01*
X114434340Y-94539502D01*
X114434340Y-94534934D01*
X114942340Y-94534934D01*
X114946815Y-94550173D01*
X114948205Y-94551378D01*
X114955888Y-94553049D01*
X115385435Y-94553049D01*
X115391954Y-94552712D01*
X115487546Y-94542793D01*
X115500940Y-94539901D01*
X115655124Y-94488462D01*
X115668302Y-94482289D01*
X115806147Y-94396987D01*
X115817548Y-94387951D01*
X115932079Y-94273221D01*
X115941091Y-94261810D01*
X116026156Y-94123807D01*
X116032303Y-94110626D01*
X116083478Y-93956340D01*
X116086345Y-93942964D01*
X116096012Y-93848612D01*
X116096340Y-93842196D01*
X116096340Y-93616103D01*
X116116342Y-93547982D01*
X116169998Y-93501489D01*
X116240272Y-93491385D01*
X116304852Y-93520879D01*
X116329483Y-93549799D01*
X116372862Y-93619898D01*
X116498037Y-93744855D01*
X116504267Y-93748695D01*
X116504268Y-93748696D01*
X116641430Y-93833244D01*
X116648602Y-93837665D01*
X116728345Y-93864114D01*
X116809951Y-93891182D01*
X116809953Y-93891182D01*
X116816479Y-93893347D01*
X116823315Y-93894047D01*
X116823318Y-93894048D01*
X116866371Y-93898459D01*
X116920940Y-93904050D01*
X117696740Y-93904050D01*
X117699986Y-93903713D01*
X117699990Y-93903713D01*
X117795648Y-93893788D01*
X117795652Y-93893787D01*
X117802506Y-93893076D01*
X117809042Y-93890895D01*
X117809044Y-93890895D01*
X117955164Y-93842145D01*
X117970286Y-93837100D01*
X118120688Y-93744028D01*
X118245645Y-93618853D01*
X118248246Y-93614634D01*
X118305370Y-93574133D01*
X118376293Y-93570901D01*
X118437705Y-93606526D01*
X118444262Y-93614080D01*
X118447862Y-93619898D01*
X118573037Y-93744855D01*
X118579267Y-93748695D01*
X118579268Y-93748696D01*
X118716430Y-93833244D01*
X118723602Y-93837665D01*
X118803345Y-93864114D01*
X118884951Y-93891182D01*
X118884953Y-93891182D01*
X118891479Y-93893347D01*
X118898315Y-93894047D01*
X118898318Y-93894048D01*
X118941371Y-93898459D01*
X118995940Y-93904050D01*
X119771740Y-93904050D01*
X119774986Y-93903713D01*
X119774990Y-93903713D01*
X119870648Y-93893788D01*
X119870652Y-93893787D01*
X119877506Y-93893076D01*
X119884042Y-93890895D01*
X119884044Y-93890895D01*
X119946712Y-93869987D01*
X120044550Y-93837345D01*
X120044553Y-93837345D01*
X120045286Y-93837100D01*
X120045328Y-93837225D01*
X120112068Y-93826970D01*
X120176931Y-93855837D01*
X120202487Y-93885552D01*
X120275804Y-94004031D01*
X120280985Y-94009203D01*
X120283059Y-94011273D01*
X120284025Y-94013038D01*
X120285533Y-94014941D01*
X120285207Y-94015199D01*
X120317139Y-94073554D01*
X120312138Y-94144375D01*
X120283212Y-94189470D01*
X120280556Y-94192131D01*
X120271545Y-94203540D01*
X120188008Y-94339063D01*
X120181864Y-94352241D01*
X120131605Y-94503766D01*
X120128739Y-94517132D01*
X120119248Y-94609770D01*
X120118920Y-94616185D01*
X120118920Y-94690385D01*
X120123395Y-94705624D01*
X120124785Y-94706829D01*
X120132468Y-94708500D01*
X122066805Y-94708500D01*
X122082044Y-94704025D01*
X122083249Y-94702635D01*
X122084920Y-94694952D01*
X122084920Y-94616234D01*
X122084583Y-94609718D01*
X122074845Y-94515868D01*
X122071952Y-94502472D01*
X122021432Y-94351047D01*
X122015267Y-94337885D01*
X121931494Y-94202508D01*
X121922456Y-94191106D01*
X121920781Y-94189433D01*
X121920001Y-94188007D01*
X121917913Y-94185373D01*
X121918364Y-94185016D01*
X121886701Y-94127151D01*
X121891704Y-94056331D01*
X121920621Y-94011246D01*
X121923676Y-94008185D01*
X121928849Y-94003003D01*
X121990047Y-93903722D01*
X122016289Y-93861150D01*
X122016290Y-93861148D01*
X122020129Y-93854920D01*
X122072133Y-93698134D01*
X136541500Y-93698134D01*
X136548255Y-93760316D01*
X136599385Y-93896705D01*
X136686739Y-94013261D01*
X136803295Y-94100615D01*
X136939684Y-94151745D01*
X137001866Y-94158500D01*
X140598134Y-94158500D01*
X140660316Y-94151745D01*
X140796705Y-94100615D01*
X140913261Y-94013261D01*
X141000615Y-93896705D01*
X141051745Y-93760316D01*
X141058500Y-93698134D01*
X143341500Y-93698134D01*
X143348255Y-93760316D01*
X143399385Y-93896705D01*
X143486739Y-94013261D01*
X143603295Y-94100615D01*
X143739684Y-94151745D01*
X143801866Y-94158500D01*
X147398134Y-94158500D01*
X147460316Y-94151745D01*
X147596705Y-94100615D01*
X147713261Y-94013261D01*
X147800615Y-93896705D01*
X147851745Y-93760316D01*
X147858500Y-93698134D01*
X147858500Y-90901866D01*
X147851745Y-90839684D01*
X147800615Y-90703295D01*
X147713261Y-90586739D01*
X147596705Y-90499385D01*
X147460316Y-90448255D01*
X147398134Y-90441500D01*
X143801866Y-90441500D01*
X143739684Y-90448255D01*
X143603295Y-90499385D01*
X143486739Y-90586739D01*
X143399385Y-90703295D01*
X143348255Y-90839684D01*
X143341500Y-90901866D01*
X143341500Y-93698134D01*
X141058500Y-93698134D01*
X141058500Y-90901866D01*
X141051745Y-90839684D01*
X141000615Y-90703295D01*
X140913261Y-90586739D01*
X140796705Y-90499385D01*
X140660316Y-90448255D01*
X140598134Y-90441500D01*
X137001866Y-90441500D01*
X136939684Y-90448255D01*
X136803295Y-90499385D01*
X136686739Y-90586739D01*
X136599385Y-90703295D01*
X136548255Y-90839684D01*
X136541500Y-90901866D01*
X136541500Y-93698134D01*
X122072133Y-93698134D01*
X122074894Y-93689809D01*
X122080180Y-93638221D01*
X122082446Y-93616103D01*
X122085420Y-93587072D01*
X122085420Y-92998134D01*
X122741500Y-92998134D01*
X122748255Y-93060316D01*
X122799385Y-93196705D01*
X122886739Y-93313261D01*
X123003295Y-93400615D01*
X123139684Y-93451745D01*
X123201866Y-93458500D01*
X124998134Y-93458500D01*
X125060316Y-93451745D01*
X125196705Y-93400615D01*
X125313261Y-93313261D01*
X125400615Y-93196705D01*
X125451745Y-93060316D01*
X125458500Y-92998134D01*
X125458500Y-91201866D01*
X125451745Y-91139684D01*
X125400615Y-91003295D01*
X125313261Y-90886739D01*
X125196705Y-90799385D01*
X125060316Y-90748255D01*
X124998134Y-90741500D01*
X123201866Y-90741500D01*
X123139684Y-90748255D01*
X123003295Y-90799385D01*
X122886739Y-90886739D01*
X122799385Y-91003295D01*
X122748255Y-91139684D01*
X122741500Y-91201866D01*
X122741500Y-92998134D01*
X122085420Y-92998134D01*
X122085420Y-92887928D01*
X122074627Y-92783907D01*
X122019574Y-92618893D01*
X121928036Y-92470969D01*
X121922854Y-92465796D01*
X121810104Y-92353242D01*
X121810099Y-92353238D01*
X121804923Y-92348071D01*
X121656840Y-92256791D01*
X121491729Y-92202026D01*
X121484893Y-92201326D01*
X121484890Y-92201325D01*
X121433394Y-92196049D01*
X121388992Y-92191500D01*
X121064966Y-92191500D01*
X120996845Y-92171498D01*
X120950352Y-92117842D01*
X120940248Y-92047568D01*
X120973116Y-91979247D01*
X121003658Y-91946723D01*
X121006413Y-91943881D01*
X121026134Y-91924160D01*
X121028612Y-91920965D01*
X121036329Y-91911931D01*
X121039022Y-91909064D01*
X121103057Y-91872849D01*
X121106166Y-91872526D01*
X121273946Y-91816550D01*
X121424348Y-91723478D01*
X121549305Y-91598303D01*
X121584672Y-91540928D01*
X121638275Y-91453968D01*
X121638276Y-91453966D01*
X121642115Y-91447738D01*
X121697797Y-91279861D01*
X121708500Y-91175400D01*
X121708500Y-89824600D01*
X121707172Y-89811802D01*
X121698238Y-89725692D01*
X121698237Y-89725688D01*
X121697526Y-89718834D01*
X121684025Y-89678365D01*
X121643868Y-89558002D01*
X121641550Y-89551054D01*
X121548478Y-89400652D01*
X121423303Y-89275695D01*
X121417072Y-89271854D01*
X121278968Y-89186725D01*
X121278966Y-89186724D01*
X121272738Y-89182885D01*
X121192995Y-89156436D01*
X121111389Y-89129368D01*
X121111387Y-89129368D01*
X121104861Y-89127203D01*
X121098025Y-89126503D01*
X121098022Y-89126502D01*
X121054969Y-89122091D01*
X121000400Y-89116500D01*
X120099600Y-89116500D01*
X120096354Y-89116837D01*
X120096350Y-89116837D01*
X120000692Y-89126762D01*
X120000688Y-89126763D01*
X119993834Y-89127474D01*
X119987298Y-89129655D01*
X119987296Y-89129655D01*
X119970928Y-89135116D01*
X119826054Y-89183450D01*
X119675652Y-89276522D01*
X119550695Y-89401697D01*
X119546855Y-89407927D01*
X119546854Y-89407928D01*
X119468119Y-89535660D01*
X119457885Y-89552262D01*
X119402203Y-89720139D01*
X119401503Y-89726975D01*
X119401502Y-89726978D01*
X119399463Y-89746882D01*
X119391500Y-89824600D01*
X119391500Y-91175400D01*
X119391837Y-91178646D01*
X119391837Y-91178650D01*
X119399891Y-91256273D01*
X119402474Y-91281166D01*
X119403884Y-91285394D01*
X119398780Y-91355263D01*
X119356147Y-91412034D01*
X119289589Y-91436743D01*
X119280792Y-91437050D01*
X118995940Y-91437050D01*
X118992694Y-91437387D01*
X118992690Y-91437387D01*
X118897032Y-91447312D01*
X118897028Y-91447313D01*
X118890174Y-91448024D01*
X118883638Y-91450205D01*
X118883636Y-91450205D01*
X118736790Y-91499197D01*
X118665841Y-91501781D01*
X118604757Y-91465598D01*
X118572932Y-91402133D01*
X118577321Y-91340005D01*
X118595138Y-91286290D01*
X118598005Y-91272914D01*
X118607672Y-91178562D01*
X118608000Y-91172146D01*
X118608000Y-90772115D01*
X118603525Y-90756876D01*
X118602135Y-90755671D01*
X118594452Y-90754000D01*
X116310116Y-90754000D01*
X116294877Y-90758475D01*
X116293672Y-90759865D01*
X116292001Y-90767548D01*
X116292001Y-91172095D01*
X116292338Y-91178614D01*
X116302257Y-91274206D01*
X116305149Y-91287600D01*
X116356588Y-91441784D01*
X116362762Y-91454962D01*
X116415959Y-91540928D01*
X116434797Y-91609380D01*
X116413636Y-91677149D01*
X116397989Y-91696247D01*
X116372035Y-91722247D01*
X116368195Y-91728477D01*
X116368194Y-91728478D01*
X116312477Y-91818868D01*
X116279225Y-91872812D01*
X116223543Y-92040689D01*
X116212840Y-92145150D01*
X116212840Y-92499640D01*
X116192838Y-92567761D01*
X116139182Y-92614254D01*
X116068908Y-92624358D01*
X116004328Y-92594864D01*
X115979696Y-92565943D01*
X115940277Y-92502243D01*
X115931241Y-92490842D01*
X115816511Y-92376311D01*
X115805100Y-92367299D01*
X115667097Y-92282234D01*
X115653916Y-92276087D01*
X115499630Y-92224912D01*
X115486254Y-92222045D01*
X115391902Y-92212378D01*
X115385485Y-92212050D01*
X114960455Y-92212050D01*
X114945216Y-92216525D01*
X114944011Y-92217915D01*
X114942340Y-92225598D01*
X114942340Y-94534934D01*
X114434340Y-94534934D01*
X114434340Y-93654665D01*
X114429865Y-93639426D01*
X114428475Y-93638221D01*
X114420792Y-93636550D01*
X113298456Y-93636550D01*
X113283217Y-93641025D01*
X113282012Y-93642415D01*
X113280341Y-93650098D01*
X113280341Y-93842145D01*
X104975221Y-93842145D01*
X104975353Y-93110435D01*
X113280340Y-93110435D01*
X113284815Y-93125674D01*
X113286205Y-93126879D01*
X113293888Y-93128550D01*
X114416225Y-93128550D01*
X114431464Y-93124075D01*
X114432669Y-93122685D01*
X114434340Y-93115002D01*
X114434340Y-92230166D01*
X114429865Y-92214927D01*
X114428475Y-92213722D01*
X114420792Y-92212051D01*
X113991245Y-92212051D01*
X113984726Y-92212388D01*
X113889134Y-92222307D01*
X113875740Y-92225199D01*
X113721556Y-92276638D01*
X113708378Y-92282811D01*
X113570533Y-92368113D01*
X113559132Y-92377149D01*
X113444601Y-92491879D01*
X113435589Y-92503290D01*
X113350524Y-92641293D01*
X113344377Y-92654474D01*
X113293202Y-92808760D01*
X113290335Y-92822136D01*
X113280668Y-92916488D01*
X113280340Y-92922905D01*
X113280340Y-93110435D01*
X104975353Y-93110435D01*
X104975738Y-90979627D01*
X104995752Y-90911511D01*
X105049416Y-90865028D01*
X105119692Y-90854937D01*
X105183672Y-90884169D01*
X105186739Y-90888261D01*
X105303295Y-90975615D01*
X105439684Y-91026745D01*
X105501866Y-91033500D01*
X107298134Y-91033500D01*
X107360316Y-91026745D01*
X107496705Y-90975615D01*
X107613261Y-90888261D01*
X107700615Y-90771705D01*
X107728955Y-90696109D01*
X107744598Y-90654382D01*
X107787240Y-90597618D01*
X107853802Y-90572918D01*
X107923150Y-90588126D01*
X107957817Y-90616114D01*
X107986250Y-90648938D01*
X108158126Y-90791632D01*
X108351000Y-90904338D01*
X108559692Y-90984030D01*
X108564760Y-90985061D01*
X108564763Y-90985062D01*
X108654382Y-91003295D01*
X108778597Y-91028567D01*
X108783772Y-91028757D01*
X108783774Y-91028757D01*
X108996673Y-91036564D01*
X108996677Y-91036564D01*
X109001837Y-91036753D01*
X109006957Y-91036097D01*
X109006959Y-91036097D01*
X109218288Y-91009025D01*
X109218289Y-91009025D01*
X109223416Y-91008368D01*
X109240325Y-91003295D01*
X109432429Y-90945661D01*
X109432434Y-90945659D01*
X109437384Y-90944174D01*
X109637994Y-90845896D01*
X109819860Y-90716173D01*
X109978096Y-90558489D01*
X110061896Y-90441869D01*
X110108453Y-90377077D01*
X110109776Y-90378028D01*
X110156645Y-90334857D01*
X110226580Y-90322625D01*
X110292026Y-90350144D01*
X110319875Y-90381994D01*
X110379987Y-90480088D01*
X110526250Y-90648938D01*
X110698126Y-90791632D01*
X110891000Y-90904338D01*
X111099692Y-90984030D01*
X111104760Y-90985061D01*
X111104763Y-90985062D01*
X111194382Y-91003295D01*
X111318597Y-91028567D01*
X111323772Y-91028757D01*
X111323774Y-91028757D01*
X111536673Y-91036564D01*
X111536677Y-91036564D01*
X111541837Y-91036753D01*
X111546957Y-91036097D01*
X111546959Y-91036097D01*
X111758288Y-91009025D01*
X111758289Y-91009025D01*
X111763416Y-91008368D01*
X111780325Y-91003295D01*
X111972429Y-90945661D01*
X111972434Y-90945659D01*
X111977384Y-90944174D01*
X112177994Y-90845896D01*
X112359860Y-90716173D01*
X112518096Y-90558489D01*
X112601896Y-90441869D01*
X112648453Y-90377077D01*
X112649776Y-90378028D01*
X112696645Y-90334857D01*
X112766580Y-90322625D01*
X112832026Y-90350144D01*
X112859875Y-90381994D01*
X112919987Y-90480088D01*
X113066250Y-90648938D01*
X113238126Y-90791632D01*
X113431000Y-90904338D01*
X113639692Y-90984030D01*
X113644760Y-90985061D01*
X113644763Y-90985062D01*
X113734382Y-91003295D01*
X113858597Y-91028567D01*
X113863772Y-91028757D01*
X113863774Y-91028757D01*
X114076673Y-91036564D01*
X114076677Y-91036564D01*
X114081837Y-91036753D01*
X114086957Y-91036097D01*
X114086959Y-91036097D01*
X114298288Y-91009025D01*
X114298289Y-91009025D01*
X114303416Y-91008368D01*
X114320325Y-91003295D01*
X114512429Y-90945661D01*
X114512434Y-90945659D01*
X114517384Y-90944174D01*
X114717994Y-90845896D01*
X114899860Y-90716173D01*
X115058096Y-90558489D01*
X115141896Y-90441869D01*
X115185435Y-90381277D01*
X115188453Y-90377077D01*
X115209320Y-90334857D01*
X115262188Y-90227885D01*
X116292000Y-90227885D01*
X116296475Y-90243124D01*
X116297865Y-90244329D01*
X116305548Y-90246000D01*
X117177885Y-90246000D01*
X117193124Y-90241525D01*
X117194329Y-90240135D01*
X117196000Y-90232452D01*
X117196000Y-90227885D01*
X117704000Y-90227885D01*
X117708475Y-90243124D01*
X117709865Y-90244329D01*
X117717548Y-90246000D01*
X118589884Y-90246000D01*
X118605123Y-90241525D01*
X118606328Y-90240135D01*
X118607999Y-90232452D01*
X118607999Y-89827905D01*
X118607662Y-89821386D01*
X118597743Y-89725794D01*
X118594851Y-89712400D01*
X118543412Y-89558216D01*
X118537239Y-89545038D01*
X118451937Y-89407193D01*
X118442901Y-89395792D01*
X118328171Y-89281261D01*
X118316760Y-89272249D01*
X118178757Y-89187184D01*
X118165576Y-89181037D01*
X118011290Y-89129862D01*
X117997914Y-89126995D01*
X117903562Y-89117328D01*
X117897145Y-89117000D01*
X117722115Y-89117000D01*
X117706876Y-89121475D01*
X117705671Y-89122865D01*
X117704000Y-89130548D01*
X117704000Y-90227885D01*
X117196000Y-90227885D01*
X117196000Y-89135116D01*
X117191525Y-89119877D01*
X117190135Y-89118672D01*
X117182452Y-89117001D01*
X117002905Y-89117001D01*
X116996386Y-89117338D01*
X116900794Y-89127257D01*
X116887400Y-89130149D01*
X116733216Y-89181588D01*
X116720038Y-89187761D01*
X116582193Y-89273063D01*
X116570792Y-89282099D01*
X116456261Y-89396829D01*
X116447249Y-89408240D01*
X116362184Y-89546243D01*
X116356037Y-89559424D01*
X116304862Y-89713710D01*
X116301995Y-89727086D01*
X116292328Y-89821438D01*
X116292000Y-89827855D01*
X116292000Y-90227885D01*
X115262188Y-90227885D01*
X115285136Y-90181453D01*
X115285137Y-90181451D01*
X115287430Y-90176811D01*
X115342192Y-89996569D01*
X115350865Y-89968023D01*
X115350865Y-89968021D01*
X115352370Y-89963069D01*
X115381529Y-89741590D01*
X115381611Y-89738240D01*
X115383074Y-89678365D01*
X115383074Y-89678361D01*
X115383156Y-89675000D01*
X115364852Y-89452361D01*
X115310431Y-89235702D01*
X115221354Y-89030840D01*
X115100014Y-88843277D01*
X114977287Y-88708402D01*
X127859000Y-88708402D01*
X127859212Y-88710975D01*
X127859212Y-88710986D01*
X127864516Y-88775494D01*
X127873678Y-88886937D01*
X127932206Y-89119944D01*
X127961243Y-89186725D01*
X128002177Y-89280866D01*
X128028003Y-89340263D01*
X128112885Y-89471470D01*
X128152755Y-89533099D01*
X128158498Y-89541977D01*
X128320186Y-89719670D01*
X128373370Y-89761672D01*
X128504670Y-89865367D01*
X128504675Y-89865370D01*
X128508724Y-89868568D01*
X128513240Y-89871061D01*
X128513243Y-89871063D01*
X128714526Y-89982177D01*
X128714530Y-89982179D01*
X128719050Y-89984674D01*
X128723919Y-89986398D01*
X128723923Y-89986400D01*
X128940640Y-90063144D01*
X128940644Y-90063145D01*
X128945515Y-90064870D01*
X128950608Y-90065777D01*
X128950611Y-90065778D01*
X129176948Y-90106095D01*
X129176954Y-90106096D01*
X129182037Y-90107001D01*
X129269400Y-90108068D01*
X129417093Y-90109873D01*
X129417095Y-90109873D01*
X129422263Y-90109936D01*
X129659744Y-90073596D01*
X129771997Y-90036906D01*
X129883183Y-90000566D01*
X129883189Y-90000563D01*
X129888101Y-89998958D01*
X129892687Y-89996571D01*
X129892691Y-89996569D01*
X130096607Y-89890416D01*
X130101200Y-89888025D01*
X130181339Y-89827855D01*
X130289185Y-89746882D01*
X130289188Y-89746880D01*
X130293320Y-89743777D01*
X130459301Y-89570088D01*
X130484535Y-89533097D01*
X130539444Y-89488096D01*
X130609968Y-89479925D01*
X130673716Y-89511179D01*
X130694411Y-89535660D01*
X130698498Y-89541977D01*
X130860186Y-89719670D01*
X130913370Y-89761672D01*
X131044670Y-89865367D01*
X131044675Y-89865370D01*
X131048724Y-89868568D01*
X131053240Y-89871061D01*
X131053243Y-89871063D01*
X131254526Y-89982177D01*
X131254530Y-89982179D01*
X131259050Y-89984674D01*
X131263919Y-89986398D01*
X131263923Y-89986400D01*
X131480640Y-90063144D01*
X131480644Y-90063145D01*
X131485515Y-90064870D01*
X131490608Y-90065777D01*
X131490611Y-90065778D01*
X131716948Y-90106095D01*
X131716954Y-90106096D01*
X131722037Y-90107001D01*
X131809400Y-90108068D01*
X131957093Y-90109873D01*
X131957095Y-90109873D01*
X131962263Y-90109936D01*
X132199744Y-90073596D01*
X132311997Y-90036906D01*
X132423183Y-90000566D01*
X132423189Y-90000563D01*
X132428101Y-89998958D01*
X132432687Y-89996571D01*
X132432691Y-89996569D01*
X132636607Y-89890416D01*
X132641200Y-89888025D01*
X132796283Y-89771585D01*
X132862765Y-89746680D01*
X132932161Y-89761672D01*
X132982435Y-89811802D01*
X132989915Y-89828115D01*
X132993731Y-89838293D01*
X132996885Y-89846705D01*
X133084239Y-89963261D01*
X133200795Y-90050615D01*
X133337184Y-90101745D01*
X133399366Y-90108500D01*
X135400634Y-90108500D01*
X135462816Y-90101745D01*
X135599205Y-90050615D01*
X135715761Y-89963261D01*
X135803115Y-89846705D01*
X135854245Y-89710316D01*
X135861000Y-89648134D01*
X135861000Y-88708402D01*
X138759000Y-88708402D01*
X138759212Y-88710975D01*
X138759212Y-88710986D01*
X138764516Y-88775494D01*
X138773678Y-88886937D01*
X138832206Y-89119944D01*
X138861243Y-89186725D01*
X138902177Y-89280866D01*
X138928003Y-89340263D01*
X139012885Y-89471470D01*
X139052755Y-89533099D01*
X139058498Y-89541977D01*
X139220186Y-89719670D01*
X139273370Y-89761672D01*
X139404670Y-89865367D01*
X139404675Y-89865370D01*
X139408724Y-89868568D01*
X139413240Y-89871061D01*
X139413243Y-89871063D01*
X139614526Y-89982177D01*
X139614530Y-89982179D01*
X139619050Y-89984674D01*
X139623919Y-89986398D01*
X139623923Y-89986400D01*
X139840640Y-90063144D01*
X139840644Y-90063145D01*
X139845515Y-90064870D01*
X139850608Y-90065777D01*
X139850611Y-90065778D01*
X140076948Y-90106095D01*
X140076954Y-90106096D01*
X140082037Y-90107001D01*
X140169400Y-90108068D01*
X140317093Y-90109873D01*
X140317095Y-90109873D01*
X140322263Y-90109936D01*
X140559744Y-90073596D01*
X140671997Y-90036906D01*
X140783183Y-90000566D01*
X140783189Y-90000563D01*
X140788101Y-89998958D01*
X140792687Y-89996571D01*
X140792691Y-89996569D01*
X140996607Y-89890416D01*
X141001200Y-89888025D01*
X141081339Y-89827855D01*
X141189185Y-89746882D01*
X141189188Y-89746880D01*
X141193320Y-89743777D01*
X141359301Y-89570088D01*
X141384535Y-89533097D01*
X141439444Y-89488096D01*
X141509968Y-89479925D01*
X141573716Y-89511179D01*
X141594411Y-89535660D01*
X141598498Y-89541977D01*
X141760186Y-89719670D01*
X141813370Y-89761672D01*
X141944670Y-89865367D01*
X141944675Y-89865370D01*
X141948724Y-89868568D01*
X141953240Y-89871061D01*
X141953243Y-89871063D01*
X142154526Y-89982177D01*
X142154530Y-89982179D01*
X142159050Y-89984674D01*
X142163919Y-89986398D01*
X142163923Y-89986400D01*
X142380640Y-90063144D01*
X142380644Y-90063145D01*
X142385515Y-90064870D01*
X142390608Y-90065777D01*
X142390611Y-90065778D01*
X142616948Y-90106095D01*
X142616954Y-90106096D01*
X142622037Y-90107001D01*
X142709400Y-90108068D01*
X142857093Y-90109873D01*
X142857095Y-90109873D01*
X142862263Y-90109936D01*
X143099744Y-90073596D01*
X143211997Y-90036906D01*
X143323183Y-90000566D01*
X143323189Y-90000563D01*
X143328101Y-89998958D01*
X143332687Y-89996571D01*
X143332691Y-89996569D01*
X143536607Y-89890416D01*
X143541200Y-89888025D01*
X143696283Y-89771585D01*
X143762765Y-89746680D01*
X143832161Y-89761672D01*
X143882435Y-89811802D01*
X143889915Y-89828115D01*
X143893731Y-89838293D01*
X143896885Y-89846705D01*
X143984239Y-89963261D01*
X144100795Y-90050615D01*
X144237184Y-90101745D01*
X144299366Y-90108500D01*
X146300634Y-90108500D01*
X146362816Y-90101745D01*
X146499205Y-90050615D01*
X146615761Y-89963261D01*
X146703115Y-89846705D01*
X146754245Y-89710316D01*
X146761000Y-89648134D01*
X146761000Y-87551866D01*
X146754245Y-87489684D01*
X146703115Y-87353295D01*
X146615761Y-87236739D01*
X146499205Y-87149385D01*
X146362816Y-87098255D01*
X146300634Y-87091500D01*
X144299366Y-87091500D01*
X144237184Y-87098255D01*
X144100795Y-87149385D01*
X143984239Y-87236739D01*
X143896885Y-87353295D01*
X143889427Y-87373189D01*
X143846787Y-87429953D01*
X143780226Y-87454654D01*
X143710877Y-87439447D01*
X143693353Y-87427842D01*
X143575330Y-87334633D01*
X143575325Y-87334630D01*
X143571276Y-87331432D01*
X143566760Y-87328939D01*
X143566757Y-87328937D01*
X143365474Y-87217823D01*
X143365470Y-87217821D01*
X143360950Y-87215326D01*
X143356081Y-87213602D01*
X143356077Y-87213600D01*
X143139360Y-87136856D01*
X143139356Y-87136855D01*
X143134485Y-87135130D01*
X143129392Y-87134223D01*
X143129389Y-87134222D01*
X142903052Y-87093905D01*
X142903046Y-87093904D01*
X142897963Y-87092999D01*
X142805474Y-87091869D01*
X142662907Y-87090127D01*
X142662905Y-87090127D01*
X142657737Y-87090064D01*
X142420256Y-87126404D01*
X142308003Y-87163094D01*
X142196817Y-87199434D01*
X142196811Y-87199437D01*
X142191899Y-87201042D01*
X142187313Y-87203429D01*
X142187309Y-87203431D01*
X141983393Y-87309584D01*
X141978800Y-87311975D01*
X141786680Y-87456223D01*
X141620699Y-87629912D01*
X141595465Y-87666903D01*
X141540556Y-87711904D01*
X141470032Y-87720075D01*
X141406284Y-87688821D01*
X141385589Y-87664340D01*
X141384311Y-87662365D01*
X141381502Y-87658023D01*
X141219814Y-87480330D01*
X141142983Y-87419653D01*
X141035330Y-87334633D01*
X141035325Y-87334630D01*
X141031276Y-87331432D01*
X141026760Y-87328939D01*
X141026757Y-87328937D01*
X140825474Y-87217823D01*
X140825470Y-87217821D01*
X140820950Y-87215326D01*
X140816081Y-87213602D01*
X140816077Y-87213600D01*
X140599360Y-87136856D01*
X140599356Y-87136855D01*
X140594485Y-87135130D01*
X140589392Y-87134223D01*
X140589389Y-87134222D01*
X140363052Y-87093905D01*
X140363046Y-87093904D01*
X140357963Y-87092999D01*
X140265474Y-87091869D01*
X140122907Y-87090127D01*
X140122905Y-87090127D01*
X140117737Y-87090064D01*
X139880256Y-87126404D01*
X139768003Y-87163094D01*
X139656817Y-87199434D01*
X139656811Y-87199437D01*
X139651899Y-87201042D01*
X139647313Y-87203429D01*
X139647309Y-87203431D01*
X139443393Y-87309584D01*
X139438800Y-87311975D01*
X139246680Y-87456223D01*
X139080699Y-87629912D01*
X139077785Y-87634184D01*
X138948597Y-87823566D01*
X138945314Y-87828378D01*
X138844163Y-88046290D01*
X138779960Y-88277798D01*
X138779411Y-88282935D01*
X138760303Y-88461739D01*
X138759000Y-88473928D01*
X138759000Y-88708402D01*
X135861000Y-88708402D01*
X135861000Y-87551866D01*
X135854245Y-87489684D01*
X135803115Y-87353295D01*
X135715761Y-87236739D01*
X135599205Y-87149385D01*
X135462816Y-87098255D01*
X135400634Y-87091500D01*
X133399366Y-87091500D01*
X133337184Y-87098255D01*
X133200795Y-87149385D01*
X133084239Y-87236739D01*
X132996885Y-87353295D01*
X132989427Y-87373189D01*
X132946787Y-87429953D01*
X132880226Y-87454654D01*
X132810877Y-87439447D01*
X132793353Y-87427842D01*
X132675330Y-87334633D01*
X132675325Y-87334630D01*
X132671276Y-87331432D01*
X132666760Y-87328939D01*
X132666757Y-87328937D01*
X132465474Y-87217823D01*
X132465470Y-87217821D01*
X132460950Y-87215326D01*
X132456081Y-87213602D01*
X132456077Y-87213600D01*
X132239360Y-87136856D01*
X132239356Y-87136855D01*
X132234485Y-87135130D01*
X132229392Y-87134223D01*
X132229389Y-87134222D01*
X132003052Y-87093905D01*
X132003046Y-87093904D01*
X131997963Y-87092999D01*
X131905474Y-87091869D01*
X131762907Y-87090127D01*
X131762905Y-87090127D01*
X131757737Y-87090064D01*
X131520256Y-87126404D01*
X131408003Y-87163094D01*
X131296817Y-87199434D01*
X131296811Y-87199437D01*
X131291899Y-87201042D01*
X131287313Y-87203429D01*
X131287309Y-87203431D01*
X131083393Y-87309584D01*
X131078800Y-87311975D01*
X130886680Y-87456223D01*
X130720699Y-87629912D01*
X130695465Y-87666903D01*
X130640556Y-87711904D01*
X130570032Y-87720075D01*
X130506284Y-87688821D01*
X130485589Y-87664340D01*
X130484311Y-87662365D01*
X130481502Y-87658023D01*
X130319814Y-87480330D01*
X130242983Y-87419653D01*
X130135330Y-87334633D01*
X130135325Y-87334630D01*
X130131276Y-87331432D01*
X130126760Y-87328939D01*
X130126757Y-87328937D01*
X129925474Y-87217823D01*
X129925470Y-87217821D01*
X129920950Y-87215326D01*
X129916081Y-87213602D01*
X129916077Y-87213600D01*
X129699360Y-87136856D01*
X129699356Y-87136855D01*
X129694485Y-87135130D01*
X129689392Y-87134223D01*
X129689389Y-87134222D01*
X129463052Y-87093905D01*
X129463046Y-87093904D01*
X129457963Y-87092999D01*
X129365474Y-87091869D01*
X129222907Y-87090127D01*
X129222905Y-87090127D01*
X129217737Y-87090064D01*
X128980256Y-87126404D01*
X128868003Y-87163094D01*
X128756817Y-87199434D01*
X128756811Y-87199437D01*
X128751899Y-87201042D01*
X128747313Y-87203429D01*
X128747309Y-87203431D01*
X128543393Y-87309584D01*
X128538800Y-87311975D01*
X128346680Y-87456223D01*
X128180699Y-87629912D01*
X128177785Y-87634184D01*
X128048597Y-87823566D01*
X128045314Y-87828378D01*
X127944163Y-88046290D01*
X127879960Y-88277798D01*
X127879411Y-88282935D01*
X127860303Y-88461739D01*
X127859000Y-88473928D01*
X127859000Y-88708402D01*
X114977287Y-88708402D01*
X114949670Y-88678051D01*
X114945619Y-88674852D01*
X114945615Y-88674848D01*
X114778414Y-88542800D01*
X114778410Y-88542798D01*
X114774359Y-88539598D01*
X114578789Y-88431638D01*
X114573920Y-88429914D01*
X114573916Y-88429912D01*
X114373087Y-88358795D01*
X114373083Y-88358794D01*
X114368212Y-88357069D01*
X114363119Y-88356162D01*
X114363116Y-88356161D01*
X114153373Y-88318800D01*
X114153367Y-88318799D01*
X114148284Y-88317894D01*
X114074452Y-88316992D01*
X113930081Y-88315228D01*
X113930079Y-88315228D01*
X113924911Y-88315165D01*
X113704091Y-88348955D01*
X113491756Y-88418357D01*
X113461443Y-88434137D01*
X113378557Y-88477285D01*
X113293607Y-88521507D01*
X113289474Y-88524610D01*
X113289471Y-88524612D01*
X113119100Y-88652530D01*
X113114965Y-88655635D01*
X113111393Y-88659373D01*
X113003729Y-88772037D01*
X112960629Y-88817138D01*
X112853201Y-88974621D01*
X112798293Y-89019621D01*
X112727768Y-89027792D01*
X112664021Y-88996538D01*
X112643324Y-88972054D01*
X112562822Y-88847617D01*
X112562820Y-88847614D01*
X112560014Y-88843277D01*
X112409670Y-88678051D01*
X112405619Y-88674852D01*
X112405615Y-88674848D01*
X112238414Y-88542800D01*
X112238410Y-88542798D01*
X112234359Y-88539598D01*
X112038789Y-88431638D01*
X112033920Y-88429914D01*
X112033916Y-88429912D01*
X111833087Y-88358795D01*
X111833083Y-88358794D01*
X111828212Y-88357069D01*
X111823119Y-88356162D01*
X111823116Y-88356161D01*
X111613373Y-88318800D01*
X111613367Y-88318799D01*
X111608284Y-88317894D01*
X111534452Y-88316992D01*
X111390081Y-88315228D01*
X111390079Y-88315228D01*
X111384911Y-88315165D01*
X111164091Y-88348955D01*
X110951756Y-88418357D01*
X110921443Y-88434137D01*
X110838557Y-88477285D01*
X110753607Y-88521507D01*
X110749474Y-88524610D01*
X110749471Y-88524612D01*
X110579100Y-88652530D01*
X110574965Y-88655635D01*
X110571393Y-88659373D01*
X110463729Y-88772037D01*
X110420629Y-88817138D01*
X110313201Y-88974621D01*
X110258293Y-89019621D01*
X110187768Y-89027792D01*
X110124021Y-88996538D01*
X110103324Y-88972054D01*
X110022822Y-88847617D01*
X110022820Y-88847614D01*
X110020014Y-88843277D01*
X109869670Y-88678051D01*
X109865619Y-88674852D01*
X109865615Y-88674848D01*
X109698414Y-88542800D01*
X109698410Y-88542798D01*
X109694359Y-88539598D01*
X109498789Y-88431638D01*
X109493920Y-88429914D01*
X109493916Y-88429912D01*
X109293087Y-88358795D01*
X109293083Y-88358794D01*
X109288212Y-88357069D01*
X109283119Y-88356162D01*
X109283116Y-88356161D01*
X109073373Y-88318800D01*
X109073367Y-88318799D01*
X109068284Y-88317894D01*
X108994452Y-88316992D01*
X108850081Y-88315228D01*
X108850079Y-88315228D01*
X108844911Y-88315165D01*
X108624091Y-88348955D01*
X108411756Y-88418357D01*
X108381443Y-88434137D01*
X108298557Y-88477285D01*
X108213607Y-88521507D01*
X108209474Y-88524610D01*
X108209471Y-88524612D01*
X108039100Y-88652530D01*
X108034965Y-88655635D01*
X107978537Y-88714684D01*
X107954283Y-88740064D01*
X107892759Y-88775494D01*
X107821846Y-88772037D01*
X107764060Y-88730791D01*
X107745207Y-88697243D01*
X107703767Y-88586703D01*
X107700615Y-88578295D01*
X107613261Y-88461739D01*
X107496705Y-88374385D01*
X107360316Y-88323255D01*
X107298134Y-88316500D01*
X105501866Y-88316500D01*
X105439684Y-88323255D01*
X105303295Y-88374385D01*
X105186739Y-88461739D01*
X105186593Y-88461545D01*
X105128993Y-88492998D01*
X105058178Y-88487933D01*
X105001342Y-88445386D01*
X104976531Y-88378866D01*
X104976210Y-88369854D01*
X104976602Y-86200000D01*
X110886496Y-86200000D01*
X110906458Y-86389928D01*
X110965473Y-86571556D01*
X111060960Y-86736944D01*
X111188747Y-86878866D01*
X111343248Y-86991118D01*
X111349276Y-86993802D01*
X111349278Y-86993803D01*
X111511681Y-87066109D01*
X111517712Y-87068794D01*
X111611113Y-87088647D01*
X111698056Y-87107128D01*
X111698061Y-87107128D01*
X111704513Y-87108500D01*
X111895487Y-87108500D01*
X111901939Y-87107128D01*
X111901944Y-87107128D01*
X111988887Y-87088647D01*
X112082288Y-87068794D01*
X112088319Y-87066109D01*
X112250722Y-86993803D01*
X112250724Y-86993802D01*
X112256752Y-86991118D01*
X112411253Y-86878866D01*
X112539040Y-86736944D01*
X112634527Y-86571556D01*
X112693542Y-86389928D01*
X112713504Y-86200000D01*
X112693542Y-86010072D01*
X112634527Y-85828444D01*
X112539040Y-85663056D01*
X112521363Y-85643423D01*
X112415675Y-85526045D01*
X112415674Y-85526044D01*
X112411253Y-85521134D01*
X112256752Y-85408882D01*
X112250724Y-85406198D01*
X112250722Y-85406197D01*
X112088319Y-85333891D01*
X112088318Y-85333891D01*
X112082288Y-85331206D01*
X111988887Y-85311353D01*
X111901944Y-85292872D01*
X111901939Y-85292872D01*
X111895487Y-85291500D01*
X111704513Y-85291500D01*
X111698061Y-85292872D01*
X111698056Y-85292872D01*
X111611113Y-85311353D01*
X111517712Y-85331206D01*
X111511682Y-85333891D01*
X111511681Y-85333891D01*
X111349278Y-85406197D01*
X111349276Y-85406198D01*
X111343248Y-85408882D01*
X111188747Y-85521134D01*
X111184326Y-85526044D01*
X111184325Y-85526045D01*
X111078638Y-85643423D01*
X111060960Y-85663056D01*
X110965473Y-85828444D01*
X110906458Y-86010072D01*
X110886496Y-86200000D01*
X104976602Y-86200000D01*
X104976927Y-84400000D01*
X118737395Y-84400000D01*
X118756577Y-84619249D01*
X118813539Y-84831836D01*
X118815861Y-84836816D01*
X118815862Y-84836818D01*
X118877167Y-84968285D01*
X118906552Y-85031302D01*
X119032788Y-85211587D01*
X119188413Y-85367212D01*
X119192921Y-85370369D01*
X119192924Y-85370371D01*
X119364188Y-85490291D01*
X119368697Y-85493448D01*
X119373679Y-85495771D01*
X119373684Y-85495774D01*
X119438601Y-85526045D01*
X119568164Y-85586461D01*
X119573472Y-85587883D01*
X119573474Y-85587884D01*
X119775436Y-85641999D01*
X119775437Y-85641999D01*
X119780751Y-85643423D01*
X120000000Y-85662605D01*
X120219249Y-85643423D01*
X120224563Y-85641999D01*
X120224564Y-85641999D01*
X120426526Y-85587884D01*
X120426528Y-85587883D01*
X120431836Y-85586461D01*
X120561399Y-85526045D01*
X120626316Y-85495774D01*
X120626321Y-85495771D01*
X120631303Y-85493448D01*
X120635812Y-85490291D01*
X120807076Y-85370371D01*
X120807079Y-85370369D01*
X120811587Y-85367212D01*
X120967212Y-85211587D01*
X121093448Y-85031302D01*
X121122834Y-84968285D01*
X121184138Y-84836818D01*
X121184139Y-84836816D01*
X121186461Y-84831836D01*
X121236612Y-84644669D01*
X126392001Y-84644669D01*
X126392371Y-84651490D01*
X126397895Y-84702352D01*
X126401521Y-84717604D01*
X126446676Y-84838054D01*
X126455214Y-84853649D01*
X126531715Y-84955724D01*
X126544276Y-84968285D01*
X126646351Y-85044786D01*
X126661946Y-85053324D01*
X126782394Y-85098478D01*
X126797649Y-85102105D01*
X126848514Y-85107631D01*
X126855328Y-85108000D01*
X131568385Y-85108000D01*
X131583624Y-85103525D01*
X131584829Y-85102135D01*
X131586500Y-85094452D01*
X131586500Y-85089884D01*
X132094500Y-85089884D01*
X132098975Y-85105123D01*
X132100365Y-85106328D01*
X132108048Y-85107999D01*
X136825669Y-85107999D01*
X136832490Y-85107629D01*
X136883352Y-85102105D01*
X136898604Y-85098479D01*
X137019054Y-85053324D01*
X137034649Y-85044786D01*
X137136724Y-84968285D01*
X137149285Y-84955724D01*
X137189674Y-84901833D01*
X137246533Y-84859318D01*
X137317351Y-84854292D01*
X137379645Y-84888352D01*
X137391326Y-84901833D01*
X137431715Y-84955724D01*
X137444276Y-84968285D01*
X137546351Y-85044786D01*
X137561946Y-85053324D01*
X137682394Y-85098478D01*
X137697649Y-85102105D01*
X137748514Y-85107631D01*
X137755328Y-85108000D01*
X142468385Y-85108000D01*
X142483624Y-85103525D01*
X142484829Y-85102135D01*
X142486500Y-85094452D01*
X142486500Y-85089884D01*
X142994500Y-85089884D01*
X142998975Y-85105123D01*
X143000365Y-85106328D01*
X143008048Y-85107999D01*
X147725669Y-85107999D01*
X147732490Y-85107629D01*
X147783352Y-85102105D01*
X147798604Y-85098479D01*
X147919054Y-85053324D01*
X147934649Y-85044786D01*
X148036724Y-84968285D01*
X148049285Y-84955724D01*
X148125786Y-84853649D01*
X148134324Y-84838054D01*
X148179478Y-84717606D01*
X148183105Y-84702351D01*
X148188631Y-84651486D01*
X148189000Y-84644672D01*
X148189000Y-80431615D01*
X148184525Y-80416376D01*
X148183135Y-80415171D01*
X148175452Y-80413500D01*
X143012615Y-80413500D01*
X142997376Y-80417975D01*
X142996171Y-80419365D01*
X142994500Y-80427048D01*
X142994500Y-85089884D01*
X142486500Y-85089884D01*
X142486500Y-80431615D01*
X142482025Y-80416376D01*
X142480635Y-80415171D01*
X142472952Y-80413500D01*
X137292001Y-80413500D01*
X137292001Y-80409993D01*
X137289000Y-80410100D01*
X137289000Y-80413500D01*
X132112615Y-80413500D01*
X132097376Y-80417975D01*
X132096171Y-80419365D01*
X132094500Y-80427048D01*
X132094500Y-85089884D01*
X131586500Y-85089884D01*
X131586500Y-80431615D01*
X131582025Y-80416376D01*
X131580635Y-80415171D01*
X131572952Y-80413500D01*
X126410116Y-80413500D01*
X126394877Y-80417975D01*
X126393672Y-80419365D01*
X126392001Y-80427048D01*
X126392001Y-84644669D01*
X121236612Y-84644669D01*
X121243423Y-84619249D01*
X121262605Y-84400000D01*
X121243423Y-84180751D01*
X121186461Y-83968164D01*
X121145888Y-83881155D01*
X121135227Y-83810963D01*
X121164207Y-83746151D01*
X121223627Y-83707294D01*
X121294621Y-83706731D01*
X121313333Y-83713710D01*
X121463353Y-83783666D01*
X121473645Y-83787412D01*
X121675523Y-83841505D01*
X121686318Y-83843408D01*
X121894525Y-83861624D01*
X121905475Y-83861624D01*
X122113682Y-83843408D01*
X122124477Y-83841505D01*
X122326355Y-83787412D01*
X122336647Y-83783666D01*
X122526065Y-83695339D01*
X122535560Y-83689856D01*
X122576646Y-83661087D01*
X122585021Y-83650610D01*
X122577953Y-83637163D01*
X121629885Y-82689095D01*
X121595859Y-82626783D01*
X121597694Y-82601132D01*
X122264408Y-82601132D01*
X122264539Y-82602965D01*
X122268790Y-82609580D01*
X122937884Y-83278674D01*
X122949659Y-83285104D01*
X122961674Y-83275808D01*
X122989856Y-83235560D01*
X122995339Y-83226064D01*
X123083666Y-83036647D01*
X123087412Y-83026355D01*
X123141505Y-82824477D01*
X123143408Y-82813682D01*
X123161624Y-82605475D01*
X123161624Y-82594525D01*
X123143408Y-82386318D01*
X123141505Y-82375523D01*
X123087412Y-82173645D01*
X123083666Y-82163353D01*
X122995339Y-81973936D01*
X122989856Y-81964440D01*
X122961087Y-81923354D01*
X122950610Y-81914979D01*
X122937162Y-81922048D01*
X122272022Y-82587188D01*
X122264408Y-82601132D01*
X121597694Y-82601132D01*
X121600924Y-82555968D01*
X121629885Y-82510905D01*
X122578674Y-81562116D01*
X122585104Y-81550341D01*
X122575808Y-81538326D01*
X122535560Y-81510144D01*
X122526065Y-81504661D01*
X122336647Y-81416334D01*
X122326355Y-81412588D01*
X122124477Y-81358495D01*
X122113682Y-81356592D01*
X121905475Y-81338376D01*
X121894525Y-81338376D01*
X121686318Y-81356592D01*
X121675523Y-81358495D01*
X121473645Y-81412588D01*
X121463353Y-81416334D01*
X121312627Y-81486619D01*
X121242435Y-81497280D01*
X121177623Y-81468300D01*
X121138766Y-81408880D01*
X121138203Y-81337886D01*
X121145183Y-81319173D01*
X121183664Y-81236652D01*
X121187412Y-81226355D01*
X121241505Y-81024477D01*
X121243408Y-81013682D01*
X121261624Y-80805475D01*
X121261624Y-80794525D01*
X121243408Y-80586318D01*
X121241505Y-80575523D01*
X121187412Y-80373645D01*
X121183666Y-80363353D01*
X121095339Y-80173936D01*
X121089856Y-80164440D01*
X121061087Y-80123354D01*
X121050610Y-80114979D01*
X121037162Y-80122048D01*
X119321326Y-81837884D01*
X119314896Y-81849659D01*
X119324192Y-81861674D01*
X119364440Y-81889856D01*
X119373935Y-81895339D01*
X119563353Y-81983666D01*
X119573645Y-81987412D01*
X119775523Y-82041505D01*
X119786318Y-82043408D01*
X119994525Y-82061624D01*
X120005475Y-82061624D01*
X120213682Y-82043408D01*
X120224477Y-82041505D01*
X120426355Y-81987412D01*
X120436647Y-81983666D01*
X120587372Y-81913381D01*
X120657563Y-81902720D01*
X120722376Y-81931700D01*
X120761233Y-81991119D01*
X120761796Y-82062114D01*
X120754817Y-82080826D01*
X120716334Y-82163353D01*
X120712588Y-82173645D01*
X120658495Y-82375523D01*
X120656592Y-82386318D01*
X120638376Y-82594525D01*
X120638376Y-82605475D01*
X120656592Y-82813682D01*
X120658495Y-82824477D01*
X120712588Y-83026355D01*
X120716334Y-83036647D01*
X120754488Y-83118468D01*
X120765149Y-83188660D01*
X120736169Y-83253472D01*
X120676749Y-83292329D01*
X120605755Y-83292892D01*
X120587043Y-83285913D01*
X120436818Y-83215862D01*
X120436817Y-83215861D01*
X120431836Y-83213539D01*
X120426528Y-83212117D01*
X120426526Y-83212116D01*
X120224564Y-83158001D01*
X120224563Y-83158001D01*
X120219249Y-83156577D01*
X120000000Y-83137395D01*
X119780751Y-83156577D01*
X119775437Y-83158001D01*
X119775436Y-83158001D01*
X119573474Y-83212116D01*
X119573472Y-83212117D01*
X119568164Y-83213539D01*
X119563184Y-83215861D01*
X119563182Y-83215862D01*
X119373679Y-83304229D01*
X119373676Y-83304231D01*
X119368698Y-83306552D01*
X119188413Y-83432788D01*
X119032788Y-83588413D01*
X118906552Y-83768698D01*
X118904231Y-83773676D01*
X118904229Y-83773679D01*
X118854112Y-83881155D01*
X118813539Y-83968164D01*
X118756577Y-84180751D01*
X118737395Y-84400000D01*
X104976927Y-84400000D01*
X104977252Y-82602965D01*
X104977577Y-80805475D01*
X118738376Y-80805475D01*
X118756592Y-81013682D01*
X118758495Y-81024477D01*
X118812588Y-81226355D01*
X118816334Y-81236647D01*
X118904661Y-81426064D01*
X118910144Y-81435560D01*
X118938913Y-81476646D01*
X118949390Y-81485021D01*
X118962838Y-81477952D01*
X119627978Y-80812812D01*
X119635592Y-80798868D01*
X119635461Y-80797035D01*
X119631210Y-80790420D01*
X118962116Y-80121326D01*
X118950341Y-80114896D01*
X118938326Y-80124192D01*
X118910144Y-80164440D01*
X118904661Y-80173936D01*
X118816334Y-80363353D01*
X118812588Y-80373645D01*
X118758495Y-80575523D01*
X118756592Y-80586318D01*
X118738376Y-80794525D01*
X118738376Y-80805475D01*
X104977577Y-80805475D01*
X104977768Y-79749390D01*
X119314979Y-79749390D01*
X119322048Y-79762838D01*
X119987188Y-80427978D01*
X120001132Y-80435592D01*
X120002965Y-80435461D01*
X120009580Y-80431210D01*
X120553405Y-79887385D01*
X126392000Y-79887385D01*
X126396475Y-79902624D01*
X126397865Y-79903829D01*
X126405548Y-79905500D01*
X131568385Y-79905500D01*
X131583624Y-79901025D01*
X131584829Y-79899635D01*
X131586500Y-79891952D01*
X131586500Y-79887385D01*
X132094500Y-79887385D01*
X132098975Y-79902624D01*
X132100365Y-79903829D01*
X132108048Y-79905500D01*
X137288999Y-79905500D01*
X137288999Y-79909007D01*
X137292000Y-79908900D01*
X137292000Y-79905500D01*
X142468385Y-79905500D01*
X142483624Y-79901025D01*
X142484829Y-79899635D01*
X142486500Y-79891952D01*
X142486500Y-79887385D01*
X142994500Y-79887385D01*
X142998975Y-79902624D01*
X143000365Y-79903829D01*
X143008048Y-79905500D01*
X148170884Y-79905500D01*
X148186123Y-79901025D01*
X148187328Y-79899635D01*
X148188999Y-79891952D01*
X148188999Y-75674331D01*
X148188629Y-75667510D01*
X148183105Y-75616648D01*
X148179479Y-75601396D01*
X148134324Y-75480946D01*
X148125786Y-75465351D01*
X148049285Y-75363276D01*
X148036724Y-75350715D01*
X147934649Y-75274214D01*
X147919054Y-75265676D01*
X147798606Y-75220522D01*
X147783351Y-75216895D01*
X147732486Y-75211369D01*
X147725672Y-75211000D01*
X143012615Y-75211000D01*
X142997376Y-75215475D01*
X142996171Y-75216865D01*
X142994500Y-75224548D01*
X142994500Y-79887385D01*
X142486500Y-79887385D01*
X142486500Y-75229116D01*
X142482025Y-75213877D01*
X142480635Y-75212672D01*
X142472952Y-75211001D01*
X137755331Y-75211001D01*
X137748510Y-75211371D01*
X137697648Y-75216895D01*
X137682396Y-75220521D01*
X137561946Y-75265676D01*
X137546351Y-75274214D01*
X137444276Y-75350715D01*
X137431715Y-75363276D01*
X137391326Y-75417167D01*
X137334467Y-75459682D01*
X137263649Y-75464708D01*
X137201355Y-75430648D01*
X137189674Y-75417167D01*
X137149285Y-75363276D01*
X137136724Y-75350715D01*
X137034649Y-75274214D01*
X137019054Y-75265676D01*
X136898606Y-75220522D01*
X136883351Y-75216895D01*
X136832486Y-75211369D01*
X136825672Y-75211000D01*
X132112615Y-75211000D01*
X132097376Y-75215475D01*
X132096171Y-75216865D01*
X132094500Y-75224548D01*
X132094500Y-79887385D01*
X131586500Y-79887385D01*
X131586500Y-75229116D01*
X131582025Y-75213877D01*
X131580635Y-75212672D01*
X131572952Y-75211001D01*
X126855331Y-75211001D01*
X126848510Y-75211371D01*
X126797648Y-75216895D01*
X126782396Y-75220521D01*
X126661946Y-75265676D01*
X126646351Y-75274214D01*
X126544276Y-75350715D01*
X126531715Y-75363276D01*
X126455214Y-75465351D01*
X126446676Y-75480946D01*
X126401522Y-75601394D01*
X126397895Y-75616649D01*
X126392369Y-75667514D01*
X126392000Y-75674328D01*
X126392000Y-79887385D01*
X120553405Y-79887385D01*
X120678674Y-79762116D01*
X120685104Y-79750341D01*
X120675808Y-79738326D01*
X120635560Y-79710144D01*
X120626065Y-79704661D01*
X120436647Y-79616334D01*
X120426355Y-79612588D01*
X120224477Y-79558495D01*
X120213682Y-79556592D01*
X120005475Y-79538376D01*
X119994525Y-79538376D01*
X119786318Y-79556592D01*
X119775523Y-79558495D01*
X119573645Y-79612588D01*
X119563353Y-79616334D01*
X119373936Y-79704661D01*
X119364440Y-79710144D01*
X119323354Y-79738913D01*
X119314979Y-79749390D01*
X104977768Y-79749390D01*
X104978697Y-74607655D01*
X105439858Y-74607655D01*
X105475104Y-74866638D01*
X105476412Y-74871124D01*
X105476412Y-74871126D01*
X105496098Y-74938664D01*
X105548243Y-75117567D01*
X105657668Y-75354928D01*
X105660231Y-75358837D01*
X105798410Y-75569596D01*
X105798414Y-75569601D01*
X105800976Y-75573509D01*
X105975018Y-75768506D01*
X106175970Y-75935637D01*
X106179973Y-75938066D01*
X106395422Y-76068804D01*
X106395426Y-76068806D01*
X106399419Y-76071229D01*
X106640455Y-76172303D01*
X106893783Y-76236641D01*
X106898434Y-76237109D01*
X106898438Y-76237110D01*
X107091308Y-76256531D01*
X107110867Y-76258500D01*
X107266354Y-76258500D01*
X107268679Y-76258327D01*
X107268685Y-76258327D01*
X107456000Y-76244407D01*
X107456004Y-76244406D01*
X107460652Y-76244061D01*
X107465200Y-76243032D01*
X107465206Y-76243031D01*
X107651601Y-76200853D01*
X107715577Y-76186377D01*
X107751769Y-76172303D01*
X107954824Y-76093340D01*
X107954827Y-76093339D01*
X107959177Y-76091647D01*
X108186098Y-75961951D01*
X108391357Y-75800138D01*
X108570443Y-75609763D01*
X108694700Y-75430648D01*
X108716759Y-75398851D01*
X108716761Y-75398848D01*
X108719424Y-75395009D01*
X108739190Y-75354928D01*
X108832960Y-75164781D01*
X108832961Y-75164778D01*
X108835025Y-75160593D01*
X108914707Y-74911665D01*
X108956721Y-74653693D01*
X108957324Y-74607655D01*
X164439858Y-74607655D01*
X164475104Y-74866638D01*
X164476412Y-74871124D01*
X164476412Y-74871126D01*
X164496098Y-74938664D01*
X164548243Y-75117567D01*
X164657668Y-75354928D01*
X164660231Y-75358837D01*
X164798410Y-75569596D01*
X164798414Y-75569601D01*
X164800976Y-75573509D01*
X164975018Y-75768506D01*
X165175970Y-75935637D01*
X165179973Y-75938066D01*
X165395422Y-76068804D01*
X165395426Y-76068806D01*
X165399419Y-76071229D01*
X165640455Y-76172303D01*
X165893783Y-76236641D01*
X165898434Y-76237109D01*
X165898438Y-76237110D01*
X166091308Y-76256531D01*
X166110867Y-76258500D01*
X166266354Y-76258500D01*
X166268679Y-76258327D01*
X166268685Y-76258327D01*
X166456000Y-76244407D01*
X166456004Y-76244406D01*
X166460652Y-76244061D01*
X166465200Y-76243032D01*
X166465206Y-76243031D01*
X166651601Y-76200853D01*
X166715577Y-76186377D01*
X166751769Y-76172303D01*
X166954824Y-76093340D01*
X166954827Y-76093339D01*
X166959177Y-76091647D01*
X167186098Y-75961951D01*
X167391357Y-75800138D01*
X167570443Y-75609763D01*
X167694700Y-75430648D01*
X167716759Y-75398851D01*
X167716761Y-75398848D01*
X167719424Y-75395009D01*
X167739190Y-75354928D01*
X167832960Y-75164781D01*
X167832961Y-75164778D01*
X167835025Y-75160593D01*
X167914707Y-74911665D01*
X167956721Y-74653693D01*
X167960142Y-74392345D01*
X167924896Y-74133362D01*
X167923051Y-74127030D01*
X167853068Y-73886932D01*
X167851757Y-73882433D01*
X167742332Y-73645072D01*
X167673724Y-73540427D01*
X167601590Y-73430404D01*
X167601586Y-73430399D01*
X167599024Y-73426491D01*
X167424982Y-73231494D01*
X167224030Y-73064363D01*
X167176844Y-73035730D01*
X167004578Y-72931196D01*
X167004574Y-72931194D01*
X167000581Y-72928771D01*
X166759545Y-72827697D01*
X166506217Y-72763359D01*
X166501566Y-72762891D01*
X166501562Y-72762890D01*
X166292271Y-72741816D01*
X166289133Y-72741500D01*
X166133646Y-72741500D01*
X166131321Y-72741673D01*
X166131315Y-72741673D01*
X165944000Y-72755593D01*
X165943996Y-72755594D01*
X165939348Y-72755939D01*
X165934800Y-72756968D01*
X165934794Y-72756969D01*
X165748399Y-72799147D01*
X165684423Y-72813623D01*
X165680071Y-72815315D01*
X165680069Y-72815316D01*
X165445176Y-72906660D01*
X165445173Y-72906661D01*
X165440823Y-72908353D01*
X165213902Y-73038049D01*
X165008643Y-73199862D01*
X164829557Y-73390237D01*
X164680576Y-73604991D01*
X164678510Y-73609181D01*
X164678508Y-73609184D01*
X164616151Y-73735633D01*
X164564975Y-73839407D01*
X164563553Y-73843850D01*
X164563552Y-73843852D01*
X164504211Y-74029235D01*
X164485293Y-74088335D01*
X164443279Y-74346307D01*
X164439858Y-74607655D01*
X108957324Y-74607655D01*
X108960142Y-74392345D01*
X108924896Y-74133362D01*
X108923051Y-74127030D01*
X108853068Y-73886932D01*
X108851757Y-73882433D01*
X108742332Y-73645072D01*
X108673724Y-73540427D01*
X108601590Y-73430404D01*
X108601586Y-73430399D01*
X108599024Y-73426491D01*
X108424982Y-73231494D01*
X108224030Y-73064363D01*
X108176844Y-73035730D01*
X108004578Y-72931196D01*
X108004574Y-72931194D01*
X108000581Y-72928771D01*
X107759545Y-72827697D01*
X107506217Y-72763359D01*
X107501566Y-72762891D01*
X107501562Y-72762890D01*
X107292271Y-72741816D01*
X107289133Y-72741500D01*
X107133646Y-72741500D01*
X107131321Y-72741673D01*
X107131315Y-72741673D01*
X106944000Y-72755593D01*
X106943996Y-72755594D01*
X106939348Y-72755939D01*
X106934800Y-72756968D01*
X106934794Y-72756969D01*
X106748399Y-72799147D01*
X106684423Y-72813623D01*
X106680071Y-72815315D01*
X106680069Y-72815316D01*
X106445176Y-72906660D01*
X106445173Y-72906661D01*
X106440823Y-72908353D01*
X106213902Y-73038049D01*
X106008643Y-73199862D01*
X105829557Y-73390237D01*
X105680576Y-73604991D01*
X105678510Y-73609181D01*
X105678508Y-73609184D01*
X105616151Y-73735633D01*
X105564975Y-73839407D01*
X105563553Y-73843850D01*
X105563552Y-73843852D01*
X105504211Y-74029235D01*
X105485293Y-74088335D01*
X105443279Y-74346307D01*
X105439858Y-74607655D01*
X104978697Y-74607655D01*
X104979179Y-71940000D01*
X129596654Y-71940000D01*
X129616017Y-72235426D01*
X129673776Y-72525797D01*
X129768941Y-72806145D01*
X129820488Y-72910671D01*
X129897756Y-73067355D01*
X129899885Y-73071673D01*
X130064367Y-73317838D01*
X130067081Y-73320932D01*
X130067085Y-73320938D01*
X130127859Y-73390237D01*
X130259573Y-73540427D01*
X130262662Y-73543136D01*
X130479062Y-73732915D01*
X130479068Y-73732919D01*
X130482162Y-73735633D01*
X130485588Y-73737922D01*
X130485593Y-73737926D01*
X130631203Y-73835219D01*
X130728327Y-73900115D01*
X130732026Y-73901939D01*
X130732031Y-73901942D01*
X130868313Y-73969148D01*
X130993855Y-74031059D01*
X130997760Y-74032384D01*
X130997761Y-74032385D01*
X131270290Y-74124896D01*
X131270294Y-74124897D01*
X131274203Y-74126224D01*
X131278247Y-74127028D01*
X131278253Y-74127030D01*
X131560535Y-74183180D01*
X131560541Y-74183181D01*
X131564574Y-74183983D01*
X131568679Y-74184252D01*
X131568686Y-74184253D01*
X131855881Y-74203076D01*
X131860000Y-74203346D01*
X131864119Y-74203076D01*
X132151314Y-74184253D01*
X132151321Y-74184252D01*
X132155426Y-74183983D01*
X132159459Y-74183181D01*
X132159465Y-74183180D01*
X132441747Y-74127030D01*
X132441753Y-74127028D01*
X132445797Y-74126224D01*
X132449706Y-74124897D01*
X132449710Y-74124896D01*
X132722239Y-74032385D01*
X132722240Y-74032384D01*
X132726145Y-74031059D01*
X132851687Y-73969148D01*
X132987969Y-73901942D01*
X132987974Y-73901939D01*
X132991673Y-73900115D01*
X133088797Y-73835219D01*
X133234407Y-73737926D01*
X133234412Y-73737922D01*
X133237838Y-73735633D01*
X133240932Y-73732919D01*
X133240938Y-73732915D01*
X133457338Y-73543136D01*
X133460427Y-73540427D01*
X133592141Y-73390237D01*
X133652915Y-73320938D01*
X133652919Y-73320932D01*
X133655633Y-73317838D01*
X133820115Y-73071673D01*
X133822245Y-73067355D01*
X133899512Y-72910671D01*
X133951059Y-72806145D01*
X134046224Y-72525797D01*
X134103983Y-72235426D01*
X134123346Y-71940000D01*
X140496654Y-71940000D01*
X140516017Y-72235426D01*
X140573776Y-72525797D01*
X140668941Y-72806145D01*
X140720488Y-72910671D01*
X140797756Y-73067355D01*
X140799885Y-73071673D01*
X140964367Y-73317838D01*
X140967081Y-73320932D01*
X140967085Y-73320938D01*
X141027859Y-73390237D01*
X141159573Y-73540427D01*
X141162662Y-73543136D01*
X141379062Y-73732915D01*
X141379068Y-73732919D01*
X141382162Y-73735633D01*
X141385588Y-73737922D01*
X141385593Y-73737926D01*
X141531203Y-73835219D01*
X141628327Y-73900115D01*
X141632026Y-73901939D01*
X141632031Y-73901942D01*
X141768313Y-73969148D01*
X141893855Y-74031059D01*
X141897760Y-74032384D01*
X141897761Y-74032385D01*
X142170290Y-74124896D01*
X142170294Y-74124897D01*
X142174203Y-74126224D01*
X142178247Y-74127028D01*
X142178253Y-74127030D01*
X142460535Y-74183180D01*
X142460541Y-74183181D01*
X142464574Y-74183983D01*
X142468679Y-74184252D01*
X142468686Y-74184253D01*
X142755881Y-74203076D01*
X142760000Y-74203346D01*
X142764119Y-74203076D01*
X143051314Y-74184253D01*
X143051321Y-74184252D01*
X143055426Y-74183983D01*
X143059459Y-74183181D01*
X143059465Y-74183180D01*
X143341747Y-74127030D01*
X143341753Y-74127028D01*
X143345797Y-74126224D01*
X143349706Y-74124897D01*
X143349710Y-74124896D01*
X143622239Y-74032385D01*
X143622240Y-74032384D01*
X143626145Y-74031059D01*
X143751687Y-73969148D01*
X143887969Y-73901942D01*
X143887974Y-73901939D01*
X143891673Y-73900115D01*
X143988797Y-73835219D01*
X144134407Y-73737926D01*
X144134412Y-73737922D01*
X144137838Y-73735633D01*
X144140932Y-73732919D01*
X144140938Y-73732915D01*
X144357338Y-73543136D01*
X144360427Y-73540427D01*
X144492141Y-73390237D01*
X144552915Y-73320938D01*
X144552919Y-73320932D01*
X144555633Y-73317838D01*
X144720115Y-73071673D01*
X144722245Y-73067355D01*
X144799512Y-72910671D01*
X144851059Y-72806145D01*
X144946224Y-72525797D01*
X145003983Y-72235426D01*
X145023346Y-71940000D01*
X145003983Y-71644574D01*
X144946224Y-71354203D01*
X144851059Y-71073855D01*
X144720115Y-70808327D01*
X144555633Y-70562162D01*
X144552919Y-70559068D01*
X144552915Y-70559062D01*
X144363136Y-70342662D01*
X144360427Y-70339573D01*
X144357338Y-70336864D01*
X144140938Y-70147085D01*
X144140932Y-70147081D01*
X144137838Y-70144367D01*
X144134412Y-70142078D01*
X144134407Y-70142074D01*
X143895106Y-69982179D01*
X143891673Y-69979885D01*
X143887974Y-69978061D01*
X143887969Y-69978058D01*
X143751687Y-69910852D01*
X143626145Y-69848941D01*
X143622239Y-69847615D01*
X143349710Y-69755104D01*
X143349706Y-69755103D01*
X143345797Y-69753776D01*
X143341753Y-69752972D01*
X143341747Y-69752970D01*
X143059465Y-69696820D01*
X143059459Y-69696819D01*
X143055426Y-69696017D01*
X143051321Y-69695748D01*
X143051314Y-69695747D01*
X142764119Y-69676924D01*
X142760000Y-69676654D01*
X142755881Y-69676924D01*
X142468686Y-69695747D01*
X142468679Y-69695748D01*
X142464574Y-69696017D01*
X142460541Y-69696819D01*
X142460535Y-69696820D01*
X142178253Y-69752970D01*
X142178247Y-69752972D01*
X142174203Y-69753776D01*
X142170294Y-69755103D01*
X142170290Y-69755104D01*
X141897761Y-69847615D01*
X141893855Y-69848941D01*
X141768313Y-69910852D01*
X141632031Y-69978058D01*
X141632026Y-69978061D01*
X141628327Y-69979885D01*
X141624894Y-69982179D01*
X141385593Y-70142074D01*
X141385588Y-70142078D01*
X141382162Y-70144367D01*
X141379068Y-70147081D01*
X141379062Y-70147085D01*
X141162662Y-70336864D01*
X141159573Y-70339573D01*
X141156864Y-70342662D01*
X140967085Y-70559062D01*
X140967081Y-70559068D01*
X140964367Y-70562162D01*
X140799885Y-70808327D01*
X140668941Y-71073855D01*
X140573776Y-71354203D01*
X140516017Y-71644574D01*
X140496654Y-71940000D01*
X134123346Y-71940000D01*
X134103983Y-71644574D01*
X134046224Y-71354203D01*
X133951059Y-71073855D01*
X133820115Y-70808327D01*
X133655633Y-70562162D01*
X133652919Y-70559068D01*
X133652915Y-70559062D01*
X133463136Y-70342662D01*
X133460427Y-70339573D01*
X133457338Y-70336864D01*
X133240938Y-70147085D01*
X133240932Y-70147081D01*
X133237838Y-70144367D01*
X133234412Y-70142078D01*
X133234407Y-70142074D01*
X132995106Y-69982179D01*
X132991673Y-69979885D01*
X132987974Y-69978061D01*
X132987969Y-69978058D01*
X132851687Y-69910852D01*
X132726145Y-69848941D01*
X132722239Y-69847615D01*
X132449710Y-69755104D01*
X132449706Y-69755103D01*
X132445797Y-69753776D01*
X132441753Y-69752972D01*
X132441747Y-69752970D01*
X132159465Y-69696820D01*
X132159459Y-69696819D01*
X132155426Y-69696017D01*
X132151321Y-69695748D01*
X132151314Y-69695747D01*
X131864119Y-69676924D01*
X131860000Y-69676654D01*
X131855881Y-69676924D01*
X131568686Y-69695747D01*
X131568679Y-69695748D01*
X131564574Y-69696017D01*
X131560541Y-69696819D01*
X131560535Y-69696820D01*
X131278253Y-69752970D01*
X131278247Y-69752972D01*
X131274203Y-69753776D01*
X131270294Y-69755103D01*
X131270290Y-69755104D01*
X130997761Y-69847615D01*
X130993855Y-69848941D01*
X130868313Y-69910852D01*
X130732031Y-69978058D01*
X130732026Y-69978061D01*
X130728327Y-69979885D01*
X130724894Y-69982179D01*
X130485593Y-70142074D01*
X130485588Y-70142078D01*
X130482162Y-70144367D01*
X130479068Y-70147081D01*
X130479062Y-70147085D01*
X130262662Y-70336864D01*
X130259573Y-70339573D01*
X130256864Y-70342662D01*
X130067085Y-70559062D01*
X130067081Y-70559068D01*
X130064367Y-70562162D01*
X129899885Y-70808327D01*
X129768941Y-71073855D01*
X129673776Y-71354203D01*
X129616017Y-71644574D01*
X129596654Y-71940000D01*
X104979179Y-71940000D01*
X104979963Y-67601975D01*
X104999977Y-67533860D01*
X105053641Y-67487377D01*
X105105963Y-67476000D01*
X168274000Y-67476000D01*
X168342121Y-67496002D01*
G37*
G04 #@! TD.AperFunction*
M02*
