G04 #@! TF.GenerationSoftware,KiCad,Pcbnew,(6.0.1)*
G04 #@! TF.CreationDate,2022-06-09T14:03:21-07:00*
G04 #@! TF.ProjectId,StereoPSRev1_2,53746572-656f-4505-9352-6576315f322e,rev?*
G04 #@! TF.SameCoordinates,Original*
G04 #@! TF.FileFunction,Legend,Top*
G04 #@! TF.FilePolarity,Positive*
%FSLAX46Y46*%
G04 Gerber Fmt 4.6, Leading zero omitted, Abs format (unit mm)*
G04 Created by KiCad (PCBNEW (6.0.1)) date 2022-06-09 14:03:21*
%MOMM*%
%LPD*%
G01*
G04 APERTURE LIST*
G04 Aperture macros list*
%AMRoundRect*
0 Rectangle with rounded corners*
0 $1 Rounding radius*
0 $2 $3 $4 $5 $6 $7 $8 $9 X,Y pos of 4 corners*
0 Add a 4 corners polygon primitive as box body*
4,1,4,$2,$3,$4,$5,$6,$7,$8,$9,$2,$3,0*
0 Add four circle primitives for the rounded corners*
1,1,$1+$1,$2,$3*
1,1,$1+$1,$4,$5*
1,1,$1+$1,$6,$7*
1,1,$1+$1,$8,$9*
0 Add four rect primitives between the rounded corners*
20,1,$1+$1,$2,$3,$4,$5,0*
20,1,$1+$1,$4,$5,$6,$7,0*
20,1,$1+$1,$6,$7,$8,$9,0*
20,1,$1+$1,$8,$9,$2,$3,0*%
G04 Aperture macros list end*
%ADD10C,0.100000*%
%ADD11C,0.300000*%
%ADD12C,0.125000*%
%ADD13C,0.150000*%
%ADD14C,0.120000*%
%ADD15R,1.700000X1.700000*%
%ADD16O,1.700000X1.700000*%
%ADD17RoundRect,0.250000X0.350000X0.450000X-0.350000X0.450000X-0.350000X-0.450000X0.350000X-0.450000X0*%
%ADD18RoundRect,0.250000X-0.350000X-0.450000X0.350000X-0.450000X0.350000X0.450000X-0.350000X0.450000X0*%
%ADD19RoundRect,0.237500X0.237500X-0.300000X0.237500X0.300000X-0.237500X0.300000X-0.237500X-0.300000X0*%
%ADD20C,2.500000*%
%ADD21RoundRect,0.250000X0.400000X0.625000X-0.400000X0.625000X-0.400000X-0.625000X0.400000X-0.625000X0*%
%ADD22RoundRect,0.237500X0.300000X0.237500X-0.300000X0.237500X-0.300000X-0.237500X0.300000X-0.237500X0*%
%ADD23R,0.431000X1.639799*%
%ADD24RoundRect,0.250000X0.450000X-0.350000X0.450000X0.350000X-0.450000X0.350000X-0.450000X-0.350000X0*%
%ADD25C,1.498600*%
%ADD26R,6.400000X4.900000*%
%ADD27R,6.400000X4.800000*%
%ADD28RoundRect,0.160000X0.160000X-0.197500X0.160000X0.197500X-0.160000X0.197500X-0.160000X-0.197500X0*%
%ADD29R,1.600000X1.600000*%
%ADD30C,1.600000*%
%ADD31O,3.500000X3.500000*%
%ADD32R,1.905000X2.000000*%
%ADD33O,1.905000X2.000000*%
%ADD34C,1.524000*%
%ADD35R,2.000000X2.000000*%
%ADD36C,2.000000*%
G04 APERTURE END LIST*
D10*
X155600000Y-122800000D02*
X157900000Y-122800000D01*
X157900000Y-122800000D02*
X157900000Y-125400000D01*
X157900000Y-125400000D02*
X155600000Y-125400000D01*
X155600000Y-125400000D02*
X155600000Y-122800000D01*
X140600000Y-122800000D02*
X142900000Y-122800000D01*
X142900000Y-122800000D02*
X142900000Y-125400000D01*
X142900000Y-125400000D02*
X140600000Y-125400000D01*
X140600000Y-125400000D02*
X140600000Y-122800000D01*
X110700000Y-122800000D02*
X113000000Y-122800000D01*
X113000000Y-122800000D02*
X113000000Y-125400000D01*
X113000000Y-125400000D02*
X110700000Y-125400000D01*
X110700000Y-125400000D02*
X110700000Y-122800000D01*
X135600000Y-122800000D02*
X137900000Y-122800000D01*
X137900000Y-122800000D02*
X137900000Y-125400000D01*
X137900000Y-125400000D02*
X135600000Y-125400000D01*
X135600000Y-125400000D02*
X135600000Y-122800000D01*
X160600000Y-122800000D02*
X162900000Y-122800000D01*
X162900000Y-122800000D02*
X162900000Y-125400000D01*
X162900000Y-125400000D02*
X160600000Y-125400000D01*
X160600000Y-125400000D02*
X160600000Y-122800000D01*
X150600000Y-122800000D02*
X152900000Y-122800000D01*
X152900000Y-122800000D02*
X152900000Y-125400000D01*
X152900000Y-125400000D02*
X150600000Y-125400000D01*
X150600000Y-125400000D02*
X150600000Y-122800000D01*
X115400000Y-122800000D02*
X117700000Y-122800000D01*
X117700000Y-122800000D02*
X117700000Y-125400000D01*
X117700000Y-125400000D02*
X115400000Y-125400000D01*
X115400000Y-125400000D02*
X115400000Y-122800000D01*
X130500000Y-122800000D02*
X132800000Y-122800000D01*
X132800000Y-122800000D02*
X132800000Y-125400000D01*
X132800000Y-125400000D02*
X130500000Y-125400000D01*
X130500000Y-125400000D02*
X130500000Y-122800000D01*
X120400000Y-122800000D02*
X122700000Y-122800000D01*
X122700000Y-122800000D02*
X122700000Y-125400000D01*
X122700000Y-125400000D02*
X120400000Y-125400000D01*
X120400000Y-125400000D02*
X120400000Y-122800000D01*
D11*
X155614285Y-119478571D02*
X156114285Y-120978571D01*
X156614285Y-119478571D01*
X157328571Y-120978571D02*
X157185714Y-120907142D01*
X157114285Y-120835714D01*
X157042857Y-120692857D01*
X157042857Y-120264285D01*
X157114285Y-120121428D01*
X157185714Y-120050000D01*
X157328571Y-119978571D01*
X157542857Y-119978571D01*
X157685714Y-120050000D01*
X157757142Y-120121428D01*
X157828571Y-120264285D01*
X157828571Y-120692857D01*
X157757142Y-120835714D01*
X157685714Y-120907142D01*
X157542857Y-120978571D01*
X157328571Y-120978571D01*
X159114285Y-119978571D02*
X159114285Y-120978571D01*
X158471428Y-119978571D02*
X158471428Y-120764285D01*
X158542857Y-120907142D01*
X158685714Y-120978571D01*
X158900000Y-120978571D01*
X159042857Y-120907142D01*
X159114285Y-120835714D01*
X159614285Y-119978571D02*
X160185714Y-119978571D01*
X159828571Y-119478571D02*
X159828571Y-120764285D01*
X159900000Y-120907142D01*
X160042857Y-120978571D01*
X160185714Y-120978571D01*
D12*
X108083333Y-87926190D02*
X108083333Y-87426190D01*
X108273809Y-87426190D01*
X108321428Y-87450000D01*
X108345238Y-87473809D01*
X108369047Y-87521428D01*
X108369047Y-87592857D01*
X108345238Y-87640476D01*
X108321428Y-87664285D01*
X108273809Y-87688095D01*
X108083333Y-87688095D01*
X108821428Y-87926190D02*
X108583333Y-87926190D01*
X108583333Y-87426190D01*
X109226190Y-87926190D02*
X108988095Y-87926190D01*
X108988095Y-87426190D01*
X109392857Y-87926190D02*
X109392857Y-87426190D01*
X109630952Y-87926190D02*
X109630952Y-87426190D01*
X109916666Y-87926190D01*
X109916666Y-87426190D01*
X113730952Y-88026190D02*
X113564285Y-87788095D01*
X113445238Y-88026190D02*
X113445238Y-87526190D01*
X113635714Y-87526190D01*
X113683333Y-87550000D01*
X113707142Y-87573809D01*
X113730952Y-87621428D01*
X113730952Y-87692857D01*
X113707142Y-87740476D01*
X113683333Y-87764285D01*
X113635714Y-87788095D01*
X113445238Y-87788095D01*
X113945238Y-87526190D02*
X113945238Y-87930952D01*
X113969047Y-87978571D01*
X113992857Y-88002380D01*
X114040476Y-88026190D01*
X114135714Y-88026190D01*
X114183333Y-88002380D01*
X114207142Y-87978571D01*
X114230952Y-87930952D01*
X114230952Y-87526190D01*
X114469047Y-88026190D02*
X114469047Y-87526190D01*
X114754761Y-88026190D01*
X114754761Y-87526190D01*
X105602380Y-91902380D02*
X105673809Y-91926190D01*
X105792857Y-91926190D01*
X105840476Y-91902380D01*
X105864285Y-91878571D01*
X105888095Y-91830952D01*
X105888095Y-91783333D01*
X105864285Y-91735714D01*
X105840476Y-91711904D01*
X105792857Y-91688095D01*
X105697619Y-91664285D01*
X105650000Y-91640476D01*
X105626190Y-91616666D01*
X105602380Y-91569047D01*
X105602380Y-91521428D01*
X105626190Y-91473809D01*
X105650000Y-91450000D01*
X105697619Y-91426190D01*
X105816666Y-91426190D01*
X105888095Y-91450000D01*
X106030952Y-91426190D02*
X106316666Y-91426190D01*
X106173809Y-91926190D02*
X106173809Y-91426190D01*
X106650000Y-91664285D02*
X106721428Y-91688095D01*
X106745238Y-91711904D01*
X106769047Y-91759523D01*
X106769047Y-91830952D01*
X106745238Y-91878571D01*
X106721428Y-91902380D01*
X106673809Y-91926190D01*
X106483333Y-91926190D01*
X106483333Y-91426190D01*
X106650000Y-91426190D01*
X106697619Y-91450000D01*
X106721428Y-91473809D01*
X106745238Y-91521428D01*
X106745238Y-91569047D01*
X106721428Y-91616666D01*
X106697619Y-91640476D01*
X106650000Y-91664285D01*
X106483333Y-91664285D01*
X107078571Y-91688095D02*
X107078571Y-91926190D01*
X106911904Y-91426190D02*
X107078571Y-91688095D01*
X107245238Y-91426190D01*
D11*
X112757142Y-119750000D02*
X112614285Y-119678571D01*
X112400000Y-119678571D01*
X112185714Y-119750000D01*
X112042857Y-119892857D01*
X111971428Y-120035714D01*
X111900000Y-120321428D01*
X111900000Y-120535714D01*
X111971428Y-120821428D01*
X112042857Y-120964285D01*
X112185714Y-121107142D01*
X112400000Y-121178571D01*
X112542857Y-121178571D01*
X112757142Y-121107142D01*
X112828571Y-121035714D01*
X112828571Y-120535714D01*
X112542857Y-120535714D01*
X113471428Y-121178571D02*
X113471428Y-119678571D01*
X114328571Y-121178571D01*
X114328571Y-119678571D01*
X115042857Y-121178571D02*
X115042857Y-119678571D01*
X115400000Y-119678571D01*
X115614285Y-119750000D01*
X115757142Y-119892857D01*
X115828571Y-120035714D01*
X115900000Y-120321428D01*
X115900000Y-120535714D01*
X115828571Y-120821428D01*
X115757142Y-120964285D01*
X115614285Y-121107142D01*
X115400000Y-121178571D01*
X115042857Y-121178571D01*
D12*
X110207142Y-91926190D02*
X110207142Y-91426190D01*
X110397619Y-91426190D01*
X110445238Y-91450000D01*
X110469047Y-91473809D01*
X110492857Y-91521428D01*
X110492857Y-91592857D01*
X110469047Y-91640476D01*
X110445238Y-91664285D01*
X110397619Y-91688095D01*
X110207142Y-91688095D01*
X110945238Y-91926190D02*
X110707142Y-91926190D01*
X110707142Y-91426190D01*
X111350000Y-91926190D02*
X111111904Y-91926190D01*
X111111904Y-91426190D01*
X111683333Y-91664285D02*
X111516666Y-91664285D01*
X111516666Y-91926190D02*
X111516666Y-91426190D01*
X111754761Y-91426190D01*
X112183333Y-91926190D02*
X111945238Y-91926190D01*
X111945238Y-91426190D01*
X112278571Y-91426190D02*
X112564285Y-91426190D01*
X112421428Y-91926190D02*
X112421428Y-91426190D01*
X113016666Y-91926190D02*
X112850000Y-91688095D01*
X112730952Y-91926190D02*
X112730952Y-91426190D01*
X112921428Y-91426190D01*
X112969047Y-91450000D01*
X112992857Y-91473809D01*
X113016666Y-91521428D01*
X113016666Y-91592857D01*
X112992857Y-91640476D01*
X112969047Y-91664285D01*
X112921428Y-91688095D01*
X112730952Y-91688095D01*
D11*
X134564285Y-119678571D02*
X135064285Y-121178571D01*
X135564285Y-119678571D01*
X136064285Y-121178571D02*
X136064285Y-120178571D01*
X136064285Y-119678571D02*
X135992857Y-119750000D01*
X136064285Y-119821428D01*
X136135714Y-119750000D01*
X136064285Y-119678571D01*
X136064285Y-119821428D01*
X136778571Y-120178571D02*
X136778571Y-121178571D01*
X136778571Y-120321428D02*
X136850000Y-120250000D01*
X136992857Y-120178571D01*
X137207142Y-120178571D01*
X137350000Y-120250000D01*
X137421428Y-120392857D01*
X137421428Y-121178571D01*
D12*
X125016666Y-95126190D02*
X124850000Y-94888095D01*
X124730952Y-95126190D02*
X124730952Y-94626190D01*
X124921428Y-94626190D01*
X124969047Y-94650000D01*
X124992857Y-94673809D01*
X125016666Y-94721428D01*
X125016666Y-94792857D01*
X124992857Y-94840476D01*
X124969047Y-94864285D01*
X124921428Y-94888095D01*
X124730952Y-94888095D01*
X125183333Y-94626190D02*
X125492857Y-94626190D01*
X125326190Y-94816666D01*
X125397619Y-94816666D01*
X125445238Y-94840476D01*
X125469047Y-94864285D01*
X125492857Y-94911904D01*
X125492857Y-95030952D01*
X125469047Y-95078571D01*
X125445238Y-95102380D01*
X125397619Y-95126190D01*
X125254761Y-95126190D01*
X125207142Y-95102380D01*
X125183333Y-95078571D01*
X106435714Y-96026190D02*
X106435714Y-96383333D01*
X106411904Y-96454761D01*
X106364285Y-96502380D01*
X106292857Y-96526190D01*
X106245238Y-96526190D01*
X106673809Y-96526190D02*
X106673809Y-96026190D01*
X106840476Y-96383333D01*
X107007142Y-96026190D01*
X107007142Y-96526190D01*
X107245238Y-96526190D02*
X107245238Y-96026190D01*
X107435714Y-96026190D01*
X107483333Y-96050000D01*
X107507142Y-96073809D01*
X107530952Y-96121428D01*
X107530952Y-96192857D01*
X107507142Y-96240476D01*
X107483333Y-96264285D01*
X107435714Y-96288095D01*
X107245238Y-96288095D01*
X117078571Y-89678571D02*
X117054761Y-89702380D01*
X116983333Y-89726190D01*
X116935714Y-89726190D01*
X116864285Y-89702380D01*
X116816666Y-89654761D01*
X116792857Y-89607142D01*
X116769047Y-89511904D01*
X116769047Y-89440476D01*
X116792857Y-89345238D01*
X116816666Y-89297619D01*
X116864285Y-89250000D01*
X116935714Y-89226190D01*
X116983333Y-89226190D01*
X117054761Y-89250000D01*
X117078571Y-89273809D01*
X117554761Y-89726190D02*
X117269047Y-89726190D01*
X117411904Y-89726190D02*
X117411904Y-89226190D01*
X117364285Y-89297619D01*
X117316666Y-89345238D01*
X117269047Y-89369047D01*
X117864285Y-89226190D02*
X117911904Y-89226190D01*
X117959523Y-89250000D01*
X117983333Y-89273809D01*
X118007142Y-89321428D01*
X118030952Y-89416666D01*
X118030952Y-89535714D01*
X118007142Y-89630952D01*
X117983333Y-89678571D01*
X117959523Y-89702380D01*
X117911904Y-89726190D01*
X117864285Y-89726190D01*
X117816666Y-89702380D01*
X117792857Y-89678571D01*
X117769047Y-89630952D01*
X117745238Y-89535714D01*
X117745238Y-89416666D01*
X117769047Y-89321428D01*
X117792857Y-89273809D01*
X117816666Y-89250000D01*
X117864285Y-89226190D01*
X119016666Y-87926190D02*
X118850000Y-87688095D01*
X118730952Y-87926190D02*
X118730952Y-87426190D01*
X118921428Y-87426190D01*
X118969047Y-87450000D01*
X118992857Y-87473809D01*
X119016666Y-87521428D01*
X119016666Y-87592857D01*
X118992857Y-87640476D01*
X118969047Y-87664285D01*
X118921428Y-87688095D01*
X118730952Y-87688095D01*
X119207142Y-87473809D02*
X119230952Y-87450000D01*
X119278571Y-87426190D01*
X119397619Y-87426190D01*
X119445238Y-87450000D01*
X119469047Y-87473809D01*
X119492857Y-87521428D01*
X119492857Y-87569047D01*
X119469047Y-87640476D01*
X119183333Y-87926190D01*
X119492857Y-87926190D01*
D13*
X107333333Y-94757142D02*
X107285714Y-94804761D01*
X107142857Y-94852380D01*
X107047619Y-94852380D01*
X106904761Y-94804761D01*
X106809523Y-94709523D01*
X106761904Y-94614285D01*
X106714285Y-94423809D01*
X106714285Y-94280952D01*
X106761904Y-94090476D01*
X106809523Y-93995238D01*
X106904761Y-93900000D01*
X107047619Y-93852380D01*
X107142857Y-93852380D01*
X107285714Y-93900000D01*
X107333333Y-93947619D01*
X108238095Y-93852380D02*
X107761904Y-93852380D01*
X107714285Y-94328571D01*
X107761904Y-94280952D01*
X107857142Y-94233333D01*
X108095238Y-94233333D01*
X108190476Y-94280952D01*
X108238095Y-94328571D01*
X108285714Y-94423809D01*
X108285714Y-94661904D01*
X108238095Y-94757142D01*
X108190476Y-94804761D01*
X108095238Y-94852380D01*
X107857142Y-94852380D01*
X107761904Y-94804761D01*
X107714285Y-94757142D01*
X121052380Y-98300000D02*
X121290476Y-98300000D01*
X121195238Y-98538095D02*
X121290476Y-98300000D01*
X121195238Y-98061904D01*
X121480952Y-98442857D02*
X121290476Y-98300000D01*
X121480952Y-98157142D01*
X112252380Y-82066666D02*
X111776190Y-82400000D01*
X112252380Y-82638095D02*
X111252380Y-82638095D01*
X111252380Y-82257142D01*
X111300000Y-82161904D01*
X111347619Y-82114285D01*
X111442857Y-82066666D01*
X111585714Y-82066666D01*
X111680952Y-82114285D01*
X111728571Y-82161904D01*
X111776190Y-82257142D01*
X111776190Y-82638095D01*
X111252380Y-81161904D02*
X111252380Y-81638095D01*
X111728571Y-81685714D01*
X111680952Y-81638095D01*
X111633333Y-81542857D01*
X111633333Y-81304761D01*
X111680952Y-81209523D01*
X111728571Y-81161904D01*
X111823809Y-81114285D01*
X112061904Y-81114285D01*
X112157142Y-81161904D01*
X112204761Y-81209523D01*
X112252380Y-81304761D01*
X112252380Y-81542857D01*
X112204761Y-81638095D01*
X112157142Y-81685714D01*
X124052380Y-83195238D02*
X123576190Y-83528571D01*
X124052380Y-83766666D02*
X123052380Y-83766666D01*
X123052380Y-83385714D01*
X123100000Y-83290476D01*
X123147619Y-83242857D01*
X123242857Y-83195238D01*
X123385714Y-83195238D01*
X123480952Y-83242857D01*
X123528571Y-83290476D01*
X123576190Y-83385714D01*
X123576190Y-83766666D01*
X123052380Y-82909523D02*
X124052380Y-82576190D01*
X123052380Y-82242857D01*
X124052380Y-81385714D02*
X124052380Y-81957142D01*
X124052380Y-81671428D02*
X123052380Y-81671428D01*
X123195238Y-81766666D01*
X123290476Y-81861904D01*
X123338095Y-81957142D01*
X142552380Y-97466666D02*
X142552380Y-97942857D01*
X141552380Y-97942857D01*
X142552380Y-96609523D02*
X142552380Y-97180952D01*
X142552380Y-96895238D02*
X141552380Y-96895238D01*
X141695238Y-96990476D01*
X141790476Y-97085714D01*
X141838095Y-97180952D01*
X114552380Y-82366666D02*
X114076190Y-82700000D01*
X114552380Y-82938095D02*
X113552380Y-82938095D01*
X113552380Y-82557142D01*
X113600000Y-82461904D01*
X113647619Y-82414285D01*
X113742857Y-82366666D01*
X113885714Y-82366666D01*
X113980952Y-82414285D01*
X114028571Y-82461904D01*
X114076190Y-82557142D01*
X114076190Y-82938095D01*
X113552380Y-81509523D02*
X113552380Y-81700000D01*
X113600000Y-81795238D01*
X113647619Y-81842857D01*
X113790476Y-81938095D01*
X113980952Y-81985714D01*
X114361904Y-81985714D01*
X114457142Y-81938095D01*
X114504761Y-81890476D01*
X114552380Y-81795238D01*
X114552380Y-81604761D01*
X114504761Y-81509523D01*
X114457142Y-81461904D01*
X114361904Y-81414285D01*
X114123809Y-81414285D01*
X114028571Y-81461904D01*
X113980952Y-81509523D01*
X113933333Y-81604761D01*
X113933333Y-81795238D01*
X113980952Y-81890476D01*
X114028571Y-81938095D01*
X114123809Y-81985714D01*
X106066666Y-109928571D02*
X106400000Y-109928571D01*
X106542857Y-110452380D02*
X106066666Y-110452380D01*
X106066666Y-109452380D01*
X106542857Y-109452380D01*
X106876190Y-110452380D02*
X107400000Y-109785714D01*
X106876190Y-109785714D02*
X107400000Y-110452380D01*
X107638095Y-109785714D02*
X108019047Y-109785714D01*
X107780952Y-109452380D02*
X107780952Y-110309523D01*
X107828571Y-110404761D01*
X107923809Y-110452380D01*
X108019047Y-110452380D01*
X108209523Y-109452380D02*
X108542857Y-110452380D01*
X108876190Y-109452380D01*
X109780952Y-110357142D02*
X109733333Y-110404761D01*
X109590476Y-110452380D01*
X109495238Y-110452380D01*
X109352380Y-110404761D01*
X109257142Y-110309523D01*
X109209523Y-110214285D01*
X109161904Y-110023809D01*
X109161904Y-109880952D01*
X109209523Y-109690476D01*
X109257142Y-109595238D01*
X109352380Y-109500000D01*
X109495238Y-109452380D01*
X109590476Y-109452380D01*
X109733333Y-109500000D01*
X109780952Y-109547619D01*
X110780952Y-110357142D02*
X110733333Y-110404761D01*
X110590476Y-110452380D01*
X110495238Y-110452380D01*
X110352380Y-110404761D01*
X110257142Y-110309523D01*
X110209523Y-110214285D01*
X110161904Y-110023809D01*
X110161904Y-109880952D01*
X110209523Y-109690476D01*
X110257142Y-109595238D01*
X110352380Y-109500000D01*
X110495238Y-109452380D01*
X110590476Y-109452380D01*
X110733333Y-109500000D01*
X110780952Y-109547619D01*
X114133333Y-108752380D02*
X113800000Y-108276190D01*
X113561904Y-108752380D02*
X113561904Y-107752380D01*
X113942857Y-107752380D01*
X114038095Y-107800000D01*
X114085714Y-107847619D01*
X114133333Y-107942857D01*
X114133333Y-108085714D01*
X114085714Y-108180952D01*
X114038095Y-108228571D01*
X113942857Y-108276190D01*
X113561904Y-108276190D01*
X114466666Y-107752380D02*
X115133333Y-107752380D01*
X114704761Y-108752380D01*
X119275000Y-90439285D02*
X119025000Y-90082142D01*
X118846428Y-90439285D02*
X118846428Y-89689285D01*
X119132142Y-89689285D01*
X119203571Y-89725000D01*
X119239285Y-89760714D01*
X119275000Y-89832142D01*
X119275000Y-89939285D01*
X119239285Y-90010714D01*
X119203571Y-90046428D01*
X119132142Y-90082142D01*
X118846428Y-90082142D01*
X119989285Y-90439285D02*
X119560714Y-90439285D01*
X119775000Y-90439285D02*
X119775000Y-89689285D01*
X119703571Y-89796428D01*
X119632142Y-89867857D01*
X119560714Y-89903571D01*
D14*
X113730000Y-114940000D02*
X113730000Y-117600000D01*
X114620000Y-114610000D02*
X114620000Y-114940000D01*
X116330000Y-114940000D02*
X111130000Y-114940000D01*
X116330000Y-117600000D02*
X116330000Y-114940000D01*
X112840000Y-114542929D02*
X112840000Y-114940000D01*
X115380000Y-114610000D02*
X115380000Y-114940000D01*
X116270000Y-112230000D02*
X116270000Y-113500000D01*
X115000000Y-112230000D02*
X116270000Y-112230000D01*
X111130000Y-114940000D02*
X111130000Y-117600000D01*
X111130000Y-117600000D02*
X116330000Y-117600000D01*
X112080000Y-114542929D02*
X112080000Y-114940000D01*
X122827064Y-94165000D02*
X122372936Y-94165000D01*
X122827064Y-95635000D02*
X122372936Y-95635000D01*
X109472936Y-95565000D02*
X109927064Y-95565000D01*
X109472936Y-97035000D02*
X109927064Y-97035000D01*
X157310000Y-114542929D02*
X157310000Y-114940000D01*
X159470000Y-112230000D02*
X160740000Y-112230000D01*
X160800000Y-114940000D02*
X155600000Y-114940000D01*
X155600000Y-114940000D02*
X155600000Y-117600000D01*
X159850000Y-114610000D02*
X159850000Y-114940000D01*
X160800000Y-117600000D02*
X160800000Y-114940000D01*
X155600000Y-117600000D02*
X160800000Y-117600000D01*
X156550000Y-114542929D02*
X156550000Y-114940000D01*
X159090000Y-114610000D02*
X159090000Y-114940000D01*
X158200000Y-114940000D02*
X158200000Y-117600000D01*
X160740000Y-112230000D02*
X160740000Y-113500000D01*
X117843840Y-91766817D02*
X117843840Y-91474283D01*
X116823840Y-91766817D02*
X116823840Y-91474283D01*
X119827064Y-88610000D02*
X118372936Y-88610000D01*
X119827064Y-86790000D02*
X118372936Y-86790000D01*
X110446267Y-93890000D02*
X110153733Y-93890000D01*
X110446267Y-94910000D02*
X110153733Y-94910000D01*
X120300400Y-101401500D02*
X120557340Y-101401500D01*
X120557340Y-101401500D02*
X120557340Y-95534100D01*
X111794340Y-95534100D02*
X111794340Y-101401500D01*
X111794340Y-101401500D02*
X112051280Y-101401500D01*
X120557340Y-95534100D02*
X120300400Y-95534100D01*
X112051280Y-95534100D02*
X111794340Y-95534100D01*
D10*
X114090500Y-93507701D02*
X113709500Y-93507701D01*
X113709500Y-93507701D02*
X113709500Y-93761701D01*
X113709500Y-93761701D02*
X114090500Y-93761701D01*
X114090500Y-93761701D02*
X114090500Y-93507701D01*
G36*
X114090500Y-93761701D02*
G01*
X113709500Y-93761701D01*
X113709500Y-93507701D01*
X114090500Y-93507701D01*
X114090500Y-93761701D01*
G37*
X114090500Y-93761701D02*
X113709500Y-93761701D01*
X113709500Y-93507701D01*
X114090500Y-93507701D01*
X114090500Y-93761701D01*
X117341700Y-103427899D02*
X116960700Y-103427899D01*
X116960700Y-103427899D02*
X116960700Y-103173899D01*
X116960700Y-103173899D02*
X117341700Y-103173899D01*
X117341700Y-103173899D02*
X117341700Y-103427899D01*
G36*
X117341700Y-103427899D02*
G01*
X116960700Y-103427899D01*
X116960700Y-103173899D01*
X117341700Y-103173899D01*
X117341700Y-103427899D01*
G37*
X117341700Y-103427899D02*
X116960700Y-103427899D01*
X116960700Y-103173899D01*
X117341700Y-103173899D01*
X117341700Y-103427899D01*
D14*
X111065000Y-85427064D02*
X111065000Y-84972936D01*
X112535000Y-85427064D02*
X112535000Y-84972936D01*
X107670000Y-88345000D02*
X115350000Y-88345000D01*
X115350000Y-91005000D02*
X115350000Y-88345000D01*
X105070000Y-88345000D02*
X106400000Y-88345000D01*
X107670000Y-91005000D02*
X115350000Y-91005000D01*
X107670000Y-91005000D02*
X107670000Y-88345000D01*
X105070000Y-89675000D02*
X105070000Y-88345000D01*
X117074640Y-86227000D02*
X117074640Y-78861000D01*
X124527000Y-78861000D02*
X117074640Y-78861000D01*
X124527000Y-86227000D02*
X124527000Y-78861000D01*
X124527000Y-86227000D02*
X117074640Y-86227000D01*
X128400000Y-103600000D02*
X128400000Y-91000000D01*
X128400000Y-91000000D02*
X131400000Y-91000000D01*
X131400000Y-103600000D02*
X128400000Y-103600000D01*
X141000000Y-91000000D02*
X141000000Y-103600000D01*
X138000000Y-91000000D02*
X141000000Y-91000000D01*
X141000000Y-103600000D02*
X138000000Y-103600000D01*
X113265000Y-85427064D02*
X113265000Y-84972936D01*
X114735000Y-85427064D02*
X114735000Y-84972936D01*
X107570000Y-108510000D02*
X107570000Y-108630000D01*
X108900000Y-105970000D02*
X110230000Y-105970000D01*
X110230000Y-105970000D02*
X110230000Y-107300000D01*
X110230000Y-108510000D02*
X110230000Y-108630000D01*
X107570000Y-108630000D02*
X110230000Y-108630000D01*
X107565000Y-99527064D02*
X107565000Y-99072936D01*
X109035000Y-99527064D02*
X109035000Y-99072936D01*
X112935000Y-108527064D02*
X112935000Y-108072936D01*
X111465000Y-108527064D02*
X111465000Y-108072936D01*
X135335000Y-114517929D02*
X135335000Y-114915000D01*
X138825000Y-114915000D02*
X133625000Y-114915000D01*
X137495000Y-112205000D02*
X138765000Y-112205000D01*
X138825000Y-117575000D02*
X138825000Y-114915000D01*
X137115000Y-114585000D02*
X137115000Y-114915000D01*
X133625000Y-114915000D02*
X133625000Y-117575000D01*
X136225000Y-114915000D02*
X136225000Y-117575000D01*
X134575000Y-114517929D02*
X134575000Y-114915000D01*
X133625000Y-117575000D02*
X138825000Y-117575000D01*
X137875000Y-114585000D02*
X137875000Y-114915000D01*
X138765000Y-112205000D02*
X138765000Y-113475000D01*
X122890000Y-90770000D02*
X122770000Y-90770000D01*
X122890000Y-93430000D02*
X122770000Y-93430000D01*
X125430000Y-92100000D02*
X125430000Y-93430000D01*
X122770000Y-90770000D02*
X122770000Y-93430000D01*
X125430000Y-93430000D02*
X124100000Y-93430000D01*
X119563840Y-92038171D02*
X119563840Y-91702929D01*
X118803840Y-92038171D02*
X118803840Y-91702929D01*
X109665000Y-99527064D02*
X109665000Y-99072936D01*
X111135000Y-99527064D02*
X111135000Y-99072936D01*
%LPC*%
X120175840Y-95967800D02*
X112175840Y-95967800D01*
X112175840Y-95967800D02*
X112175840Y-101067800D01*
X112175840Y-101067800D02*
X120175840Y-101067800D01*
X120175840Y-101067800D02*
X120175840Y-95967800D01*
G36*
X120175840Y-95967800D02*
G01*
X112175840Y-95967800D01*
X112175840Y-101067800D01*
X120175840Y-101067800D01*
X120175840Y-95967800D01*
G37*
X147700000Y-75700000D02*
X137700000Y-75700000D01*
X137700000Y-75700000D02*
X137700000Y-84500000D01*
X137700000Y-84500000D02*
X147700000Y-84500000D01*
X147700000Y-84500000D02*
X147700000Y-75700000D01*
G36*
X147700000Y-75700000D02*
G01*
X137700000Y-75700000D01*
X137700000Y-84500000D01*
X147700000Y-84500000D01*
X147700000Y-75700000D01*
G37*
X140660000Y-118270000D02*
X150660000Y-118270000D01*
X150660000Y-118270000D02*
X150660000Y-109470000D01*
X150660000Y-109470000D02*
X140660000Y-109470000D01*
X140660000Y-109470000D02*
X140660000Y-118270000D01*
G36*
X140660000Y-118270000D02*
G01*
X150660000Y-118270000D01*
X150660000Y-109470000D01*
X140660000Y-109470000D01*
X140660000Y-118270000D01*
G37*
X136800000Y-75700000D02*
X126800000Y-75700000D01*
X126800000Y-75700000D02*
X126800000Y-84500000D01*
X126800000Y-84500000D02*
X136800000Y-84500000D01*
X136800000Y-84500000D02*
X136800000Y-75700000D01*
G36*
X136800000Y-75700000D02*
G01*
X126800000Y-75700000D01*
X126800000Y-84500000D01*
X136800000Y-84500000D01*
X136800000Y-75700000D01*
G37*
X122300000Y-118200000D02*
X132300000Y-118200000D01*
X132300000Y-118200000D02*
X132300000Y-109400000D01*
X132300000Y-109400000D02*
X122300000Y-109400000D01*
X122300000Y-109400000D02*
X122300000Y-118200000D01*
G36*
X122300000Y-118200000D02*
G01*
X132300000Y-118200000D01*
X132300000Y-109400000D01*
X122300000Y-109400000D01*
X122300000Y-118200000D01*
G37*
D15*
X115000000Y-113500000D03*
D16*
X112460000Y-113500000D03*
D17*
X123600000Y-94900000D03*
X121600000Y-94900000D03*
D18*
X108700000Y-96300000D03*
X110700000Y-96300000D03*
D15*
X159470000Y-113500000D03*
D16*
X156930000Y-113500000D03*
D19*
X117333840Y-92483050D03*
X117333840Y-90758050D03*
D20*
X166200000Y-74500000D03*
D21*
X120650000Y-87700000D03*
X117550000Y-87700000D03*
D22*
X111162500Y-94400000D03*
X109437500Y-94400000D03*
D23*
X119752160Y-94835600D03*
X119101920Y-94835600D03*
X118451680Y-94835600D03*
X117801440Y-94835600D03*
X117151200Y-94835600D03*
X116500960Y-94835600D03*
X115850720Y-94835600D03*
X115200480Y-94835600D03*
X114550240Y-94835600D03*
X113900000Y-94835600D03*
X113249760Y-94835600D03*
X112599520Y-94835600D03*
X112599520Y-102100000D03*
X113249760Y-102100000D03*
X113900000Y-102100000D03*
X114550240Y-102100000D03*
X115200480Y-102100000D03*
X115850720Y-102100000D03*
X116500960Y-102100000D03*
X117151200Y-102100000D03*
X117801440Y-102100000D03*
X118451680Y-102100000D03*
X119101920Y-102100000D03*
X119752160Y-102100000D03*
D24*
X111800000Y-86200000D03*
X111800000Y-84200000D03*
D15*
X106400000Y-89675000D03*
D16*
X108940000Y-89675000D03*
X111480000Y-89675000D03*
X114020000Y-89675000D03*
D20*
X107200000Y-117500000D03*
D25*
X120000000Y-84400000D03*
X121900000Y-82600000D03*
X120000000Y-80800000D03*
D20*
X166200000Y-117500000D03*
D26*
X134950000Y-92950000D03*
D27*
X134700000Y-102250000D03*
D24*
X114000000Y-86200000D03*
X114000000Y-84200000D03*
D15*
X108900000Y-107300000D03*
D24*
X108300000Y-100300000D03*
X108300000Y-98300000D03*
X112200000Y-109300000D03*
X112200000Y-107300000D03*
D15*
X137495000Y-113475000D03*
D16*
X134955000Y-113475000D03*
D15*
X124100000Y-92100000D03*
D28*
X119183840Y-92468050D03*
X119183840Y-91273050D03*
D20*
X107200000Y-74500000D03*
D24*
X110400000Y-100300000D03*
X110400000Y-98300000D03*
D29*
X159747349Y-95900000D03*
D30*
X163247349Y-95900000D03*
D31*
X142760000Y-71940000D03*
D32*
X145300000Y-88600000D03*
D33*
X142760000Y-88600000D03*
X140220000Y-88600000D03*
D34*
X145800000Y-83100000D03*
X139800000Y-83100000D03*
X145800000Y-80100000D03*
X139815284Y-80088651D03*
X142800000Y-83100000D03*
X145800000Y-77100000D03*
X142800000Y-80100000D03*
X139800000Y-77100000D03*
X142800000Y-77100000D03*
D35*
X159432323Y-106000000D03*
D36*
X164432323Y-106000000D03*
D31*
X145600000Y-122030000D03*
D32*
X143060000Y-105370000D03*
D33*
X145600000Y-105370000D03*
X148140000Y-105370000D03*
D34*
X148560000Y-116870000D03*
X145560000Y-116870000D03*
X142560000Y-113870000D03*
X142560000Y-110870000D03*
X145560000Y-110870000D03*
X148544716Y-113881349D03*
X148560000Y-110870000D03*
X145560000Y-113870000D03*
X142560000Y-116870000D03*
D31*
X131860000Y-71940000D03*
D32*
X134400000Y-88600000D03*
D33*
X131860000Y-88600000D03*
X129320000Y-88600000D03*
D34*
X134900000Y-80100000D03*
X128900000Y-77100000D03*
X128900000Y-83100000D03*
X128915284Y-80088651D03*
X134900000Y-77100000D03*
X131900000Y-80100000D03*
X131900000Y-83100000D03*
X131900000Y-77100000D03*
X134900000Y-83100000D03*
D31*
X127240000Y-121960000D03*
D32*
X124700000Y-105300000D03*
D33*
X127240000Y-105300000D03*
X129780000Y-105300000D03*
D34*
X130200000Y-110800000D03*
X127200000Y-116800000D03*
X130200000Y-116800000D03*
X124200000Y-113800000D03*
X124200000Y-116800000D03*
X127200000Y-110800000D03*
X124200000Y-110800000D03*
X130184716Y-113811349D03*
X127200000Y-113800000D03*
M02*
