G04 #@! TF.GenerationSoftware,KiCad,Pcbnew,(6.0.1)*
G04 #@! TF.CreationDate,2022-06-09T14:04:08-07:00*
G04 #@! TF.ProjectId,Motherboard_edgeCutsVer,4d6f7468-6572-4626-9f61-72645f656467,rev?*
G04 #@! TF.SameCoordinates,Original*
G04 #@! TF.FileFunction,Profile,NP*
%FSLAX46Y46*%
G04 Gerber Fmt 4.6, Leading zero omitted, Abs format (unit mm)*
G04 Created by KiCad (PCBNEW (6.0.1)) date 2022-06-09 14:04:08*
%MOMM*%
%LPD*%
G01*
G04 APERTURE LIST*
G04 #@! TA.AperFunction,Profile*
%ADD10C,0.100000*%
G04 #@! TD*
G04 APERTURE END LIST*
D10*
X131466666Y-206100000D02*
G75*
G03*
X131466666Y-206100000I-1666666J0D01*
G01*
X127300000Y-206100000D02*
X132300000Y-206100000D01*
X129800000Y-203600000D02*
X129800000Y-208600000D01*
X139600000Y-173100000D02*
X141200000Y-173100000D01*
X141200000Y-173100000D02*
X141200000Y-175700000D01*
X141200000Y-175700000D02*
X139600000Y-175700000D01*
X139600000Y-175700000D02*
X139600000Y-173100000D01*
X171300000Y-182900000D02*
X173300000Y-182900000D01*
X173300000Y-182900000D02*
X173300000Y-184300000D01*
X173300000Y-184300000D02*
X171300000Y-184300000D01*
X171300000Y-184300000D02*
X171300000Y-182900000D01*
X139600000Y-133000000D02*
X141200000Y-133000000D01*
X141200000Y-133000000D02*
X141200000Y-135600000D01*
X141200000Y-135600000D02*
X139600000Y-135600000D01*
X139600000Y-135600000D02*
X139600000Y-133000000D01*
X126500000Y-81300000D02*
X126500000Y-93100000D01*
X145800000Y-57000000D02*
X152600000Y-57000000D01*
X126500000Y-93100000D02*
X125500000Y-93100000D01*
X263600000Y-129500000D02*
X265600000Y-129500000D01*
X265600000Y-129500000D02*
X265600000Y-131000000D01*
X265600000Y-131000000D02*
X263600000Y-131000000D01*
X263600000Y-131000000D02*
X263600000Y-129500000D01*
X139600000Y-163000000D02*
X141200000Y-163000000D01*
X141200000Y-163000000D02*
X141200000Y-165600000D01*
X141200000Y-165600000D02*
X139600000Y-165600000D01*
X139600000Y-165600000D02*
X139600000Y-163000000D01*
X247900000Y-57000000D02*
X247900000Y-61000000D01*
X139600000Y-182800000D02*
X141200000Y-182800000D01*
X141200000Y-182800000D02*
X141200000Y-185400000D01*
X141200000Y-185400000D02*
X139600000Y-185400000D01*
X139600000Y-185400000D02*
X139600000Y-182800000D01*
X255900000Y-61000000D02*
X255900000Y-57000000D01*
X189300000Y-182900000D02*
X191300000Y-182900000D01*
X191300000Y-182900000D02*
X191300000Y-184300000D01*
X191300000Y-184300000D02*
X189300000Y-184300000D01*
X189300000Y-184300000D02*
X189300000Y-182900000D01*
X139600000Y-158000000D02*
X141200000Y-158000000D01*
X141200000Y-158000000D02*
X141200000Y-160600000D01*
X141200000Y-160600000D02*
X139600000Y-160600000D01*
X139600000Y-160600000D02*
X139600000Y-158000000D01*
X160600000Y-57000000D02*
X247900000Y-57000000D01*
X125000000Y-145400000D02*
X125000000Y-169200000D01*
X152600000Y-57000000D02*
X152600000Y-61000000D01*
X134500000Y-51100000D02*
X145800000Y-51000000D01*
X125500000Y-169200000D02*
X125500000Y-197400000D01*
X125500000Y-145400000D02*
X125000000Y-145400000D01*
X292950000Y-76500000D02*
X292950000Y-84800000D01*
X257600000Y-129500000D02*
X259600000Y-129500000D01*
X259600000Y-129500000D02*
X259600000Y-131000000D01*
X259600000Y-131000000D02*
X257600000Y-131000000D01*
X257600000Y-131000000D02*
X257600000Y-129500000D01*
X292950000Y-84800000D02*
X296700000Y-84800000D01*
X139600000Y-178100000D02*
X141200000Y-178100000D01*
X141200000Y-178100000D02*
X141200000Y-180700000D01*
X141200000Y-180700000D02*
X139600000Y-180700000D01*
X139600000Y-180700000D02*
X139600000Y-178100000D01*
X125000000Y-169200000D02*
X125500000Y-169200000D01*
X296700000Y-84800000D02*
X296700000Y-208700000D01*
X126900000Y-208700000D02*
X296700000Y-208700000D01*
X183300000Y-182900000D02*
X185300000Y-182900000D01*
X185300000Y-182900000D02*
X185300000Y-184300000D01*
X185300000Y-184300000D02*
X183300000Y-184300000D01*
X183300000Y-184300000D02*
X183300000Y-182900000D01*
X139600000Y-138000000D02*
X141200000Y-138000000D01*
X141200000Y-138000000D02*
X141200000Y-140600000D01*
X141200000Y-140600000D02*
X139600000Y-140600000D01*
X139600000Y-140600000D02*
X139600000Y-138000000D01*
X177300000Y-182900000D02*
X179300000Y-182900000D01*
X179300000Y-182900000D02*
X179300000Y-184300000D01*
X179300000Y-184300000D02*
X177300000Y-184300000D01*
X177300000Y-184300000D02*
X177300000Y-182900000D01*
X251600000Y-129600000D02*
X253600000Y-129600000D01*
X253600000Y-129600000D02*
X253600000Y-131000000D01*
X253600000Y-131000000D02*
X251600000Y-131000000D01*
X251600000Y-131000000D02*
X251600000Y-129600000D01*
X152600000Y-61000000D02*
X160600000Y-61000000D01*
X126900000Y-197400000D02*
X126900000Y-208700000D01*
X134500000Y-57000000D02*
X134500000Y-51100000D01*
X126000000Y-57000000D02*
X134500000Y-57000000D01*
X245600000Y-129600000D02*
X247600000Y-129600000D01*
X247600000Y-129600000D02*
X247600000Y-131000000D01*
X247600000Y-131000000D02*
X245600000Y-131000000D01*
X245600000Y-131000000D02*
X245600000Y-129600000D01*
X139600000Y-153000000D02*
X141200000Y-153000000D01*
X141200000Y-153000000D02*
X141200000Y-155600000D01*
X141200000Y-155600000D02*
X139600000Y-155600000D01*
X139600000Y-155600000D02*
X139600000Y-153000000D01*
X289500000Y-76500000D02*
X292950000Y-76500000D01*
X126000000Y-81300000D02*
X126500000Y-81300000D01*
X139600000Y-148000000D02*
X141200000Y-148000000D01*
X141200000Y-148000000D02*
X141200000Y-150600000D01*
X141200000Y-150600000D02*
X139600000Y-150600000D01*
X139600000Y-150600000D02*
X139600000Y-148000000D01*
X125500000Y-93100000D02*
X125500000Y-145400000D01*
X139600000Y-143000000D02*
X141200000Y-143000000D01*
X141200000Y-143000000D02*
X141200000Y-145600000D01*
X141200000Y-145600000D02*
X139600000Y-145600000D01*
X139600000Y-145600000D02*
X139600000Y-143000000D01*
X165300000Y-182900000D02*
X167300000Y-182900000D01*
X167300000Y-182900000D02*
X167300000Y-184300000D01*
X167300000Y-184300000D02*
X165300000Y-184300000D01*
X165300000Y-184300000D02*
X165300000Y-182900000D01*
X160600000Y-61000000D02*
X160600000Y-57000000D01*
X139600000Y-168000000D02*
X141200000Y-168000000D01*
X141200000Y-168000000D02*
X141200000Y-170600000D01*
X141200000Y-170600000D02*
X139600000Y-170600000D01*
X139600000Y-170600000D02*
X139600000Y-168000000D01*
X289500000Y-57000000D02*
X289500000Y-76500000D01*
X247900000Y-61000000D02*
X255900000Y-61000000D01*
X145800000Y-51000000D02*
X145800000Y-57000000D01*
X255900000Y-57000000D02*
X289500000Y-57000000D01*
X269900500Y-174500000D02*
G75*
G03*
X269900500Y-174500000I-10000500J0D01*
G01*
X126000000Y-81300000D02*
X126000000Y-57000000D01*
X269600000Y-129500000D02*
X271600000Y-129500000D01*
X271600000Y-129500000D02*
X271600000Y-131000000D01*
X271600000Y-131000000D02*
X269600000Y-131000000D01*
X269600000Y-131000000D02*
X269600000Y-129500000D01*
X125500000Y-197400000D02*
X126900000Y-197400000D01*
M02*
