M48
; DRILL file {KiCad (6.0.1)} date Thu Jun  9 14:04:09 2022
; FORMAT={-:-/ absolute / metric / decimal}
; #@! TF.CreationDate,2022-06-09T14:04:09-07:00
; #@! TF.GenerationSoftware,Kicad,Pcbnew,(6.0.1)
; #@! TF.FileFunction,Plated,1,2,PTH
FMAT,2
METRIC
; #@! TA.AperFunction,Plated,PTH,ViaDrill
T1C0.400
; #@! TA.AperFunction,Plated,PTH,ComponentDrill
T2C0.762
; #@! TA.AperFunction,Plated,PTH,ComponentDrill
T3C0.920
; #@! TA.AperFunction,Plated,PTH,ComponentDrill
T4C1.000
; #@! TA.AperFunction,Plated,PTH,ComponentDrill
T5C1.200
; #@! TA.AperFunction,Plated,PTH,ComponentDrill
T6C1.500
; #@! TA.AperFunction,Plated,PTH,ComponentDrill
T7C1.700
; #@! TA.AperFunction,Plated,PTH,ComponentDrill
T8C1.750
; #@! TA.AperFunction,Plated,PTH,ComponentDrill
T9C2.000
; #@! TA.AperFunction,Plated,PTH,ComponentDrill
T10C2.010
; #@! TA.AperFunction,Plated,PTH,ComponentDrill
T11C2.250
; #@! TA.AperFunction,Plated,PTH,ComponentDrill
T12C2.300
; #@! TA.AperFunction,Plated,PTH,ComponentDrill
T13C2.500
; #@! TA.AperFunction,Plated,PTH,ComponentDrill
T14C2.750
; #@! TA.AperFunction,Plated,PTH,ComponentDrill
T15C3.000
%
G90
G05
T1
X130.5Y-112.2
X130.6Y-84.9
X130.7Y-64.8
X136.7Y-90.4
X143.0Y-89.8
X150.9Y-88.1
X192.05Y-118.75
X217.38Y-187.81
X217.9Y-153.4
X225.94Y-204.41
X240.0Y-91.0
X240.5Y-105.25
X268.3Y-65.7
X270.1Y-85.9
X286.15Y-174.25
T2
X144.65Y-136.85
X144.65Y-139.55
X144.65Y-158.45
X144.65Y-161.15
X144.7Y-180.95
X144.7Y-183.65
X146.855Y-128.405
X146.855Y-130.905
X146.855Y-133.505
X149.455Y-128.405
X149.455Y-130.905
X149.455Y-133.505
X157.355Y-120.805
X160.055Y-120.805
X199.755Y-120.805
X202.315Y-120.805
X243.5Y-113.625
X246.1Y-113.625
X248.6Y-113.625
X257.55Y-121.775
X260.05Y-121.775
T3
X217.38Y-190.48
X217.38Y-193.1
X219.88Y-190.48
X219.88Y-193.1
X221.88Y-190.48
X221.88Y-193.1
X224.38Y-190.48
X224.38Y-193.1
T4
X149.2Y-83.4
X186.97Y-179.32
X189.51Y-179.32
X192.05Y-179.32
X193.675Y-70.91
X193.675Y-73.45
X200.425Y-184.75
X200.425Y-187.29
X204.28Y-88.0
X205.725Y-184.75
X205.725Y-187.29
X206.8Y-92.6
X206.82Y-88.0
X209.36Y-88.0
X211.7Y-70.287
X211.7Y-74.167
X211.9Y-88.0
X215.15Y-70.287
X215.25Y-74.237
X218.7Y-74.337
X218.75Y-70.287
X224.2Y-70.337
X227.7Y-70.388
X233.2Y-70.237
X233.2Y-74.138
X236.7Y-70.237
X236.7Y-74.138
X240.2Y-70.237
X240.2Y-74.188
X244.92Y-78.75
X244.92Y-84.4
X247.46Y-78.75
X247.46Y-84.4
X248.0Y-71.25
X250.0Y-78.75
X250.0Y-84.4
X264.96Y-93.3
X267.32Y-126.0
X267.5Y-93.3
X269.86Y-126.0
X272.4Y-126.0
T5
X255.742Y-63.592
X255.742Y-84.593
X263.243Y-63.592
X263.243Y-81.093
T6
X134.366Y-119.126
X160.35Y-183.62
X166.032Y-66.129
X167.132Y-104.559
X177.0Y-66.0
X178.832Y-82.629
X178.832Y-86.429
X195.25Y-183.62
X240.7Y-130.3
X275.6Y-130.3
T7
X131.826Y-116.586
X131.826Y-121.666
X136.906Y-116.586
X136.906Y-121.666
X163.492Y-63.589
X163.492Y-68.669
X164.592Y-102.019
X164.592Y-107.099
X168.572Y-63.589
X168.572Y-68.669
X169.672Y-102.019
X169.672Y-107.099
X174.46Y-63.46
X174.46Y-68.54
X179.54Y-63.46
X179.54Y-68.54
T8
X127.895Y-96.942
X127.895Y-100.542
X129.0Y-188.35
X129.1Y-185.25
X210.9Y-200.35
X214.204Y-200.35
X238.495Y-95.042
X241.795Y-95.056
X293.395Y-97.042
X293.395Y-100.242
T9
X294.7Y-190.15
X294.7Y-193.65
T10
X140.368Y-53.0
T11
X127.895Y-104.442
X129.0Y-192.65
X206.6Y-200.35
X294.7Y-197.55
T12
X214.31Y-187.77
X214.31Y-193.45
X227.45Y-187.77
X227.45Y-193.45
T13
X140.667Y-74.0
X227.5Y-148.4
X227.5Y-198.5
X282.8Y-196.6
X286.8Y-148.5
T14
X140.567Y-82.8
T15
X204.4Y-64.688
X247.45Y-64.638
T4
X139.8Y-125.65G85X140.8Y-125.65
G05
X139.8Y-193.25G85X140.8Y-193.25
G05
T9
X290.895Y-112.542G85X290.895Y-113.542
G05
X292.2Y-175.35G85X292.2Y-174.35
G05
T0
M30
