G04 #@! TF.GenerationSoftware,KiCad,Pcbnew,(6.0.1)*
G04 #@! TF.CreationDate,2022-06-09T14:04:08-07:00*
G04 #@! TF.ProjectId,Motherboard_edgeCutsVer,4d6f7468-6572-4626-9f61-72645f656467,rev?*
G04 #@! TF.SameCoordinates,Original*
G04 #@! TF.FileFunction,Soldermask,Bot*
G04 #@! TF.FilePolarity,Negative*
%FSLAX46Y46*%
G04 Gerber Fmt 4.6, Leading zero omitted, Abs format (unit mm)*
G04 Created by KiCad (PCBNEW (6.0.1)) date 2022-06-09 14:04:08*
%MOMM*%
%LPD*%
G01*
G04 APERTURE LIST*
G04 Aperture macros list*
%AMRoundRect*
0 Rectangle with rounded corners*
0 $1 Rounding radius*
0 $2 $3 $4 $5 $6 $7 $8 $9 X,Y pos of 4 corners*
0 Add a 4 corners polygon primitive as box body*
4,1,4,$2,$3,$4,$5,$6,$7,$8,$9,$2,$3,0*
0 Add four circle primitives for the rounded corners*
1,1,$1+$1,$2,$3*
1,1,$1+$1,$4,$5*
1,1,$1+$1,$6,$7*
1,1,$1+$1,$8,$9*
0 Add four rect primitives between the rounded corners*
20,1,$1+$1,$2,$3,$4,$5,0*
20,1,$1+$1,$4,$5,$6,$7,0*
20,1,$1+$1,$6,$7,$8,$9,0*
20,1,$1+$1,$8,$9,$2,$3,0*%
G04 Aperture macros list end*
%ADD10R,1.700000X1.700000*%
%ADD11C,2.050000*%
%ADD12C,2.250000*%
%ADD13R,2.500000X2.500000*%
%ADD14O,2.500000X2.500000*%
%ADD15O,1.700000X1.700000*%
%ADD16C,5.000000*%
%ADD17RoundRect,0.500000X1.500000X-0.500000X1.500000X0.500000X-1.500000X0.500000X-1.500000X-0.500000X0*%
%ADD18C,1.524000*%
%ADD19C,3.300000*%
%ADD20C,2.500000*%
%ADD21RoundRect,0.850000X-0.850000X-2.150000X0.850000X-2.150000X0.850000X2.150000X-0.850000X2.150000X0*%
%ADD22O,7.000000X3.500000*%
%ADD23O,7.300000X3.500000*%
%ADD24C,4.500000*%
%ADD25RoundRect,0.415500X0.415500X-1.315500X0.415500X1.315500X-0.415500X1.315500X-0.415500X-1.315500X0*%
%ADD26RoundRect,0.850000X0.850000X2.150000X-0.850000X2.150000X-0.850000X-2.150000X0.850000X-2.150000X0*%
%ADD27C,3.100000*%
%ADD28C,3.000000*%
%ADD29RoundRect,0.250000X-0.250000X-1.750000X0.250000X-1.750000X0.250000X1.750000X-0.250000X1.750000X0*%
%ADD30C,20.000000*%
%ADD31R,1.524000X1.524000*%
%ADD32R,1.500000X1.500000*%
%ADD33C,1.500000*%
%ADD34C,3.500000*%
%ADD35C,7.000000*%
%ADD36R,2.000000X2.500000*%
G04 APERTURE END LIST*
D10*
X206800000Y-92600000D03*
D11*
X177000000Y-66000000D03*
D12*
X174460000Y-63460000D03*
X179540000Y-63460000D03*
X179540000Y-68540000D03*
X174460000Y-68540000D03*
D13*
X255742500Y-63592500D03*
D14*
X255742500Y-84592500D03*
X263242500Y-81092500D03*
X263242500Y-63592500D03*
D10*
X267500000Y-93300000D03*
D15*
X264960000Y-93300000D03*
D16*
X282800000Y-196600000D03*
D17*
X140300000Y-125650000D03*
X140300000Y-193250000D03*
D18*
X144650000Y-161150000D03*
X144650000Y-158450000D03*
X144700000Y-183650000D03*
X144700000Y-180950000D03*
X144650000Y-136850000D03*
X144650000Y-139550000D03*
D19*
X127895000Y-104442500D03*
D20*
X127895000Y-100542500D03*
X127895000Y-96942500D03*
X238495000Y-95042500D03*
X241795000Y-95056448D03*
X293395000Y-97042500D03*
X293395000Y-100242500D03*
D21*
X290895000Y-113042500D03*
D22*
X140567500Y-82800000D03*
D23*
X140367500Y-53000000D03*
D24*
X140667500Y-74000000D03*
D11*
X134366000Y-119126000D03*
D12*
X131826000Y-116586000D03*
X136906000Y-116586000D03*
X131826000Y-121666000D03*
X136906000Y-121666000D03*
D10*
X267320000Y-126000000D03*
D15*
X269860000Y-126000000D03*
X272400000Y-126000000D03*
D25*
X240700000Y-130300000D03*
X275600000Y-130300000D03*
D10*
X205725000Y-184750000D03*
D15*
X205725000Y-187290000D03*
D10*
X250000000Y-78750000D03*
D15*
X247460000Y-78750000D03*
X244920000Y-78750000D03*
D26*
X292200000Y-174850000D03*
D27*
X294700000Y-190150000D03*
X294700000Y-193650000D03*
X294700000Y-197550000D03*
D20*
X214204026Y-200350000D03*
X210900000Y-200350000D03*
D19*
X206600000Y-200350000D03*
X129000000Y-192650000D03*
D20*
X129000000Y-188350000D03*
X129100000Y-185250000D03*
D28*
X240400000Y-119825000D03*
X240700000Y-101125000D03*
X280500000Y-111325000D03*
D18*
X248600000Y-113625000D03*
X246100000Y-113625000D03*
X260050000Y-121775000D03*
X243500000Y-113625000D03*
X257550000Y-121775000D03*
D29*
X288100000Y-195200000D03*
D28*
X206755000Y-124305000D03*
X148755000Y-122305000D03*
X149055000Y-171305000D03*
D30*
X175255000Y-147205000D03*
D28*
X204455000Y-170605000D03*
D18*
X146855000Y-133505000D03*
X146855000Y-130905000D03*
X146855000Y-128405000D03*
X149455000Y-130905000D03*
D31*
X149455000Y-133505000D03*
D18*
X149455000Y-128405000D03*
X160055000Y-120805000D03*
D31*
X157355000Y-120805000D03*
D18*
X202315000Y-120805000D03*
D31*
X199755000Y-120805000D03*
D10*
X248000000Y-71250000D03*
D32*
X224380000Y-193100000D03*
D33*
X221880000Y-193100000D03*
X219880000Y-193100000D03*
X217380000Y-193100000D03*
X224380000Y-190480000D03*
X221880000Y-190480000D03*
X219880000Y-190480000D03*
X217380000Y-190480000D03*
D28*
X214310000Y-187770000D03*
X214310000Y-193450000D03*
X227450000Y-193450000D03*
X227450000Y-187770000D03*
D10*
X149200000Y-83400000D03*
D34*
X286800000Y-148500000D03*
D10*
X211700000Y-74167500D03*
D15*
X215250000Y-74237500D03*
X218700000Y-74337500D03*
X233200000Y-74137500D03*
X236700000Y-74137500D03*
X240200000Y-74187500D03*
X211700000Y-70287500D03*
X215150000Y-70287500D03*
X218750000Y-70287500D03*
X224200000Y-70337500D03*
X227700000Y-70387500D03*
X233200000Y-70237500D03*
X236700000Y-70237500D03*
X240200000Y-70237500D03*
D35*
X247450000Y-64637500D03*
X204400000Y-64687500D03*
D29*
X134950000Y-195200000D03*
D10*
X200425000Y-184750000D03*
D15*
X200425000Y-187290000D03*
D10*
X186970000Y-179320000D03*
D15*
X189510000Y-179320000D03*
X192050000Y-179320000D03*
D25*
X195250000Y-183620000D03*
X160350000Y-183620000D03*
D10*
X250000000Y-84400000D03*
D15*
X247460000Y-84400000D03*
X244920000Y-84400000D03*
D29*
X287000000Y-96250000D03*
D10*
X211900000Y-88000000D03*
D15*
X209360000Y-88000000D03*
X206820000Y-88000000D03*
X204280000Y-88000000D03*
D29*
X134050000Y-96750000D03*
D10*
X193675000Y-73450000D03*
D15*
X193675000Y-70910000D03*
D34*
X227500000Y-148400000D03*
D20*
X178732000Y-97729000D03*
X153332000Y-73129000D03*
X178732000Y-73029000D03*
X153332000Y-97729000D03*
D36*
X178832000Y-86429000D03*
D20*
X178832000Y-82629000D03*
D11*
X166032000Y-66129000D03*
D12*
X163492000Y-68669000D03*
X163492000Y-63589000D03*
X168572000Y-63589000D03*
X168572000Y-68669000D03*
D11*
X167132000Y-104559000D03*
D12*
X169672000Y-102019000D03*
X169672000Y-107099000D03*
X164592000Y-102019000D03*
X164592000Y-107099000D03*
D34*
X227500000Y-198500000D03*
M02*
