G04 #@! TF.GenerationSoftware,KiCad,Pcbnew,(6.0.1)*
G04 #@! TF.CreationDate,2022-06-09T14:04:08-07:00*
G04 #@! TF.ProjectId,Motherboard_edgeCutsVer,4d6f7468-6572-4626-9f61-72645f656467,rev?*
G04 #@! TF.SameCoordinates,Original*
G04 #@! TF.FileFunction,Legend,Top*
G04 #@! TF.FilePolarity,Positive*
%FSLAX46Y46*%
G04 Gerber Fmt 4.6, Leading zero omitted, Abs format (unit mm)*
G04 Created by KiCad (PCBNEW (6.0.1)) date 2022-06-09 14:04:08*
%MOMM*%
%LPD*%
G01*
G04 APERTURE LIST*
G04 Aperture macros list*
%AMRoundRect*
0 Rectangle with rounded corners*
0 $1 Rounding radius*
0 $2 $3 $4 $5 $6 $7 $8 $9 X,Y pos of 4 corners*
0 Add a 4 corners polygon primitive as box body*
4,1,4,$2,$3,$4,$5,$6,$7,$8,$9,$2,$3,0*
0 Add four circle primitives for the rounded corners*
1,1,$1+$1,$2,$3*
1,1,$1+$1,$4,$5*
1,1,$1+$1,$6,$7*
1,1,$1+$1,$8,$9*
0 Add four rect primitives between the rounded corners*
20,1,$1+$1,$2,$3,$4,$5,0*
20,1,$1+$1,$4,$5,$6,$7,0*
20,1,$1+$1,$6,$7,$8,$9,0*
20,1,$1+$1,$8,$9,$2,$3,0*%
G04 Aperture macros list end*
%ADD10C,0.150000*%
%ADD11C,0.120000*%
%ADD12C,0.100000*%
%ADD13R,1.700000X1.700000*%
%ADD14C,2.050000*%
%ADD15C,2.250000*%
%ADD16R,2.500000X2.500000*%
%ADD17O,2.500000X2.500000*%
%ADD18RoundRect,0.237500X-0.300000X-0.237500X0.300000X-0.237500X0.300000X0.237500X-0.300000X0.237500X0*%
%ADD19O,1.700000X1.700000*%
%ADD20C,5.000000*%
%ADD21RoundRect,0.500000X1.500000X-0.500000X1.500000X0.500000X-1.500000X0.500000X-1.500000X-0.500000X0*%
%ADD22C,1.524000*%
%ADD23C,3.300000*%
%ADD24C,2.500000*%
%ADD25RoundRect,0.850000X-0.850000X-2.150000X0.850000X-2.150000X0.850000X2.150000X-0.850000X2.150000X0*%
%ADD26O,7.000000X3.500000*%
%ADD27O,7.300000X3.500000*%
%ADD28C,4.500000*%
%ADD29RoundRect,0.415500X0.415500X-1.315500X0.415500X1.315500X-0.415500X1.315500X-0.415500X-1.315500X0*%
%ADD30RoundRect,0.850000X0.850000X2.150000X-0.850000X2.150000X-0.850000X-2.150000X0.850000X-2.150000X0*%
%ADD31C,3.100000*%
%ADD32C,3.000000*%
%ADD33RoundRect,0.250000X-0.250000X-1.750000X0.250000X-1.750000X0.250000X1.750000X-0.250000X1.750000X0*%
%ADD34C,20.000000*%
%ADD35R,1.524000X1.524000*%
%ADD36RoundRect,0.237500X-0.237500X0.300000X-0.237500X-0.300000X0.237500X-0.300000X0.237500X0.300000X0*%
%ADD37R,1.500000X1.500000*%
%ADD38C,1.500000*%
%ADD39C,3.500000*%
%ADD40RoundRect,0.249999X1.425001X-0.450001X1.425001X0.450001X-1.425001X0.450001X-1.425001X-0.450001X0*%
%ADD41C,7.000000*%
%ADD42R,1.100000X1.100000*%
%ADD43RoundRect,0.249999X1.075001X-0.450001X1.075001X0.450001X-1.075001X0.450001X-1.075001X-0.450001X0*%
%ADD44R,0.431800X1.346200*%
%ADD45R,2.413000X1.778000*%
%ADD46R,1.500000X0.400000*%
%ADD47R,2.000000X2.500000*%
%ADD48RoundRect,0.150000X0.150000X-0.587500X0.150000X0.587500X-0.150000X0.587500X-0.150000X-0.587500X0*%
G04 APERTURE END LIST*
D10*
X289800000Y-145500000D02*
X289800000Y-162700000D01*
X289800000Y-181700000D02*
X289800000Y-201500000D01*
X224600000Y-145500000D02*
X289800000Y-145500000D01*
X224500000Y-201500000D02*
X224600000Y-145500000D01*
X289800000Y-201500000D02*
X224500000Y-201500000D01*
X284800000Y-162700000D02*
X284800000Y-181700000D01*
X289800000Y-162700000D02*
X284800000Y-162700000D01*
X284800000Y-181700000D02*
X289800000Y-181700000D01*
X171702380Y-66333333D02*
X172416666Y-66333333D01*
X172559523Y-66380952D01*
X172654761Y-66476190D01*
X172702380Y-66619047D01*
X172702380Y-66714285D01*
X172130952Y-65714285D02*
X172083333Y-65809523D01*
X172035714Y-65857142D01*
X171940476Y-65904761D01*
X171892857Y-65904761D01*
X171797619Y-65857142D01*
X171750000Y-65809523D01*
X171702380Y-65714285D01*
X171702380Y-65523809D01*
X171750000Y-65428571D01*
X171797619Y-65380952D01*
X171892857Y-65333333D01*
X171940476Y-65333333D01*
X172035714Y-65380952D01*
X172083333Y-65428571D01*
X172130952Y-65523809D01*
X172130952Y-65714285D01*
X172178571Y-65809523D01*
X172226190Y-65857142D01*
X172321428Y-65904761D01*
X172511904Y-65904761D01*
X172607142Y-65857142D01*
X172654761Y-65809523D01*
X172702380Y-65714285D01*
X172702380Y-65523809D01*
X172654761Y-65428571D01*
X172607142Y-65380952D01*
X172511904Y-65333333D01*
X172321428Y-65333333D01*
X172226190Y-65380952D01*
X172178571Y-65428571D01*
X172130952Y-65523809D01*
X259161904Y-67252380D02*
X259161904Y-66252380D01*
X259733333Y-67252380D02*
X259304761Y-66680952D01*
X259733333Y-66252380D02*
X259161904Y-66823809D01*
X260685714Y-67252380D02*
X260114285Y-67252380D01*
X260400000Y-67252380D02*
X260400000Y-66252380D01*
X260304761Y-66395238D01*
X260209523Y-66490476D01*
X260114285Y-66538095D01*
X224785476Y-95344880D02*
X224785476Y-96059166D01*
X224737857Y-96202023D01*
X224642619Y-96297261D01*
X224499761Y-96344880D01*
X224404523Y-96344880D01*
X225214047Y-95440119D02*
X225261666Y-95392500D01*
X225356904Y-95344880D01*
X225595000Y-95344880D01*
X225690238Y-95392500D01*
X225737857Y-95440119D01*
X225785476Y-95535357D01*
X225785476Y-95630595D01*
X225737857Y-95773452D01*
X225166428Y-96344880D01*
X225785476Y-96344880D01*
X226737857Y-96344880D02*
X226166428Y-96344880D01*
X226452142Y-96344880D02*
X226452142Y-95344880D01*
X226356904Y-95487738D01*
X226261666Y-95582976D01*
X226166428Y-95630595D01*
X140066666Y-78352380D02*
X140066666Y-79066666D01*
X140019047Y-79209523D01*
X139923809Y-79304761D01*
X139780952Y-79352380D01*
X139685714Y-79352380D01*
X140971428Y-78352380D02*
X140780952Y-78352380D01*
X140685714Y-78400000D01*
X140638095Y-78447619D01*
X140542857Y-78590476D01*
X140495238Y-78780952D01*
X140495238Y-79161904D01*
X140542857Y-79257142D01*
X140590476Y-79304761D01*
X140685714Y-79352380D01*
X140876190Y-79352380D01*
X140971428Y-79304761D01*
X141019047Y-79257142D01*
X141066666Y-79161904D01*
X141066666Y-78923809D01*
X141019047Y-78828571D01*
X140971428Y-78780952D01*
X140876190Y-78733333D01*
X140685714Y-78733333D01*
X140590476Y-78780952D01*
X140542857Y-78828571D01*
X140495238Y-78923809D01*
X134032666Y-113828380D02*
X134032666Y-114542666D01*
X133985047Y-114685523D01*
X133889809Y-114780761D01*
X133746952Y-114828380D01*
X133651714Y-114828380D01*
X134937428Y-114161714D02*
X134937428Y-114828380D01*
X134699333Y-113780761D02*
X134461238Y-114495047D01*
X135080285Y-114495047D01*
X251782380Y-79083333D02*
X252496666Y-79083333D01*
X252639523Y-79130952D01*
X252734761Y-79226190D01*
X252782380Y-79369047D01*
X252782380Y-79464285D01*
X251877619Y-78654761D02*
X251830000Y-78607142D01*
X251782380Y-78511904D01*
X251782380Y-78273809D01*
X251830000Y-78178571D01*
X251877619Y-78130952D01*
X251972857Y-78083333D01*
X252068095Y-78083333D01*
X252210952Y-78130952D01*
X252782380Y-78702380D01*
X252782380Y-78083333D01*
X209190476Y-203552380D02*
X209190476Y-204266666D01*
X209142857Y-204409523D01*
X209047619Y-204504761D01*
X208904761Y-204552380D01*
X208809523Y-204552380D01*
X209619047Y-203647619D02*
X209666666Y-203600000D01*
X209761904Y-203552380D01*
X210000000Y-203552380D01*
X210095238Y-203600000D01*
X210142857Y-203647619D01*
X210190476Y-203742857D01*
X210190476Y-203838095D01*
X210142857Y-203980952D01*
X209571428Y-204552380D01*
X210190476Y-204552380D01*
X210571428Y-203647619D02*
X210619047Y-203600000D01*
X210714285Y-203552380D01*
X210952380Y-203552380D01*
X211047619Y-203600000D01*
X211095238Y-203647619D01*
X211142857Y-203742857D01*
X211142857Y-203838095D01*
X211095238Y-203980952D01*
X210523809Y-204552380D01*
X211142857Y-204552380D01*
X260447619Y-109938095D02*
X259638095Y-109938095D01*
X259542857Y-109985714D01*
X259495238Y-110033333D01*
X259447619Y-110128571D01*
X259447619Y-110319047D01*
X259495238Y-110414285D01*
X259542857Y-110461904D01*
X259638095Y-110509523D01*
X260447619Y-110509523D01*
X260447619Y-110890476D02*
X260447619Y-111509523D01*
X260066666Y-111176190D01*
X260066666Y-111319047D01*
X260019047Y-111414285D01*
X259971428Y-111461904D01*
X259876190Y-111509523D01*
X259638095Y-111509523D01*
X259542857Y-111461904D01*
X259495238Y-111414285D01*
X259447619Y-111319047D01*
X259447619Y-111033333D01*
X259495238Y-110938095D01*
X259542857Y-110890476D01*
X195943095Y-147302380D02*
X195943095Y-148111904D01*
X195990714Y-148207142D01*
X196038333Y-148254761D01*
X196133571Y-148302380D01*
X196324047Y-148302380D01*
X196419285Y-148254761D01*
X196466904Y-148207142D01*
X196514523Y-148111904D01*
X196514523Y-147302380D01*
X196943095Y-147397619D02*
X196990714Y-147350000D01*
X197085952Y-147302380D01*
X197324047Y-147302380D01*
X197419285Y-147350000D01*
X197466904Y-147397619D01*
X197514523Y-147492857D01*
X197514523Y-147588095D01*
X197466904Y-147730952D01*
X196895476Y-148302380D01*
X197514523Y-148302380D01*
X202707380Y-123414523D02*
X202707380Y-123890714D01*
X201707380Y-123890714D01*
X202326428Y-123081190D02*
X202326428Y-122319285D01*
X202707380Y-122700238D02*
X201945476Y-122700238D01*
X147407380Y-137124047D02*
X147407380Y-137695476D01*
X147407380Y-137409761D02*
X146407380Y-137409761D01*
X146550238Y-137505000D01*
X146645476Y-137600238D01*
X146693095Y-137695476D01*
X146502619Y-136743095D02*
X146455000Y-136695476D01*
X146407380Y-136600238D01*
X146407380Y-136362142D01*
X146455000Y-136266904D01*
X146502619Y-136219285D01*
X146597857Y-136171666D01*
X146693095Y-136171666D01*
X146835952Y-136219285D01*
X147407380Y-136790714D01*
X147407380Y-136171666D01*
X146407380Y-135885952D02*
X147407380Y-135552619D01*
X146407380Y-135219285D01*
X199807380Y-123414523D02*
X199807380Y-123890714D01*
X198807380Y-123890714D01*
X199426428Y-123081190D02*
X199426428Y-122319285D01*
X149055000Y-137266904D02*
X149007380Y-137362142D01*
X149007380Y-137505000D01*
X149055000Y-137647857D01*
X149150238Y-137743095D01*
X149245476Y-137790714D01*
X149435952Y-137838333D01*
X149578809Y-137838333D01*
X149769285Y-137790714D01*
X149864523Y-137743095D01*
X149959761Y-137647857D01*
X150007380Y-137505000D01*
X150007380Y-137409761D01*
X149959761Y-137266904D01*
X149912142Y-137219285D01*
X149578809Y-137219285D01*
X149578809Y-137409761D01*
X150007380Y-136790714D02*
X149007380Y-136790714D01*
X150007380Y-136219285D01*
X149007380Y-136219285D01*
X150007380Y-135743095D02*
X149007380Y-135743095D01*
X149007380Y-135505000D01*
X149055000Y-135362142D01*
X149150238Y-135266904D01*
X149245476Y-135219285D01*
X149435952Y-135171666D01*
X149578809Y-135171666D01*
X149769285Y-135219285D01*
X149864523Y-135266904D01*
X149959761Y-135362142D01*
X150007380Y-135505000D01*
X150007380Y-135743095D01*
X162247380Y-123514523D02*
X161771190Y-123847857D01*
X162247380Y-124085952D02*
X161247380Y-124085952D01*
X161247380Y-123705000D01*
X161295000Y-123609761D01*
X161342619Y-123562142D01*
X161437857Y-123514523D01*
X161580714Y-123514523D01*
X161675952Y-123562142D01*
X161723571Y-123609761D01*
X161771190Y-123705000D01*
X161771190Y-124085952D01*
X161866428Y-123085952D02*
X161866428Y-122324047D01*
X162247380Y-122705000D02*
X161485476Y-122705000D01*
X159547380Y-123514523D02*
X159071190Y-123847857D01*
X159547380Y-124085952D02*
X158547380Y-124085952D01*
X158547380Y-123705000D01*
X158595000Y-123609761D01*
X158642619Y-123562142D01*
X158737857Y-123514523D01*
X158880714Y-123514523D01*
X158975952Y-123562142D01*
X159023571Y-123609761D01*
X159071190Y-123705000D01*
X159071190Y-124085952D01*
X159166428Y-123085952D02*
X159166428Y-122324047D01*
X250416666Y-70202380D02*
X250416666Y-70916666D01*
X250369047Y-71059523D01*
X250273809Y-71154761D01*
X250130952Y-71202380D01*
X250035714Y-71202380D01*
X250940476Y-71202380D02*
X251130952Y-71202380D01*
X251226190Y-71154761D01*
X251273809Y-71107142D01*
X251369047Y-70964285D01*
X251416666Y-70773809D01*
X251416666Y-70392857D01*
X251369047Y-70297619D01*
X251321428Y-70250000D01*
X251226190Y-70202380D01*
X251035714Y-70202380D01*
X250940476Y-70250000D01*
X250892857Y-70297619D01*
X250845238Y-70392857D01*
X250845238Y-70630952D01*
X250892857Y-70726190D01*
X250940476Y-70773809D01*
X251035714Y-70821428D01*
X251226190Y-70821428D01*
X251321428Y-70773809D01*
X251369047Y-70726190D01*
X251416666Y-70630952D01*
X220070476Y-195552380D02*
X220070476Y-196266666D01*
X220022857Y-196409523D01*
X219927619Y-196504761D01*
X219784761Y-196552380D01*
X219689523Y-196552380D01*
X221070476Y-196552380D02*
X220499047Y-196552380D01*
X220784761Y-196552380D02*
X220784761Y-195552380D01*
X220689523Y-195695238D01*
X220594285Y-195790476D01*
X220499047Y-195838095D01*
X221927619Y-195552380D02*
X221737142Y-195552380D01*
X221641904Y-195600000D01*
X221594285Y-195647619D01*
X221499047Y-195790476D01*
X221451428Y-195980952D01*
X221451428Y-196361904D01*
X221499047Y-196457142D01*
X221546666Y-196504761D01*
X221641904Y-196552380D01*
X221832380Y-196552380D01*
X221927619Y-196504761D01*
X221975238Y-196457142D01*
X222022857Y-196361904D01*
X222022857Y-196123809D01*
X221975238Y-196028571D01*
X221927619Y-195980952D01*
X221832380Y-195933333D01*
X221641904Y-195933333D01*
X221546666Y-195980952D01*
X221499047Y-196028571D01*
X221451428Y-196123809D01*
X148866666Y-80082380D02*
X148866666Y-80796666D01*
X148819047Y-80939523D01*
X148723809Y-81034761D01*
X148580952Y-81082380D01*
X148485714Y-81082380D01*
X149819047Y-80082380D02*
X149342857Y-80082380D01*
X149295238Y-80558571D01*
X149342857Y-80510952D01*
X149438095Y-80463333D01*
X149676190Y-80463333D01*
X149771428Y-80510952D01*
X149819047Y-80558571D01*
X149866666Y-80653809D01*
X149866666Y-80891904D01*
X149819047Y-80987142D01*
X149771428Y-81034761D01*
X149676190Y-81082380D01*
X149438095Y-81082380D01*
X149342857Y-81034761D01*
X149295238Y-80987142D01*
X269983333Y-83052380D02*
X269650000Y-82576190D01*
X269411904Y-83052380D02*
X269411904Y-82052380D01*
X269792857Y-82052380D01*
X269888095Y-82100000D01*
X269935714Y-82147619D01*
X269983333Y-82242857D01*
X269983333Y-82385714D01*
X269935714Y-82480952D01*
X269888095Y-82528571D01*
X269792857Y-82576190D01*
X269411904Y-82576190D01*
X270364285Y-82147619D02*
X270411904Y-82100000D01*
X270507142Y-82052380D01*
X270745238Y-82052380D01*
X270840476Y-82100000D01*
X270888095Y-82147619D01*
X270935714Y-82242857D01*
X270935714Y-82338095D01*
X270888095Y-82480952D01*
X270316666Y-83052380D01*
X270935714Y-83052380D01*
X213096666Y-65379880D02*
X213096666Y-66094166D01*
X213049047Y-66237023D01*
X212953809Y-66332261D01*
X212810952Y-66379880D01*
X212715714Y-66379880D01*
X214096666Y-66379880D02*
X213525238Y-66379880D01*
X213810952Y-66379880D02*
X213810952Y-65379880D01*
X213715714Y-65522738D01*
X213620476Y-65617976D01*
X213525238Y-65665595D01*
X222162380Y-201556666D02*
X221686190Y-201890000D01*
X222162380Y-202128095D02*
X221162380Y-202128095D01*
X221162380Y-201747142D01*
X221210000Y-201651904D01*
X221257619Y-201604285D01*
X221352857Y-201556666D01*
X221495714Y-201556666D01*
X221590952Y-201604285D01*
X221638571Y-201651904D01*
X221686190Y-201747142D01*
X221686190Y-202128095D01*
X221162380Y-201223333D02*
X221162380Y-200604285D01*
X221543333Y-200937619D01*
X221543333Y-200794761D01*
X221590952Y-200699523D01*
X221638571Y-200651904D01*
X221733809Y-200604285D01*
X221971904Y-200604285D01*
X222067142Y-200651904D01*
X222114761Y-200699523D01*
X222162380Y-200794761D01*
X222162380Y-201080476D01*
X222114761Y-201175714D01*
X222067142Y-201223333D01*
X262761904Y-59952380D02*
X262761904Y-58952380D01*
X263000000Y-58952380D01*
X263142857Y-59000000D01*
X263238095Y-59095238D01*
X263285714Y-59190476D01*
X263333333Y-59380952D01*
X263333333Y-59523809D01*
X263285714Y-59714285D01*
X263238095Y-59809523D01*
X263142857Y-59904761D01*
X263000000Y-59952380D01*
X262761904Y-59952380D01*
X264285714Y-59952380D02*
X263714285Y-59952380D01*
X264000000Y-59952380D02*
X264000000Y-58952380D01*
X263904761Y-59095238D01*
X263809523Y-59190476D01*
X263714285Y-59238095D01*
X251782380Y-84733333D02*
X252496666Y-84733333D01*
X252639523Y-84780952D01*
X252734761Y-84876190D01*
X252782380Y-85019047D01*
X252782380Y-85114285D01*
X251782380Y-84352380D02*
X251782380Y-83733333D01*
X252163333Y-84066666D01*
X252163333Y-83923809D01*
X252210952Y-83828571D01*
X252258571Y-83780952D01*
X252353809Y-83733333D01*
X252591904Y-83733333D01*
X252687142Y-83780952D01*
X252734761Y-83828571D01*
X252782380Y-83923809D01*
X252782380Y-84209523D01*
X252734761Y-84304761D01*
X252687142Y-84352380D01*
X275133333Y-82552380D02*
X274800000Y-82076190D01*
X274561904Y-82552380D02*
X274561904Y-81552380D01*
X274942857Y-81552380D01*
X275038095Y-81600000D01*
X275085714Y-81647619D01*
X275133333Y-81742857D01*
X275133333Y-81885714D01*
X275085714Y-81980952D01*
X275038095Y-82028571D01*
X274942857Y-82076190D01*
X274561904Y-82076190D01*
X276085714Y-82552380D02*
X275514285Y-82552380D01*
X275800000Y-82552380D02*
X275800000Y-81552380D01*
X275704761Y-81695238D01*
X275609523Y-81790476D01*
X275514285Y-81838095D01*
X136944095Y-93631595D02*
X136944095Y-94441119D01*
X136991714Y-94536357D01*
X137039333Y-94583976D01*
X137134571Y-94631595D01*
X137325047Y-94631595D01*
X137420285Y-94583976D01*
X137467904Y-94536357D01*
X137515523Y-94441119D01*
X137515523Y-93631595D01*
X138467904Y-93631595D02*
X137991714Y-93631595D01*
X137944095Y-94107786D01*
X137991714Y-94060167D01*
X138086952Y-94012548D01*
X138325047Y-94012548D01*
X138420285Y-94060167D01*
X138467904Y-94107786D01*
X138515523Y-94203024D01*
X138515523Y-94441119D01*
X138467904Y-94536357D01*
X138420285Y-94583976D01*
X138325047Y-94631595D01*
X138086952Y-94631595D01*
X137991714Y-94583976D01*
X137944095Y-94536357D01*
X142552380Y-94400000D02*
X142790476Y-94400000D01*
X142695238Y-94638095D02*
X142790476Y-94400000D01*
X142695238Y-94161904D01*
X142980952Y-94542857D02*
X142790476Y-94400000D01*
X142980952Y-94257142D01*
X286288095Y-93502380D02*
X286288095Y-92502380D01*
X286288095Y-92978571D02*
X286859523Y-92978571D01*
X286859523Y-93502380D02*
X286859523Y-92502380D01*
X287764285Y-92835714D02*
X287764285Y-93502380D01*
X287526190Y-92454761D02*
X287288095Y-93169047D01*
X287907142Y-93169047D01*
X213682380Y-88761904D02*
X214491904Y-88761904D01*
X214587142Y-88714285D01*
X214634761Y-88666666D01*
X214682380Y-88571428D01*
X214682380Y-88380952D01*
X214634761Y-88285714D01*
X214587142Y-88238095D01*
X214491904Y-88190476D01*
X213682380Y-88190476D01*
X214015714Y-87285714D02*
X214682380Y-87285714D01*
X213634761Y-87523809D02*
X214349047Y-87761904D01*
X214349047Y-87142857D01*
X145838095Y-89552380D02*
X145838095Y-90361904D01*
X145885714Y-90457142D01*
X145933333Y-90504761D01*
X146028571Y-90552380D01*
X146219047Y-90552380D01*
X146314285Y-90504761D01*
X146361904Y-90457142D01*
X146409523Y-90361904D01*
X146409523Y-89552380D01*
X146790476Y-89552380D02*
X147457142Y-89552380D01*
X147028571Y-90552380D01*
X146600000Y-90047619D02*
X146600000Y-89809523D01*
X146838095Y-89904761D02*
X146600000Y-89809523D01*
X146361904Y-89904761D01*
X146742857Y-89619047D02*
X146600000Y-89809523D01*
X146457142Y-89619047D01*
X194227380Y-77459523D02*
X194941666Y-77459523D01*
X195084523Y-77507142D01*
X195179761Y-77602380D01*
X195227380Y-77745238D01*
X195227380Y-77840476D01*
X195227380Y-76459523D02*
X195227380Y-77030952D01*
X195227380Y-76745238D02*
X194227380Y-76745238D01*
X194370238Y-76840476D01*
X194465476Y-76935714D01*
X194513095Y-77030952D01*
X194227380Y-76126190D02*
X194227380Y-75459523D01*
X195227380Y-75888095D01*
X159684380Y-85990904D02*
X160493904Y-85990904D01*
X160589142Y-85943285D01*
X160636761Y-85895666D01*
X160684380Y-85800428D01*
X160684380Y-85609952D01*
X160636761Y-85514714D01*
X160589142Y-85467095D01*
X160493904Y-85419476D01*
X159684380Y-85419476D01*
X159684380Y-84514714D02*
X159684380Y-84705190D01*
X159732000Y-84800428D01*
X159779619Y-84848047D01*
X159922476Y-84943285D01*
X160112952Y-84990904D01*
X160493904Y-84990904D01*
X160589142Y-84943285D01*
X160636761Y-84895666D01*
X160684380Y-84800428D01*
X160684380Y-84609952D01*
X160636761Y-84514714D01*
X160589142Y-84467095D01*
X160493904Y-84419476D01*
X160255809Y-84419476D01*
X160160571Y-84467095D01*
X160112952Y-84514714D01*
X160065333Y-84609952D01*
X160065333Y-84800428D01*
X160112952Y-84895666D01*
X160160571Y-84943285D01*
X160255809Y-84990904D01*
X270504761Y-65547619D02*
X270409523Y-65500000D01*
X270314285Y-65404761D01*
X270171428Y-65261904D01*
X270076190Y-65214285D01*
X269980952Y-65214285D01*
X270028571Y-65452380D02*
X269933333Y-65404761D01*
X269838095Y-65309523D01*
X269790476Y-65119047D01*
X269790476Y-64785714D01*
X269838095Y-64595238D01*
X269933333Y-64500000D01*
X270028571Y-64452380D01*
X270219047Y-64452380D01*
X270314285Y-64500000D01*
X270409523Y-64595238D01*
X270457142Y-64785714D01*
X270457142Y-65119047D01*
X270409523Y-65309523D01*
X270314285Y-65404761D01*
X270219047Y-65452380D01*
X270028571Y-65452380D01*
X271409523Y-65452380D02*
X270838095Y-65452380D01*
X271123809Y-65452380D02*
X271123809Y-64452380D01*
X271028571Y-64595238D01*
X270933333Y-64690476D01*
X270838095Y-64738095D01*
D11*
X208130000Y-93810000D02*
X208130000Y-93930000D01*
X206800000Y-91270000D02*
X208130000Y-91270000D01*
X205470000Y-93930000D02*
X208130000Y-93930000D01*
X208130000Y-91270000D02*
X208130000Y-92600000D01*
X205470000Y-93810000D02*
X205470000Y-93930000D01*
X175200000Y-69680000D02*
X178800000Y-69680000D01*
X175200000Y-62320000D02*
X178800000Y-62320000D01*
X173320000Y-67800000D02*
X173320000Y-64200000D01*
X180680000Y-67800000D02*
X180680000Y-64200000D01*
X254342500Y-64902500D02*
X254342500Y-84082500D01*
X254092500Y-61692500D02*
X256492500Y-61692500D01*
X264642500Y-61942500D02*
X264642500Y-63082500D01*
X264642500Y-86242500D02*
X254342500Y-86242500D01*
X254342500Y-86242500D02*
X254342500Y-85102500D01*
X259892500Y-63792500D02*
X259892500Y-62592500D01*
X264632500Y-81642500D02*
X264642500Y-86242500D01*
X259192500Y-63792500D02*
X259892500Y-63792500D01*
X254092500Y-64032500D02*
X254092500Y-61692500D01*
X264642500Y-61942500D02*
X254342500Y-61942500D01*
X254342500Y-61942500D02*
X254342500Y-62282500D01*
X259192500Y-63392500D02*
X259892500Y-62992500D01*
X264642500Y-64102500D02*
X264642500Y-80582500D01*
X259892500Y-62592500D02*
X259192500Y-62592500D01*
X259192500Y-62592500D02*
X259192500Y-63792500D01*
X144653733Y-97173454D02*
X144946267Y-97173454D01*
X144653733Y-96153454D02*
X144946267Y-96153454D01*
X268830000Y-94630000D02*
X267500000Y-94630000D01*
X263630000Y-91970000D02*
X263630000Y-94630000D01*
X266230000Y-91970000D02*
X266230000Y-94630000D01*
X266230000Y-91970000D02*
X263630000Y-91970000D01*
X266230000Y-94630000D02*
X263630000Y-94630000D01*
X268830000Y-93300000D02*
X268830000Y-94630000D01*
X139600000Y-150550000D02*
X141200000Y-150550000D01*
X141200000Y-150550000D02*
X141200000Y-148050000D01*
X141200000Y-148050000D02*
X139600000Y-148050000D01*
X139600000Y-148050000D02*
X139600000Y-150550000D01*
X139600000Y-155550000D02*
X141200000Y-155550000D01*
X141200000Y-155550000D02*
X141200000Y-153050000D01*
X141200000Y-153050000D02*
X139600000Y-153050000D01*
X139600000Y-153050000D02*
X139600000Y-155550000D01*
X139600000Y-135550000D02*
X141200000Y-135550000D01*
X141200000Y-135550000D02*
X141200000Y-133050000D01*
X141200000Y-133050000D02*
X139600000Y-133050000D01*
X139600000Y-133050000D02*
X139600000Y-135550000D01*
X139600000Y-145550000D02*
X141200000Y-145550000D01*
X141200000Y-145550000D02*
X141200000Y-143050000D01*
X141200000Y-143050000D02*
X139600000Y-143050000D01*
X139600000Y-143050000D02*
X139600000Y-145550000D01*
X139600000Y-170550000D02*
X141200000Y-170550000D01*
X141200000Y-170550000D02*
X141200000Y-168050000D01*
X141200000Y-168050000D02*
X139600000Y-168050000D01*
X139600000Y-168050000D02*
X139600000Y-170550000D01*
X139600000Y-175650000D02*
X141200000Y-175650000D01*
X141200000Y-175650000D02*
X141200000Y-173150000D01*
X141200000Y-173150000D02*
X139600000Y-173150000D01*
X139600000Y-173150000D02*
X139600000Y-175650000D01*
X139600000Y-140550000D02*
X141200000Y-140550000D01*
X141200000Y-140550000D02*
X141200000Y-138050000D01*
X141200000Y-138050000D02*
X139600000Y-138050000D01*
X139600000Y-138050000D02*
X139600000Y-140550000D01*
X141150000Y-191950000D02*
X139650000Y-191950000D01*
X139650000Y-191950000D02*
X139650000Y-126950000D01*
X139650000Y-126950000D02*
X141150000Y-126950000D01*
X141150000Y-126950000D02*
X141150000Y-191950000D01*
X139600000Y-160550000D02*
X141200000Y-160550000D01*
X141200000Y-160550000D02*
X141200000Y-158050000D01*
X141200000Y-158050000D02*
X139600000Y-158050000D01*
X139600000Y-158050000D02*
X139600000Y-160550000D01*
X139600000Y-185350000D02*
X141200000Y-185350000D01*
X141200000Y-185350000D02*
X141200000Y-182850000D01*
X141200000Y-182850000D02*
X139600000Y-182850000D01*
X139600000Y-182850000D02*
X139600000Y-185350000D01*
X139600000Y-180650000D02*
X141200000Y-180650000D01*
X141200000Y-180650000D02*
X141200000Y-178150000D01*
X141200000Y-178150000D02*
X139600000Y-178150000D01*
X139600000Y-178150000D02*
X139600000Y-180650000D01*
X139600000Y-165550000D02*
X141200000Y-165550000D01*
X141200000Y-165550000D02*
X141200000Y-163050000D01*
X141200000Y-163050000D02*
X139600000Y-163050000D01*
X139600000Y-163050000D02*
X139600000Y-165550000D01*
X288395000Y-108042500D02*
X293895000Y-106042500D01*
X129895000Y-102042500D02*
X128895000Y-102542500D01*
X127395000Y-94042500D02*
X126395000Y-94542500D01*
X129895000Y-107292500D02*
X128895000Y-107792500D01*
X291695000Y-95942500D02*
X295395000Y-94542500D01*
X291895000Y-99042500D02*
X295295000Y-97842500D01*
X291645000Y-104042500D02*
X295495000Y-102442500D01*
X129895000Y-97542500D02*
X128895000Y-98042500D01*
X291645000Y-102542500D02*
X295295000Y-101142500D01*
X127395000Y-98542500D02*
X126395000Y-99042500D01*
X291645000Y-94542500D02*
X295195000Y-93242500D01*
X288395000Y-118042500D02*
X293895000Y-116042500D01*
X126895000Y-107292500D02*
X125895000Y-107792500D01*
X129395000Y-93042500D02*
X128395000Y-93542500D01*
X126895000Y-102042500D02*
X125895000Y-102542500D01*
X288395000Y-110042500D02*
X293895000Y-108042500D01*
X135067500Y-83000000D02*
X135067500Y-53000000D01*
X145567500Y-53000000D02*
X145567500Y-83000000D01*
X145567500Y-84887500D02*
X135067500Y-84912500D01*
X145567500Y-55000000D02*
X135067500Y-55000000D01*
X138046000Y-117326000D02*
X138046000Y-120926000D01*
X130686000Y-117326000D02*
X130686000Y-120926000D01*
X132566000Y-115446000D02*
X136166000Y-115446000D01*
X132566000Y-122806000D02*
X136166000Y-122806000D01*
X268590000Y-127330000D02*
X273730000Y-127330000D01*
X265990000Y-126000000D02*
X265990000Y-124670000D01*
X273730000Y-127330000D02*
X273730000Y-124670000D01*
X268590000Y-124670000D02*
X273730000Y-124670000D01*
X268590000Y-127330000D02*
X268590000Y-124670000D01*
X265990000Y-124670000D02*
X267320000Y-124670000D01*
X247600000Y-129450000D02*
X245600000Y-129450000D01*
X245600000Y-129450000D02*
X245600000Y-130950000D01*
X245600000Y-130950000D02*
X247600000Y-130950000D01*
X247600000Y-130950000D02*
X247600000Y-129450000D01*
X271600000Y-129500000D02*
X269600000Y-129500000D01*
X269600000Y-129500000D02*
X269600000Y-131000000D01*
X269600000Y-131000000D02*
X271600000Y-131000000D01*
X271600000Y-131000000D02*
X271600000Y-129500000D01*
X253600000Y-129450000D02*
X251600000Y-129450000D01*
X251600000Y-129450000D02*
X251600000Y-130950000D01*
X251600000Y-130950000D02*
X253600000Y-130950000D01*
X253600000Y-130950000D02*
X253600000Y-129450000D01*
X265600000Y-129450000D02*
X263600000Y-129450000D01*
X263600000Y-129450000D02*
X263600000Y-130950000D01*
X263600000Y-130950000D02*
X265600000Y-130950000D01*
X265600000Y-130950000D02*
X265600000Y-129450000D01*
X274600000Y-131100000D02*
X241700000Y-131100000D01*
X241700000Y-131100000D02*
X241700000Y-129500000D01*
X241700000Y-129500000D02*
X274600000Y-129500000D01*
X274600000Y-129500000D02*
X274600000Y-131100000D01*
X259600000Y-129450000D02*
X257600000Y-129450000D01*
X257600000Y-129450000D02*
X257600000Y-130950000D01*
X257600000Y-130950000D02*
X259600000Y-130950000D01*
X259600000Y-130950000D02*
X259600000Y-129450000D01*
X204395000Y-186020000D02*
X204395000Y-188620000D01*
X204395000Y-188620000D02*
X207055000Y-188620000D01*
X207055000Y-183420000D02*
X207055000Y-184750000D01*
X204395000Y-186020000D02*
X207055000Y-186020000D01*
X205725000Y-183420000D02*
X207055000Y-183420000D01*
X207055000Y-186020000D02*
X207055000Y-188620000D01*
X248730000Y-77420000D02*
X248730000Y-80080000D01*
X250000000Y-77420000D02*
X251330000Y-77420000D01*
X243590000Y-77420000D02*
X243590000Y-80080000D01*
X248730000Y-77420000D02*
X243590000Y-77420000D01*
X248730000Y-80080000D02*
X243590000Y-80080000D01*
X251330000Y-77420000D02*
X251330000Y-78750000D01*
X240300000Y-123825000D02*
X236600000Y-116825000D01*
X277300000Y-97625000D02*
X284100000Y-104425000D01*
X236600000Y-104625000D02*
X236600000Y-116825000D01*
X240300000Y-97625000D02*
X236600000Y-104625000D01*
X277300000Y-123825000D02*
X284100000Y-117025000D01*
X284100000Y-104425000D02*
X284100000Y-117025000D01*
X277300000Y-97625000D02*
X240300000Y-97625000D01*
X240300000Y-97625000D02*
X240300000Y-123825000D01*
X240300000Y-123825000D02*
X277300000Y-123825000D01*
X277300000Y-123825000D02*
X277300000Y-97625000D01*
X202655000Y-162055000D02*
X205555000Y-162055000D01*
X202655000Y-157305000D02*
X205555000Y-157305000D01*
D12*
X201155000Y-155705000D02*
X202655000Y-155705000D01*
X202655000Y-163605000D02*
X201155000Y-163605000D01*
D11*
X202655000Y-159505000D02*
X205555000Y-159505000D01*
X205555000Y-160205000D02*
X205555000Y-159505000D01*
X205555000Y-162755000D02*
X205555000Y-162055000D01*
D12*
X201155000Y-163605000D02*
X201155000Y-155705000D01*
D11*
X202655000Y-156605000D02*
X205555000Y-156605000D01*
X202655000Y-160205000D02*
X205555000Y-160205000D01*
D12*
X202655000Y-155705000D02*
X202655000Y-163605000D01*
D11*
X201155000Y-158305000D02*
X202655000Y-158305000D01*
X205555000Y-157305000D02*
X205555000Y-156605000D01*
X202655000Y-162755000D02*
X205555000Y-162755000D01*
X201155000Y-161005000D02*
X202655000Y-161005000D01*
X144755000Y-176005000D02*
X210255000Y-176005000D01*
X210255000Y-176005000D02*
X210255000Y-118805000D01*
X210255000Y-118805000D02*
X144755000Y-118805000D01*
X144755000Y-118805000D02*
X144755000Y-176005000D01*
X145755000Y-134905000D02*
X150555000Y-134905000D01*
X150555000Y-134905000D02*
X150555000Y-127005000D01*
X150555000Y-127005000D02*
X145755000Y-127005000D01*
X145755000Y-127005000D02*
X145755000Y-134905000D01*
X209255000Y-164205000D02*
X197655000Y-164205000D01*
X197655000Y-164205000D02*
X197655000Y-155205000D01*
X197655000Y-155205000D02*
X209255000Y-155205000D01*
X209255000Y-155205000D02*
X209255000Y-164205000D01*
X200355000Y-162305000D02*
G75*
G03*
X200355000Y-162305000I-800000J0D01*
G01*
X200355000Y-157205000D02*
G75*
G03*
X200355000Y-157205000I-800000J0D01*
G01*
X200355000Y-159705000D02*
G75*
G03*
X200355000Y-159705000I-800000J0D01*
G01*
X249330000Y-72460000D02*
X249330000Y-72580000D01*
X249330000Y-69920000D02*
X249330000Y-71250000D01*
X248000000Y-69920000D02*
X249330000Y-69920000D01*
X246670000Y-72580000D02*
X249330000Y-72580000D01*
X246670000Y-72460000D02*
X246670000Y-72580000D01*
X139790000Y-88953733D02*
X139790000Y-89246267D01*
X140810000Y-88953733D02*
X140810000Y-89246267D01*
X227190000Y-189520000D02*
X227190000Y-191700000D01*
X228190000Y-178050000D02*
X227190000Y-178050000D01*
X214570000Y-189520000D02*
X214570000Y-191700000D01*
X213570000Y-177430000D02*
X228190000Y-177430000D01*
X214570000Y-178050000D02*
X213570000Y-178050000D01*
X223980000Y-194700000D02*
X224780000Y-194700000D01*
X228190000Y-177430000D02*
X228190000Y-178050000D01*
X213570000Y-178050000D02*
X213570000Y-177430000D01*
X227190000Y-178050000D02*
X227190000Y-186020000D01*
X226070000Y-194550000D02*
X215690000Y-194550000D01*
X214570000Y-186020000D02*
X214570000Y-178050000D01*
X150530000Y-84610000D02*
X150530000Y-84730000D01*
X149200000Y-82070000D02*
X150530000Y-82070000D01*
X147870000Y-84610000D02*
X147870000Y-84730000D01*
X147870000Y-84730000D02*
X150530000Y-84730000D01*
X150530000Y-82070000D02*
X150530000Y-83400000D01*
X271810000Y-84877064D02*
X271810000Y-80522936D01*
X268390000Y-84877064D02*
X268390000Y-80522936D01*
X224270000Y-66127500D02*
X224270000Y-60127500D01*
X225920000Y-68787500D02*
X225920000Y-66127500D01*
X219190000Y-66127500D02*
X219190000Y-60127500D01*
X217410000Y-60127500D02*
X217410000Y-66127500D01*
X231000000Y-68787500D02*
X231000000Y-66127500D01*
X233540000Y-68787500D02*
X233540000Y-66127500D01*
X234430000Y-60127500D02*
X235190000Y-60127500D01*
X236140000Y-68787500D02*
X236140000Y-66127500D01*
X200500000Y-68587500D02*
X203100000Y-68587500D01*
X216950000Y-66127500D02*
X216950000Y-60127500D01*
X226810000Y-60127500D02*
X227570000Y-60127500D01*
X229350000Y-60127500D02*
X230110000Y-60127500D01*
X200500000Y-65187500D02*
X200500000Y-68587500D01*
X217190000Y-66127500D02*
X217190000Y-60127500D01*
X217070000Y-66127500D02*
X217070000Y-60127500D01*
X215615000Y-68937500D02*
X236055000Y-68937500D01*
X229350000Y-66127500D02*
X229350000Y-60127500D01*
X219950000Y-60127500D02*
X219950000Y-66127500D01*
X231890000Y-66127500D02*
X231890000Y-60127500D01*
X220840000Y-68787500D02*
X220840000Y-66127500D01*
X224270000Y-60127500D02*
X225030000Y-60127500D01*
X251300000Y-68487500D02*
X248700000Y-68487500D01*
X236140000Y-66127500D02*
X215700000Y-66127500D01*
X215700000Y-66127500D02*
X215700000Y-68787500D01*
X228460000Y-68787500D02*
X228460000Y-66127500D01*
X231890000Y-60127500D02*
X232650000Y-60127500D01*
X219190000Y-60127500D02*
X219950000Y-60127500D01*
X216650000Y-66127500D02*
X216650000Y-60127500D01*
X216830000Y-66127500D02*
X216830000Y-60127500D01*
X221730000Y-66127500D02*
X221730000Y-60127500D01*
X211100000Y-73187500D02*
X211100000Y-71037500D01*
X227570000Y-60127500D02*
X227570000Y-66127500D01*
X222490000Y-60127500D02*
X222490000Y-66127500D01*
X235190000Y-60127500D02*
X235190000Y-66127500D01*
X223380000Y-68787500D02*
X223380000Y-66127500D01*
X212300000Y-73187500D02*
X212300000Y-70987500D01*
X217310000Y-66127500D02*
X217310000Y-60127500D01*
X226810000Y-66127500D02*
X226810000Y-60127500D01*
X216710000Y-66127500D02*
X216710000Y-60127500D01*
X221730000Y-60127500D02*
X222490000Y-60127500D01*
X216650000Y-60127500D02*
X217410000Y-60127500D01*
X225030000Y-60127500D02*
X225030000Y-66127500D01*
X251300000Y-64987500D02*
X251300000Y-68487500D01*
X232650000Y-60127500D02*
X232650000Y-66127500D01*
X234430000Y-66127500D02*
X234430000Y-60127500D01*
X230110000Y-60127500D02*
X230110000Y-66127500D01*
X218300000Y-68787500D02*
X218300000Y-66127500D01*
X200425000Y-183420000D02*
X201755000Y-183420000D01*
X201755000Y-183420000D02*
X201755000Y-184750000D01*
X199095000Y-188620000D02*
X201755000Y-188620000D01*
X199095000Y-186020000D02*
X199095000Y-188620000D01*
X201755000Y-186020000D02*
X201755000Y-188620000D01*
X199095000Y-186020000D02*
X201755000Y-186020000D01*
X136690000Y-100253733D02*
X136690000Y-100546267D01*
X137710000Y-100253733D02*
X137710000Y-100546267D01*
X220000000Y-203527064D02*
X220000000Y-199172936D01*
X223420000Y-203527064D02*
X223420000Y-199172936D01*
X261700000Y-61000000D02*
X257850000Y-61000000D01*
X261700000Y-61000000D02*
X261700000Y-59000000D01*
X261700000Y-59000000D02*
X257850000Y-59000000D01*
X185640000Y-177990000D02*
X186970000Y-177990000D01*
X188240000Y-177990000D02*
X193380000Y-177990000D01*
X188240000Y-180650000D02*
X188240000Y-177990000D01*
X193380000Y-180650000D02*
X193380000Y-177990000D01*
X185640000Y-179320000D02*
X185640000Y-177990000D01*
X188240000Y-180650000D02*
X193380000Y-180650000D01*
X179250000Y-182770000D02*
X177250000Y-182770000D01*
X177250000Y-182770000D02*
X177250000Y-184270000D01*
X177250000Y-184270000D02*
X179250000Y-184270000D01*
X179250000Y-184270000D02*
X179250000Y-182770000D01*
X185250000Y-182770000D02*
X183250000Y-182770000D01*
X183250000Y-182770000D02*
X183250000Y-184270000D01*
X183250000Y-184270000D02*
X185250000Y-184270000D01*
X185250000Y-184270000D02*
X185250000Y-182770000D01*
X191250000Y-182820000D02*
X189250000Y-182820000D01*
X189250000Y-182820000D02*
X189250000Y-184320000D01*
X189250000Y-184320000D02*
X191250000Y-184320000D01*
X191250000Y-184320000D02*
X191250000Y-182820000D01*
X167250000Y-182770000D02*
X165250000Y-182770000D01*
X165250000Y-182770000D02*
X165250000Y-184270000D01*
X165250000Y-184270000D02*
X167250000Y-184270000D01*
X167250000Y-184270000D02*
X167250000Y-182770000D01*
X173250000Y-182770000D02*
X171250000Y-182770000D01*
X171250000Y-182770000D02*
X171250000Y-184270000D01*
X171250000Y-184270000D02*
X173250000Y-184270000D01*
X173250000Y-184270000D02*
X173250000Y-182770000D01*
X194250000Y-184420000D02*
X161350000Y-184420000D01*
X161350000Y-184420000D02*
X161350000Y-182820000D01*
X161350000Y-182820000D02*
X194250000Y-182820000D01*
X194250000Y-182820000D02*
X194250000Y-184420000D01*
X251330000Y-83070000D02*
X251330000Y-84400000D01*
X248730000Y-83070000D02*
X243590000Y-83070000D01*
X248730000Y-85730000D02*
X243590000Y-85730000D01*
X248730000Y-83070000D02*
X248730000Y-85730000D01*
X250000000Y-83070000D02*
X251330000Y-83070000D01*
X243590000Y-83070000D02*
X243590000Y-85730000D01*
X276660000Y-83627064D02*
X276660000Y-80572936D01*
X273940000Y-83627064D02*
X273940000Y-80572936D01*
X142323900Y-96112950D02*
X142323900Y-92760150D01*
X138971100Y-92760150D02*
X138971100Y-96112950D01*
X210630000Y-86670000D02*
X210630000Y-89330000D01*
X210630000Y-86670000D02*
X202950000Y-86670000D01*
X210630000Y-89330000D02*
X202950000Y-89330000D01*
X211900000Y-86670000D02*
X213230000Y-86670000D01*
X213230000Y-86670000D02*
X213230000Y-88000000D01*
X202950000Y-86670000D02*
X202950000Y-89330000D01*
X147300000Y-86940000D02*
X145900000Y-86940000D01*
X145900000Y-89260000D02*
X147800000Y-89260000D01*
X192345000Y-74780000D02*
X192345000Y-73450000D01*
X195005000Y-69580000D02*
X192345000Y-69580000D01*
X195005000Y-72180000D02*
X195005000Y-69580000D01*
X192345000Y-72180000D02*
X192345000Y-69580000D01*
X195005000Y-72180000D02*
X192345000Y-72180000D01*
X193675000Y-74780000D02*
X192345000Y-74780000D01*
X163522000Y-102899000D02*
X163522000Y-106219000D01*
X164372000Y-62519000D02*
X167692000Y-62519000D01*
X165472000Y-108169000D02*
X168792000Y-108169000D01*
X169642000Y-64469000D02*
X169642000Y-67789000D01*
X170742000Y-102899000D02*
X170742000Y-106219000D01*
X165472000Y-100949000D02*
X168792000Y-100949000D01*
X162422000Y-64469000D02*
X162422000Y-67789000D01*
X164372000Y-69739000D02*
X167692000Y-69739000D01*
X151532000Y-100359000D02*
X182132000Y-100359000D01*
X182132000Y-100359000D02*
X182132000Y-70359000D01*
X182132000Y-70359000D02*
X151532000Y-70359000D01*
X151532000Y-70359000D02*
X151532000Y-100359000D01*
X268860000Y-64700000D02*
X268860000Y-65350000D01*
X268860000Y-64700000D02*
X268860000Y-64050000D01*
X265740000Y-64700000D02*
X265740000Y-64050000D01*
X265740000Y-64700000D02*
X265740000Y-66375000D01*
%LPC*%
D13*
X206800000Y-92600000D03*
D14*
X177000000Y-66000000D03*
D15*
X174460000Y-63460000D03*
X179540000Y-63460000D03*
X179540000Y-68540000D03*
X174460000Y-68540000D03*
D16*
X255742500Y-63592500D03*
D17*
X255742500Y-84592500D03*
X263242500Y-81092500D03*
X263242500Y-63592500D03*
D18*
X143937500Y-96663454D03*
X145662500Y-96663454D03*
D13*
X267500000Y-93300000D03*
D19*
X264960000Y-93300000D03*
D20*
X282800000Y-196600000D03*
D21*
X140300000Y-125650000D03*
X140300000Y-193250000D03*
D22*
X144650000Y-161150000D03*
X144650000Y-158450000D03*
X144700000Y-183650000D03*
X144700000Y-180950000D03*
X144650000Y-136850000D03*
X144650000Y-139550000D03*
D23*
X127895000Y-104442500D03*
D24*
X127895000Y-100542500D03*
X127895000Y-96942500D03*
X238495000Y-95042500D03*
X241795000Y-95056448D03*
X293395000Y-97042500D03*
X293395000Y-100242500D03*
D25*
X290895000Y-113042500D03*
D26*
X140567500Y-82800000D03*
D27*
X140367500Y-53000000D03*
D28*
X140667500Y-74000000D03*
D14*
X134366000Y-119126000D03*
D15*
X131826000Y-116586000D03*
X136906000Y-116586000D03*
X131826000Y-121666000D03*
X136906000Y-121666000D03*
D13*
X267320000Y-126000000D03*
D19*
X269860000Y-126000000D03*
X272400000Y-126000000D03*
D29*
X240700000Y-130300000D03*
X275600000Y-130300000D03*
D13*
X205725000Y-184750000D03*
D19*
X205725000Y-187290000D03*
D13*
X250000000Y-78750000D03*
D19*
X247460000Y-78750000D03*
X244920000Y-78750000D03*
D30*
X292200000Y-174850000D03*
D31*
X294700000Y-190150000D03*
X294700000Y-193650000D03*
X294700000Y-197550000D03*
D24*
X214204026Y-200350000D03*
X210900000Y-200350000D03*
D23*
X206600000Y-200350000D03*
X129000000Y-192650000D03*
D24*
X129000000Y-188350000D03*
X129100000Y-185250000D03*
D32*
X240400000Y-119825000D03*
X240700000Y-101125000D03*
X280500000Y-111325000D03*
D22*
X248600000Y-113625000D03*
X246100000Y-113625000D03*
X260050000Y-121775000D03*
X243500000Y-113625000D03*
X257550000Y-121775000D03*
D33*
X288100000Y-195200000D03*
D32*
X206755000Y-124305000D03*
X148755000Y-122305000D03*
X149055000Y-171305000D03*
D34*
X175255000Y-147205000D03*
D32*
X204455000Y-170605000D03*
D22*
X146855000Y-133505000D03*
X146855000Y-130905000D03*
X146855000Y-128405000D03*
X149455000Y-130905000D03*
D35*
X149455000Y-133505000D03*
D22*
X149455000Y-128405000D03*
X160055000Y-120805000D03*
D35*
X157355000Y-120805000D03*
D22*
X202315000Y-120805000D03*
D35*
X199755000Y-120805000D03*
D13*
X248000000Y-71250000D03*
D36*
X140300000Y-88237500D03*
X140300000Y-89962500D03*
D37*
X224380000Y-193100000D03*
D38*
X221880000Y-193100000D03*
X219880000Y-193100000D03*
X217380000Y-193100000D03*
X224380000Y-190480000D03*
X221880000Y-190480000D03*
X219880000Y-190480000D03*
X217380000Y-190480000D03*
D32*
X214310000Y-187770000D03*
X214310000Y-193450000D03*
X227450000Y-193450000D03*
X227450000Y-187770000D03*
D13*
X149200000Y-83400000D03*
D39*
X286800000Y-148500000D03*
D40*
X270100000Y-85750000D03*
X270100000Y-79650000D03*
D13*
X211700000Y-74167500D03*
D19*
X215250000Y-74237500D03*
X218700000Y-74337500D03*
X233200000Y-74137500D03*
X236700000Y-74137500D03*
X240200000Y-74187500D03*
X211700000Y-70287500D03*
X215150000Y-70287500D03*
X218750000Y-70287500D03*
X224200000Y-70337500D03*
X227700000Y-70387500D03*
X233200000Y-70237500D03*
X236700000Y-70237500D03*
X240200000Y-70237500D03*
D41*
X247450000Y-64637500D03*
X204400000Y-64687500D03*
D33*
X134950000Y-195200000D03*
D13*
X200425000Y-184750000D03*
D19*
X200425000Y-187290000D03*
D36*
X137200000Y-99537500D03*
X137200000Y-101262500D03*
D40*
X221710000Y-204400000D03*
X221710000Y-198300000D03*
D42*
X260900000Y-60000000D03*
X258100000Y-60000000D03*
D13*
X186970000Y-179320000D03*
D19*
X189510000Y-179320000D03*
X192050000Y-179320000D03*
D29*
X195250000Y-183620000D03*
X160350000Y-183620000D03*
D13*
X250000000Y-84400000D03*
D19*
X247460000Y-84400000D03*
X244920000Y-84400000D03*
D43*
X275300000Y-84500000D03*
X275300000Y-79700000D03*
D44*
X141622860Y-92214050D03*
X140972620Y-92214050D03*
X140322380Y-92214050D03*
X139672140Y-92214050D03*
X139672140Y-96659050D03*
X140322380Y-96659050D03*
X140972620Y-96659050D03*
X141622860Y-96659050D03*
D45*
X140647500Y-94436550D03*
D33*
X287000000Y-96250000D03*
D13*
X211900000Y-88000000D03*
D19*
X209360000Y-88000000D03*
X206820000Y-88000000D03*
X204280000Y-88000000D03*
D46*
X147930000Y-88750000D03*
X147930000Y-88100000D03*
X147930000Y-87450000D03*
X145270000Y-87450000D03*
X145270000Y-88100000D03*
X145270000Y-88750000D03*
D33*
X134050000Y-96750000D03*
D13*
X193675000Y-73450000D03*
D19*
X193675000Y-70910000D03*
D39*
X227500000Y-148400000D03*
D24*
X178732000Y-97729000D03*
X153332000Y-73129000D03*
X178732000Y-73029000D03*
X153332000Y-97729000D03*
D47*
X178832000Y-86429000D03*
D24*
X178832000Y-82629000D03*
D14*
X166032000Y-66129000D03*
D15*
X163492000Y-68669000D03*
X163492000Y-63589000D03*
X168572000Y-63589000D03*
X168572000Y-68669000D03*
D14*
X167132000Y-104559000D03*
D15*
X169672000Y-102019000D03*
X169672000Y-107099000D03*
X164592000Y-102019000D03*
X164592000Y-107099000D03*
D39*
X227500000Y-198500000D03*
D48*
X267300000Y-63762500D03*
X266350000Y-65637500D03*
X268250000Y-65637500D03*
M02*
