%FSLAX45Y45*%
G04 Gerber Fmt 4.5, Leading zero omitted, Abs format (unit mm)*
G04 Created by KiCad (PCBNEW (6.0.1)) date 2022-04-24 16:37:46*
%MOMM*%
%LPD*%
G01*
G04 APERTURE LIST*
%TA.AperFunction,Profile*%
%ADD10C,0.100000*%
%TD*%
%ADD11C,0.200000*%
G04 APERTURE END LIST*
D10*
X12790000Y-7190000D02*
X18680000Y-7190000D01*
X18680000Y-7190000D02*
X18680000Y-10480000D01*
X18680000Y-10480000D02*
X12790000Y-10480000D01*
X12790000Y-10480000D02*
X12790000Y-7190000D01*
D11*
X13042619Y-10795476D02*
X13042619Y-10595476D01*
X13090238Y-10595476D01*
X13118809Y-10605000D01*
X13137857Y-10624048D01*
X13147381Y-10643095D01*
X13156905Y-10681190D01*
X13156905Y-10709762D01*
X13147381Y-10747857D01*
X13137857Y-10766905D01*
X13118809Y-10785952D01*
X13090238Y-10795476D01*
X13042619Y-10795476D01*
X13242619Y-10795476D02*
X13242619Y-10662143D01*
X13242619Y-10700238D02*
X13252143Y-10681190D01*
X13261667Y-10671667D01*
X13280714Y-10662143D01*
X13299762Y-10662143D01*
X13366428Y-10795476D02*
X13366428Y-10662143D01*
X13366428Y-10595476D02*
X13356905Y-10605000D01*
X13366428Y-10614524D01*
X13375952Y-10605000D01*
X13366428Y-10595476D01*
X13366428Y-10614524D01*
X13490238Y-10795476D02*
X13471190Y-10785952D01*
X13461667Y-10766905D01*
X13461667Y-10595476D01*
X13595000Y-10795476D02*
X13575952Y-10785952D01*
X13566428Y-10766905D01*
X13566428Y-10595476D01*
X13823571Y-10795476D02*
X13823571Y-10595476D01*
X13890238Y-10738333D01*
X13956905Y-10595476D01*
X13956905Y-10795476D01*
X14137857Y-10795476D02*
X14137857Y-10690714D01*
X14128333Y-10671667D01*
X14109286Y-10662143D01*
X14071190Y-10662143D01*
X14052143Y-10671667D01*
X14137857Y-10785952D02*
X14118809Y-10795476D01*
X14071190Y-10795476D01*
X14052143Y-10785952D01*
X14042619Y-10766905D01*
X14042619Y-10747857D01*
X14052143Y-10728810D01*
X14071190Y-10719286D01*
X14118809Y-10719286D01*
X14137857Y-10709762D01*
X14233095Y-10662143D02*
X14233095Y-10862143D01*
X14233095Y-10671667D02*
X14252143Y-10662143D01*
X14290238Y-10662143D01*
X14309286Y-10671667D01*
X14318809Y-10681190D01*
X14328333Y-10700238D01*
X14328333Y-10757381D01*
X14318809Y-10776429D01*
X14309286Y-10785952D01*
X14290238Y-10795476D01*
X14252143Y-10795476D01*
X14233095Y-10785952D01*
X14414048Y-10776429D02*
X14423571Y-10785952D01*
X14414048Y-10795476D01*
X14404524Y-10785952D01*
X14414048Y-10776429D01*
X14414048Y-10795476D01*
X14414048Y-10671667D02*
X14423571Y-10681190D01*
X14414048Y-10690714D01*
X14404524Y-10681190D01*
X14414048Y-10671667D01*
X14414048Y-10690714D01*
M02*
