M48
; DRILL file {KiCad (6.0.1)} date Thu Jun  9 14:01:24 2022
; FORMAT={-:-/ absolute / metric / decimal}
; #@! TF.CreationDate,2022-06-09T14:01:24-07:00
; #@! TF.GenerationSoftware,Kicad,Pcbnew,(6.0.1)
; #@! TF.FileFunction,Plated,1,2,PTH
FMAT,2
METRIC
; #@! TA.AperFunction,Plated,PTH,ViaDrill
T1C0.400
; #@! TA.AperFunction,Plated,PTH,ComponentDrill
T2C0.991
; #@! TA.AperFunction,Plated,PTH,ComponentDrill
T3C1.000
%
G90
G05
T1
X131.064Y-88.9
X131.064Y-93.218
X134.41Y-76.8
X136.05Y-84.45
X136.55Y-94.75
X136.62Y-89.96
X137.95Y-79.95
X137.95Y-81.65
X138.0Y-78.2
X138.0Y-83.8
X138.0Y-85.1
X139.9Y-78.2
X139.9Y-79.9
X139.9Y-81.6
X140.2Y-83.8
X140.3Y-85.2
X140.72Y-92.99
X141.9Y-87.0
X142.0Y-81.9
X142.0Y-84.4
X144.018Y-95.504
X145.7Y-95.5
X146.35Y-77.57
X147.676Y-80.518
X148.35Y-77.57
X150.19Y-77.55
X150.2Y-79.65
X150.25Y-81.35
X152.175Y-101.225
X152.4Y-88.138
X152.42Y-92.74
X154.02Y-75.22
X154.13Y-83.81
T2
X135.274Y-96.681
X135.274Y-101.681
X137.774Y-99.181
T3
X142.565Y-74.105
X142.565Y-76.645
X142.565Y-79.185
T0
M30
