G04 #@! TF.GenerationSoftware,KiCad,Pcbnew,(6.0.1)*
G04 #@! TF.CreationDate,2022-06-09T14:01:23-07:00*
G04 #@! TF.ProjectId,Regulator_5V_rev1_2,52656775-6c61-4746-9f72-5f35565f7265,1.2*
G04 #@! TF.SameCoordinates,Original*
G04 #@! TF.FileFunction,Legend,Top*
G04 #@! TF.FilePolarity,Positive*
%FSLAX46Y46*%
G04 Gerber Fmt 4.6, Leading zero omitted, Abs format (unit mm)*
G04 Created by KiCad (PCBNEW (6.0.1)) date 2022-06-09 14:01:23*
%MOMM*%
%LPD*%
G01*
G04 APERTURE LIST*
G04 Aperture macros list*
%AMRoundRect*
0 Rectangle with rounded corners*
0 $1 Rounding radius*
0 $2 $3 $4 $5 $6 $7 $8 $9 X,Y pos of 4 corners*
0 Add a 4 corners polygon primitive as box body*
4,1,4,$2,$3,$4,$5,$6,$7,$8,$9,$2,$3,0*
0 Add four circle primitives for the rounded corners*
1,1,$1+$1,$2,$3*
1,1,$1+$1,$4,$5*
1,1,$1+$1,$6,$7*
1,1,$1+$1,$8,$9*
0 Add four rect primitives between the rounded corners*
20,1,$1+$1,$2,$3,$4,$5,0*
20,1,$1+$1,$4,$5,$6,$7,0*
20,1,$1+$1,$6,$7,$8,$9,0*
20,1,$1+$1,$8,$9,$2,$3,0*%
G04 Aperture macros list end*
%ADD10C,0.150000*%
%ADD11C,0.120000*%
%ADD12RoundRect,0.250000X-0.875000X-1.025000X0.875000X-1.025000X0.875000X1.025000X-0.875000X1.025000X0*%
%ADD13RoundRect,0.237500X-0.300000X-0.237500X0.300000X-0.237500X0.300000X0.237500X-0.300000X0.237500X0*%
%ADD14R,1.778000X0.533400*%
%ADD15R,2.400000X3.099999*%
%ADD16RoundRect,0.250000X-0.475000X0.337500X-0.475000X-0.337500X0.475000X-0.337500X0.475000X0.337500X0*%
%ADD17RoundRect,0.250000X0.350000X0.450000X-0.350000X0.450000X-0.350000X-0.450000X0.350000X-0.450000X0*%
%ADD18R,3.500000X2.700000*%
%ADD19C,1.498600*%
%ADD20RoundRect,0.237500X-0.237500X0.300000X-0.237500X-0.300000X0.237500X-0.300000X0.237500X0.300000X0*%
%ADD21R,1.700000X1.700000*%
%ADD22O,1.700000X1.700000*%
G04 APERTURE END LIST*
D10*
X128000000Y-98900000D02*
X129900000Y-98900000D01*
X128000000Y-74900000D02*
X129900000Y-74900000D01*
X128000000Y-92900000D02*
X129900000Y-92900000D01*
X129900000Y-82900000D02*
X128000000Y-82900000D01*
X129900000Y-94900000D02*
X128000000Y-94900000D01*
X129900000Y-88900000D02*
X128000000Y-88900000D01*
X129900000Y-76900000D02*
X128000000Y-76900000D01*
X128800000Y-98900000D02*
X128800000Y-100900000D01*
X129900000Y-100900000D02*
X128000000Y-100900000D01*
X128000000Y-80900000D02*
X129900000Y-80900000D01*
X128800000Y-86900000D02*
X128800000Y-88900000D01*
X128800000Y-74900000D02*
X128800000Y-76900000D01*
X128800000Y-92900000D02*
X128800000Y-94900000D01*
X128800000Y-80900000D02*
X128800000Y-82900000D01*
X128000000Y-86900000D02*
X129900000Y-86900000D01*
X135176190Y-73552380D02*
X135509523Y-74552380D01*
X135842857Y-73552380D01*
X136319047Y-74552380D02*
X136223809Y-74504761D01*
X136176190Y-74457142D01*
X136128571Y-74361904D01*
X136128571Y-74076190D01*
X136176190Y-73980952D01*
X136223809Y-73933333D01*
X136319047Y-73885714D01*
X136461904Y-73885714D01*
X136557142Y-73933333D01*
X136604761Y-73980952D01*
X136652380Y-74076190D01*
X136652380Y-74361904D01*
X136604761Y-74457142D01*
X136557142Y-74504761D01*
X136461904Y-74552380D01*
X136319047Y-74552380D01*
X137509523Y-73885714D02*
X137509523Y-74552380D01*
X137080952Y-73885714D02*
X137080952Y-74409523D01*
X137128571Y-74504761D01*
X137223809Y-74552380D01*
X137366666Y-74552380D01*
X137461904Y-74504761D01*
X137509523Y-74457142D01*
X137842857Y-73885714D02*
X138223809Y-73885714D01*
X137985714Y-73552380D02*
X137985714Y-74409523D01*
X138033333Y-74504761D01*
X138128571Y-74552380D01*
X138223809Y-74552380D01*
X136076190Y-78652380D02*
X136409523Y-79652380D01*
X136742857Y-78652380D01*
X137076190Y-79652380D02*
X137076190Y-78985714D01*
X137076190Y-78652380D02*
X137028571Y-78700000D01*
X137076190Y-78747619D01*
X137123809Y-78700000D01*
X137076190Y-78652380D01*
X137076190Y-78747619D01*
X137552380Y-78985714D02*
X137552380Y-79652380D01*
X137552380Y-79080952D02*
X137600000Y-79033333D01*
X137695238Y-78985714D01*
X137838095Y-78985714D01*
X137933333Y-79033333D01*
X137980952Y-79128571D01*
X137980952Y-79652380D01*
X135938095Y-76200000D02*
X135842857Y-76152380D01*
X135700000Y-76152380D01*
X135557142Y-76200000D01*
X135461904Y-76295238D01*
X135414285Y-76390476D01*
X135366666Y-76580952D01*
X135366666Y-76723809D01*
X135414285Y-76914285D01*
X135461904Y-77009523D01*
X135557142Y-77104761D01*
X135700000Y-77152380D01*
X135795238Y-77152380D01*
X135938095Y-77104761D01*
X135985714Y-77057142D01*
X135985714Y-76723809D01*
X135795238Y-76723809D01*
X136414285Y-77152380D02*
X136414285Y-76152380D01*
X136985714Y-77152380D01*
X136985714Y-76152380D01*
X137461904Y-77152380D02*
X137461904Y-76152380D01*
X137700000Y-76152380D01*
X137842857Y-76200000D01*
X137938095Y-76295238D01*
X137985714Y-76390476D01*
X138033333Y-76580952D01*
X138033333Y-76723809D01*
X137985714Y-76914285D01*
X137938095Y-77009523D01*
X137842857Y-77104761D01*
X137700000Y-77152380D01*
X137461904Y-77152380D01*
X151233142Y-80684666D02*
X151280761Y-80732285D01*
X151328380Y-80875142D01*
X151328380Y-80970380D01*
X151280761Y-81113238D01*
X151185523Y-81208476D01*
X151090285Y-81256095D01*
X150899809Y-81303714D01*
X150756952Y-81303714D01*
X150566476Y-81256095D01*
X150471238Y-81208476D01*
X150376000Y-81113238D01*
X150328380Y-80970380D01*
X150328380Y-80875142D01*
X150376000Y-80732285D01*
X150423619Y-80684666D01*
X150328380Y-79779904D02*
X150328380Y-80256095D01*
X150804571Y-80303714D01*
X150756952Y-80256095D01*
X150709333Y-80160857D01*
X150709333Y-79922761D01*
X150756952Y-79827523D01*
X150804571Y-79779904D01*
X150899809Y-79732285D01*
X151137904Y-79732285D01*
X151233142Y-79779904D01*
X151280761Y-79827523D01*
X151328380Y-79922761D01*
X151328380Y-80160857D01*
X151280761Y-80256095D01*
X151233142Y-80303714D01*
X153910833Y-84177142D02*
X153863214Y-84224761D01*
X153720357Y-84272380D01*
X153625119Y-84272380D01*
X153482261Y-84224761D01*
X153387023Y-84129523D01*
X153339404Y-84034285D01*
X153291785Y-83843809D01*
X153291785Y-83700952D01*
X153339404Y-83510476D01*
X153387023Y-83415238D01*
X153482261Y-83320000D01*
X153625119Y-83272380D01*
X153720357Y-83272380D01*
X153863214Y-83320000D01*
X153910833Y-83367619D01*
X154767976Y-83272380D02*
X154577500Y-83272380D01*
X154482261Y-83320000D01*
X154434642Y-83367619D01*
X154339404Y-83510476D01*
X154291785Y-83700952D01*
X154291785Y-84081904D01*
X154339404Y-84177142D01*
X154387023Y-84224761D01*
X154482261Y-84272380D01*
X154672738Y-84272380D01*
X154767976Y-84224761D01*
X154815595Y-84177142D01*
X154863214Y-84081904D01*
X154863214Y-83843809D01*
X154815595Y-83748571D01*
X154767976Y-83700952D01*
X154672738Y-83653333D01*
X154482261Y-83653333D01*
X154387023Y-83700952D01*
X154339404Y-83748571D01*
X154291785Y-83843809D01*
X144373333Y-95421142D02*
X144325714Y-95468761D01*
X144182857Y-95516380D01*
X144087619Y-95516380D01*
X143944761Y-95468761D01*
X143849523Y-95373523D01*
X143801904Y-95278285D01*
X143754285Y-95087809D01*
X143754285Y-94944952D01*
X143801904Y-94754476D01*
X143849523Y-94659238D01*
X143944761Y-94564000D01*
X144087619Y-94516380D01*
X144182857Y-94516380D01*
X144325714Y-94564000D01*
X144373333Y-94611619D01*
X144754285Y-94611619D02*
X144801904Y-94564000D01*
X144897142Y-94516380D01*
X145135238Y-94516380D01*
X145230476Y-94564000D01*
X145278095Y-94611619D01*
X145325714Y-94706857D01*
X145325714Y-94802095D01*
X145278095Y-94944952D01*
X144706666Y-95516380D01*
X145325714Y-95516380D01*
X141683333Y-98852380D02*
X141350000Y-98376190D01*
X141111904Y-98852380D02*
X141111904Y-97852380D01*
X141492857Y-97852380D01*
X141588095Y-97900000D01*
X141635714Y-97947619D01*
X141683333Y-98042857D01*
X141683333Y-98185714D01*
X141635714Y-98280952D01*
X141588095Y-98328571D01*
X141492857Y-98376190D01*
X141111904Y-98376190D01*
X142635714Y-98852380D02*
X142064285Y-98852380D01*
X142350000Y-98852380D02*
X142350000Y-97852380D01*
X142254761Y-97995238D01*
X142159523Y-98090476D01*
X142064285Y-98138095D01*
X132391333Y-88997142D02*
X132343714Y-89044761D01*
X132200857Y-89092380D01*
X132105619Y-89092380D01*
X131962761Y-89044761D01*
X131867523Y-88949523D01*
X131819904Y-88854285D01*
X131772285Y-88663809D01*
X131772285Y-88520952D01*
X131819904Y-88330476D01*
X131867523Y-88235238D01*
X131962761Y-88140000D01*
X132105619Y-88092380D01*
X132200857Y-88092380D01*
X132343714Y-88140000D01*
X132391333Y-88187619D01*
X133248476Y-88425714D02*
X133248476Y-89092380D01*
X133010380Y-88044761D02*
X132772285Y-88759047D01*
X133391333Y-88759047D01*
X135061904Y-87202380D02*
X135061904Y-86202380D01*
X135300000Y-86202380D01*
X135442857Y-86250000D01*
X135538095Y-86345238D01*
X135585714Y-86440476D01*
X135633333Y-86630952D01*
X135633333Y-86773809D01*
X135585714Y-86964285D01*
X135538095Y-87059523D01*
X135442857Y-87154761D01*
X135300000Y-87202380D01*
X135061904Y-87202380D01*
X136585714Y-87202380D02*
X136014285Y-87202380D01*
X136300000Y-87202380D02*
X136300000Y-86202380D01*
X136204761Y-86345238D01*
X136109523Y-86440476D01*
X136014285Y-86488095D01*
X133426880Y-99176238D02*
X132950690Y-99509571D01*
X133426880Y-99747666D02*
X132426880Y-99747666D01*
X132426880Y-99366714D01*
X132474500Y-99271476D01*
X132522119Y-99223857D01*
X132617357Y-99176238D01*
X132760214Y-99176238D01*
X132855452Y-99223857D01*
X132903071Y-99271476D01*
X132950690Y-99366714D01*
X132950690Y-99747666D01*
X132426880Y-98890523D02*
X133426880Y-98557190D01*
X132426880Y-98223857D01*
X133426880Y-97366714D02*
X133426880Y-97938142D01*
X133426880Y-97652428D02*
X132426880Y-97652428D01*
X132569738Y-97747666D01*
X132664976Y-97842904D01*
X132712595Y-97938142D01*
X146523333Y-95081142D02*
X146475714Y-95128761D01*
X146332857Y-95176380D01*
X146237619Y-95176380D01*
X146094761Y-95128761D01*
X145999523Y-95033523D01*
X145951904Y-94938285D01*
X145904285Y-94747809D01*
X145904285Y-94604952D01*
X145951904Y-94414476D01*
X145999523Y-94319238D01*
X146094761Y-94224000D01*
X146237619Y-94176380D01*
X146332857Y-94176380D01*
X146475714Y-94224000D01*
X146523333Y-94271619D01*
X146856666Y-94176380D02*
X147475714Y-94176380D01*
X147142380Y-94557333D01*
X147285238Y-94557333D01*
X147380476Y-94604952D01*
X147428095Y-94652571D01*
X147475714Y-94747809D01*
X147475714Y-94985904D01*
X147428095Y-95081142D01*
X147380476Y-95128761D01*
X147285238Y-95176380D01*
X146999523Y-95176380D01*
X146904285Y-95128761D01*
X146856666Y-95081142D01*
X142123333Y-89890642D02*
X142075714Y-89938261D01*
X141932857Y-89985880D01*
X141837619Y-89985880D01*
X141694761Y-89938261D01*
X141599523Y-89843023D01*
X141551904Y-89747785D01*
X141504285Y-89557309D01*
X141504285Y-89414452D01*
X141551904Y-89223976D01*
X141599523Y-89128738D01*
X141694761Y-89033500D01*
X141837619Y-88985880D01*
X141932857Y-88985880D01*
X142075714Y-89033500D01*
X142123333Y-89081119D01*
X143075714Y-89985880D02*
X142504285Y-89985880D01*
X142790000Y-89985880D02*
X142790000Y-88985880D01*
X142694761Y-89128738D01*
X142599523Y-89223976D01*
X142504285Y-89271595D01*
D11*
X146291000Y-78258000D02*
X146291000Y-82778000D01*
X146291000Y-82778000D02*
X154526000Y-82778000D01*
X154526000Y-78258000D02*
X146291000Y-78258000D01*
X151237733Y-84330000D02*
X151530267Y-84330000D01*
X151237733Y-83310000D02*
X151530267Y-83310000D01*
X138144603Y-89865300D02*
X134990897Y-89865300D01*
X134990897Y-94843700D02*
X138144603Y-94843700D01*
X136262950Y-89865300D02*
G75*
G03*
X136872550Y-89865300I304800J0D01*
G01*
X143855000Y-92252748D02*
X143855000Y-92775252D01*
X145325000Y-92252748D02*
X145325000Y-92775252D01*
X142077064Y-97485000D02*
X141622936Y-97485000D01*
X142077064Y-96015000D02*
X141622936Y-96015000D01*
X136573733Y-88130000D02*
X136866267Y-88130000D01*
X136573733Y-89150000D02*
X136866267Y-89150000D01*
X141100000Y-83000000D02*
X132400000Y-83000000D01*
X132400000Y-86000000D02*
X141100000Y-86000000D01*
X141100000Y-86000000D02*
X141100000Y-83000000D01*
X131349320Y-95498000D02*
X131349320Y-102864000D01*
X131349320Y-102864000D02*
X138801680Y-102864000D01*
X131349320Y-95498000D02*
X138801680Y-95498000D01*
X138801680Y-95498000D02*
X138801680Y-102864000D01*
X146180000Y-92167733D02*
X146180000Y-92460267D01*
X147200000Y-92167733D02*
X147200000Y-92460267D01*
X143835000Y-80455000D02*
X142565000Y-80455000D01*
X141125000Y-80515000D02*
X141125000Y-72775000D01*
X138465000Y-72775000D02*
X138465000Y-80515000D01*
X141522071Y-77025000D02*
X141125000Y-77025000D01*
X141522071Y-74485000D02*
X141125000Y-74485000D01*
X141455000Y-78805000D02*
X141125000Y-78805000D01*
X141125000Y-75375000D02*
X138465000Y-75375000D01*
X141125000Y-72775000D02*
X138465000Y-72775000D01*
X143835000Y-79185000D02*
X143835000Y-80455000D01*
X141522071Y-76265000D02*
X141125000Y-76265000D01*
X141522071Y-73725000D02*
X141125000Y-73725000D01*
X141125000Y-77915000D02*
X138465000Y-77915000D01*
X138465000Y-80515000D02*
X141125000Y-80515000D01*
X141455000Y-79565000D02*
X141125000Y-79565000D01*
X141605000Y-92242748D02*
X141605000Y-92765252D01*
X143075000Y-92242748D02*
X143075000Y-92765252D01*
%LPC*%
D12*
X147676000Y-80518000D03*
X154076000Y-80518000D03*
D13*
X150521500Y-83820000D03*
X152246500Y-83820000D03*
D14*
X134002350Y-90449500D03*
X134002350Y-91719500D03*
X134002350Y-92989500D03*
X134002350Y-94259500D03*
X139133150Y-94259500D03*
X139133150Y-92989500D03*
X139133150Y-91719500D03*
X139133150Y-90449500D03*
D15*
X136567750Y-92354500D03*
D16*
X144590000Y-91476500D03*
X144590000Y-93551500D03*
D17*
X142850000Y-96750000D03*
X140850000Y-96750000D03*
D13*
X135857500Y-88640000D03*
X137582500Y-88640000D03*
D18*
X139200000Y-84500000D03*
X132400000Y-84500000D03*
D19*
X135274500Y-96681000D03*
X137774500Y-99181000D03*
X135274500Y-101681000D03*
D20*
X146690000Y-91451500D03*
X146690000Y-93176500D03*
D21*
X142565000Y-79185000D03*
D22*
X142565000Y-76645000D03*
X142565000Y-74105000D03*
D16*
X142340000Y-91466500D03*
X142340000Y-93541500D03*
M02*
