G04 #@! TF.GenerationSoftware,KiCad,Pcbnew,(6.0.1)*
G04 #@! TF.CreationDate,2022-04-24T16:37:43-07:00*
G04 #@! TF.ProjectId,Regulator_5V,52656775-6c61-4746-9f72-5f35562e6b69,rev?*
G04 #@! TF.SameCoordinates,Original*
G04 #@! TF.FileFunction,Copper,L2,Bot*
G04 #@! TF.FilePolarity,Positive*
%FSLAX46Y46*%
G04 Gerber Fmt 4.6, Leading zero omitted, Abs format (unit mm)*
G04 Created by KiCad (PCBNEW (6.0.1)) date 2022-04-24 16:37:43*
%MOMM*%
%LPD*%
G01*
G04 APERTURE LIST*
G04 #@! TA.AperFunction,ComponentPad*
%ADD10R,4.500000X3.300000*%
G04 #@! TD*
G04 #@! TA.AperFunction,ComponentPad*
%ADD11C,1.498600*%
G04 #@! TD*
G04 #@! TA.AperFunction,ComponentPad*
%ADD12R,1.700000X1.700000*%
G04 #@! TD*
G04 #@! TA.AperFunction,ComponentPad*
%ADD13O,1.700000X1.700000*%
G04 #@! TD*
G04 #@! TA.AperFunction,ViaPad*
%ADD14C,0.800000*%
G04 #@! TD*
G04 APERTURE END LIST*
D10*
X152228000Y-78232000D03*
X143428000Y-78232000D03*
D11*
X139258500Y-95231500D03*
X141758500Y-97731500D03*
X139258500Y-100231500D03*
D12*
X132275000Y-81425000D03*
D13*
X132275000Y-78885000D03*
X132275000Y-76345000D03*
D14*
X157730000Y-78030000D03*
X156200000Y-89300000D03*
X153400000Y-97100000D03*
X150300000Y-85200000D03*
X147600000Y-92700000D03*
X133400000Y-89600000D03*
X172500000Y-87500000D03*
G04 #@! TA.AperFunction,Conductor*
G36*
X186142121Y-72428002D02*
G01*
X186188614Y-72481658D01*
X186200000Y-72534000D01*
X186200000Y-104166000D01*
X186179998Y-104234121D01*
X186126342Y-104280614D01*
X186074000Y-104292000D01*
X128534000Y-104292000D01*
X128465879Y-104271998D01*
X128419386Y-104218342D01*
X128408000Y-104166000D01*
X128408000Y-101281159D01*
X138573396Y-101281159D01*
X138582692Y-101293174D01*
X138622940Y-101321356D01*
X138632435Y-101326839D01*
X138821853Y-101415166D01*
X138832145Y-101418912D01*
X139034023Y-101473005D01*
X139044818Y-101474908D01*
X139253025Y-101493124D01*
X139263975Y-101493124D01*
X139472182Y-101474908D01*
X139482977Y-101473005D01*
X139684855Y-101418912D01*
X139695147Y-101415166D01*
X139884565Y-101326839D01*
X139894060Y-101321356D01*
X139935146Y-101292587D01*
X139943521Y-101282110D01*
X139936453Y-101268663D01*
X139271312Y-100603522D01*
X139257368Y-100595908D01*
X139255535Y-100596039D01*
X139248920Y-100600290D01*
X138579826Y-101269384D01*
X138573396Y-101281159D01*
X128408000Y-101281159D01*
X128408000Y-100236975D01*
X137996876Y-100236975D01*
X138015092Y-100445182D01*
X138016995Y-100455977D01*
X138071088Y-100657855D01*
X138074834Y-100668147D01*
X138163161Y-100857564D01*
X138168644Y-100867060D01*
X138197413Y-100908146D01*
X138207890Y-100916521D01*
X138221338Y-100909452D01*
X138886478Y-100244312D01*
X138892856Y-100232632D01*
X139622908Y-100232632D01*
X139623039Y-100234465D01*
X139627290Y-100241080D01*
X140296384Y-100910174D01*
X140308159Y-100916604D01*
X140320174Y-100907308D01*
X140348356Y-100867060D01*
X140353839Y-100857564D01*
X140442166Y-100668147D01*
X140445912Y-100657855D01*
X140500005Y-100455977D01*
X140501908Y-100445182D01*
X140520124Y-100236975D01*
X140520124Y-100226025D01*
X140501908Y-100017818D01*
X140500005Y-100007023D01*
X140445912Y-99805145D01*
X140442166Y-99794853D01*
X140353839Y-99605436D01*
X140348356Y-99595940D01*
X140319587Y-99554854D01*
X140309110Y-99546479D01*
X140295662Y-99553548D01*
X139630522Y-100218688D01*
X139622908Y-100232632D01*
X138892856Y-100232632D01*
X138894092Y-100230368D01*
X138893961Y-100228535D01*
X138889710Y-100221920D01*
X138220616Y-99552826D01*
X138208841Y-99546396D01*
X138196826Y-99555692D01*
X138168644Y-99595940D01*
X138163161Y-99605436D01*
X138074834Y-99794853D01*
X138071088Y-99805145D01*
X138016995Y-100007023D01*
X138015092Y-100017818D01*
X137996876Y-100226025D01*
X137996876Y-100236975D01*
X128408000Y-100236975D01*
X128408000Y-99180890D01*
X138573479Y-99180890D01*
X138580548Y-99194338D01*
X139245688Y-99859478D01*
X139259632Y-99867092D01*
X139261465Y-99866961D01*
X139268080Y-99862710D01*
X139937174Y-99193616D01*
X139943604Y-99181841D01*
X139934308Y-99169826D01*
X139894060Y-99141644D01*
X139884565Y-99136161D01*
X139695147Y-99047834D01*
X139684855Y-99044088D01*
X139482977Y-98989995D01*
X139472182Y-98988092D01*
X139263975Y-98969876D01*
X139253025Y-98969876D01*
X139044818Y-98988092D01*
X139034023Y-98989995D01*
X138832145Y-99044088D01*
X138821853Y-99047834D01*
X138632436Y-99136161D01*
X138622940Y-99141644D01*
X138581854Y-99170413D01*
X138573479Y-99180890D01*
X128408000Y-99180890D01*
X128408000Y-98781159D01*
X141073396Y-98781159D01*
X141082692Y-98793174D01*
X141122940Y-98821356D01*
X141132435Y-98826839D01*
X141321853Y-98915166D01*
X141332145Y-98918912D01*
X141534023Y-98973005D01*
X141544818Y-98974908D01*
X141753025Y-98993124D01*
X141763975Y-98993124D01*
X141972182Y-98974908D01*
X141982977Y-98973005D01*
X142184855Y-98918912D01*
X142195147Y-98915166D01*
X142384565Y-98826839D01*
X142394060Y-98821356D01*
X142435146Y-98792587D01*
X142443521Y-98782110D01*
X142436453Y-98768663D01*
X141771312Y-98103522D01*
X141757368Y-98095908D01*
X141755535Y-98096039D01*
X141748920Y-98100290D01*
X141079826Y-98769384D01*
X141073396Y-98781159D01*
X128408000Y-98781159D01*
X128408000Y-97736975D01*
X140496876Y-97736975D01*
X140515092Y-97945182D01*
X140516995Y-97955977D01*
X140571088Y-98157855D01*
X140574834Y-98168147D01*
X140663161Y-98357564D01*
X140668644Y-98367060D01*
X140697413Y-98408146D01*
X140707890Y-98416521D01*
X140721338Y-98409452D01*
X141386478Y-97744312D01*
X141392856Y-97732632D01*
X142122908Y-97732632D01*
X142123039Y-97734465D01*
X142127290Y-97741080D01*
X142796384Y-98410174D01*
X142808159Y-98416604D01*
X142820174Y-98407308D01*
X142848356Y-98367060D01*
X142853839Y-98357564D01*
X142942166Y-98168147D01*
X142945912Y-98157855D01*
X143000005Y-97955977D01*
X143001908Y-97945182D01*
X143020124Y-97736975D01*
X143020124Y-97726025D01*
X143001908Y-97517818D01*
X143000005Y-97507023D01*
X142945912Y-97305145D01*
X142942166Y-97294853D01*
X142853839Y-97105436D01*
X142848356Y-97095940D01*
X142819587Y-97054854D01*
X142809110Y-97046479D01*
X142795662Y-97053548D01*
X142130522Y-97718688D01*
X142122908Y-97732632D01*
X141392856Y-97732632D01*
X141394092Y-97730368D01*
X141393961Y-97728535D01*
X141389710Y-97721920D01*
X140720616Y-97052826D01*
X140708841Y-97046396D01*
X140696826Y-97055692D01*
X140668644Y-97095940D01*
X140663161Y-97105436D01*
X140574834Y-97294853D01*
X140571088Y-97305145D01*
X140516995Y-97507023D01*
X140515092Y-97517818D01*
X140496876Y-97726025D01*
X140496876Y-97736975D01*
X128408000Y-97736975D01*
X128408000Y-96680890D01*
X141073479Y-96680890D01*
X141080548Y-96694338D01*
X141745688Y-97359478D01*
X141759632Y-97367092D01*
X141761465Y-97366961D01*
X141768080Y-97362710D01*
X142437174Y-96693616D01*
X142443604Y-96681841D01*
X142434308Y-96669826D01*
X142394060Y-96641644D01*
X142384565Y-96636161D01*
X142195147Y-96547834D01*
X142184855Y-96544088D01*
X141982977Y-96489995D01*
X141972182Y-96488092D01*
X141763975Y-96469876D01*
X141753025Y-96469876D01*
X141544818Y-96488092D01*
X141534023Y-96489995D01*
X141332145Y-96544088D01*
X141321853Y-96547834D01*
X141132436Y-96636161D01*
X141122940Y-96641644D01*
X141081854Y-96670413D01*
X141073479Y-96680890D01*
X128408000Y-96680890D01*
X128408000Y-95231500D01*
X137995895Y-95231500D01*
X138015077Y-95450749D01*
X138072039Y-95663336D01*
X138165052Y-95862802D01*
X138291288Y-96043087D01*
X138446913Y-96198712D01*
X138451421Y-96201869D01*
X138451424Y-96201871D01*
X138622688Y-96321791D01*
X138627197Y-96324948D01*
X138632179Y-96327271D01*
X138632184Y-96327274D01*
X138821682Y-96415638D01*
X138826664Y-96417961D01*
X138831972Y-96419383D01*
X138831974Y-96419384D01*
X139033936Y-96473499D01*
X139033937Y-96473499D01*
X139039251Y-96474923D01*
X139258500Y-96494105D01*
X139477749Y-96474923D01*
X139483063Y-96473499D01*
X139483064Y-96473499D01*
X139685026Y-96419384D01*
X139685028Y-96419383D01*
X139690336Y-96417961D01*
X139695318Y-96415638D01*
X139884816Y-96327274D01*
X139884821Y-96327271D01*
X139889803Y-96324948D01*
X139894312Y-96321791D01*
X140065576Y-96201871D01*
X140065579Y-96201869D01*
X140070087Y-96198712D01*
X140225712Y-96043087D01*
X140351948Y-95862802D01*
X140444961Y-95663336D01*
X140501923Y-95450749D01*
X140521105Y-95231500D01*
X140501923Y-95012251D01*
X140444961Y-94799664D01*
X140351948Y-94600198D01*
X140225712Y-94419913D01*
X140070087Y-94264288D01*
X140065579Y-94261131D01*
X140065576Y-94261129D01*
X139894312Y-94141209D01*
X139894309Y-94141207D01*
X139889803Y-94138052D01*
X139884821Y-94135729D01*
X139884816Y-94135726D01*
X139695318Y-94047362D01*
X139695317Y-94047361D01*
X139690336Y-94045039D01*
X139685028Y-94043617D01*
X139685026Y-94043616D01*
X139483064Y-93989501D01*
X139483063Y-93989501D01*
X139477749Y-93988077D01*
X139258500Y-93968895D01*
X139039251Y-93988077D01*
X139033937Y-93989501D01*
X139033936Y-93989501D01*
X138831974Y-94043616D01*
X138831972Y-94043617D01*
X138826664Y-94045039D01*
X138821684Y-94047361D01*
X138821682Y-94047362D01*
X138632179Y-94135729D01*
X138632176Y-94135731D01*
X138627198Y-94138052D01*
X138446913Y-94264288D01*
X138291288Y-94419913D01*
X138165052Y-94600198D01*
X138072039Y-94799664D01*
X138015077Y-95012251D01*
X137995895Y-95231500D01*
X128408000Y-95231500D01*
X128408000Y-82323134D01*
X130916500Y-82323134D01*
X130923255Y-82385316D01*
X130974385Y-82521705D01*
X131061739Y-82638261D01*
X131178295Y-82725615D01*
X131314684Y-82776745D01*
X131376866Y-82783500D01*
X133173134Y-82783500D01*
X133235316Y-82776745D01*
X133371705Y-82725615D01*
X133488261Y-82638261D01*
X133575615Y-82521705D01*
X133626745Y-82385316D01*
X133633500Y-82323134D01*
X133633500Y-80526866D01*
X133626745Y-80464684D01*
X133575615Y-80328295D01*
X133488261Y-80211739D01*
X133371705Y-80124385D01*
X133252687Y-80079767D01*
X133195923Y-80037125D01*
X133171223Y-79970564D01*
X133180848Y-79926669D01*
X140670001Y-79926669D01*
X140670371Y-79933490D01*
X140675895Y-79984352D01*
X140679521Y-79999604D01*
X140724676Y-80120054D01*
X140733214Y-80135649D01*
X140809715Y-80237724D01*
X140822276Y-80250285D01*
X140924351Y-80326786D01*
X140939946Y-80335324D01*
X141060394Y-80380478D01*
X141075649Y-80384105D01*
X141126514Y-80389631D01*
X141133328Y-80390000D01*
X143155885Y-80390000D01*
X143171124Y-80385525D01*
X143172329Y-80384135D01*
X143174000Y-80376452D01*
X143174000Y-80371884D01*
X143682000Y-80371884D01*
X143686475Y-80387123D01*
X143687865Y-80388328D01*
X143695548Y-80389999D01*
X145722669Y-80389999D01*
X145729490Y-80389629D01*
X145780352Y-80384105D01*
X145795604Y-80380479D01*
X145916054Y-80335324D01*
X145931649Y-80326786D01*
X146033724Y-80250285D01*
X146046285Y-80237724D01*
X146122786Y-80135649D01*
X146131324Y-80120054D01*
X146176478Y-79999606D01*
X146180105Y-79984351D01*
X146185631Y-79933486D01*
X146185813Y-79930134D01*
X149469500Y-79930134D01*
X149476255Y-79992316D01*
X149527385Y-80128705D01*
X149614739Y-80245261D01*
X149731295Y-80332615D01*
X149867684Y-80383745D01*
X149929866Y-80390500D01*
X154526134Y-80390500D01*
X154588316Y-80383745D01*
X154724705Y-80332615D01*
X154841261Y-80245261D01*
X154928615Y-80128705D01*
X154979745Y-79992316D01*
X154986500Y-79930134D01*
X154986500Y-76533866D01*
X154979745Y-76471684D01*
X154928615Y-76335295D01*
X154841261Y-76218739D01*
X154724705Y-76131385D01*
X154588316Y-76080255D01*
X154526134Y-76073500D01*
X149929866Y-76073500D01*
X149867684Y-76080255D01*
X149731295Y-76131385D01*
X149614739Y-76218739D01*
X149527385Y-76335295D01*
X149476255Y-76471684D01*
X149469500Y-76533866D01*
X149469500Y-79930134D01*
X146185813Y-79930134D01*
X146186000Y-79926672D01*
X146186000Y-78504115D01*
X146181525Y-78488876D01*
X146180135Y-78487671D01*
X146172452Y-78486000D01*
X143700115Y-78486000D01*
X143684876Y-78490475D01*
X143683671Y-78491865D01*
X143682000Y-78499548D01*
X143682000Y-80371884D01*
X143174000Y-80371884D01*
X143174000Y-78504115D01*
X143169525Y-78488876D01*
X143168135Y-78487671D01*
X143160452Y-78486000D01*
X140688116Y-78486000D01*
X140672877Y-78490475D01*
X140671672Y-78491865D01*
X140670001Y-78499548D01*
X140670001Y-79926669D01*
X133180848Y-79926669D01*
X133186430Y-79901215D01*
X133207977Y-79872535D01*
X133309052Y-79771812D01*
X133315730Y-79763965D01*
X133440003Y-79591020D01*
X133445313Y-79582183D01*
X133539670Y-79391267D01*
X133543469Y-79381672D01*
X133605377Y-79177910D01*
X133607555Y-79167837D01*
X133608986Y-79156962D01*
X133606775Y-79142778D01*
X133593617Y-79139000D01*
X130958225Y-79139000D01*
X130944694Y-79142973D01*
X130943257Y-79152966D01*
X130973565Y-79287446D01*
X130976645Y-79297275D01*
X131056770Y-79494603D01*
X131061413Y-79503794D01*
X131172694Y-79685388D01*
X131178777Y-79693699D01*
X131318213Y-79854667D01*
X131325577Y-79861879D01*
X131330522Y-79865985D01*
X131370156Y-79924889D01*
X131371653Y-79995870D01*
X131334537Y-80056392D01*
X131294264Y-80080910D01*
X131186705Y-80121232D01*
X131186704Y-80121233D01*
X131178295Y-80124385D01*
X131061739Y-80211739D01*
X130974385Y-80328295D01*
X130923255Y-80464684D01*
X130916500Y-80526866D01*
X130916500Y-82323134D01*
X128408000Y-82323134D01*
X128408000Y-76311695D01*
X130912251Y-76311695D01*
X130912548Y-76316848D01*
X130912548Y-76316851D01*
X130921476Y-76471684D01*
X130925110Y-76534715D01*
X130926247Y-76539761D01*
X130926248Y-76539767D01*
X130946119Y-76627939D01*
X130974222Y-76752639D01*
X131058266Y-76959616D01*
X131174987Y-77150088D01*
X131321250Y-77318938D01*
X131493126Y-77461632D01*
X131566955Y-77504774D01*
X131615679Y-77556412D01*
X131628750Y-77626195D01*
X131602019Y-77691967D01*
X131561562Y-77725327D01*
X131553457Y-77729546D01*
X131544738Y-77735036D01*
X131374433Y-77862905D01*
X131366726Y-77869748D01*
X131219590Y-78023717D01*
X131213104Y-78031727D01*
X131093098Y-78207649D01*
X131088000Y-78216623D01*
X130998338Y-78409783D01*
X130994775Y-78419470D01*
X130939389Y-78619183D01*
X130940912Y-78627607D01*
X130953292Y-78631000D01*
X133593344Y-78631000D01*
X133606875Y-78627027D01*
X133608180Y-78617947D01*
X133566214Y-78450875D01*
X133562894Y-78441124D01*
X133477972Y-78245814D01*
X133473105Y-78236739D01*
X133357426Y-78057926D01*
X133351136Y-78049757D01*
X133269358Y-77959885D01*
X140670000Y-77959885D01*
X140674475Y-77975124D01*
X140675865Y-77976329D01*
X140683548Y-77978000D01*
X143155885Y-77978000D01*
X143171124Y-77973525D01*
X143172329Y-77972135D01*
X143174000Y-77964452D01*
X143174000Y-77959885D01*
X143682000Y-77959885D01*
X143686475Y-77975124D01*
X143687865Y-77976329D01*
X143695548Y-77978000D01*
X146167884Y-77978000D01*
X146183123Y-77973525D01*
X146184328Y-77972135D01*
X146185999Y-77964452D01*
X146185999Y-76537331D01*
X146185629Y-76530510D01*
X146180105Y-76479648D01*
X146176479Y-76464396D01*
X146131324Y-76343946D01*
X146122786Y-76328351D01*
X146046285Y-76226276D01*
X146033724Y-76213715D01*
X145931649Y-76137214D01*
X145916054Y-76128676D01*
X145795606Y-76083522D01*
X145780351Y-76079895D01*
X145729486Y-76074369D01*
X145722672Y-76074000D01*
X143700115Y-76074000D01*
X143684876Y-76078475D01*
X143683671Y-76079865D01*
X143682000Y-76087548D01*
X143682000Y-77959885D01*
X143174000Y-77959885D01*
X143174000Y-76092116D01*
X143169525Y-76076877D01*
X143168135Y-76075672D01*
X143160452Y-76074001D01*
X141133331Y-76074001D01*
X141126510Y-76074371D01*
X141075648Y-76079895D01*
X141060396Y-76083521D01*
X140939946Y-76128676D01*
X140924351Y-76137214D01*
X140822276Y-76213715D01*
X140809715Y-76226276D01*
X140733214Y-76328351D01*
X140724676Y-76343946D01*
X140679522Y-76464394D01*
X140675895Y-76479649D01*
X140670369Y-76530514D01*
X140670000Y-76537328D01*
X140670000Y-77959885D01*
X133269358Y-77959885D01*
X133207806Y-77892240D01*
X133200273Y-77885215D01*
X133033139Y-77753222D01*
X133024556Y-77747520D01*
X132987602Y-77727120D01*
X132937631Y-77676687D01*
X132922859Y-77607245D01*
X132947975Y-77540839D01*
X132975327Y-77514232D01*
X132998797Y-77497491D01*
X133154860Y-77386173D01*
X133313096Y-77228489D01*
X133372594Y-77145689D01*
X133440435Y-77051277D01*
X133443453Y-77047077D01*
X133542430Y-76846811D01*
X133607370Y-76633069D01*
X133636529Y-76411590D01*
X133638156Y-76345000D01*
X133619852Y-76122361D01*
X133565431Y-75905702D01*
X133476354Y-75700840D01*
X133355014Y-75513277D01*
X133204670Y-75348051D01*
X133200619Y-75344852D01*
X133200615Y-75344848D01*
X133033414Y-75212800D01*
X133033410Y-75212798D01*
X133029359Y-75209598D01*
X132833789Y-75101638D01*
X132828920Y-75099914D01*
X132828916Y-75099912D01*
X132628087Y-75028795D01*
X132628083Y-75028794D01*
X132623212Y-75027069D01*
X132618119Y-75026162D01*
X132618116Y-75026161D01*
X132408373Y-74988800D01*
X132408367Y-74988799D01*
X132403284Y-74987894D01*
X132329452Y-74986992D01*
X132185081Y-74985228D01*
X132185079Y-74985228D01*
X132179911Y-74985165D01*
X131959091Y-75018955D01*
X131746756Y-75088357D01*
X131548607Y-75191507D01*
X131544474Y-75194610D01*
X131544471Y-75194612D01*
X131520247Y-75212800D01*
X131369965Y-75325635D01*
X131215629Y-75487138D01*
X131089743Y-75671680D01*
X130995688Y-75874305D01*
X130935989Y-76089570D01*
X130912251Y-76311695D01*
X128408000Y-76311695D01*
X128408000Y-72534000D01*
X128428002Y-72465879D01*
X128481658Y-72419386D01*
X128534000Y-72408000D01*
X186074000Y-72408000D01*
X186142121Y-72428002D01*
G37*
G04 #@! TD.AperFunction*
M02*
