G04 #@! TF.GenerationSoftware,KiCad,Pcbnew,(6.0.1)*
G04 #@! TF.CreationDate,2022-06-09T14:01:23-07:00*
G04 #@! TF.ProjectId,Regulator_5V_rev1_2,52656775-6c61-4746-9f72-5f35565f7265,1.2*
G04 #@! TF.SameCoordinates,Original*
G04 #@! TF.FileFunction,Copper,L2,Bot*
G04 #@! TF.FilePolarity,Positive*
%FSLAX46Y46*%
G04 Gerber Fmt 4.6, Leading zero omitted, Abs format (unit mm)*
G04 Created by KiCad (PCBNEW (6.0.1)) date 2022-06-09 14:01:23*
%MOMM*%
%LPD*%
G01*
G04 APERTURE LIST*
G04 #@! TA.AperFunction,ComponentPad*
%ADD10C,1.498600*%
G04 #@! TD*
G04 #@! TA.AperFunction,ComponentPad*
%ADD11R,1.700000X1.700000*%
G04 #@! TD*
G04 #@! TA.AperFunction,ComponentPad*
%ADD12O,1.700000X1.700000*%
G04 #@! TD*
G04 #@! TA.AperFunction,SMDPad,CuDef*
%ADD13R,5.334000X5.588000*%
G04 #@! TD*
G04 #@! TA.AperFunction,SMDPad,CuDef*
%ADD14R,6.350000X5.283200*%
G04 #@! TD*
G04 #@! TA.AperFunction,ViaPad*
%ADD15C,0.800000*%
G04 #@! TD*
G04 #@! TA.AperFunction,Conductor*
%ADD16C,1.000000*%
G04 #@! TD*
G04 APERTURE END LIST*
D10*
X135274500Y-96681000D03*
X137774500Y-99181000D03*
X135274500Y-101681000D03*
D11*
X142565000Y-79185000D03*
D12*
X142565000Y-76645000D03*
X142565000Y-74105000D03*
D13*
X137950000Y-79609000D03*
X148110000Y-79609000D03*
D14*
X143030000Y-101681600D03*
D15*
X141900000Y-87000000D03*
X142000000Y-81900000D03*
X152400000Y-88138000D03*
X131064000Y-93218000D03*
X134410000Y-76800000D03*
X145700000Y-95500000D03*
X152175000Y-101225000D03*
X152420000Y-92740000D03*
X136620000Y-89960000D03*
X144018000Y-95504000D03*
X154130000Y-83810000D03*
X131064000Y-88900000D03*
X136550000Y-94750000D03*
X140720000Y-92990000D03*
X142000000Y-84400000D03*
X154020000Y-75220000D03*
X136050000Y-84450000D03*
X138000000Y-78200000D03*
X140300000Y-85200000D03*
X138000000Y-83800000D03*
X138000000Y-85100000D03*
X139900000Y-81600000D03*
X139900000Y-79900000D03*
X137950000Y-79950000D03*
X137950000Y-81650000D03*
X139900000Y-78200000D03*
X140200000Y-83800000D03*
X146350000Y-77570000D03*
X150190000Y-77550000D03*
X150200000Y-79650000D03*
X150250000Y-81350000D03*
X147676000Y-80518000D03*
X148350000Y-77570000D03*
D16*
X137950000Y-79609000D02*
X137950000Y-79950000D01*
X137950000Y-79950000D02*
X137950000Y-81650000D01*
G04 #@! TA.AperFunction,Conductor*
G36*
X156028121Y-72428002D02*
G01*
X156074614Y-72481658D01*
X156086000Y-72534000D01*
X156086000Y-104166000D01*
X156065998Y-104234121D01*
X156012342Y-104280614D01*
X155960000Y-104292000D01*
X146839500Y-104292000D01*
X146771379Y-104271998D01*
X146724886Y-104218342D01*
X146713500Y-104166000D01*
X146713500Y-98991866D01*
X146706745Y-98929684D01*
X146655615Y-98793295D01*
X146568261Y-98676739D01*
X146451705Y-98589385D01*
X146315316Y-98538255D01*
X146253134Y-98531500D01*
X139806866Y-98531500D01*
X139744684Y-98538255D01*
X139608295Y-98589385D01*
X139491739Y-98676739D01*
X139404385Y-98793295D01*
X139353255Y-98929684D01*
X139346500Y-98991866D01*
X139346500Y-104166000D01*
X139326498Y-104234121D01*
X139272842Y-104280614D01*
X139220500Y-104292000D01*
X129926000Y-104292000D01*
X129857879Y-104271998D01*
X129811386Y-104218342D01*
X129800000Y-104166000D01*
X129800000Y-102730659D01*
X134589396Y-102730659D01*
X134598692Y-102742674D01*
X134638940Y-102770856D01*
X134648435Y-102776339D01*
X134837853Y-102864666D01*
X134848145Y-102868412D01*
X135050023Y-102922505D01*
X135060818Y-102924408D01*
X135269025Y-102942624D01*
X135279975Y-102942624D01*
X135488182Y-102924408D01*
X135498977Y-102922505D01*
X135700855Y-102868412D01*
X135711147Y-102864666D01*
X135900565Y-102776339D01*
X135910060Y-102770856D01*
X135951146Y-102742087D01*
X135959521Y-102731610D01*
X135952453Y-102718163D01*
X135287312Y-102053022D01*
X135273368Y-102045408D01*
X135271535Y-102045539D01*
X135264920Y-102049790D01*
X134595826Y-102718884D01*
X134589396Y-102730659D01*
X129800000Y-102730659D01*
X129800000Y-101686475D01*
X134012876Y-101686475D01*
X134031092Y-101894682D01*
X134032995Y-101905477D01*
X134087088Y-102107355D01*
X134090834Y-102117647D01*
X134179161Y-102307064D01*
X134184644Y-102316560D01*
X134213413Y-102357646D01*
X134223890Y-102366021D01*
X134237338Y-102358952D01*
X134902478Y-101693812D01*
X134908856Y-101682132D01*
X135638908Y-101682132D01*
X135639039Y-101683965D01*
X135643290Y-101690580D01*
X136312384Y-102359674D01*
X136324159Y-102366104D01*
X136336174Y-102356808D01*
X136364356Y-102316560D01*
X136369839Y-102307064D01*
X136458166Y-102117647D01*
X136461912Y-102107355D01*
X136516005Y-101905477D01*
X136517908Y-101894682D01*
X136536124Y-101686475D01*
X136536124Y-101675525D01*
X136517908Y-101467318D01*
X136516005Y-101456523D01*
X136461912Y-101254645D01*
X136458166Y-101244353D01*
X136369839Y-101054936D01*
X136364356Y-101045440D01*
X136335587Y-101004354D01*
X136325110Y-100995979D01*
X136311662Y-101003048D01*
X135646522Y-101668188D01*
X135638908Y-101682132D01*
X134908856Y-101682132D01*
X134910092Y-101679868D01*
X134909961Y-101678035D01*
X134905710Y-101671420D01*
X134236616Y-101002326D01*
X134224841Y-100995896D01*
X134212826Y-101005192D01*
X134184644Y-101045440D01*
X134179161Y-101054936D01*
X134090834Y-101244353D01*
X134087088Y-101254645D01*
X134032995Y-101456523D01*
X134031092Y-101467318D01*
X134012876Y-101675525D01*
X134012876Y-101686475D01*
X129800000Y-101686475D01*
X129800000Y-100630390D01*
X134589479Y-100630390D01*
X134596548Y-100643838D01*
X135261688Y-101308978D01*
X135275632Y-101316592D01*
X135277465Y-101316461D01*
X135284080Y-101312210D01*
X135953174Y-100643116D01*
X135959604Y-100631341D01*
X135950308Y-100619326D01*
X135910060Y-100591144D01*
X135900565Y-100585661D01*
X135711147Y-100497334D01*
X135700855Y-100493588D01*
X135498977Y-100439495D01*
X135488182Y-100437592D01*
X135279975Y-100419376D01*
X135269025Y-100419376D01*
X135060818Y-100437592D01*
X135050023Y-100439495D01*
X134848145Y-100493588D01*
X134837853Y-100497334D01*
X134648436Y-100585661D01*
X134638940Y-100591144D01*
X134597854Y-100619913D01*
X134589479Y-100630390D01*
X129800000Y-100630390D01*
X129800000Y-100230659D01*
X137089396Y-100230659D01*
X137098692Y-100242674D01*
X137138940Y-100270856D01*
X137148435Y-100276339D01*
X137337853Y-100364666D01*
X137348145Y-100368412D01*
X137550023Y-100422505D01*
X137560818Y-100424408D01*
X137769025Y-100442624D01*
X137779975Y-100442624D01*
X137988182Y-100424408D01*
X137998977Y-100422505D01*
X138200855Y-100368412D01*
X138211147Y-100364666D01*
X138400565Y-100276339D01*
X138410060Y-100270856D01*
X138451146Y-100242087D01*
X138459521Y-100231610D01*
X138452453Y-100218163D01*
X137787312Y-99553022D01*
X137773368Y-99545408D01*
X137771535Y-99545539D01*
X137764920Y-99549790D01*
X137095826Y-100218884D01*
X137089396Y-100230659D01*
X129800000Y-100230659D01*
X129800000Y-99186475D01*
X136512876Y-99186475D01*
X136531092Y-99394682D01*
X136532995Y-99405477D01*
X136587088Y-99607355D01*
X136590834Y-99617647D01*
X136679161Y-99807064D01*
X136684644Y-99816560D01*
X136713413Y-99857646D01*
X136723890Y-99866021D01*
X136737338Y-99858952D01*
X137402478Y-99193812D01*
X137408856Y-99182132D01*
X138138908Y-99182132D01*
X138139039Y-99183965D01*
X138143290Y-99190580D01*
X138812384Y-99859674D01*
X138824159Y-99866104D01*
X138836174Y-99856808D01*
X138864356Y-99816560D01*
X138869839Y-99807064D01*
X138958166Y-99617647D01*
X138961912Y-99607355D01*
X139016005Y-99405477D01*
X139017908Y-99394682D01*
X139036124Y-99186475D01*
X139036124Y-99175525D01*
X139017908Y-98967318D01*
X139016005Y-98956523D01*
X138961912Y-98754645D01*
X138958166Y-98744353D01*
X138869839Y-98554936D01*
X138864356Y-98545440D01*
X138835587Y-98504354D01*
X138825110Y-98495979D01*
X138811662Y-98503048D01*
X138146522Y-99168188D01*
X138138908Y-99182132D01*
X137408856Y-99182132D01*
X137410092Y-99179868D01*
X137409961Y-99178035D01*
X137405710Y-99171420D01*
X136736616Y-98502326D01*
X136724841Y-98495896D01*
X136712826Y-98505192D01*
X136684644Y-98545440D01*
X136679161Y-98554936D01*
X136590834Y-98744353D01*
X136587088Y-98754645D01*
X136532995Y-98956523D01*
X136531092Y-98967318D01*
X136512876Y-99175525D01*
X136512876Y-99186475D01*
X129800000Y-99186475D01*
X129800000Y-98130390D01*
X137089479Y-98130390D01*
X137096548Y-98143838D01*
X137761688Y-98808978D01*
X137775632Y-98816592D01*
X137777465Y-98816461D01*
X137784080Y-98812210D01*
X138453174Y-98143116D01*
X138459604Y-98131341D01*
X138450308Y-98119326D01*
X138410060Y-98091144D01*
X138400565Y-98085661D01*
X138211147Y-97997334D01*
X138200855Y-97993588D01*
X137998977Y-97939495D01*
X137988182Y-97937592D01*
X137779975Y-97919376D01*
X137769025Y-97919376D01*
X137560818Y-97937592D01*
X137550023Y-97939495D01*
X137348145Y-97993588D01*
X137337853Y-97997334D01*
X137148436Y-98085661D01*
X137138940Y-98091144D01*
X137097854Y-98119913D01*
X137089479Y-98130390D01*
X129800000Y-98130390D01*
X129800000Y-96681000D01*
X134011895Y-96681000D01*
X134031077Y-96900249D01*
X134088039Y-97112836D01*
X134181052Y-97312302D01*
X134307288Y-97492587D01*
X134462913Y-97648212D01*
X134467421Y-97651369D01*
X134467424Y-97651371D01*
X134638688Y-97771291D01*
X134643197Y-97774448D01*
X134648179Y-97776771D01*
X134648184Y-97776774D01*
X134837682Y-97865138D01*
X134842664Y-97867461D01*
X134847972Y-97868883D01*
X134847974Y-97868884D01*
X135049936Y-97922999D01*
X135049937Y-97922999D01*
X135055251Y-97924423D01*
X135274500Y-97943605D01*
X135493749Y-97924423D01*
X135499063Y-97922999D01*
X135499064Y-97922999D01*
X135701026Y-97868884D01*
X135701028Y-97868883D01*
X135706336Y-97867461D01*
X135711318Y-97865138D01*
X135900816Y-97776774D01*
X135900821Y-97776771D01*
X135905803Y-97774448D01*
X135910312Y-97771291D01*
X136081576Y-97651371D01*
X136081579Y-97651369D01*
X136086087Y-97648212D01*
X136241712Y-97492587D01*
X136367948Y-97312302D01*
X136460961Y-97112836D01*
X136517923Y-96900249D01*
X136537105Y-96681000D01*
X136517923Y-96461751D01*
X136460961Y-96249164D01*
X136367948Y-96049698D01*
X136241712Y-95869413D01*
X136086087Y-95713788D01*
X136081579Y-95710631D01*
X136081576Y-95710629D01*
X135910312Y-95590709D01*
X135910309Y-95590707D01*
X135905803Y-95587552D01*
X135900821Y-95585229D01*
X135900816Y-95585226D01*
X135711318Y-95496862D01*
X135711317Y-95496861D01*
X135706336Y-95494539D01*
X135701028Y-95493117D01*
X135701026Y-95493116D01*
X135499064Y-95439001D01*
X135499063Y-95439001D01*
X135493749Y-95437577D01*
X135274500Y-95418395D01*
X135055251Y-95437577D01*
X135049937Y-95439001D01*
X135049936Y-95439001D01*
X134847974Y-95493116D01*
X134847972Y-95493117D01*
X134842664Y-95494539D01*
X134837684Y-95496861D01*
X134837682Y-95496862D01*
X134648179Y-95585229D01*
X134648176Y-95585231D01*
X134643198Y-95587552D01*
X134462913Y-95713788D01*
X134307288Y-95869413D01*
X134181052Y-96049698D01*
X134088039Y-96249164D01*
X134031077Y-96461751D01*
X134011895Y-96681000D01*
X129800000Y-96681000D01*
X129800000Y-82451134D01*
X134774500Y-82451134D01*
X134781255Y-82513316D01*
X134832385Y-82649705D01*
X134919739Y-82766261D01*
X135036295Y-82853615D01*
X135172684Y-82904745D01*
X135234866Y-82911500D01*
X136666000Y-82911500D01*
X136734121Y-82931502D01*
X136780614Y-82985158D01*
X136792000Y-83037500D01*
X136792000Y-85874000D01*
X136803609Y-85981980D01*
X136814995Y-86034322D01*
X136849293Y-86137372D01*
X136927465Y-86259010D01*
X136973958Y-86312666D01*
X136977352Y-86315607D01*
X137000786Y-86335913D01*
X137083234Y-86407355D01*
X137214760Y-86467421D01*
X137238514Y-86474396D01*
X137278558Y-86486154D01*
X137278562Y-86486155D01*
X137282881Y-86487423D01*
X137287329Y-86488063D01*
X137287336Y-86488064D01*
X137421552Y-86507361D01*
X137421559Y-86507362D01*
X137426000Y-86508000D01*
X140574000Y-86508000D01*
X140681980Y-86496391D01*
X140685264Y-86495677D01*
X140685268Y-86495676D01*
X140710339Y-86490222D01*
X140734322Y-86485005D01*
X140837372Y-86450707D01*
X140959010Y-86372535D01*
X141012666Y-86326042D01*
X141024257Y-86312666D01*
X141101453Y-86223577D01*
X141107355Y-86216766D01*
X141167421Y-86085240D01*
X141187423Y-86017119D01*
X141188064Y-86012664D01*
X141207361Y-85878448D01*
X141207362Y-85878441D01*
X141208000Y-85874000D01*
X141208000Y-85258973D01*
X141208690Y-85245803D01*
X141212814Y-85206565D01*
X141213504Y-85200000D01*
X141208690Y-85154197D01*
X141208000Y-85141027D01*
X141208000Y-83036999D01*
X141196391Y-82929019D01*
X141185005Y-82876677D01*
X141150707Y-82773627D01*
X141103057Y-82699482D01*
X141083055Y-82631361D01*
X141091073Y-82587132D01*
X141115971Y-82520718D01*
X141115973Y-82520711D01*
X141118745Y-82513316D01*
X141125500Y-82451134D01*
X144934500Y-82451134D01*
X144941255Y-82513316D01*
X144992385Y-82649705D01*
X145079739Y-82766261D01*
X145196295Y-82853615D01*
X145332684Y-82904745D01*
X145394866Y-82911500D01*
X150825134Y-82911500D01*
X150887316Y-82904745D01*
X151023705Y-82853615D01*
X151140261Y-82766261D01*
X151227615Y-82649705D01*
X151278745Y-82513316D01*
X151285500Y-82451134D01*
X151285500Y-76766866D01*
X151278745Y-76704684D01*
X151227615Y-76568295D01*
X151140261Y-76451739D01*
X151023705Y-76364385D01*
X150887316Y-76313255D01*
X150825134Y-76306500D01*
X145394866Y-76306500D01*
X145332684Y-76313255D01*
X145196295Y-76364385D01*
X145079739Y-76451739D01*
X144992385Y-76568295D01*
X144941255Y-76704684D01*
X144934500Y-76766866D01*
X144934500Y-82451134D01*
X141125500Y-82451134D01*
X141125500Y-80474413D01*
X141145502Y-80406292D01*
X141199158Y-80359799D01*
X141269432Y-80349695D01*
X141334012Y-80379189D01*
X141340595Y-80385318D01*
X141346358Y-80391081D01*
X141351739Y-80398261D01*
X141468295Y-80485615D01*
X141604684Y-80536745D01*
X141666866Y-80543500D01*
X143463134Y-80543500D01*
X143525316Y-80536745D01*
X143661705Y-80485615D01*
X143778261Y-80398261D01*
X143865615Y-80281705D01*
X143916745Y-80145316D01*
X143923500Y-80083134D01*
X143923500Y-78286866D01*
X143916745Y-78224684D01*
X143865615Y-78088295D01*
X143778261Y-77971739D01*
X143661705Y-77884385D01*
X143542687Y-77839767D01*
X143485923Y-77797125D01*
X143461223Y-77730564D01*
X143476430Y-77661215D01*
X143497977Y-77632535D01*
X143599052Y-77531812D01*
X143605730Y-77523965D01*
X143730003Y-77351020D01*
X143735313Y-77342183D01*
X143829670Y-77151267D01*
X143833469Y-77141672D01*
X143895377Y-76937910D01*
X143897555Y-76927837D01*
X143898986Y-76916962D01*
X143896775Y-76902778D01*
X143883617Y-76899000D01*
X142437000Y-76899000D01*
X142368879Y-76878998D01*
X142322386Y-76825342D01*
X142311000Y-76773000D01*
X142311000Y-76517000D01*
X142331002Y-76448879D01*
X142384658Y-76402386D01*
X142437000Y-76391000D01*
X143883344Y-76391000D01*
X143896875Y-76387027D01*
X143898180Y-76377947D01*
X143856214Y-76210875D01*
X143852894Y-76201124D01*
X143767972Y-76005814D01*
X143763105Y-75996739D01*
X143647426Y-75817926D01*
X143641136Y-75809757D01*
X143497806Y-75652240D01*
X143490273Y-75645215D01*
X143323139Y-75513222D01*
X143314556Y-75507520D01*
X143277602Y-75487120D01*
X143227631Y-75436687D01*
X143212859Y-75367245D01*
X143237975Y-75300839D01*
X143265327Y-75274232D01*
X143288797Y-75257491D01*
X143444860Y-75146173D01*
X143603096Y-74988489D01*
X143662594Y-74905689D01*
X143730435Y-74811277D01*
X143733453Y-74807077D01*
X143832430Y-74606811D01*
X143897370Y-74393069D01*
X143926529Y-74171590D01*
X143928156Y-74105000D01*
X143909852Y-73882361D01*
X143855431Y-73665702D01*
X143766354Y-73460840D01*
X143645014Y-73273277D01*
X143494670Y-73108051D01*
X143490619Y-73104852D01*
X143490615Y-73104848D01*
X143323414Y-72972800D01*
X143323410Y-72972798D01*
X143319359Y-72969598D01*
X143123789Y-72861638D01*
X143118920Y-72859914D01*
X143118916Y-72859912D01*
X142918087Y-72788795D01*
X142918083Y-72788794D01*
X142913212Y-72787069D01*
X142908119Y-72786162D01*
X142908116Y-72786161D01*
X142698373Y-72748800D01*
X142698367Y-72748799D01*
X142693284Y-72747894D01*
X142619452Y-72746992D01*
X142475081Y-72745228D01*
X142475079Y-72745228D01*
X142469911Y-72745165D01*
X142249091Y-72778955D01*
X142036756Y-72848357D01*
X141838607Y-72951507D01*
X141834474Y-72954610D01*
X141834471Y-72954612D01*
X141810247Y-72972800D01*
X141659965Y-73085635D01*
X141505629Y-73247138D01*
X141379743Y-73431680D01*
X141285688Y-73634305D01*
X141225989Y-73849570D01*
X141202251Y-74071695D01*
X141202548Y-74076848D01*
X141202548Y-74076851D01*
X141208011Y-74171590D01*
X141215110Y-74294715D01*
X141216247Y-74299761D01*
X141216248Y-74299767D01*
X141236119Y-74387939D01*
X141264222Y-74512639D01*
X141348266Y-74719616D01*
X141464987Y-74910088D01*
X141611250Y-75078938D01*
X141783126Y-75221632D01*
X141856955Y-75264774D01*
X141905679Y-75316412D01*
X141918750Y-75386195D01*
X141892019Y-75451967D01*
X141851562Y-75485327D01*
X141843457Y-75489546D01*
X141834738Y-75495036D01*
X141664433Y-75622905D01*
X141656726Y-75629748D01*
X141509590Y-75783717D01*
X141503104Y-75791727D01*
X141383098Y-75967649D01*
X141378000Y-75976623D01*
X141288338Y-76169783D01*
X141284775Y-76179470D01*
X141227864Y-76384681D01*
X141225933Y-76394801D01*
X141223982Y-76413057D01*
X141196854Y-76478667D01*
X141138562Y-76519195D01*
X141067612Y-76521774D01*
X141006531Y-76485585D01*
X140997874Y-76475240D01*
X140980261Y-76451739D01*
X140863705Y-76364385D01*
X140727316Y-76313255D01*
X140665134Y-76306500D01*
X135234866Y-76306500D01*
X135172684Y-76313255D01*
X135036295Y-76364385D01*
X134919739Y-76451739D01*
X134832385Y-76568295D01*
X134781255Y-76704684D01*
X134774500Y-76766866D01*
X134774500Y-82451134D01*
X129800000Y-82451134D01*
X129800000Y-72534000D01*
X129820002Y-72465879D01*
X129873658Y-72419386D01*
X129926000Y-72408000D01*
X155960000Y-72408000D01*
X156028121Y-72428002D01*
G37*
G04 #@! TD.AperFunction*
G04 #@! TA.AperFunction,Conductor*
G36*
X138146121Y-79375002D02*
G01*
X138192614Y-79428658D01*
X138204000Y-79481000D01*
X138204000Y-82892885D01*
X138208475Y-82908124D01*
X138209865Y-82909329D01*
X138217548Y-82911000D01*
X140574000Y-82910999D01*
X140642121Y-82931001D01*
X140688614Y-82984657D01*
X140700000Y-83036999D01*
X140700000Y-85874000D01*
X140679998Y-85942121D01*
X140626342Y-85988614D01*
X140574000Y-86000000D01*
X137426000Y-86000000D01*
X137357879Y-85979998D01*
X137311386Y-85926342D01*
X137300000Y-85874000D01*
X137300000Y-83037000D01*
X137320002Y-82968879D01*
X137373658Y-82922386D01*
X137426000Y-82911000D01*
X137677885Y-82911000D01*
X137693124Y-82906525D01*
X137694329Y-82905135D01*
X137696000Y-82897452D01*
X137696000Y-79481000D01*
X137716002Y-79412879D01*
X137769658Y-79366386D01*
X137822000Y-79355000D01*
X138078000Y-79355000D01*
X138146121Y-79375002D01*
G37*
G04 #@! TD.AperFunction*
M02*
