G04 #@! TF.GenerationSoftware,KiCad,Pcbnew,(6.0.1)*
G04 #@! TF.CreationDate,2022-06-09T14:01:23-07:00*
G04 #@! TF.ProjectId,Regulator_5V_rev1_2,52656775-6c61-4746-9f72-5f35565f7265,1.2*
G04 #@! TF.SameCoordinates,Original*
G04 #@! TF.FileFunction,Paste,Top*
G04 #@! TF.FilePolarity,Positive*
%FSLAX46Y46*%
G04 Gerber Fmt 4.6, Leading zero omitted, Abs format (unit mm)*
G04 Created by KiCad (PCBNEW (6.0.1)) date 2022-06-09 14:01:23*
%MOMM*%
%LPD*%
G01*
G04 APERTURE LIST*
G04 Aperture macros list*
%AMRoundRect*
0 Rectangle with rounded corners*
0 $1 Rounding radius*
0 $2 $3 $4 $5 $6 $7 $8 $9 X,Y pos of 4 corners*
0 Add a 4 corners polygon primitive as box body*
4,1,4,$2,$3,$4,$5,$6,$7,$8,$9,$2,$3,0*
0 Add four circle primitives for the rounded corners*
1,1,$1+$1,$2,$3*
1,1,$1+$1,$4,$5*
1,1,$1+$1,$6,$7*
1,1,$1+$1,$8,$9*
0 Add four rect primitives between the rounded corners*
20,1,$1+$1,$2,$3,$4,$5,0*
20,1,$1+$1,$4,$5,$6,$7,0*
20,1,$1+$1,$6,$7,$8,$9,0*
20,1,$1+$1,$8,$9,$2,$3,0*%
G04 Aperture macros list end*
%ADD10C,0.100000*%
%ADD11RoundRect,0.250000X-0.875000X-1.025000X0.875000X-1.025000X0.875000X1.025000X-0.875000X1.025000X0*%
%ADD12RoundRect,0.237500X-0.300000X-0.237500X0.300000X-0.237500X0.300000X0.237500X-0.300000X0.237500X0*%
%ADD13R,1.778000X0.533400*%
%ADD14RoundRect,0.250000X-0.475000X0.337500X-0.475000X-0.337500X0.475000X-0.337500X0.475000X0.337500X0*%
%ADD15RoundRect,0.250000X0.350000X0.450000X-0.350000X0.450000X-0.350000X-0.450000X0.350000X-0.450000X0*%
%ADD16R,3.500000X2.700000*%
%ADD17RoundRect,0.237500X-0.237500X0.300000X-0.237500X-0.300000X0.237500X-0.300000X0.237500X0.300000X0*%
G04 APERTURE END LIST*
D10*
X135467750Y-92454500D02*
X135467750Y-93804500D01*
X135467750Y-93804500D02*
X137667750Y-93804500D01*
X137667750Y-93804500D02*
X137667750Y-92454500D01*
X137667750Y-92454500D02*
X135467750Y-92454500D01*
G36*
X137667750Y-93804500D02*
G01*
X135467750Y-93804500D01*
X135467750Y-92454500D01*
X137667750Y-92454500D01*
X137667750Y-93804500D01*
G37*
X137667750Y-93804500D02*
X135467750Y-93804500D01*
X135467750Y-92454500D01*
X137667750Y-92454500D01*
X137667750Y-93804500D01*
X135467750Y-90904500D02*
X135467750Y-92254500D01*
X135467750Y-92254500D02*
X137667750Y-92254500D01*
X137667750Y-92254500D02*
X137667750Y-90904500D01*
X137667750Y-90904500D02*
X135467750Y-90904500D01*
G36*
X137667750Y-92254500D02*
G01*
X135467750Y-92254500D01*
X135467750Y-90904500D01*
X137667750Y-90904500D01*
X137667750Y-92254500D01*
G37*
X137667750Y-92254500D02*
X135467750Y-92254500D01*
X135467750Y-90904500D01*
X137667750Y-90904500D01*
X137667750Y-92254500D01*
D11*
X147676000Y-80518000D03*
X154076000Y-80518000D03*
D12*
X150521500Y-83820000D03*
X152246500Y-83820000D03*
D13*
X134002350Y-90449500D03*
X134002350Y-91719500D03*
X134002350Y-92989500D03*
X134002350Y-94259500D03*
X139133150Y-94259500D03*
X139133150Y-92989500D03*
X139133150Y-91719500D03*
X139133150Y-90449500D03*
D14*
X144590000Y-91476500D03*
X144590000Y-93551500D03*
D15*
X142850000Y-96750000D03*
X140850000Y-96750000D03*
D12*
X135857500Y-88640000D03*
X137582500Y-88640000D03*
D16*
X139200000Y-84500000D03*
X132400000Y-84500000D03*
D17*
X146690000Y-91451500D03*
X146690000Y-93176500D03*
D14*
X142340000Y-91466500D03*
X142340000Y-93541500D03*
M02*
