G04 #@! TF.GenerationSoftware,KiCad,Pcbnew,(6.0.1)*
G04 #@! TF.CreationDate,2022-06-09T14:01:23-07:00*
G04 #@! TF.ProjectId,Regulator_5V_rev1_2,52656775-6c61-4746-9f72-5f35565f7265,1.2*
G04 #@! TF.SameCoordinates,Original*
G04 #@! TF.FileFunction,Profile,NP*
%FSLAX46Y46*%
G04 Gerber Fmt 4.6, Leading zero omitted, Abs format (unit mm)*
G04 Created by KiCad (PCBNEW (6.0.1)) date 2022-06-09 14:01:23*
%MOMM*%
%LPD*%
G01*
G04 APERTURE LIST*
G04 #@! TA.AperFunction,Profile*
%ADD10C,0.100000*%
G04 #@! TD*
G04 APERTURE END LIST*
D10*
X127900000Y-74900000D02*
X127900000Y-71900000D01*
X127900000Y-92900000D02*
X128800000Y-92900000D01*
X128800000Y-98900000D02*
X128800000Y-100900000D01*
X127900000Y-71900000D02*
X156594000Y-71900000D01*
X127900000Y-86900000D02*
X127900000Y-82900000D01*
X128800000Y-80900000D02*
X128800000Y-82900000D01*
X128800000Y-92900000D02*
X128800000Y-94900000D01*
X127900000Y-98900000D02*
X128800000Y-98900000D01*
X156594000Y-71900000D02*
X156594000Y-104800000D01*
X128800000Y-74900000D02*
X128800000Y-76900000D01*
X128800000Y-86900000D02*
X128800000Y-88900000D01*
X127900000Y-104800000D02*
X127900000Y-100900000D01*
X127900000Y-80900000D02*
X128800000Y-80900000D01*
X127900000Y-92900000D02*
X127900000Y-88900000D01*
X128800000Y-82900000D02*
X127900000Y-82900000D01*
X127900000Y-80900000D02*
X127900000Y-76900000D01*
X127900000Y-74900000D02*
X128800000Y-74900000D01*
X128800000Y-76900000D02*
X127900000Y-76900000D01*
X127900000Y-98900000D02*
X127900000Y-94900000D01*
X128800000Y-88900000D02*
X127900000Y-88900000D01*
X156594000Y-104800000D02*
X127900000Y-104800000D01*
X128800000Y-100900000D02*
X127900000Y-100900000D01*
X128800000Y-94900000D02*
X127900000Y-94900000D01*
X127900000Y-86900000D02*
X128800000Y-86900000D01*
X155666666Y-102100000D02*
G75*
G03*
X155666666Y-102100000I-1666666J0D01*
G01*
X151500000Y-102100000D02*
X156500000Y-102100000D01*
X154000000Y-99600000D02*
X154000000Y-104600000D01*
M02*
