G04 #@! TF.GenerationSoftware,KiCad,Pcbnew,(6.0.1)*
G04 #@! TF.CreationDate,2022-06-09T14:01:23-07:00*
G04 #@! TF.ProjectId,Regulator_5V_rev1_2,52656775-6c61-4746-9f72-5f35565f7265,1.2*
G04 #@! TF.SameCoordinates,Original*
G04 #@! TF.FileFunction,Copper,L1,Top*
G04 #@! TF.FilePolarity,Positive*
%FSLAX46Y46*%
G04 Gerber Fmt 4.6, Leading zero omitted, Abs format (unit mm)*
G04 Created by KiCad (PCBNEW (6.0.1)) date 2022-06-09 14:01:23*
%MOMM*%
%LPD*%
G01*
G04 APERTURE LIST*
G04 Aperture macros list*
%AMRoundRect*
0 Rectangle with rounded corners*
0 $1 Rounding radius*
0 $2 $3 $4 $5 $6 $7 $8 $9 X,Y pos of 4 corners*
0 Add a 4 corners polygon primitive as box body*
4,1,4,$2,$3,$4,$5,$6,$7,$8,$9,$2,$3,0*
0 Add four circle primitives for the rounded corners*
1,1,$1+$1,$2,$3*
1,1,$1+$1,$4,$5*
1,1,$1+$1,$6,$7*
1,1,$1+$1,$8,$9*
0 Add four rect primitives between the rounded corners*
20,1,$1+$1,$2,$3,$4,$5,0*
20,1,$1+$1,$4,$5,$6,$7,0*
20,1,$1+$1,$6,$7,$8,$9,0*
20,1,$1+$1,$8,$9,$2,$3,0*%
G04 Aperture macros list end*
G04 #@! TA.AperFunction,SMDPad,CuDef*
%ADD10RoundRect,0.250000X-0.875000X-1.025000X0.875000X-1.025000X0.875000X1.025000X-0.875000X1.025000X0*%
G04 #@! TD*
G04 #@! TA.AperFunction,SMDPad,CuDef*
%ADD11RoundRect,0.237500X-0.300000X-0.237500X0.300000X-0.237500X0.300000X0.237500X-0.300000X0.237500X0*%
G04 #@! TD*
G04 #@! TA.AperFunction,SMDPad,CuDef*
%ADD12R,1.778000X0.533400*%
G04 #@! TD*
G04 #@! TA.AperFunction,SMDPad,CuDef*
%ADD13R,2.400000X3.099999*%
G04 #@! TD*
G04 #@! TA.AperFunction,SMDPad,CuDef*
%ADD14RoundRect,0.250000X-0.475000X0.337500X-0.475000X-0.337500X0.475000X-0.337500X0.475000X0.337500X0*%
G04 #@! TD*
G04 #@! TA.AperFunction,SMDPad,CuDef*
%ADD15RoundRect,0.250000X0.350000X0.450000X-0.350000X0.450000X-0.350000X-0.450000X0.350000X-0.450000X0*%
G04 #@! TD*
G04 #@! TA.AperFunction,SMDPad,CuDef*
%ADD16R,3.500000X2.700000*%
G04 #@! TD*
G04 #@! TA.AperFunction,ComponentPad*
%ADD17C,1.498600*%
G04 #@! TD*
G04 #@! TA.AperFunction,SMDPad,CuDef*
%ADD18RoundRect,0.237500X-0.237500X0.300000X-0.237500X-0.300000X0.237500X-0.300000X0.237500X0.300000X0*%
G04 #@! TD*
G04 #@! TA.AperFunction,ComponentPad*
%ADD19R,1.700000X1.700000*%
G04 #@! TD*
G04 #@! TA.AperFunction,ComponentPad*
%ADD20O,1.700000X1.700000*%
G04 #@! TD*
G04 #@! TA.AperFunction,ViaPad*
%ADD21C,0.800000*%
G04 #@! TD*
G04 #@! TA.AperFunction,Conductor*
%ADD22C,1.000000*%
G04 #@! TD*
G04 #@! TA.AperFunction,Conductor*
%ADD23C,0.250000*%
G04 #@! TD*
G04 #@! TA.AperFunction,Conductor*
%ADD24C,0.750000*%
G04 #@! TD*
G04 #@! TA.AperFunction,Conductor*
%ADD25C,0.500000*%
G04 #@! TD*
G04 APERTURE END LIST*
D10*
X147676000Y-80518000D03*
X154076000Y-80518000D03*
D11*
X150521500Y-83820000D03*
X152246500Y-83820000D03*
D12*
X134002350Y-90449500D03*
X134002350Y-91719500D03*
X134002350Y-92989500D03*
X134002350Y-94259500D03*
X139133150Y-94259500D03*
X139133150Y-92989500D03*
X139133150Y-91719500D03*
X139133150Y-90449500D03*
D13*
X136567750Y-92354500D03*
D14*
X144590000Y-91476500D03*
X144590000Y-93551500D03*
D15*
X142850000Y-96750000D03*
X140850000Y-96750000D03*
D11*
X135857500Y-88640000D03*
X137582500Y-88640000D03*
D16*
X139200000Y-84500000D03*
X132400000Y-84500000D03*
D17*
X135274500Y-96681000D03*
X137774500Y-99181000D03*
X135274500Y-101681000D03*
D18*
X146690000Y-91451500D03*
X146690000Y-93176500D03*
D19*
X142565000Y-79185000D03*
D20*
X142565000Y-76645000D03*
X142565000Y-74105000D03*
D14*
X142340000Y-91466500D03*
X142340000Y-93541500D03*
D21*
X141900000Y-87000000D03*
X142000000Y-81900000D03*
X152400000Y-88138000D03*
X131064000Y-93218000D03*
X134410000Y-76800000D03*
X145700000Y-95500000D03*
X152175000Y-101225000D03*
X152420000Y-92740000D03*
X136620000Y-89960000D03*
X144018000Y-95504000D03*
X154130000Y-83810000D03*
X131064000Y-88900000D03*
X136550000Y-94750000D03*
X140720000Y-92990000D03*
X142000000Y-84400000D03*
X154020000Y-75220000D03*
X136050000Y-84450000D03*
X138000000Y-78200000D03*
X140300000Y-85200000D03*
X138000000Y-83800000D03*
X138000000Y-85100000D03*
X139900000Y-81600000D03*
X139900000Y-79900000D03*
X137950000Y-79950000D03*
X137950000Y-81650000D03*
X139900000Y-78200000D03*
X140200000Y-83800000D03*
X146350000Y-77570000D03*
X150190000Y-77550000D03*
X150200000Y-79650000D03*
X150250000Y-81350000D03*
X147676000Y-80518000D03*
X148350000Y-77570000D03*
D22*
X134002350Y-89647650D02*
X134002350Y-90449500D01*
X135857500Y-88640000D02*
X135010000Y-88640000D01*
X135010000Y-88640000D02*
X134002350Y-89647650D01*
X135274500Y-96681000D02*
X140781000Y-96681000D01*
D23*
X140781000Y-96681000D02*
X140850000Y-96750000D01*
D22*
X134002350Y-94259500D02*
X134002350Y-95408850D01*
X134002350Y-95408850D02*
X135274500Y-96681000D01*
D24*
X142340000Y-93541500D02*
X141271500Y-93541500D01*
D23*
X146690000Y-93176500D02*
X144965000Y-93176500D01*
X139133650Y-92990000D02*
X139133150Y-92989500D01*
D24*
X140720000Y-92990000D02*
X139133650Y-92990000D01*
X141271500Y-93541500D02*
X140720000Y-92990000D01*
D23*
X142350000Y-93551500D02*
X142340000Y-93541500D01*
X144590000Y-93551500D02*
X142350000Y-93551500D01*
X144965000Y-93176500D02*
X144590000Y-93551500D01*
X144920000Y-93557500D02*
X144910000Y-93547500D01*
X144925000Y-91457500D02*
X144910000Y-91472500D01*
D25*
X142340000Y-91466500D02*
X142087000Y-91719500D01*
D22*
X142565000Y-79185000D02*
X144590000Y-81210000D01*
D24*
X142355000Y-91451500D02*
X142340000Y-91466500D01*
X142087000Y-91719500D02*
X139133150Y-91719500D01*
D22*
X146690000Y-91451500D02*
X142355000Y-91451500D01*
X144590000Y-81210000D02*
X144590000Y-91476500D01*
D25*
X144910000Y-91472500D02*
X144657000Y-91725500D01*
D22*
X138320000Y-87780000D02*
X139200000Y-86900000D01*
X138745000Y-89065000D02*
X139133150Y-89453150D01*
X138320000Y-88640000D02*
X138745000Y-89065000D01*
X139200000Y-86900000D02*
X139200000Y-84500000D01*
X139133150Y-89453150D02*
X139133150Y-90449500D01*
X138320000Y-88640000D02*
X138320000Y-87780000D01*
X137582500Y-88640000D02*
X138320000Y-88640000D01*
X142900000Y-96700000D02*
X142850000Y-96750000D01*
X146640614Y-96700000D02*
X149038614Y-94302000D01*
X149098000Y-83820000D02*
X149098000Y-80772000D01*
X146985000Y-74105000D02*
X147676000Y-74796000D01*
X149098000Y-80772000D02*
X148844000Y-80518000D01*
D23*
X149038614Y-94302000D02*
X149098000Y-94302000D01*
D22*
X146640614Y-96700000D02*
X142900000Y-96700000D01*
X147676000Y-78924000D02*
X147676000Y-80518000D01*
X147676000Y-74796000D02*
X147676000Y-78924000D01*
X142565000Y-74105000D02*
X146985000Y-74105000D01*
X148844000Y-80518000D02*
X147676000Y-80518000D01*
X149098000Y-94302000D02*
X149098000Y-83820000D01*
X150521500Y-83820000D02*
X149098000Y-83820000D01*
G04 #@! TA.AperFunction,Conductor*
G36*
X140658121Y-72428002D02*
G01*
X140704614Y-72481658D01*
X140716000Y-72534000D01*
X140716000Y-73252578D01*
X140720226Y-73317964D01*
X140724401Y-73350131D01*
X140737008Y-73414434D01*
X140793442Y-73547558D01*
X140830172Y-73608315D01*
X140921826Y-73720150D01*
X141041274Y-73801630D01*
X141105021Y-73832884D01*
X141109296Y-73834268D01*
X141109299Y-73834269D01*
X141126310Y-73839775D01*
X141184960Y-73879783D01*
X141212670Y-73945149D01*
X141212794Y-73973040D01*
X141202251Y-74071695D01*
X141202548Y-74076848D01*
X141202548Y-74076851D01*
X141212380Y-74247370D01*
X141196332Y-74316529D01*
X141145442Y-74366034D01*
X141122087Y-74375519D01*
X141095277Y-74383391D01*
X141095275Y-74383392D01*
X141086628Y-74385931D01*
X140964990Y-74464103D01*
X140911334Y-74510596D01*
X140816645Y-74619872D01*
X140756579Y-74751398D01*
X140736577Y-74819519D01*
X140735937Y-74823967D01*
X140735936Y-74823974D01*
X140716639Y-74958190D01*
X140716638Y-74958197D01*
X140716000Y-74962638D01*
X140716000Y-75312000D01*
X140727609Y-75419980D01*
X140738995Y-75472322D01*
X140773293Y-75575372D01*
X140851465Y-75697010D01*
X140897958Y-75750666D01*
X141007234Y-75845355D01*
X141138760Y-75905421D01*
X141162514Y-75912396D01*
X141202558Y-75924154D01*
X141202562Y-75924155D01*
X141206881Y-75925423D01*
X141211338Y-75926064D01*
X141211348Y-75926066D01*
X141221891Y-75927582D01*
X141286472Y-75957075D01*
X141324855Y-76016801D01*
X141324855Y-76087798D01*
X141318247Y-76105349D01*
X141288339Y-76169782D01*
X141284775Y-76179470D01*
X141229389Y-76379183D01*
X141230912Y-76387607D01*
X141243292Y-76391000D01*
X143883344Y-76391000D01*
X143896875Y-76387027D01*
X143898180Y-76377947D01*
X143856214Y-76210875D01*
X143852894Y-76201124D01*
X143818596Y-76122242D01*
X143809777Y-76051795D01*
X143840443Y-75987763D01*
X143900860Y-75950476D01*
X143934146Y-75946000D01*
X145312000Y-75946000D01*
X145380121Y-75966002D01*
X145426614Y-76019658D01*
X145438000Y-76072000D01*
X145438000Y-77384545D01*
X145417998Y-77452666D01*
X145364342Y-77499159D01*
X145294069Y-77509263D01*
X145178448Y-77492639D01*
X145178441Y-77492638D01*
X145174000Y-77492000D01*
X144013779Y-77492000D01*
X144012121Y-77492090D01*
X144012104Y-77492090D01*
X143977126Y-77493979D01*
X143959062Y-77494955D01*
X143957373Y-77495138D01*
X143933761Y-77497696D01*
X143933757Y-77497697D01*
X143932073Y-77497879D01*
X143877971Y-77506716D01*
X143877586Y-77504358D01*
X143817212Y-77502833D01*
X143758474Y-77462953D01*
X143730621Y-77397648D01*
X143742795Y-77327045D01*
X143829670Y-77151267D01*
X143833469Y-77141672D01*
X143895377Y-76937910D01*
X143897555Y-76927837D01*
X143898986Y-76916962D01*
X143896775Y-76902778D01*
X143883617Y-76899000D01*
X141248225Y-76899000D01*
X141234694Y-76902973D01*
X141233257Y-76912966D01*
X141263565Y-77047446D01*
X141266644Y-77057275D01*
X141293216Y-77122713D01*
X141300312Y-77193354D01*
X141268090Y-77256617D01*
X141206781Y-77292418D01*
X141135849Y-77289388D01*
X141075605Y-77245627D01*
X141074969Y-77244777D01*
X141072535Y-77240990D01*
X141069590Y-77237591D01*
X141069586Y-77237586D01*
X141028982Y-77190727D01*
X141026042Y-77187334D01*
X141007213Y-77171018D01*
X140973346Y-77141672D01*
X140916766Y-77092645D01*
X140785240Y-77032579D01*
X140761486Y-77025604D01*
X140721442Y-77013846D01*
X140721438Y-77013845D01*
X140717119Y-77012577D01*
X140712671Y-77011937D01*
X140712664Y-77011936D01*
X140578448Y-76992639D01*
X140578441Y-76992638D01*
X140574000Y-76992000D01*
X137426000Y-76992000D01*
X137318020Y-77003609D01*
X137314736Y-77004323D01*
X137314732Y-77004324D01*
X137289661Y-77009778D01*
X137265678Y-77014995D01*
X137162628Y-77049293D01*
X137040990Y-77127465D01*
X136987334Y-77173958D01*
X136984393Y-77177352D01*
X136972803Y-77190727D01*
X136892645Y-77283234D01*
X136832579Y-77414760D01*
X136831311Y-77419079D01*
X136818144Y-77463923D01*
X136812577Y-77482881D01*
X136811937Y-77487329D01*
X136811936Y-77487336D01*
X136792639Y-77621552D01*
X136792638Y-77621559D01*
X136792000Y-77626000D01*
X136792000Y-82516001D01*
X136803609Y-82623981D01*
X136804323Y-82627265D01*
X136804324Y-82627269D01*
X136808811Y-82647895D01*
X136814995Y-82676323D01*
X136849293Y-82779373D01*
X136927465Y-82901011D01*
X136930410Y-82904410D01*
X136933108Y-82908014D01*
X136931905Y-82908915D01*
X136958709Y-82967627D01*
X136952540Y-83024527D01*
X136952855Y-83024602D01*
X136952262Y-83027097D01*
X136951972Y-83029769D01*
X136948255Y-83039684D01*
X136947402Y-83047532D01*
X136947402Y-83047534D01*
X136947390Y-83047648D01*
X136941500Y-83101866D01*
X136941500Y-85898134D01*
X136948255Y-85960316D01*
X136999385Y-86096705D01*
X137086739Y-86213261D01*
X137203295Y-86300615D01*
X137339684Y-86351745D01*
X137401866Y-86358500D01*
X138011074Y-86358500D01*
X138079195Y-86378502D01*
X138125688Y-86432158D01*
X138135792Y-86502432D01*
X138106298Y-86567012D01*
X138100170Y-86573595D01*
X137650617Y-87023149D01*
X137640473Y-87032251D01*
X137610975Y-87055968D01*
X137587682Y-87083727D01*
X137578709Y-87094421D01*
X137575528Y-87098069D01*
X137573885Y-87099881D01*
X137571691Y-87102075D01*
X137544358Y-87135349D01*
X137543696Y-87136147D01*
X137483846Y-87207474D01*
X137481278Y-87212144D01*
X137477897Y-87216261D01*
X137458601Y-87252248D01*
X137434023Y-87298086D01*
X137433394Y-87299245D01*
X137391538Y-87375381D01*
X137391535Y-87375389D01*
X137388567Y-87380787D01*
X137386955Y-87385869D01*
X137384438Y-87390563D01*
X137357238Y-87479531D01*
X137356918Y-87480559D01*
X137328765Y-87569306D01*
X137328765Y-87569307D01*
X137326295Y-87568524D01*
X137297903Y-87621069D01*
X137235741Y-87655368D01*
X137221420Y-87657694D01*
X137135765Y-87666581D01*
X137135761Y-87666582D01*
X137128907Y-87667293D01*
X137122371Y-87669474D01*
X137122369Y-87669474D01*
X137026241Y-87701545D01*
X136963893Y-87722346D01*
X136957661Y-87726202D01*
X136957662Y-87726202D01*
X136823490Y-87809230D01*
X136815969Y-87813884D01*
X136809077Y-87820788D01*
X136807613Y-87821589D01*
X136805062Y-87823611D01*
X136804716Y-87823174D01*
X136746796Y-87854866D01*
X136675976Y-87849863D01*
X136630890Y-87820944D01*
X136628184Y-87818243D01*
X136623003Y-87813071D01*
X136597022Y-87797056D01*
X136481150Y-87725631D01*
X136481148Y-87725630D01*
X136474920Y-87721791D01*
X136309809Y-87667026D01*
X136302973Y-87666326D01*
X136302970Y-87666325D01*
X136251474Y-87661049D01*
X136207072Y-87656500D01*
X136112083Y-87656500D01*
X136080167Y-87651559D01*
X136080093Y-87651909D01*
X136074066Y-87650628D01*
X136068194Y-87648765D01*
X136062077Y-87648079D01*
X136062073Y-87648078D01*
X135989242Y-87639909D01*
X135914273Y-87631500D01*
X135071842Y-87631500D01*
X135058235Y-87630763D01*
X135026737Y-87627341D01*
X135026732Y-87627341D01*
X135020611Y-87626676D01*
X135006655Y-87627897D01*
X134970609Y-87631050D01*
X134965784Y-87631379D01*
X134963313Y-87631500D01*
X134960231Y-87631500D01*
X134937763Y-87633703D01*
X134917489Y-87635691D01*
X134916174Y-87635813D01*
X134883913Y-87638636D01*
X134823587Y-87643913D01*
X134818468Y-87645400D01*
X134813167Y-87645920D01*
X134807262Y-87647703D01*
X134807261Y-87647703D01*
X134793330Y-87651909D01*
X134724194Y-87672782D01*
X134723054Y-87673120D01*
X134633663Y-87699091D01*
X134628929Y-87701545D01*
X134623831Y-87703084D01*
X134618387Y-87705978D01*
X134618386Y-87705979D01*
X134541831Y-87746684D01*
X134540663Y-87747298D01*
X134458074Y-87790108D01*
X134453911Y-87793431D01*
X134449204Y-87795934D01*
X134377082Y-87854755D01*
X134376226Y-87855446D01*
X134337027Y-87886738D01*
X134334523Y-87889242D01*
X134333805Y-87889884D01*
X134329472Y-87893585D01*
X134295938Y-87920935D01*
X134266709Y-87956267D01*
X134258728Y-87965037D01*
X133332967Y-88890799D01*
X133322823Y-88899901D01*
X133293325Y-88923618D01*
X133289358Y-88928346D01*
X133261059Y-88962071D01*
X133257878Y-88965719D01*
X133256235Y-88967531D01*
X133254041Y-88969725D01*
X133226708Y-89002999D01*
X133226046Y-89003797D01*
X133166196Y-89075124D01*
X133163628Y-89079794D01*
X133160247Y-89083911D01*
X133129210Y-89141795D01*
X133116373Y-89165736D01*
X133115744Y-89166895D01*
X133073888Y-89243031D01*
X133073885Y-89243039D01*
X133070917Y-89248437D01*
X133069305Y-89253519D01*
X133066788Y-89258213D01*
X133039588Y-89347181D01*
X133039268Y-89348209D01*
X133011115Y-89436956D01*
X133010521Y-89442252D01*
X133008963Y-89447348D01*
X133007057Y-89466116D01*
X132999568Y-89539837D01*
X132999439Y-89541043D01*
X132993850Y-89590877D01*
X132993850Y-89594404D01*
X132993795Y-89595389D01*
X132993345Y-89601101D01*
X132992420Y-89610203D01*
X132965633Y-89675953D01*
X132911296Y-89715446D01*
X132866645Y-89732185D01*
X132750089Y-89819539D01*
X132662735Y-89936095D01*
X132611605Y-90072484D01*
X132604850Y-90134666D01*
X132604850Y-90764334D01*
X132611605Y-90826516D01*
X132662735Y-90962905D01*
X132697234Y-91008937D01*
X132722081Y-91075441D01*
X132707028Y-91144823D01*
X132697240Y-91160055D01*
X132662735Y-91206095D01*
X132611605Y-91342484D01*
X132604850Y-91404666D01*
X132604850Y-92034334D01*
X132611605Y-92096516D01*
X132662735Y-92232905D01*
X132697234Y-92278937D01*
X132722081Y-92345441D01*
X132707028Y-92414823D01*
X132697240Y-92430055D01*
X132662735Y-92476095D01*
X132611605Y-92612484D01*
X132604850Y-92674666D01*
X132604850Y-93304334D01*
X132611605Y-93366516D01*
X132662735Y-93502905D01*
X132697234Y-93548937D01*
X132722081Y-93615441D01*
X132707028Y-93684823D01*
X132697240Y-93700055D01*
X132662735Y-93746095D01*
X132611605Y-93882484D01*
X132604850Y-93944666D01*
X132604850Y-94574334D01*
X132611605Y-94636516D01*
X132662735Y-94772905D01*
X132750089Y-94889461D01*
X132757269Y-94894842D01*
X132859463Y-94971433D01*
X132859466Y-94971435D01*
X132866645Y-94976815D01*
X132875049Y-94979966D01*
X132875050Y-94979966D01*
X132912078Y-94993847D01*
X132968843Y-95036488D01*
X132993544Y-95103049D01*
X132993850Y-95111829D01*
X132993850Y-95347007D01*
X132993113Y-95360614D01*
X132989026Y-95398238D01*
X132989563Y-95404373D01*
X132993400Y-95448238D01*
X132993729Y-95453064D01*
X132993850Y-95455536D01*
X132993850Y-95458619D01*
X132994151Y-95461687D01*
X132998040Y-95501356D01*
X132998162Y-95502669D01*
X133001588Y-95541828D01*
X133006263Y-95595263D01*
X133007750Y-95600382D01*
X133008270Y-95605683D01*
X133035141Y-95694684D01*
X133035476Y-95695817D01*
X133037134Y-95701522D01*
X133061441Y-95785186D01*
X133063894Y-95789918D01*
X133065434Y-95795019D01*
X133068328Y-95800462D01*
X133109081Y-95877110D01*
X133109693Y-95878276D01*
X133149621Y-95955303D01*
X133152458Y-95960776D01*
X133155781Y-95964939D01*
X133158284Y-95969646D01*
X133217105Y-96041768D01*
X133217796Y-96042624D01*
X133249088Y-96081823D01*
X133251592Y-96084327D01*
X133252234Y-96085045D01*
X133255935Y-96089378D01*
X133283285Y-96122912D01*
X133288032Y-96126839D01*
X133288034Y-96126841D01*
X133318612Y-96152137D01*
X133327392Y-96160127D01*
X133995776Y-96828511D01*
X134030664Y-96895533D01*
X134031077Y-96900249D01*
X134088039Y-97112836D01*
X134181052Y-97312302D01*
X134307288Y-97492587D01*
X134462913Y-97648212D01*
X134467421Y-97651369D01*
X134467424Y-97651371D01*
X134574473Y-97726327D01*
X134643197Y-97774448D01*
X134648179Y-97776771D01*
X134648184Y-97776774D01*
X134799096Y-97847145D01*
X134842664Y-97867461D01*
X134847972Y-97868883D01*
X134847974Y-97868884D01*
X135049936Y-97922999D01*
X135049937Y-97922999D01*
X135055251Y-97924423D01*
X135274500Y-97943605D01*
X135493749Y-97924423D01*
X135499063Y-97922999D01*
X135499064Y-97922999D01*
X135701026Y-97868884D01*
X135701028Y-97868883D01*
X135706336Y-97867461D01*
X135749904Y-97847145D01*
X135900822Y-97776771D01*
X135900825Y-97776769D01*
X135905803Y-97774448D01*
X135974527Y-97726327D01*
X135994579Y-97712287D01*
X136066849Y-97689500D01*
X137527627Y-97689500D01*
X137595748Y-97709502D01*
X137642241Y-97763158D01*
X137652345Y-97833432D01*
X137622851Y-97898012D01*
X137563125Y-97936396D01*
X137550914Y-97939256D01*
X137348145Y-97993588D01*
X137337853Y-97997334D01*
X137148436Y-98085661D01*
X137138940Y-98091144D01*
X137097854Y-98119913D01*
X137089479Y-98130390D01*
X137096548Y-98143838D01*
X137761688Y-98808978D01*
X137775632Y-98816592D01*
X137777465Y-98816461D01*
X137784080Y-98812210D01*
X138453174Y-98143116D01*
X138459604Y-98131341D01*
X138450308Y-98119326D01*
X138410060Y-98091144D01*
X138400565Y-98085661D01*
X138211147Y-97997334D01*
X138200855Y-97993588D01*
X137993662Y-97938071D01*
X137993987Y-97936857D01*
X137935881Y-97908059D01*
X137899411Y-97847145D01*
X137901664Y-97776184D01*
X137941923Y-97717706D01*
X138007407Y-97690276D01*
X138021373Y-97689500D01*
X139864573Y-97689500D01*
X139932694Y-97709502D01*
X139953590Y-97726327D01*
X140021512Y-97794130D01*
X140021517Y-97794134D01*
X140026697Y-97799305D01*
X140032927Y-97803145D01*
X140032928Y-97803146D01*
X140170090Y-97887694D01*
X140177262Y-97892115D01*
X140225332Y-97908059D01*
X140338611Y-97945632D01*
X140338613Y-97945632D01*
X140345139Y-97947797D01*
X140351975Y-97948497D01*
X140351978Y-97948498D01*
X140395031Y-97952909D01*
X140449600Y-97958500D01*
X141250400Y-97958500D01*
X141253646Y-97958163D01*
X141253650Y-97958163D01*
X141349308Y-97948238D01*
X141349312Y-97948237D01*
X141356166Y-97947526D01*
X141362702Y-97945345D01*
X141362704Y-97945345D01*
X141504577Y-97898012D01*
X141523946Y-97891550D01*
X141674348Y-97798478D01*
X141760784Y-97711891D01*
X141823066Y-97677812D01*
X141893886Y-97682815D01*
X141938975Y-97711736D01*
X141972780Y-97745482D01*
X142026697Y-97799305D01*
X142032927Y-97803145D01*
X142032928Y-97803146D01*
X142170090Y-97887694D01*
X142177262Y-97892115D01*
X142225332Y-97908059D01*
X142338611Y-97945632D01*
X142338613Y-97945632D01*
X142345139Y-97947797D01*
X142351975Y-97948497D01*
X142351978Y-97948498D01*
X142395031Y-97952909D01*
X142449600Y-97958500D01*
X143250400Y-97958500D01*
X143253646Y-97958163D01*
X143253650Y-97958163D01*
X143349308Y-97948238D01*
X143349312Y-97948237D01*
X143356166Y-97947526D01*
X143362702Y-97945345D01*
X143362704Y-97945345D01*
X143504577Y-97898012D01*
X143523946Y-97891550D01*
X143674348Y-97798478D01*
X143701488Y-97771291D01*
X143727252Y-97745482D01*
X143789535Y-97711403D01*
X143816425Y-97708500D01*
X146578771Y-97708500D01*
X146592378Y-97709237D01*
X146623876Y-97712659D01*
X146623881Y-97712659D01*
X146630002Y-97713324D01*
X146656252Y-97711027D01*
X146680002Y-97708950D01*
X146684828Y-97708621D01*
X146687300Y-97708500D01*
X146690383Y-97708500D01*
X146702352Y-97707326D01*
X146733120Y-97704310D01*
X146734433Y-97704188D01*
X146778698Y-97700315D01*
X146827027Y-97696087D01*
X146832146Y-97694600D01*
X146837447Y-97694080D01*
X146926448Y-97667209D01*
X146927581Y-97666874D01*
X147011028Y-97642630D01*
X147011032Y-97642628D01*
X147016950Y-97640909D01*
X147021682Y-97638456D01*
X147026783Y-97636916D01*
X147032226Y-97634022D01*
X147108874Y-97593269D01*
X147110040Y-97592657D01*
X147187067Y-97552729D01*
X147192540Y-97549892D01*
X147196703Y-97546569D01*
X147201410Y-97544066D01*
X147273532Y-97485245D01*
X147274388Y-97484554D01*
X147313587Y-97453262D01*
X147316091Y-97450758D01*
X147316809Y-97450116D01*
X147321142Y-97446415D01*
X147354676Y-97419065D01*
X147383902Y-97383737D01*
X147391891Y-97374958D01*
X149563813Y-95203035D01*
X149594527Y-95180472D01*
X149652890Y-95149960D01*
X149807025Y-95026032D01*
X149934154Y-94874526D01*
X149937121Y-94869128D01*
X149937125Y-94869123D01*
X150026467Y-94706608D01*
X150029433Y-94701213D01*
X150046631Y-94647000D01*
X150087373Y-94518564D01*
X150087373Y-94518563D01*
X150089235Y-94512694D01*
X150106500Y-94358773D01*
X150106500Y-87102000D01*
X150126502Y-87033879D01*
X150180158Y-86987386D01*
X150232500Y-86976000D01*
X151108000Y-86976000D01*
X151215980Y-86964391D01*
X151219264Y-86963677D01*
X151219268Y-86963676D01*
X151251000Y-86956773D01*
X151268322Y-86953005D01*
X151371372Y-86918707D01*
X151493010Y-86840535D01*
X151546666Y-86794042D01*
X151641355Y-86684766D01*
X151701421Y-86553240D01*
X151708396Y-86529486D01*
X151720154Y-86489442D01*
X151720155Y-86489438D01*
X151721423Y-86485119D01*
X151722300Y-86479021D01*
X151741361Y-86346448D01*
X151741362Y-86346441D01*
X151742000Y-86342000D01*
X151742000Y-84926692D01*
X151762002Y-84858571D01*
X151815658Y-84812078D01*
X151880841Y-84801348D01*
X151893765Y-84802672D01*
X151900185Y-84803000D01*
X151974385Y-84803000D01*
X151989624Y-84798525D01*
X151990829Y-84797135D01*
X151992500Y-84789452D01*
X151992500Y-84784885D01*
X152500500Y-84784885D01*
X152504975Y-84800124D01*
X152506365Y-84801329D01*
X152514048Y-84803000D01*
X152592766Y-84803000D01*
X152599282Y-84802663D01*
X152693132Y-84792925D01*
X152706528Y-84790032D01*
X152857953Y-84739512D01*
X152871115Y-84733347D01*
X153006492Y-84649574D01*
X153017890Y-84640540D01*
X153130363Y-84527871D01*
X153139375Y-84516460D01*
X153222912Y-84380937D01*
X153229056Y-84367759D01*
X153279315Y-84216234D01*
X153282181Y-84202868D01*
X153291672Y-84110230D01*
X153292000Y-84103815D01*
X153292000Y-84092115D01*
X153287525Y-84076876D01*
X153286135Y-84075671D01*
X153278452Y-84074000D01*
X152518615Y-84074000D01*
X152503376Y-84078475D01*
X152502171Y-84079865D01*
X152500500Y-84087548D01*
X152500500Y-84784885D01*
X151992500Y-84784885D01*
X151992500Y-83547885D01*
X152500500Y-83547885D01*
X152504975Y-83563124D01*
X152506365Y-83564329D01*
X152514048Y-83566000D01*
X153273885Y-83566000D01*
X153289124Y-83561525D01*
X153290329Y-83560135D01*
X153292000Y-83552452D01*
X153292000Y-83536234D01*
X153291663Y-83529718D01*
X153281925Y-83435868D01*
X153279032Y-83422472D01*
X153228512Y-83271047D01*
X153222347Y-83257885D01*
X153138574Y-83122508D01*
X153129540Y-83111110D01*
X153016871Y-82998637D01*
X153005460Y-82989625D01*
X152869937Y-82906088D01*
X152856759Y-82899944D01*
X152705234Y-82849685D01*
X152691868Y-82846819D01*
X152599230Y-82837328D01*
X152592815Y-82837000D01*
X152518615Y-82837000D01*
X152503376Y-82841475D01*
X152502171Y-82842865D01*
X152500500Y-82850548D01*
X152500500Y-83547885D01*
X151992500Y-83547885D01*
X151992500Y-82855115D01*
X151988025Y-82839876D01*
X151986635Y-82838671D01*
X151978952Y-82837000D01*
X151900234Y-82837000D01*
X151893730Y-82837337D01*
X151881001Y-82838657D01*
X151811180Y-82825790D01*
X151759399Y-82777218D01*
X151742000Y-82713329D01*
X151742000Y-81590095D01*
X152443001Y-81590095D01*
X152443338Y-81596614D01*
X152453257Y-81692206D01*
X152456149Y-81705600D01*
X152507588Y-81859784D01*
X152513761Y-81872962D01*
X152599063Y-82010807D01*
X152608099Y-82022208D01*
X152722829Y-82136739D01*
X152734240Y-82145751D01*
X152872243Y-82230816D01*
X152885424Y-82236963D01*
X153039710Y-82288138D01*
X153053086Y-82291005D01*
X153147438Y-82300672D01*
X153153854Y-82301000D01*
X153803885Y-82301000D01*
X153819124Y-82296525D01*
X153820329Y-82295135D01*
X153822000Y-82287452D01*
X153822000Y-82282884D01*
X154330000Y-82282884D01*
X154334475Y-82298123D01*
X154335865Y-82299328D01*
X154343548Y-82300999D01*
X154998095Y-82300999D01*
X155004614Y-82300662D01*
X155100206Y-82290743D01*
X155113600Y-82287851D01*
X155267784Y-82236412D01*
X155280962Y-82230239D01*
X155418807Y-82144937D01*
X155430208Y-82135901D01*
X155544739Y-82021171D01*
X155553751Y-82009760D01*
X155638816Y-81871757D01*
X155644963Y-81858576D01*
X155696138Y-81704290D01*
X155699005Y-81690914D01*
X155708672Y-81596562D01*
X155709000Y-81590146D01*
X155709000Y-80790115D01*
X155704525Y-80774876D01*
X155703135Y-80773671D01*
X155695452Y-80772000D01*
X154348115Y-80772000D01*
X154332876Y-80776475D01*
X154331671Y-80777865D01*
X154330000Y-80785548D01*
X154330000Y-82282884D01*
X153822000Y-82282884D01*
X153822000Y-80790115D01*
X153817525Y-80774876D01*
X153816135Y-80773671D01*
X153808452Y-80772000D01*
X152461116Y-80772000D01*
X152445877Y-80776475D01*
X152444672Y-80777865D01*
X152443001Y-80785548D01*
X152443001Y-81590095D01*
X151742000Y-81590095D01*
X151742000Y-80245885D01*
X152443000Y-80245885D01*
X152447475Y-80261124D01*
X152448865Y-80262329D01*
X152456548Y-80264000D01*
X153803885Y-80264000D01*
X153819124Y-80259525D01*
X153820329Y-80258135D01*
X153822000Y-80250452D01*
X153822000Y-80245885D01*
X154330000Y-80245885D01*
X154334475Y-80261124D01*
X154335865Y-80262329D01*
X154343548Y-80264000D01*
X155690884Y-80264000D01*
X155706123Y-80259525D01*
X155707328Y-80258135D01*
X155708999Y-80250452D01*
X155708999Y-79445905D01*
X155708662Y-79439386D01*
X155698743Y-79343794D01*
X155695851Y-79330400D01*
X155644412Y-79176216D01*
X155638239Y-79163038D01*
X155552937Y-79025193D01*
X155543901Y-79013792D01*
X155429171Y-78899261D01*
X155417760Y-78890249D01*
X155279757Y-78805184D01*
X155266576Y-78799037D01*
X155112290Y-78747862D01*
X155098914Y-78744995D01*
X155004562Y-78735328D01*
X154998145Y-78735000D01*
X154348115Y-78735000D01*
X154332876Y-78739475D01*
X154331671Y-78740865D01*
X154330000Y-78748548D01*
X154330000Y-80245885D01*
X153822000Y-80245885D01*
X153822000Y-78753116D01*
X153817525Y-78737877D01*
X153816135Y-78736672D01*
X153808452Y-78735001D01*
X153153905Y-78735001D01*
X153147386Y-78735338D01*
X153051794Y-78745257D01*
X153038400Y-78748149D01*
X152884216Y-78799588D01*
X152871038Y-78805761D01*
X152733193Y-78891063D01*
X152721792Y-78900099D01*
X152607261Y-79014829D01*
X152598249Y-79026240D01*
X152513184Y-79164243D01*
X152507037Y-79177424D01*
X152455862Y-79331710D01*
X152452995Y-79345086D01*
X152443328Y-79439438D01*
X152443000Y-79445855D01*
X152443000Y-80245885D01*
X151742000Y-80245885D01*
X151742000Y-72534000D01*
X151762002Y-72465879D01*
X151815658Y-72419386D01*
X151868000Y-72408000D01*
X155960000Y-72408000D01*
X156028121Y-72428002D01*
X156074614Y-72481658D01*
X156086000Y-72534000D01*
X156086000Y-104166000D01*
X156065998Y-104234121D01*
X156012342Y-104280614D01*
X155960000Y-104292000D01*
X129926000Y-104292000D01*
X129857879Y-104271998D01*
X129811386Y-104218342D01*
X129800000Y-104166000D01*
X129800000Y-102730659D01*
X134589396Y-102730659D01*
X134598692Y-102742674D01*
X134638940Y-102770856D01*
X134648435Y-102776339D01*
X134837853Y-102864666D01*
X134848145Y-102868412D01*
X135050023Y-102922505D01*
X135060818Y-102924408D01*
X135269025Y-102942624D01*
X135279975Y-102942624D01*
X135488182Y-102924408D01*
X135498977Y-102922505D01*
X135700855Y-102868412D01*
X135711147Y-102864666D01*
X135900565Y-102776339D01*
X135910060Y-102770856D01*
X135951146Y-102742087D01*
X135959521Y-102731610D01*
X135952453Y-102718163D01*
X135287312Y-102053022D01*
X135273368Y-102045408D01*
X135271535Y-102045539D01*
X135264920Y-102049790D01*
X134595826Y-102718884D01*
X134589396Y-102730659D01*
X129800000Y-102730659D01*
X129800000Y-101686475D01*
X134012876Y-101686475D01*
X134031092Y-101894682D01*
X134032995Y-101905477D01*
X134087088Y-102107355D01*
X134090834Y-102117647D01*
X134179161Y-102307064D01*
X134184644Y-102316560D01*
X134213413Y-102357646D01*
X134223890Y-102366021D01*
X134237338Y-102358952D01*
X134902478Y-101693812D01*
X134908856Y-101682132D01*
X135638908Y-101682132D01*
X135639039Y-101683965D01*
X135643290Y-101690580D01*
X136312384Y-102359674D01*
X136324159Y-102366104D01*
X136336174Y-102356808D01*
X136364356Y-102316560D01*
X136369839Y-102307064D01*
X136458166Y-102117647D01*
X136461912Y-102107355D01*
X136516005Y-101905477D01*
X136517908Y-101894682D01*
X136536124Y-101686475D01*
X136536124Y-101675525D01*
X136517908Y-101467318D01*
X136516005Y-101456523D01*
X136461912Y-101254645D01*
X136458166Y-101244353D01*
X136369839Y-101054936D01*
X136364356Y-101045440D01*
X136335587Y-101004354D01*
X136325110Y-100995979D01*
X136311662Y-101003048D01*
X135646522Y-101668188D01*
X135638908Y-101682132D01*
X134908856Y-101682132D01*
X134910092Y-101679868D01*
X134909961Y-101678035D01*
X134905710Y-101671420D01*
X134236616Y-101002326D01*
X134224841Y-100995896D01*
X134212826Y-101005192D01*
X134184644Y-101045440D01*
X134179161Y-101054936D01*
X134090834Y-101244353D01*
X134087088Y-101254645D01*
X134032995Y-101456523D01*
X134031092Y-101467318D01*
X134012876Y-101675525D01*
X134012876Y-101686475D01*
X129800000Y-101686475D01*
X129800000Y-100630390D01*
X134589479Y-100630390D01*
X134596548Y-100643838D01*
X135261688Y-101308978D01*
X135275632Y-101316592D01*
X135277465Y-101316461D01*
X135284080Y-101312210D01*
X135953174Y-100643116D01*
X135959604Y-100631341D01*
X135950308Y-100619326D01*
X135910060Y-100591144D01*
X135900565Y-100585661D01*
X135711147Y-100497334D01*
X135700855Y-100493588D01*
X135498977Y-100439495D01*
X135488182Y-100437592D01*
X135279975Y-100419376D01*
X135269025Y-100419376D01*
X135060818Y-100437592D01*
X135050023Y-100439495D01*
X134848145Y-100493588D01*
X134837853Y-100497334D01*
X134648436Y-100585661D01*
X134638940Y-100591144D01*
X134597854Y-100619913D01*
X134589479Y-100630390D01*
X129800000Y-100630390D01*
X129800000Y-100230659D01*
X137089396Y-100230659D01*
X137098692Y-100242674D01*
X137138940Y-100270856D01*
X137148435Y-100276339D01*
X137337853Y-100364666D01*
X137348145Y-100368412D01*
X137550023Y-100422505D01*
X137560818Y-100424408D01*
X137769025Y-100442624D01*
X137779975Y-100442624D01*
X137988182Y-100424408D01*
X137998977Y-100422505D01*
X138200855Y-100368412D01*
X138211147Y-100364666D01*
X138400565Y-100276339D01*
X138410060Y-100270856D01*
X138451146Y-100242087D01*
X138459521Y-100231610D01*
X138452453Y-100218163D01*
X137787312Y-99553022D01*
X137773368Y-99545408D01*
X137771535Y-99545539D01*
X137764920Y-99549790D01*
X137095826Y-100218884D01*
X137089396Y-100230659D01*
X129800000Y-100230659D01*
X129800000Y-99186475D01*
X136512876Y-99186475D01*
X136531092Y-99394682D01*
X136532995Y-99405477D01*
X136587088Y-99607355D01*
X136590834Y-99617647D01*
X136679161Y-99807064D01*
X136684644Y-99816560D01*
X136713413Y-99857646D01*
X136723890Y-99866021D01*
X136737338Y-99858952D01*
X137402478Y-99193812D01*
X137408856Y-99182132D01*
X138138908Y-99182132D01*
X138139039Y-99183965D01*
X138143290Y-99190580D01*
X138812384Y-99859674D01*
X138824159Y-99866104D01*
X138836174Y-99856808D01*
X138864356Y-99816560D01*
X138869839Y-99807064D01*
X138958166Y-99617647D01*
X138961912Y-99607355D01*
X139016005Y-99405477D01*
X139017908Y-99394682D01*
X139036124Y-99186475D01*
X139036124Y-99175525D01*
X139017908Y-98967318D01*
X139016005Y-98956523D01*
X138961912Y-98754645D01*
X138958166Y-98744353D01*
X138869839Y-98554936D01*
X138864356Y-98545440D01*
X138835587Y-98504354D01*
X138825110Y-98495979D01*
X138811662Y-98503048D01*
X138146522Y-99168188D01*
X138138908Y-99182132D01*
X137408856Y-99182132D01*
X137410092Y-99179868D01*
X137409961Y-99178035D01*
X137405710Y-99171420D01*
X136736616Y-98502326D01*
X136724841Y-98495896D01*
X136712826Y-98505192D01*
X136684644Y-98545440D01*
X136679161Y-98554936D01*
X136590834Y-98744353D01*
X136587088Y-98754645D01*
X136532995Y-98956523D01*
X136531092Y-98967318D01*
X136512876Y-99175525D01*
X136512876Y-99186475D01*
X129800000Y-99186475D01*
X129800000Y-85894669D01*
X130142001Y-85894669D01*
X130142371Y-85901490D01*
X130147895Y-85952352D01*
X130151521Y-85967604D01*
X130196676Y-86088054D01*
X130205214Y-86103649D01*
X130281715Y-86205724D01*
X130294276Y-86218285D01*
X130396351Y-86294786D01*
X130411946Y-86303324D01*
X130532394Y-86348478D01*
X130547649Y-86352105D01*
X130598514Y-86357631D01*
X130605328Y-86358000D01*
X132127885Y-86358000D01*
X132143124Y-86353525D01*
X132144329Y-86352135D01*
X132146000Y-86344452D01*
X132146000Y-86339884D01*
X132654000Y-86339884D01*
X132658475Y-86355123D01*
X132659865Y-86356328D01*
X132667548Y-86357999D01*
X134194669Y-86357999D01*
X134201490Y-86357629D01*
X134252352Y-86352105D01*
X134267604Y-86348479D01*
X134388054Y-86303324D01*
X134403649Y-86294786D01*
X134505724Y-86218285D01*
X134518285Y-86205724D01*
X134594786Y-86103649D01*
X134603324Y-86088054D01*
X134648478Y-85967606D01*
X134652105Y-85952351D01*
X134657631Y-85901486D01*
X134658000Y-85894672D01*
X134658000Y-84772115D01*
X134653525Y-84756876D01*
X134652135Y-84755671D01*
X134644452Y-84754000D01*
X132672115Y-84754000D01*
X132656876Y-84758475D01*
X132655671Y-84759865D01*
X132654000Y-84767548D01*
X132654000Y-86339884D01*
X132146000Y-86339884D01*
X132146000Y-84772115D01*
X132141525Y-84756876D01*
X132140135Y-84755671D01*
X132132452Y-84754000D01*
X130160116Y-84754000D01*
X130144877Y-84758475D01*
X130143672Y-84759865D01*
X130142001Y-84767548D01*
X130142001Y-85894669D01*
X129800000Y-85894669D01*
X129800000Y-84227885D01*
X130142000Y-84227885D01*
X130146475Y-84243124D01*
X130147865Y-84244329D01*
X130155548Y-84246000D01*
X132127885Y-84246000D01*
X132143124Y-84241525D01*
X132144329Y-84240135D01*
X132146000Y-84232452D01*
X132146000Y-84227885D01*
X132654000Y-84227885D01*
X132658475Y-84243124D01*
X132659865Y-84244329D01*
X132667548Y-84246000D01*
X134639884Y-84246000D01*
X134655123Y-84241525D01*
X134656328Y-84240135D01*
X134657999Y-84232452D01*
X134657999Y-83105331D01*
X134657629Y-83098510D01*
X134652105Y-83047648D01*
X134648479Y-83032396D01*
X134603324Y-82911946D01*
X134594786Y-82896351D01*
X134518285Y-82794276D01*
X134505724Y-82781715D01*
X134403649Y-82705214D01*
X134388054Y-82696676D01*
X134267606Y-82651522D01*
X134252351Y-82647895D01*
X134201486Y-82642369D01*
X134194672Y-82642000D01*
X132672115Y-82642000D01*
X132656876Y-82646475D01*
X132655671Y-82647865D01*
X132654000Y-82655548D01*
X132654000Y-84227885D01*
X132146000Y-84227885D01*
X132146000Y-82660116D01*
X132141525Y-82644877D01*
X132140135Y-82643672D01*
X132132452Y-82642001D01*
X130605331Y-82642001D01*
X130598510Y-82642371D01*
X130547648Y-82647895D01*
X130532396Y-82651521D01*
X130411946Y-82696676D01*
X130396351Y-82705214D01*
X130294276Y-82781715D01*
X130281715Y-82794276D01*
X130205214Y-82896351D01*
X130196676Y-82911946D01*
X130151522Y-83032394D01*
X130147895Y-83047649D01*
X130142369Y-83098514D01*
X130142000Y-83105328D01*
X130142000Y-84227885D01*
X129800000Y-84227885D01*
X129800000Y-72534000D01*
X129820002Y-72465879D01*
X129873658Y-72419386D01*
X129926000Y-72408000D01*
X140590000Y-72408000D01*
X140658121Y-72428002D01*
G37*
G04 #@! TD.AperFunction*
G04 #@! TA.AperFunction,Conductor*
G36*
X136764024Y-89430137D02*
G01*
X136809110Y-89459056D01*
X136811616Y-89461557D01*
X136816997Y-89466929D01*
X136823227Y-89470769D01*
X136823228Y-89470770D01*
X136937404Y-89541149D01*
X136965080Y-89558209D01*
X137130191Y-89612974D01*
X137137027Y-89613674D01*
X137137030Y-89613675D01*
X137188526Y-89618951D01*
X137232928Y-89623500D01*
X137327917Y-89623500D01*
X137359833Y-89628441D01*
X137359907Y-89628091D01*
X137365934Y-89629372D01*
X137371806Y-89631235D01*
X137377923Y-89631921D01*
X137377927Y-89631922D01*
X137450758Y-89640091D01*
X137525727Y-89648500D01*
X137757185Y-89648500D01*
X137825306Y-89668502D01*
X137871799Y-89722158D01*
X137881903Y-89792432D01*
X137858011Y-89850065D01*
X137793535Y-89936095D01*
X137742405Y-90072484D01*
X137735650Y-90134666D01*
X137735650Y-90170501D01*
X137715648Y-90238622D01*
X137661992Y-90285115D01*
X137609650Y-90296501D01*
X136839865Y-90296501D01*
X136824626Y-90300976D01*
X136823421Y-90302366D01*
X136821750Y-90310049D01*
X136821750Y-94394383D01*
X136826225Y-94409622D01*
X136827615Y-94410827D01*
X136835298Y-94412498D01*
X137609650Y-94412498D01*
X137677771Y-94432500D01*
X137724264Y-94486156D01*
X137735650Y-94538498D01*
X137735650Y-94574334D01*
X137742405Y-94636516D01*
X137793535Y-94772905D01*
X137880889Y-94889461D01*
X137997445Y-94976815D01*
X138133834Y-95027945D01*
X138196016Y-95034700D01*
X140070284Y-95034700D01*
X140132466Y-95027945D01*
X140268855Y-94976815D01*
X140385411Y-94889461D01*
X140472765Y-94772905D01*
X140523895Y-94636516D01*
X140530650Y-94574334D01*
X140530650Y-93944666D01*
X140528633Y-93926095D01*
X141107001Y-93926095D01*
X141107338Y-93932614D01*
X141117257Y-94028206D01*
X141120149Y-94041600D01*
X141171588Y-94195784D01*
X141177761Y-94208962D01*
X141263063Y-94346807D01*
X141272099Y-94358208D01*
X141386829Y-94472739D01*
X141398240Y-94481751D01*
X141536243Y-94566816D01*
X141549424Y-94572963D01*
X141703710Y-94624138D01*
X141717086Y-94627005D01*
X141811438Y-94636672D01*
X141817854Y-94637000D01*
X142067885Y-94637000D01*
X142083124Y-94632525D01*
X142084329Y-94631135D01*
X142086000Y-94623452D01*
X142086000Y-94618884D01*
X142594000Y-94618884D01*
X142598475Y-94634123D01*
X142599865Y-94635328D01*
X142607548Y-94636999D01*
X142862095Y-94636999D01*
X142868614Y-94636662D01*
X142964206Y-94626743D01*
X142977600Y-94623851D01*
X143131784Y-94572412D01*
X143144962Y-94566239D01*
X143282807Y-94480937D01*
X143294208Y-94471901D01*
X143370784Y-94395192D01*
X143433067Y-94361113D01*
X143503887Y-94366116D01*
X143548975Y-94395037D01*
X143636829Y-94482739D01*
X143648240Y-94491751D01*
X143786243Y-94576816D01*
X143799424Y-94582963D01*
X143953710Y-94634138D01*
X143967086Y-94637005D01*
X144061438Y-94646672D01*
X144067854Y-94647000D01*
X144317885Y-94647000D01*
X144333124Y-94642525D01*
X144334329Y-94641135D01*
X144336000Y-94633452D01*
X144336000Y-93823615D01*
X144331525Y-93808376D01*
X144330135Y-93807171D01*
X144322452Y-93805500D01*
X143362970Y-93805500D01*
X143336187Y-93802621D01*
X143303452Y-93795500D01*
X142612115Y-93795500D01*
X142596876Y-93799975D01*
X142595671Y-93801365D01*
X142594000Y-93809048D01*
X142594000Y-94618884D01*
X142086000Y-94618884D01*
X142086000Y-93813615D01*
X142081525Y-93798376D01*
X142080135Y-93797171D01*
X142072452Y-93795500D01*
X141125116Y-93795500D01*
X141109877Y-93799975D01*
X141108672Y-93801365D01*
X141107001Y-93809048D01*
X141107001Y-93926095D01*
X140528633Y-93926095D01*
X140523895Y-93882484D01*
X140472765Y-93746095D01*
X140437955Y-93699648D01*
X140413107Y-93633141D01*
X140428160Y-93563759D01*
X140437955Y-93548518D01*
X140466936Y-93509849D01*
X140475474Y-93494254D01*
X140520628Y-93373806D01*
X140524255Y-93358551D01*
X140529781Y-93307686D01*
X140530150Y-93300872D01*
X140530150Y-93261615D01*
X140525675Y-93246376D01*
X140524285Y-93245171D01*
X140516602Y-93243500D01*
X139005150Y-93243500D01*
X138937029Y-93223498D01*
X138890536Y-93169842D01*
X138879150Y-93117500D01*
X138879150Y-92861500D01*
X138899152Y-92793379D01*
X138952808Y-92746886D01*
X139005150Y-92735500D01*
X140512034Y-92735500D01*
X140527273Y-92731025D01*
X140528478Y-92729635D01*
X140533028Y-92708717D01*
X140535920Y-92709346D01*
X140550151Y-92660879D01*
X140603807Y-92614386D01*
X140656149Y-92603000D01*
X140812362Y-92603000D01*
X140838558Y-92605753D01*
X140864735Y-92611317D01*
X140866902Y-92611622D01*
X140866905Y-92611622D01*
X140932778Y-92620878D01*
X140932783Y-92620879D01*
X140934950Y-92621183D01*
X140949338Y-92622188D01*
X140967752Y-92623475D01*
X140967762Y-92623475D01*
X140969947Y-92623628D01*
X140972152Y-92623628D01*
X140987488Y-92623627D01*
X141040826Y-92623623D01*
X141047377Y-92622208D01*
X141047380Y-92622208D01*
X141088040Y-92613427D01*
X141158848Y-92618599D01*
X141215619Y-92661232D01*
X141240329Y-92727789D01*
X141221897Y-92802704D01*
X141177184Y-92875243D01*
X141171037Y-92888424D01*
X141119862Y-93042710D01*
X141116995Y-93056086D01*
X141107328Y-93150438D01*
X141107000Y-93156855D01*
X141107000Y-93269385D01*
X141111475Y-93284624D01*
X141112865Y-93285829D01*
X141120548Y-93287500D01*
X143567030Y-93287500D01*
X143593813Y-93290379D01*
X143626548Y-93297500D01*
X144718000Y-93297500D01*
X144786121Y-93317502D01*
X144832614Y-93371158D01*
X144844000Y-93423500D01*
X144844000Y-94628884D01*
X144848475Y-94644123D01*
X144849865Y-94645328D01*
X144857548Y-94646999D01*
X145112095Y-94646999D01*
X145118614Y-94646662D01*
X145214206Y-94636743D01*
X145227600Y-94633851D01*
X145381784Y-94582412D01*
X145394962Y-94576239D01*
X145532807Y-94490937D01*
X145544208Y-94481901D01*
X145658739Y-94367171D01*
X145667751Y-94355760D01*
X145752816Y-94217757D01*
X145758964Y-94204574D01*
X145786593Y-94121275D01*
X145827024Y-94062915D01*
X145892588Y-94035678D01*
X145962469Y-94048211D01*
X145984279Y-94062061D01*
X145993539Y-94069374D01*
X146129063Y-94152912D01*
X146142241Y-94159056D01*
X146293766Y-94209315D01*
X146307132Y-94212181D01*
X146399770Y-94221672D01*
X146406185Y-94222000D01*
X146417885Y-94222000D01*
X146433124Y-94217525D01*
X146434329Y-94216135D01*
X146436000Y-94208452D01*
X146436000Y-94203885D01*
X146944000Y-94203885D01*
X146948475Y-94219124D01*
X146949865Y-94220329D01*
X146957548Y-94222000D01*
X146973766Y-94222000D01*
X146980282Y-94221663D01*
X147074132Y-94211925D01*
X147087528Y-94209032D01*
X147238953Y-94158512D01*
X147252115Y-94152347D01*
X147387492Y-94068574D01*
X147398890Y-94059540D01*
X147511363Y-93946871D01*
X147520375Y-93935460D01*
X147603912Y-93799937D01*
X147610056Y-93786759D01*
X147660315Y-93635234D01*
X147663181Y-93621868D01*
X147672672Y-93529230D01*
X147673000Y-93522815D01*
X147673000Y-93448615D01*
X147668525Y-93433376D01*
X147667135Y-93432171D01*
X147659452Y-93430500D01*
X146962115Y-93430500D01*
X146946876Y-93434975D01*
X146945671Y-93436365D01*
X146944000Y-93444048D01*
X146944000Y-94203885D01*
X146436000Y-94203885D01*
X146436000Y-93048500D01*
X146456002Y-92980379D01*
X146509658Y-92933886D01*
X146562000Y-92922500D01*
X147654885Y-92922500D01*
X147670124Y-92918025D01*
X147671329Y-92916635D01*
X147673000Y-92908952D01*
X147673000Y-92830234D01*
X147672663Y-92823718D01*
X147662925Y-92729868D01*
X147660032Y-92716472D01*
X147609512Y-92565047D01*
X147603347Y-92551885D01*
X147519574Y-92416508D01*
X147510536Y-92405106D01*
X147508861Y-92403433D01*
X147508081Y-92402007D01*
X147505993Y-92399373D01*
X147506444Y-92399016D01*
X147474781Y-92341151D01*
X147479784Y-92270331D01*
X147508701Y-92225246D01*
X147511756Y-92222185D01*
X147516929Y-92217003D01*
X147608209Y-92068920D01*
X147662974Y-91903809D01*
X147673500Y-91801072D01*
X147673500Y-91703985D01*
X147679133Y-91666733D01*
X147682682Y-91655268D01*
X147703355Y-91458575D01*
X147688180Y-91291831D01*
X147701925Y-91222179D01*
X147751146Y-91171014D01*
X147778162Y-91159516D01*
X147828725Y-91144669D01*
X147837372Y-91142130D01*
X147895379Y-91104851D01*
X147963500Y-91084849D01*
X148031621Y-91104851D01*
X148078114Y-91158506D01*
X148089500Y-91210849D01*
X148089500Y-93772689D01*
X148069498Y-93840810D01*
X148052595Y-93861784D01*
X146259785Y-95654595D01*
X146197473Y-95688620D01*
X146170690Y-95691500D01*
X143694100Y-95691500D01*
X143627984Y-95672760D01*
X143528968Y-95611725D01*
X143528966Y-95611724D01*
X143522738Y-95607885D01*
X143362254Y-95554655D01*
X143361389Y-95554368D01*
X143361387Y-95554368D01*
X143354861Y-95552203D01*
X143348025Y-95551503D01*
X143348022Y-95551502D01*
X143304969Y-95547091D01*
X143250400Y-95541500D01*
X142449600Y-95541500D01*
X142446354Y-95541837D01*
X142446350Y-95541837D01*
X142350692Y-95551762D01*
X142350688Y-95551763D01*
X142343834Y-95552474D01*
X142337298Y-95554655D01*
X142337296Y-95554655D01*
X142238693Y-95587552D01*
X142176054Y-95608450D01*
X142025652Y-95701522D01*
X141943408Y-95783910D01*
X141939216Y-95788109D01*
X141876934Y-95822188D01*
X141806114Y-95817185D01*
X141761025Y-95788264D01*
X141678483Y-95705866D01*
X141673303Y-95700695D01*
X141667072Y-95696854D01*
X141528968Y-95611725D01*
X141528966Y-95611724D01*
X141522738Y-95607885D01*
X141362254Y-95554655D01*
X141361389Y-95554368D01*
X141361387Y-95554368D01*
X141354861Y-95552203D01*
X141348025Y-95551503D01*
X141348022Y-95551502D01*
X141304969Y-95547091D01*
X141250400Y-95541500D01*
X140449600Y-95541500D01*
X140446354Y-95541837D01*
X140446350Y-95541837D01*
X140350692Y-95551762D01*
X140350688Y-95551763D01*
X140343834Y-95552474D01*
X140337298Y-95554655D01*
X140337296Y-95554655D01*
X140238693Y-95587552D01*
X140176054Y-95608450D01*
X140169826Y-95612304D01*
X140169824Y-95612305D01*
X140103022Y-95653644D01*
X140036719Y-95672500D01*
X136066849Y-95672500D01*
X135994579Y-95649713D01*
X135967603Y-95630825D01*
X135905803Y-95587552D01*
X135900825Y-95585231D01*
X135900822Y-95585229D01*
X135711318Y-95496862D01*
X135711317Y-95496861D01*
X135706336Y-95494539D01*
X135701028Y-95493117D01*
X135701026Y-95493116D01*
X135499061Y-95439000D01*
X135499057Y-95438999D01*
X135493749Y-95437577D01*
X135489029Y-95437164D01*
X135422009Y-95402275D01*
X135159933Y-95140199D01*
X135125907Y-95077887D01*
X135130972Y-95007072D01*
X135173463Y-94950278D01*
X135247431Y-94894842D01*
X135254611Y-94889461D01*
X135341965Y-94772905D01*
X135393095Y-94636516D01*
X135399850Y-94574334D01*
X135399850Y-94538498D01*
X135419852Y-94470378D01*
X135473508Y-94423885D01*
X135525850Y-94412499D01*
X136295635Y-94412499D01*
X136310874Y-94408024D01*
X136312079Y-94406634D01*
X136313750Y-94398951D01*
X136313750Y-90314617D01*
X136309275Y-90299378D01*
X136307885Y-90298173D01*
X136300202Y-90296502D01*
X135525850Y-90296502D01*
X135457729Y-90276500D01*
X135411236Y-90222844D01*
X135399850Y-90170502D01*
X135399850Y-90134666D01*
X135393095Y-90072484D01*
X135341965Y-89936095D01*
X135321017Y-89908144D01*
X135296170Y-89841638D01*
X135311223Y-89772255D01*
X135332749Y-89743485D01*
X135390829Y-89685405D01*
X135453141Y-89651379D01*
X135479924Y-89648500D01*
X135907269Y-89648500D01*
X135910325Y-89648200D01*
X135910332Y-89648200D01*
X135968840Y-89642463D01*
X136054333Y-89634080D01*
X136060232Y-89632299D01*
X136060237Y-89632298D01*
X136071563Y-89628878D01*
X136107981Y-89623500D01*
X136207072Y-89623500D01*
X136210318Y-89623163D01*
X136210322Y-89623163D01*
X136304235Y-89613419D01*
X136304239Y-89613418D01*
X136311093Y-89612707D01*
X136317629Y-89610526D01*
X136317631Y-89610526D01*
X136450395Y-89566232D01*
X136476107Y-89557654D01*
X136556074Y-89508169D01*
X136617805Y-89469969D01*
X136617806Y-89469968D01*
X136624031Y-89466116D01*
X136630923Y-89459212D01*
X136632387Y-89458411D01*
X136634938Y-89456389D01*
X136635284Y-89456826D01*
X136693204Y-89425134D01*
X136764024Y-89430137D01*
G37*
G04 #@! TD.AperFunction*
G04 #@! TA.AperFunction,Conductor*
G36*
X141409564Y-80441599D02*
G01*
X141468295Y-80485615D01*
X141604684Y-80536745D01*
X141666866Y-80543500D01*
X141966000Y-80543500D01*
X142034121Y-80563502D01*
X142080614Y-80617158D01*
X142092000Y-80669500D01*
X142092000Y-81160270D01*
X142093661Y-81201320D01*
X142095307Y-81221623D01*
X142100285Y-81262436D01*
X142143657Y-81400369D01*
X142174375Y-81464376D01*
X142199333Y-81501631D01*
X142252334Y-81580749D01*
X142252338Y-81580754D01*
X142254846Y-81584498D01*
X142316941Y-81653461D01*
X142332418Y-81674765D01*
X142361270Y-81724740D01*
X142371983Y-81748801D01*
X142389813Y-81803675D01*
X142395290Y-81829441D01*
X142399738Y-81871757D01*
X142401322Y-81886832D01*
X142401322Y-81913172D01*
X142395956Y-81964233D01*
X142395952Y-81964256D01*
X142395289Y-81970562D01*
X142389814Y-81996322D01*
X142385107Y-82010807D01*
X142371983Y-82051199D01*
X142361269Y-82075262D01*
X142332416Y-82125237D01*
X142316933Y-82146547D01*
X142254846Y-82215502D01*
X142228616Y-82247116D01*
X142216254Y-82263305D01*
X142215501Y-82264378D01*
X142215497Y-82264384D01*
X142195967Y-82292227D01*
X142195964Y-82292232D01*
X142192645Y-82296964D01*
X142132579Y-82428490D01*
X142112577Y-82496611D01*
X142111937Y-82501059D01*
X142111936Y-82501066D01*
X142092639Y-82635282D01*
X142092638Y-82635289D01*
X142092000Y-82639730D01*
X142092000Y-83660270D01*
X142093661Y-83701320D01*
X142095307Y-83721623D01*
X142100285Y-83762436D01*
X142143657Y-83900369D01*
X142174375Y-83964376D01*
X142176878Y-83968112D01*
X142252334Y-84080749D01*
X142252338Y-84080754D01*
X142254846Y-84084498D01*
X142316941Y-84153461D01*
X142332418Y-84174765D01*
X142361270Y-84224740D01*
X142371983Y-84248802D01*
X142389813Y-84303677D01*
X142395290Y-84329442D01*
X142401298Y-84386596D01*
X142401322Y-84386829D01*
X142401322Y-84413168D01*
X142396818Y-84456025D01*
X142395290Y-84470558D01*
X142389813Y-84496323D01*
X142371983Y-84551198D01*
X142361269Y-84575262D01*
X142332416Y-84625237D01*
X142316933Y-84646547D01*
X142275136Y-84692967D01*
X142254846Y-84715502D01*
X142228616Y-84747116D01*
X142216254Y-84763305D01*
X142215501Y-84764378D01*
X142215497Y-84764384D01*
X142195967Y-84792227D01*
X142195964Y-84792232D01*
X142192645Y-84796964D01*
X142190244Y-84802220D01*
X142190243Y-84802223D01*
X142185438Y-84812745D01*
X142132579Y-84928490D01*
X142112577Y-84996611D01*
X142111937Y-85001059D01*
X142111936Y-85001066D01*
X142092639Y-85135282D01*
X142092638Y-85135289D01*
X142092000Y-85139730D01*
X142092000Y-86371331D01*
X142093663Y-86412398D01*
X142095310Y-86432705D01*
X142100288Y-86473508D01*
X142143662Y-86611441D01*
X142172950Y-86672466D01*
X142173020Y-86672432D01*
X142173740Y-86673694D01*
X142173577Y-86673772D01*
X142174425Y-86675538D01*
X142192099Y-86701917D01*
X142199341Y-86716916D01*
X142199099Y-86717056D01*
X142200987Y-86720326D01*
X142261269Y-86824738D01*
X142271983Y-86848802D01*
X142289813Y-86903677D01*
X142295290Y-86929442D01*
X142298964Y-86964391D01*
X142301322Y-86986829D01*
X142301322Y-87013171D01*
X142295290Y-87070558D01*
X142289813Y-87096323D01*
X142271983Y-87151198D01*
X142261270Y-87175261D01*
X142239646Y-87212716D01*
X142222252Y-87242843D01*
X142216165Y-87252188D01*
X142216250Y-87252248D01*
X142192645Y-87285903D01*
X142190246Y-87291157D01*
X142190245Y-87291158D01*
X142186552Y-87299245D01*
X142132579Y-87417429D01*
X142131311Y-87421748D01*
X142114192Y-87480051D01*
X142112577Y-87485550D01*
X142111937Y-87489998D01*
X142111936Y-87490005D01*
X142092639Y-87624221D01*
X142092638Y-87624228D01*
X142092000Y-87628669D01*
X142092000Y-87866000D01*
X142071998Y-87934121D01*
X142018342Y-87980614D01*
X141966000Y-87992000D01*
X140926000Y-87992000D01*
X140818020Y-88003609D01*
X140814736Y-88004323D01*
X140814732Y-88004324D01*
X140789661Y-88009778D01*
X140765678Y-88014995D01*
X140662628Y-88049293D01*
X140540990Y-88127465D01*
X140487334Y-88173958D01*
X140392645Y-88283234D01*
X140332579Y-88414760D01*
X140312577Y-88482881D01*
X140311937Y-88487329D01*
X140311936Y-88487336D01*
X140292639Y-88621552D01*
X140292638Y-88621559D01*
X140292000Y-88626000D01*
X140292000Y-88979019D01*
X140271998Y-89047140D01*
X140218342Y-89093633D01*
X140148068Y-89103737D01*
X140083488Y-89074243D01*
X140054748Y-89038171D01*
X140026419Y-88984890D01*
X140025807Y-88983724D01*
X139985879Y-88906697D01*
X139983042Y-88901224D01*
X139979719Y-88897061D01*
X139977216Y-88892354D01*
X139918395Y-88820232D01*
X139917704Y-88819376D01*
X139886412Y-88780177D01*
X139883908Y-88777673D01*
X139883266Y-88776955D01*
X139879565Y-88772622D01*
X139852215Y-88739088D01*
X139816880Y-88709856D01*
X139808114Y-88701879D01*
X139422925Y-88316691D01*
X139405330Y-88299096D01*
X139371305Y-88236783D01*
X139376369Y-88165968D01*
X139405330Y-88120905D01*
X139869384Y-87656851D01*
X139879527Y-87647749D01*
X139904218Y-87627897D01*
X139909025Y-87624032D01*
X139941292Y-87585578D01*
X139944472Y-87581931D01*
X139946115Y-87580119D01*
X139948309Y-87577925D01*
X139975642Y-87544651D01*
X139976348Y-87543800D01*
X140025226Y-87485550D01*
X140036154Y-87472526D01*
X140038722Y-87467856D01*
X140042103Y-87463739D01*
X140073140Y-87405855D01*
X140085977Y-87381914D01*
X140086606Y-87380755D01*
X140128462Y-87304619D01*
X140128465Y-87304611D01*
X140131433Y-87299213D01*
X140133045Y-87294131D01*
X140135562Y-87289437D01*
X140162762Y-87200469D01*
X140163108Y-87199358D01*
X140170753Y-87175261D01*
X140191235Y-87110694D01*
X140191829Y-87105398D01*
X140193387Y-87100302D01*
X140202790Y-87007743D01*
X140202911Y-87006607D01*
X140208500Y-86956773D01*
X140208500Y-86953246D01*
X140208555Y-86952261D01*
X140209002Y-86946581D01*
X140213374Y-86903538D01*
X140209059Y-86857891D01*
X140208500Y-86846033D01*
X140208500Y-86484500D01*
X140228502Y-86416379D01*
X140282158Y-86369886D01*
X140334500Y-86358500D01*
X140998134Y-86358500D01*
X141060316Y-86351745D01*
X141196705Y-86300615D01*
X141313261Y-86213261D01*
X141400615Y-86096705D01*
X141451745Y-85960316D01*
X141458500Y-85898134D01*
X141458500Y-83101866D01*
X141451745Y-83039684D01*
X141400615Y-82903295D01*
X141313261Y-82786739D01*
X141242885Y-82733995D01*
X141200370Y-82677136D01*
X141193732Y-82615238D01*
X141207361Y-82520448D01*
X141207362Y-82520441D01*
X141208000Y-82516000D01*
X141208000Y-80542425D01*
X141228002Y-80474304D01*
X141281658Y-80427811D01*
X141351932Y-80417707D01*
X141409564Y-80441599D01*
G37*
G04 #@! TD.AperFunction*
G04 #@! TA.AperFunction,Conductor*
G36*
X145242121Y-78020002D02*
G01*
X145288614Y-78073658D01*
X145300000Y-78126000D01*
X145300000Y-87000000D01*
X147574000Y-87000000D01*
X147642121Y-87020002D01*
X147688614Y-87073658D01*
X147700000Y-87126000D01*
X147700000Y-90565423D01*
X147679998Y-90633544D01*
X147626342Y-90680037D01*
X147556068Y-90690141D01*
X147491488Y-90660647D01*
X147484982Y-90654596D01*
X147397871Y-90567637D01*
X147386460Y-90558625D01*
X147250937Y-90475088D01*
X147237759Y-90468944D01*
X147086234Y-90418685D01*
X147072868Y-90415819D01*
X146980230Y-90406328D01*
X146973815Y-90406000D01*
X146962115Y-90406000D01*
X146946876Y-90410475D01*
X146945671Y-90411865D01*
X146944000Y-90419548D01*
X146944000Y-91579500D01*
X146923998Y-91647621D01*
X146870342Y-91694114D01*
X146818000Y-91705500D01*
X145881115Y-91705500D01*
X145836720Y-91718535D01*
X145826043Y-91725397D01*
X145790548Y-91730500D01*
X143362970Y-91730500D01*
X143336187Y-91727621D01*
X143303452Y-91720500D01*
X141125116Y-91720500D01*
X141109877Y-91724975D01*
X141108672Y-91726365D01*
X141107001Y-91734048D01*
X141107001Y-91851095D01*
X141107338Y-91857614D01*
X141117256Y-91953201D01*
X141119712Y-91964573D01*
X141114540Y-92035381D01*
X141071908Y-92092153D01*
X141005351Y-92116863D01*
X140970354Y-92114418D01*
X140899803Y-92099422D01*
X140837330Y-92065694D01*
X140803008Y-92003544D01*
X140800000Y-91976175D01*
X140800000Y-91194385D01*
X141107000Y-91194385D01*
X141111475Y-91209624D01*
X141112865Y-91210829D01*
X141120548Y-91212500D01*
X142067885Y-91212500D01*
X142083124Y-91208025D01*
X142084329Y-91206635D01*
X142086000Y-91198952D01*
X142086000Y-91194385D01*
X142594000Y-91194385D01*
X142598475Y-91209624D01*
X142599865Y-91210829D01*
X142607548Y-91212500D01*
X143567030Y-91212500D01*
X143593813Y-91215379D01*
X143626548Y-91222500D01*
X144317885Y-91222500D01*
X144333124Y-91218025D01*
X144334329Y-91216635D01*
X144336000Y-91208952D01*
X144336000Y-91204385D01*
X144844000Y-91204385D01*
X144848475Y-91219624D01*
X144849865Y-91220829D01*
X144857548Y-91222500D01*
X145648885Y-91222500D01*
X145693280Y-91209465D01*
X145703957Y-91202603D01*
X145739452Y-91197500D01*
X146417885Y-91197500D01*
X146433124Y-91193025D01*
X146434329Y-91191635D01*
X146436000Y-91183952D01*
X146436000Y-90424115D01*
X146431525Y-90408876D01*
X146430135Y-90407671D01*
X146422452Y-90406000D01*
X146406234Y-90406000D01*
X146399718Y-90406337D01*
X146305868Y-90416075D01*
X146292472Y-90418968D01*
X146141047Y-90469488D01*
X146127885Y-90475653D01*
X145992508Y-90559426D01*
X145981110Y-90568460D01*
X145863466Y-90686309D01*
X145861996Y-90684842D01*
X145812512Y-90719932D01*
X145741590Y-90723169D01*
X145680175Y-90687549D01*
X145671791Y-90676678D01*
X145671480Y-90676925D01*
X145657901Y-90659792D01*
X145543171Y-90545261D01*
X145531760Y-90536249D01*
X145393757Y-90451184D01*
X145380576Y-90445037D01*
X145226290Y-90393862D01*
X145212914Y-90390995D01*
X145118562Y-90381328D01*
X145112145Y-90381000D01*
X144862115Y-90381000D01*
X144846876Y-90385475D01*
X144845671Y-90386865D01*
X144844000Y-90394548D01*
X144844000Y-91204385D01*
X144336000Y-91204385D01*
X144336000Y-90399116D01*
X144331525Y-90383877D01*
X144330135Y-90382672D01*
X144322452Y-90381001D01*
X144067905Y-90381001D01*
X144061386Y-90381338D01*
X143965794Y-90391257D01*
X143952400Y-90394149D01*
X143798216Y-90445588D01*
X143785038Y-90451761D01*
X143647193Y-90537063D01*
X143635792Y-90546099D01*
X143559216Y-90622808D01*
X143496933Y-90656887D01*
X143426113Y-90651884D01*
X143381025Y-90622963D01*
X143293171Y-90535261D01*
X143281760Y-90526249D01*
X143143757Y-90441184D01*
X143130576Y-90435037D01*
X142976290Y-90383862D01*
X142962914Y-90380995D01*
X142868562Y-90371328D01*
X142862145Y-90371000D01*
X142612115Y-90371000D01*
X142596876Y-90375475D01*
X142595671Y-90376865D01*
X142594000Y-90384548D01*
X142594000Y-91194385D01*
X142086000Y-91194385D01*
X142086000Y-90389116D01*
X142081525Y-90373877D01*
X142080135Y-90372672D01*
X142072452Y-90371001D01*
X141817905Y-90371001D01*
X141811386Y-90371338D01*
X141715794Y-90381257D01*
X141702400Y-90384149D01*
X141548216Y-90435588D01*
X141535038Y-90441761D01*
X141397193Y-90527063D01*
X141385792Y-90536099D01*
X141271261Y-90650829D01*
X141262249Y-90662240D01*
X141177184Y-90800243D01*
X141171037Y-90813424D01*
X141119862Y-90967710D01*
X141116995Y-90981086D01*
X141107328Y-91075438D01*
X141107000Y-91081855D01*
X141107000Y-91194385D01*
X140800000Y-91194385D01*
X140800000Y-88626000D01*
X140820002Y-88557879D01*
X140873658Y-88511386D01*
X140926000Y-88500000D01*
X142600000Y-88500000D01*
X142600000Y-87628669D01*
X142620002Y-87560548D01*
X142632366Y-87544356D01*
X142634621Y-87541852D01*
X142634622Y-87541851D01*
X142639040Y-87536944D01*
X142734527Y-87371556D01*
X142793542Y-87189928D01*
X142813504Y-87000000D01*
X142793542Y-86810072D01*
X142734527Y-86628444D01*
X142639040Y-86463056D01*
X142632366Y-86455643D01*
X142631518Y-86453877D01*
X142630739Y-86452805D01*
X142630935Y-86452663D01*
X142601647Y-86391638D01*
X142600000Y-86371331D01*
X142600000Y-85139730D01*
X142620002Y-85071609D01*
X142632364Y-85055420D01*
X142734621Y-84941852D01*
X142734622Y-84941851D01*
X142739040Y-84936944D01*
X142834527Y-84771556D01*
X142893542Y-84589928D01*
X142913504Y-84400000D01*
X142893542Y-84210072D01*
X142834527Y-84028444D01*
X142739040Y-83863056D01*
X142632364Y-83744580D01*
X142601646Y-83680573D01*
X142600000Y-83660270D01*
X142600000Y-82639730D01*
X142620002Y-82571609D01*
X142632364Y-82555420D01*
X142734621Y-82441852D01*
X142734622Y-82441851D01*
X142739040Y-82436944D01*
X142834527Y-82271556D01*
X142893542Y-82089928D01*
X142901171Y-82017348D01*
X142912814Y-81906565D01*
X142913504Y-81900000D01*
X142893542Y-81710072D01*
X142834527Y-81528444D01*
X142739040Y-81363056D01*
X142632364Y-81244580D01*
X142601646Y-81180573D01*
X142600000Y-81160270D01*
X142600000Y-80668999D01*
X142620002Y-80600878D01*
X142673658Y-80554385D01*
X142726000Y-80542999D01*
X143459669Y-80542999D01*
X143466490Y-80542629D01*
X143517352Y-80537105D01*
X143532604Y-80533479D01*
X143653054Y-80488324D01*
X143668649Y-80479786D01*
X143770724Y-80403285D01*
X143783285Y-80390724D01*
X143859786Y-80288649D01*
X143868324Y-80273054D01*
X143913478Y-80152606D01*
X143917105Y-80137351D01*
X143922631Y-80086486D01*
X143923000Y-80079672D01*
X143923000Y-79457115D01*
X143918525Y-79441876D01*
X143917135Y-79440671D01*
X143909452Y-79439000D01*
X142600000Y-79439000D01*
X142600000Y-78931000D01*
X143904884Y-78931000D01*
X143920123Y-78926525D01*
X143921328Y-78925135D01*
X143922999Y-78917452D01*
X143922999Y-78290331D01*
X143922629Y-78283510D01*
X143917105Y-78232648D01*
X143913479Y-78217397D01*
X143895797Y-78170230D01*
X143890614Y-78099423D01*
X143924535Y-78037054D01*
X143986790Y-78002924D01*
X144013779Y-78000000D01*
X145174000Y-78000000D01*
X145242121Y-78020002D01*
G37*
G04 #@! TD.AperFunction*
G04 #@! TA.AperFunction,Conductor*
G36*
X151176121Y-72428002D02*
G01*
X151222614Y-72481658D01*
X151234000Y-72534000D01*
X151234000Y-82759313D01*
X151213998Y-82827434D01*
X151160342Y-82873927D01*
X151090068Y-82884031D01*
X151068333Y-82878906D01*
X150980234Y-82849685D01*
X150966868Y-82846819D01*
X150874230Y-82837328D01*
X150867815Y-82837000D01*
X150793615Y-82837000D01*
X150778376Y-82841475D01*
X150777171Y-82842865D01*
X150775500Y-82850548D01*
X150775500Y-84784885D01*
X150779975Y-84800124D01*
X150781365Y-84801329D01*
X150789048Y-84803000D01*
X150867766Y-84803000D01*
X150874282Y-84802663D01*
X150968132Y-84792925D01*
X150981528Y-84790032D01*
X151068124Y-84761141D01*
X151139073Y-84758557D01*
X151200157Y-84794740D01*
X151231982Y-84858205D01*
X151234000Y-84880665D01*
X151234000Y-86342000D01*
X151213998Y-86410121D01*
X151160342Y-86456614D01*
X151108000Y-86468000D01*
X146072000Y-86468000D01*
X146003879Y-86447998D01*
X145957386Y-86394342D01*
X145946000Y-86342000D01*
X145946000Y-84103766D01*
X149476000Y-84103766D01*
X149476337Y-84110282D01*
X149486075Y-84204132D01*
X149488968Y-84217528D01*
X149539488Y-84368953D01*
X149545653Y-84382115D01*
X149629426Y-84517492D01*
X149638460Y-84528890D01*
X149751129Y-84641363D01*
X149762540Y-84650375D01*
X149898063Y-84733912D01*
X149911241Y-84740056D01*
X150062766Y-84790315D01*
X150076132Y-84793181D01*
X150168770Y-84802672D01*
X150175185Y-84803000D01*
X150249385Y-84803000D01*
X150264624Y-84798525D01*
X150265829Y-84797135D01*
X150267500Y-84789452D01*
X150267500Y-84092115D01*
X150263025Y-84076876D01*
X150261635Y-84075671D01*
X150253952Y-84074000D01*
X149494115Y-84074000D01*
X149478876Y-84078475D01*
X149477671Y-84079865D01*
X149476000Y-84087548D01*
X149476000Y-84103766D01*
X145946000Y-84103766D01*
X145946000Y-83547885D01*
X149476000Y-83547885D01*
X149480475Y-83563124D01*
X149481865Y-83564329D01*
X149489548Y-83566000D01*
X150249385Y-83566000D01*
X150264624Y-83561525D01*
X150265829Y-83560135D01*
X150267500Y-83552452D01*
X150267500Y-82855115D01*
X150263025Y-82839876D01*
X150261635Y-82838671D01*
X150253952Y-82837000D01*
X150175234Y-82837000D01*
X150168718Y-82837337D01*
X150074868Y-82847075D01*
X150061472Y-82849968D01*
X149910047Y-82900488D01*
X149896885Y-82906653D01*
X149761508Y-82990426D01*
X149750110Y-82999460D01*
X149637637Y-83112129D01*
X149628625Y-83123540D01*
X149545088Y-83259063D01*
X149538944Y-83272241D01*
X149488685Y-83423766D01*
X149485819Y-83437132D01*
X149476328Y-83529770D01*
X149476000Y-83536185D01*
X149476000Y-83547885D01*
X145946000Y-83547885D01*
X145946000Y-82044922D01*
X145966002Y-81976801D01*
X146019658Y-81930308D01*
X146089932Y-81920204D01*
X146154512Y-81949698D01*
X146179144Y-81978618D01*
X146199065Y-82010810D01*
X146208099Y-82022208D01*
X146322829Y-82136739D01*
X146334240Y-82145751D01*
X146472243Y-82230816D01*
X146485424Y-82236963D01*
X146639710Y-82288138D01*
X146653086Y-82291005D01*
X146747438Y-82300672D01*
X146753854Y-82301000D01*
X147403885Y-82301000D01*
X147419124Y-82296525D01*
X147420329Y-82295135D01*
X147422000Y-82287452D01*
X147422000Y-82282884D01*
X147930000Y-82282884D01*
X147934475Y-82298123D01*
X147935865Y-82299328D01*
X147943548Y-82300999D01*
X148598095Y-82300999D01*
X148604614Y-82300662D01*
X148700206Y-82290743D01*
X148713600Y-82287851D01*
X148867784Y-82236412D01*
X148880962Y-82230239D01*
X149018807Y-82144937D01*
X149030208Y-82135901D01*
X149144739Y-82021171D01*
X149153751Y-82009760D01*
X149238816Y-81871757D01*
X149244963Y-81858576D01*
X149296138Y-81704290D01*
X149299005Y-81690914D01*
X149308672Y-81596562D01*
X149309000Y-81590146D01*
X149309000Y-80790115D01*
X149304525Y-80774876D01*
X149303135Y-80773671D01*
X149295452Y-80772000D01*
X147948115Y-80772000D01*
X147932876Y-80776475D01*
X147931671Y-80777865D01*
X147930000Y-80785548D01*
X147930000Y-82282884D01*
X147422000Y-82282884D01*
X147422000Y-80245885D01*
X147930000Y-80245885D01*
X147934475Y-80261124D01*
X147935865Y-80262329D01*
X147943548Y-80264000D01*
X149290884Y-80264000D01*
X149306123Y-80259525D01*
X149307328Y-80258135D01*
X149308999Y-80250452D01*
X149308999Y-79445905D01*
X149308662Y-79439386D01*
X149298743Y-79343794D01*
X149295851Y-79330400D01*
X149244412Y-79176216D01*
X149238239Y-79163038D01*
X149152937Y-79025193D01*
X149143901Y-79013792D01*
X149029171Y-78899261D01*
X149017760Y-78890249D01*
X148879757Y-78805184D01*
X148866576Y-78799037D01*
X148712290Y-78747862D01*
X148698914Y-78744995D01*
X148604562Y-78735328D01*
X148598145Y-78735000D01*
X147948115Y-78735000D01*
X147932876Y-78739475D01*
X147931671Y-78740865D01*
X147930000Y-78748548D01*
X147930000Y-80245885D01*
X147422000Y-80245885D01*
X147422000Y-78753116D01*
X147417525Y-78737877D01*
X147416135Y-78736672D01*
X147408452Y-78735001D01*
X146753905Y-78735001D01*
X146747386Y-78735338D01*
X146651794Y-78745257D01*
X146638400Y-78748149D01*
X146484216Y-78799588D01*
X146471038Y-78805761D01*
X146333193Y-78891063D01*
X146321792Y-78900099D01*
X146207261Y-79014829D01*
X146198249Y-79026240D01*
X146179260Y-79057046D01*
X146126488Y-79104539D01*
X146056416Y-79115963D01*
X145991292Y-79087689D01*
X145951793Y-79028695D01*
X145946000Y-78990930D01*
X145946000Y-72408000D01*
X151108000Y-72408000D01*
X151176121Y-72428002D01*
G37*
G04 #@! TD.AperFunction*
G04 #@! TA.AperFunction,Conductor*
G36*
X140642121Y-77520002D02*
G01*
X140688614Y-77573658D01*
X140700000Y-77626000D01*
X140700000Y-82516000D01*
X140679998Y-82584121D01*
X140626342Y-82630614D01*
X140574000Y-82642000D01*
X139472115Y-82642000D01*
X139456876Y-82646475D01*
X139455671Y-82647865D01*
X139454000Y-82655548D01*
X139454000Y-84628000D01*
X139433998Y-84696121D01*
X139380342Y-84742614D01*
X139328000Y-84754000D01*
X139072000Y-84754000D01*
X139003879Y-84733998D01*
X138957386Y-84680342D01*
X138946000Y-84628000D01*
X138946000Y-82660116D01*
X138941525Y-82644877D01*
X138940135Y-82643672D01*
X138932452Y-82642001D01*
X137426000Y-82642001D01*
X137357879Y-82621999D01*
X137311386Y-82568343D01*
X137300000Y-82516001D01*
X137300000Y-77626000D01*
X137320002Y-77557879D01*
X137373658Y-77511386D01*
X137426000Y-77500000D01*
X140574000Y-77500000D01*
X140642121Y-77520002D01*
G37*
G04 #@! TD.AperFunction*
G04 #@! TA.AperFunction,Conductor*
G36*
X151130000Y-72414460D02*
G01*
X151130000Y-75438000D01*
X143428496Y-75438000D01*
X143360375Y-75417998D01*
X143313882Y-75364342D01*
X143303778Y-75294068D01*
X143333272Y-75229488D01*
X143355328Y-75209421D01*
X143440328Y-75148792D01*
X143448200Y-75142139D01*
X143599052Y-74991812D01*
X143605730Y-74983965D01*
X143730003Y-74811020D01*
X143735313Y-74802183D01*
X143829670Y-74611267D01*
X143833469Y-74601672D01*
X143895377Y-74397910D01*
X143897555Y-74387837D01*
X143898986Y-74376962D01*
X143896775Y-74362778D01*
X143883617Y-74359000D01*
X142437000Y-74359000D01*
X142368879Y-74338998D01*
X142322386Y-74285342D01*
X142311000Y-74233000D01*
X142311000Y-73832885D01*
X142819000Y-73832885D01*
X142823475Y-73848124D01*
X142824865Y-73849329D01*
X142832548Y-73851000D01*
X143883344Y-73851000D01*
X143896875Y-73847027D01*
X143898180Y-73837947D01*
X143856214Y-73670875D01*
X143852894Y-73661124D01*
X143767972Y-73465814D01*
X143763105Y-73456739D01*
X143647426Y-73277926D01*
X143641136Y-73269757D01*
X143497806Y-73112240D01*
X143490273Y-73105215D01*
X143323139Y-72973222D01*
X143314552Y-72967517D01*
X143128117Y-72864599D01*
X143118705Y-72860369D01*
X142917959Y-72789280D01*
X142907988Y-72786646D01*
X142836837Y-72773972D01*
X142823540Y-72775432D01*
X142819000Y-72789989D01*
X142819000Y-73832885D01*
X142311000Y-73832885D01*
X142311000Y-72788102D01*
X142307082Y-72774758D01*
X142292806Y-72772771D01*
X142254324Y-72778660D01*
X142244288Y-72781051D01*
X142041868Y-72847212D01*
X142032359Y-72851209D01*
X141843463Y-72949542D01*
X141834738Y-72955036D01*
X141664433Y-73082905D01*
X141656726Y-73089748D01*
X141509590Y-73243717D01*
X141503104Y-73251727D01*
X141454088Y-73323582D01*
X141399177Y-73368585D01*
X141328652Y-73376756D01*
X141264905Y-73345502D01*
X141228175Y-73284745D01*
X141224000Y-73252578D01*
X141224000Y-72534000D01*
X141244002Y-72465879D01*
X141297658Y-72419386D01*
X141350000Y-72408000D01*
X151108000Y-72408000D01*
X151130000Y-72414460D01*
G37*
G04 #@! TD.AperFunction*
M02*
