G04 #@! TF.GenerationSoftware,KiCad,Pcbnew,(6.0.1)*
G04 #@! TF.CreationDate,2022-04-24T16:37:43-07:00*
G04 #@! TF.ProjectId,Regulator_5V,52656775-6c61-4746-9f72-5f35562e6b69,rev?*
G04 #@! TF.SameCoordinates,Original*
G04 #@! TF.FileFunction,Paste,Top*
G04 #@! TF.FilePolarity,Positive*
%FSLAX46Y46*%
G04 Gerber Fmt 4.6, Leading zero omitted, Abs format (unit mm)*
G04 Created by KiCad (PCBNEW (6.0.1)) date 2022-04-24 16:37:43*
%MOMM*%
%LPD*%
G01*
G04 APERTURE LIST*
G04 Aperture macros list*
%AMRoundRect*
0 Rectangle with rounded corners*
0 $1 Rounding radius*
0 $2 $3 $4 $5 $6 $7 $8 $9 X,Y pos of 4 corners*
0 Add a 4 corners polygon primitive as box body*
4,1,4,$2,$3,$4,$5,$6,$7,$8,$9,$2,$3,0*
0 Add four circle primitives for the rounded corners*
1,1,$1+$1,$2,$3*
1,1,$1+$1,$4,$5*
1,1,$1+$1,$6,$7*
1,1,$1+$1,$8,$9*
0 Add four rect primitives between the rounded corners*
20,1,$1+$1,$2,$3,$4,$5,0*
20,1,$1+$1,$4,$5,$6,$7,0*
20,1,$1+$1,$6,$7,$8,$9,0*
20,1,$1+$1,$8,$9,$2,$3,0*%
G04 Aperture macros list end*
%ADD10C,0.100000*%
%ADD11RoundRect,0.250000X-1.025000X0.875000X-1.025000X-0.875000X1.025000X-0.875000X1.025000X0.875000X0*%
%ADD12RoundRect,0.237500X0.237500X-0.300000X0.237500X0.300000X-0.237500X0.300000X-0.237500X-0.300000X0*%
%ADD13R,1.778000X0.533400*%
%ADD14RoundRect,0.250000X-0.475000X0.337500X-0.475000X-0.337500X0.475000X-0.337500X0.475000X0.337500X0*%
%ADD15RoundRect,0.250000X0.350000X0.450000X-0.350000X0.450000X-0.350000X-0.450000X0.350000X-0.450000X0*%
%ADD16RoundRect,0.237500X-0.300000X-0.237500X0.300000X-0.237500X0.300000X0.237500X-0.300000X0.237500X0*%
%ADD17RoundRect,0.237500X-0.237500X0.300000X-0.237500X-0.300000X0.237500X-0.300000X0.237500X0.300000X0*%
%ADD18R,5.588000X5.334000*%
%ADD19R,5.283200X6.350000*%
%ADD20RoundRect,0.250000X0.475000X-0.337500X0.475000X0.337500X-0.475000X0.337500X-0.475000X-0.337500X0*%
G04 APERTURE END LIST*
D10*
X138207750Y-89691000D02*
X138207750Y-91041000D01*
X138207750Y-91041000D02*
X140407750Y-91041000D01*
X140407750Y-91041000D02*
X140407750Y-89691000D01*
X140407750Y-89691000D02*
X138207750Y-89691000D01*
G36*
X140407750Y-91041000D02*
G01*
X138207750Y-91041000D01*
X138207750Y-89691000D01*
X140407750Y-89691000D01*
X140407750Y-91041000D01*
G37*
X140407750Y-91041000D02*
X138207750Y-91041000D01*
X138207750Y-89691000D01*
X140407750Y-89691000D01*
X140407750Y-91041000D01*
X138207750Y-88141000D02*
X138207750Y-89491000D01*
X138207750Y-89491000D02*
X140407750Y-89491000D01*
X140407750Y-89491000D02*
X140407750Y-88141000D01*
X140407750Y-88141000D02*
X138207750Y-88141000D01*
G36*
X140407750Y-89491000D02*
G01*
X138207750Y-89491000D01*
X138207750Y-88141000D01*
X140407750Y-88141000D01*
X140407750Y-89491000D01*
G37*
X140407750Y-89491000D02*
X138207750Y-89491000D01*
X138207750Y-88141000D01*
X140407750Y-88141000D01*
X140407750Y-89491000D01*
D11*
X153500000Y-93820500D03*
X153500000Y-100220500D03*
D12*
X153500000Y-91025000D03*
X153500000Y-89300000D03*
D13*
X136742350Y-87686000D03*
X136742350Y-88956000D03*
X136742350Y-90226000D03*
X136742350Y-91496000D03*
X141873150Y-91496000D03*
X141873150Y-90226000D03*
X141873150Y-88956000D03*
X141873150Y-87686000D03*
D14*
X149436000Y-88617000D03*
X149436000Y-90692000D03*
D15*
X146118000Y-95242500D03*
X144118000Y-95242500D03*
D16*
X138921500Y-85082500D03*
X140646500Y-85082500D03*
D17*
X145880000Y-88792000D03*
X145880000Y-90517000D03*
D18*
X160401000Y-82804000D03*
X160401000Y-92964000D03*
D19*
X182473600Y-87884000D03*
D20*
X145880000Y-86628000D03*
X145880000Y-84553000D03*
M02*
